<svg width="54" height="38" viewBox="0 0 54 38" fill="none" xmlns="http://www.w3.org/2000/svg">
<g clip-path="url(#clip0_201_942)">
<path d="M33.0604 3C33.5421 3.00004 34.0077 3.17395 34.3714 3.48975C34.7352 3.80556 34.9727 4.24206 35.0404 4.719L35.0574 4.875L35.9324 18.875C35.9655 19.4003 35.7901 19.9175 35.4443 20.3143C35.0986 20.7112 34.6103 20.9558 34.0854 20.995L33.9354 21H20.0664C19.5401 21 19.035 20.7926 18.6606 20.4227C18.2862 20.0528 18.0727 19.5503 18.0664 19.024L18.0694 18.875L18.9444 4.875C18.9745 4.39407 19.1772 3.94017 19.5153 3.59679C19.8533 3.2534 20.304 3.04361 20.7844 3.006L20.9404 3H33.0604ZM30.0004 7C29.7555 7.00003 29.5191 7.08996 29.336 7.25272C29.153 7.41547 29.0361 7.63975 29.0074 7.883L29.0004 8C29.0004 8.53043 28.7897 9.03914 28.4146 9.41421C28.0395 9.78929 27.5308 10 27.0004 10C26.47 10 25.9613 9.78929 25.5862 9.41421C25.2111 9.03914 25.0004 8.53043 25.0004 8C25.0004 7.73478 24.895 7.48043 24.7075 7.29289C24.52 7.10536 24.2656 7 24.0004 7C23.7352 7 23.4808 7.10536 23.2933 7.29289C23.1058 7.48043 23.0004 7.73478 23.0004 8C23.0004 9.06087 23.4218 10.0783 24.172 10.8284C24.9221 11.5786 25.9395 12 27.0004 12C28.0613 12 29.0787 11.5786 29.8288 10.8284C30.579 10.0783 31.0004 9.06087 31.0004 8C31.0004 7.73478 30.895 7.48043 30.7075 7.29289C30.52 7.10536 30.2656 7 30.0004 7Z" fill="#4522BD" fill-opacity="0.3"/>
</g>
<path d="M16.7138 32.72C16.9638 31.92 17.0838 30.82 17.0938 29.59C17.0938 29.53 17.0638 29.49 16.9938 29.49H11.3638C11.3038 29.49 11.2638 29.53 11.2638 29.59V30.08C11.2638 30.15 11.3038 30.18 11.3638 30.18H16.3138C16.2938 31.06 16.1638 31.98 15.9238 32.72H10.1638C10.1038 32.72 10.0638 32.76 10.0638 32.82V33.3C10.0638 33.37 10.1038 33.41 10.1638 33.41H18.2638C18.3238 33.41 18.3538 33.37 18.3538 33.3V32.82C18.3538 32.76 18.3238 32.72 18.2638 32.72H16.7138ZM11.4238 34.54C11.3538 34.54 11.3138 34.58 11.3138 34.64V37.73C11.3138 37.79 11.3538 37.83 11.4238 37.83H16.9938C17.0638 37.83 17.0938 37.79 17.0938 37.73V34.64C17.0938 34.58 17.0638 34.54 16.9938 34.54H11.4238ZM12.1038 37.15V35.2H16.3138V37.15H12.1038ZM22.7319 32.56C24.6019 32.56 25.5119 31.84 25.5119 30.89C25.5119 29.93 24.6019 29.22 22.7319 29.22C20.8619 29.22 19.9519 29.93 19.9519 30.89C19.9519 31.84 20.8619 32.56 22.7319 32.56ZM22.7319 29.88C24.1519 29.88 24.7319 30.33 24.7319 30.89C24.7319 31.45 24.1519 31.9 22.7319 31.9C21.3119 31.9 20.7419 31.45 20.7419 30.89C20.7419 30.33 21.3119 29.88 22.7319 29.88ZM18.6919 33.17C18.6319 33.17 18.5919 33.22 18.5919 33.28V33.75C18.5919 33.81 18.6319 33.85 18.6919 33.85H20.9519V34.97C20.2419 35.24 19.8719 35.71 19.8719 36.34C19.8719 37.37 20.8519 37.99 22.7319 37.99C24.6119 37.99 25.5919 37.37 25.5919 36.34C25.5919 35.71 25.2319 35.25 24.5219 34.98V33.85H26.7919C26.8519 33.85 26.8819 33.81 26.8819 33.75V33.28C26.8819 33.22 26.8519 33.17 26.7919 33.17H18.6919ZM23.7519 34.78C23.4519 34.73 23.1119 34.71 22.7319 34.71C22.3619 34.71 22.0219 34.73 21.7219 34.78V33.85H23.7519V34.78ZM24.8119 36.34C24.8119 36.95 24.1719 37.32 22.7319 37.32C21.2919 37.32 20.6519 36.95 20.6519 36.34C20.6519 35.73 21.2919 35.37 22.7319 35.37C24.1719 35.37 24.8119 35.73 24.8119 36.34ZM34.12 31.12V29.21C34.12 29.15 34.1 29.11 34.02 29.11H33.44C33.38 29.11 33.34 29.15 33.34 29.21V33.92C33.34 33.98 33.38 34.01 33.44 34.01H34.02C34.1 34.01 34.12 33.98 34.12 33.92V31.84H35.53C35.59 31.84 35.63 31.8 35.63 31.73V31.22C35.63 31.15 35.59 31.12 35.53 31.12H34.12ZM29.86 31.72C30.2 32.45 30.97 33.15 31.94 33.68C32 33.72 32.06 33.72 32.1 33.66L32.39 33.21C32.43 33.14 32.43 33.09 32.36 33.05C31.17 32.41 30.24 31.54 30.24 30.26V29.59C30.24 29.53 30.21 29.49 30.14 29.49H29.56C29.49 29.49 29.46 29.53 29.46 29.59V30.26C29.46 31.58 28.53 32.57 27.24 33.28C27.18 33.32 27.18 33.39 27.22 33.45L27.53 33.88C27.57 33.94 27.64 33.93 27.69 33.9C28.8 33.26 29.52 32.52 29.86 31.72ZM31.37 34.3C29.62 34.3 28.51 34.96 28.51 36.09C28.51 37.22 29.62 37.87 31.37 37.87C33.11 37.87 34.22 37.22 34.22 36.09C34.22 34.96 33.11 34.3 31.37 34.3ZM31.37 37.19C30.06 37.19 29.3 36.8 29.3 36.09C29.3 35.37 30.06 34.98 31.37 34.98C32.68 34.98 33.44 35.37 33.44 36.09C33.44 36.8 32.68 37.19 31.37 37.19ZM42.7281 32.39C42.8081 32.39 42.8381 32.35 42.8381 32.3V31.84C42.8381 31.77 42.8081 31.73 42.7281 31.73H41.5781V30H42.6781C42.7581 30 42.7881 29.96 42.7881 29.9V29.43C42.7881 29.37 42.7581 29.33 42.6781 29.33H36.8981C36.8281 29.33 36.7981 29.37 36.7981 29.43V29.9C36.7981 29.96 36.8281 30 36.8981 30H38.0081V31.73H36.8581C36.7781 31.73 36.7481 31.77 36.7481 31.84V32.3C36.7481 32.35 36.7781 32.39 36.8581 32.39H42.7281ZM40.7981 30V31.73H38.7881V30H40.7981ZM35.7481 33.28C35.6881 33.28 35.6481 33.32 35.6481 33.39V33.86C35.6481 33.92 35.6881 33.96 35.7481 33.96H39.3981V34.87H36.9781C36.9081 34.87 36.8781 34.91 36.8781 34.97V37.73C36.8781 37.79 36.9081 37.83 36.9781 37.83H42.6081C42.6681 37.83 42.7081 37.79 42.7081 37.73V34.97C42.7081 34.91 42.6681 34.87 42.6081 34.87H40.1881V33.96H43.8481C43.9081 33.96 43.9381 33.92 43.9381 33.86V33.39C43.9381 33.32 43.9081 33.28 43.8481 33.28H35.7481ZM37.6581 37.15V35.53H41.9281V37.15H37.6581Z" fill="#4522BD" fill-opacity="0.3"/>
<defs>
<clipPath id="clip0_201_942">
<path d="M15 12C15 5.37258 20.3726 0 27 0C33.6274 0 39 5.37258 39 12C39 18.6274 33.6274 24 27 24C20.3726 24 15 18.6274 15 12Z" fill="white"/>
</clipPath>
</defs>
</svg>
