<svg width="54" height="38" viewBox="0 0 54 38" fill="none" xmlns="http://www.w3.org/2000/svg">
<path d="M27.375 2.25C24.8901 2.25495 22.5084 3.24427 20.7513 5.00135C18.9943 6.75843 18.005 9.14012 18 11.625V19.5281C18 19.9185 18.1551 20.2929 18.4311 20.5689C18.7071 20.8449 19.0815 21 19.4719 21H27.375C29.8614 21 32.246 20.0123 34.0041 18.2541C35.7623 16.496 36.75 14.1114 36.75 11.625C36.75 9.1386 35.7623 6.75403 34.0041 4.99587C32.246 3.23772 29.8614 2.25 27.375 2.25ZM22.875 13.125C22.6525 13.125 22.435 13.059 22.25 12.9354C22.065 12.8118 21.9208 12.6361 21.8356 12.4305C21.7505 12.225 21.7282 11.9988 21.7716 11.7805C21.815 11.5623 21.9222 11.3618 22.0795 11.2045C22.2368 11.0472 22.4373 10.94 22.6555 10.8966C22.8738 10.8532 23.1 10.8755 23.3055 10.9606C23.5111 11.0458 23.6868 11.19 23.8104 11.375C23.934 11.56 24 11.7775 24 12C24 12.2984 23.8815 12.5845 23.6705 12.7955C23.4595 13.0065 23.1734 13.125 22.875 13.125ZM27.375 13.125C27.1525 13.125 26.935 13.059 26.75 12.9354C26.565 12.8118 26.4208 12.6361 26.3356 12.4305C26.2505 12.225 26.2282 11.9988 26.2716 11.7805C26.315 11.5623 26.4222 11.3618 26.5795 11.2045C26.7368 11.0472 26.9373 10.94 27.1555 10.8966C27.3738 10.8532 27.6 10.8755 27.8055 10.9606C28.0111 11.0458 28.1868 11.19 28.3104 11.375C28.434 11.56 28.5 11.7775 28.5 12C28.5 12.2984 28.3815 12.5845 28.1705 12.7955C27.9595 13.0065 27.6734 13.125 27.375 13.125ZM31.875 13.125C31.6525 13.125 31.435 13.059 31.25 12.9354C31.065 12.8118 30.9208 12.6361 30.8356 12.4305C30.7505 12.225 30.7282 11.9988 30.7716 11.7805C30.815 11.5623 30.9222 11.3618 31.0795 11.2045C31.2368 11.0472 31.4373 10.94 31.6555 10.8966C31.8738 10.8532 32.1 10.8755 32.3055 10.9606C32.5111 11.0458 32.6868 11.19 32.8104 11.375C32.934 11.56 33 11.7775 33 12C33 12.2984 32.8815 12.5845 32.6705 12.7955C32.4595 13.0065 32.1734 13.125 31.875 13.125Z" fill="#4522BD" fill-opacity="0.3"/>
<path d="M21.3278 31.12V29.21C21.3278 29.15 21.3078 29.11 21.2278 29.11H20.6478C20.5878 29.11 20.5478 29.15 20.5478 29.21V33.92C20.5478 33.98 20.5878 34.01 20.6478 34.01H21.2278C21.3078 34.01 21.3278 33.98 21.3278 33.92V31.84H22.7378C22.7978 31.84 22.8378 31.8 22.8378 31.73V31.22C22.8378 31.15 22.7978 31.12 22.7378 31.12H21.3278ZM17.0678 31.72C17.4078 32.45 18.1778 33.15 19.1478 33.68C19.2078 33.72 19.2678 33.72 19.3078 33.66L19.5978 33.21C19.6378 33.14 19.6378 33.09 19.5678 33.05C18.3778 32.41 17.4478 31.54 17.4478 30.26V29.59C17.4478 29.53 17.4178 29.49 17.3478 29.49H16.7678C16.6978 29.49 16.6678 29.53 16.6678 29.59V30.26C16.6678 31.58 15.7378 32.57 14.4478 33.28C14.3878 33.32 14.3878 33.39 14.4278 33.45L14.7378 33.88C14.7778 33.94 14.8478 33.93 14.8978 33.9C16.0078 33.26 16.7278 32.52 17.0678 31.72ZM18.5778 34.3C16.8278 34.3 15.7178 34.96 15.7178 36.09C15.7178 37.22 16.8278 37.87 18.5778 37.87C20.3178 37.87 21.4278 37.22 21.4278 36.09C21.4278 34.96 20.3178 34.3 18.5778 34.3ZM18.5778 37.19C17.2678 37.19 16.5078 36.8 16.5078 36.09C16.5078 35.37 17.2678 34.98 18.5778 34.98C19.8878 34.98 20.6478 35.37 20.6478 36.09C20.6478 36.8 19.8878 37.19 18.5778 37.19ZM29.8559 31.21V29.21C29.8559 29.15 29.8359 29.11 29.7559 29.11H29.1759C29.1159 29.11 29.0759 29.15 29.0759 29.21V33.8C29.0759 33.87 29.1159 33.91 29.1759 33.91H29.7559C29.8359 33.91 29.8559 33.87 29.8559 33.8V31.93H31.2659C31.3259 31.93 31.3659 31.89 31.3659 31.83V31.32C31.3659 31.25 31.3259 31.21 31.2659 31.21H29.8559ZM28.1059 33.11C28.1759 33.09 28.1959 33.05 28.1859 32.99L28.1259 32.56C28.1059 32.48 28.0659 32.45 27.9959 32.47C27.1159 32.65 26.0559 32.74 25.2059 32.74H24.1459V30.31H27.5159C27.5859 30.31 27.6159 30.27 27.6159 30.2V29.72C27.6159 29.66 27.5859 29.62 27.5159 29.62H23.4659C23.3959 29.62 23.3659 29.66 23.3659 29.72V33.29C23.3659 33.37 23.3959 33.42 23.4959 33.42H25.0559C26.1259 33.42 27.2159 33.31 28.1059 33.11ZM24.6059 34.4C24.5459 34.4 24.5059 34.44 24.5059 34.49V37.67C24.5059 37.74 24.5459 37.78 24.6059 37.78H29.7659C29.8359 37.78 29.8559 37.74 29.8559 37.67V34.49C29.8559 34.44 29.8359 34.4 29.7659 34.4H24.6059ZM25.2959 37.09V35.08H29.0759V37.09H25.2959ZM35.9241 33.97V33.1H38.4241C38.4941 33.1 38.5341 33.06 38.5341 33.01V32.57C38.5341 32.51 38.4941 32.47 38.4241 32.47H33.4141V31.55H38.2141C38.2841 31.55 38.3241 31.51 38.3241 31.45V31.02C38.3241 30.95 38.2841 30.91 38.2141 30.91H33.4141V30.03H38.2741C38.3441 30.03 38.3741 29.99 38.3741 29.92V29.48C38.3741 29.43 38.3441 29.39 38.2741 29.39H32.7441C32.6741 29.39 32.6341 29.43 32.6341 29.49V33.01C32.6341 33.06 32.6741 33.1 32.7441 33.1H35.1341V33.97H31.4841C31.4241 33.97 31.3841 34 31.3841 34.06V34.52C31.3841 34.58 31.4241 34.62 31.4841 34.62H39.5841C39.6441 34.62 39.6741 34.58 39.6741 34.52V34.06C39.6741 34 39.6441 33.97 39.5841 33.97H35.9241ZM32.6441 35.32C32.5841 35.32 32.5441 35.36 32.5441 35.43V35.87C32.5441 35.93 32.5841 35.97 32.6441 35.97H37.6541V37.78C37.6541 37.84 37.6841 37.87 37.7541 37.87H38.3341C38.3941 37.87 38.4341 37.84 38.4341 37.78V35.43C38.4341 35.36 38.3941 35.32 38.3341 35.32H32.6441Z" fill="#4522BD" fill-opacity="0.3"/>
</svg>
