<svg width="21" height="18" viewBox="0 0 21 18" fill="none" xmlns="http://www.w3.org/2000/svg">
<path fill-rule="evenodd" clip-rule="evenodd" d="M0.127686 1.75C0.127686 1.19772 0.575401 0.75 1.12769 0.75H19.6267C20.179 0.75 20.6267 1.19772 20.6267 1.75C20.6267 2.30228 20.179 2.75 19.6267 2.75H1.12769C0.575401 2.75 0.127686 2.30228 0.127686 1.75ZM0.5 8.99985C0.5 8.44756 0.947715 7.99985 1.5 7.99985H20C20.5523 7.99985 21 8.44756 21 8.99985C21 9.55213 20.5523 9.99985 20 9.99985H1.5C0.947715 9.99985 0.5 9.55213 0.5 8.99985ZM1.12769 15.25C0.575401 15.25 0.127686 15.6977 0.127686 16.25C0.127686 16.8023 0.575401 17.25 1.12769 17.25H19.6267C20.179 17.25 20.6267 16.8023 20.6267 16.25C20.6267 15.6977 20.179 15.25 19.6267 15.25H1.12769Z" fill="black"/>
</svg>
