<svg width="64" height="65" viewBox="0 0 64 65" fill="none" xmlns="http://www.w3.org/2000/svg">
<rect width="64" height="64" transform="translate(0 0.518799)" fill="white"/>
<path d="M41 23.7388C41 18.2488 36.74 14.5188 32 14.5188C27.31 14.5188 23 18.1688 23 23.7988C22.4 24.1388 22 24.7788 22 25.5188V27.5188C22 28.6188 22.9 29.5188 24 29.5188H25V23.4188C25 19.5488 28.13 16.4188 32 16.4188C35.87 16.4188 39 19.5488 39 23.4188V30.5188H31V32.5188H39C40.1 32.5188 41 31.6188 41 30.5188V29.2988C41.59 28.9888 42 28.3788 42 27.6588V25.3588C42 24.6588 41.59 24.0488 41 23.7388Z" fill="black"/>
<path d="M29 25.5188C29.5523 25.5188 30 25.0711 30 24.5188C30 23.9665 29.5523 23.5188 29 23.5188C28.4477 23.5188 28 23.9665 28 24.5188C28 25.0711 28.4477 25.5188 29 25.5188Z" fill="black"/>
<path d="M35 25.5188C35.5523 25.5188 36 25.0711 36 24.5188C36 23.9665 35.5523 23.5188 35 23.5188C34.4477 23.5188 34 23.9665 34 24.5188C34 25.0711 34.4477 25.5188 35 25.5188Z" fill="black"/>
<path d="M38 22.5488C37.52 19.6988 35.04 17.5188 32.05 17.5188C29.02 17.5188 25.76 20.0288 26.02 23.9688C28.49 22.9588 30.35 20.7588 30.88 18.0788C32.19 20.7088 34.88 22.5188 38 22.5488Z" fill="black"/>
<path d="M30.22 40.6548H29.272V47.9988H30.22V40.6548ZM25.672 43.7508V44.5548H27.196V47.0268H28.132V40.8348H27.196V43.7508H25.672ZM26.488 46.0788C25.132 45.5268 24.316 44.2428 24.316 42.9828V42.8508H26.224V42.0588H24.316V40.8108H23.38V42.0588H21.436V42.8508H23.38V42.9828C23.38 44.3388 22.588 45.7188 21.22 46.3188L21.724 47.0508C22.78 46.5828 23.512 45.6708 23.86 44.6028C24.256 45.5748 24.988 46.3908 26.008 46.8108L26.488 46.0788ZM27.124 47.4828H26.128V47.7348C26.128 49.1388 24.388 50.3028 22.504 50.5908L22.876 51.3708C24.484 51.0948 25.972 50.2548 26.632 49.0668C27.28 50.2548 28.792 51.0948 30.4 51.3708L30.772 50.5908C28.876 50.3028 27.124 49.1388 27.124 47.7348V47.4828ZM37.5511 47.6028H36.5431V47.8908C36.5431 49.2708 34.8871 50.3268 32.9311 50.5908L33.2911 51.3708C34.9231 51.1068 36.3871 50.3508 37.0471 49.2108C37.6831 50.3508 39.1471 51.1068 40.7791 51.3708L41.1511 50.5908C39.1951 50.3268 37.5511 49.2708 37.5511 47.8908V47.6028ZM34.4311 42.8868H39.6631V44.1108H34.4311V42.8868ZM37.5391 46.0908V44.8908H40.6351V40.9308H39.6631V42.1308H34.4311V40.9308H33.4591V44.8908H36.5551V46.0908H32.1631V46.8828H41.9071V46.0908H37.5391Z" fill="#666666"/>
</svg>
