<svg width="64" height="64" viewBox="0 0 64 64" fill="none" xmlns="http://www.w3.org/2000/svg">
<rect width="64" height="64" fill="white"/>
<path d="M40 14.5H37.82C37.93 14.19 38 13.85 38 13.5C38 11.84 36.66 10.5 35 10.5C33.95 10.5 33.04 11.04 32.5 11.85L32 12.52L31.5 11.84C30.96 11.04 30.05 10.5 29 10.5C27.34 10.5 26 11.84 26 13.5C26 13.85 26.07 14.19 26.18 14.5H24C22.89 14.5 22.01 15.39 22.01 16.5L22 27.5C22 28.61 22.89 29.5 24 29.5H40C41.11 29.5 42 28.61 42 27.5V16.5C42 15.39 41.11 14.5 40 14.5ZM35 12.5C35.55 12.5 36 12.95 36 13.5C36 14.05 35.55 14.5 35 14.5C34.45 14.5 34 14.05 34 13.5C34 12.95 34.45 12.5 35 12.5ZM29 12.5C29.55 12.5 30 12.95 30 13.5C30 14.05 29.55 14.5 29 14.5C28.45 14.5 28 14.05 28 13.5C28 12.95 28.45 12.5 29 12.5ZM40 27.5H24V25.5H40V27.5ZM40 22.5H24V16.5H29.08L27 19.33L28.62 20.5L32 15.9L35.38 20.5L37 19.33L34.92 16.5H40V22.5Z" fill="black"/>
<path d="M29.656 50.8H30.508V39.724H29.656V50.8ZM23.992 41.476V39.736H23.128V41.476H21.04V42.268H26.08V41.476H23.992ZM25.84 43.72V44.488H27.268V46.732H25.84V47.5H27.268V50.596H28.108V39.904H27.268V43.72H25.84ZM23.584 43.408C22.348 43.408 21.52 44.392 21.52 46V46.636C21.52 48.232 22.348 49.24 23.584 49.24C24.784 49.24 25.612 48.232 25.612 46.636V46C25.612 44.392 24.784 43.408 23.584 43.408ZM24.808 46.588C24.808 47.74 24.304 48.46 23.572 48.46C22.84 48.46 22.336 47.74 22.336 46.588V46.048C22.336 44.896 22.84 44.2 23.572 44.2C24.304 44.2 24.808 44.896 24.808 46.048V46.588ZM41.0589 42.448H39.3789V39.844H38.5629V46.192H39.3789V43.216H41.0589V46.192H41.8869V39.736H41.0589V42.448ZM37.6389 44.764C36.4989 44.944 35.5269 45.028 34.3269 45.028H33.5589V43.384H36.8829V42.628H33.5589V41.08H37.0029V40.324H32.7189V45.796H34.1829C35.6709 45.796 36.6789 45.688 37.7349 45.508L37.6389 44.764ZM41.0349 47.764V50.908H41.8869V46.972H34.6149V47.764H41.0349Z" fill="#666666"/>
</svg>
