<svg width="40" height="40" viewBox="0 0 40 40" fill="none" xmlns="http://www.w3.org/2000/svg">
<rect width="40" height="40" rx="8" fill="white"/>
<path d="M19.9997 31.6676C18.3858 31.6676 16.8691 31.3611 15.4497 30.7482C14.0302 30.1361 12.7955 29.3051 11.7455 28.2551C10.6955 27.2051 9.86445 25.9704 9.25234 24.5509C8.63945 23.1315 8.33301 21.6148 8.33301 20.0009C8.33301 16.987 9.3344 14.3717 11.3372 12.1551C13.34 9.93841 15.8386 8.68424 18.833 8.39258V11.8926C16.8108 12.1648 15.1386 13.069 13.8163 14.6051C12.4941 16.1412 11.833 17.9398 11.833 20.0009C11.833 22.2759 12.6256 24.2056 14.2107 25.7899C15.795 27.375 17.7247 28.1676 19.9997 28.1676C21.2441 28.1676 22.4256 27.9051 23.544 27.3801C24.6617 26.8551 25.6191 26.1065 26.4163 25.1342L29.4497 26.8842C28.3413 28.4009 26.9608 29.5773 25.308 30.4134C23.6552 31.2495 21.8858 31.6676 19.9997 31.6676ZM30.6747 24.7259L27.6413 22.9759C27.8163 22.4898 27.9478 21.9986 28.0357 21.5024C28.1228 21.007 28.1663 20.5065 28.1663 20.0009C28.1663 17.9398 27.5052 16.1412 26.183 14.6051C24.8608 13.069 23.1886 12.1648 21.1663 11.8926V8.39258C24.1608 8.68424 26.6594 9.93841 28.6622 12.1551C30.665 14.3717 31.6663 16.987 31.6663 20.0009C31.6663 20.8176 31.5932 21.6245 31.447 22.4217C31.3016 23.219 31.0441 23.987 30.6747 24.7259Z" fill="#6732F9"/>
</svg>
