<svg width="40" height="40" viewBox="0 0 40 40" fill="none" xmlns="http://www.w3.org/2000/svg">
<rect width="40" height="40" rx="8" fill="white"/>
<path d="M28.8145 31.0827H13.9395C12.9167 31.0827 11.9358 30.674 11.2125 29.9465C10.4893 29.219 10.083 28.2323 10.083 27.2035V12.241C10.083 11.3592 10.4313 10.5134 11.0512 9.88989C11.6711 9.26633 12.5119 8.91602 13.3886 8.91602H28.8145C29.1067 8.91602 29.387 9.03279 29.5936 9.24064C29.8003 9.44849 29.9163 9.7304 29.9163 10.0243V29.9743C29.9163 30.2683 29.8003 30.5502 29.5936 30.7581C29.387 30.9659 29.1067 31.0827 28.8145 31.0827ZM27.7126 28.866V25.541H13.9395C13.5011 25.541 13.0808 25.7162 12.7708 26.028C12.4608 26.3397 12.2867 26.7626 12.2867 27.2035C12.2867 27.6444 12.4608 28.0673 12.7708 28.3791C13.0808 28.6909 13.5011 28.866 13.9395 28.866H27.7126Z" fill="#6732F9"/>
</svg>
