<svg width="64" height="65" viewBox="0 0 64 65" fill="none" xmlns="http://www.w3.org/2000/svg">
<rect width="64" height="64" transform="translate(0 0.518799)" fill="white"/>
<path d="M40 18.0188H37.82C37.93 17.7088 38 17.3688 38 17.0188C38 15.3588 36.66 14.0188 35 14.0188C33.95 14.0188 33.04 14.5588 32.5 15.3688L32 16.0388L31.5 15.3588C30.96 14.5588 30.05 14.0188 29 14.0188C27.34 14.0188 26 15.3588 26 17.0188C26 17.3688 26.07 17.7088 26.18 18.0188H24C22.89 18.0188 22.01 18.9088 22.01 20.0188L22 31.0188C22 32.1288 22.89 33.0188 24 33.0188H40C41.11 33.0188 42 32.1288 42 31.0188V20.0188C42 18.9088 41.11 18.0188 40 18.0188ZM35 16.0188C35.55 16.0188 36 16.4688 36 17.0188C36 17.5688 35.55 18.0188 35 18.0188C34.45 18.0188 34 17.5688 34 17.0188C34 16.4688 34.45 16.0188 35 16.0188ZM29 16.0188C29.55 16.0188 30 16.4688 30 17.0188C30 17.5688 29.55 18.0188 29 18.0188C28.45 18.0188 28 17.5688 28 17.0188C28 16.4688 28.45 16.0188 29 16.0188ZM40 31.0188H24V29.0188H40V31.0188ZM40 26.0188H24V20.0188H29.08L27 22.8488L28.62 24.0188L32 19.4188L35.38 24.0188L37 22.8488L34.92 20.0188H40V26.0188Z" fill="black"/>
<path d="M26.428 42.4908H24.244V40.9188H23.272V42.4908H21.124V43.2828H26.428V42.4908ZM23.764 48.1548C22.948 48.1548 22.372 47.4708 22.372 46.5108C22.372 45.5388 22.948 44.8548 23.764 44.8548C24.556 44.8548 25.144 45.5388 25.144 46.5108C25.144 47.4708 24.556 48.1548 23.764 48.1548ZM27.352 44.2908H25.876V45.0828H27.352V46.7508H25.996C26.008 46.6668 26.008 46.5828 26.008 46.5108C26.008 45.0348 25.06 44.0148 23.764 44.0148C22.456 44.0148 21.508 45.0348 21.508 46.5108C21.508 47.9748 22.456 48.9948 23.764 48.9948C24.724 48.9948 25.504 48.4308 25.828 47.5428H27.352V50.8788H28.288V40.8828H27.352V44.2908ZM29.344 40.6428V51.4068H30.28V40.6428H29.344ZM37.2151 45.5148C36.0871 45.7428 35.1271 45.8028 33.5911 45.8028V44.3388H36.6751V43.5828H33.5911V42.2268H36.7951V41.4348H32.6431V46.6068H33.3271C35.0551 46.6068 36.0751 46.5588 37.3111 46.3068L37.2151 45.5148ZM34.0231 48.5268H40.2751V51.4068H41.2591V47.7348H34.0231V48.5268ZM40.3111 40.6548V43.4508H38.8711V40.8468H37.9351V47.0988H38.8711V44.2548H40.3111V47.1708H41.2591V40.6548H40.3111Z" fill="#666666"/>
</svg>
