<svg width="50" height="20" viewBox="0 0 50 20" fill="none" xmlns="http://www.w3.org/2000/svg">
<path d="M9.99984 17.6452L8.7915 16.5452C4.49984 12.6535 1.6665 10.0868 1.6665 6.93685C1.6665 4.37018 3.68317 2.35352 6.24984 2.35352C7.69984 2.35352 9.0915 3.02852 9.99984 4.09518C10.9082 3.02852 12.2998 2.35352 13.7498 2.35352C16.3165 2.35352 18.3332 4.37018 18.3332 6.93685C18.3332 10.0868 15.4998 12.6535 11.2082 16.5535L9.99984 17.6452Z" fill="#680DDD"/>
<path d="M45.8332 5.34102L44.6582 4.16602L39.9998 8.82435L35.3415 4.16602L34.1665 5.34102L38.8248 9.99935L34.1665 14.6577L35.3415 15.8327L39.9998 11.1743L44.6582 15.8327L45.8332 14.6577L41.1748 9.99935L45.8332 5.34102Z" fill="#AFAFAF"/>
</svg>
