<svg width="64" height="64" viewBox="0 0 64 64" fill="none" xmlns="http://www.w3.org/2000/svg">
<rect width="64" height="64" fill="white"/>
<path d="M41 20.22C41 14.73 36.74 11 32 11C27.31 11 23 14.65 23 20.28C22.4 20.62 22 21.26 22 22V24C22 25.1 22.9 26 24 26H25V19.9C25 16.03 28.13 12.9 32 12.9C35.87 12.9 39 16.03 39 19.9V27H31V29H39C40.1 29 41 28.1 41 27V25.78C41.59 25.47 42 24.86 42 24.14V21.84C42 21.14 41.59 20.53 41 20.22Z" fill="black"/>
<path d="M29 22C29.5523 22 30 21.5523 30 21C30 20.4477 29.5523 20 29 20C28.4477 20 28 20.4477 28 21C28 21.5523 28.4477 22 29 22Z" fill="black"/>
<path d="M35 22C35.5523 22 36 21.5523 36 21C36 20.4477 35.5523 20 35 20C34.4477 20 34 20.4477 34 21C34 21.5523 34.4477 22 35 22Z" fill="black"/>
<path d="M38 19.03C37.52 16.18 35.04 14 32.05 14C29.02 14 25.76 16.51 26.02 20.45C28.49 19.44 30.35 17.24 30.88 14.56C32.19 17.19 34.88 19 38 19.03Z" fill="black"/>
<path d="M25.972 45.892L26.452 45.244L23.884 43.12C24.004 42.712 24.064 42.292 24.064 41.824H26.116V41.056H24.064V39.58H23.236V41.056H21.232V41.824H23.224C23.212 43.324 22.444 44.428 20.896 45.484L21.328 46.132C22.408 45.436 23.152 44.716 23.584 43.876L25.972 45.892ZM29.68 39.724V46.948H30.508V39.724H29.68ZM25.552 43.48H27.352V45.952H28.168V39.844H27.352V42.724H25.552V43.48ZM27.004 48.268C27.184 47.932 27.28 47.572 27.28 47.188V46.624H26.404V47.188C26.404 48.448 24.772 49.444 22.48 50.152L22.78 50.908C24.472 50.416 25.768 49.744 26.524 48.928L30.748 50.848L31.096 50.092L27.004 48.268ZM37.9989 44.212H41.3109V39.94H40.4469V41.356H34.6869V39.94H33.8349V44.212H37.1469V45.52H32.3829V46.288H42.7509V45.52H37.9989V44.212ZM40.4469 42.088V43.48H34.6869V42.088H40.4469ZM38.0709 47.056H37.1949V47.56C37.1949 48.7 35.4189 49.564 33.1869 50.152L33.4389 50.92C35.0709 50.5 36.4389 49.948 37.2549 49.216L41.6829 50.86L41.9829 50.092L37.7829 48.58C37.9749 48.268 38.0709 47.932 38.0709 47.56V47.056Z" fill="#666666"/>
</svg>
