<svg width="24" height="24" viewBox="0 0 24 24" fill="none" xmlns="http://www.w3.org/2000/svg">
<path d="M10.1461 3.24792C10.2956 2.87864 10.5519 2.56238 10.8822 2.3397C11.2125 2.11701 11.6018 1.99805 12.0001 1.99805C12.3985 1.99805 12.7878 2.11701 13.1181 2.3397C13.4484 2.56238 13.7047 2.87864 13.8541 3.24792C15.3329 3.65461 16.6373 4.53548 17.5669 5.75526C18.4966 6.97504 19.0001 8.46627 19.0002 9.99992V14.6969L20.8322 17.4449C20.9326 17.5955 20.9903 17.7706 20.9991 17.9514C21.0079 18.1322 20.9674 18.3121 20.882 18.4717C20.7966 18.6313 20.6695 18.7648 20.5142 18.8578C20.3588 18.9508 20.1812 19 20.0002 18.9999H15.4651C15.3447 19.833 14.9282 20.5949 14.2919 21.1459C13.6555 21.6969 12.8419 22.0001 12.0001 22.0001C11.1584 22.0001 10.3448 21.6969 9.70845 21.1459C9.07209 20.5949 8.65555 19.833 8.53515 18.9999H4.00015C3.81911 19 3.64145 18.9508 3.48614 18.8578C3.33083 18.7648 3.20369 18.6313 3.11828 18.4717C3.03287 18.3121 2.99239 18.1322 3.00118 17.9514C3.00996 17.7706 3.06767 17.5955 3.16815 17.4449L5.00015 14.6969V9.99992C5.00015 6.77592 7.18015 4.05992 10.1461 3.24792ZM10.5862 18.9999C10.6894 19.2926 10.8809 19.546 11.1343 19.7252C11.3876 19.9045 11.6903 20.0007 12.0006 20.0007C12.311 20.0007 12.6137 19.9045 12.867 19.7252C13.1204 19.546 13.3119 19.2926 13.4151 18.9999H10.5851H10.5862ZM12.0001 4.99992C10.6741 4.99992 9.4023 5.52671 8.46462 6.46439C7.52693 7.40207 7.00015 8.67384 7.00015 9.99992V14.9999C7.00019 15.1975 6.94174 15.3906 6.83215 15.5549L5.86915 16.9999H18.1301L17.1671 15.5549C17.0579 15.3905 16.9998 15.1974 17.0001 14.9999V9.99992C17.0001 8.67384 16.4734 7.40207 15.5357 6.46439C14.598 5.52671 13.3262 4.99992 12.0001 4.99992Z" fill="black"/>
</svg>
