<svg width="65" height="28" viewBox="0 0 65 28" fill="none" xmlns="http://www.w3.org/2000/svg">
<circle cx="20.6277" cy="5.5" r="2.5" fill="#F6501C"/>
<path d="M12.1277 25.75C13.2277 25.75 14.1277 24.85 14.1277 23.75H10.1277C10.1277 24.85 11.0277 25.75 12.1277 25.75ZM18.1277 19.75V14.75C18.1277 11.68 16.4977 9.11 13.6277 8.43V7.75C13.6277 6.92 12.9577 6.25 12.1277 6.25C11.2977 6.25 10.6277 6.92 10.6277 7.75V8.43C7.76769 9.11 6.12769 11.67 6.12769 14.75V19.75L4.12769 21.75V22.75H20.1277V21.75L18.1277 19.75ZM16.1277 20.75H8.12769V14.75C8.12769 12.27 9.63769 10.25 12.1277 10.25C14.6177 10.25 16.1277 12.27 16.1277 14.75V20.75Z" fill="black"/>
<path fill-rule="evenodd" clip-rule="evenodd" d="M44.1277 8.75C44.1277 8.19772 44.5754 7.75 45.1277 7.75H63.6267C64.179 7.75 64.6267 8.19772 64.6267 8.75C64.6267 9.30228 64.179 9.75 63.6267 9.75H45.1277C44.5754 9.75 44.1277 9.30228 44.1277 8.75ZM44.5 15.9998C44.5 15.4476 44.9477 14.9998 45.5 14.9998H64C64.5523 14.9998 65 15.4476 65 15.9998C65 16.5521 64.5523 16.9998 64 16.9998H45.5C44.9477 16.9998 44.5 16.5521 44.5 15.9998ZM45.1277 22.25C44.5754 22.25 44.1277 22.6977 44.1277 23.25C44.1277 23.8023 44.5754 24.25 45.1277 24.25H63.6267C64.179 24.25 64.6267 23.8023 64.6267 23.25C64.6267 22.6977 64.179 22.25 63.6267 22.25H45.1277Z" fill="black"/>
</svg>
