<svg width="64" height="65" viewBox="0 0 64 65" fill="none" xmlns="http://www.w3.org/2000/svg">
<rect width="64" height="64" transform="translate(0 0.0771484)" fill="white"/>
<path d="M32 14.0771C33.1 14.0771 34 14.9771 34 16.0771C34 17.1771 33.1 18.0771 32 18.0771C30.9 18.0771 30 17.1771 30 16.0771C30 14.9771 30.9 14.0771 32 14.0771ZM32 24.0771C34.7 24.0771 37.8 25.3671 38 26.0771H26C26.23 25.3571 29.31 24.0771 32 24.0771ZM32 12.0771C29.79 12.0771 28 13.8671 28 16.0771C28 18.2871 29.79 20.0771 32 20.0771C34.21 20.0771 36 18.2871 36 16.0771C36 13.8671 34.21 12.0771 32 12.0771ZM32 22.0771C29.33 22.0771 24 23.4171 24 26.0771V28.0771H40V26.0771C40 23.4171 34.67 22.0771 32 22.0771Z" fill="#6732FB"/>
<path d="M30.004 43.8211V39.7651H28.468V50.9731H30.004V45.2131H31.624V43.8211H30.004ZM26.68 49.1971V40.5331H21.052V49.1971H26.68ZM25.156 41.9371V47.7931H22.588V41.9371H25.156ZM42.0069 50.9731V39.7651H40.4709V50.9731H42.0069ZM35.7189 49.5451C37.3869 49.5451 38.7669 48.4891 38.7669 45.7531V44.0371C38.7669 41.3011 37.3869 40.2451 35.7189 40.2451C34.0389 40.2451 32.6589 41.3011 32.6589 44.0371V45.7531C32.6589 48.4891 34.0389 49.5451 35.7189 49.5451ZM35.7189 48.1531C34.8909 48.1531 34.1949 47.5531 34.1949 45.7531V44.0371C34.1949 42.2371 34.8909 41.6371 35.7189 41.6371C36.5469 41.6371 37.2309 42.2371 37.2309 44.0371V45.7531C37.2309 47.5531 36.5469 48.1531 35.7189 48.1531Z" fill="#6732FB"/>
</svg>
