<svg width="64" height="64" viewBox="0 0 64 64" fill="none" xmlns="http://www.w3.org/2000/svg">
<rect width="64" height="64" fill="white"/>
<path d="M40.5 15.28V13C40.5 11.9 39.6 11 38.5 11H24.5C23.39 11 22.5 11.9 22.5 13V27C22.5 28.1 23.39 29 24.5 29H38.5C39.6 29 40.5 28.1 40.5 27V24.72C41.09 24.37 41.5 23.74 41.5 23V17C41.5 16.26 41.09 15.63 40.5 15.28ZM39.5 17V23H32.5V17H39.5ZM24.5 27V13H38.5V15H32.5C31.4 15 30.5 15.9 30.5 17V23C30.5 24.1 31.4 25 32.5 25H38.5V27H24.5Z" fill="black"/>
<path d="M35.5 21.5C36.3284 21.5 37 20.8284 37 20C37 19.1716 36.3284 18.5 35.5 18.5C34.6716 18.5 34 19.1716 34 20C34 20.8284 34.6716 21.5 35.5 21.5Z" fill="black"/>
<path d="M29.74 39.736H28.876V45.784H29.74V42.988H31.576V42.208H29.74V39.736ZM27.088 45.46L27.556 44.776L24.304 42.544C24.508 42.016 24.604 41.464 24.604 40.864V40.12H23.764V40.864C23.764 42.568 22.732 43.852 20.8 44.992L21.232 45.688C22.492 44.968 23.392 44.176 23.944 43.276L27.088 45.46ZM25.192 46.456C23.584 46.456 22.612 47.44 22.612 48.688C22.612 49.948 23.584 50.908 25.192 50.908H27.436C29.056 50.908 30.016 49.948 30.016 48.688C30.016 47.44 29.056 46.456 27.436 46.456H25.192ZM25.36 50.14C24.088 50.14 23.476 49.516 23.476 48.676C23.476 47.872 24.088 47.224 25.36 47.224H27.268C28.54 47.224 29.152 47.872 29.152 48.676C29.152 49.516 28.54 50.14 27.268 50.14H25.36ZM39.7509 43.336V40.744H41.4789V40H33.6669V40.744H35.3829V43.336H33.6669V44.08H41.4789V43.336H39.7509ZM38.9109 40.744V43.336H36.2229V40.744H38.9109ZM42.7509 45.196H32.3829V45.964H37.1349V47.26H33.7269V50.8H41.4189V47.26H37.9869V45.964H42.7509V45.196ZM34.5789 50.068V47.992H40.5549V50.068H34.5789Z" fill="#666666"/>
</svg>
