<svg width="20" height="20" viewBox="0 0 20 20" fill="none" xmlns="http://www.w3.org/2000/svg">
<path d="M13.7501 2.35352C12.3001 2.35352 10.9084 3.02852 10.0001 4.09518C9.09175 3.02852 7.70008 2.35352 6.25008 2.35352C3.68341 2.35352 1.66675 4.37018 1.66675 6.93685C1.66675 10.0868 4.50008 12.6535 8.79175 16.5535L10.0001 17.6452L11.2084 16.5452C15.5001 12.6535 18.3334 10.0868 18.3334 6.93685C18.3334 4.37018 16.3167 2.35352 13.7501 2.35352ZM10.0834 15.3118L10.0001 15.3952L9.91675 15.3118C5.95008 11.7202 3.33341 9.34518 3.33341 6.93685C3.33341 5.27018 4.58341 4.02018 6.25008 4.02018C7.53341 4.02018 8.78341 4.84518 9.22508 5.98685H10.7834C11.2167 4.84518 12.4667 4.02018 13.7501 4.02018C15.4167 4.02018 16.6667 5.27018 16.6667 6.93685C16.6667 9.34518 14.0501 11.7202 10.0834 15.3118Z" fill="#AFAFAF"/>
</svg>
