<svg width="54" height="38" viewBox="0 0 54 38" fill="none" xmlns="http://www.w3.org/2000/svg">
<path d="M28 2.0498V5.0798C31.39 5.5698 34 8.4698 34 11.9998C34 12.8998 33.82 13.7498 33.52 14.5398L36.12 16.0698C36.68 14.8298 37 13.4498 37 11.9998C37 6.8198 33.05 2.5498 28 2.0498ZM27 18.9998C23.13 18.9998 20 15.8698 20 11.9998C20 8.4698 22.61 5.5698 26 5.0798V2.0498C20.94 2.5498 17 6.8098 17 11.9998C17 17.5198 21.47 21.9998 26.99 21.9998C30.3 21.9998 33.23 20.3898 35.05 17.9098L32.45 16.3798C31.7976 17.1989 30.9686 17.8599 30.0249 18.3136C29.0812 18.7673 28.0471 19.0019 27 18.9998Z" fill="#4522BD" fill-opacity="0.3"/>
<path d="M12.7997 32.34V29.21C12.7997 29.15 12.7797 29.11 12.6997 29.11H12.1197C12.0597 29.11 12.0197 29.15 12.0197 29.21V37.68C12.0197 37.75 12.0597 37.79 12.1197 37.79H12.6997C12.7797 37.79 12.7997 37.75 12.7997 37.68V33.06H14.2097C14.2697 33.06 14.3097 33.03 14.3097 32.96V32.45C14.3097 32.38 14.2697 32.34 14.2097 32.34H12.7997ZM6.35969 30.02C6.29969 30.02 6.25969 30.06 6.25969 30.12V35.44C6.25969 35.51 6.29969 35.55 6.35969 35.55H10.4597C10.5297 35.55 10.5597 35.51 10.5597 35.44V30.12C10.5597 30.06 10.5297 30.02 10.4597 30.02H6.35969ZM7.03969 34.83V30.73H9.77969V34.83H7.03969ZM21.6678 37.79C21.7378 37.79 21.7778 37.75 21.7778 37.68V29.21C21.7778 29.15 21.7378 29.11 21.6678 29.11H21.0878C21.0178 29.11 20.9878 29.15 20.9878 29.21V37.68C20.9878 37.75 21.0178 37.79 21.0878 37.79H21.6678ZM17.0878 35.79C18.5378 35.79 19.5578 34.76 19.5578 32.83C19.5578 30.9 18.5378 29.88 17.0878 29.88C15.6278 29.88 14.6178 30.9 14.6178 32.83C14.6178 34.76 15.6278 35.79 17.0878 35.79ZM17.0878 35.07C16.0678 35.07 15.3978 34.31 15.3978 32.83C15.3978 31.36 16.0678 30.59 17.0878 30.59C18.0978 30.59 18.7678 31.36 18.7678 32.83C18.7678 34.31 18.0978 35.07 17.0878 35.07ZM29.9959 29.11C29.9259 29.11 29.8859 29.15 29.8859 29.21V37.68C29.8859 37.75 29.9259 37.79 29.9959 37.79H30.5759C30.6359 37.79 30.6659 37.75 30.6659 37.68V29.21C30.6659 29.15 30.6359 29.11 30.5759 29.11H29.9959ZM28.0259 29.3C27.9559 29.3 27.9259 29.34 27.9259 29.41V32.36H25.8359C25.7759 32.36 25.7359 32.4 25.7359 32.47V32.98C25.7359 33.04 25.7759 33.08 25.8359 33.08H27.9259V37.41C27.9259 37.48 27.9559 37.52 28.0259 37.52H28.5959C28.6559 37.52 28.6859 37.48 28.6859 37.41V29.41C28.6859 29.34 28.6559 29.3 28.5959 29.3H28.0259ZM26.9759 34.96C26.9759 34.9 26.9259 34.87 26.8559 34.88C26.1359 35.03 25.1659 35.13 24.4259 35.13H23.9259V30.74H26.4459C26.5059 30.74 26.5459 30.7 26.5459 30.64V30.15C26.5459 30.08 26.5059 30.04 26.4459 30.04H23.2559C23.1859 30.04 23.1459 30.08 23.1459 30.15V35.74C23.1459 35.8 23.1859 35.84 23.2559 35.84H24.3159C25.2359 35.84 26.2259 35.73 26.9759 35.56C27.0359 35.55 27.0659 35.52 27.0559 35.45L26.9759 34.96ZM38.7241 37.79C38.7941 37.79 38.8341 37.75 38.8341 37.68V29.21C38.8341 29.15 38.7941 29.11 38.7241 29.11H38.1441C38.0741 29.11 38.0441 29.15 38.0441 29.21V37.68C38.0441 37.75 38.0741 37.79 38.1441 37.79H38.7241ZM34.1441 35.79C35.5941 35.79 36.6141 34.76 36.6141 32.83C36.6141 30.9 35.5941 29.88 34.1441 29.88C32.6841 29.88 31.6741 30.9 31.6741 32.83C31.6741 34.76 32.6841 35.79 34.1441 35.79ZM34.1441 35.07C33.1241 35.07 32.4541 34.31 32.4541 32.83C32.4541 31.36 33.1241 30.59 34.1441 30.59C35.1541 30.59 35.8241 31.36 35.8241 32.83C35.8241 34.31 35.1541 35.07 34.1441 35.07ZM46.6722 29.11C46.6022 29.11 46.5722 29.15 46.5722 29.21V32.35H44.9622C44.8922 32.35 44.8522 32.39 44.8522 32.46V32.96C44.8522 33.03 44.8922 33.06 44.9622 33.06H46.5722V37.68C46.5722 37.75 46.6022 37.79 46.6722 37.79H47.2522C47.3222 37.79 47.3622 37.75 47.3622 37.68V29.21C47.3622 29.15 47.3222 29.11 47.2522 29.11H46.6722ZM45.0322 34.87C45.0222 34.79 44.9822 34.76 44.9122 34.78C44.0022 34.97 42.8822 35.06 42.0222 35.06H41.2522V33.12H44.1422C44.2122 33.12 44.2422 33.09 44.2422 33.03V32.57C44.2422 32.51 44.2122 32.47 44.1422 32.47H41.2522V30.6H44.4322C44.5022 30.6 44.5222 30.56 44.5222 30.5V30.02C44.5222 29.96 44.5022 29.92 44.4322 29.92H40.5722C40.5022 29.92 40.4622 29.96 40.4622 30.02V35.64C40.4622 35.7 40.5022 35.74 40.5722 35.74H41.8722C43.0522 35.74 44.0722 35.63 45.0322 35.44C45.1022 35.42 45.1322 35.39 45.1222 35.33L45.0322 34.87Z" fill="#4522BD" fill-opacity="0.3"/>
</svg>
