<svg width="65" height="24" viewBox="0 0 65 24" fill="none" xmlns="http://www.w3.org/2000/svg">
<path d="M12.1279 6.19L17.1279 10.69V18.5H15.1279V12.5H9.12793V18.5H7.12793V10.69L12.1279 6.19ZM12.1279 3.5L2.12793 12.5H5.12793V20.5H11.1279V14.5H13.1279V20.5H19.1279V12.5H22.1279L12.1279 3.5Z" fill="black"/>
<path fill-rule="evenodd" clip-rule="evenodd" d="M44.1279 4.75C44.1279 4.19772 44.5756 3.75 45.1279 3.75H63.627C64.1792 3.75 64.627 4.19772 64.627 4.75C64.627 5.30228 64.1792 5.75 63.627 5.75H45.1279C44.5756 5.75 44.1279 5.30228 44.1279 4.75ZM44.5002 11.9998C44.5002 11.4476 44.948 10.9998 45.5002 10.9998H64.0002C64.5525 10.9998 65.0002 11.4476 65.0002 11.9998C65.0002 12.5521 64.5525 12.9998 64.0002 12.9998H45.5002C44.948 12.9998 44.5002 12.5521 44.5002 11.9998ZM45.1279 18.25C44.5756 18.25 44.1279 18.6977 44.1279 19.25C44.1279 19.8023 44.5756 20.25 45.1279 20.25H63.627C64.1792 20.25 64.627 19.8023 64.627 19.25C64.627 18.6977 64.1792 18.25 63.627 18.25H45.1279Z" fill="black"/>
</svg>
