<svg width="50" height="20" viewBox="0 0 50 20" fill="none" xmlns="http://www.w3.org/2000/svg">
<path d="M13.7498 2.35352C12.2998 2.35352 10.9082 3.02852 9.99984 4.09518C9.0915 3.02852 7.69984 2.35352 6.24984 2.35352C3.68317 2.35352 1.6665 4.37018 1.6665 6.93685C1.6665 10.0868 4.49984 12.6535 8.7915 16.5535L9.99984 17.6452L11.2082 16.5452C15.4998 12.6535 18.3332 10.0868 18.3332 6.93685C18.3332 4.37018 16.3165 2.35352 13.7498 2.35352ZM10.0832 15.3118L9.99984 15.3952L9.9165 15.3118C5.94984 11.7202 3.33317 9.34518 3.33317 6.93685C3.33317 5.27018 4.58317 4.02018 6.24984 4.02018C7.53317 4.02018 8.78317 4.84518 9.22484 5.98685H10.7832C11.2165 4.84518 12.4665 4.02018 13.7498 4.02018C15.4165 4.02018 16.6665 5.27018 16.6665 6.93685C16.6665 9.34518 14.0498 11.7202 10.0832 15.3118Z" fill="#AFAFAF"/>
<path d="M45.8332 5.34102L44.6582 4.16602L39.9998 8.82435L35.3415 4.16602L34.1665 5.34102L38.8248 9.99935L34.1665 14.6577L35.3415 15.8327L39.9998 11.1743L44.6582 15.8327L45.8332 14.6577L41.1748 9.99935L45.8332 5.34102Z" fill="#AFAFAF"/>
</svg>
