<svg width="54" height="38" viewBox="0 0 54 38" fill="none" xmlns="http://www.w3.org/2000/svg">
<path d="M21 21C20.45 21 19.979 20.804 19.587 20.412C19.195 20.02 18.9993 19.5493 19 19V10C19 9.68333 19.071 9.38333 19.213 9.1C19.355 8.81667 19.5507 8.58333 19.8 8.4L25.8 3.9C25.9833 3.76667 26.175 3.66667 26.375 3.6C26.575 3.53333 26.7833 3.5 27 3.5C27.2167 3.5 27.425 3.53333 27.625 3.6C27.825 3.66667 28.0167 3.76667 28.2 3.9L34.2 8.4C34.45 8.58333 34.646 8.81667 34.788 9.1C34.93 9.38333 35.0007 9.68333 35 10V19C35 19.55 34.804 20.021 34.412 20.413C34.02 20.805 33.5493 21.0007 33 21H29V14H25V21H21Z" fill="black"/>
<path d="M27.3959 33.72V33.04C28.7259 32.96 29.6159 32.47 29.6159 31.59C29.6159 31.11 29.2759 30.77 28.8859 30.58H30.1659C30.2359 30.58 30.2659 30.54 30.2659 30.47V30.04C30.2659 29.98 30.2359 29.93 30.1659 29.93H27.3959V29.15C27.3959 29.09 27.3659 29.05 27.2959 29.05H26.7059C26.6359 29.05 26.6059 29.09 26.6059 29.15V29.93H23.8459C23.7759 29.93 23.7359 29.98 23.7359 30.04V30.47C23.7359 30.54 23.7759 30.58 23.8459 30.58H25.1159C24.7159 30.77 24.3659 31.11 24.3659 31.59C24.3659 32.48 25.2759 32.96 26.6059 33.04V33.72H22.9559C22.8959 33.72 22.8559 33.76 22.8559 33.82V34.28C22.8559 34.34 22.8959 34.38 22.9559 34.38H31.0559C31.1159 34.38 31.1459 34.34 31.1459 34.28V33.82C31.1459 33.76 31.1159 33.72 31.0559 33.72H27.3959ZM25.1559 31.53C25.1559 30.97 25.8359 30.6 26.9959 30.6C28.1559 30.6 28.8459 30.97 28.8459 31.53C28.8459 32.08 28.1559 32.41 26.9959 32.41C25.8359 32.41 25.1559 32.08 25.1559 31.53ZM24.2159 35.11C24.1459 35.11 24.1059 35.15 24.1059 35.2V37.73C24.1059 37.79 24.1459 37.83 24.2159 37.83H29.7859C29.8559 37.83 29.8859 37.79 29.8859 37.73V35.2C29.8859 35.15 29.8559 35.11 29.7859 35.11H24.2159ZM24.8959 37.16V35.75H29.1059V37.16H24.8959Z" fill="black"/>
</svg>
