<svg width="40" height="40" viewBox="0 0 40 40" fill="none" xmlns="http://www.w3.org/2000/svg">
<rect width="40" height="40" rx="8" fill="white"/>
<path d="M30.5568 15.8711C30.5154 15.7678 30.4719 15.6644 30.4274 15.5611C29.7597 14.0234 28.679 12.7001 27.305 11.7375H29.5218C29.7414 11.7375 29.952 11.6503 30.1073 11.4953C30.2626 11.3403 30.3498 11.13 30.3498 10.9107C30.3498 10.6915 30.2626 10.4812 30.1073 10.3261C29.952 10.1711 29.7414 10.084 29.5218 10.084H18.7584C16.4692 10.0869 14.2648 10.9493 12.583 12.5C10.9011 14.0507 9.8648 16.1763 9.67984 18.4547C8.96465 18.6322 8.32919 19.0428 7.87406 19.6216C7.41892 20.2003 7.1701 20.9141 7.16699 21.65C7.16699 21.8692 7.25422 22.0795 7.4095 22.2346C7.56477 22.3896 7.77536 22.4767 7.99495 22.4767C8.21454 22.4767 8.42513 22.3896 8.5804 22.2346C8.73568 22.0795 8.82291 21.8692 8.82291 21.65C8.8231 21.3485 8.90583 21.0528 9.06216 20.7949C9.21849 20.537 9.44246 20.3267 9.70986 20.1867C9.91594 22.0415 10.6905 23.7876 11.9277 25.1863L13.2276 28.8198C13.3426 29.1412 13.5542 29.4192 13.8337 29.6157C14.1131 29.8122 14.4466 29.9176 14.7883 29.9173H16.1048C16.4464 29.9174 16.7796 29.8119 17.0588 29.6154C17.3381 29.4189 17.5496 29.1411 17.6645 28.8198L17.8632 28.2639H23.7934L23.9921 28.8198C24.107 29.1411 24.3185 29.4189 24.5977 29.6154C24.8769 29.8119 25.2102 29.9174 25.5518 29.9173H26.8682C27.2098 29.9174 27.5431 29.8119 27.8223 29.6154C28.1015 29.4189 28.313 29.1411 28.4279 28.8198L30.1055 24.1302H30.3498C31.0086 24.1302 31.6403 23.8689 32.1061 23.4038C32.572 22.9386 32.8337 22.3078 32.8337 21.65V18.3431C32.8337 17.721 32.5997 17.1216 32.178 16.6637C31.7563 16.2059 31.1776 15.923 30.5568 15.8711ZM22.8982 14.2094H18.7584C18.5388 14.2094 18.3282 14.1223 18.1729 13.9672C18.0177 13.8122 17.9304 13.6019 17.9304 13.3827C17.9304 13.1634 18.0177 12.9531 18.1729 12.7981C18.3282 12.643 18.5388 12.5559 18.7584 12.5559H22.8982C23.1178 12.5559 23.3284 12.643 23.4836 12.7981C23.6389 12.9531 23.7261 13.1634 23.7261 13.3827C23.7261 13.6019 23.6389 13.8122 23.4836 13.9672C23.3284 14.1223 23.1178 14.2094 22.8982 14.2094ZM25.796 19.9965C25.5504 19.9965 25.3103 19.9238 25.106 19.7875C24.9018 19.6513 24.7426 19.4576 24.6486 19.231C24.5546 19.0044 24.53 18.755 24.578 18.5145C24.6259 18.2739 24.7442 18.053 24.9178 17.8795C25.0915 17.7061 25.3128 17.588 25.5537 17.5401C25.7946 17.4923 26.0444 17.5169 26.2713 17.6107C26.4982 17.7046 26.6922 17.8635 26.8287 18.0675C26.9651 18.2714 27.038 18.5111 27.038 18.7564C27.038 19.0853 26.9071 19.4007 26.6742 19.6333C26.4413 19.8659 26.1254 19.9965 25.796 19.9965Z" fill="#6732F9"/>
</svg>
