<svg width="218" height="137" viewBox="0 0 218 137" fill="none" xmlns="http://www.w3.org/2000/svg">
<path d="M25.664 11.568V1.136H20.672V31.184H25.664V16.08H29.696V11.568H25.664ZM16.8 26.512V3.024H1.184V26.512H16.8ZM11.808 7.568V21.968H6.176V7.568H11.808ZM57.3838 31.184V1.136H52.3918V31.184H57.3838ZM40.2638 27.44C44.8718 27.44 48.6798 24.624 48.6798 17.168V12.528C48.6798 5.072 44.8718 2.256 40.2638 2.256C35.6238 2.256 31.8158 5.072 31.8158 12.528V17.168C31.8158 24.624 35.6238 27.44 40.2638 27.44ZM40.2638 22.928C38.4718 22.928 36.8078 21.648 36.8078 17.168V12.528C36.8078 8.048 38.4718 6.768 40.2638 6.768C42.0558 6.768 43.6878 8.048 43.6878 12.528V17.168C43.6878 21.648 42.0558 22.928 40.2638 22.928ZM77.7115 19.312H86.2875V2.832H64.1435V19.312H72.7195V24.72H61.0075V29.264H89.4235V24.72H77.7115V19.312ZM81.2955 7.312V14.864H69.1355V7.312H81.2955ZM103.319 29.392V3.088H99.2553L90.7113 9.68L93.4953 13.392L98.2953 9.712V29.392H103.319ZM110.957 29.872C112.621 29.872 113.965 28.528 113.965 26.864C113.965 25.2 112.621 23.856 110.957 23.856C109.293 23.856 107.949 25.2 107.949 26.864C107.949 28.528 109.293 29.872 110.957 29.872ZM127.432 12.336C125.8 12.336 124.072 12.976 122.888 14.192L123.624 7.664H134.92V3.088H119.432L117.832 19.248H122.28C123.112 17.648 124.36 16.912 126.312 16.912C129.032 16.912 130.952 18.576 130.952 21.104C130.952 23.632 129.32 25.296 126.312 25.296C124.04 25.296 122.216 24.304 121.288 22.224L117 24.624C118.568 28.176 122.664 29.872 126.632 29.872C132.264 29.872 135.848 26.448 135.848 21.104C135.848 15.76 132.104 12.336 127.432 12.336Z" fill="white"/>
<path d="M24.544 63.944H17.088C16.096 59.816 13.376 58.056 10.208 58.056C6.176 58.056 2.88 60.84 2.88 67.688V72.04C2.88 78.888 6.176 81.672 10.208 81.672C13.696 81.672 16.64 79.56 17.344 74.472H24.544V85.672H25.952V56.328H24.544V63.944ZM16.128 72.008C16.128 77.832 13.664 80.36 10.208 80.36C6.752 80.36 4.288 77.832 4.288 72.008V67.72C4.288 61.864 6.752 59.368 10.208 59.368C13.664 59.368 16.128 61.864 16.128 67.72V72.008ZM17.472 73.16C17.504 72.808 17.504 72.424 17.504 72.04V67.688C17.504 66.792 17.44 65.992 17.344 65.224H24.544V73.16H17.472ZM55.9758 70.92L56.6798 69.768L45.1598 62.792C45.7358 61.608 46.0238 60.424 46.0238 59.144V57.128H44.6478V59.144C44.6478 63.368 40.7118 66.824 33.6718 69.704L34.2478 70.92C39.3358 68.808 42.6958 66.504 44.4878 63.912L55.9758 70.92ZM31.4958 74.952V76.232H44.5198V85.992H45.8958V76.232H58.8878V74.952H31.4958ZM84.6235 56.328V78.888H85.9995V56.328H84.6235ZM80.3355 72.136L70.8635 64.936C71.4715 63.368 71.7915 61.704 71.7915 59.88V57.608H70.3835V59.88C70.3835 65.384 67.2155 69.256 61.9035 72.712L62.6075 73.8C66.2875 71.496 68.8155 69 70.2875 66.184L79.5675 73.192L80.3355 72.136ZM69.0395 77.032H67.6635V85.672H87.5355V84.36H69.0395V77.032ZM105.943 69.384H115.543V68.072H96.9193V63.848H114.935V62.536H96.9193V58.408H114.935V57.128H95.5433V69.384H104.567V72.648H91.5433V73.928H118.935V72.648H105.943V69.384ZM102.039 76.968C97.2713 76.968 94.9353 78.76 94.9353 81.48C94.9353 84.232 97.2713 85.992 102.039 85.992H108.439C113.207 85.992 115.543 84.232 115.543 81.48C115.543 78.76 113.207 76.968 108.439 76.968H102.039ZM102.455 84.712C98.3273 84.712 96.3113 83.528 96.3113 81.48C96.3113 79.464 98.3273 78.28 102.455 78.28H108.055C112.151 78.28 114.167 79.464 114.167 81.48C114.167 83.528 112.151 84.712 108.055 84.712H102.455ZM130.943 59.624V55.912H129.567V59.624H121.791V60.904H138.719V59.624H130.943ZM144.383 63.944V56.328H143.007V72.584H144.383V65.224H149.599V63.944H144.383ZM137.247 67.496C137.247 64.584 134.207 62.92 130.303 62.92C126.399 62.92 123.327 64.584 123.327 67.496V67.976C123.327 70.888 126.399 72.584 130.303 72.584C134.207 72.584 137.247 70.888 137.247 67.976V67.496ZM124.735 67.56C124.735 65.576 127.167 64.2 130.303 64.2C133.407 64.2 135.871 65.576 135.871 67.56V67.944C135.871 69.992 133.407 71.272 130.303 71.272C127.167 71.272 124.735 69.992 124.735 67.944V67.56ZM128.063 78.568V74.568H126.655V85.64H144.383V74.568H143.007V78.568H128.063ZM128.063 79.88H143.007V84.36H128.063V79.88ZM15.872 117.352H25.184V102.632H5.184V117.352H14.496V125.832H1.472V127.144H28.864V125.832H15.872V117.352ZM23.776 103.944V116.072H6.56V103.944H23.776ZM54.3438 112.232V100.328H52.9358V129.672H54.3438V113.544H59.5278V112.232H54.3438ZM33.7358 111.688V102.536H32.3598V124.744H45.5758V102.536H44.1998V111.688H33.7358ZM33.7358 113H44.1998V123.432H33.7358V113ZM85.9995 114.728V100.328H84.6235V114.728H85.9995ZM70.3835 113.672C74.4155 113.672 77.7435 111.656 77.7435 107.688V107.112C77.7435 103.144 74.4155 101.128 70.3835 101.128C66.2875 101.128 62.9595 103.144 62.9595 107.112V107.688C62.9595 111.656 66.2875 113.672 70.3835 113.672ZM70.3835 112.36C66.8315 112.36 64.3675 110.664 64.3675 107.624V107.176C64.3675 104.168 66.8315 102.44 70.3835 102.44C73.8715 102.44 76.3675 104.168 76.3675 107.176V107.624C76.3675 110.664 73.8715 112.36 70.3835 112.36ZM87.4075 129.832V128.52H69.0715V124.04H85.9995V117.064H67.5355V118.344H84.6235V122.728H67.6635V129.832H87.4075ZM114.935 108.616V116.584H116.311V100.36H114.935V107.336H109.719V100.648H108.311V116.296H109.719V108.616H114.935ZM102.519 101.928V106.76H93.8793V101.928H92.5033V114.76H103.895V101.928H102.519ZM93.8793 108.072H102.519V113.448H93.8793V108.072ZM103.863 118.6C99.4473 118.6 97.0473 121.192 97.0473 124.296C97.0473 127.368 99.4473 129.96 103.863 129.96H110.007C114.423 129.96 116.791 127.368 116.791 124.296C116.791 121.192 114.423 118.6 110.007 118.6H103.863ZM104.247 128.68C100.311 128.68 98.4553 126.76 98.4553 124.296C98.4553 121.832 100.311 119.88 104.247 119.88H109.623C113.559 119.88 115.415 121.832 115.415 124.296C115.415 126.76 113.559 128.68 109.623 128.68H104.247ZM144.671 100.36V116.424H146.047V100.36H144.671ZM137.631 102.056H123.775V103.368H136.223V103.656C136.223 105 135.871 106.312 135.199 107.496C131.999 107.816 126.591 108.04 123.807 108.04H123.167L123.231 109.32H123.807C126.847 109.32 131.295 109.128 134.335 108.808C132.127 111.688 128.191 113.992 123.519 115.496L123.999 116.648C132.095 114.056 137.631 109.672 137.631 103.464V102.056ZM133.823 118.44C129.471 118.44 127.103 121.128 127.103 124.2C127.103 127.336 129.471 129.96 133.823 129.96H139.775C144.127 129.96 146.495 127.336 146.495 124.2C146.495 121.128 144.127 118.44 139.775 118.44H133.823ZM134.239 128.68C130.335 128.68 128.479 126.728 128.479 124.2C128.479 121.736 130.335 119.72 134.239 119.72H139.391C143.263 119.72 145.119 121.736 145.119 124.2C145.119 126.728 143.263 128.68 139.391 128.68H134.239ZM182.318 129.672H183.694V100.328H182.318V129.672ZM170.318 111.944V113.224H176.014V129.192H177.39V100.808H176.014V111.944H170.318ZM166.67 104.264H172.27V102.984H159.662V104.264H165.262V106.568C165.262 114.152 162.798 119.272 158.67 124.584L159.79 125.512C162.35 122.12 164.238 118.856 165.39 115.272L172.174 125.16L173.326 124.264L165.87 113.544C166.414 111.368 166.67 109.096 166.67 106.568V104.264ZM211.798 100.328H210.422V122.888H211.798V109.832H217.014V108.552H211.798V100.328ZM203.99 108.936C203.99 103.912 200.758 101.448 196.79 101.448C192.758 101.448 189.526 103.912 189.526 108.936V109.736C189.526 114.728 192.758 117.192 196.79 117.192C200.758 117.192 203.99 114.728 203.99 109.736V108.936ZM190.902 108.968C190.902 104.904 193.334 102.728 196.79 102.728C200.182 102.728 202.614 104.904 202.614 108.968V109.704C202.614 113.736 200.182 115.912 196.79 115.912C193.334 115.912 190.902 113.736 190.902 109.704V108.968ZM194.07 121.032V129.672H213.654V128.36H195.478V121.032H194.07Z" fill="white"/>
<rect y="38" width="137" height="5" fill="#FEEC0C"/>
</svg>
