<svg width="69" height="20" viewBox="0 0 69 20" fill="none" xmlns="http://www.w3.org/2000/svg">
<path d="M17.0253 0.490234L12.4202 0.490234L12.4273 0.50447L10.6479 7.25906L8.86139 0.50447L8.86851 0.490234L4.27055 0.490234L0 13.9781H4.59796L7.13182 5.97789L9.06068 13.2876L9.23862 13.9781H12.0501L12.2351 13.2805L14.164 5.97789L16.6907 13.9781H21.2958L17.0253 0.490234Z" fill="white"/>
<path d="M48.7977 0.490234L44.1926 0.490234L44.1998 0.50447L42.4204 7.25906L40.6339 0.50447L40.641 0.490234L36.043 0.490234L31.7725 13.9781H36.3704L38.9043 5.97789L40.8331 13.2876L41.0111 13.9781H43.8225L44.0076 13.2805L45.9365 5.97789L48.4632 13.9781H53.0683L48.7977 0.490234Z" fill="white"/>
<path d="M33.1212 0.490234L28.8578 13.9567V13.9781C27.4342 18.1845 23.3843 19.9995 23.3843 19.9995L21.2989 16.64C23.5979 15.3019 24.1317 14.2841 24.2385 14.0279C24.2527 13.9852 24.2527 13.9425 24.2385 13.8998L19.9893 0.490234L24.5943 0.490234L26.5588 6.69677L28.5232 0.490234L33.1212 0.490234Z" fill="white"/>
<path d="M68.1401 16.6183C68.3029 15.697 65.4192 14.4173 61.6992 13.7601C57.9792 13.1028 54.8315 13.3168 54.6688 14.2381C54.506 15.1594 57.3897 16.4391 61.1097 17.0964C64.8297 17.7536 67.9773 17.5396 68.1401 16.6183Z" fill="white"/>
<path d="M67.9208 2.54008C66.5827 -0.193075 62.241 -0.819422 58.2409 1.14503C54.2337 3.10948 52.0771 6.91739 53.4152 9.65766C54.7533 12.3908 59.095 13.0172 63.0951 11.0527C67.1023 9.08825 69.2589 5.28035 67.9208 2.54008ZM61.693 8.18432C60.0061 9.00996 58.1769 8.74661 57.6146 7.59356C57.0523 6.44051 57.9633 4.83194 59.6502 4.0063C61.3371 3.18066 63.1663 3.44401 63.7286 4.59706C64.2909 5.75011 63.3798 7.35868 61.693 8.18432Z" fill="white"/>
</svg>
