<svg width="155" height="7" viewBox="0 0 155 7" fill="none" xmlns="http://www.w3.org/2000/svg">
<path d="M1.376 6.8V1.632L3.52 6.8H4.352L6.504 1.624V6.8H7.296V0.32H6.256L3.944 5.904L1.624 0.32H0.584V6.8H1.376ZM12.443 0.32L10.603 3.512L8.763 0.32H7.859L10.203 4.28V6.8H11.003V4.28L13.347 0.32H12.443ZM14.7004 6.8V1.632L16.8444 6.8H17.6764L19.8284 1.624V6.8H20.6204V0.32H19.5804L17.2684 5.904L14.9484 0.32H13.9084V6.8H14.7004ZM24.2794 6.92C25.7674 6.92 27.0154 5.912 27.0154 4.144V2.968C27.0154 1.216 25.7674 0.2 24.2794 0.2C22.7834 0.2 21.5434 1.216 21.5434 2.968V4.144C21.5434 5.912 22.7834 6.92 24.2794 6.92ZM24.2794 6.176C23.2154 6.176 22.3434 5.472 22.3434 4.088V3.032C22.3434 1.648 23.2154 0.944 24.2794 0.944C25.3354 0.944 26.2074 1.656 26.2074 3.032V4.088C26.2074 5.472 25.3354 6.176 24.2794 6.176ZM30.3039 6.8V0.32H29.6239L27.5759 1.952L28.0319 2.552L29.5039 1.376V6.8H30.3039ZM32.1164 6.92C32.4204 6.92 32.6604 6.68 32.6604 6.376C32.6604 6.072 32.4204 5.824 32.1164 5.824C31.8124 5.824 31.5644 6.072 31.5644 6.376C31.5644 6.68 31.8124 6.92 32.1164 6.92ZM35.8831 2.656C35.3711 2.656 34.8831 2.856 34.5631 3.232L34.8111 1.056H37.7471V0.32H34.1231L33.7151 4.272H34.4511C34.6751 3.728 35.0991 3.392 35.7391 3.392C36.6031 3.392 37.1871 3.944 37.1871 4.792C37.1871 5.632 36.6031 6.184 35.6991 6.184C35.0511 6.184 34.4671 5.904 34.2031 5.296L33.5231 5.68C33.8911 6.512 34.8111 6.92 35.7391 6.92C37.0831 6.92 37.9791 6.056 37.9791 4.792C37.9791 3.528 37.1071 2.656 35.8831 2.656ZM43.4411 6.92C44.8571 6.92 45.9851 6.032 45.9851 4.264V0.32H45.1771V4.208C45.1771 5.592 44.4651 6.176 43.4411 6.176C42.4171 6.176 41.6971 5.592 41.6971 4.208V0.32H40.8971V4.264C40.8971 6.032 42.0091 6.92 43.4411 6.92ZM47.9071 6.8V0.32H47.1071V6.8H47.9071ZM51.578 6.92C52.994 6.92 54.122 6.032 54.122 4.264V0.32H53.314V4.208C53.314 5.592 52.602 6.176 51.578 6.176C50.554 6.176 49.834 5.592 49.834 4.208V0.32H49.034V4.264C49.034 6.032 50.146 6.92 51.578 6.92ZM55.6219 6.8L57.4299 4.128L59.2379 6.8H60.1739L57.8939 3.44L60.0139 0.32H59.0779L57.4299 2.768L55.7819 0.32H54.8379L56.9659 3.44L54.6859 6.8H55.6219ZM65.2044 0.32H62.7324V6.8H63.5324V4.248H65.2044C66.6524 4.248 67.4844 3.552 67.4844 2.28C67.4844 1.024 66.6524 0.32 65.2044 0.32ZM63.5324 3.536V1.032H65.1484C66.1644 1.032 66.6764 1.448 66.6764 2.28C66.6764 3.112 66.1644 3.536 65.1484 3.536H63.5324ZM71.6692 3.992C72.5492 3.76 73.0372 3.152 73.0372 2.208C73.0372 0.992 72.2052 0.32 70.7652 0.32H68.2852V6.8H69.0852V4.096H70.7652H70.8932L72.2932 6.8H73.1972L71.6692 3.992ZM70.7012 1.032C71.7092 1.032 72.2372 1.424 72.2372 2.208C72.2372 2.992 71.7092 3.384 70.7012 3.384H69.0852V1.032H70.7012ZM76.4913 6.92C77.9793 6.92 79.2273 5.912 79.2273 4.144V2.968C79.2273 1.216 77.9793 0.2 76.4913 0.2C74.9953 0.2 73.7553 1.216 73.7553 2.968V4.144C73.7553 5.912 74.9953 6.92 76.4913 6.92ZM76.4913 6.176C75.4273 6.176 74.5553 5.472 74.5553 4.088V3.032C74.5553 1.648 75.4273 0.944 76.4913 0.944C77.5473 0.944 78.4193 1.656 78.4193 3.032V4.088C78.4193 5.472 77.5473 6.176 76.4913 6.176ZM82.6598 0.32H80.1878V6.8H80.9878V4.248H82.6598C84.1078 4.248 84.9398 3.552 84.9398 2.28C84.9398 1.024 84.1078 0.32 82.6598 0.32ZM80.9878 3.536V1.032H82.6038C83.6198 1.032 84.1318 1.448 84.1318 2.28C84.1318 3.112 83.6198 3.536 82.6038 3.536H80.9878ZM88.2766 6.92C89.7646 6.92 91.0126 5.912 91.0126 4.144V2.968C91.0126 1.216 89.7646 0.2 88.2766 0.2C86.7806 0.2 85.5406 1.216 85.5406 2.968V4.144C85.5406 5.912 86.7806 6.92 88.2766 6.92ZM88.2766 6.176C87.2126 6.176 86.3406 5.472 86.3406 4.088V3.032C86.3406 1.648 87.2126 0.944 88.2766 0.944C89.3326 0.944 90.2046 1.656 90.2046 3.032V4.088C90.2046 5.472 89.3326 6.176 88.2766 6.176ZM91.4568 5.24C91.8488 6.304 92.8088 6.92 94.0968 6.92C95.4008 6.92 96.4168 6.256 96.4168 5.152C96.4168 4.048 95.5368 3.56 94.6728 3.32L93.7208 3.048C93.1128 2.872 92.6088 2.608 92.6088 1.96C92.6088 1.32 93.1528 0.928 93.9848 0.928C94.8168 0.928 95.3928 1.392 95.6888 2.088L96.3768 1.76C96.0328 0.88 95.1928 0.2 93.9848 0.2C92.7608 0.2 91.8088 0.872 91.8088 1.96C91.8088 3.04 92.6888 3.52 93.5448 3.768L94.5128 4.04C95.1688 4.224 95.6248 4.504 95.6248 5.152C95.6248 5.816 95.0088 6.192 94.0968 6.192C93.1768 6.192 92.4728 5.736 92.1448 4.92L91.4568 5.24ZM102.519 6.8L100.111 0.32H99.1189L96.7109 6.8H97.5349L98.2869 4.768H100.943L101.687 6.8H102.519ZM99.6149 1.168L100.671 4.04H98.5509L99.6149 1.168ZM104.043 0.32H103.243V6.8H107.131V6.088H104.043V0.32ZM114.058 6.8V6.064H110.826L112.658 4.248C113.434 3.48 113.906 2.84 113.906 1.96C113.906 0.872 113.074 0.2 111.826 0.2C110.61 0.2 109.906 1.08 109.642 2.032L110.402 2.216C110.618 1.504 111.026 0.92 111.826 0.92C112.65 0.92 113.114 1.344 113.114 1.992C113.114 2.592 112.778 3.096 112.05 3.816L109.674 6.176V6.8H114.058ZM117.415 6.92C118.711 6.92 119.775 5.992 119.775 4.184V2.928C119.775 1.136 118.711 0.2 117.415 0.2C116.119 0.2 115.063 1.136 115.063 2.928V4.184C115.063 5.992 116.119 6.92 117.415 6.92ZM117.415 6.2C116.543 6.2 115.863 5.544 115.863 4.144V2.976C115.863 1.576 116.543 0.92 117.415 0.92C118.287 0.92 118.967 1.576 118.967 2.976V4.144C118.967 5.544 118.287 6.2 117.415 6.2ZM125.14 6.8V6.064H121.908L123.74 4.248C124.516 3.48 124.988 2.84 124.988 1.96C124.988 0.872 124.156 0.2 122.908 0.2C121.692 0.2 120.988 1.08 120.724 2.032L121.484 2.216C121.7 1.504 122.108 0.92 122.908 0.92C123.732 0.92 124.196 1.344 124.196 1.992C124.196 2.592 123.86 3.096 123.132 3.816L120.756 6.176V6.8H125.14ZM126.026 5.304C126.322 6.184 127.066 6.92 128.378 6.92C129.73 6.92 130.666 6.176 130.666 5.064C130.666 4.248 130.146 3.672 129.45 3.456C130.042 3.232 130.506 2.736 130.506 1.944C130.506 0.856 129.602 0.2 128.362 0.2C127.178 0.2 126.506 0.912 126.21 1.696L126.93 1.968C127.146 1.432 127.546 0.92 128.362 0.92C129.186 0.92 129.722 1.32 129.722 1.984C129.722 2.64 129.218 3.112 128.258 3.112H127.442V3.808H128.258C129.338 3.808 129.874 4.352 129.874 5.032C129.874 5.712 129.314 6.2 128.378 6.2C127.434 6.2 126.97 5.656 126.738 5.048L126.026 5.304ZM132.155 6.92C132.459 6.92 132.699 6.68 132.699 6.376C132.699 6.072 132.459 5.824 132.155 5.824C131.851 5.824 131.603 6.072 131.603 6.376C131.603 6.68 131.851 6.92 132.155 6.92ZM135.994 6.92C137.29 6.92 138.354 5.992 138.354 4.184V2.928C138.354 1.136 137.29 0.2 135.994 0.2C134.698 0.2 133.642 1.136 133.642 2.928V4.184C133.642 5.992 134.698 6.92 135.994 6.92ZM135.994 6.2C135.122 6.2 134.442 5.544 134.442 4.144V2.976C134.442 1.576 135.122 0.92 135.994 0.92C136.866 0.92 137.546 1.576 137.546 2.976V4.144C137.546 5.544 136.866 6.2 135.994 6.2ZM139.231 5.304C139.527 6.184 140.271 6.92 141.583 6.92C142.935 6.92 143.871 6.176 143.871 5.064C143.871 4.248 143.351 3.672 142.655 3.456C143.247 3.232 143.711 2.736 143.711 1.944C143.711 0.856 142.807 0.2 141.567 0.2C140.383 0.2 139.711 0.912 139.415 1.696L140.135 1.968C140.351 1.432 140.751 0.92 141.567 0.92C142.391 0.92 142.927 1.32 142.927 1.984C142.927 2.64 142.423 3.112 141.463 3.112H140.647V3.808H141.463C142.543 3.808 143.079 4.352 143.079 5.032C143.079 5.712 142.519 6.2 141.583 6.2C140.639 6.2 140.175 5.656 139.943 5.048L139.231 5.304ZM145.36 6.92C145.664 6.92 145.904 6.68 145.904 6.376C145.904 6.072 145.664 5.824 145.36 5.824C145.056 5.824 144.808 6.072 144.808 6.376C144.808 6.68 145.056 6.92 145.36 6.92ZM149.255 6.8V0.32H148.575L146.527 1.952L146.983 2.552L148.455 1.376V6.8H149.255ZM152.86 2.656C152.348 2.656 151.86 2.856 151.54 3.232L151.788 1.056H154.724V0.32H151.1L150.692 4.272H151.428C151.652 3.728 152.076 3.392 152.716 3.392C153.58 3.392 154.164 3.944 154.164 4.792C154.164 5.632 153.58 6.184 152.676 6.184C152.028 6.184 151.444 5.904 151.18 5.296L150.5 5.68C150.868 6.512 151.788 6.92 152.716 6.92C154.06 6.92 154.956 6.056 154.956 4.792C154.956 3.528 154.084 2.656 152.86 2.656Z" fill="white"/>
</svg>
