<svg width="139" height="36" viewBox="0 0 139 36" fill="none" xmlns="http://www.w3.org/2000/svg">
<path d="M0.32 1.544V3.832H4.336V14.696H6.848V3.832H10.848V1.544H0.32ZM14.3154 14.248L14.2354 14.568C14.0754 15.224 13.7074 15.432 13.2594 15.432C12.7474 15.432 12.2834 15.336 11.8354 15.192L11.2754 17.272C11.9314 17.512 12.7314 17.656 13.7554 17.656C15.0514 17.656 16.0114 16.84 16.6994 14.968L20.3954 4.984H17.7714L15.6274 11.4L13.4834 4.984H10.8594L14.3154 14.248ZM26.8788 4.744C25.7908 4.744 24.7348 5.24 23.9828 6.168L23.8868 4.984H21.5188V17.416H24.0308V13.624C24.7828 14.504 25.8068 14.984 26.8788 14.984C28.7668 14.984 30.7668 13.224 30.7668 10.28V9.48C30.7668 6.504 28.7668 4.744 26.8788 4.744ZM28.2548 10.216C28.2548 11.928 27.2948 12.696 26.1268 12.696C24.9908 12.696 24.0308 11.928 24.0308 10.216V9.512C24.0308 7.816 24.9908 7.032 26.1268 7.032C27.2948 7.032 28.2548 7.816 28.2548 9.512V10.216ZM41.0605 9.416C41.0605 6.312 39.0285 4.744 36.5485 4.744C34.0845 4.744 32.0525 6.312 32.0525 9.4V10.264C32.0525 13.368 34.0845 14.936 36.5485 14.936C38.6605 14.936 40.3565 13.976 40.9005 12.184L38.6125 11.512C38.2765 12.328 37.5085 12.728 36.5485 12.728C35.5565 12.728 34.6925 12.104 34.5165 10.76H41.0605V9.416ZM34.5485 8.712C34.7885 7.512 35.6045 6.952 36.5485 6.952C37.6685 6.952 38.5965 7.768 38.5965 8.712H34.5485ZM57.9936 14.696L53.4176 1.544H50.2816L45.7056 14.696H48.2656L49.5136 11.048H54.1856L55.4336 14.696H57.9936ZM51.8496 4.248L53.4016 8.792H50.2976L51.8496 4.248Z" fill="black"/>
<path d="M7.71 29.88V26.27H6.99V35.5H7.71V30.54H9.24V29.88H7.71ZM4.96 33.98V27.01H0.64V33.98H4.96ZM4.25 27.67V33.32H1.35V27.67H4.25ZM17.6024 35.5V26.27H16.8824V35.5H17.6024ZM12.5724 34.27C13.8724 34.27 14.9424 33.4 14.9424 31.21V29.83C14.9424 27.64 13.8724 26.77 12.5724 26.77C11.2724 26.77 10.2024 27.64 10.2024 29.83V31.21C10.2024 33.4 11.2724 34.27 12.5724 34.27ZM12.5724 33.61C11.6224 33.61 10.9224 32.92 10.9224 31.2V29.83C10.9224 28.11 11.6224 27.43 12.5724 27.43C13.5224 27.43 14.2324 28.11 14.2324 29.83V31.2C14.2324 32.92 13.5224 33.61 12.5724 33.61ZM26.4048 35.5H27.1048V26.27H26.4048V35.5ZM22.1648 29.88V30.54H24.4148V35.33H25.1048V26.42H24.4148V29.88H22.1648ZM20.2848 33.31V27.67H22.9648V27.01H19.5648V33.96H20.6648C21.7748 33.96 22.6748 33.9 23.5948 33.74L23.5148 33.1C22.5348 33.25 21.6648 33.31 20.7748 33.31H20.2848ZM36.3673 35.5V26.27H35.6473V35.5H36.3673ZM31.3373 34.27C32.6373 34.27 33.7073 33.4 33.7073 31.21V29.83C33.7073 27.64 32.6373 26.77 31.3373 26.77C30.0373 26.77 28.9673 27.64 28.9673 29.83V31.21C28.9673 33.4 30.0373 34.27 31.3373 34.27ZM31.3373 33.61C30.3873 33.61 29.6873 32.92 29.6873 31.2V29.83C29.6873 28.11 30.3873 27.43 31.3373 27.43C32.2873 27.43 32.9973 28.11 32.9973 29.83V31.2C32.9973 32.92 32.2873 33.61 31.3373 33.61ZM45.0397 29.98H43.3397V30.63H45.0397V35.5H45.7497V26.27H45.0397V29.98ZM39.2097 33.51V30.86H42.8097V30.21H39.2097V27.66H42.9197V27.01H38.4997V34.16H40.0497C41.4097 34.16 42.9097 34.03 43.9697 33.83L43.8797 33.2C42.7397 33.39 41.2997 33.51 40.1697 33.51H39.2097ZM50.6438 30.04C52.1238 29.65 53.1438 29.17 53.7438 28.59L57.2538 30.04L57.5138 29.44L54.1638 28.06C54.3138 27.77 54.3938 27.47 54.3938 27.14V27.13H57.0538V26.5H50.9238V27.13H53.6938V27.15C53.6938 28.07 52.5938 28.86 50.4438 29.43L50.6438 30.04ZM58.3038 30.59H49.6638V31.23H53.6338V32.31H52.9738C51.4738 32.31 50.6838 33.01 50.6838 33.95C50.6838 34.91 51.4738 35.6 52.9738 35.6H54.9938C56.5038 35.6 57.2938 34.91 57.2938 33.95C57.2938 33.01 56.5038 32.31 54.9938 32.31H54.3438V31.23H58.3038V30.59ZM56.5738 33.95C56.5738 34.56 56.0138 34.97 54.8338 34.97H53.1338C51.9538 34.97 51.3938 34.56 51.3938 33.95C51.3938 33.34 51.9538 32.95 53.1338 32.95H54.8338C56.0138 32.95 56.5738 33.34 56.5738 33.95ZM66.1262 31.27H66.8362V26.27H66.1262V31.27ZM64.5962 31L64.9662 30.42L62.1562 28.59C62.3262 28.16 62.4162 27.7 62.4162 27.2V26.6H61.7062V27.2C61.7062 28.62 60.8162 29.67 59.1462 30.61L59.4962 31.19C60.5862 30.59 61.3662 29.94 61.8462 29.19L64.5962 31ZM66.8362 35.5V31.93H60.9062V35.5H66.8362ZM66.1262 32.57V34.85H61.6162V32.57H66.1262ZM76.2186 35.5V26.27H75.5086V35.5H76.2186ZM71.4586 31.76C72.7786 31.76 73.8686 30.99 73.8686 29.37V29.16C73.8686 27.54 72.7786 26.77 71.4586 26.77C70.1186 26.77 69.0386 27.54 69.0386 29.16V29.37C69.0386 30.99 70.1186 31.76 71.4586 31.76ZM71.4586 31.1C70.4786 31.1 69.7586 30.51 69.7586 29.36V29.17C69.7586 28.01 70.4786 27.42 71.4586 27.42C72.4286 27.42 73.1486 28.01 73.1486 29.17V29.36C73.1486 30.51 72.4286 31.1 71.4586 31.1ZM70.1486 33.98C71.5086 33.98 73.3186 33.86 74.7086 33.66L74.6286 33.03C73.1786 33.21 71.3286 33.32 70.1886 33.32H68.5086L68.5486 33.98H70.1486ZM87.4227 29.88V26.27H86.7127V35.5H87.4227V30.54H88.9627V29.88H87.4227ZM84.1327 27.71V27.91C84.1327 28.55 84.0127 29.18 83.7827 29.8C82.8427 29.89 81.3327 29.96 80.4627 29.97H80.2727L80.3127 30.63H80.4927C81.3927 30.62 82.6027 30.56 83.4927 30.47C82.8427 31.75 81.7327 32.91 80.3227 33.83L80.7527 34.38C83.2327 32.73 84.8427 30.48 84.8427 27.78V27.06H80.4727V27.71H84.1327ZM90.6451 26.95V31.78H97.0551V31.13H91.3551V27.61H96.9651V26.95H90.6451ZM98.1651 34.76V34.1H89.5251V34.76H98.1651ZM102.088 27.21V26.15H101.368V27.21H99.1575V27.82H104.308V27.21H102.088ZM104.298 28.96H105.988V30.06H104.298V30.65H105.988V31.62H106.708V26.27H105.988V28.37H104.298V28.96ZM103.878 29.89C103.878 28.91 102.948 28.38 101.738 28.38C100.528 28.38 99.5975 28.91 99.5975 29.89V30.03C99.5975 31.02 100.528 31.55 101.738 31.55C102.948 31.55 103.878 31.02 103.878 30.03V29.89ZM100.288 29.92C100.288 29.35 100.918 28.98 101.738 28.98C102.558 28.98 103.188 29.35 103.188 29.92V30.02C103.188 30.59 102.558 30.95 101.738 30.95C100.918 30.95 100.288 30.59 100.288 30.02V29.92ZM102.738 32.17C101.378 32.17 100.578 32.9 100.578 33.89C100.578 34.88 101.378 35.59 102.738 35.59H104.678C106.038 35.59 106.838 34.88 106.838 33.89C106.838 32.9 106.038 32.17 104.678 32.17H102.738ZM102.878 34.95C101.808 34.95 101.288 34.51 101.288 33.88C101.288 33.26 101.808 32.82 102.878 32.82H104.538C105.608 32.82 106.128 33.26 106.128 33.88C106.128 34.51 105.608 34.95 104.538 34.95H102.878ZM118.422 35.5V26.27H117.712V35.5H118.422ZM112.722 33.96C114.082 33.96 115.592 33.82 116.692 33.63L116.612 33C115.422 33.18 113.962 33.31 112.842 33.31H111.982V27.67H115.712V27.01H111.272V33.96H112.722ZM127.284 29.88V26.27H126.574V35.5H127.284V30.54H128.814V29.88H127.284ZM122.984 27.71H125.074V27.06H120.214V27.71H122.284V28.24C122.284 30.52 121.374 32.1 119.854 33.74L120.374 34.22C121.314 33.21 122.004 32.21 122.444 31.13L124.894 34.12L125.444 33.64L122.714 30.33C122.894 29.67 122.984 28.98 122.984 28.24V27.71ZM137.196 33.28V26.27H136.476V33.28H137.196ZM132.196 31.62C133.506 31.62 134.586 30.84 134.586 29.21V29C134.586 27.36 133.506 26.57 132.196 26.57C130.866 26.57 129.786 27.36 129.786 29V29.21C129.786 30.84 130.866 31.62 132.196 31.62ZM132.196 30.98C131.226 30.98 130.506 30.38 130.506 29.2V29C130.506 27.82 131.226 27.21 132.196 27.21C133.156 27.21 133.876 27.82 133.876 29V29.2C133.876 30.38 133.156 30.98 132.196 30.98ZM137.626 35.5V34.84H131.976V32.55H131.256V35.5H137.626Z" fill="#333333"/>
</svg>
