<svg width="151" height="36" viewBox="0 0 151 36" fill="none" xmlns="http://www.w3.org/2000/svg">
<path d="M0.32 1.544V3.832H4.336V14.696H6.848V3.832H10.848V1.544H0.32ZM14.3154 14.248L14.2354 14.568C14.0754 15.224 13.7074 15.432 13.2594 15.432C12.7474 15.432 12.2834 15.336 11.8354 15.192L11.2754 17.272C11.9314 17.512 12.7314 17.656 13.7554 17.656C15.0514 17.656 16.0114 16.84 16.6994 14.968L20.3954 4.984H17.7714L15.6274 11.4L13.4834 4.984H10.8594L14.3154 14.248ZM26.8788 4.744C25.7908 4.744 24.7348 5.24 23.9828 6.168L23.8868 4.984H21.5188V17.416H24.0308V13.624C24.7828 14.504 25.8068 14.984 26.8788 14.984C28.7668 14.984 30.7668 13.224 30.7668 10.28V9.48C30.7668 6.504 28.7668 4.744 26.8788 4.744ZM28.2548 10.216C28.2548 11.928 27.2948 12.696 26.1268 12.696C24.9908 12.696 24.0308 11.928 24.0308 10.216V9.512C24.0308 7.816 24.9908 7.032 26.1268 7.032C27.2948 7.032 28.2548 7.816 28.2548 9.512V10.216ZM41.0605 9.416C41.0605 6.312 39.0285 4.744 36.5485 4.744C34.0845 4.744 32.0525 6.312 32.0525 9.4V10.264C32.0525 13.368 34.0845 14.936 36.5485 14.936C38.6605 14.936 40.3565 13.976 40.9005 12.184L38.6125 11.512C38.2765 12.328 37.5085 12.728 36.5485 12.728C35.5565 12.728 34.6925 12.104 34.5165 10.76H41.0605V9.416ZM34.5485 8.712C34.7885 7.512 35.6045 6.952 36.5485 6.952C37.6685 6.952 38.5965 7.768 38.5965 8.712H34.5485ZM51.8976 14.936C54.7296 14.936 56.7456 13.288 57.3856 10.568L55.0016 9.88C54.5696 11.656 53.6256 12.6 51.8976 12.6C50.1696 12.6 48.6976 11.448 48.6976 9.144V7.096C48.6976 4.808 50.1696 3.64 51.8976 3.64C53.6256 3.64 54.5696 4.584 55.0016 6.36L57.3856 5.672C56.7456 2.952 54.7296 1.304 51.8976 1.304C48.8256 1.304 46.1856 3.384 46.1856 7V9.24C46.1856 12.872 48.8416 14.936 51.8976 14.936Z" fill="black"/>
<path d="M5.4 30.78C7.04 30.78 8.08 29.96 8.08 28.69C8.08 27.44 7.04 26.62 5.4 26.62H4.09C2.44 26.62 1.42 27.44 1.42 28.69C1.42 29.96 2.44 30.78 4.09 30.78H5.4ZM5.28 27.26C6.61 27.26 7.36 27.84 7.36 28.69C7.36 29.55 6.61 30.14 5.28 30.14H4.2C2.88 30.14 2.13 29.56 2.13 28.69C2.13 27.84 2.88 27.26 4.2 27.26H5.28ZM0.42 32.12V32.77H2.74V35.6H3.46V32.77H6.03V35.6H6.75V32.77H9.06V32.12H0.42ZM15.9424 29.6C16.8524 29.37 17.3824 28.86 17.3824 28.06C17.3824 26.95 16.3724 26.4 14.7724 26.4H13.4824C11.8824 26.4 10.8724 26.95 10.8724 28.06C10.8724 28.86 11.4024 29.37 12.3124 29.6V30.74H9.80242V31.37H18.4424V30.74H15.9424V29.6ZM11.5824 28.06C11.5824 27.39 12.2924 27.03 13.6024 27.03H14.6524C15.9524 27.03 16.6624 27.39 16.6624 28.06C16.6624 28.72 15.9524 29.11 14.6524 29.11H13.6024C12.2924 29.11 11.5824 28.74 11.5824 28.06ZM13.0024 29.7C13.1524 29.73 15.1024 29.73 15.2524 29.7V30.74H13.0024V29.7ZM13.1124 32.31C11.6124 32.31 10.8224 33.01 10.8224 33.95C10.8224 34.9 11.6124 35.6 13.1124 35.6H15.1324C16.6424 35.6 17.4324 34.9 17.4324 33.95C17.4324 33.01 16.6424 32.31 15.1324 32.31H13.1124ZM13.2724 34.96C12.0924 34.96 11.5324 34.56 11.5324 33.95C11.5324 33.34 12.0924 32.95 13.2724 32.95H14.9724C16.1524 32.95 16.7124 33.34 16.7124 33.95C16.7124 34.56 16.1524 34.96 14.9724 34.96H13.2724ZM22.2648 27.31V26.15H21.5548V27.31H19.2348V27.93H24.5848V27.31H22.2648ZM26.4648 26.27H25.7548V33.37H26.4648V29.77H28.0048V29.1H26.4648V26.27ZM24.1548 30.28C24.1548 29.18 23.1748 28.57 21.9248 28.57C20.6748 28.57 19.6848 29.18 19.6848 30.28V30.45C19.6848 31.55 20.6748 32.18 21.9248 32.18C23.1748 32.18 24.1548 31.55 24.1548 30.45V30.28ZM20.3948 30.3C20.3948 29.62 21.0648 29.19 21.9248 29.19C22.7748 29.19 23.4548 29.62 23.4548 30.3V30.44C23.4548 31.12 22.7748 31.55 21.9248 31.55C21.0648 31.55 20.3948 31.12 20.3948 30.44V30.3ZM20.7248 33.01V35.49H26.9948V34.84H21.4448V33.01H20.7248ZM35.9889 29.01H37.9789V31.32H38.6889V26.28H37.9789V28.38H35.9889V29.01ZM36.3089 31.23L36.6789 30.64L33.9789 28.8C34.1289 28.41 34.1989 28 34.1989 27.55V27.41H36.3189V26.77H31.3989V27.41H33.4989V27.55C33.4989 28.91 32.6089 29.86 31.0289 30.8L31.3789 31.37C32.4489 30.76 33.2089 30.12 33.6689 29.39L36.3089 31.23ZM34.7289 31.88C33.3689 31.88 32.5689 32.7 32.5689 33.74C32.5689 34.79 33.3689 35.59 34.7289 35.59H36.6689C38.0289 35.59 38.8289 34.79 38.8289 33.74C38.8289 32.7 38.0289 31.88 36.6689 31.88H34.7289ZM34.8689 34.95C33.7989 34.95 33.2789 34.43 33.2789 33.73C33.2789 33.06 33.7989 32.52 34.8689 32.52H36.5289C37.5989 32.52 38.1089 33.06 38.1089 33.73C38.1089 34.43 37.5989 34.95 36.5289 34.95H34.8689ZM44.9613 31.88H47.8113V26.9H47.0913V28.76H42.1113V26.9H41.4013V31.88H44.2513V34.1H40.2813V34.76H48.9213V34.1H44.9613V31.88ZM47.0913 29.42V31.23H42.1113V29.42H47.0913ZM52.9754 30.04C54.4554 29.65 55.4754 29.17 56.0754 28.59L59.5854 30.04L59.8454 29.44L56.4954 28.06C56.6454 27.77 56.7254 27.47 56.7254 27.14V27.13H59.3854V26.5H53.2554V27.13H56.0254V27.15C56.0254 28.07 54.9254 28.86 52.7754 29.43L52.9754 30.04ZM60.6354 30.59H51.9954V31.23H55.9654V32.31H55.3054C53.8054 32.31 53.0154 33.01 53.0154 33.95C53.0154 34.91 53.8054 35.6 55.3054 35.6H57.3254C58.8354 35.6 59.6254 34.91 59.6254 33.95C59.6254 33.01 58.8354 32.31 57.3254 32.31H56.6754V31.23H60.6354V30.59ZM58.9054 33.95C58.9054 34.56 58.3454 34.97 57.1654 34.97H55.4654C54.2854 34.97 53.7254 34.56 53.7254 33.95C53.7254 33.34 54.2854 32.95 55.4654 32.95H57.1654C58.3454 32.95 58.9054 33.34 58.9054 33.95ZM68.4578 31.27H69.1678V26.27H68.4578V31.27ZM66.9278 31L67.2978 30.42L64.4878 28.59C64.6578 28.16 64.7478 27.7 64.7478 27.2V26.6H64.0378V27.2C64.0378 28.62 63.1478 29.67 61.4778 30.61L61.8278 31.19C62.9178 30.59 63.6978 29.94 64.1778 29.19L66.9278 31ZM69.1678 35.5V31.93H63.2378V35.5H69.1678ZM68.4578 32.57V34.85H63.9478V32.57H68.4578ZM78.5502 35.5V26.27H77.8402V35.5H78.5502ZM73.7902 31.76C75.1102 31.76 76.2002 30.99 76.2002 29.37V29.16C76.2002 27.54 75.1102 26.77 73.7902 26.77C72.4502 26.77 71.3702 27.54 71.3702 29.16V29.37C71.3702 30.99 72.4502 31.76 73.7902 31.76ZM73.7902 31.1C72.8102 31.1 72.0902 30.51 72.0902 29.36V29.17C72.0902 28.01 72.8102 27.42 73.7902 27.42C74.7602 27.42 75.4802 28.01 75.4802 29.17V29.36C75.4802 30.51 74.7602 31.1 73.7902 31.1ZM72.4802 33.98C73.8402 33.98 75.6502 33.86 77.0402 33.66L76.9602 33.03C75.5102 33.21 73.6602 33.32 72.5202 33.32H70.8402L70.8802 33.98H72.4802ZM89.6943 29.88H88.2643V26.42H87.5643V35.33H88.2643V30.54H89.6943V35.5H90.3943V26.27H89.6943V29.88ZM86.3643 33.98V27.01H82.7543V33.98H86.3643ZM85.6843 27.67V33.32H83.4343V27.67H85.6843ZM98.9467 30.08H96.4167C96.6967 29.35 96.8467 28.57 96.8467 27.77V27.06H92.4867V27.71H96.1267V27.91C96.1267 30.07 94.6867 32.25 92.3467 33.77L92.7667 34.33C94.2767 33.33 95.4467 32.11 96.1367 30.73H98.9467V35.5H99.6567V26.27H98.9467V30.08ZM108.329 26.27V33.28H109.039V26.27H108.329ZM106.739 31.85L107.139 31.29L104.369 29.12C104.529 28.67 104.609 28.19 104.609 27.68V27.46H106.779V26.82H101.739V27.46H103.909V27.68C103.909 29.25 102.989 30.37 101.379 31.49L101.759 32.05C102.839 31.33 103.619 30.58 104.089 29.74L106.739 31.85ZM103.819 32.69H103.109V35.5H109.469V34.84H103.819V32.69ZM113.802 27.21V26.15H113.082V27.21H110.872V27.82H116.022V27.21H113.802ZM116.012 28.96H117.702V30.06H116.012V30.65H117.702V31.62H118.422V26.27H117.702V28.37H116.012V28.96ZM115.592 29.89C115.592 28.91 114.662 28.38 113.452 28.38C112.242 28.38 111.312 28.91 111.312 29.89V30.03C111.312 31.02 112.242 31.55 113.452 31.55C114.662 31.55 115.592 31.02 115.592 30.03V29.89ZM112.002 29.92C112.002 29.35 112.632 28.98 113.452 28.98C114.272 28.98 114.902 29.35 114.902 29.92V30.02C114.902 30.59 114.272 30.95 113.452 30.95C112.632 30.95 112.002 30.59 112.002 30.02V29.92ZM114.452 32.17C113.092 32.17 112.292 32.9 112.292 33.89C112.292 34.88 113.092 35.59 114.452 35.59H116.392C117.752 35.59 118.552 34.88 118.552 33.89C118.552 32.9 117.752 32.17 116.392 32.17H114.452ZM114.592 34.95C113.522 34.95 113.002 34.51 113.002 33.88C113.002 33.26 113.522 32.82 114.592 32.82H116.252C117.322 32.82 117.842 33.26 117.842 33.88C117.842 34.51 117.322 34.95 116.252 34.95H114.592ZM130.136 35.5V26.27H129.426V35.5H130.136ZM124.436 33.96C125.796 33.96 127.306 33.82 128.406 33.63L128.326 33C127.136 33.18 125.676 33.31 124.556 33.31H123.696V27.67H127.426V27.01H122.986V33.96H124.436ZM138.998 29.88V26.27H138.288V35.5H138.998V30.54H140.528V29.88H138.998ZM134.698 27.71H136.788V27.06H131.928V27.71H133.998V28.24C133.998 30.52 133.088 32.1 131.568 33.74L132.088 34.22C133.028 33.21 133.718 32.21 134.158 31.13L136.608 34.12L137.158 33.64L134.428 30.33C134.608 29.67 134.698 28.98 134.698 28.24V27.71ZM148.91 33.28V26.27H148.19V33.28H148.91ZM143.91 31.62C145.22 31.62 146.3 30.84 146.3 29.21V29C146.3 27.36 145.22 26.57 143.91 26.57C142.58 26.57 141.5 27.36 141.5 29V29.21C141.5 30.84 142.58 31.62 143.91 31.62ZM143.91 30.98C142.94 30.98 142.22 30.38 142.22 29.2V29C142.22 27.82 142.94 27.21 143.91 27.21C144.87 27.21 145.59 27.82 145.59 29V29.2C145.59 30.38 144.87 30.98 143.91 30.98ZM149.34 35.5V34.84H143.69V32.55H142.97V35.5H149.34Z" fill="#333333"/>
</svg>
