<svg width="160" height="36" viewBox="0 0 160 36" fill="none" xmlns="http://www.w3.org/2000/svg">
<path d="M0.32 1.544V3.832H4.336V14.696H6.848V3.832H10.848V1.544H0.32ZM14.3154 14.248L14.2354 14.568C14.0754 15.224 13.7074 15.432 13.2594 15.432C12.7474 15.432 12.2834 15.336 11.8354 15.192L11.2754 17.272C11.9314 17.512 12.7314 17.656 13.7554 17.656C15.0514 17.656 16.0114 16.84 16.6994 14.968L20.3954 4.984H17.7714L15.6274 11.4L13.4834 4.984H10.8594L14.3154 14.248ZM26.8788 4.744C25.7908 4.744 24.7348 5.24 23.9828 6.168L23.8868 4.984H21.5188V17.416H24.0308V13.624C24.7828 14.504 25.8068 14.984 26.8788 14.984C28.7668 14.984 30.7668 13.224 30.7668 10.28V9.48C30.7668 6.504 28.7668 4.744 26.8788 4.744ZM28.2548 10.216C28.2548 11.928 27.2948 12.696 26.1268 12.696C24.9908 12.696 24.0308 11.928 24.0308 10.216V9.512C24.0308 7.816 24.9908 7.032 26.1268 7.032C27.2948 7.032 28.2548 7.816 28.2548 9.512V10.216ZM41.0605 9.416C41.0605 6.312 39.0285 4.744 36.5485 4.744C34.0845 4.744 32.0525 6.312 32.0525 9.4V10.264C32.0525 13.368 34.0845 14.936 36.5485 14.936C38.6605 14.936 40.3565 13.976 40.9005 12.184L38.6125 11.512C38.2765 12.328 37.5085 12.728 36.5485 12.728C35.5565 12.728 34.6925 12.104 34.5165 10.76H41.0605V9.416ZM34.5485 8.712C34.7885 7.512 35.6045 6.952 36.5485 6.952C37.6685 6.952 38.5965 7.768 38.5965 8.712H34.5485ZM54.7296 7.816C55.9136 7.304 56.3776 6.392 56.3776 5.336C56.3776 2.712 54.5056 1.544 51.8336 1.544H46.5856V14.696H52.4576C55.1456 14.696 57.0016 13.528 57.0016 10.856C57.0016 9.432 56.2976 8.36 54.7296 7.816ZM51.8176 3.752C53.0976 3.752 53.8976 4.232 53.8976 5.384C53.8976 6.488 53.0976 7.048 51.8176 7.048H49.0976V3.752H51.8176ZM49.0976 12.488V9.096H52.4416C53.7216 9.096 54.5216 9.656 54.5216 10.808C54.5216 11.96 53.7216 12.488 52.4416 12.488H49.0976Z" fill="black"/>
<path d="M7.51 35.5H8.22V26.27H7.51V35.5ZM4.69 27.71V27.91C4.69 30.07 3.25 32.25 0.91 33.77L1.33 34.33C3.85 32.66 5.41 30.38 5.41 27.77V27.06H1.05V27.71H4.69ZM14.4824 30.39H17.2424V26.45H16.5224V27.82H11.7224V26.45H11.0124V30.39H13.7724V31.57H9.80242V32.23H18.4424V31.57H14.4824V30.39ZM16.5224 28.44V29.76H11.7224V28.44H16.5224ZM11.0124 33.01V35.5H17.4824V34.84H11.7224V33.01H11.0124ZM28.7465 28.99V31.37H29.4365V26.28H28.7465V28.35H27.3565V26.37H26.6665V31.28H27.3565V28.99H28.7465ZM24.8065 26.72V28.11H22.4565V26.72H21.7965V30.87H25.4665V26.72H24.8065ZM22.4565 28.75H24.8065V30.23H22.4565V28.75ZM25.3865 31.93C24.0165 31.93 23.2065 32.72 23.2065 33.77C23.2065 34.8 24.0165 35.59 25.3865 35.59H27.3965C28.7665 35.59 29.5765 34.8 29.5765 33.77C29.5765 32.72 28.7665 31.93 27.3965 31.93H25.3865ZM25.5365 34.95C24.4465 34.95 23.9265 34.44 23.9265 33.76C23.9265 33.09 24.4465 32.57 25.5365 32.57H27.2565C28.3365 32.57 28.8565 33.09 28.8565 33.76C28.8565 34.44 28.3365 34.95 27.2565 34.95H25.5365ZM37.9889 26.28V31.32H38.6989V26.28H37.9889ZM36.0289 26.77H31.5389V27.4H35.3589V27.41C35.3589 27.77 35.2689 28.12 35.0989 28.45C34.1189 28.55 32.4489 28.62 31.5489 28.62H31.3489L31.3789 29.22H31.5789C32.4789 29.22 33.7489 29.16 34.6789 29.07C34.0089 29.83 32.8689 30.46 31.4189 30.88L31.6389 31.46C34.3389 30.67 36.0289 29.31 36.0289 27.26V26.77ZM34.7289 31.88C33.3789 31.88 32.5789 32.7 32.5789 33.74C32.5789 34.79 33.3789 35.59 34.7289 35.59H36.6789C38.0289 35.59 38.8289 34.79 38.8289 33.74C38.8289 32.7 38.0289 31.88 36.6789 31.88H34.7289ZM34.8789 34.95C33.8089 34.95 33.2889 34.43 33.2889 33.73C33.2889 33.06 33.8089 32.52 34.8789 32.52H36.5289C37.5989 32.52 38.1189 33.06 38.1189 33.73C38.1189 34.43 37.5989 34.95 36.5289 34.95H34.8789ZM47.3513 35.5H48.0713V26.27H47.3513V35.5ZM43.5413 26.84H42.8413V27.99C42.8413 30.32 41.9813 32.06 40.2813 33.73L40.7813 34.22C41.8013 33.21 42.5313 32.17 42.9813 31.05L45.5813 34.12L46.1113 33.65L43.2413 30.27C43.4413 29.55 43.5413 28.79 43.5413 27.99V26.84ZM57.3838 31.99L57.7838 31.41L54.1138 28.87C54.2938 28.44 54.3838 28 54.3838 27.54V26.8H53.6738V27.54C53.6738 29 52.5538 30.23 50.1838 31.38L50.5138 31.99C52.1338 31.22 53.1938 30.38 53.7938 29.48L57.3838 31.99ZM49.6638 34.75H58.3038V34.1H49.6638V34.75ZM66.2762 31.47H66.9662V26.27H66.2762V31.47ZM65.0162 31.47V26.37H64.3362V28.35H63.0862V28.98H64.3362V31.47H65.0162ZM63.4262 30.32C62.4862 30.47 61.6562 30.54 60.6662 30.54H60.0262V29.24H62.7062V28.62H60.0262V27.4H62.7962V26.77H59.3262V31.18H60.5362C61.7662 31.18 62.6162 31.09 63.5062 30.93L63.4262 30.32ZM66.9662 35.5V32.12H61.0062V35.5H66.9662ZM66.2562 32.76V34.85H61.7162V32.76H66.2562ZM71.7402 30.04C73.2202 29.65 74.2402 29.17 74.8402 28.59L78.3502 30.04L78.6102 29.44L75.2602 28.06C75.4102 27.77 75.4902 27.47 75.4902 27.14V27.13H78.1502V26.5H72.0202V27.13H74.7902V27.15C74.7902 28.07 73.6902 28.86 71.5402 29.43L71.7402 30.04ZM79.4002 30.59H70.7602V31.23H74.7302V32.31H74.0702C72.5702 32.31 71.7802 33.01 71.7802 33.95C71.7802 34.91 72.5702 35.6 74.0702 35.6H76.0902C77.6002 35.6 78.3902 34.91 78.3902 33.95C78.3902 33.01 77.6002 32.31 76.0902 32.31H75.4402V31.23H79.4002V30.59ZM77.6702 33.95C77.6702 34.56 77.1102 34.97 75.9302 34.97H74.2302C73.0502 34.97 72.4902 34.56 72.4902 33.95C72.4902 33.34 73.0502 32.95 74.2302 32.95H75.9302C77.1102 32.95 77.6702 33.34 77.6702 33.95ZM87.2227 31.27H87.9327V26.27H87.2227V31.27ZM85.6927 31L86.0627 30.42L83.2527 28.59C83.4227 28.16 83.5127 27.7 83.5127 27.2V26.6H82.8027V27.2C82.8027 28.62 81.9127 29.67 80.2427 30.61L80.5927 31.19C81.6827 30.59 82.4627 29.94 82.9427 29.19L85.6927 31ZM87.9327 35.5V31.93H82.0027V35.5H87.9327ZM87.2227 32.57V34.85H82.7127V32.57H87.2227ZM97.3151 35.5V26.27H96.6051V35.5H97.3151ZM92.5551 31.76C93.8751 31.76 94.9651 30.99 94.9651 29.37V29.16C94.9651 27.54 93.8751 26.77 92.5551 26.77C91.2151 26.77 90.1351 27.54 90.1351 29.16V29.37C90.1351 30.99 91.2151 31.76 92.5551 31.76ZM92.5551 31.1C91.5751 31.1 90.8551 30.51 90.8551 29.36V29.17C90.8551 28.01 91.5751 27.42 92.5551 27.42C93.5251 27.42 94.2451 28.01 94.2451 29.17V29.36C94.2451 30.51 93.5251 31.1 92.5551 31.1ZM91.2451 33.98C92.6051 33.98 94.4151 33.86 95.8051 33.66L95.7251 33.03C94.2751 33.21 92.4251 33.32 91.2851 33.32H89.6051L89.6451 33.98H91.2451ZM106.759 32.02L107.149 31.46L104.399 29.37C104.529 28.99 104.599 28.58 104.599 28.15H106.839V27.5H104.609V26.2H103.909V27.5H101.699V28.15H103.899C103.899 29.58 102.969 30.64 101.379 31.64L101.729 32.22C102.849 31.54 103.649 30.82 104.119 30L106.759 32.02ZM108.329 26.27V33.37H109.039V26.27H108.329ZM103.819 32.89H103.109V35.49H109.469V34.84H103.819V32.89ZM117.572 30.62C117.792 29.43 117.932 28.17 117.932 27.23V26.6H111.712V27.25H117.222V27.39C117.222 28.09 117.082 29.4 116.852 30.62H110.622V31.28H119.262V30.62H117.572ZM111.832 32.44V35.5H118.302V34.85H112.542V32.44H111.832ZM123.084 27.31V26.15H122.374V27.31H120.054V27.93H125.404V27.31H123.084ZM127.284 26.27H126.574V33.37H127.284V29.77H128.824V29.1H127.284V26.27ZM124.974 30.28C124.974 29.18 123.994 28.57 122.744 28.57C121.494 28.57 120.504 29.18 120.504 30.28V30.45C120.504 31.55 121.494 32.18 122.744 32.18C123.994 32.18 124.974 31.55 124.974 30.45V30.28ZM121.214 30.3C121.214 29.62 121.884 29.19 122.744 29.19C123.594 29.19 124.274 29.62 124.274 30.3V30.44C124.274 31.12 123.594 31.55 122.744 31.55C121.884 31.55 121.214 31.12 121.214 30.44V30.3ZM121.544 33.01V35.49H127.814V34.84H122.264V33.01H121.544ZM139.518 35.5V26.27H138.808V35.5H139.518ZM133.818 33.96C135.178 33.96 136.688 33.82 137.788 33.63L137.708 33C136.518 33.18 135.058 33.31 133.938 33.31H133.078V27.67H136.808V27.01H132.368V33.96H133.818ZM148.38 29.88V26.27H147.67V35.5H148.38V30.54H149.91V29.88H148.38ZM144.08 27.71H146.17V27.06H141.31V27.71H143.38V28.24C143.38 30.52 142.47 32.1 140.95 33.74L141.47 34.22C142.41 33.21 143.1 32.21 143.54 31.13L145.99 34.12L146.54 33.64L143.81 30.33C143.99 29.67 144.08 28.98 144.08 28.24V27.71ZM158.293 33.28V26.27H157.573V33.28H158.293ZM153.293 31.62C154.603 31.62 155.683 30.84 155.683 29.21V29C155.683 27.36 154.603 26.57 153.293 26.57C151.963 26.57 150.883 27.36 150.883 29V29.21C150.883 30.84 151.963 31.62 153.293 31.62ZM153.293 30.98C152.323 30.98 151.603 30.38 151.603 29.2V29C151.603 27.82 152.323 27.21 153.293 27.21C154.253 27.21 154.973 27.82 154.973 29V29.2C154.973 30.38 154.253 30.98 153.293 30.98ZM158.723 35.5V34.84H153.073V32.55H152.353V35.5H158.723Z" fill="#333333"/>
</svg>
