<svg width="60" height="16" viewBox="0 0 60 16" fill="none" xmlns="http://www.w3.org/2000/svg">
<path d="M10.744 15.464H12.328V0.615999H10.744V15.464ZM6.168 3.24V3.416C6.168 6.552 4.12 9.96 0.28 12.424L1.24 13.688C5.368 10.968 7.768 7.304 7.768 3.096V1.784H0.6V3.24H6.168ZM26.6679 6.2V0.615999H25.0679V15.464H26.6679V7.656H28.9719V6.2H26.6679ZM16.6519 11.912V8.152H22.0279V6.744H16.6519V3.144H22.1879V1.704H15.0519V13.352H17.7879C19.8999 13.352 22.0439 13.16 23.7399 12.856L23.5479 11.464C21.7719 11.752 19.7559 11.912 18.0599 11.912H16.6519ZM41.8398 6.2V0.615999H40.2398V15.464H41.8398V7.656H44.1278V6.2H41.8398ZM34.9118 1.48H33.3438V3.416C33.3438 6.968 32.1598 9.704 29.5838 12.392L30.7198 13.448C32.1598 11.944 33.1998 10.408 33.8878 8.76L37.5038 13.288L38.7038 12.28L34.4798 7C34.7678 5.864 34.9118 4.664 34.9118 3.416V1.48ZM50.3076 1.944V0.44H48.6916V1.944H45.1556V3.24H53.8436V1.944H50.3076ZM57.0116 0.615999H55.4116V9.224H57.0116V5.64H59.3156V4.184H57.0116V0.615999ZM53.1876 6.472C53.1876 4.84 51.5716 3.976 49.5236 3.976C47.4596 3.976 45.8436 4.84 45.8436 6.472V6.664C45.8436 8.312 47.4596 9.16 49.5236 9.16C51.5716 9.16 53.1876 8.312 53.1876 6.664V6.472ZM47.4116 6.504C47.4116 5.752 48.3236 5.288 49.5236 5.288C50.7076 5.288 51.6356 5.752 51.6356 6.504V6.648C51.6356 7.4 50.7076 7.848 49.5236 7.848C48.3236 7.848 47.4116 7.4 47.4116 6.648V6.504ZM50.7076 9.992C48.5636 9.992 47.1876 11.112 47.1876 12.808C47.1876 14.52 48.5636 15.624 50.7076 15.624H53.8436C55.9876 15.624 57.3476 14.52 57.3476 12.808C57.3476 11.112 55.9876 9.992 53.8436 9.992H50.7076ZM50.9636 14.2C49.5076 14.2 48.7716 13.64 48.7716 12.808C48.7716 11.96 49.5076 11.4 50.9636 11.4H53.5876C55.0276 11.4 55.7636 11.96 55.7636 12.808C55.7636 13.64 55.0276 14.2 53.5876 14.2H50.9636Z" fill="#333333"/>
</svg>
