<svg width="69" height="14" viewBox="0 0 69 14" fill="none" xmlns="http://www.w3.org/2000/svg">
<path d="M7.6072 6.1H11.5832V4.672H3.9112V3.93H11.3172V2.516H3.9112V1.844H11.3172V0.388H2.1192V6.1H5.8152V6.898H0.551195V8.326H12.8712V6.898H7.6072V6.1ZM5.1292 9.054C3.0432 9.054 1.8532 9.936 1.8532 11.196C1.8532 12.484 3.0432 13.352 5.1292 13.352H8.3072C10.3932 13.352 11.5832 12.484 11.5832 11.196C11.5832 9.936 10.3932 9.054 8.3072 9.054H5.1292ZM5.5072 11.91C4.1772 11.91 3.6312 11.658 3.6312 11.196C3.6312 10.734 4.1772 10.468 5.5072 10.468H7.9292C9.2452 10.468 9.7912 10.734 9.7912 11.196C9.7912 11.658 9.2452 11.91 7.9292 11.91H5.5072ZM24.4246 0.149999H22.6466V7.262H24.4246V4.308H26.3146V2.698H24.4246V0.149999ZM20.7426 7.178L21.6246 5.708L18.1946 3.678C18.3346 3.244 18.4186 2.768 18.4326 2.264H21.1346V0.695999H14.0366V2.264H16.6966C16.6126 3.706 15.6886 4.882 13.5326 6.016L14.3586 7.458C15.7446 6.758 16.7666 6.002 17.4386 5.12L20.7426 7.178ZM18.6986 7.836C16.8506 7.836 15.5486 8.942 15.5486 10.594C15.5486 12.26 16.8506 13.352 18.6986 13.352H21.5686C23.4306 13.352 24.7186 12.26 24.7186 10.594C24.7186 8.942 23.4306 7.836 21.5686 7.836H18.6986ZM18.9506 11.756C17.8866 11.756 17.3406 11.28 17.3406 10.58C17.3406 9.894 17.8866 9.418 18.9506 9.418H21.3026C22.3806 9.418 22.9266 9.894 22.9266 10.58C22.9266 11.28 22.3806 11.756 21.3026 11.756H18.9506ZM41.1866 0.136H39.3946V9.81H41.1866V4.854H43.0766V3.23H41.1866V0.136ZM30.7426 0.766V7.514H37.3086V0.766H30.7426ZM32.4786 5.946V2.334H35.5726V5.946H32.4786ZM32.5766 8.984V13.212H41.7886V11.588H34.3686V8.984H32.5766ZM45.418 0.318V4.434H54.616V3.034H47.21V1.718H54.476V0.318H45.418ZM56.17 6.688V5.274H43.85V6.688H56.17ZM55.092 13.282V11.854H47.07V11.07H54.742V7.556H45.222V8.956H52.95V9.698H45.292V13.282H55.092ZM66.6734 13.212H68.4654V0.136H66.6734V13.212ZM62.6134 2.74C62.6134 5.218 61.0594 8.144 57.6014 10.314L58.6934 11.728C62.3894 9.334 64.4334 6.114 64.4334 2.39V1.102H57.9794V2.74H62.6134Z" fill="white"/>
</svg>
