<svg width="300" height="140" viewBox="0 0 300 140" fill="none" xmlns="http://www.w3.org/2000/svg">
<path d="M22.148 15.736V6.272H18.592V32.424H22.148V18.984H25.956V15.736H22.148ZM6.832 6.3V9.856H0.952V13.048H16.324V9.856H10.444V6.3H6.832ZM8.652 15.036C4.984 15.036 2.072 17.472 2.072 21.252V22.792C2.072 26.572 4.984 29.036 8.652 29.036C12.348 29.036 15.204 26.572 15.204 22.792V21.252C15.204 17.472 12.348 15.036 8.652 15.036ZM11.648 22.652C11.648 24.668 10.332 25.844 8.652 25.844C6.972 25.844 5.656 24.668 5.656 22.652V21.392C5.656 19.376 6.972 18.228 8.652 18.228C10.332 18.228 11.648 19.376 11.648 21.392V22.652ZM30.3868 12.488V20.468H49.8468V17.528H33.9428V15.372H49.2868V7.364H30.2468V10.36H45.7028V12.488H30.3868ZM27.5028 22.848V25.956H38.0308V32.732H41.6148V25.956H52.1428V22.848H27.5028ZM75.2776 6.272H71.6936V25.62H75.2776V15.708H79.0576V12.46H75.2776V6.272ZM54.3896 7.532V21.028H67.5216V7.532H54.3896ZM57.8616 17.892V10.668H64.0496V17.892H57.8616ZM58.0576 23.968V32.424H76.4816V29.176H61.6416V23.968H58.0576ZM110.23 19.152V6.3H106.646V9.576H100.374V12.628H106.646V19.152H110.23ZM103.174 14.28C100.066 14.784 97.0697 15.008 94.5217 15.008H92.7857V7.252H89.1457V18.256H93.9617C97.2937 18.256 100.57 17.976 103.566 17.444L103.174 14.28ZM103.034 19.292H99.4497V21.084H91.8057V23.968H110.65V21.084H103.034V19.292ZM98.2177 24.948C94.7457 24.948 92.7297 26.572 92.7297 28.952C92.7297 31.248 94.7457 32.844 98.2177 32.844H104.238C107.738 32.844 109.754 31.248 109.754 28.952C109.754 26.572 107.738 24.948 104.238 24.948H98.2177ZM98.0497 29.876C96.7617 29.876 96.1737 29.456 96.1737 28.84C96.1737 28.224 96.7617 27.804 98.0497 27.804H104.434C105.722 27.804 106.338 28.224 106.338 28.84C106.338 29.456 105.722 29.876 104.434 29.876H98.0497ZM133.196 15.988H129.22C129.136 9.8 125.944 7.392 122.108 7.392C118.188 7.392 114.968 9.856 114.968 16.24V20.244C114.968 26.628 118.188 29.092 122.108 29.092C126 29.092 129.22 26.628 129.22 20.244V19.264H133.196V32.424H136.78V6.272H133.196V15.988ZM125.636 20.244C125.636 24.444 124.04 25.844 122.108 25.844C120.176 25.844 118.552 24.444 118.552 20.244V16.24C118.552 12.04 120.176 10.64 122.108 10.64C124.04 10.64 125.636 12.04 125.636 16.24V20.244ZM154.763 21.924H162.435V18.732H147.091V11.116H162.183V7.896H143.535V21.924H151.179V27.328H140.651V30.604H165.291V27.328H154.763V21.924ZM128.379 55.736V46.272H124.795V72.424H128.379V58.984H132.159V55.736H128.379ZM117.095 51.48C117.095 56.436 114.043 62.26 107.323 66.656L109.535 69.456C116.703 64.612 120.707 58.228 120.707 50.78V48.204H108.079V51.48H117.095ZM161.847 55.736V46.272H158.263V72.424H161.847V58.984H165.627V55.736H161.847ZM155.407 53.412V50.164H149.891V46.3H146.335V50.164H140.931V53.412H146.307C146.251 58.172 144.123 62.204 140.007 66.572L142.527 68.952C144.823 66.6 146.587 64.22 147.791 61.756L153.699 68.672L156.331 66.348L149.219 57.976C149.611 56.492 149.807 54.98 149.835 53.412H155.407ZM187.866 56.464C188.314 53.86 188.594 50.976 188.594 48.652V47.056H170.198V50.304H184.982C184.926 51.732 184.674 54 184.338 56.128L187.866 56.464ZM180.082 53.328H176.498V57.724H167.202V60.86H191.842V57.724H180.082V53.328ZM185.402 66.404V72.704H188.986V63.296H170.086V66.404H185.402ZM214.949 55.736V46.272H211.365V72.424H214.949V58.984H218.729V55.736H214.949ZM208.509 53.412V50.164H202.993V46.3H199.437V50.164H194.033V53.412H199.409C199.353 58.172 197.225 62.204 193.109 66.572L195.629 68.952C197.925 66.6 199.689 64.22 200.893 61.756L206.801 68.672L209.433 66.348L202.321 57.976C202.713 56.492 202.909 54.98 202.937 53.412H208.509ZM240.968 56.464C241.416 53.86 241.696 50.976 241.696 48.652V47.056H223.3V50.304H238.084C238.028 51.732 237.776 54 237.44 56.128L240.968 56.464ZM233.184 53.328H229.6V57.724H220.304V60.86H244.944V57.724H233.184V53.328ZM238.504 66.404V72.704H242.088V63.296H223.188V66.404H238.504Z" fill="white"/>
<path d="M15.064 57.108H22.484V46.636H18.872V49.184H7.672V46.636H4.088V57.108H11.48V59.264H0.952V62.316H25.592V59.264H15.064V57.108ZM18.872 52.068V54.224H7.672V52.068H18.872ZM19.152 67.524V72.704H22.736V64.388H3.836V67.524H19.152ZM50.1828 72.424V46.272H46.5988V72.424H50.1828ZM34.1948 68.812C37.8348 68.812 41.4748 68.504 44.4988 67.916L44.0508 64.836C40.9148 65.34 37.6388 65.592 34.8388 65.592H32.3468V59.852H41.7268V48.064H28.7908V51.284H38.1428V56.716H28.7908V68.812H34.1948ZM76.7336 72.424V46.272H73.1496V72.424H76.7336ZM62.0616 69.092C65.9536 69.092 69.1736 66.628 69.1736 60.244V56.24C69.1736 49.856 65.9536 47.392 62.0616 47.392C58.1416 47.392 54.9216 49.856 54.9216 56.24V60.244C54.9216 66.628 58.1416 69.092 62.0616 69.092ZM62.0616 65.844C60.1296 65.844 58.5056 64.444 58.5056 60.244V56.24C58.5056 52.04 60.1296 50.64 62.0616 50.64C63.9936 50.64 65.5896 52.04 65.5896 56.24V60.244C65.5896 64.444 63.9936 65.844 62.0616 65.844ZM101.8 55.736V46.272H98.2443V72.424H101.8V58.984H105.58V55.736H101.8ZM89.7883 51.48H95.2203V48.204H81.0243V51.48H86.2883V52.236C86.2883 57.808 84.1883 62.092 79.9883 66.6L82.5363 68.924C84.8323 66.544 86.5683 64.08 87.7723 61.476L93.5403 68.672L96.2283 66.348L89.1723 57.528C89.5923 55.82 89.7883 54.084 89.7883 52.236V51.48Z" fill="#80ECE3"/>
<path d="M8.384 99.248H12.704V93.936H2.464V99.248H6.8V100.784H0.608V102.176H14.56V100.784H8.384V99.248ZM11.104 95.28V97.888H4.064V95.28H11.104ZM11.264 105.12V108.624H12.864V103.696H2.32V105.12H11.264ZM23.5559 99.824H27.8759V98.416H19.2359V95.328H27.7159V93.936H17.6359V99.824H21.9719V101.504H15.7799V102.96H29.7319V101.504H23.5559V99.824ZM17.6359 104.16V108.464H28.2599V106.976H19.2359V104.16H17.6359ZM39.1278 98.544C41.6078 98.544 43.2718 97.824 43.2718 96.096C43.2718 94.4 41.6078 93.696 39.1278 93.696H36.7438C34.2638 93.696 32.5838 94.4 32.5838 96.096C32.5838 97.824 34.2638 98.544 36.7438 98.544H39.1278ZM37.0478 97.28C35.1918 97.28 34.1838 96.912 34.1838 96.112C34.1838 95.328 35.1918 94.976 37.0478 94.976H38.8238C40.6798 94.976 41.6878 95.328 41.6878 96.112C41.6878 96.896 40.6798 97.28 38.8238 97.28H37.0478ZM44.9038 100.912V99.616H30.9518V100.912H44.9038ZM43.5918 108.544V107.232H34.2638V105.936H43.2078V102.144H32.5838V103.408H41.6078V104.672H32.6638V108.544H43.5918ZM62.7655 100.864V93.616H61.1815V100.864H62.7655ZM54.6055 100.528C56.8135 100.528 58.5735 99.456 58.5735 97.312V97.072C58.5735 94.912 56.8135 93.856 54.6055 93.856C52.3655 93.856 50.6215 94.912 50.6215 97.072V97.312C50.6215 99.456 52.3655 100.528 54.6055 100.528ZM54.6055 99.12C53.2295 99.12 52.2215 98.496 52.2215 97.28V97.104C52.2215 95.888 53.2295 95.264 54.6055 95.264C55.9655 95.264 56.9735 95.888 56.9735 97.104V97.28C56.9735 98.496 55.9655 99.12 54.6055 99.12ZM63.3255 108.544V107.184H54.5575V105.776H62.7655V101.792H52.8775V103.12H61.1815V104.464H52.9575V108.544H63.3255ZM73.4414 98.208H76.3374V101.712H77.9374V93.616H76.3374V96.832H73.4414V98.208ZM73.7454 101.632L74.5454 100.32L70.3854 97.696C70.6094 97.088 70.7214 96.448 70.7214 95.744H73.9694V94.32H65.9694V95.744H69.1694C69.1694 97.712 67.9374 99.152 65.3774 100.592L66.1294 101.872C67.7614 100.992 68.9614 100.048 69.7134 98.976L73.7454 101.632ZM71.3454 102.496C69.1854 102.496 67.8094 103.776 67.8094 105.552C67.8094 107.344 69.1854 108.624 71.3454 108.624H74.5774C76.7534 108.624 78.1294 107.344 78.1294 105.552C78.1294 103.776 76.7534 102.496 74.5774 102.496H71.3454ZM71.6014 107.184C70.1294 107.184 69.3934 106.496 69.3934 105.552C69.3934 104.608 70.1294 103.92 71.6014 103.92H74.3374C75.8094 103.92 76.5294 104.608 76.5294 105.552C76.5294 106.496 75.8094 107.184 74.3374 107.184H71.6014ZM95.4471 108.464H97.0311V93.616H95.4471V108.464ZM90.8711 96.24V96.416C90.8711 99.552 88.8231 102.96 84.9831 105.424L85.9431 106.688C90.0711 103.968 92.4711 100.304 92.4711 96.096V94.784H85.3031V96.24H90.8711ZM111.371 93.616H109.771V104.736H111.371V98.784H113.675V97.344H111.371V93.616ZM107.051 94.48H100.027V95.936H105.451C105.339 98 103.275 100.032 99.691 101.392L100.379 102.752C104.523 101.184 107.051 98.8 107.051 95.392V94.48ZM101.867 103.648V108.464H112.139V107.008H103.451V103.648H101.867ZM126.353 99.136H130.673V97.776H122.033V95.264H130.513V93.936H120.433V99.136H124.769V100.512H118.577V101.888H132.529V100.512H126.353V99.136ZM123.857 103.232C121.457 103.232 120.129 104.368 120.129 105.92C120.129 107.488 121.457 108.624 123.857 108.624H127.249C129.649 108.624 130.977 107.488 130.977 105.92C130.977 104.368 129.649 103.232 127.249 103.232H123.857ZM124.177 107.232C122.497 107.232 121.729 106.72 121.729 105.904C121.729 105.12 122.497 104.608 124.177 104.608H126.945C128.625 104.608 129.393 105.12 129.393 105.904C129.393 106.72 128.625 107.232 126.945 107.232H124.177ZM145.637 93.616H144.037V104.736H145.637V98.784H147.941V97.344H145.637V93.616ZM141.653 98.016C141.653 95.296 139.925 94.016 137.781 94.016C135.605 94.016 133.861 95.296 133.861 98.016V98.32C133.861 101.008 135.605 102.304 137.781 102.304C139.925 102.304 141.653 101.008 141.653 98.32V98.016ZM135.461 98.032C135.461 96.272 136.469 95.424 137.781 95.424C139.061 95.424 140.069 96.272 140.069 98.032V98.288C140.069 100.032 139.061 100.896 137.781 100.896C136.469 100.896 135.461 100.032 135.461 98.288V98.032ZM136.117 103.808V108.464H146.405V107.008H137.717V103.808H136.117ZM164.234 108.464H165.802V93.616H164.234V108.464ZM159.066 97.04C158.602 95.12 157.514 94.32 156.202 94.32C154.442 94.32 153.098 95.728 153.098 99.296V101.552C153.098 105.12 154.442 106.528 156.202 106.528C157.674 106.528 158.842 105.536 159.194 103.104H161.018V108.16H162.538V93.84H161.018V97.04H159.066ZM157.786 101.536C157.786 104.112 157.114 105.072 156.202 105.072C155.29 105.072 154.618 104.112 154.618 101.536V99.312C154.618 96.72 155.29 95.776 156.202 95.776C157.114 95.776 157.786 96.72 157.786 99.312V101.536ZM159.29 101.696V101.552V99.296C159.29 99.008 159.274 98.72 159.258 98.464H161.018V101.696H159.29ZM179.134 108.464H180.734V93.616H179.134V108.464ZM173.646 97.44H177.07V95.984H173.662V93.632H172.078V95.984H168.686V97.44H172.062V97.472C172.062 100.48 170.654 102.864 168.158 105.36L169.278 106.448C170.75 104.976 171.886 103.488 172.622 101.92L176.446 106.288L177.598 105.216L173.246 100.272C173.518 99.376 173.646 98.448 173.646 97.472V97.44ZM195.074 99.2V93.616H193.474V108.464H195.074V100.656H197.378V99.2H195.074ZM186.754 93.632V95.808H183.218V97.232H191.906V95.808H188.37V93.632H186.754ZM187.586 98.56C185.522 98.56 183.906 99.92 183.906 102.064V102.928C183.906 105.072 185.522 106.448 187.586 106.448C189.634 106.448 191.234 105.072 191.234 102.928V102.064C191.234 99.92 189.634 98.56 187.586 98.56ZM189.634 102.864C189.634 104.208 188.738 105.024 187.586 105.024C186.418 105.024 185.506 104.208 185.506 102.864V102.128C185.506 100.8 186.418 100 187.586 100C188.738 100 189.634 100.8 189.634 102.128V102.864ZM209.094 96.512C209.094 98.048 208.79 100.832 208.342 103.264L209.91 103.52C210.374 100.992 210.678 98.208 210.678 96.064V94.768H199.83V96.224H209.094V96.512ZM205.046 99.936H203.462V105.888H198.358V107.36H212.31V105.888H205.046V99.936ZM12.496 119.616H10.896V130.736H12.496V124.784H14.8V123.344H12.496V119.616ZM0.88 120.4V127.904H8.096V120.4H0.88ZM2.432 126.496V121.808H6.544V126.496H2.432ZM2.992 129.808V134.464H13.264V133.008H4.576V129.808H2.992ZM26.9159 134.464H28.4999V119.616H26.9159V134.464ZM22.3399 122.24V122.416C22.3399 125.552 20.2919 128.96 16.4519 131.424L17.4119 132.688C21.5399 129.968 23.9399 126.304 23.9399 122.096V120.784H16.7719V122.24H22.3399ZM42.9518 125.2V119.616H41.3998V134.464H42.9518V126.656H45.2238V125.2H42.9518ZM33.5438 122.24V122.416C33.5438 125.024 32.7758 128.256 30.9838 131.68L32.3278 132.448C34.1518 128.928 35.0958 125.632 35.0958 122.096V120.784H31.4158V122.24H33.5438ZM37.8798 122.24V122.416C37.8798 125.104 37.1278 128.864 35.3518 132.304L36.6798 133.056C38.5198 129.536 39.4478 125.696 39.4478 122.096V120.784H35.8158V122.24H37.8798ZM57.2436 134.464H58.8436V119.616H57.2436V134.464ZM51.7556 122.24H55.0996V120.784H46.8756V122.24H50.1876V122.864C50.1876 126.288 48.7956 128.768 46.2836 131.376L47.4196 132.448C48.8916 130.928 49.9956 129.408 50.7316 127.776L54.5236 132.288L55.6916 131.232L51.3396 126.096C51.6116 125.072 51.7556 124 51.7556 122.864V122.24ZM66.4315 120.752V119.44H64.8315V120.752H61.3275V121.984H69.9355V120.752H66.4315ZM73.3275 124.112V119.616H71.7275V129.184H73.3275V125.568H75.4875V124.112H73.3275ZM70.5275 127.408C69.2635 127.568 67.8395 127.68 66.5275 127.744V126.832C68.1275 126.656 69.2795 126 69.2795 124.8V124.656C69.2795 123.232 67.6795 122.576 65.6475 122.576C63.5995 122.576 61.9995 123.232 61.9995 124.656V124.8C61.9995 126.032 63.2315 126.704 64.9275 126.848V127.824C64.4475 127.84 64.0155 127.84 63.6315 127.84H61.0715L61.1355 129.104H63.5035C65.6155 129.104 68.4475 128.944 70.6715 128.64L70.5275 127.408ZM63.5675 124.688C63.5675 124.128 64.4635 123.776 65.6475 123.776C66.8155 123.776 67.7275 124.128 67.7275 124.688V124.784C67.7275 125.328 66.8155 125.68 65.6475 125.68C64.4635 125.68 63.5675 125.328 63.5675 124.784V124.688ZM71.7275 131.488V134.624H73.3275V130.128H63.5035V131.488H71.7275ZM84.6914 124.208H87.5874V127.712H89.1874V119.616H87.5874V122.832H84.6914V124.208ZM84.9954 127.632L85.7954 126.32L81.6354 123.696C81.8594 123.088 81.9714 122.448 81.9714 121.744H85.2194V120.32H77.2194V121.744H80.4194C80.4194 123.712 79.1874 125.152 76.6274 126.592L77.3794 127.872C79.0114 126.992 80.2114 126.048 80.9634 124.976L84.9954 127.632ZM82.5954 128.496C80.4354 128.496 79.0594 129.776 79.0594 131.552C79.0594 133.344 80.4354 134.624 82.5954 134.624H85.8274C88.0034 134.624 89.3794 133.344 89.3794 131.552C89.3794 129.776 88.0034 128.496 85.8274 128.496H82.5954ZM82.8514 133.184C81.3794 133.184 80.6434 132.496 80.6434 131.552C80.6434 130.608 81.3794 129.92 82.8514 129.92H85.5874C87.0594 129.92 87.7794 130.608 87.7794 131.552C87.7794 132.496 87.0594 133.184 85.5874 133.184H82.8514ZM103.159 125.488C103.431 123.936 103.575 122.304 103.575 121.024V120.08H93.3513V121.536H101.991C101.975 122.4 101.831 123.984 101.559 125.488H91.6393V126.896H105.591V125.488H103.159ZM103.895 134.48V128.688H93.3513V134.48H103.895ZM102.295 130.064V133.072H94.9513V130.064H102.295ZM119.531 134.464V119.616H117.947V134.464H119.531ZM110.411 132.352C112.539 132.352 114.795 132.16 116.523 131.84L116.331 130.448C114.507 130.736 112.395 130.912 110.699 130.912H109.211V127.152H114.747V120.704H107.611V122.144H113.147V125.744H107.611V132.352H110.411ZM138.193 127.104L138.961 125.76L133.361 122.672C133.633 122.064 133.761 121.44 133.761 120.768V119.856H132.161V120.768C132.161 122.608 130.561 124.256 126.801 125.712L127.441 127.104C129.873 126.192 131.521 125.152 132.529 123.984L138.193 127.104ZM125.905 128.768V130.208H132.097V134.624H133.681V130.208H139.857V128.768H125.905ZM153.797 127.952V119.616H152.197V127.952H153.797ZM145.621 127.376C147.829 127.376 149.589 126.208 149.589 123.792V123.536C149.589 121.104 147.829 119.936 145.621 119.936C143.413 119.936 141.637 121.104 141.637 123.536V123.792C141.637 126.208 143.413 127.376 145.621 127.376ZM145.621 125.968C144.261 125.968 143.237 125.232 143.237 123.76V123.552C143.237 122.064 144.261 121.344 145.621 121.344C146.981 121.344 148.005 122.064 148.005 123.552V123.76C148.005 125.232 146.981 125.968 145.621 125.968ZM153.797 134.624V128.88H143.829V130.336H152.197V134.624H153.797ZM158.105 122.112V125.504H168.649V124.32H159.705V123.296H168.345V119.856H158.041V121.056H166.745V122.112H158.105ZM170.201 126.432H156.249V127.664H159.897V128.72H157.881V129.936H166.905V130.992H157.961V134.544H168.889V133.296H159.561V132.208H168.505V128.72H166.569V127.664H170.201V126.432ZM161.449 128.72V127.664H165.017V128.72H161.449ZM179.197 129.104H183.981V127.696H174.733V125.552H183.677V120.608H173.053V122.048H182.077V124.144H173.133V129.104H177.613V131.888H171.421V133.36H185.373V131.888H179.197V129.104ZM198.29 128.72H202.77V120.528H201.17V123.248H193.826V120.528H192.226V128.72H196.706V131.888H190.514V133.36H204.466V131.888H198.29V128.72ZM201.17 124.688V127.28H193.826V124.688H201.17ZM217.574 119.616H215.974V127.712H217.574V124.176H219.862V122.72H217.574V119.616ZM213.686 127.552L214.486 126.256L210.39 123.648C210.598 123.056 210.71 122.416 210.71 121.744H213.91V120.32H205.974V121.744H209.158C209.158 123.696 207.942 125.168 205.398 126.592L206.15 127.872C207.798 126.992 208.982 126.032 209.734 124.944L213.686 127.552ZM211.254 128.496C209.126 128.496 207.75 129.776 207.75 131.552C207.75 133.344 209.126 134.624 211.254 134.624H214.39C216.55 134.624 217.91 133.344 217.91 131.552C217.91 129.776 216.55 128.496 214.39 128.496H211.254ZM211.526 133.184C210.07 133.184 209.334 132.496 209.334 131.552C209.334 130.608 210.07 129.92 211.526 129.92H214.134C215.59 129.92 216.326 130.608 216.326 131.552C216.326 132.496 215.59 133.184 214.134 133.184H211.526Z" fill="white"/>
</svg>
