<svg width="160" height="16" viewBox="0 0 160 16" fill="none" xmlns="http://www.w3.org/2000/svg">
<path d="M12.496 0.615999H10.896V8.712H12.496V5.176H14.8V3.72H12.496V0.615999ZM8.56 8.36L9.424 7.112L5.296 4.312C5.536 3.624 5.664 2.872 5.664 2.072V1.096H4.112V2.072C4.112 4.168 2.928 5.864 0.304 7.4L1.152 8.68C2.72 7.768 3.872 6.776 4.608 5.656L8.56 8.36ZM6.176 9.496C4.048 9.496 2.672 10.776 2.672 12.552C2.672 14.344 4.048 15.624 6.176 15.624H9.312C11.472 15.624 12.832 14.344 12.832 12.552C12.832 10.776 11.472 9.496 9.312 9.496H6.176ZM6.448 14.184C4.992 14.184 4.256 13.496 4.256 12.552C4.256 11.608 4.992 10.92 6.448 10.92H9.056C10.512 10.92 11.232 11.608 11.232 12.552C11.232 13.496 10.512 14.184 9.056 14.184H6.448ZM25.8919 5.128V2.264H28.0999V0.936H17.4119V2.264H19.6359V5.128H17.4119V6.472H28.0999V5.128H25.8919ZM24.3399 2.264V5.128H21.1879V2.264H24.3399ZM29.7319 7.736H15.7799V9.128H21.9559V10.616H17.4919V15.464H28.0359V10.616H23.5559V9.128H29.7319V7.736ZM19.0919 14.136V11.928H26.4359V14.136H19.0919ZM43.6718 7.864V0.615999H42.0878V3.032H38.8718V4.456H42.0878V7.864H43.6718ZM39.4158 7.784L40.2158 6.488L36.1038 3.944C36.3598 3.304 36.4718 2.616 36.4718 1.864V1.048H34.9198V1.864C34.9198 3.8 33.7358 5.336 31.1118 6.712L31.9118 8.008C33.4798 7.192 34.6478 6.296 35.3998 5.272L39.4158 7.784ZM35.4478 12.776H43.6718V8.792H33.7838V10.12H42.0878V11.464H33.8478V15.544H44.2158V14.184H35.4478V12.776ZM57.2596 6.568V8.712H58.8436V0.615999H57.2596V2.408H54.1396V1.32H46.8596V7.992H54.1396V6.568H57.2596ZM48.4116 6.568V2.744H52.5876V6.568H48.4116ZM57.2596 5.272H54.1396V3.704H57.2596V5.272ZM52.2516 9.496C50.1076 9.496 48.7156 10.776 48.7156 12.552C48.7156 14.344 50.1076 15.624 52.2516 15.624H55.4996C57.6596 15.624 59.0516 14.344 59.0516 12.552C59.0516 10.776 57.6596 9.496 55.4996 9.496H52.2516ZM52.5236 14.184C51.0356 14.184 50.3156 13.496 50.3156 12.552C50.3156 11.608 51.0356 10.92 52.5236 10.92H55.2436C56.7316 10.92 57.4516 11.608 57.4516 12.552C57.4516 13.496 56.7316 14.184 55.2436 14.184H52.5236ZM72.4155 5.736H68.8955V7.192H72.4155V15.464H74.0155V0.615999H72.4155V5.736ZM66.7675 1.48H65.2155V3.416C65.2155 6.968 63.9515 9.688 61.2795 12.376L62.3995 13.448C63.9195 11.928 65.0075 10.376 65.7275 8.712L69.5195 13.288L70.7195 12.264L66.3195 7C66.6235 5.864 66.7675 4.68 66.7675 3.416V1.48ZM91.5413 0.615999V8.712H93.1253V0.615999H91.5413ZM81.1253 1.256V7.448H88.4853V1.256H81.1253ZM82.6933 6.072V2.632H86.9333V6.072H82.6933ZM88.8533 12.376C88.9813 12.088 89.0613 11.784 89.0933 11.48H93.2853V10.088H89.0933V8.488H87.4613V10.088H83.1573V11.48H87.4293C87.2373 12.632 85.3653 13.544 82.3573 14.248L82.7893 15.624C85.0933 15.112 86.8213 14.424 87.8933 13.544L93.5093 15.624L94.0373 14.248L88.8533 12.376ZM112.203 15.464V0.615999H110.603V15.464H112.203ZM103.995 13.528C106.139 13.528 107.915 12.12 107.915 8.552V6.296C107.915 2.728 106.139 1.32 103.995 1.32C101.819 1.32 100.043 2.728 100.043 6.296V8.552C100.043 12.12 101.819 13.528 103.995 13.528ZM103.995 12.072C102.683 12.072 101.643 11.112 101.643 8.536V6.312C101.643 3.72 102.683 2.776 103.995 2.776C105.307 2.776 106.331 3.72 106.331 6.312V8.536C106.331 11.112 105.307 12.072 103.995 12.072ZM124.799 5.96C126.159 5.576 126.975 4.76 126.975 3.48C126.975 1.656 125.311 0.775999 122.799 0.775999H120.463C117.967 0.775999 116.287 1.656 116.287 3.48C116.287 4.76 117.119 5.592 118.479 5.96V7.592H114.655V8.968H128.607V7.592H124.799V5.96ZM117.887 3.496C117.887 2.584 118.911 2.12 120.751 2.12H122.527C124.367 2.12 125.391 2.584 125.391 3.496C125.391 4.376 124.367 4.872 122.527 4.872H120.751C118.911 4.872 117.887 4.392 117.887 3.496ZM119.999 6.184C121.087 6.2 122.191 6.2 123.279 6.184V7.592H119.999V6.184ZM119.935 10.232C117.535 10.232 116.207 11.368 116.207 12.92C116.207 14.488 117.535 15.624 119.935 15.624H123.327C125.727 15.624 127.055 14.488 127.055 12.92C127.055 11.368 125.727 10.232 123.327 10.232H119.935ZM120.255 14.232C118.575 14.232 117.807 13.72 117.807 12.904C117.807 12.12 118.575 11.608 120.255 11.608H123.023C124.703 11.608 125.471 12.12 125.471 12.904C125.471 13.72 124.703 14.232 123.023 14.232H120.255ZM144.019 2.296H141.715V0.615999H140.115V8.952H141.715V6.68H144.019V5.32H141.715V3.656H144.019V2.296ZM137.731 4.536C137.731 2.104 136.019 0.936 133.859 0.936C131.667 0.936 129.939 2.104 129.939 4.536V4.792C129.939 7.208 131.667 8.376 133.859 8.376C136.019 8.376 137.731 7.208 137.731 4.792V4.536ZM131.539 4.552C131.539 3.08 132.531 2.344 133.859 2.344C135.155 2.344 136.147 3.08 136.147 4.552V4.76C136.147 6.232 135.155 6.968 133.859 6.968C132.531 6.968 131.539 6.232 131.539 4.76V4.552ZM140.115 11.336V15.624H141.715V9.88H132.051V11.336H140.115ZM157.031 0.615999H155.431V12.056H157.031V6.568H159.191V5.112H157.031V0.615999ZM152.695 7.08C152.983 5.496 153.175 3.768 153.175 2.136V1.368H145.735V2.744H151.623C151.623 3.768 151.447 5.352 151.175 6.888L152.695 7.08ZM154.199 7.992C152.695 8.184 150.935 8.312 149.415 8.392V4.92H147.815V8.44H147.335H144.775L144.855 9.896H147.207C149.319 9.896 152.151 9.72 154.375 9.4L154.199 7.992ZM147.367 11.432V15.464H157.815V14.008H148.967V11.432H147.367Z" fill="#333333"/>
</svg>
