<svg width="76" height="16" viewBox="0 0 76 16" fill="none" xmlns="http://www.w3.org/2000/svg">
<path d="M12.896 8.104L13.664 6.76L8.064 3.672C8.336 3.064 8.464 2.44 8.464 1.768V0.855999H6.864V1.768C6.864 3.608 5.264 5.256 1.504 6.712L2.144 8.104C4.576 7.192 6.224 6.152 7.232 4.984L12.896 8.104ZM0.608 9.768V11.208H6.8V15.624H8.384V11.208H14.56V9.768H0.608ZM28.0679 8.104L28.8359 6.76L23.2359 3.672C23.5079 3.064 23.6359 2.44 23.6359 1.768V0.855999H22.0359V1.768C22.0359 3.608 20.4359 5.256 16.6759 6.712L17.3159 8.104C19.7479 7.192 21.3959 6.152 22.4039 4.984L28.0679 8.104ZM15.7799 9.768V11.208H21.9719V15.624H23.5559V11.208H29.7319V9.768H15.7799ZM32.6638 4.984V9.8H43.5118V8.392H34.2638V6.392H43.2078V1.608H32.5838V3.048H41.6078V4.984H32.6638ZM41.1918 10.664H39.6398V12.888H36.2318V10.664H34.6798V12.888H30.9518V14.36H44.9038V12.888H41.1918V10.664ZM54.3476 5.208H57.2436V8.712H58.8436V0.615999H57.2436V3.832H54.3476V5.208ZM54.6516 8.632L55.4516 7.32L51.2916 4.696C51.5156 4.088 51.6276 3.448 51.6276 2.744H54.8756V1.32H46.8756V2.744H50.0756C50.0756 4.712 48.8436 6.152 46.2836 7.592L47.0356 8.872C48.6676 7.992 49.8676 7.048 50.6196 5.976L54.6516 8.632ZM52.2516 9.496C50.0916 9.496 48.7156 10.776 48.7156 12.552C48.7156 14.344 50.0916 15.624 52.2516 15.624H55.4836C57.6596 15.624 59.0356 14.344 59.0356 12.552C59.0356 10.776 57.6596 9.496 55.4836 9.496H52.2516ZM52.5076 14.184C51.0356 14.184 50.2996 13.496 50.2996 12.552C50.2996 11.608 51.0356 10.92 52.5076 10.92H55.2436C56.7156 10.92 57.4356 11.608 57.4356 12.552C57.4356 13.496 56.7156 14.184 55.2436 14.184H52.5076ZM69.0715 9.72H73.5515V1.528H71.9515V4.248H64.6075V1.528H63.0075V9.72H67.4875V12.888H61.2955V14.36H75.2475V12.888H69.0715V9.72ZM71.9515 5.688V8.28H64.6075V5.688H71.9515Z" fill="#333333"/>
</svg>
