<svg width="100" height="40" viewBox="0 0 100 40" fill="none" xmlns="http://www.w3.org/2000/svg">
<rect width="100" height="40" rx="20" fill="white"/>
<path d="M34.5372 17.868V13.136H32.7452V26.212H34.5372V19.492H36.4272V17.868H34.5372ZM28.8952 15.74C28.8952 18.218 27.3692 21.13 24.0092 23.328L25.1152 24.728C28.6992 22.306 30.7012 19.114 30.7012 15.39V14.102H24.3872V15.74H28.8952ZM46.7486 19.926H48.5406V13.136H46.7486V19.926ZM44.8306 16.454C44.8306 14.354 43.2486 13.346 41.2326 13.346C39.2166 13.346 37.6346 14.354 37.6346 16.454V16.622C37.6346 18.694 39.2166 19.702 41.2326 19.702C43.2486 19.702 44.8306 18.694 44.8306 16.622V16.454ZM39.4266 16.454C39.4266 15.404 40.2106 14.914 41.2326 14.914C42.2546 14.914 43.0386 15.404 43.0386 16.454V16.608C43.0386 17.644 42.2546 18.134 41.2326 18.134C40.2106 18.134 39.4266 17.644 39.4266 16.608V16.454ZM41.4426 21.788V20.5H39.6646V26.212H48.5406V20.5H46.7486V21.788H41.4426ZM41.4426 23.342H46.7486V24.63H41.4426V23.342ZM61.074 17.868V13.136H59.296V26.212H61.074V19.492H62.978V17.868H61.074ZM53.416 13.15V14.928H50.476V16.524H58.162V14.928H55.222V13.15H53.416ZM54.326 17.518C52.492 17.518 51.036 18.736 51.036 20.626V21.396C51.036 23.286 52.492 24.518 54.326 24.518C56.174 24.518 57.602 23.286 57.602 21.396V20.626C57.602 18.736 56.174 17.518 54.326 17.518ZM55.824 21.326C55.824 22.334 55.166 22.922 54.326 22.922C53.486 22.922 52.828 22.334 52.828 21.326V20.696C52.828 19.688 53.486 19.114 54.326 19.114C55.166 19.114 55.824 19.688 55.824 20.696V21.326ZM73.2994 26.212H75.0914V13.136H73.2994V26.212ZM69.2394 15.74C69.2394 18.218 67.6854 21.144 64.2274 23.314L65.3194 24.728C69.0154 22.334 71.0594 19.114 71.0594 15.39V14.102H64.6054V15.74H69.2394Z" fill="black"/>
</svg>
