<svg width="104" height="14" viewBox="0 0 104 14" fill="none" xmlns="http://www.w3.org/2000/svg">
<path d="M10.1315 3.986V6.506H11.5175V0.163999H10.1315V2.754H7.82147C7.59747 1.158 6.15547 0.373999 4.37747 0.373999C2.41747 0.373999 0.891469 1.298 0.891469 3.188V3.398C0.891469 5.274 2.41747 6.212 4.37747 6.212C6.09947 6.212 7.49947 5.47 7.79347 3.986H10.1315ZM2.29147 3.216C2.29147 2.152 3.17347 1.606 4.37747 1.606C5.56747 1.606 6.44947 2.152 6.44947 3.216V3.37C6.44947 4.434 5.56747 4.98 4.37747 4.98C3.17347 4.98 2.29147 4.434 2.29147 3.37V3.216ZM4.33547 10.804H11.5175V7.318H2.86547V8.48H10.1315V9.656H2.93547V13.226H12.0075V12.036H4.33547V10.804ZM24.0649 5.05V0.163999H22.6649V13.156H24.0649V6.324H26.0809V5.05H24.0649ZM20.2149 11.056V1.116H13.9009V11.056H20.2149ZM18.8149 2.404V9.768H15.3009V2.404H18.8149ZM37.7883 5.358V4.308H29.9623V3.398H37.5223V0.373999H28.5063V1.438H36.1223V2.362H28.5623V5.358H37.7883ZM39.1463 7.262V6.198H26.9383V7.262H39.1463ZM37.9983 13.226V12.134H29.8363V11.182H37.6623V8.13H28.3663V9.194H36.2623V10.118H28.4363V13.226H37.9983ZM54.0473 0.163999H52.6473V7.388H54.0473V4.154H56.0633V2.88H54.0473V0.163999ZM48.8533 0.71V2.474H45.2273V0.71H43.8833V6.674H50.1973V0.71H48.8533ZM45.2273 3.692H48.8533V5.456H45.2273V3.692ZM54.1173 9.46V8.2H45.7173V13.156H54.3833V11.896H47.1173V9.46H54.1173ZM64.0747 4.476C66.2447 4.476 67.7007 3.846 67.7007 2.334C67.7007 0.85 66.2447 0.233999 64.0747 0.233999H61.9887C59.8187 0.233999 58.3487 0.85 58.3487 2.334C58.3487 3.846 59.8187 4.476 61.9887 4.476H64.0747ZM62.2547 3.37C60.6307 3.37 59.7487 3.048 59.7487 2.348C59.7487 1.662 60.6307 1.354 62.2547 1.354H63.8087C65.4327 1.354 66.3147 1.662 66.3147 2.348C66.3147 3.034 65.4327 3.37 63.8087 3.37H62.2547ZM69.1287 6.548V5.414H56.9207V6.548H69.1287ZM67.9807 13.226V12.078H59.8187V10.944H67.6447V7.626H58.3487V8.732H66.2447V9.838H58.4187V13.226H67.9807ZM80.6961 5.05V0.163999H79.3381V13.156H80.6961V6.324H82.6841V5.05H80.6961ZM72.4641 2.46V2.614C72.4641 4.896 71.7921 7.724 70.2241 10.72L71.4001 11.392C72.9961 8.312 73.8221 5.428 73.8221 2.334V1.186H70.6021V2.46H72.4641ZM76.2581 2.46V2.614C76.2581 4.966 75.6001 8.256 74.0461 11.266L75.2081 11.924C76.8181 8.844 77.6301 5.484 77.6301 2.334V1.186H74.4521V2.46H76.2581ZM90.5975 7.794C92.9355 7.794 94.4335 6.296 94.4335 4.294C94.4335 2.334 92.9355 0.836 90.5975 0.836H88.5675C86.2295 0.836 84.7315 2.334 84.7315 4.294C84.7315 6.296 86.2295 7.794 88.5675 7.794H90.5975ZM90.3455 2.082C92.0395 2.082 93.0475 3.006 93.0475 4.308C93.0475 5.624 92.0395 6.548 90.3455 6.548H88.8055C87.1255 6.548 86.1315 5.624 86.1315 4.308C86.1315 3.006 87.1255 2.082 88.8055 2.082H90.3455ZM92.5715 8.536H91.2135V10.902H87.9655V8.536H86.5935V10.902H83.4715V12.176H95.6795V10.902H92.5715V8.536ZM97.8248 3.566C98.2308 2.502 98.8468 1.788 100.163 1.788C101.367 1.788 102.277 2.502 102.277 3.608C102.277 4.63 101.731 5.19 100.639 5.778C99.4068 6.408 99.0148 6.94 99.0148 8.088L99.0288 8.886H100.359V8.2C100.373 7.584 100.611 7.262 101.465 6.8C102.795 6.1 103.691 5.218 103.691 3.608C103.691 1.676 101.983 0.499999 100.163 0.499999C98.2168 0.499999 97.0408 1.634 96.5368 3.118L97.8248 3.566ZM99.7008 12.61C100.233 12.61 100.667 12.19 100.667 11.658C100.667 11.126 100.233 10.692 99.7008 10.692C99.1688 10.692 98.7488 11.126 98.7488 11.658C98.7488 12.19 99.1688 12.61 99.7008 12.61Z" fill="black"/>
</svg>
