<svg width="69" height="66" viewBox="0 0 69 66" fill="none" xmlns="http://www.w3.org/2000/svg">
<path d="M5.068 5.452V4.01H3.654V5.452H0.56V6.628H8.162V5.452H5.068ZM10.934 4.164H9.534V14.02H10.934V9.232H12.95V7.958H10.934V4.164ZM7.588 9.834C7.588 8.238 6.174 7.398 4.382 7.398C2.576 7.398 1.162 8.238 1.162 9.834V10.044C1.162 11.626 2.576 12.494 4.382 12.494C6.174 12.494 7.588 11.626 7.588 10.044V9.834ZM2.534 9.862C2.534 9.064 3.332 8.574 4.382 8.574C5.418 8.574 6.23 9.064 6.23 9.862V10.016C6.23 10.828 5.418 11.318 4.382 11.318C3.332 11.318 2.534 10.828 2.534 10.016V9.862ZM2.604 13.558V17.156H11.606V15.882H4.004V13.558H2.604ZM24.3354 9.176V4.164H22.9354V17.156H24.3354V10.45H26.2254V9.176H24.3354ZM18.3154 5.648V4.178H16.9014V5.648H13.8354V6.81H21.3674V5.648H18.3154ZM18.3854 12.69C19.7714 12.466 20.7934 11.64 20.7934 10.268V10.058C20.7934 8.462 19.3934 7.594 17.6294 7.594C15.8234 7.594 14.4234 8.462 14.4234 10.058V10.268C14.4234 11.682 15.5014 12.522 16.9854 12.704V14.258C16.5654 14.272 16.1874 14.286 15.8514 14.286H13.6114L13.6814 15.532H15.7394C17.5874 15.532 20.0654 15.378 22.0114 15.112L21.8574 13.894C20.7654 14.02 19.5334 14.132 18.3854 14.202V12.69ZM15.7954 10.072C15.7954 9.218 16.5794 8.714 17.6294 8.714C18.6374 8.714 19.4354 9.218 19.4354 10.072V10.254C19.4354 11.122 18.6374 11.626 17.6294 11.626C16.5794 11.626 15.7954 11.122 15.7954 10.254V10.072ZM29.0428 11.164H34.4608V9.904H29.0428V6.306H34.7268V5.06H27.6428V16.4H34.8668V15.154H29.0428V11.164ZM36.4715 11.374H41.0215V10.072H36.4715V11.374ZM52.221 17.156H53.621V4.164H52.221V17.156ZM47.517 5.648V4.178H46.117V5.648H42.981V6.81H50.653V5.648H47.517ZM47.517 12.704C48.973 12.508 50.065 11.668 50.065 10.268V10.058C50.065 8.462 48.623 7.594 46.831 7.594C45.011 7.594 43.583 8.462 43.583 10.058V10.268C43.583 11.668 44.661 12.508 46.131 12.704V14.244C45.711 14.258 45.319 14.272 44.969 14.272H42.617L42.687 15.546H44.843C46.747 15.546 49.295 15.392 51.283 15.112L51.129 13.866C49.995 14.006 48.707 14.118 47.517 14.188V12.704ZM44.941 10.072C44.941 9.218 45.767 8.714 46.831 8.714C47.867 8.714 48.693 9.218 48.693 10.072V10.254C48.693 11.122 47.867 11.626 46.831 11.626C45.767 11.626 44.941 11.122 44.941 10.254V10.072ZM62.9624 8.798H65.5104V13.894H66.8964V4.164H65.5104V7.594H62.9624V8.798ZM63.1584 12.13L63.9424 11.038L60.2884 8.21C60.4984 7.58 60.5964 6.922 60.5964 6.222V6.096H63.4384V4.85H56.4244V6.096H59.2244V6.222C59.2244 8.266 58.1324 9.736 55.9064 11.262L56.6624 12.34C58.0484 11.43 59.0704 10.478 59.7284 9.414L63.1584 12.13ZM59.7004 13.082H58.3004V17.156H67.4424V15.882H59.7004V13.082ZM7.728 30.182H10.262V33.248H11.662V26.164H10.262V28.978H7.728V30.182ZM7.994 33.178L8.694 32.03L5.054 29.734C5.25 29.202 5.348 28.642 5.348 28.026H8.19V26.78H1.19V28.026H3.99C3.99 29.748 2.912 31.008 0.672 32.268L1.33 33.388C2.758 32.618 3.808 31.792 4.466 30.854L7.994 33.178ZM5.894 33.934C4.004 33.934 2.8 35.054 2.8 36.608C2.8 38.176 4.004 39.296 5.894 39.296H8.722C10.626 39.296 11.83 38.176 11.83 36.608C11.83 35.054 10.626 33.934 8.722 33.934H5.894ZM6.118 38.036C4.83 38.036 4.186 37.434 4.186 36.608C4.186 35.782 4.83 35.18 6.118 35.18H8.512C9.8 35.18 10.43 35.782 10.43 36.608C10.43 37.434 9.8 38.036 8.512 38.036H6.118ZM23.5514 39.156H24.9374V26.164H23.5514V39.156ZM19.5474 28.46V28.614C19.5474 31.358 17.7554 34.34 14.3954 36.496L15.2354 37.602C18.8474 35.222 20.9474 32.016 20.9474 28.334V27.186H14.6754V28.46H19.5474ZM37.0508 39.156H38.4228V26.164H37.0508V39.156ZM32.5288 29.16C32.1228 27.48 31.1708 26.78 30.0228 26.78C28.4828 26.78 27.3068 28.012 27.3068 31.134V33.108C27.3068 36.23 28.4828 37.462 30.0228 37.462C31.3108 37.462 32.3328 36.594 32.6408 34.466H34.2368V38.89H35.5668V26.36H34.2368V29.16H32.5288ZM31.4088 33.094C31.4088 35.348 30.8208 36.188 30.0228 36.188C29.2248 36.188 28.6368 35.348 28.6368 33.094V31.148C28.6368 28.88 29.2248 28.054 30.0228 28.054C30.8208 28.054 31.4088 28.88 31.4088 31.148V33.094ZM32.7248 33.234V33.108V31.134C32.7248 30.882 32.7108 30.63 32.6968 30.406H34.2368V33.234H32.7248ZM50.4382 31.302C50.6762 29.944 50.8022 28.516 50.8022 27.396V26.57H41.8562V27.844H49.4162C49.4022 28.6 49.2762 29.986 49.0382 31.302H40.3582V32.534H52.5662V31.302H50.4382ZM51.0822 39.17V34.102H41.8562V39.17H51.0822ZM49.6822 35.306V37.938H43.2562V35.306H49.6822ZM7.336 53.498H11.116V48.374H9.716V49.844H3.556V48.374H2.156V53.498H5.95V54.786H0.532V55.99H12.74V54.786H7.336V53.498ZM9.716 50.992V52.35H3.556V50.992H9.716ZM9.856 58.482V61.296H11.256V57.25H2.03V58.482H9.856ZM24.9374 61.156V48.164H23.5514V61.156H24.9374ZM16.9574 59.308C18.8194 59.308 20.7934 59.14 22.3054 58.86L22.1374 57.642C20.5414 57.894 18.6934 58.048 17.2094 58.048H15.9074V54.758H20.7514V49.116H14.5074V50.376H19.3514V53.526H14.5074V59.308H16.9574ZM36.8128 55.458H38.2128V48.164H36.8128V55.458ZM34.7128 55.08L35.4548 53.974L31.7028 51.454C31.9268 50.838 32.0388 50.18 32.0388 49.466V48.584H30.6528V49.466C30.6528 51.356 29.5888 52.84 27.2088 54.24L27.9368 55.36C29.3648 54.534 30.4148 53.638 31.0868 52.644L34.7128 55.08ZM36.8128 57.544V61.296H38.2128V56.27H29.4768V57.544H36.8128Z" fill="white"/>
</svg>
