<svg width="60" height="16" viewBox="0 0 60 16" fill="none" xmlns="http://www.w3.org/2000/svg">
<path d="M12.496 0.615999H10.896V8.712H12.496V5.176H14.8V3.72H12.496V0.615999ZM8.56 8.36L9.424 7.112L5.296 4.312C5.536 3.624 5.664 2.872 5.664 2.072V1.096H4.112V2.072C4.112 4.168 2.928 5.864 0.304 7.4L1.152 8.68C2.72 7.768 3.872 6.776 4.608 5.656L8.56 8.36ZM6.176 9.496C4.048 9.496 2.672 10.776 2.672 12.552C2.672 14.344 4.048 15.624 6.176 15.624H9.312C11.472 15.624 12.832 14.344 12.832 12.552C12.832 10.776 11.472 9.496 9.312 9.496H6.176ZM6.448 14.184C4.992 14.184 4.256 13.496 4.256 12.552C4.256 11.608 4.992 10.92 6.448 10.92H9.056C10.512 10.92 11.232 11.608 11.232 12.552C11.232 13.496 10.512 14.184 9.056 14.184H6.448ZM25.8919 5.128V2.264H28.0999V0.936H17.4119V2.264H19.6359V5.128H17.4119V6.472H28.0999V5.128H25.8919ZM24.3399 2.264V5.128H21.1879V2.264H24.3399ZM29.7319 7.736H15.7799V9.128H21.9559V10.616H17.4919V15.464H28.0359V10.616H23.5559V9.128H29.7319V7.736ZM19.0919 14.136V11.928H26.4359V14.136H19.0919ZM42.8398 0.615999H41.2398V11.736H42.8398V5.784H45.1438V4.344H42.8398V0.615999ZM38.8558 5.016C38.8558 2.296 37.1278 1.016 34.9838 1.016C32.8078 1.016 31.0638 2.296 31.0638 5.016V5.32C31.0638 8.008 32.8078 9.304 34.9838 9.304C37.1278 9.304 38.8558 8.008 38.8558 5.32V5.016ZM32.6638 5.032C32.6638 3.272 33.6718 2.424 34.9838 2.424C36.2638 2.424 37.2718 3.272 37.2718 5.032V5.288C37.2718 7.032 36.2638 7.896 34.9838 7.896C33.6718 7.896 32.6638 7.032 32.6638 5.288V5.032ZM33.3198 10.808V15.464H43.6078V14.008H34.9198V10.808H33.3198ZM57.5316 6.2H55.6276V0.839999H54.1236V15.16H55.6276V7.656H57.5316V15.464H59.0836V0.615999H57.5316V6.2ZM48.2996 11.592V1.704H46.6996V13.048H48.7956C50.3316 13.048 51.6916 12.952 53.1316 12.696L52.9716 11.288C51.4836 11.512 50.1716 11.592 49.0196 11.592H48.2996Z" fill="#333333"/>
</svg>
