<svg width="80" height="66" viewBox="0 0 80 66" fill="none" xmlns="http://www.w3.org/2000/svg">
<path d="M10.934 9.05V4.164H9.534V17.156H10.934V10.324H12.95V9.05H10.934ZM2.24 14.048V10.758H6.874V5.116H0.84V6.376H5.488V9.526H0.84V15.308H3.22C5.054 15.308 6.902 15.154 8.372 14.874L8.204 13.67C6.664 13.908 4.942 14.048 3.472 14.048H2.24ZM24.9374 17.156V4.164H23.5374V17.156H24.9374ZM17.7554 15.462C19.6314 15.462 21.1854 14.23 21.1854 11.108V9.134C21.1854 6.012 19.6314 4.78 17.7554 4.78C15.8514 4.78 14.2974 6.012 14.2974 9.134V11.108C14.2974 14.23 15.8514 15.462 17.7554 15.462ZM17.7554 14.188C16.6074 14.188 15.6974 13.348 15.6974 11.094V9.148C15.6974 6.88 16.6074 6.054 17.7554 6.054C18.9034 6.054 19.7994 6.88 19.7994 9.148V11.094C19.7994 13.348 18.9034 14.188 17.7554 14.188ZM35.9728 10.996V6.306H38.0028V5.032H28.3708V6.306H30.4008V10.996H28.3708V12.27H38.0028V10.996H35.9728ZM34.6148 6.306V10.996H31.7588V6.306H34.6148ZM27.0828 16.19H39.2908V14.902H27.0828V16.19ZM49.2062 7.594V5.494H51.1382V4.374H41.7862V5.494H43.7322V7.594H41.7862V8.714H51.1382V7.594H49.2062ZM47.8482 5.494V7.594H45.0902V5.494H47.8482ZM40.3582 10.828H52.5662V9.694H40.3582V10.828ZM51.0822 15.014V11.766H41.7862V12.858H49.6822V13.908H41.8562V17.226H51.4182V16.106H43.2562V15.014H51.0822ZM63.3776 9.176H61.2356V10.45H63.3776V17.156H64.7636V4.164H63.3776V9.176ZM55.7336 14.048V10.758H60.3676V5.116H54.3336V6.376H58.9816V9.526H54.3336V15.308H56.7556C58.5896 15.308 60.5216 15.14 61.9916 14.86L61.8376 13.656C60.2836 13.894 58.4636 14.048 57.0076 14.048H55.7336ZM77.731 12.27L78.487 11.108L73.419 7.72C73.671 7.104 73.783 6.474 73.783 5.83V4.836H72.383V5.83C72.383 7.748 70.969 9.428 67.539 11.066L68.183 12.27C70.395 11.248 71.879 10.114 72.761 8.91L77.731 12.27ZM66.909 16.176H79.117V14.902H66.909V16.176ZM7.728 30.182H10.262V33.248H11.662V26.164H10.262V28.978H7.728V30.182ZM7.994 33.178L8.694 32.03L5.054 29.734C5.25 29.202 5.348 28.642 5.348 28.026H8.19V26.78H1.19V28.026H3.99C3.99 29.748 2.912 31.008 0.672 32.268L1.33 33.388C2.758 32.618 3.808 31.792 4.466 30.854L7.994 33.178ZM5.894 33.934C4.004 33.934 2.8 35.054 2.8 36.608C2.8 38.176 4.004 39.296 5.894 39.296H8.722C10.626 39.296 11.83 38.176 11.83 36.608C11.83 35.054 10.626 33.934 8.722 33.934H5.894ZM6.118 38.036C4.83 38.036 4.186 37.434 4.186 36.608C4.186 35.782 4.83 35.18 6.118 35.18H8.512C9.8 35.18 10.43 35.782 10.43 36.608C10.43 37.434 9.8 38.036 8.512 38.036H6.118ZM23.5514 39.156H24.9374V26.164H23.5514V39.156ZM19.5474 28.46V28.614C19.5474 31.358 17.7554 34.34 14.3954 36.496L15.2354 37.602C18.8474 35.222 20.9474 32.016 20.9474 28.334V27.186H14.6754V28.46H19.5474ZM36.8128 29.118H34.2648V30.322H36.8128V33.458H38.2128V26.164H36.8128V29.118ZM34.5308 33.318L35.2448 32.184L31.6048 29.804C31.8008 29.258 31.8988 28.67 31.8988 28.04V28.026H34.7408V26.78H27.7408V28.026H30.5408V28.04C30.5408 29.818 29.4628 31.12 27.2228 32.408L27.8948 33.514C29.3228 32.73 30.3588 31.89 31.0168 30.924L34.5308 33.318ZM36.8128 35.544V39.296H38.2128V34.27H29.4768V35.544H36.8128ZM50.4382 31.302C50.6762 29.944 50.8022 28.516 50.8022 27.396V26.57H41.8562V27.844H49.4162C49.4022 28.6 49.2762 29.986 49.0382 31.302H40.3582V32.534H52.5662V31.302H50.4382ZM51.0822 39.17V34.102H41.8562V39.17H51.0822ZM49.6822 35.306V37.938H43.2562V35.306H49.6822ZM1.232 54.73C1.232 57.614 2.338 60.134 4.326 62.22L5.25 61.366C3.402 59.28 2.562 57.04 2.562 54.73C2.562 52.406 3.402 50.18 5.25 48.094L4.326 47.24C2.338 49.326 1.232 51.846 1.232 54.73ZM10.7441 60.4V49.06H9.55413L5.97013 51.916L6.76813 52.966L9.34413 50.908V60.4H10.7441ZM17.318 60.61C19.586 60.61 21.448 58.986 21.448 55.822V53.624C21.448 50.488 19.586 48.85 17.318 48.85C15.05 48.85 13.202 50.488 13.202 53.624V55.822C13.202 58.986 15.05 60.61 17.318 60.61ZM17.318 59.35C15.792 59.35 14.602 58.202 14.602 55.752V53.708C14.602 51.258 15.792 50.11 17.318 50.11C18.844 50.11 20.034 51.258 20.034 53.708V55.752C20.034 58.202 18.844 59.35 17.318 59.35ZM33.3149 48.164H31.9149V57.894H33.3149V52.686H35.3309V51.426H33.3149V48.164ZM23.1509 48.85V55.416H29.4649V48.85H23.1509ZM24.5089 54.184V50.082H28.1069V54.184H24.5089ZM24.9989 57.082V61.156H33.9869V59.882H26.3849V57.082H24.9989ZM42.3063 57.404H45.9323V58.51H47.3183V48.164H45.9323V56.34H42.3063V57.404ZM40.4583 53.386C42.4183 53.386 43.9443 52.574 43.9443 51.006V50.838C43.9443 49.256 42.4183 48.444 40.4583 48.444C38.4843 48.444 36.9583 49.256 36.9583 50.838V51.006C36.9583 52.574 38.4843 53.386 40.4583 53.386ZM38.2883 50.866C38.2883 50.04 39.1983 49.592 40.4583 49.592C41.7043 49.592 42.6143 50.04 42.6143 50.866V50.978C42.6143 51.79 41.7043 52.238 40.4583 52.238C39.1983 52.238 38.2883 51.79 38.2883 50.978V50.866ZM40.7803 57.698C40.8643 56.956 40.9203 56.214 40.9623 55.528C42.3343 55.458 43.7623 55.332 44.9943 55.164L44.8543 54.016C42.7963 54.268 40.2763 54.422 38.6663 54.422H36.3283L36.3843 55.598H38.5543C38.8903 55.598 39.2403 55.598 39.6183 55.584C39.5623 56.228 39.5063 56.928 39.4363 57.6L40.7803 57.698ZM39.9823 58.16H38.5963V61.156H47.8643V59.882H39.9823V58.16ZM53.2716 54.73C53.2716 51.846 52.1656 49.326 50.1776 47.24L49.2536 48.094C51.1016 50.18 51.9416 52.406 51.9416 54.73C51.9416 57.04 51.1016 59.28 49.2536 61.366L50.1776 62.22C52.1656 60.134 53.2716 57.614 53.2716 54.73Z" fill="white"/>
</svg>
