<svg width="99" height="24" viewBox="0 0 99 24" fill="none" xmlns="http://www.w3.org/2000/svg">
<path d="M17.0833 8.06667V6.16667C17.0833 5.25 16.3333 4.5 15.4166 4.5H3.74992C2.82492 4.5 2.08325 5.25 2.08325 6.16667V17.8333C2.08325 18.75 2.82492 19.5 3.74992 19.5H15.4166C16.3333 19.5 17.0833 18.75 17.0833 17.8333V15.9333C17.5749 15.6417 17.9166 15.1167 17.9166 14.5V9.5C17.9166 8.88333 17.5749 8.35833 17.0833 8.06667ZM16.2499 9.5V14.5H10.4166V9.5H16.2499ZM3.74992 17.8333V6.16667H15.4166V7.83333H10.4166C9.49992 7.83333 8.74992 8.58333 8.74992 9.5V14.5C8.74992 15.4167 9.49992 16.1667 10.4166 16.1667H15.4166V17.8333H3.74992Z" fill="white" fill-opacity="0.8"/>
<path d="M12.9166 13.25C13.6069 13.25 14.1666 12.6904 14.1666 12C14.1666 11.3096 13.6069 10.75 12.9166 10.75C12.2262 10.75 11.6666 11.3096 11.6666 12C11.6666 12.6904 12.2262 13.25 12.9166 13.25Z" fill="white" fill-opacity="0.8"/>
<path d="M30.858 17.358V6.102H29.962L26.434 8.958L27.022 9.7L29.836 7.418V17.358H30.858ZM37.4101 17.568C39.6221 17.568 41.4001 15.93 41.4001 12.85V10.61C41.4001 7.544 39.6221 5.892 37.4101 5.892C35.1841 5.892 33.4061 7.544 33.4061 10.61V12.85C33.4061 15.93 35.1841 17.568 37.4101 17.568ZM37.4101 16.658C35.7721 16.658 34.4281 15.426 34.4281 12.78V10.68C34.4281 8.048 35.7721 6.802 37.4101 6.802C39.0481 6.802 40.3921 8.048 40.3921 10.68V12.78C40.3921 15.426 39.0481 16.658 37.4101 16.658ZM53.1866 5.178H52.1786V14.992H53.1866V9.532H55.3286V8.608H53.1866V5.178ZM43.2886 5.948V12.332H49.3366V5.948H43.2886ZM44.2686 11.436V6.844H48.3566V11.436H44.2686ZM45.1366 14.166V18.1H53.9146V17.176H46.1446V14.166H45.1366ZM62.248 14.25H66.182V15.524H67.176V5.178H66.182V13.424H62.248V14.25ZM60.498 10.344C62.374 10.344 63.872 9.56 63.872 8.034V7.852C63.872 6.326 62.374 5.528 60.498 5.528C58.622 5.528 57.124 6.326 57.124 7.852V8.034C57.124 9.56 58.622 10.344 60.498 10.344ZM58.09 7.88C58.09 6.942 59.098 6.396 60.498 6.396C61.912 6.396 62.92 6.942 62.92 7.88V8.006C62.92 8.944 61.912 9.49 60.498 9.49C59.098 9.49 58.09 8.944 58.09 8.006V7.88ZM60.624 14.712C60.708 13.942 60.778 13.144 60.834 12.388C62.262 12.318 63.788 12.192 65.048 12.01L64.95 11.17C62.92 11.422 60.33 11.576 58.734 11.576H56.382L56.424 12.444H58.678C59.042 12.444 59.434 12.444 59.84 12.43C59.798 13.144 59.728 13.928 59.644 14.642L60.624 14.712ZM59.728 15.258H58.734V18.1H67.778V17.176H59.728V15.258ZM83.8557 18.1V5.178H82.8477V18.1H83.8557ZM76.8137 16.378C78.6337 16.378 80.1317 15.16 80.1317 12.094V10.162C80.1317 7.096 78.6337 5.878 76.8137 5.878C74.9937 5.878 73.4957 7.096 73.4957 10.162V12.094C73.4957 15.16 74.9937 16.378 76.8137 16.378ZM76.8137 15.454C75.4837 15.454 74.5037 14.488 74.5037 12.08V10.162C74.5037 7.754 75.4837 6.802 76.8137 6.802C78.1437 6.802 79.1377 7.754 79.1377 10.162V12.08C79.1377 14.488 78.1437 15.454 76.8137 15.454ZM96.403 5.192H95.395V12.248H96.403V8.986H98.545V8.076H96.403V5.192ZM93.309 11.87L93.855 11.072L90.061 8.468C90.299 7.852 90.411 7.208 90.411 6.508V5.64H89.431V6.508C89.431 8.496 88.227 9.994 85.973 11.324L86.477 12.136C87.947 11.296 88.997 10.372 89.641 9.322L93.309 11.87ZM91.097 13.032C89.221 13.032 88.087 14.18 88.087 15.636C88.087 17.106 89.221 18.226 91.097 18.226H93.715C95.605 18.226 96.725 17.106 96.725 15.636C96.725 14.18 95.605 13.032 93.715 13.032H91.097ZM91.293 17.33C89.809 17.33 89.095 16.602 89.095 15.622C89.095 14.684 89.809 13.928 91.293 13.928H93.519C95.003 13.928 95.717 14.684 95.717 15.622C95.717 16.602 95.003 17.33 93.519 17.33H91.293Z" fill="white"/>
</svg>
