<svg width="61" height="16" viewBox="0 0 61 16" fill="none" xmlns="http://www.w3.org/2000/svg">
<path d="M12.128 6.488C12.4 4.936 12.544 3.304 12.544 2.024V1.08H2.32V2.536H10.96C10.944 3.4 10.8 4.984 10.528 6.488H0.608V7.896H14.56V6.488H12.128ZM12.864 15.48V9.688H2.32V15.48H12.864ZM11.264 11.064V14.072H3.92V11.064H11.264ZM28.4999 15.464V0.615999H26.9159V15.464H28.4999ZM19.3799 13.352C21.5079 13.352 23.7639 13.16 25.4919 12.84L25.2999 11.448C23.4759 11.736 21.3639 11.912 19.6679 11.912H18.1799V8.152H23.7159V1.704H16.5799V3.144H22.1159V6.744H16.5799V13.352H19.3799ZM39.1758 5.208H42.0718V8.712H43.6718V0.615999H42.0718V3.832H39.1758V5.208ZM39.4798 8.632L40.2798 7.32L36.1198 4.696C36.3438 4.088 36.4558 3.448 36.4558 2.744H39.7038V1.32H31.7038V2.744H34.9038C34.9038 4.712 33.6718 6.152 31.1118 7.592L31.8638 8.872C33.4958 7.992 34.6958 7.048 35.4478 5.976L39.4798 8.632ZM37.0798 9.496C34.9198 9.496 33.5438 10.776 33.5438 12.552C33.5438 14.344 34.9198 15.624 37.0798 15.624H40.3118C42.4878 15.624 43.8638 14.344 43.8638 12.552C43.8638 10.776 42.4878 9.496 40.3118 9.496H37.0798ZM37.3358 14.184C35.8638 14.184 35.1278 13.496 35.1278 12.552C35.1278 11.608 35.8638 10.92 37.3358 10.92H40.0718C41.5438 10.92 42.2638 11.608 42.2638 12.552C42.2638 13.496 41.5438 14.184 40.0718 14.184H37.3358ZM53.8996 9.72H58.3796V1.528H56.7796V4.248H49.4356V1.528H47.8356V9.72H52.3156V12.888H46.1236V14.36H60.0756V12.888H53.8996V9.72ZM56.7796 5.688V8.28H49.4356V5.688H56.7796Z" fill="#333333"/>
</svg>
