<svg width="123" height="24" viewBox="0 0 123 24" fill="none" xmlns="http://www.w3.org/2000/svg">
<path d="M4.58325 9.91667H7.08325V18.25H4.58325V9.91667ZM4.58325 5.75H7.08325V9.08333H4.58325V5.75ZM12.9166 14.9167H15.4166V18.25H12.9166V14.9167ZM12.9166 12.4167H15.4166V14.0833H12.9166V12.4167ZM8.74992 12.4167H11.2499V18.25H8.74992V12.4167ZM8.74992 9.08333H11.2499V11.5833H8.74992V9.08333Z" fill="white" fill-opacity="0.8"/>
<path d="M38.936 6.774H36.78V5.192H35.786V12.458H36.78V10.232H38.936V9.35H36.78V7.656H38.936V6.774ZM33.336 8.566C33.336 6.536 31.866 5.542 30.06 5.542C28.212 5.542 26.756 6.536 26.756 8.566V8.846C26.756 10.876 28.212 11.87 30.06 11.87C31.866 11.87 33.336 10.876 33.336 8.846V8.566ZM27.75 8.594C27.75 7.18 28.716 6.438 30.06 6.438C31.362 6.438 32.328 7.18 32.328 8.594V8.818C32.328 10.232 31.362 10.974 30.06 10.974C28.716 10.974 27.75 10.232 27.75 8.818V8.594ZM35.786 14.278V18.226H36.78V13.368H28.604V14.278H35.786ZM46.9894 9.014H49.7754V12.248H50.7694V5.192H49.7754V8.132H46.9894V9.014ZM47.4374 12.122L47.9554 11.296L44.1754 8.72C44.3854 8.174 44.4834 7.6 44.4834 6.97V6.774H47.4514V5.878H40.5634V6.774H43.5034V6.97C43.5034 8.874 42.2574 10.204 40.0454 11.52L40.5354 12.318C42.0334 11.464 43.0974 10.568 43.7414 9.546L47.4374 12.122ZM45.2254 13.032C43.3214 13.032 42.2014 14.18 42.2014 15.636C42.2014 17.106 43.3214 18.226 45.2254 18.226H47.9414C49.8454 18.226 50.9654 17.106 50.9654 15.636C50.9654 14.18 49.8454 13.032 47.9414 13.032H45.2254ZM45.4214 17.33C43.9234 17.33 43.1954 16.602 43.1954 15.622C43.1954 14.684 43.9234 13.928 45.4214 13.928H47.7454C49.2434 13.928 49.9574 14.684 49.9574 15.622C49.9574 16.602 49.2434 17.33 47.7454 17.33H45.4214ZM60.0968 9.434C62.3368 9.434 63.7508 8.818 63.7508 7.348C63.7508 5.892 62.3368 5.29 60.0968 5.29H58.2768C56.0508 5.29 54.6368 5.892 54.6368 7.348C54.6368 8.818 56.0508 9.434 58.2768 9.434H60.0968ZM59.9428 6.144C61.7628 6.144 62.7428 6.522 62.7428 7.362C62.7428 8.174 61.7628 8.594 59.9428 8.594H58.4448C56.6108 8.594 55.6308 8.202 55.6308 7.362C55.6308 6.522 56.6108 6.144 58.4448 6.144H59.9428ZM65.2348 10.498H53.1388V11.352H56.5128V12.682H54.6368V13.522H62.6728V14.978H54.7068V18.17H64.0308V17.316H55.7008V15.818H63.6808V12.682H61.8888V11.352H65.2348V10.498ZM57.4928 12.682V11.352H60.9088V12.682H57.4928ZM79.7445 10.708V14.992H80.7525V5.178H79.7445V7.152H76.6365C76.0625 6.102 74.9705 5.598 73.7385 5.598C71.8765 5.598 70.3785 6.704 70.3785 9V9.294C70.3785 11.576 71.8765 12.668 73.7385 12.668C75.1245 12.668 76.3285 12.024 76.8185 10.708H79.7445ZM71.3865 9C71.3865 7.348 72.3805 6.494 73.7385 6.494C75.0685 6.494 76.0625 7.348 76.0625 9V9.28C76.0625 10.932 75.0685 11.772 73.7385 11.772C72.3805 11.772 71.3865 10.932 71.3865 9.28V9ZM79.7445 9.868H77.0285C77.0425 9.686 77.0565 9.49 77.0565 9.294V9C77.0565 8.65 77.0145 8.314 76.9585 8.02H79.7445V9.868ZM73.4445 13.97H72.4365V18.1H81.3545V17.176H73.4445V13.97ZM86.6942 14.824C87.1842 16.266 88.4582 17.568 90.6982 17.568C93.0082 17.568 94.5622 16.266 94.5622 14.404C94.5622 12.962 93.6522 11.912 92.3502 11.534C93.4702 11.184 94.2962 10.232 94.2962 8.846C94.2962 7.04 92.7842 5.892 90.6842 5.892C88.6542 5.892 87.5062 7.166 87.0302 8.468L87.9402 8.804C88.3602 7.782 89.1162 6.816 90.6842 6.816C92.2522 6.816 93.2882 7.586 93.2882 8.888C93.2882 10.176 92.3222 11.1 90.4882 11.1H89.1162V11.996H90.4882C92.5322 11.996 93.5682 13.046 93.5682 14.376C93.5682 15.72 92.4762 16.644 90.6982 16.644C88.9202 16.644 88.0382 15.65 87.6182 14.516L86.6942 14.824ZM97.2145 17.568C97.6485 17.568 97.9985 17.218 97.9985 16.784C97.9985 16.35 97.6485 16.014 97.2145 16.014C96.7805 16.014 96.4445 16.35 96.4445 16.784C96.4445 17.218 96.7805 17.568 97.2145 17.568ZM103.897 17.568C106.305 17.568 107.915 16.238 107.915 14.334C107.915 13.102 107.075 12.024 105.703 11.506C106.963 11.002 107.565 10.036 107.565 8.874C107.565 7.068 106.081 5.892 103.897 5.892C101.727 5.892 100.229 7.068 100.229 8.874C100.229 10.036 100.831 11.002 102.091 11.506C100.719 12.024 99.8788 13.102 99.8788 14.334C99.8788 16.238 101.503 17.568 103.897 17.568ZM103.897 11.086C102.217 11.086 101.237 10.204 101.237 8.958C101.237 7.698 102.217 6.816 103.897 6.816C105.577 6.816 106.571 7.698 106.571 8.958C106.571 10.204 105.577 11.086 103.897 11.086ZM103.897 16.644C102.007 16.644 100.887 15.678 100.887 14.306C100.887 12.976 102.063 11.982 103.897 11.982C105.731 11.982 106.907 12.976 106.907 14.306C106.907 15.678 105.787 16.644 103.897 16.644ZM112.07 11.982C113.386 11.982 114.464 11.072 114.464 9.448V8.412C114.464 6.816 113.386 5.892 112.07 5.892C110.74 5.892 109.676 6.816 109.676 8.412V9.448C109.676 11.072 110.74 11.982 112.07 11.982ZM112.378 17.358L120.12 6.102H118.958L111.23 17.358H112.378ZM112.07 11.114C111.244 11.114 110.614 10.526 110.614 9.406V8.454C110.614 7.348 111.244 6.76 112.07 6.76C112.896 6.76 113.54 7.348 113.54 8.454V9.406C113.54 10.54 112.896 11.114 112.07 11.114ZM119.168 17.568C120.484 17.568 121.562 16.658 121.562 15.034V13.998C121.562 12.402 120.484 11.478 119.168 11.478C117.838 11.478 116.774 12.402 116.774 13.998V15.034C116.774 16.658 117.838 17.568 119.168 17.568ZM119.168 16.7C118.342 16.7 117.712 16.126 117.712 14.992V14.04C117.712 12.934 118.342 12.346 119.168 12.346C119.994 12.346 120.638 12.934 120.638 14.04V14.992C120.638 16.126 119.994 16.7 119.168 16.7Z" fill="white"/>
</svg>
