<svg width="181" height="34" viewBox="0 0 181 34" fill="none" xmlns="http://www.w3.org/2000/svg">
<path d="M14.8625 10.225L13.3791 8.75L5.13745 17L13.3875 25.25L14.8625 23.775L8.08745 17L14.8625 10.225Z" fill="black"/>
<path d="M35.536 18.432C35.536 15.392 33.552 13.856 31.152 13.856C28.784 13.856 26.784 15.392 26.784 18.384V19.344C26.784 22.352 28.8 23.888 31.168 23.888C33.136 23.888 34.816 22.976 35.376 21.216L33.504 20.64C33.12 21.6 32.208 22.064 31.168 22.064C29.968 22.064 28.912 21.248 28.8 19.616H35.536V18.432ZM28.816 17.92C28.992 16.416 29.984 15.664 31.152 15.664C32.48 15.664 33.504 16.608 33.504 17.92H28.816ZM48.1525 14.32V17.808H50.0885V9.6H48.1525V12.528H46.6965V9.744H44.8245V17.648H46.6965V14.32H48.1525ZM41.6725 10.144V11.984H39.0165V10.144H37.2245V17.232H43.4485V10.144H41.6725ZM39.0165 13.744H41.6725V15.44H39.0165V13.744ZM43.1285 18.464C40.9525 18.464 39.4805 19.68 39.4805 21.584C39.4805 23.456 40.9525 24.688 43.1285 24.688H46.6165C48.7925 24.688 50.2805 23.456 50.2805 21.584C50.2805 19.68 48.7925 18.464 46.6165 18.464H43.1285ZM43.4325 22.864C42.1525 22.864 41.5285 22.336 41.5285 21.568C41.5285 20.784 42.1525 20.272 43.4325 20.272H46.3285C47.5925 20.272 48.2165 20.784 48.2165 21.568C48.2165 22.336 47.5925 22.864 46.3285 22.864H43.4325ZM62.9404 9.6V17.728H64.9884V9.6H62.9404ZM60.5884 10.224H52.9084V11.936H58.7644C58.7324 12.272 58.6524 12.576 58.5404 12.896C56.9884 13.04 54.3964 13.136 52.9244 13.136H52.6044L52.6844 14.72H53.0684C54.2684 14.72 55.8844 14.64 57.2444 14.512C56.2204 15.344 54.6684 16.032 52.5564 16.528L53.1484 18.176C57.9964 16.944 60.5884 14.8 60.5884 11.2V10.224ZM58.1404 18.384C56.0124 18.384 54.5404 19.648 54.5404 21.536C54.5404 23.44 56.0124 24.688 58.1404 24.688H61.5484C63.6764 24.688 65.1644 23.44 65.1644 21.536C65.1644 19.648 63.6764 18.384 61.5484 18.384H58.1404ZM58.4444 22.864C57.2124 22.864 56.5724 22.32 56.5724 21.52C56.5724 20.736 57.2124 20.192 58.4444 20.192H61.2444C62.4924 20.192 63.1164 20.736 63.1164 21.52C63.1164 22.32 62.4924 22.864 61.2444 22.864H58.4444ZM79.457 14.416H82.081V17.728H84.129V9.6H82.081V12.672H79.457V14.416ZM79.569 17.712L80.561 16.032L76.609 13.696C76.801 13.168 76.897 12.608 76.913 12.016H80.017V10.224H71.857V12.016H74.929C74.833 13.68 73.777 15.008 71.265 16.304L72.225 17.952C73.793 17.168 74.961 16.304 75.729 15.312L79.569 17.712ZM77.281 18.384C75.137 18.384 73.665 19.648 73.665 21.536C73.665 23.44 75.137 24.688 77.281 24.688H80.673C82.817 24.688 84.305 23.44 84.305 21.536C84.305 19.648 82.817 18.384 80.673 18.384H77.281ZM77.569 22.864C76.337 22.864 75.713 22.32 75.713 21.52C75.713 20.736 76.337 20.192 77.569 20.192H80.385C81.617 20.192 82.257 20.736 82.257 21.52C82.257 22.32 81.617 22.864 80.385 22.864H77.569ZM97.2529 24.528H99.3009V9.584H97.2529V24.528ZM92.6129 12.56C92.6129 15.392 90.8369 18.736 86.8849 21.216L88.1329 22.832C92.3569 20.096 94.6929 16.416 94.6929 12.16V10.688H87.3169V12.56H92.6129ZM112.761 24.528H114.745V9.584H112.761V24.528ZM107.801 12.832C107.305 10.976 106.217 10.224 104.905 10.224C103.113 10.224 101.721 11.632 101.721 15.28V17.568C101.721 21.216 103.113 22.624 104.905 22.624C106.377 22.624 107.577 21.664 107.945 19.296H109.513V24.176H111.449V9.824H109.513V12.832H107.801ZM106.137 17.568C106.137 19.968 105.625 20.768 104.905 20.768C104.201 20.768 103.657 19.968 103.657 17.568V15.28C103.657 12.88 104.201 12.08 104.905 12.08C105.625 12.08 106.137 12.88 106.137 15.28V17.568ZM108.073 15.28C108.073 15.056 108.073 14.848 108.057 14.64H109.513V17.504H108.073V15.28ZM128.525 15.28C128.749 13.824 128.861 12.272 128.861 11.008V10.016H118.365V11.888H126.813C126.781 12.704 126.669 14.016 126.461 15.28H116.685V17.088H130.765V15.28H128.525ZM129.133 24.544V18.608H118.333V24.544H129.133ZM127.085 20.368V22.752H120.365V20.368H127.085ZM143.889 15.776H148.129V9.792H146.065V11.248H139.665V9.792H137.617V15.776H141.841V17.008H135.825V18.752H149.905V17.008H143.889V15.776ZM146.065 12.896V14.128H139.665V12.896H146.065ZM146.225 21.728V24.688H148.273V19.936H137.473V21.728H146.225ZM163.957 24.528V9.584H161.909V24.528H163.957ZM154.821 22.464C156.901 22.464 158.981 22.288 160.709 21.952L160.453 20.192C158.661 20.48 156.789 20.624 155.189 20.624H153.765V17.344H159.125V10.608H151.733V12.448H157.077V15.552H151.733V22.464H154.821ZM177.081 17.968H179.129V9.6H177.081V17.968ZM174.729 17.616L175.817 16L171.737 13.296C171.977 12.592 172.089 11.856 172.089 11.056V10.032H170.089V11.056C170.089 13.008 169.065 14.688 166.297 16.304L167.385 17.936C168.921 17.056 170.057 16.096 170.841 15.008L174.729 17.616ZM177.081 20.624V24.688H179.129V18.784H168.809V20.624H177.081Z" fill="black"/>
</svg>
