<svg width="110" height="66" viewBox="0 0 110 66" fill="none" xmlns="http://www.w3.org/2000/svg">
<path d="M2.492 11.164H7.91V9.904H2.492V6.306H8.176V5.06H1.092V16.4H8.316V15.154H2.492V11.164ZM19.5108 8.126V11.318H20.8408V4.164H19.5108V6.894H17.8868V4.304H16.5988V11.192H17.8868V8.126H19.5108ZM13.9108 4.724V6.488H11.1108V4.724H9.86475V10.716H15.1568V4.724H13.9108ZM11.1108 7.72H13.9108V9.484H11.1108V7.72ZM14.9608 12.004C13.0428 12.004 11.8388 13.096 11.8388 14.65C11.8388 16.204 13.0428 17.296 14.9608 17.296H17.8868C19.8048 17.296 21.0088 16.204 21.0088 14.65C21.0088 13.096 19.8048 12.004 17.8868 12.004H14.9608ZM15.1848 16.036C13.8688 16.036 13.2388 15.462 13.2388 14.65C13.2388 13.824 13.8688 13.25 15.1848 13.25H17.6628C18.9788 13.25 19.6088 13.824 19.6088 14.65C19.6088 15.462 18.9788 16.036 17.6628 16.036H15.1848ZM32.5201 4.164V11.248H33.9061V4.164H32.5201ZM30.1121 4.78H23.6161V5.97H28.8381C28.8241 6.376 28.7261 6.768 28.5581 7.146C27.2001 7.272 24.9041 7.356 23.6301 7.356H23.3501L23.4061 8.462H23.7141C24.8761 8.462 26.4721 8.378 27.7321 8.266C26.8081 9.162 25.3381 9.904 23.3641 10.422L23.7841 11.556C27.7881 10.45 30.1121 8.56 30.1121 5.564V4.78ZM28.1381 11.934C26.2481 11.934 25.0441 13.054 25.0441 14.608C25.0441 16.176 26.2481 17.296 28.1381 17.296H30.9801C32.8701 17.296 34.0741 16.176 34.0741 14.608C34.0741 13.054 32.8701 11.934 30.9801 11.934H28.1381ZM28.3761 16.036C27.0741 16.036 26.4441 15.434 26.4441 14.608C26.4441 13.782 27.0741 13.18 28.3761 13.18H30.7561C32.0441 13.18 32.6881 13.782 32.6881 14.608C32.6881 15.434 32.0441 16.036 30.7561 16.036H28.3761ZM7.728 30.182H10.262V33.248H11.662V26.164H10.262V28.978H7.728V30.182ZM7.994 33.178L8.694 32.03L5.054 29.734C5.25 29.202 5.348 28.642 5.348 28.026H8.19V26.78H1.19V28.026H3.99C3.99 29.748 2.912 31.008 0.672 32.268L1.33 33.388C2.758 32.618 3.808 31.792 4.466 30.854L7.994 33.178ZM5.894 33.934C4.004 33.934 2.8 35.054 2.8 36.608C2.8 38.176 4.004 39.296 5.894 39.296H8.722C10.626 39.296 11.83 38.176 11.83 36.608C11.83 35.054 10.626 33.934 8.722 33.934H5.894ZM6.118 38.036C4.83 38.036 4.186 37.434 4.186 36.608C4.186 35.782 4.83 35.18 6.118 35.18H8.512C9.8 35.18 10.43 35.782 10.43 36.608C10.43 37.434 9.8 38.036 8.512 38.036H6.118ZM23.5514 39.156H24.9374V26.164H23.5514V39.156ZM19.5474 28.46V28.614C19.5474 31.358 17.7554 34.34 14.3954 36.496L15.2354 37.602C18.8474 35.222 20.9474 32.016 20.9474 28.334V27.186H14.6754V28.46H19.5474ZM37.0508 39.156H38.4228V26.164H37.0508V39.156ZM32.5288 29.16C32.1228 27.48 31.1708 26.78 30.0228 26.78C28.4828 26.78 27.3068 28.012 27.3068 31.134V33.108C27.3068 36.23 28.4828 37.462 30.0228 37.462C31.3108 37.462 32.3328 36.594 32.6408 34.466H34.2368V38.89H35.5668V26.36H34.2368V29.16H32.5288ZM31.4088 33.094C31.4088 35.348 30.8208 36.188 30.0228 36.188C29.2248 36.188 28.6368 35.348 28.6368 33.094V31.148C28.6368 28.88 29.2248 28.054 30.0228 28.054C30.8208 28.054 31.4088 28.88 31.4088 31.148V33.094ZM32.7248 33.234V33.108V31.134C32.7248 30.882 32.7108 30.63 32.6968 30.406H34.2368V33.234H32.7248ZM50.4382 31.302C50.6762 29.944 50.8022 28.516 50.8022 27.396V26.57H41.8562V27.844H49.4162C49.4022 28.6 49.2762 29.986 49.0382 31.302H40.3582V32.534H52.5662V31.302H50.4382ZM51.0822 39.17V34.102H41.8562V39.17H51.0822ZM49.6822 35.306V37.938H43.2562V35.306H49.6822ZM63.8692 31.498H67.6492V26.374H66.2492V27.844H60.0892V26.374H58.6892V31.498H62.4832V32.786H57.0652V33.99H69.2732V32.786H63.8692V31.498ZM66.2492 28.992V30.35H60.0892V28.992H66.2492ZM66.3892 36.482V39.296H67.7892V35.25H58.5632V36.482H66.3892ZM81.4706 39.156V26.164H80.0846V39.156H81.4706ZM73.4906 37.308C75.3526 37.308 77.3266 37.14 78.8386 36.86L78.6706 35.642C77.0746 35.894 75.2266 36.048 73.7426 36.048H72.4406V32.758H77.2846V27.116H71.0406V28.376H75.8846V31.526H71.0406V37.308H73.4906ZM93.346 33.458H94.746V26.164H93.346V33.458ZM91.246 33.08L91.988 31.974L88.236 29.454C88.46 28.838 88.572 28.18 88.572 27.466V26.584H87.186V27.466C87.186 29.356 86.122 30.84 83.742 32.24L84.47 33.36C85.898 32.534 86.948 31.638 87.62 30.644L91.246 33.08ZM93.346 35.544V39.296H94.746V34.27H86.01V35.544H93.346ZM106.971 31.302C107.209 29.944 107.335 28.516 107.335 27.396V26.57H98.3894V27.844H105.949C105.935 28.6 105.809 29.986 105.571 31.302H96.8914V32.534H109.099V31.302H106.971ZM107.615 39.17V34.102H98.3894V39.17H107.615ZM106.215 35.306V37.938H99.7894V35.306H106.215ZM7.336 53.498H11.116V48.374H9.716V49.844H3.556V48.374H2.156V53.498H5.95V54.786H0.532V55.99H12.74V54.786H7.336V53.498ZM9.716 50.992V52.35H3.556V50.992H9.716ZM9.856 58.482V61.296H11.256V57.25H2.03V58.482H9.856ZM24.9374 61.156V48.164H23.5514V61.156H24.9374ZM16.9574 59.308C18.8194 59.308 20.7934 59.14 22.3054 58.86L22.1374 57.642C20.5414 57.894 18.6934 58.048 17.2094 58.048H15.9074V54.758H20.7514V49.116H14.5074V50.376H19.3514V53.526H14.5074V59.308H16.9574ZM36.8128 55.458H38.2128V48.164H36.8128V55.458ZM34.7128 55.08L35.4548 53.974L31.7028 51.454C31.9268 50.838 32.0388 50.18 32.0388 49.466V48.584H30.6528V49.466C30.6528 51.356 29.5888 52.84 27.2088 54.24L27.9368 55.36C29.3648 54.534 30.4148 53.638 31.0868 52.644L34.7128 55.08ZM36.8128 57.544V61.296H38.2128V56.27H29.4768V57.544H36.8128ZM50.4382 53.302C50.6762 51.944 50.8022 50.516 50.8022 49.396V48.57H41.8562V49.844H49.4162C49.4022 50.6 49.2762 51.986 49.0382 53.302H40.3582V54.534H52.5662V53.302H50.4382ZM51.0822 61.17V56.102H41.8562V61.17H51.0822ZM49.6822 57.306V59.938H43.2562V57.306H49.6822Z" fill="white"/>
</svg>
