<svg width="73" height="19" viewBox="0 0 73 19" fill="none" xmlns="http://www.w3.org/2000/svg">
<path d="M2.448 10.446C5.076 9.636 6.912 8.7 8.082 7.638L14.49 10.446L15.48 8.448L9.414 5.82C9.594 5.388 9.702 4.938 9.72 4.47H14.526V2.436H9.738V0.78H7.452V2.436H2.538V4.47H7.416C7.182 5.784 5.472 7.17 1.566 8.412L2.448 10.446ZM0.612 11.634V13.722H7.38V18.024H9.684V13.722H16.452V11.634H0.612ZM27.0584 11.796L28.3004 9.978L23.7824 6.774C23.9624 6.216 24.0704 5.604 24.0884 4.974H27.7244V2.922H24.1244V0.942H21.8924V2.922H18.3824V4.974H21.8564C21.6944 6.972 20.4344 8.628 17.8064 10.23L18.9404 12.048C20.6684 11.022 21.9824 9.942 22.8284 8.7L27.0584 11.796ZM27.0224 7.764H29.9564V13.632H32.2604V1.032H29.9564V5.802H27.0224V7.764ZM23.1524 12.768H20.8484V17.844H32.8724V15.756H23.1524V12.768ZM52.8396 1.05H50.5356V10.194H52.8396V6.396H55.2696V4.326H52.8396V1.05ZM47.9796 9.888L49.2036 8.106L44.8116 5.136C45.0636 4.362 45.1896 3.534 45.1896 2.634V1.536H42.9396V2.634C42.9396 4.758 41.8596 6.648 38.8536 8.43L40.0776 10.248C41.7336 9.294 42.9756 8.232 43.8216 7.062L47.9796 9.888ZM45.4776 10.932C43.1016 10.932 41.4276 12.354 41.4276 14.478C41.4276 16.62 43.1016 18.024 45.4776 18.024H49.1676C51.5616 18.024 53.2176 16.62 53.2176 14.478C53.2176 12.354 51.5616 10.932 49.1676 10.932H45.4776ZM45.8016 15.972C44.4336 15.972 43.7316 15.36 43.7316 14.46C43.7316 13.578 44.4336 12.966 45.8016 12.966H48.8256C50.2116 12.966 50.9136 13.578 50.9136 14.46C50.9136 15.36 50.2116 15.972 48.8256 15.972H45.8016ZM67.9639 5.802V3.246H70.3759V1.356H58.0459V3.246H60.4399V5.802H58.0459V7.71H70.3759V5.802H67.9639ZM65.7319 3.246V5.802H62.6719V3.246H65.7319ZM72.1219 8.88H56.2819V10.842H63.0499V12.228H58.1359V17.844H70.2859V12.228H65.3539V10.842H72.1219V8.88ZM60.4219 15.972V14.082H67.9819V15.972H60.4219Z" fill="black"/>
</svg>
