<svg width="310" height="126" viewBox="0 0 310 126" fill="none" xmlns="http://www.w3.org/2000/svg">
<path d="M18.6 13.704C18.912 11.592 19.08 9.36 19.08 7.488V6.024H3.336V8.832H16.008C15.96 10.008 15.792 11.88 15.528 13.704H0.816V16.392H21.936V13.704H18.6ZM6.336 20.52V18.36H3.288V27.816H19.488V18.36H16.416V20.52H6.336ZM6.336 22.992H16.416V25.272H6.336V22.992ZM31.7098 6.912V5.136H28.6138V6.912H23.5738V9.288H36.7498V6.912H31.7098ZM41.7418 5.376H38.6938V17.016H41.7418V12.768H45.0058V9.984H41.7418V5.376ZM35.8138 13.536C35.8138 11.184 33.3418 10.08 30.1738 10.08C27.0298 10.08 24.5098 11.184 24.5098 13.536V13.752C24.5098 16.08 27.0298 17.184 30.1738 17.184C33.3418 17.184 35.8138 16.08 35.8138 13.752V13.536ZM27.5098 13.56C27.5098 12.864 28.6858 12.456 30.1738 12.456C31.6858 12.456 32.8378 12.864 32.8378 13.56V13.704C32.8378 14.4 31.6858 14.832 30.1738 14.832C28.6858 14.832 27.5098 14.4 27.5098 13.704V13.56ZM41.7418 24.144V18.216H26.8858V20.568H38.6938V21.816H27.0058V27.912H42.4378V25.488H30.0778V24.144H41.7418ZM69.5888 13.416V21.96H72.3968V5.376H69.5888V10.704H67.7408V5.616H65.0287V21.24H67.7408V13.416H69.5888ZM57.9488 15.48C57.2528 15.552 56.4848 15.6 55.9328 15.6H55.7408V9.144H57.9728V6.456H52.9808V18.336H54.1088C55.6688 18.336 56.8208 18.264 58.1648 18.096L57.9488 15.48ZM63.8528 15.504C63.0608 15.576 62.2928 15.6 61.7648 15.6H61.4048V9.144H63.7808V6.456H58.6688V18.336H60.1088C61.5008 18.336 62.7008 18.312 64.0208 18.12L63.8528 15.504ZM59.7008 20.544H56.6288V27.792H73.1888V25.008H59.7008V20.544ZM97.8437 13.488H95.6117V5.736H92.7317V27.264H95.6117V16.272H97.8437V27.792H100.844V5.376H97.8437V13.488ZM84.7157 5.4V8.448H80.9717V11.184H91.5317V8.448H87.8117V5.4H84.7157ZM86.2757 12.888C83.6357 12.888 81.8117 14.976 81.8117 18.216V19.536C81.8117 22.776 83.6357 24.888 86.2757 24.888C88.8917 24.888 90.7157 22.776 90.7157 19.536V18.216C90.7157 14.976 88.8917 12.888 86.2757 12.888ZM87.9077 19.32C87.9077 21.12 87.2357 22.152 86.2757 22.152C85.2917 22.152 84.6197 21.12 84.6197 19.32V18.432C84.6197 16.656 85.2917 15.624 86.2757 15.624C87.2357 15.624 87.9077 16.656 87.9077 18.432V19.32ZM120.122 27.792H123.194V5.376H120.122V27.792ZM112.562 9.84H117.41V7.032H104.786V9.84H109.562V10.44C109.562 15.24 107.69 18.912 103.898 22.752L106.058 24.792C108.122 22.704 109.706 20.568 110.786 18.288L116.042 24.576L118.298 22.56L111.986 15.024C112.37 13.56 112.562 12.048 112.562 10.44V9.84ZM150.632 13.488V5.376H147.584V27.792H150.632V16.272H153.896V13.488H150.632ZM137.504 5.4V8.448H132.464V11.184H145.64V8.448H140.6V5.4H137.504ZM139.064 12.888C135.92 12.888 133.424 14.976 133.424 18.216V19.536C133.424 22.776 135.92 24.888 139.064 24.888C142.232 24.888 144.68 22.776 144.68 19.536V18.216C144.68 14.976 142.232 12.888 139.064 12.888ZM141.632 19.416C141.632 21.144 140.504 22.152 139.064 22.152C137.624 22.152 136.496 21.144 136.496 19.416V18.336C136.496 16.608 137.624 15.624 139.064 15.624C140.504 15.624 141.632 16.608 141.632 18.336V19.416ZM171.59 27.792H174.662V5.376H171.59V27.792ZM164.03 9.84H168.878V7.032H156.254V9.84H161.03V10.44C161.03 15.24 159.158 18.912 155.366 22.752L157.526 24.792C159.59 22.704 161.174 20.568 162.254 18.288L167.51 24.576L169.766 22.56L163.454 15.024C163.838 13.56 164.03 12.048 164.03 10.44V9.84ZM202.101 5.4H199.053V16.776H202.101V12.312H205.365V9.528H202.101V5.4ZM196.101 11.064C196.101 7.488 193.461 5.76 190.053 5.76C186.621 5.76 183.981 7.488 183.981 11.064V11.376C183.981 14.904 186.621 16.632 190.053 16.632C193.461 16.632 196.101 14.904 196.101 11.376V11.064ZM187.053 11.064C187.053 9.288 188.349 8.424 190.053 8.424C191.733 8.424 193.029 9.288 193.029 11.064V11.328C193.029 13.104 191.733 13.944 190.053 13.944C188.349 13.944 187.053 13.104 187.053 11.328V11.064ZM196.749 17.52V19.104H193.293V21.552H203.301V19.104H199.821V17.52H196.749ZM189.069 25.08V18.696H186.093V27.792H187.773C189.597 27.792 191.901 27.696 193.365 27.504L193.125 24.816C192.069 24.96 190.293 25.08 189.381 25.08H189.069ZM197.157 22.296C195.069 22.296 193.749 23.496 193.749 25.248C193.749 26.928 195.069 28.152 197.157 28.152H199.413C201.549 28.152 202.821 26.928 202.821 25.248C202.821 23.496 201.549 22.296 199.413 22.296H197.157ZM197.565 25.824C196.821 25.824 196.509 25.56 196.509 25.2C196.509 24.792 196.821 24.552 197.565 24.552H199.005C199.773 24.552 200.061 24.792 200.061 25.2C200.061 25.56 199.773 25.824 199.005 25.824H197.565ZM224.859 13.488V5.376H221.811V27.792H224.859V16.272H228.123V13.488H224.859ZM212.763 6.336C209.427 6.336 206.739 8.448 206.739 13.92V17.352C206.739 22.824 209.427 24.936 212.763 24.936C216.051 24.936 218.739 22.824 218.739 17.352V13.92C218.739 8.448 216.051 6.336 212.763 6.336ZM215.667 17.352C215.667 20.952 214.323 22.152 212.763 22.152C211.131 22.152 209.811 20.952 209.811 17.352V13.92C209.811 10.32 211.131 9.12 212.763 9.12C214.323 9.12 215.667 10.32 215.667 13.92V17.352ZM241.545 18.792H248.121V16.056H234.969V9.528H247.905V6.768H231.921V18.792H238.473V23.424H229.449V26.232H250.569V23.424H241.545V18.792ZM20.256 50.296V39.376H17.184V50.296H20.256ZM7.752 49.936C11.208 49.936 13.896 48.28 13.896 44.944V44.632C13.896 41.272 11.208 39.64 7.752 39.64C4.248 39.64 1.56 41.272 1.56 44.632V44.944C1.56 48.28 4.248 49.936 7.752 49.936ZM7.752 47.248C5.976 47.248 4.632 46.504 4.632 44.896V44.656C4.632 43.072 5.976 42.304 7.752 42.304C9.504 42.304 10.848 43.072 10.848 44.656V44.896C10.848 46.504 9.504 47.248 7.752 47.248ZM20.976 61.912V59.344H8.112V57.856H20.256V51.52H4.944V54.016H17.184V55.384H5.04V61.912H20.976ZM39.1738 40.216V42.976H29.0938V40.216H26.0458V50.728H42.2458V40.216H39.1738ZM29.0938 45.64H39.1738V48.088H29.0938V45.64ZM23.5738 53.296V56.08H32.5978V62.056H35.6698V56.08H44.6938V53.296H23.5738ZM54.5168 48.544C58.2128 48.064 60.7088 47.392 62.2688 46.384L71.0288 48.544L71.8688 46.096L64.0448 44.248C64.1888 43.888 64.2608 43.504 64.3088 43.072H70.7408V40.576H64.4048V38.92H61.4528V40.576H54.9728V43.072H61.4528C60.9968 44.392 58.8128 45.424 53.8208 46.072L54.5168 48.544ZM73.4048 49.144H52.2848V51.496H61.3088V52.912H54.6367V55.168H67.8848V56.224H54.7568V61.912H71.5568V59.584H57.8047V58.48H70.9568V52.912H64.3808V51.496H73.4048V49.144ZM92.8026 47.92C93.1386 45.736 93.3066 43.408 93.3066 41.512V40.024H77.5626V42.832H90.2346C90.1866 44.056 90.0186 46.024 89.7066 47.92H75.0426V50.632H96.1626V47.92H92.8026ZM93.7146 61.816V52.912H77.5146V61.816H93.7146ZM90.6426 55.552V59.128H80.5626V55.552H90.6426ZM121.946 47.488V39.376H118.874V61.792H121.946V50.272H125.186V47.488H121.946ZM112.274 43.84C112.274 48.088 109.658 53.08 103.898 56.848L105.794 59.248C111.938 55.096 115.37 49.624 115.37 43.24V41.032H104.546V43.84H112.274ZM132.271 44.992V39.808H129.199V47.776H145.015V44.992H132.271ZM147.631 52V49.384H126.511V52H147.631ZM139.735 62.032C143.335 62.032 145.423 60.28 145.423 57.88C145.423 55.504 143.335 53.728 139.735 53.728H134.407C130.831 53.728 128.743 55.504 128.743 57.88C128.743 60.28 130.831 62.032 134.407 62.032H139.735ZM134.983 59.392C132.751 59.392 131.791 58.792 131.791 57.856C131.791 56.92 132.751 56.368 134.983 56.368H139.183C141.415 56.368 142.351 56.92 142.351 57.856C142.351 58.792 141.415 59.392 139.183 59.392H134.983ZM166.117 47.488H163.885V39.736H161.005V61.264H163.885V50.272H166.117V61.792H169.117V39.376H166.117V47.488ZM152.989 39.4V42.448H149.245V45.184H159.805V42.448H156.085V39.4H152.989ZM154.549 46.888C151.909 46.888 150.085 48.976 150.085 52.216V53.536C150.085 56.776 151.909 58.888 154.549 58.888C157.165 58.888 158.989 56.776 158.989 53.536V52.216C158.989 48.976 157.165 46.888 154.549 46.888ZM156.181 53.32C156.181 55.12 155.509 56.152 154.549 56.152C153.565 56.152 152.893 55.12 152.893 53.32V52.432C152.893 50.656 153.565 49.624 154.549 49.624C155.509 49.624 156.181 50.656 156.181 52.432V53.32ZM184.507 52.672C188.467 52.672 191.131 50.032 191.131 46.528C191.131 43.072 188.467 40.408 184.507 40.408H180.691C176.707 40.408 174.091 43.072 174.091 46.528C174.091 50.032 176.707 52.672 180.691 52.672H184.507ZM183.931 43.168C186.451 43.168 188.059 44.512 188.059 46.552C188.059 48.616 186.451 49.984 183.931 49.984H181.267C178.723 49.984 177.139 48.616 177.139 46.552C177.139 44.512 178.723 43.168 181.267 43.168H183.931ZM188.059 53.92H185.083V57.424H180.115V53.92H177.139V57.424H172.027V60.232H193.147V57.424H188.059V53.92Z" fill="black"/>
<path d="M10.682 88.232H8.68V83.388H7.714V95.862H8.68V89.156H10.682V96.1H11.676V83.178H10.682V88.232ZM3.164 83.192V85.222H0.63V86.146H6.678V85.222H4.158V83.192H3.164ZM3.682 87.476C2.212 87.476 1.204 88.624 1.204 90.5V91.242C1.204 93.104 2.212 94.28 3.682 94.28C5.124 94.28 6.132 93.104 6.132 91.242V90.5C6.132 88.624 5.124 87.476 3.682 87.476ZM5.18 91.186C5.18 92.53 4.55 93.37 3.682 93.37C2.772 93.37 2.156 92.53 2.156 91.186V90.556C2.156 89.212 2.772 88.4 3.682 88.4C4.55 88.4 5.18 89.212 5.18 90.556V91.186ZM23.7754 96.1H24.7694V83.178H23.7754V96.1ZM18.5674 85.194H21.6054V84.284H14.5634V85.194H17.5734V85.922C17.5734 89.114 16.2574 91.326 14.0454 93.622L14.7734 94.308C16.1314 92.88 17.1534 91.48 17.7834 89.94L21.3954 94.168L22.1234 93.496L18.1614 88.876C18.4274 87.952 18.5674 86.972 18.5674 85.922V85.194ZM40.4831 86.986V89.912H41.4771V83.192H40.4831V86.09H37.8231C37.6691 84.382 36.2271 83.542 34.4911 83.542C32.6151 83.542 31.1171 84.494 31.1171 86.412V86.664C31.1171 88.568 32.6151 89.534 34.4911 89.534C36.2271 89.534 37.6551 88.68 37.8231 86.986H40.4831ZM32.1251 86.426C32.1251 85.138 33.1051 84.438 34.4911 84.438C35.8491 84.438 36.8431 85.138 36.8431 86.426V86.65C36.8431 87.938 35.8491 88.624 34.4911 88.624C33.1051 88.624 32.1251 87.938 32.1251 86.65V86.426ZM33.4691 92.67V90.836H32.5591V96.1H37.1371V90.836H36.2271V92.67H33.4691ZM40.3011 93.258C40.4691 92.74 40.5251 92.236 40.5251 91.746V90.836H39.5591V91.746C39.5591 92.88 39.1671 94.056 37.3051 95.568L37.8791 96.296C38.8451 95.554 39.4891 94.84 39.8811 94.154L42.1071 96.296L42.7511 95.624L40.3011 93.258ZM33.4691 93.524H36.2271V95.246H33.4691V93.524ZM54.7385 96.1V83.178H53.7305V96.1H54.7385ZM47.6965 94.378C49.5165 94.378 51.0145 93.16 51.0145 90.094V88.162C51.0145 85.096 49.5165 83.878 47.6965 83.878C45.8765 83.878 44.3785 85.096 44.3785 88.162V90.094C44.3785 93.16 45.8765 94.378 47.6965 94.378ZM47.6965 93.454C46.3665 93.454 45.3865 92.488 45.3865 90.08V88.162C45.3865 85.754 46.3665 84.802 47.6965 84.802C49.0265 84.802 50.0205 85.754 50.0205 88.162V90.08C50.0205 92.488 49.0265 93.454 47.6965 93.454ZM70.4242 83.178V89.646H71.4182V83.178H70.4242ZM69.1502 87.966C68.4642 88.064 67.7502 88.148 67.0362 88.218V84.69H68.6042V83.808H60.9602V84.69H62.5142V88.428H60.7922L60.8342 89.31H62.8922C64.8522 89.31 67.2602 89.142 69.2622 88.82L69.1502 87.966ZM66.0562 88.302C65.1462 88.358 64.2642 88.414 63.5082 88.428V84.69H66.0562V88.302ZM64.1102 93.762H71.4182V90.556H63.0462V91.424H70.4242V92.894H63.1162V96.17H71.9642V95.288H64.1102V93.762ZM80.7595 90.682C83.0975 90.682 84.5675 89.226 84.5675 87.294C84.5675 85.376 83.0975 83.92 80.7595 83.92H78.8975C76.5455 83.92 75.1035 85.376 75.1035 87.294C75.1035 89.226 76.5455 90.682 78.8975 90.682H80.7595ZM80.5915 84.83C82.4815 84.83 83.5595 85.894 83.5595 87.294C83.5595 88.722 82.4815 89.786 80.5915 89.786H79.0655C77.1615 89.786 76.0975 88.722 76.0975 87.294C76.0975 85.894 77.1615 84.83 79.0655 84.83H80.5915ZM82.6215 91.466H81.6275V94.14H78.0295V91.466H77.0355V94.14H73.7735V95.05H85.8695V94.14H82.6215V91.466ZM91.3609 84.634V83.01H90.3669V84.634H87.1189V85.502H94.6089V84.634H91.3609ZM97.2409 83.178H96.2469V93.118H97.2409V88.078H99.3969V87.14H97.2409V83.178ZM94.0069 88.792C94.0069 87.252 92.6349 86.398 90.8849 86.398C89.1349 86.398 87.7489 87.252 87.7489 88.792V89.03C87.7489 90.57 89.1349 91.452 90.8849 91.452C92.6349 91.452 94.0069 90.57 94.0069 89.03V88.792ZM88.7429 88.82C88.7429 87.868 89.6809 87.266 90.8849 87.266C92.0749 87.266 93.0269 87.868 93.0269 88.82V89.016C93.0269 89.968 92.0749 90.57 90.8849 90.57C89.6809 90.57 88.7429 89.968 88.7429 89.016V88.82ZM89.2049 92.614V96.086H97.9829V95.176H90.2129V92.614H89.2049ZM113.543 88.47C113.809 87.014 113.963 85.53 113.963 84.41V83.64H105.255V84.55H112.969V84.62C112.969 85.432 112.815 86.986 112.535 88.47H103.729V89.38H115.825V88.47H113.543ZM114.271 96.1V91.158H105.297V96.1H114.271ZM113.263 92.054V95.204H106.291V92.054H113.263ZM127.126 86.216H125.166V83.318H124.214V90.458H125.166V87.126H127.126V90.458H128.092V83.192H127.126V86.216ZM122.66 86.566C122.66 84.55 121.498 83.542 119.972 83.542C118.418 83.542 117.256 84.55 117.256 86.566V86.846C117.256 88.862 118.418 89.87 119.972 89.87C121.498 89.87 122.66 88.862 122.66 86.846V86.566ZM118.208 86.594C118.208 85.194 118.936 84.438 119.972 84.438C120.98 84.438 121.708 85.194 121.708 86.594V86.818C121.708 88.218 120.98 88.974 119.972 88.974C118.936 88.974 118.208 88.218 118.208 86.818V86.594ZM127.084 92.278V96.226H128.092V91.368H119.608V92.278H127.084ZM140.485 83.178H139.477V92.992H140.485V87.532H142.627V86.608H140.485V83.178ZM130.587 83.948V90.332H136.635V83.948H130.587ZM131.567 89.436V84.844H135.655V89.436H131.567ZM132.435 92.166V96.1H141.213V95.176H133.443V92.166H132.435ZM148.247 88.498C150.431 88.022 151.887 87.462 152.713 86.72L157.683 88.498L158.019 87.658L153.287 86.006C153.441 85.712 153.525 85.39 153.539 85.054H157.375V84.186H153.553V82.912H152.573V84.186H148.653V85.054H152.601C152.503 86.146 150.935 87.028 147.981 87.644L148.247 88.498ZM159.055 89.114H146.959V89.94H152.517V91.158H148.457V91.97H156.493V93.23H148.527V96.156H157.851V95.33H149.521V94.042H157.501V91.158H153.511V89.94H159.055V89.114ZM170.048 88.47C170.314 87.014 170.468 85.53 170.468 84.41V83.64H161.76V84.55H169.474V84.62C169.474 85.432 169.32 86.986 169.04 88.47H160.234V89.38H172.33V88.47H170.048ZM170.776 96.1V91.158H161.802V96.1H170.776ZM169.768 92.054V95.204H162.796V92.054H169.768ZM184.43 96.1V83.178H183.422V96.1H184.43ZM177.388 94.378C179.208 94.378 180.706 93.16 180.706 90.094V88.162C180.706 85.096 179.208 83.878 177.388 83.878C175.568 83.878 174.07 85.096 174.07 88.162V90.094C174.07 93.16 175.568 94.378 177.388 94.378ZM177.388 93.454C176.058 93.454 175.078 92.488 175.078 90.08V88.162C175.078 85.754 176.058 84.802 177.388 84.802C178.718 84.802 179.712 85.754 179.712 88.162V90.08C179.712 92.488 178.718 93.454 177.388 93.454ZM200.396 88.232V83.178H199.388V96.1H200.396V89.156H202.538V88.232H200.396ZM195.65 85.194V85.474C195.65 88.498 193.676 91.536 190.484 93.678L191.086 94.462C194.516 92.11 196.644 88.932 196.644 85.278V84.284H190.694V85.194H195.65ZM206.153 87.028V83.5H205.159V87.952H213.979V87.028H206.153ZM215.561 90.192V89.296H203.465V90.192H215.561ZM210.927 96.24C213.041 96.24 214.147 95.274 214.147 93.93C214.147 92.614 213.041 91.634 210.927 91.634H208.099C205.999 91.634 204.893 92.614 204.893 93.93C204.893 95.274 205.999 96.24 208.099 96.24H210.927ZM208.323 95.358C206.671 95.358 205.887 94.784 205.887 93.93C205.887 93.076 206.671 92.53 208.323 92.53H210.703C212.355 92.53 213.139 93.076 213.139 93.93C213.139 94.784 212.355 95.358 210.703 95.358H208.323ZM226.834 88.232H224.832V83.388H223.866V95.862H224.832V89.156H226.834V96.1H227.828V83.178H226.834V88.232ZM219.316 83.192V85.222H216.782V86.146H222.83V85.222H220.31V83.192H219.316ZM219.834 87.476C218.364 87.476 217.356 88.624 217.356 90.5V91.242C217.356 93.104 218.364 94.28 219.834 94.28C221.276 94.28 222.284 93.104 222.284 91.242V90.5C222.284 88.624 221.276 87.476 219.834 87.476ZM221.332 91.186C221.332 92.53 220.702 93.37 219.834 93.37C218.924 93.37 218.308 92.53 218.308 91.186V90.556C218.308 89.212 218.924 88.4 219.834 88.4C220.702 88.4 221.332 89.212 221.332 90.556V91.186ZM237.002 90.682C239.34 90.682 240.81 89.226 240.81 87.294C240.81 85.376 239.34 83.92 237.002 83.92H235.14C232.788 83.92 231.346 85.376 231.346 87.294C231.346 89.226 232.788 90.682 235.14 90.682H237.002ZM236.834 84.83C238.724 84.83 239.802 85.894 239.802 87.294C239.802 88.722 238.724 89.786 236.834 89.786H235.308C233.404 89.786 232.34 88.722 232.34 87.294C232.34 85.894 233.404 84.83 235.308 84.83H236.834ZM238.864 91.466H237.87V94.14H234.272V91.466H233.278V94.14H230.016V95.05H242.112V94.14H238.864V91.466ZM10.696 120.1H11.676V107.178H10.696V120.1ZM5.978 110.356C5.614 108.606 4.662 107.878 3.5 107.878C1.988 107.878 0.84 109.096 0.84 112.162V114.094C0.84 117.16 1.988 118.378 3.5 118.378C4.774 118.378 5.81 117.482 6.076 115.312H7.91V119.862H8.876V107.388H7.91V110.356H5.978ZM5.18 114.08C5.18 116.488 4.48 117.454 3.486 117.454C2.506 117.454 1.806 116.488 1.806 114.08V112.162C1.806 109.754 2.506 108.802 3.486 108.802C4.48 108.802 5.18 109.754 5.18 112.162V114.08ZM6.146 114.402V114.094V112.162C6.146 111.84 6.132 111.532 6.104 111.252H7.91V114.402H6.146ZM23.7754 120.1H24.7694V107.178H23.7754V120.1ZM18.5674 110.3H21.6754V109.39H18.5674V107.192H17.5874V109.39H14.4934V110.3H17.5734V110.496C17.5734 113.296 16.2294 115.424 14.0454 117.622L14.7454 118.322C16.1454 116.936 17.1814 115.55 17.8254 114.08L21.4094 118.168L22.1234 117.496L18.2174 113.016C18.4414 112.204 18.5674 111.378 18.5674 110.496V110.3ZM37.0648 120.1H38.0588V107.178H37.0648V120.1ZM33.1168 109.194V109.474C33.1168 112.498 31.1008 115.55 27.8248 117.678L28.4128 118.462C31.9408 116.124 34.1248 112.932 34.1248 109.278V108.284H28.0208V109.194H33.1168ZM50.6202 107.178H49.6122V116.992H50.6202V111.532H52.7622V110.608H50.6202V107.178ZM46.8682 108.018H40.9182V108.928H45.8742C45.8742 110.986 43.8722 112.946 40.6942 114.206L41.1282 115.06C44.6702 113.646 46.8682 111.532 46.8682 108.704V108.018ZM42.5702 115.97V120.1H51.3482V119.176H43.5782V115.97H42.5702ZM67.2999 107.178H66.2919V116.992H67.2999V111.532H69.4419V110.608H67.2999V107.178ZM57.4019 107.948V114.332H63.4499V107.948H57.4019ZM58.3819 113.436V108.844H62.4699V113.436H58.3819ZM59.2499 116.166V120.1H68.0279V119.176H60.2579V116.166H59.2499ZM80.2953 120.1H81.2893V107.178H80.2953V120.1ZM76.3473 109.194V109.474C76.3473 112.498 74.3313 115.55 71.0553 117.678L71.6433 118.462C75.1713 116.124 77.3553 112.932 77.3553 109.278V108.284H71.2513V109.194H76.3473ZM92.7329 113.632C91.8369 113.758 90.7029 113.828 89.9609 113.828H89.4149V109.04H92.6209V108.13H88.4209V114.738H89.6809C90.7309 114.738 91.8649 114.668 92.8309 114.528L92.7329 113.632ZM94.3849 113.856V109.04H97.7169V108.13H93.3909V114.752H97.7869V113.856H94.3849ZM93.6009 115.2H92.6069V118.14H87.0489V119.064H99.1449V118.14H93.6009V115.2ZM103.012 111.63V107.5H102.018V112.554H110.838V111.63H103.012ZM112.42 115.13V114.206H100.324V115.13H112.42ZM111.076 120.1V119.176H103.012V116.348H102.018V120.1H111.076ZM118.376 112.456C120.448 111.91 121.876 111.238 122.716 110.426L127.63 112.456L127.994 111.616L123.304 109.684C123.514 109.278 123.626 108.858 123.626 108.396V108.382H127.35V107.5H118.768V108.382H122.646V108.41C122.646 109.698 121.106 110.804 118.096 111.602L118.376 112.456ZM129.1 113.226H117.004V114.122H122.562V115.634H121.638C119.538 115.634 118.432 116.614 118.432 117.93C118.432 119.274 119.538 120.24 121.638 120.24H124.466C126.58 120.24 127.686 119.274 127.686 117.93C127.686 116.614 126.58 115.634 124.466 115.634H123.556V114.122H129.1V113.226ZM126.678 117.93C126.678 118.784 125.894 119.358 124.242 119.358H121.862C120.21 119.358 119.426 118.784 119.426 117.93C119.426 117.076 120.21 116.53 121.862 116.53H124.242C125.894 116.53 126.678 117.076 126.678 117.93ZM136.831 114.752H140.821V113.856H132.841V109.04H140.695V108.13H131.847V114.752H135.837V118.14H130.279V119.064H142.375V118.14H136.831V114.752ZM153.649 112.232H151.647V107.388H150.681V119.862H151.647V113.156H153.649V120.1H154.643V107.178H153.649V112.232ZM146.131 107.192V109.222H143.597V110.146H149.645V109.222H147.125V107.192H146.131ZM146.649 111.476C145.179 111.476 144.171 112.624 144.171 114.5V115.242C144.171 117.104 145.179 118.28 146.649 118.28C148.091 118.28 149.099 117.104 149.099 115.242V114.5C149.099 112.624 148.091 111.476 146.649 111.476ZM148.147 115.186C148.147 116.53 147.517 117.37 146.649 117.37C145.739 117.37 145.123 116.53 145.123 115.186V114.556C145.123 113.212 145.739 112.4 146.649 112.4C147.517 112.4 148.147 113.212 148.147 114.556V115.186ZM166.742 120.1H167.736V107.178H166.742V120.1ZM161.534 109.194H164.572V108.284H157.53V109.194H160.54V109.922C160.54 113.114 159.224 115.326 157.012 117.622L157.74 118.308C159.098 116.88 160.12 115.48 160.75 113.94L164.362 118.168L165.09 117.496L161.128 112.876C161.394 111.952 161.534 110.972 161.534 109.922V109.194ZM180.062 115.032H184.262V114.122H182.162V109.04H184.262V108.13H174.868V109.04H176.968V114.122H174.868V115.032H179.068V118.14H173.51V119.064H185.606V118.14H180.062V115.032ZM181.182 109.04V114.122H177.948V109.04H181.182ZM191.111 108.48V107.01H190.103V108.48H186.855V109.334H194.359V108.48H191.111ZM196.977 110.468V107.178H195.983V114.598H196.977V111.392H199.133V110.468H196.977ZM193.743 112.204C193.743 110.846 192.371 110.104 190.621 110.104C188.871 110.104 187.485 110.846 187.485 112.204V112.4C187.485 113.772 188.871 114.5 190.621 114.5C192.371 114.5 193.743 113.772 193.743 112.4V112.204ZM188.479 112.246C188.479 111.462 189.417 110.958 190.621 110.958C191.825 110.958 192.763 111.462 192.763 112.246V112.386C192.763 113.17 191.825 113.66 190.621 113.66C189.417 113.66 188.479 113.17 188.479 112.386V112.246ZM196.977 120.086V115.508H188.941V120.086H196.977ZM195.983 116.39V119.204H189.949V116.39H195.983ZM203.661 116.824C204.151 118.266 205.425 119.568 207.665 119.568C209.975 119.568 211.529 118.266 211.529 116.404C211.529 114.962 210.619 113.912 209.317 113.534C210.437 113.184 211.263 112.232 211.263 110.846C211.263 109.04 209.751 107.892 207.651 107.892C205.621 107.892 204.473 109.166 203.997 110.468L204.907 110.804C205.327 109.782 206.083 108.816 207.651 108.816C209.219 108.816 210.255 109.586 210.255 110.888C210.255 112.176 209.289 113.1 207.455 113.1H206.083V113.996H207.455C209.499 113.996 210.535 115.046 210.535 116.376C210.535 117.72 209.443 118.644 207.665 118.644C205.887 118.644 205.005 117.65 204.585 116.516L203.661 116.824ZM223.029 120.1H224.023V107.178H223.029V120.1ZM217.919 108.83V107.192H216.911V108.83H213.635V109.684H221.209V108.83H217.919ZM217.933 115.634C219.445 115.494 220.579 114.654 220.579 113.254V113.016C220.579 111.462 219.193 110.608 217.443 110.608C215.651 110.608 214.265 111.462 214.265 113.016V113.254C214.265 114.64 215.385 115.48 216.925 115.634V117.426C216.435 117.44 215.973 117.454 215.581 117.454H213.229L213.285 118.378H215.525C217.429 118.378 219.963 118.21 221.909 117.93L221.797 117.048C220.593 117.202 219.207 117.314 217.933 117.384V115.634ZM215.245 113.044C215.245 112.064 216.197 111.448 217.443 111.448C218.647 111.448 219.599 112.064 219.599 113.044V113.24C219.599 114.22 218.647 114.822 217.443 114.822C216.197 114.822 215.245 114.22 215.245 113.24V113.044ZM237.313 120.1V107.178H236.305V120.1H237.313ZM230.271 118.378C232.091 118.378 233.589 117.16 233.589 114.094V112.162C233.589 109.096 232.091 107.878 230.271 107.878C228.451 107.878 226.953 109.096 226.953 112.162V114.094C226.953 117.16 228.451 118.378 230.271 118.378ZM230.271 117.454C228.941 117.454 227.961 116.488 227.961 114.08V112.162C227.961 109.754 228.941 108.802 230.271 108.802C231.601 108.802 232.595 109.754 232.595 112.162V114.08C232.595 116.488 231.601 117.454 230.271 117.454ZM249.776 112.232H247.774V107.388H246.808V119.862H247.774V113.156H249.776V120.1H250.756V107.178H249.776V112.232ZM241.208 117.034V108.214H240.2V117.944H241.796C243.238 117.944 244.54 117.846 245.842 117.636L245.73 116.74C244.358 116.936 243.084 117.034 241.936 117.034H241.208ZM254.007 119.568C254.441 119.568 254.791 119.218 254.791 118.784C254.791 118.35 254.441 118.014 254.007 118.014C253.573 118.014 253.237 118.35 253.237 118.784C253.237 119.218 253.573 119.568 254.007 119.568Z" fill="#333333"/>
</svg>
