<svg width="300" height="130" viewBox="0 0 300 130" fill="none" xmlns="http://www.w3.org/2000/svg">
<path d="M17.688 13.488H15.456V5.736H12.552V27.264H15.456V16.272H17.688V27.792H20.664V5.376H17.688V13.488ZM10.512 24.24V6.912H1.368V24.24H10.512ZM7.704 9.72V21.432H4.2V9.72H7.704ZM34.2538 17.568H39.9418V18.072H43.0138V5.376H39.9418V15.552H34.2538V17.568ZM30.9178 12.264C34.4698 12.264 37.0858 11.088 37.0858 8.976V8.808C37.0858 6.696 34.4698 5.52 30.9178 5.52C27.3418 5.52 24.7258 6.696 24.7258 8.808V8.976C24.7258 11.088 27.3418 12.264 30.9178 12.264ZM27.6058 8.856C27.6058 8.184 28.9498 7.776 30.9178 7.776C32.8618 7.776 34.2058 8.184 34.2058 8.856V8.928C34.2058 9.624 32.8618 9.984 30.9178 9.984C28.9498 9.984 27.6058 9.624 27.6058 8.928V8.856ZM29.1418 15.336C29.0938 16.224 29.0218 17.136 28.9258 18.024L31.8778 18.216C31.9978 17.232 32.0458 16.176 32.1178 15.216C34.3258 15.096 36.6538 14.904 38.6698 14.64L38.4058 12.528C34.8298 12.936 30.5578 13.152 27.8458 13.152H23.7898L23.9098 15.36H27.5578C28.0618 15.36 28.5898 15.36 29.1418 15.336ZM30.5338 24.48H43.0138V18.936H27.4378V21.216H40.0378V22.224H27.5578V27.912H43.7338V25.536H30.5338V24.48ZM64.3808 14.664H70.7408V5.688H67.6448V7.872H58.0448V5.688H54.9728V14.664H61.3088V16.512H52.2848V19.128H73.4048V16.512H64.3808V14.664ZM67.6448 10.344V12.192H58.0448V10.344H67.6448ZM67.8848 23.592V28.032H70.9568V20.904H54.7568V23.592H67.8848ZM94.4826 27.792V5.376H91.4106V27.792H94.4826ZM80.7786 24.696C83.8986 24.696 87.0186 24.432 89.6106 23.928L89.2266 21.288C86.5386 21.72 83.7306 21.936 81.3306 21.936H79.1946V17.016H87.2346V6.912H76.1466V9.672H84.1626V14.328H76.1466V24.696H80.7786ZM109.896 19.848H116.952V17.16H103.32V14.64H116.472V6.768H100.152V9.528H113.4V11.952H100.272V19.848H106.824V23.424H97.8004V26.232H118.92V23.424H109.896V19.848Z" fill="black"/>
<path d="M18.984 39.4H15.912V51.592H18.984V46.528H22.224V43.768H18.984V39.4ZM12.504 51.184L14.136 48.808L8.28 44.848C8.616 43.816 8.784 42.712 8.784 41.512V40.048H5.784V41.512C5.784 44.344 4.344 46.864 0.336 49.24L1.968 51.664C4.176 50.392 5.832 48.976 6.96 47.416L12.504 51.184ZM9.168 52.576C6 52.576 3.768 54.472 3.768 57.304C3.768 60.16 6 62.032 9.168 62.032H14.088C17.28 62.032 19.488 60.16 19.488 57.304C19.488 54.472 17.28 52.576 14.088 52.576H9.168ZM9.6 59.296C7.776 59.296 6.84 58.48 6.84 57.28C6.84 56.104 7.776 55.288 9.6 55.288H13.632C15.48 55.288 16.416 56.104 16.416 57.28C16.416 58.48 15.48 59.296 13.632 59.296H9.6ZM41.9818 48.304L43.0858 45.712L35.2858 42.856C35.5978 42.112 35.7418 41.32 35.7418 40.48V39.568H32.7658V40.48C32.7658 42.472 30.7018 44.248 25.1818 45.64L26.0938 48.304C29.4538 47.488 31.8298 46.48 33.3898 45.232L41.9818 48.304ZM23.5738 51.88H44.6938V49.264H23.5738V51.88ZM31.4698 53.728C27.8938 53.728 25.8058 55.504 25.8058 57.88C25.8058 60.28 27.8938 62.032 31.4698 62.032H36.7978C40.3978 62.032 42.4858 60.28 42.4858 57.88C42.4858 55.504 40.3978 53.728 36.7978 53.728H31.4698ZM32.0458 59.368C29.8138 59.368 28.8538 58.792 28.8538 57.856C28.8538 56.92 29.8138 56.368 32.0458 56.368H36.2458C38.4778 56.368 39.4138 56.92 39.4138 57.856C39.4138 58.792 38.4778 59.368 36.2458 59.368H32.0458ZM64.4996 47.488V39.376H61.4516V61.792H64.4996V50.272H67.7636V47.488H64.4996ZM51.3716 39.4V42.448H46.3316V45.184H59.5076V42.448H54.4676V39.4H51.3716ZM52.9316 46.888C49.7876 46.888 47.2916 48.976 47.2916 52.216V53.536C47.2916 56.776 49.7876 58.888 52.9316 58.888C56.0996 58.888 58.5476 56.776 58.5476 53.536V52.216C58.5476 48.976 56.0996 46.888 52.9316 46.888ZM55.4996 53.416C55.4996 55.144 54.3716 56.152 52.9316 56.152C51.4916 56.152 50.3636 55.144 50.3636 53.416V52.336C50.3636 50.608 51.4916 49.624 52.9316 49.624C54.3716 49.624 55.4996 50.608 55.4996 52.336V53.416ZM74.8494 46.048V39.832H71.7774V48.832H87.5934V46.048H74.8494ZM90.2094 53.632V50.848H69.0894V53.632H90.2094ZM88.1214 61.792V58.936H74.8494V55.312H71.7774V61.792H88.1214ZM117.24 61.792V39.376H114.168V61.792H117.24ZM104.664 58.936C108 58.936 110.76 56.824 110.76 51.352V47.92C110.76 42.448 108 40.336 104.664 40.336C101.304 40.336 98.5444 42.448 98.5444 47.92V51.352C98.5444 56.824 101.304 58.936 104.664 58.936ZM104.664 56.152C103.008 56.152 101.616 54.952 101.616 51.352V47.92C101.616 44.32 103.008 43.12 104.664 43.12C106.32 43.12 107.688 44.32 107.688 47.92V51.352C107.688 54.952 106.32 56.152 104.664 56.152ZM133.134 46.768C136.758 46.768 139.35 45.712 139.35 43.096C139.35 40.504 136.758 39.448 133.134 39.448H129.102C125.478 39.448 122.91 40.504 122.91 43.096C122.91 45.712 125.478 46.768 129.102 46.768H133.134ZM132.534 41.848C134.934 41.848 136.278 42.208 136.278 43.12C136.278 44.008 134.934 44.416 132.534 44.416H129.726C127.302 44.416 125.958 44.032 125.958 43.12C125.958 42.208 127.302 41.848 129.726 41.848H132.534ZM141.678 48.064H120.558V50.488H125.742V52.096H122.91V54.496H136.158V55.768H123.03V61.912H139.83V59.464H126.078V58.12H139.23V52.096H136.542V50.488H141.678V48.064ZM128.718 52.096V50.488H133.566V52.096H128.718Z" fill="#050505"/>
<path d="M13.152 98.4V83.632H12V98.4H13.152ZM5.104 96.432C7.184 96.432 8.896 95.04 8.896 91.536V89.328C8.896 85.824 7.184 84.432 5.104 84.432C3.024 84.432 1.312 85.824 1.312 89.328V91.536C1.312 95.04 3.024 96.432 5.104 96.432ZM5.104 95.376C3.584 95.376 2.464 94.272 2.464 91.52V89.328C2.464 86.576 3.584 85.488 5.104 85.488C6.624 85.488 7.76 86.576 7.76 89.328V91.52C7.76 94.272 6.624 95.376 5.104 95.376ZM27.4919 89.408V83.632H26.3559V98.4H27.4919V90.464H29.9399V89.408H27.4919ZM20.6119 85.936H23.9559V84.896H16.1799V85.936H19.4919V86.784C19.4919 90.432 18.0359 92.96 15.6039 95.584L16.4359 96.352C17.9399 94.736 19.0439 93.136 19.7479 91.408L23.6679 96.192L24.5479 95.424L20.1799 90.128C20.4679 89.072 20.6119 87.968 20.6119 86.784V85.936ZM42.5678 98.4H43.6878V83.632H42.5678V98.4ZM37.3838 89.568V89.328C37.3838 85.824 36.0558 84.432 34.3598 84.432C32.6158 84.432 31.3038 85.824 31.3038 89.328V91.536C31.3038 95.04 32.6158 96.432 34.3598 96.432C36.0558 96.432 37.3838 95.04 37.3838 91.536V90.608H39.3837V98.128H40.4878V83.872H39.3837V89.568H37.3838ZM36.2798 91.52C36.2798 94.272 35.4638 95.376 34.3438 95.376C33.2238 95.376 32.4078 94.272 32.4078 91.52V89.328C32.4078 86.576 33.2238 85.488 34.3438 85.488C35.4638 85.488 36.2798 86.576 36.2798 89.328V91.52ZM62.5583 98.4V83.632H61.4063V98.4H62.5583ZM54.5103 96.432C56.5903 96.432 58.3023 95.04 58.3023 91.536V89.328C58.3023 85.824 56.5903 84.432 54.5103 84.432C52.4303 84.432 50.7183 85.824 50.7183 89.328V91.536C50.7183 95.04 52.4303 96.432 54.5103 96.432ZM54.5103 95.376C52.9903 95.376 51.8703 94.272 51.8703 91.52V89.328C51.8703 86.576 52.9903 85.488 54.5103 85.488C56.0303 85.488 57.1663 86.576 57.1663 89.328V91.52C57.1663 94.272 56.0303 95.376 54.5103 95.376ZM76.8981 89.408V83.632H75.7621V98.4H76.8981V90.464H79.3461V89.408H76.8981ZM70.0181 85.936H73.3621V84.896H65.5861V85.936H68.8981V86.784C68.8981 90.432 67.4421 92.96 65.0101 95.584L65.8421 96.352C67.3461 94.736 68.4501 93.136 69.1541 91.408L73.0741 96.192L73.9541 95.424L69.5861 90.128C69.8741 89.072 70.0181 87.968 70.0181 86.784V85.936ZM92.086 89.408V83.632H90.934V98.4H92.086V90.464H94.534V89.408H92.086ZM86.662 85.936V86.256C86.662 89.712 84.406 93.184 80.758 95.632L81.446 96.528C85.366 93.84 87.798 90.208 87.798 86.032V84.896H80.998V85.936H86.662ZM110.237 83.84V85.344H102.557V83.84H101.421V88.752H111.389V83.84H110.237ZM102.557 86.304H110.237V87.792H102.557V86.304ZM113.309 90.016H99.4845V91.008H105.837V92.368H101.277V98.496H111.933V97.52H102.413V95.872H111.533V94.912H102.413V93.328H111.533V92.368H106.973V91.008H113.309V90.016ZM117.728 88.72V84H116.592V89.776H126.672V88.72H117.728ZM128.48 92.72V91.664H114.656V92.72H128.48ZM126.944 98.4V97.344H117.728V94.112H116.592V98.4H126.944ZM140.567 91.408H145.047V92.032H146.199V83.632H145.047V90.544H140.567V91.408ZM138.567 88.08C140.727 88.08 142.423 87.344 142.423 86.032V85.92C142.423 84.608 140.727 83.888 138.567 83.888C136.407 83.888 134.711 84.608 134.711 85.92V86.032C134.711 87.344 136.407 88.08 138.567 88.08ZM135.815 85.952C135.815 85.28 136.951 84.816 138.567 84.816C140.183 84.816 141.335 85.28 141.335 85.952V86C141.335 86.688 140.183 87.136 138.567 87.136C136.951 87.136 135.815 86.688 135.815 86V85.952ZM137.831 90.016C137.783 90.704 137.719 91.472 137.639 92.128L138.759 92.224C138.839 91.488 138.903 90.704 138.967 89.968C140.599 89.888 142.327 89.728 143.767 89.536L143.655 88.656C141.335 88.944 138.375 89.104 136.551 89.104H133.863L133.911 90.032H136.487C136.903 90.032 137.367 90.032 137.831 90.016ZM137.671 96.096H146.199V92.832H136.471V93.776H145.063V95.152H136.551V98.48H146.823V97.52H137.671V96.096ZM160.269 89.632H164.685V83.92H163.533V85.808H155.853V83.92H154.717V89.632H159.133V91.344H152.781V92.368H166.605V91.344H160.269V89.632ZM163.533 86.784V88.656H155.853V86.784H163.533ZM163.677 95.104V98.56H164.829V94.08H154.573V95.104H163.677ZM180.433 98.4V83.632H179.297V98.4H180.433ZM171.329 96.256C173.505 96.256 175.921 96.048 177.665 95.712L177.521 94.72C175.665 95.008 173.329 95.216 171.521 95.216H169.969V90.976H175.713V84.816H168.833V85.856H174.561V89.936H168.833V96.256H171.329ZM190.613 92.992H195.493V91.968H186.053V89.344H195.173V84.72H184.837V85.76H194.021V88.32H184.917V92.992H189.477V96.16H183.125V97.216H196.949V96.16H190.613V92.992ZM8.16 115.168H12.576V110H2.608V115.168H7.024V116.96H0.672V117.984H14.496V116.96H8.16V115.168ZM11.424 110.992V114.176H3.744V110.992H11.424ZM11.568 120.8V124.56H12.72V119.76H2.464V120.8H11.568ZM23.3319 115.776H27.7479V114.736H18.9159V111.024H27.5879V110H17.7799V115.776H22.1959V117.728H15.8439V118.784H29.6679V117.728H23.3319V115.776ZM17.7799 120.112V124.4H28.1319V123.344H18.9159V120.112H17.7799ZM38.9678 114.528C41.5278 114.528 43.1438 113.808 43.1438 112.128C43.1438 110.464 41.5278 109.76 38.9678 109.76H36.8878C34.3438 109.76 32.7278 110.464 32.7278 112.128C32.7278 113.808 34.3438 114.528 36.8878 114.528H38.9678ZM37.0798 113.552C34.9998 113.552 33.8638 113.104 33.8638 112.128C33.8638 111.184 34.9998 110.736 37.0798 110.736H38.7917C40.8718 110.736 41.9918 111.184 41.9918 112.128C41.9918 113.072 40.8718 113.552 38.7917 113.552H37.0798ZM44.8398 116.768V115.792H31.0158V116.768H44.8398ZM43.4638 124.48V123.504H33.9438V121.792H43.0638V118.208H32.7278V119.168H41.9118V120.832H32.8078V124.48H43.4638ZM63.9023 114.832H61.3743C61.6303 113.392 61.7743 111.936 61.7743 110.864V110.08H51.8223V111.104H60.6383V111.12C60.6383 111.856 60.5103 113.344 60.2383 114.832H50.0783V115.808H56.4303V117.6H51.7903V118.592H60.9743V120.512H51.8703V124.48H62.5263V123.488H53.0063V121.504H62.1263V117.6H57.5663V115.808H63.9023V114.832ZM76.5941 115.568H73.8741V116.608H76.5941V124.4H77.7301V109.632H76.5941V115.568ZM67.2661 121.216V116.976H72.8021V110.816H66.1301V111.856H71.6661V115.936H66.1301V122.256H68.6101C70.7541 122.256 73.1701 122.048 74.8821 121.728L74.7381 120.72C72.9141 121.008 70.5781 121.216 68.8021 121.216H67.2661ZM87.91 118.608H92.47V110.64H91.318V113.616H83.35V110.64H82.214V118.608H86.774V122.16H80.422V123.216H94.246V122.16H87.91V118.608ZM91.318 114.672V117.568H83.35V114.672H91.318ZM107.13 124.4H108.25V109.632H107.13V124.4ZM101.338 114.944V116H103.946V124.128H105.05V109.872H103.946V114.944H101.338ZM99.6579 110.544H98.5379V112.432C98.5379 116.096 97.4499 118.944 95.3859 121.616L96.2339 122.352C97.4339 120.8 98.3139 119.2 98.8739 117.488L101.85 122.176L102.778 121.504L99.2899 116.016C99.5299 114.88 99.6579 113.696 99.6579 112.432V110.544ZM118.75 118.208C121.422 118.208 123.102 116.544 123.102 114.336C123.102 112.144 121.422 110.48 118.75 110.48H116.622C113.934 110.48 112.286 112.144 112.286 114.336C112.286 116.544 113.934 118.208 116.622 118.208H118.75ZM118.558 111.52C120.718 111.52 121.95 112.736 121.95 114.336C121.95 115.968 120.718 117.184 118.558 117.184H116.814C114.638 117.184 113.422 115.968 113.422 114.336C113.422 112.736 114.638 111.52 116.814 111.52H118.558ZM120.878 119.104H119.742V122.16H115.63V119.104H114.494V122.16H110.766V123.2H124.59V122.16H120.878V119.104ZM127.154 123.792C127.65 123.792 128.05 123.392 128.05 122.896C128.05 122.4 127.65 122.016 127.154 122.016C126.658 122.016 126.274 122.4 126.274 122.896C126.274 123.392 126.658 123.792 127.154 123.792Z" fill="#333333"/>
</svg>
