<svg width="310" height="75" viewBox="0 0 310 75" fill="none" xmlns="http://www.w3.org/2000/svg">
<path d="M17.688 47.488H15.456V39.736H12.552V61.264H15.456V50.272H17.688V61.792H20.664V39.376H17.688V47.488ZM10.512 58.24V40.912H1.368V58.24H10.512ZM7.704 43.72V55.432H4.2V43.72H7.704ZM34.2538 51.568H39.9418V52.072H43.0138V39.376H39.9418V49.552H34.2538V51.568ZM30.9178 46.264C34.4698 46.264 37.0858 45.088 37.0858 42.976V42.808C37.0858 40.696 34.4698 39.52 30.9178 39.52C27.3418 39.52 24.7258 40.696 24.7258 42.808V42.976C24.7258 45.088 27.3418 46.264 30.9178 46.264ZM27.6058 42.856C27.6058 42.184 28.9498 41.776 30.9178 41.776C32.8618 41.776 34.2058 42.184 34.2058 42.856V42.928C34.2058 43.624 32.8618 43.984 30.9178 43.984C28.9498 43.984 27.6058 43.624 27.6058 42.928V42.856ZM29.1418 49.336C29.0938 50.224 29.0218 51.136 28.9258 52.024L31.8778 52.216C31.9978 51.232 32.0458 50.176 32.1178 49.216C34.3258 49.096 36.6538 48.904 38.6698 48.64L38.4058 46.528C34.8298 46.936 30.5578 47.152 27.8458 47.152H23.7898L23.9098 49.36H27.5578C28.0618 49.36 28.5898 49.36 29.1418 49.336ZM30.5338 58.48H43.0138V52.936H27.4378V55.216H40.0378V56.224H27.5578V61.912H43.7338V59.536H30.5338V58.48Z" fill="black"/>
<path d="M145.392 46.864C149.016 46.864 151.608 45.784 151.608 43.12C151.608 40.528 149.016 39.448 145.392 39.448H141.36C137.736 39.448 135.168 40.528 135.168 43.12C135.168 45.784 137.736 46.864 141.36 46.864H145.392ZM141.984 44.488C139.584 44.488 138.216 44.104 138.216 43.168C138.216 42.232 139.584 41.848 141.984 41.848H144.792C147.192 41.848 148.536 42.232 148.536 43.168C148.536 44.08 147.192 44.488 144.792 44.488H141.984ZM153.936 50.608V48.184H132.816V50.608H153.936ZM152.088 61.912V59.464H138.336V58.12H151.488V52.096H135.168V54.496H148.416V55.768H135.288V61.912H152.088ZM173.623 52.792H180.199V40.768H163.999V52.792H170.551V57.424H161.527V60.232H182.647V57.424H173.623V52.792ZM177.127 43.528V50.056H167.047V43.528H177.127ZM196.717 53.392C200.725 53.392 203.389 50.512 203.389 46.888C203.389 43.288 200.725 40.408 196.717 40.408H192.973C188.965 40.408 186.325 43.288 186.325 46.888C186.325 50.512 188.965 53.392 192.973 53.392H196.717ZM193.549 50.656C191.005 50.656 189.373 49.144 189.373 46.912C189.373 44.68 191.005 43.192 193.549 43.192H196.141C198.685 43.192 200.317 44.68 200.317 46.912C200.317 49.144 198.685 50.656 196.141 50.656H193.549ZM205.405 60.232V57.424H184.285V60.232H205.405ZM223.411 49.624V55.96H226.507V39.376H223.411V42.28H219.355V40.456H208.027V52.024H219.355V49.624H223.411ZM211.003 49.336V43.144H216.379V49.336H211.003ZM223.411 47.2H219.355V44.728H223.411V47.2ZM214.339 54.544H211.291V61.792H227.323V59.008H214.339V54.544ZM232.344 45.424C232.992 43.744 233.952 42.736 235.92 42.736C237.696 42.736 239.112 43.744 239.112 45.472C239.112 47.032 238.272 47.896 236.52 48.808C234.168 49.936 233.568 50.896 233.592 52.912L233.616 54.304H236.496L236.52 53.224C236.544 52.24 236.952 51.76 238.344 51.04C240.792 49.816 242.208 48.208 242.208 45.472C242.208 41.944 239.064 39.928 235.92 39.928C232.56 39.928 230.376 41.848 229.488 44.464L232.344 45.424ZM235.08 60.832C236.16 60.832 237.024 59.968 237.024 58.888C237.024 57.808 236.16 56.92 235.08 56.92C234 56.92 233.112 57.808 233.112 58.888C233.112 59.968 234 60.832 235.08 60.832Z" fill="black"/>
<rect x="53" y="71" width="79" height="4" fill="black"/>
<path d="M53.176 55.864C54.16 58.624 56.44 60.832 60.424 60.832C64.624 60.832 67.528 58.576 67.528 55.12C67.528 52.672 65.968 51.064 64.048 50.368C65.656 49.672 67.072 48.328 67.072 45.904C67.072 42.472 64.216 40.528 60.376 40.528C56.728 40.528 54.664 42.592 53.728 45.112L56.464 46.144C57.04 44.656 58.144 43.288 60.376 43.288C62.608 43.288 64.048 44.32 64.048 46.096C64.048 47.848 62.728 49.096 60.064 49.096H57.52V51.688H60.064C63.088 51.688 64.528 53.176 64.528 54.976C64.528 56.752 63.04 58.072 60.424 58.072C57.832 58.072 56.56 56.56 55.912 54.856L53.176 55.864ZM77.8945 60.832C81.8545 60.832 85.1665 58.072 85.1665 52.528V48.832C85.1665 43.312 81.8545 40.528 77.8945 40.528C73.9105 40.528 70.5985 43.312 70.5985 48.832V52.528C70.5985 58.072 73.9105 60.832 77.8945 60.832ZM77.8945 58.096C75.4705 58.096 73.6945 56.272 73.6945 52.384V48.976C73.6945 45.112 75.4705 43.264 77.8945 43.264C80.3185 43.264 82.0945 45.112 82.0945 48.976V52.384C82.0945 56.272 80.3185 58.096 77.8945 58.096ZM105.719 39.376H102.647V55.96H105.719V47.464H108.959V44.68H105.719V39.376ZM87.8149 40.456V52.024H99.0709V40.456H87.8149ZM90.7909 49.336V43.144H96.0949V49.336H90.7909ZM90.9589 54.544V61.792H106.751V59.008H94.0309V54.544H90.9589ZM120.965 55.552H126.653V57.112H129.725V39.376H126.653V53.272H120.965V55.552ZM117.629 48.472C121.133 48.472 123.797 47.032 123.797 44.248V44.008C123.797 41.176 121.133 39.736 117.629 39.736C114.101 39.736 111.437 41.176 111.437 44.008V44.248C111.437 47.032 114.101 48.472 117.629 48.472ZM114.317 44.032C114.317 42.832 115.709 42.208 117.629 42.208C119.525 42.208 120.917 42.832 120.917 44.032V44.2C120.917 45.4 119.525 46 117.629 46C115.709 46 114.317 45.4 114.317 44.2V44.032ZM115.853 52.384C115.781 53.416 115.709 54.472 115.613 55.528L118.541 55.72C118.661 54.544 118.757 53.368 118.829 52.288C121.037 52.168 123.365 51.976 125.381 51.688L125.069 49.216C121.517 49.624 117.293 49.864 114.557 49.864H110.525L110.645 52.408H114.269C114.773 52.408 115.301 52.408 115.853 52.384ZM117.341 56.416H114.269V61.792H130.541V59.008H117.341V56.416Z" fill="#5725E0"/>
<path d="M17.184 10.248H13.248V12.864H17.184V17.952H20.256V5.4H17.184V10.248ZM13.392 17.808L14.904 15.312L8.976 11.688C9.24 10.848 9.408 9.984 9.432 9.048H14.064V6.336H1.848V9.048H6.456C6.336 11.664 4.752 13.68 0.96 15.72L2.424 18.144C4.776 16.944 6.504 15.624 7.656 14.112L13.392 17.808ZM17.184 21.936V28.032H20.256V19.176H4.776V21.936H17.184ZM39.2458 13.464C41.1658 12.864 42.3658 11.616 42.3658 9.696C42.3658 6.912 39.7738 5.568 36.1018 5.568H32.1898C28.4938 5.568 25.9258 6.912 25.9258 9.696C25.9258 11.592 27.1018 12.864 29.0218 13.464V15.624H23.5738V18.216H44.6938V15.624H39.2458V13.464ZM28.9738 9.72C28.9738 8.64 30.3418 8.112 32.7658 8.112H35.5258C37.9258 8.112 39.2938 8.64 39.2938 9.72C39.2938 10.824 37.9258 11.376 35.5258 11.376H32.7658C30.3418 11.376 28.9738 10.824 28.9738 9.72ZM31.9018 13.896H36.3658V15.624H31.9018V13.896ZM31.4698 19.728C27.8938 19.728 25.8058 21.504 25.8058 23.88C25.8058 26.28 27.8938 28.032 31.4698 28.032H36.7978C40.3978 28.032 42.4858 26.28 42.4858 23.88C42.4858 21.504 40.3978 19.728 36.7978 19.728H31.4698ZM32.0458 25.368C29.8138 25.368 28.8538 24.792 28.8538 23.856C28.8538 22.92 29.8138 22.368 32.0458 22.368H36.2458C38.4778 22.368 39.4138 22.92 39.4138 23.856C39.4138 24.792 38.4778 25.368 36.2458 25.368H32.0458ZM64.0916 13.92C64.4276 11.736 64.5956 9.408 64.5956 7.512V6.024H48.8516V8.832H61.5236C61.4756 10.056 61.3076 12.024 60.9956 13.92H46.3316V16.632H67.4516V13.92H64.0916ZM65.0036 27.816V18.912H48.8036V27.816H65.0036ZM61.9316 21.552V25.128H51.8516V21.552H61.9316ZM88.5294 27.792V5.376H85.4574V27.792H88.5294ZM74.8254 24.696C77.9454 24.696 81.0654 24.432 83.6574 23.928L83.2734 21.288C80.5854 21.72 77.7774 21.936 75.3774 21.936H73.2414V17.016H81.2814V6.912H70.1934V9.672H78.2094V14.328H70.1934V24.696H74.8254ZM103.943 19.848H110.999V17.16H97.3672V14.64H110.519V6.768H94.1992V9.528H107.447V11.952H94.3193V19.848H100.871V23.424H91.8473V26.232H112.967V23.424H103.943V19.848Z" fill="black"/>
</svg>
