<svg width="168" height="24" viewBox="0 0 168 24" fill="none" xmlns="http://www.w3.org/2000/svg">
<path d="M5.83333 11.1667H7.5V12.8334H5.83333V11.1667ZM17.5 7.00008V18.6667C17.5 19.5834 16.75 20.3334 15.8333 20.3334H4.16667C3.24167 20.3334 2.5 19.5834 2.5 18.6667L2.50833 7.00008C2.50833 6.08341 3.24167 5.33341 4.16667 5.33341H5V3.66675H6.66667V5.33341H13.3333V3.66675H15V5.33341H15.8333C16.75 5.33341 17.5 6.08341 17.5 7.00008ZM4.16667 8.66675H15.8333V7.00008H4.16667V8.66675ZM15.8333 18.6667V10.3334H4.16667V18.6667H15.8333ZM12.5 12.8334H14.1667V11.1667H12.5V12.8334ZM9.16667 12.8334H10.8333V11.1667H9.16667V12.8334Z" fill="white" fill-opacity="0.8"/>
<path d="M30.858 17.358V6.102H29.962L26.434 8.958L27.022 9.7L29.836 7.418V17.358H30.858ZM43.1081 10.232H41.1061V5.388H40.1261V17.862H41.1061V11.156H43.1081V18.1H44.0881V5.178H43.1081V10.232ZM37.3821 7.194V7.474C37.3821 10.498 35.8001 13.522 33.3221 15.734L34.0361 16.462C36.6541 14.04 38.3761 10.932 38.3761 7.278V6.284H33.5601V7.194H37.3821ZM52.2675 11.982H56.1875V12.528H57.1955V5.178H56.1875V11.226H52.2675V11.982ZM50.5175 9.07C52.4075 9.07 53.8915 8.426 53.8915 7.278V7.18C53.8915 6.032 52.4075 5.402 50.5175 5.402C48.6275 5.402 47.1435 6.032 47.1435 7.18V7.278C47.1435 8.426 48.6275 9.07 50.5175 9.07ZM48.1095 7.208C48.1095 6.62 49.1035 6.214 50.5175 6.214C51.9315 6.214 52.9395 6.62 52.9395 7.208V7.25C52.9395 7.852 51.9315 8.244 50.5175 8.244C49.1035 8.244 48.1095 7.852 48.1095 7.25V7.208ZM49.8735 10.764C49.8315 11.366 49.7755 12.038 49.7055 12.612L50.6855 12.696C50.7555 12.052 50.8115 11.366 50.8675 10.722C52.2955 10.652 53.8075 10.512 55.0675 10.344L54.9695 9.574C52.9395 9.826 50.3495 9.966 48.7535 9.966H46.4015L46.4435 10.778H48.6975C49.0615 10.778 49.4675 10.778 49.8735 10.764ZM49.7335 16.084H57.1955V13.228H48.6835V14.054H56.2015V15.258H48.7535V18.17H57.7415V17.33H49.7335V16.084ZM73.8752 18.1V5.178H72.8672V18.1H73.8752ZM66.8332 16.378C68.6532 16.378 70.1512 15.16 70.1512 12.094V10.162C70.1512 7.096 68.6532 5.878 66.8332 5.878C65.0132 5.878 63.5152 7.096 63.5152 10.162V12.094C63.5152 15.16 65.0132 16.378 66.8332 16.378ZM66.8332 15.454C65.5032 15.454 64.5232 14.488 64.5232 12.08V10.162C64.5232 7.754 65.5032 6.802 66.8332 6.802C68.1632 6.802 69.1572 7.754 69.1572 10.162V12.08C69.1572 14.488 68.1632 15.454 66.8332 15.454ZM86.4226 5.192H85.4146V12.248H86.4226V8.986H88.5646V8.076H86.4226V5.192ZM83.3286 11.87L83.8746 11.072L80.0806 8.468C80.3186 7.852 80.4306 7.208 80.4306 6.508V5.64H79.4506V6.508C79.4506 8.496 78.2466 9.994 75.9926 11.324L76.4966 12.136C77.9666 11.296 79.0166 10.372 79.6606 9.322L83.3286 11.87ZM81.1166 13.032C79.2406 13.032 78.1066 14.18 78.1066 15.636C78.1066 17.106 79.2406 18.226 81.1166 18.226H83.7346C85.6246 18.226 86.7446 17.106 86.7446 15.636C86.7446 14.18 85.6246 13.032 83.7346 13.032H81.1166ZM81.3126 17.33C79.8286 17.33 79.1146 16.602 79.1146 15.622C79.1146 14.684 79.8286 13.928 81.3126 13.928H83.5386C85.0226 13.928 85.7366 14.684 85.7366 15.622C85.7366 16.602 85.0226 17.33 83.5386 17.33H81.3126ZM100.75 17.358V16.434H94.7163L98.1603 13.004C99.5743 11.59 100.442 10.414 100.442 8.874C100.442 7.054 99.0563 5.892 96.9563 5.892C94.8983 5.892 93.7223 7.404 93.2743 9.014L94.2403 9.252C94.6463 7.936 95.4023 6.816 96.9563 6.816C98.5103 6.816 99.4483 7.614 99.4483 8.888C99.4483 10.064 98.8043 11.03 97.4183 12.416L93.2323 16.574V17.358H100.75ZM108.864 14.082V6.102H107.492L102.032 14.152V15.006H107.856V17.568H108.864V15.006H110.768V14.082H108.864ZM107.856 7.222V14.082H103.25L107.856 7.222ZM122.036 10.232H120.034V5.388H119.054V17.862H120.034V11.156H122.036V18.1H123.016V5.178H122.036V10.232ZM116.31 7.194V7.474C116.31 10.498 114.728 13.522 112.25 15.734L112.964 16.462C115.582 14.04 117.304 10.932 117.304 7.278V6.284H112.488V7.194H116.31ZM131.195 11.982H135.115V12.528H136.123V5.178H135.115V11.226H131.195V11.982ZM129.445 9.07C131.335 9.07 132.819 8.426 132.819 7.278V7.18C132.819 6.032 131.335 5.402 129.445 5.402C127.555 5.402 126.071 6.032 126.071 7.18V7.278C126.071 8.426 127.555 9.07 129.445 9.07ZM127.037 7.208C127.037 6.62 128.031 6.214 129.445 6.214C130.859 6.214 131.867 6.62 131.867 7.208V7.25C131.867 7.852 130.859 8.244 129.445 8.244C128.031 8.244 127.037 7.852 127.037 7.25V7.208ZM128.801 10.764C128.759 11.366 128.703 12.038 128.633 12.612L129.613 12.696C129.683 12.052 129.739 11.366 129.795 10.722C131.223 10.652 132.735 10.512 133.995 10.344L133.897 9.574C131.867 9.826 129.277 9.966 127.681 9.966H125.329L125.371 10.778H127.625C127.989 10.778 128.395 10.778 128.801 10.764ZM128.661 16.084H136.123V13.228H127.611V14.054H135.129V15.258H127.681V18.17H136.669V17.33H128.661V16.084ZM152.803 18.1V5.178H151.795V18.1H152.803ZM145.761 16.378C147.581 16.378 149.079 15.16 149.079 12.094V10.162C149.079 7.096 147.581 5.878 145.761 5.878C143.941 5.878 142.443 7.096 142.443 10.162V12.094C142.443 15.16 143.941 16.378 145.761 16.378ZM145.761 15.454C144.431 15.454 143.451 14.488 143.451 12.08V10.162C143.451 7.754 144.431 6.802 145.761 6.802C147.091 6.802 148.085 7.754 148.085 10.162V12.08C148.085 14.488 147.091 15.454 145.761 15.454ZM165.35 10.232V5.178H164.356V18.1H165.35V11.156H167.506V10.232H165.35ZM158.476 5.192V7.236H155.228V8.146H162.718V7.236H159.47V5.192H158.476ZM158.994 9.476C157.244 9.476 155.858 10.624 155.858 12.5V13.242C155.858 15.104 157.244 16.28 158.994 16.28C160.73 16.28 162.102 15.104 162.102 13.242V12.5C162.102 10.624 160.73 9.476 158.994 9.476ZM161.108 13.2C161.108 14.544 160.17 15.37 158.994 15.37C157.79 15.37 156.866 14.544 156.866 13.2V12.542C156.866 11.198 157.79 10.4 158.994 10.4C160.17 10.4 161.108 11.198 161.108 12.542V13.2Z" fill="white"/>
</svg>
