<svg width="76" height="18" viewBox="0 0 76 18" fill="none" xmlns="http://www.w3.org/2000/svg">
<path d="M16.2 0H1.8C0.81 0 0 0.81 0 1.8V18L3.6 14.4H16.2C17.19 14.4 18 13.59 18 12.6V1.8C18 0.81 17.19 0 16.2 0ZM16.2 12.6H2.853L1.8 13.653V1.8H16.2V12.6ZM4.5 6.3H6.3V8.1H4.5V6.3ZM11.7 6.3H13.5V8.1H11.7V6.3ZM8.1 6.3H9.9V8.1H8.1V6.3Z" fill="white"/>
<path d="M33.5232 2.15H31.7312V9.262H33.5232V6.308H35.4132V4.698H33.5232V2.15ZM29.7432 9.024L30.6952 7.638L27.2792 5.328C27.4752 4.726 27.5732 4.082 27.5732 3.382V2.528H25.8232V3.382C25.8232 5.034 24.9832 6.504 22.6452 7.89L23.5972 9.304C24.8852 8.562 25.8512 7.736 26.5092 6.826L29.7432 9.024ZM27.7972 9.836C25.9492 9.836 24.6472 10.942 24.6472 12.594C24.6472 14.26 25.9492 15.352 27.7972 15.352H30.6672C32.5292 15.352 33.8172 14.26 33.8172 12.594C33.8172 10.942 32.5292 9.836 30.6672 9.836H27.7972ZM28.0492 13.756C26.9852 13.756 26.4392 13.28 26.4392 12.58C26.4392 11.894 26.9852 11.418 28.0492 11.418H30.4012C31.4792 11.418 32.0252 11.894 32.0252 12.58C32.0252 13.28 31.4792 13.756 30.4012 13.756H28.0492ZM46.8126 4.684V2.136H45.0206V9.192H46.8126V6.308H48.7026V4.684H46.8126ZM43.8306 6.882C42.2206 7.12 40.5686 7.246 39.2246 7.246H38.2446V4.264H42.9766V2.696H36.4386V8.828H38.9166C40.6666 8.828 42.4726 8.674 44.0266 8.408L43.8306 6.882ZM46.8126 15.212V9.906H38.2026V15.212H46.8126ZM45.0206 11.488V13.616H39.9946V11.488H45.0206ZM60.074 6.868V2.136H58.296V15.212H60.074V8.492H61.978V6.868H60.074ZM52.416 2.15V3.928H49.476V5.524H57.162V3.928H54.222V2.15H52.416ZM53.326 6.518C51.492 6.518 50.036 7.736 50.036 9.626V10.396C50.036 12.286 51.492 13.518 53.326 13.518C55.174 13.518 56.602 12.286 56.602 10.396V9.626C56.602 7.736 55.174 6.518 53.326 6.518ZM54.824 10.326C54.824 11.334 54.166 11.922 53.326 11.922C52.486 11.922 51.828 11.334 51.828 10.326V9.696C51.828 8.688 52.486 8.114 53.326 8.114C54.166 8.114 54.824 8.688 54.824 9.696V10.326ZM72.2994 15.212H74.0914V2.136H72.2994V15.212ZM68.2394 4.74C68.2394 7.218 66.6854 10.144 63.2274 12.314L64.3194 13.728C68.0154 11.334 70.0594 8.114 70.0594 4.39V3.102H63.6054V4.74H68.2394Z" fill="white"/>
</svg>
