<svg width="84" height="24" viewBox="0 0 84 24" fill="none" xmlns="http://www.w3.org/2000/svg">
<path d="M10.5 8.342H7.532C7.056 6.606 5.852 5.878 4.452 5.878C2.632 5.878 1.148 7.096 1.148 10.162V12.094C1.148 15.16 2.632 16.378 4.452 16.378C5.992 16.378 7.322 15.482 7.672 13.312H10.5V18.1H11.508V5.178H10.5V8.342ZM6.748 12.08C6.748 14.488 5.768 15.454 4.452 15.454C3.136 15.454 2.156 14.488 2.156 12.08V10.162C2.156 7.754 3.136 6.802 4.452 6.802C5.768 6.802 6.748 7.754 6.748 10.162V12.08ZM7.756 12.388V12.094V10.162C7.756 9.84 7.742 9.532 7.714 9.252H10.5V12.388H7.756ZM17.4754 6.494V5.01H16.4674V6.494H13.9194V7.334H20.0374V6.494H17.4754ZM23.9854 9.392V12.668H24.9514V5.178H23.9854V8.482H22.0254V5.318H21.0734V12.528H22.0254V9.392H23.9854ZM19.5334 10.218C19.5334 8.86 18.4834 8.118 16.9994 8.118C15.4874 8.118 14.4374 8.86 14.4374 10.218V10.414C14.4374 11.786 15.4874 12.528 16.9994 12.528C18.4834 12.528 19.5334 11.786 19.5334 10.414V10.218ZM15.3754 10.26C15.3754 9.49 16.0194 8.972 16.9994 8.972C17.9514 8.972 18.5954 9.49 18.5954 10.26V10.386C18.5954 11.184 17.9514 11.674 16.9994 11.674C16.0194 11.674 15.3754 11.184 15.3754 10.386V10.26ZM19.2814 13.438C17.3494 13.438 16.2294 14.46 16.2294 15.832C16.2294 17.232 17.3494 18.226 19.2814 18.226H22.0954C24.0134 18.226 25.1334 17.232 25.1334 15.832C25.1334 14.46 24.0134 13.438 22.0954 13.438H19.2814ZM19.4774 17.33C17.9654 17.33 17.2374 16.714 17.2374 15.832C17.2374 14.964 17.9654 14.348 19.4774 14.348H21.8854C23.4114 14.348 24.1254 14.964 24.1254 15.832C24.1254 16.714 23.4114 17.33 21.8854 17.33H19.4774ZM33.6908 12.752H37.6808V6.13H28.7068V12.752H32.6968V16.14H27.1388V17.064H39.2348V16.14H33.6908V12.752ZM36.6728 7.04V11.856H29.7008V7.04H36.6728ZM51.3342 12.178V5.178H50.3262V12.178H51.3342ZM44.3342 11.66C46.1822 11.66 47.6802 10.694 47.6802 8.734V8.468C47.6802 6.494 46.1822 5.528 44.3342 5.528C42.4722 5.528 40.9742 6.494 40.9742 8.468V8.734C40.9742 10.694 42.4722 11.66 44.3342 11.66ZM44.3342 10.764C42.9762 10.764 41.9822 10.05 41.9822 8.706V8.496C41.9822 7.152 42.9762 6.438 44.3342 6.438C45.6922 6.438 46.6862 7.152 46.6862 8.496V8.706C46.6862 10.05 45.6922 10.764 44.3342 10.764ZM51.3342 18.1V13.102H43.0322V18.1H51.3342ZM44.0262 13.998H50.3262V17.19H44.0262V13.998ZM63.6459 10.974H67.7759V10.12H59.7819V8.636H67.5099V7.782H59.7819V6.354H67.5099V5.5H58.7879V10.974H62.6519V12.192H57.0939V13.046H69.1899V12.192H63.6459V10.974ZM61.6859 14.18C59.5999 14.18 58.5219 14.992 58.5219 16.21C58.5219 17.442 59.5999 18.24 61.6859 18.24H64.6119C66.6979 18.24 67.7759 17.442 67.7759 16.21C67.7759 14.992 66.6979 14.18 64.6119 14.18H61.6859ZM61.9239 17.386C60.2859 17.386 59.5159 16.952 59.5159 16.21C59.5159 15.468 60.2859 15.034 61.9239 15.034H64.3739C65.9979 15.034 66.7679 15.468 66.7679 16.21C66.7679 16.952 65.9979 17.386 64.3739 17.386H61.9239ZM80.5613 5.192H79.5673V12.248H80.5613V8.986H82.7033V8.076H80.5613V5.192ZM77.4533 12.052L77.9853 11.24L74.2473 8.664C74.4433 8.132 74.5413 7.572 74.5413 6.97V6.774H77.4673V5.878H70.6633V6.774H73.5613V6.97C73.5613 8.846 72.3433 10.204 70.1733 11.52L70.6633 12.318C72.1613 11.464 73.2113 10.54 73.8413 9.504L77.4533 12.052ZM75.2553 13.032C73.3792 13.032 72.2453 14.18 72.2453 15.636C72.2453 17.106 73.3792 18.226 75.2553 18.226H77.8733C79.7633 18.226 80.8833 17.106 80.8833 15.636C80.8833 14.18 79.7633 13.032 77.8733 13.032H75.2553ZM75.4513 17.33C73.9673 17.33 73.2533 16.602 73.2533 15.622C73.2533 14.684 73.9673 13.928 75.4513 13.928H77.6773C79.1613 13.928 79.8753 14.684 79.8753 15.622C79.8753 16.602 79.1613 17.33 77.6773 17.33H75.4513Z" fill="black"/>
</svg>
