<svg width="89" height="24" viewBox="0 0 89 24" fill="none" xmlns="http://www.w3.org/2000/svg">
<path d="M8.428 17.358V16.434H2.394L5.838 13.004C7.252 11.59 8.12 10.414 8.12 8.874C8.12 7.054 6.734 5.892 4.634 5.892C2.576 5.892 1.4 7.404 0.952 9.014L1.918 9.252C2.324 7.936 3.08 6.816 4.634 6.816C6.188 6.816 7.126 7.614 7.126 8.888C7.126 10.064 6.482 11.03 5.096 12.416L0.91 16.574V17.358H8.428ZM14.4319 9.994C13.1999 9.994 12.0099 10.554 11.3799 11.59V10.946C11.3519 8.076 12.5979 6.802 14.2499 6.802C15.7479 6.802 16.5599 7.516 17.1759 8.776L18.0439 8.328C17.3019 6.774 16.0559 5.892 14.2219 5.892C12.2619 5.892 10.4139 7.278 10.4139 10.904V13.718C10.4139 16.154 12.1079 17.568 14.3199 17.568C16.4899 17.568 18.2399 16.14 18.2399 13.774C18.2399 11.408 16.4899 9.994 14.4319 9.994ZM14.3199 16.658C12.7379 16.658 11.4219 15.636 11.4219 13.774C11.4219 11.912 12.7379 10.904 14.3199 10.904C15.8879 10.904 17.2319 11.912 17.2319 13.774C17.2319 15.636 15.8879 16.658 14.3199 16.658ZM21.0596 11.94C23.2016 11.156 24.6436 10.274 25.4696 9.28L30.3136 11.94L30.7616 11.086L25.9736 8.496C26.2116 8.02 26.3236 7.516 26.3236 6.984V6.774H30.1036V5.864H21.3816V6.774H25.3156V6.984C25.3156 8.566 23.7616 9.924 20.6956 11.072L21.0596 11.94ZM19.6876 13.368V14.278H25.2456V18.254H26.2396V14.278H31.7836V13.368H19.6876ZM42.875 8.258H40.089V9.154H42.875V12.458H43.869V5.192H42.875V8.258ZM40.537 12.262L41.055 11.45L37.261 8.79C37.471 8.23 37.583 7.628 37.583 6.984V6.788H40.537V5.878H33.663V6.788H36.603V6.984C36.603 8.944 35.357 10.302 33.145 11.66L33.635 12.458C35.133 11.576 36.197 10.666 36.841 9.616L40.537 12.262ZM42.875 14.278V18.226H43.869V13.368H35.427V14.278H42.875ZM56.0524 10.47C56.3184 9.014 56.4724 7.53 56.4724 6.41V5.64H47.7644V6.55H55.4784V6.62C55.4784 7.432 55.3244 8.986 55.0444 10.47H46.2384V11.38H58.3344V10.47H56.0524ZM56.7804 18.1V13.158H47.8064V18.1H56.7804ZM55.7724 14.054V17.204H48.8004V14.054H55.7724ZM69.4701 10.974H73.6001V10.12H65.6061V8.636H73.3341V7.782H65.6061V6.354H73.3341V5.5H64.6121V10.974H68.4761V12.192H62.9181V13.046H75.0141V12.192H69.4701V10.974ZM67.5101 14.18C65.4241 14.18 64.3461 14.992 64.3461 16.21C64.3461 17.442 65.4241 18.24 67.5101 18.24H70.4361C72.5221 18.24 73.6001 17.442 73.6001 16.21C73.6001 14.992 72.5221 14.18 70.4361 14.18H67.5101ZM67.7481 17.386C66.1101 17.386 65.3401 16.952 65.3401 16.21C65.3401 15.468 66.1101 15.034 67.7481 15.034H70.1981C71.8221 15.034 72.5921 15.468 72.5921 16.21C72.5921 16.952 71.8221 17.386 70.1981 17.386H67.7481ZM86.3855 5.192H85.3915V12.248H86.3855V8.986H88.5275V8.076H86.3855V5.192ZM83.2775 12.052L83.8095 11.24L80.0715 8.664C80.2675 8.132 80.3655 7.572 80.3655 6.97V6.774H83.2915V5.878H76.4875V6.774H79.3855V6.97C79.3855 8.846 78.1675 10.204 75.9975 11.52L76.4875 12.318C77.9855 11.464 79.0355 10.54 79.6655 9.504L83.2775 12.052ZM81.0795 13.032C79.2035 13.032 78.0695 14.18 78.0695 15.636C78.0695 17.106 79.2035 18.226 81.0795 18.226H83.6975C85.5875 18.226 86.7075 17.106 86.7075 15.636C86.7075 14.18 85.5875 13.032 83.6975 13.032H81.0795ZM81.2755 17.33C79.7915 17.33 79.0775 16.602 79.0775 15.622C79.0775 14.684 79.7915 13.928 81.2755 13.928H83.5015C84.9855 13.928 85.6995 14.684 85.6995 15.622C85.6995 16.602 84.9855 17.33 83.5015 17.33H81.2755Z" fill="black"/>
</svg>
