<svg width="97" height="24" viewBox="0 0 97 24" fill="none" xmlns="http://www.w3.org/2000/svg">
<path d="M10.262 12.458H11.662V5.164H10.262V12.458ZM8.204 12.248L8.89 11.1L5.166 8.748C5.362 8.216 5.46 7.642 5.46 7.026H8.386V5.78H1.19V7.026H4.102C4.102 8.79 2.982 10.106 0.672 11.394L1.33 12.514C2.828 11.716 3.906 10.848 4.592 9.868L8.204 12.248ZM10.262 14.544V18.296H11.662V13.27H2.926V14.544H10.262ZM24.2094 5.164H22.8094V12.248H24.2094V9.154H26.2114V7.88H24.2094V5.164ZM20.8074 12.108L21.5074 10.974L17.9234 8.692C18.1054 8.174 18.2034 7.614 18.2034 7.026H21.0034V5.78H14.0594V7.026H16.8454C16.8454 8.734 15.7814 10.022 13.5554 11.268L14.2134 12.388C15.6554 11.618 16.6914 10.778 17.3494 9.826L20.8074 12.108ZM18.6794 12.934C16.8174 12.934 15.6134 14.054 15.6134 15.608C15.6134 17.176 16.8174 18.296 18.6794 18.296H21.4234C23.3134 18.296 24.5034 17.176 24.5034 15.608C24.5034 14.054 23.3134 12.934 21.4234 12.934H18.6794ZM18.9174 17.036C17.6434 17.036 16.9994 16.434 16.9994 15.608C16.9994 14.782 17.6434 14.18 18.9174 14.18H21.1994C22.4734 14.18 23.1174 14.782 23.1174 15.608C23.1174 16.434 22.4734 17.036 21.1994 17.036H18.9174ZM38.2268 14.894V5.164H36.8268V14.894H38.2268ZM31.0728 12.766C32.9908 12.766 34.5448 11.632 34.5448 9.28V9.014C34.5448 6.634 32.9908 5.514 31.0728 5.514C29.1408 5.514 27.5868 6.634 27.5868 9.014V9.28C27.5868 11.632 29.1408 12.766 31.0728 12.766ZM31.0728 11.534C29.8968 11.534 28.9868 10.778 28.9868 9.252V9.028C28.9868 7.488 29.8968 6.746 31.0728 6.746C32.2348 6.746 33.1448 7.488 33.1448 9.028V9.252C33.1448 10.778 32.2348 11.534 31.0728 11.534ZM38.7728 18.156V16.882H31.0308V13.942H29.6308V18.156H38.7728ZM50.9158 11.59C53.1978 11.59 54.6818 10.4 54.6818 8.566C54.6818 6.76 53.1978 5.584 50.9158 5.584H48.8718C46.6038 5.584 45.1198 6.76 45.1198 8.566C45.1198 10.4 46.6038 11.59 48.8718 11.59H50.9158ZM50.6778 6.802C52.3158 6.802 53.2958 7.488 53.2958 8.58C53.2958 9.658 52.3158 10.372 50.6778 10.372H49.1238C47.4718 10.372 46.5198 9.672 46.5198 8.58C46.5198 7.488 47.4718 6.802 49.1238 6.802H50.6778ZM43.7898 13.242V14.516H49.2078V18.296H50.5938V14.516H55.9978V13.242H43.7898ZM67.0472 10.05H65.3812V5.36H64.0652V17.89H65.3812V11.324H67.0472V18.156H68.4052V5.164H67.0472V10.05ZM58.9692 14.768V7.404H62.4412V6.116H57.5692V16.042H59.3472C60.7752 16.042 61.9512 15.972 63.1972 15.748L63.0572 14.502C61.7692 14.698 60.6492 14.768 59.5432 14.768H58.9692ZM77.1446 11.044H81.1906V9.896H73.3646V8.776H80.9246V7.642H73.3646V6.592H80.9246V5.444H71.9646V11.044H75.7586V12.052H70.3406V13.186H82.5486V12.052H77.1446V11.044ZM74.9186 14.11C72.8326 14.11 71.6986 14.964 71.6986 16.21C71.6986 17.47 72.8326 18.296 74.9186 18.296H77.9706C80.0566 18.296 81.1906 17.47 81.1906 16.21C81.1906 14.964 80.0566 14.11 77.9706 14.11H74.9186ZM75.2406 17.148C73.7566 17.148 73.0986 16.812 73.0986 16.196C73.0986 15.594 73.7566 15.244 75.2406 15.244H77.6626C79.1466 15.244 79.8046 15.594 79.8046 16.196C79.8046 16.812 79.1466 17.148 77.6626 17.148H75.2406ZM94.018 5.164H92.618V12.248H94.018V9.154H96.02V7.88H94.018V5.164ZM90.616 12.108L91.316 10.974L87.732 8.692C87.914 8.174 88.012 7.614 88.012 7.026H90.812V5.78H83.868V7.026H86.654C86.654 8.734 85.59 10.022 83.364 11.268L84.022 12.388C85.464 11.618 86.5 10.778 87.158 9.826L90.616 12.108ZM88.488 12.934C86.626 12.934 85.422 14.054 85.422 15.608C85.422 17.176 86.626 18.296 88.488 18.296H91.232C93.122 18.296 94.312 17.176 94.312 15.608C94.312 14.054 93.122 12.934 91.232 12.934H88.488ZM88.726 17.036C87.452 17.036 86.808 16.434 86.808 15.608C86.808 14.782 87.452 14.18 88.726 14.18H91.008C92.282 14.18 92.926 14.782 92.926 15.608C92.926 16.434 92.282 17.036 91.008 17.036H88.726Z" fill="#333333"/>
</svg>
