<svg width="131" height="22" viewBox="0 0 131 22" fill="none" xmlns="http://www.w3.org/2000/svg">
<path d="M6.04 1.44C2.68 1.44 0.08 3.58 0.08 6.94C0.08 10.32 2.68 12.5 5.52 12.5C7.16 12.5 8.76 11.82 9.6 10.5V11.16C9.6 14.6 8.04 16.08 6.12 16.08C4.36 16.08 3.34 15.3 2.52 13.72L0.42 14.84C1.52 17.14 3.4 18.36 6.24 18.36C9.1 18.36 11.94 16.2 11.94 11.26V7.2C11.94 3.48 9.44 1.44 6.04 1.44ZM6.02 10.26C4.08 10.26 2.6 9 2.6 7C2.6 4.98 4.08 3.72 6.02 3.72C7.94 3.72 9.4 4.98 9.4 7C9.4 9 7.94 10.26 6.02 10.26ZM16.4788 21.5L17.4388 15.28H14.7988L14.3788 21.5H16.4788ZM26.1052 18.36C29.5652 18.36 32.1452 16.68 32.1452 13.52C32.1452 11.88 31.1252 10.4 29.1052 9.6C30.9452 8.88 31.7252 7.54 31.7252 6.02C31.7252 3.02 29.3252 1.44 26.1052 1.44C22.9052 1.44 20.4852 3.02 20.4852 6.02C20.4852 7.54 21.2652 8.88 23.1052 9.6C21.0852 10.4 20.0652 11.88 20.0652 13.52C20.0652 16.68 22.6852 18.36 26.1052 18.36ZM26.1052 8.56C24.1652 8.56 23.0452 7.62 23.0452 6.16C23.0452 4.68 24.1652 3.74 26.1052 3.74C28.0452 3.74 29.1852 4.68 29.1852 6.16C29.1852 7.62 28.0452 8.56 26.1052 8.56ZM26.1052 16.06C23.9052 16.06 22.6052 15.02 22.6052 13.4C22.6052 11.82 23.9452 10.76 26.1052 10.76C28.2652 10.76 29.6052 11.82 29.6052 13.4C29.6052 15.02 28.3052 16.06 26.1052 16.06ZM40.7936 18.36C44.0936 18.36 46.8536 16.06 46.8536 11.44V8.36C46.8536 3.76 44.0936 1.44 40.7936 1.44C37.4736 1.44 34.7136 3.76 34.7136 8.36V11.44C34.7136 16.06 37.4736 18.36 40.7936 18.36ZM40.7936 16.08C38.7736 16.08 37.2936 14.56 37.2936 11.32V8.48C37.2936 5.26 38.7736 3.72 40.7936 3.72C42.8136 3.72 44.2936 5.26 44.2936 8.48V11.32C44.2936 14.56 42.8136 16.08 40.7936 16.08ZM55.5006 18.36C58.8006 18.36 61.5606 16.06 61.5606 11.44V8.36C61.5606 3.76 58.8006 1.44 55.5006 1.44C52.1806 1.44 49.4206 3.76 49.4206 8.36V11.44C49.4206 16.06 52.1806 18.36 55.5006 18.36ZM55.5006 16.08C53.4806 16.08 52.0006 14.56 52.0006 11.32V8.48C52.0006 5.26 53.4806 3.72 55.5006 3.72C57.5206 3.72 59.0006 5.26 59.0006 8.48V11.32C59.0006 14.56 57.5206 16.08 55.5006 16.08ZM66.1077 21.5L67.0677 15.28H64.4277L64.0077 21.5H66.1077ZM75.7741 18.36C79.0741 18.36 81.8341 16.06 81.8341 11.44V8.36C81.8341 3.76 79.0741 1.44 75.7741 1.44C72.4541 1.44 69.6941 3.76 69.6941 8.36V11.44C69.6941 16.06 72.4541 18.36 75.7741 18.36ZM75.7741 16.08C73.7541 16.08 72.2741 14.56 72.2741 11.32V8.48C72.2741 5.26 73.7541 3.72 75.7741 3.72C77.7941 3.72 79.2741 5.26 79.2741 8.48V11.32C79.2741 14.56 77.7941 16.08 75.7741 16.08ZM90.4811 18.36C93.7811 18.36 96.5411 16.06 96.5411 11.44V8.36C96.5411 3.76 93.7811 1.44 90.4811 1.44C87.1611 1.44 84.4011 3.76 84.4011 8.36V11.44C84.4011 16.06 87.1611 18.36 90.4811 18.36ZM90.4811 16.08C88.4611 16.08 86.9811 14.56 86.9811 11.32V8.48C86.9811 5.26 88.4611 3.72 90.4811 3.72C92.5011 3.72 93.9811 5.26 93.9811 8.48V11.32C93.9811 14.56 92.5011 16.08 90.4811 16.08ZM105.188 18.36C108.488 18.36 111.248 16.06 111.248 11.44V8.36C111.248 3.76 108.488 1.44 105.188 1.44C101.868 1.44 99.1081 3.76 99.1081 8.36V11.44C99.1081 16.06 101.868 18.36 105.188 18.36ZM105.188 16.08C103.168 16.08 101.688 14.56 101.688 11.32V8.48C101.688 5.26 103.168 3.72 105.188 3.72C107.208 3.72 108.688 5.26 108.688 8.48V11.32C108.688 14.56 107.208 16.08 105.188 16.08ZM122.115 13.96H126.855V15.26H129.415V0.48H126.855V12.06H122.115V13.96ZM119.335 8.06C122.255 8.06 124.475 6.86 124.475 4.54V4.34C124.475 1.98 122.255 0.779999 119.335 0.779999C116.395 0.779999 114.175 1.98 114.175 4.34V4.54C114.175 6.86 116.395 8.06 119.335 8.06ZM116.575 4.36C116.575 3.36 117.735 2.84 119.335 2.84C120.915 2.84 122.075 3.36 122.075 4.36V4.5C122.075 5.5 120.915 6 119.335 6C117.735 6 116.575 5.5 116.575 4.5V4.36ZM117.855 11.32C117.795 12.18 117.735 13.06 117.655 13.94L120.095 14.1C120.195 13.12 120.275 12.14 120.335 11.24C122.175 11.14 124.115 10.98 125.795 10.74L125.535 8.68C122.575 9.02 119.055 9.22 116.775 9.22H113.415L113.515 11.34H116.535C116.955 11.34 117.395 11.34 117.855 11.32ZM119.095 14.68H116.535V19.16H130.095V16.84H119.095V14.68Z" fill="black"/>
</svg>
