<svg width="44" height="30" viewBox="0 0 44 30" fill="none" xmlns="http://www.w3.org/2000/svg">
<rect width="44" height="30" rx="4" fill="#EFEFEF"/>
<path d="M12.6379 14.02C12.6379 12.74 12.8619 11.804 13.3099 11.212C13.7579 10.612 14.4259 10.312 15.3139 10.312C16.1859 10.312 16.8459 10.612 17.2939 11.212C17.7419 11.804 17.9659 12.74 17.9659 14.02C17.9659 15.292 17.7419 16.224 17.2939 16.816C16.8539 17.408 16.1939 17.704 15.3139 17.704C14.4259 17.704 13.7579 17.408 13.3099 16.816C12.8619 16.224 12.6379 15.292 12.6379 14.02ZM14.1019 14.02C14.1019 14.868 14.2019 15.48 14.4019 15.856C14.6019 16.224 14.9059 16.408 15.3139 16.408C15.6979 16.408 15.9939 16.224 16.2019 15.856C16.4179 15.48 16.5259 14.868 16.5259 14.02C16.5259 13.172 16.4179 12.56 16.2019 12.184C15.9939 11.8 15.6979 11.608 15.3139 11.608C14.9059 11.608 14.6019 11.8 14.4019 12.184C14.2019 12.56 14.1019 13.172 14.1019 14.02ZM19.3219 9.856H20.8219V20.176H19.3219V9.856ZM27.064 11.908V13.12H25.576V13.456C25.576 14.136 25.756 14.756 26.116 15.316C26.484 15.876 26.956 16.364 27.532 16.78L26.596 17.764C26.188 17.468 25.84 17.14 25.552 16.78C25.272 16.412 25.04 16.06 24.856 15.724C24.656 16.084 24.396 16.448 24.076 16.816C23.756 17.176 23.392 17.512 22.984 17.824L22.048 16.84C22.632 16.4 23.12 15.896 23.512 15.328C23.912 14.744 24.112 14.12 24.112 13.456V13.12H22.6V11.908H27.064ZM23.212 11.356V10.132H26.392V11.356H23.212ZM27.724 14.932H26.38V13.684H27.724V9.988H29.08V19.852H27.724V14.932ZM29.668 9.856H31.108V20.176H29.668V9.856Z" fill="black"/>
</svg>
