<svg width="144" height="46" viewBox="0 0 144 46" fill="none" xmlns="http://www.w3.org/2000/svg">
<path d="M10.512 11.3349L11.466 9.91291L6.678 6.49291C6.894 5.88091 7.002 5.25091 7.02 4.56691H10.89V2.96491H7.02V0.804915H5.274V2.96491H1.458V4.56691H5.256C5.166 6.81691 3.654 8.58091 0.882 10.2549L1.746 11.6949C3.654 10.5789 5.076 9.39091 5.958 8.02291L10.512 11.3349ZM13.212 0.930914V13.6209H14.994V0.930914H13.212ZM5.742 12.7389H3.942V17.6349H15.696V15.9969H5.742V12.7389ZM30.7484 9.75091C31.1264 7.46491 31.3604 5.05291 31.3604 3.14491V1.81291H19.4984V3.45091H29.5604V3.63091C29.5604 5.01691 29.3264 7.46491 28.9304 9.75091H17.7524V11.3889H24.7184V17.8329H26.5004V11.3889H33.4484V9.75091H30.7484ZM40.9788 11.6949C43.6968 10.5789 45.5688 9.33691 46.7028 8.00491L53.0748 11.6949L53.9568 10.1289L47.6388 6.56491C47.9088 5.97091 48.0348 5.35892 48.0528 4.74691H53.0208V3.10891H48.0528V1.09291H46.2528V3.10891H41.1588V4.74691H46.2528C46.1808 6.61891 44.2368 8.40091 40.2048 10.0929L40.9788 11.6949ZM47.9808 11.1729H46.1988V14.7189H39.2328V16.3569H54.9288V14.7189H47.9808V11.1729ZM69.1352 7.21291H66.9932V1.18291H65.3012V17.2929H66.9932V8.85091H69.1352V17.6349H70.8812V0.930914H69.1352V7.21291ZM58.7492 13.2789V3.81091H63.2132V2.15491H56.9492V14.9169H59.2352C61.0712 14.9169 62.5832 14.8269 64.1852 14.5389L64.0052 12.9369C62.3492 13.1889 60.9092 13.2789 59.4872 13.2789H58.7492ZM86.1855 7.21291H84.0615V1.18291H82.3515V17.2929H84.0615V8.85091H86.1855V17.6349H87.9315V0.930914H86.1855V7.21291ZM76.4115 0.948914V3.37891H73.3875V4.99891H81.2355V3.37891H78.2295V0.948914H76.4115ZM77.3475 6.49291C75.4035 6.49291 74.0715 8.02291 74.0715 10.4349V11.4069C74.0715 13.8189 75.4035 15.3669 77.3475 15.3669C79.2555 15.3669 80.5695 13.8189 80.5695 11.4069V10.4349C80.5695 8.02291 79.2555 6.49291 77.3475 6.49291ZM78.9135 11.2989C78.9135 12.8289 78.2655 13.7649 77.3295 13.7649C76.3935 13.7649 75.7275 12.8289 75.7275 11.2989V10.5609C75.7275 9.03092 76.3935 8.11291 77.3295 8.11291C78.2655 8.11291 78.9135 9.03092 78.9135 10.5609V11.2989ZM102.948 6.69091H98.9879V8.32891H102.948V17.6349H104.748V0.930914H102.948V6.69091ZM96.5939 1.90291H94.8479V4.08091C94.8479 8.07691 93.4259 11.1369 90.4199 14.1609L91.6799 15.3669C93.3899 13.6569 94.6139 11.9109 95.4239 10.0389L99.6899 15.1869L101.04 14.0349L96.0899 8.11291C96.4319 6.83491 96.5939 5.50291 96.5939 4.08091V1.90291Z" fill="black"/>
<path d="M14.058 35.2129V28.9309H12.258V45.6349H14.058V36.8509H16.65V35.2129H14.058ZM9.108 42.9349V30.1549H0.99V42.9349H9.108ZM7.308 31.8109V41.2789H2.79V31.8109H7.308ZM32.0624 45.6349V28.9309H30.2624V45.6349H32.0624ZM22.8284 43.4569C25.2404 43.4569 27.2384 41.8729 27.2384 37.8589V35.3209C27.2384 31.3069 25.2404 29.7229 22.8284 29.7229C20.3804 29.7229 18.3824 31.3069 18.3824 35.3209V37.8589C18.3824 41.8729 20.3804 43.4569 22.8284 43.4569ZM22.8284 41.8189C21.3524 41.8189 20.1824 40.7389 20.1824 37.8409V35.3389C20.1824 32.4229 21.3524 31.3609 22.8284 31.3609C24.3044 31.3609 25.4564 32.4229 25.4564 35.3389V37.8409C25.4564 40.7389 24.3044 41.8189 22.8284 41.8189ZM43.5687 38.8309H48.6087V30.0469H36.7467V38.8309H41.7867V42.7369H34.8207V44.3929H50.5167V42.7369H43.5687V38.8309ZM46.8087 31.6849V37.2109H38.5467V31.6849H46.8087ZM65.0492 39.1729H70.3412V37.5529H67.7312V31.6849H70.3412V30.0469H57.9572V31.6849H60.5672V37.5529H57.9572V39.1729H63.2672V42.7369H56.3012V44.3929H71.9972V42.7369H65.0492V39.1729ZM65.9852 31.6849V37.5529H62.3132V31.6849H65.9852ZM87.6975 41.4409V28.9309H85.8975V41.4409H87.6975ZM78.4995 38.7049C80.9655 38.7049 82.9635 37.2469 82.9635 34.2229V33.8809C82.9635 30.8209 80.9655 29.3809 78.4995 29.3809C76.0155 29.3809 74.0175 30.8209 74.0175 33.8809V34.2229C74.0175 37.2469 76.0155 38.7049 78.4995 38.7049ZM78.4995 37.1209C76.9875 37.1209 75.8175 36.1489 75.8175 34.1869V33.8989C75.8175 31.9189 76.9875 30.9649 78.4995 30.9649C79.9935 30.9649 81.1635 31.9189 81.1635 33.8989V34.1869C81.1635 36.1489 79.9935 37.1209 78.4995 37.1209ZM88.3995 45.6349V43.9969H78.4455V40.2169H76.6455V45.6349H88.3995ZM94.1639 38.1829V35.6809H104.226V34.0969H94.1639V31.6849H104.226V30.0469H92.3639V39.7849H104.568V38.1829H94.1639ZM90.4379 44.3929H106.134V42.7369H90.4379V44.3929ZM125.292 28.9309H123.492V38.2189H125.292V34.0609H127.884V32.4229H125.292V28.9309ZM118.614 29.6329V31.9009H113.952V29.6329H112.224V37.3009H120.342V29.6329H118.614ZM113.952 33.4669H118.614V35.7349H113.952V33.4669ZM125.382 40.8829V39.2629H114.582V45.6349H125.724V44.0149H116.382V40.8829H125.382ZM141.515 45.6349H143.297V28.9309H141.515V45.6349ZM136.367 31.8829V32.0809C136.367 35.6089 134.063 39.4429 129.743 42.2149L130.823 43.6369C135.467 40.5769 138.167 36.4549 138.167 31.7209V30.2449H130.103V31.8829H136.367Z" fill="#A132F9"/>
</svg>
