<svg width="58" height="16" viewBox="0 0 58 16" fill="none" xmlns="http://www.w3.org/2000/svg">
<path d="M12.328 15.464V0.615999H10.728V15.464H12.328ZM4.12 13.528C6.264 13.528 8.04 12.12 8.04 8.552V6.296C8.04 2.728 6.264 1.32 4.12 1.32C1.944 1.32 0.168 2.728 0.168 6.296V8.552C0.168 12.12 1.944 13.528 4.12 13.528ZM4.12 12.072C2.808 12.072 1.768 11.112 1.768 8.536V6.312C1.768 3.72 2.808 2.776 4.12 2.776C5.432 2.776 6.456 3.72 6.456 6.312V8.536C6.456 11.112 5.432 12.072 4.12 12.072ZM23.0039 5.912H25.9159V11.736H27.4999V0.615999H25.9159V4.536H23.0039V5.912ZM23.2279 9.72L24.1239 8.472L19.9479 5.24C20.1879 4.52 20.2999 3.768 20.2999 2.968V2.824H23.5479V1.4H15.5319V2.824H18.7319V2.968C18.7319 5.304 17.4839 6.984 14.9399 8.728L15.8039 9.96C17.3879 8.92 18.5559 7.832 19.3079 6.616L23.2279 9.72ZM19.2759 10.808H17.6759V15.464H28.1239V14.008H19.2759V10.808ZM41.3598 6.2H39.4558V0.839999H37.9518V15.16H39.4558V7.656H41.3598V15.464H42.9118V0.615999H41.3598V6.2ZM32.1278 11.592V3.176H36.0958V1.704H30.5278V13.048H32.5598C34.1918 13.048 35.5358 12.968 36.9598 12.712L36.7998 11.288C35.3278 11.512 34.0477 11.592 32.7838 11.592H32.1278ZM56.2596 15.464H57.8436V0.615999H56.2596V15.464ZM47.4276 5.72V1.56H45.8436V13.064H53.2036V1.56H51.6356V5.72H47.4276ZM47.4276 7.16H51.6356V11.608H47.4276V7.16Z" fill="#666666"/>
</svg>
