<svg width="68" height="17" viewBox="0 0 68 17" fill="none" xmlns="http://www.w3.org/2000/svg">
<path d="M13.212 0.0679991V12.578H14.994V0.0679991H13.212ZM10.458 9.788L11.466 8.42L6.606 4.784C6.912 3.92 7.056 2.984 7.056 1.994V0.698H5.292V1.994C5.292 4.658 3.924 6.764 0.864 8.726L1.854 10.13C3.672 8.96 4.986 7.736 5.85 6.35L10.458 9.788ZM5.742 11.534H3.96V16.772H15.696V15.134H5.742V11.534ZM29.1644 6.08C30.6944 5.648 31.6124 4.73 31.6124 3.29C31.6124 1.238 29.7404 0.247999 26.9144 0.247999H24.2864C21.4784 0.247999 19.5884 1.238 19.5884 3.29C19.5884 4.73 20.5244 5.666 22.0544 6.08V7.916H17.7524V9.464H33.4484V7.916H29.1644V6.08ZM21.3884 3.308C21.3884 2.282 22.5404 1.76 24.6104 1.76H26.6084C28.6784 1.76 29.8304 2.282 29.8304 3.308C29.8304 4.298 28.6784 4.856 26.6084 4.856H24.6104C22.5404 4.856 21.3884 4.316 21.3884 3.308ZM23.7644 6.332C24.9884 6.35 26.2304 6.35 27.4544 6.332V7.916H23.7644V6.332ZM23.6924 10.886C20.9924 10.886 19.4984 12.164 19.4984 13.91C19.4984 15.674 20.9924 16.952 23.6924 16.952H27.5084C30.2084 16.952 31.7024 15.674 31.7024 13.91C31.7024 12.164 30.2084 10.886 27.5084 10.886H23.6924ZM24.0524 15.386C22.1624 15.386 21.2984 14.81 21.2984 13.892C21.2984 13.01 22.1624 12.434 24.0524 12.434H27.1664C29.0564 12.434 29.9204 13.01 29.9204 13.892C29.9204 14.81 29.0564 15.386 27.1664 15.386H24.0524ZM48.1947 6.35V0.0679991H46.3947V16.772H48.1947V7.988H50.7867V6.35H48.1947ZM41.6967 3.02V3.218C41.6967 4.244 41.5167 5.288 41.1387 6.314C39.4647 6.476 36.8547 6.584 35.3067 6.602H35.0007L35.0907 8.222H35.4327C36.9087 8.222 38.8527 8.114 40.3827 7.97C39.2487 10.004 37.4127 11.912 34.9647 13.478L36.0627 14.9C40.6707 11.858 43.4967 7.772 43.4967 2.858V1.382H35.3427V3.02H41.6967ZM53.8151 1.184V10.148H65.6771V8.51H55.6151V2.822H65.4971V1.184H53.8151ZM67.5851 15.53V13.874H51.8891V15.53H67.5851Z" fill="black"/>
</svg>
