<svg width="102" height="34" viewBox="0 0 102 34" fill="none" xmlns="http://www.w3.org/2000/svg">
<path d="M6 11L11.1962 20H0.803848L6 11Z" fill="#A132F9"/>
<path d="M21.272 23.648V10.592H19.576L15.384 13.872L16.536 15.392L19.208 13.296V23.648H21.272ZM28.8099 23.888C31.4499 23.888 33.6579 22.048 33.6579 18.352V15.888C33.6579 12.208 31.4499 10.352 28.8099 10.352C26.1539 10.352 23.9459 12.208 23.9459 15.888V18.352C23.9459 22.048 26.1539 23.888 28.8099 23.888ZM28.8099 22.064C27.1939 22.064 26.0099 20.848 26.0099 18.256V15.984C26.0099 13.408 27.1939 12.176 28.8099 12.176C30.4259 12.176 31.6099 13.408 31.6099 15.984V18.256C31.6099 20.848 30.4259 22.064 28.8099 22.064ZM40.5755 23.888C43.2155 23.888 45.4235 22.048 45.4235 18.352V15.888C45.4235 12.208 43.2155 10.352 40.5755 10.352C37.9195 10.352 35.7115 12.208 35.7115 15.888V18.352C35.7115 22.048 37.9195 23.888 40.5755 23.888ZM40.5755 22.064C38.9595 22.064 37.7755 20.848 37.7755 18.256V15.984C37.7755 13.408 38.9595 12.176 40.5755 12.176C42.1915 12.176 43.3755 13.408 43.3755 15.984V18.256C43.3755 20.848 42.1915 22.064 40.5755 22.064ZM49.0611 26.4L49.8291 21.424H47.7171L47.3811 26.4H49.0611ZM56.7943 23.888C59.4343 23.888 61.6423 22.048 61.6423 18.352V15.888C61.6423 12.208 59.4343 10.352 56.7943 10.352C54.1383 10.352 51.9303 12.208 51.9303 15.888V18.352C51.9303 22.048 54.1383 23.888 56.7943 23.888ZM56.7943 22.064C55.1783 22.064 53.9943 20.848 53.9943 18.256V15.984C53.9943 13.408 55.1783 12.176 56.7943 12.176C58.4103 12.176 59.5943 13.408 59.5943 15.984V18.256C59.5943 20.848 58.4103 22.064 56.7943 22.064ZM68.5599 23.888C71.1999 23.888 73.4079 22.048 73.4079 18.352V15.888C73.4079 12.208 71.1999 10.352 68.5599 10.352C65.9039 10.352 63.6959 12.208 63.6959 15.888V18.352C63.6959 22.048 65.9039 23.888 68.5599 23.888ZM68.5599 22.064C66.9439 22.064 65.7599 20.848 65.7599 18.256V15.984C65.7599 13.408 66.9439 12.176 68.5599 12.176C70.1759 12.176 71.3599 13.408 71.3599 15.984V18.256C71.3599 20.848 70.1759 22.064 68.5599 22.064ZM80.3255 23.888C82.9655 23.888 85.1735 22.048 85.1735 18.352V15.888C85.1735 12.208 82.9655 10.352 80.3255 10.352C77.6695 10.352 75.4615 12.208 75.4615 15.888V18.352C75.4615 22.048 77.6695 23.888 80.3255 23.888ZM80.3255 22.064C78.7095 22.064 77.5255 20.848 77.5255 18.256V15.984C77.5255 13.408 78.7095 12.176 80.3255 12.176C81.9415 12.176 83.1255 13.408 83.1255 15.984V18.256C83.1255 20.848 81.9415 22.064 80.3255 22.064ZM93.8671 20.368H97.6591V21.408H99.7071V9.584H97.6591V18.848H93.8671V20.368ZM91.6431 15.648C93.9791 15.648 95.7551 14.688 95.7551 12.832V12.672C95.7551 10.784 93.9791 9.824 91.6431 9.824C89.2911 9.824 87.5151 10.784 87.5151 12.672V12.832C87.5151 14.688 89.2911 15.648 91.6431 15.648ZM89.4351 12.688C89.4351 11.888 90.3631 11.472 91.6431 11.472C92.9071 11.472 93.8351 11.888 93.8351 12.688V12.8C93.8351 13.6 92.9071 14 91.6431 14C90.3631 14 89.4351 13.6 89.4351 12.8V12.688ZM90.4591 18.256C90.4111 18.944 90.3631 19.648 90.2991 20.352L92.2511 20.48C92.3311 19.696 92.3951 18.912 92.4431 18.192C93.9151 18.112 95.4671 17.984 96.8111 17.792L96.6031 16.144C94.2351 16.416 91.4191 16.576 89.5951 16.576H86.9071L86.9871 18.272H89.4031C89.7391 18.272 90.0911 18.272 90.4591 18.256ZM91.4511 20.944H89.4031V24.528H100.251V22.672H91.4511V20.944Z" fill="#666666"/>
</svg>
