<svg width="103" height="24" viewBox="0 0 103 24" fill="none" xmlns="http://www.w3.org/2000/svg">
<circle cx="6" cy="12" r="6" fill="#19DCA1"/>
<path d="M26.5 18.156H27.872V5.164H26.5V18.156ZM21.936 8.3C21.964 7.978 21.978 7.656 21.978 7.334V6.186H17.092V7.46H20.606V7.614C20.606 10.358 19.304 13.27 16.784 15.594L17.806 16.602C19.892 14.586 21.292 12.248 21.782 9.532H23.686V12.374H21.488V13.606H23.686V17.89H25.016V5.36H23.686V8.3H21.936ZM40.3354 10.176V5.164H38.9354V18.156H40.3354V11.45H42.2254V10.176H40.3354ZM30.3954 12.92C31.7534 12.15 32.7614 11.338 33.4054 10.414L36.8354 12.794L37.6054 11.632L34.0354 9.21C34.2314 8.664 34.3294 8.076 34.3294 7.432H37.0734V6.186H30.1994V7.432H32.9154C32.9154 9.21 31.8374 10.484 29.6674 11.786L30.3954 12.92ZM34.3854 12.514H32.9854V14.838C32.5654 14.852 32.1874 14.866 31.8514 14.866H29.6114L29.6814 16.14H31.7394C33.5734 16.14 36.0654 15.986 38.0114 15.706L37.8574 14.474C36.7654 14.6 35.5334 14.712 34.3854 14.782V12.514ZM44.1748 19.36L49.0748 4.66H47.5908L42.6908 19.36H44.1748ZM54.445 6.438V5.01H53.031V6.438H50.105V7.614H57.357V6.438H54.445ZM57.343 9.602H59.485V11.142H57.343V12.248H59.485V15.02H60.871V5.164H59.485V8.496H57.343V9.602ZM56.811 10.778C56.811 9.21 55.481 8.37 53.759 8.37C52.009 8.37 50.679 9.21 50.679 10.778V10.988C50.679 12.57 52.009 13.424 53.759 13.424C55.481 13.424 56.811 12.57 56.811 10.988V10.778ZM52.009 10.806C52.009 10.022 52.751 9.532 53.759 9.532C54.739 9.532 55.481 10.022 55.481 10.806V10.96C55.481 11.758 54.739 12.248 53.759 12.248C52.751 12.248 52.009 11.758 52.009 10.96V10.806ZM53.675 14.488H52.289V18.156H61.417V16.882H53.675V14.488ZM73.0964 10.302C73.3344 8.944 73.4604 7.516 73.4604 6.396V5.57H64.5144V6.844H72.0744C72.0604 7.6 71.9344 8.986 71.6964 10.302H63.0164V11.534H75.2244V10.302H73.0964ZM73.7404 18.17V13.102H64.5144V18.17H73.7404ZM72.3404 14.306V16.938H65.9144V14.306H72.3404Z" fill="#333333"/>
<path d="M84.1334 10.148C83.2374 10.148 82.3834 10.498 81.8234 11.156L82.2574 7.348H87.3954V6.06H81.0534L80.3394 12.976H81.6274C82.0194 12.024 82.7614 11.436 83.8814 11.436C85.3934 11.436 86.4154 12.402 86.4154 13.886C86.4154 15.356 85.3934 16.322 83.8114 16.322C82.6774 16.322 81.6554 15.832 81.1934 14.768L80.0034 15.44C80.6474 16.896 82.2574 17.61 83.8814 17.61C86.2334 17.61 87.8014 16.098 87.8014 13.886C87.8014 11.674 86.2754 10.148 84.1334 10.148ZM91.8704 12.024C93.2284 12.024 94.3624 11.086 94.3624 9.462V8.398C94.3624 6.802 93.2284 5.85 91.8704 5.85C90.4984 5.85 89.3644 6.802 89.3644 8.398V9.462C89.3644 11.086 90.4984 12.024 91.8704 12.024ZM92.3744 17.4L100.2 6.06H98.6324L90.8064 17.4H92.3744ZM91.8704 10.848C91.1564 10.848 90.6104 10.33 90.6104 9.378V8.482C90.6104 7.544 91.1564 7.012 91.8704 7.012C92.5844 7.012 93.1164 7.544 93.1164 8.482V9.378C93.1164 10.33 92.5844 10.848 91.8704 10.848ZM99.0664 17.61C100.424 17.61 101.558 16.672 101.558 15.048V13.984C101.558 12.388 100.424 11.436 99.0664 11.436C97.6944 11.436 96.5604 12.388 96.5604 13.984V15.048C96.5604 16.672 97.6944 17.61 99.0664 17.61ZM99.0664 16.448C98.3524 16.448 97.8064 15.916 97.8064 14.964V14.068C97.8064 13.13 98.3524 12.598 99.0664 12.598C99.7804 12.598 100.312 13.13 100.312 14.068V14.964C100.312 15.916 99.7804 16.448 99.0664 16.448Z" fill="#999999"/>
</svg>
