<svg width="124" height="51" viewBox="0 0 124 51" fill="none" xmlns="http://www.w3.org/2000/svg">
<path d="M7.336 12.2669H7.658C9.996 12.2669 11.494 10.6709 11.494 8.64091C11.494 6.62491 9.996 5.04291 7.658 5.04291H5.628C3.29 5.04291 1.792 6.62491 1.792 8.64091C1.792 10.6709 3.29 12.2669 5.628 12.2669H5.95V15.1089H0.532V16.3829H12.74V15.1089H7.336V12.2669ZM3.178 8.65491C3.178 7.28291 4.2 6.30291 5.88 6.30291H7.406C9.086 6.30291 10.108 7.28291 10.108 8.65491C10.108 10.0269 9.086 11.0209 7.406 11.0209H5.88C4.2 11.0209 3.178 10.0269 3.178 8.65491ZM23.8314 4.37091V14.2409H25.1474V4.37091H23.8314ZM22.3754 13.8349V4.49691H21.0874V7.39491H19.4494V8.59891H21.0874V13.8349H22.3754ZM19.7854 10.9089C18.6794 11.0629 17.6854 11.1749 16.4394 11.1749H15.5434V9.29891H18.8194V5.05691H14.2554V6.30291H17.5314V8.06691H14.2554V12.4349H16.1874C17.7974 12.4349 18.8614 12.3229 19.9394 12.1129L19.7854 10.9089ZM17.7554 13.5689H16.3554V17.3629H25.6934V16.0889H17.7554V13.5689ZM36.8128 17.3629H38.2128V4.37091H36.8128V17.3629ZM32.0108 6.66691H34.9368V5.39291H27.7408V6.66691H30.6388V7.21291C30.6388 10.2089 29.4208 12.3789 27.2228 14.6609L28.2168 15.5989C29.5048 14.2689 30.4708 12.9389 31.1148 11.5109L34.4328 15.4589L35.4548 14.5349L31.6468 10.0409C31.8848 9.14491 32.0108 8.20691 32.0108 7.21291V6.66691ZM47.1622 10.5869H51.2082V9.42491H43.3822V8.19291H50.9422V4.65091H41.9262V5.81291H49.5422V7.04491H41.9822V10.5869H45.7762V11.9589H40.3582V13.1769H52.5662V11.9589H47.1622V10.5869ZM41.9822 14.1009V17.3629H51.2782V16.1029H43.3822V14.1009H41.9822Z" fill="black"/>
<path d="M12.888 36.6709H15.192V27.2569H12.888V36.6709ZM10.386 36.4729L11.502 34.5649L6.894 31.8829C7.092 31.2889 7.2 30.6589 7.236 29.9929H10.854V27.9589H1.386V29.9929H4.986C4.878 31.9369 3.654 33.4489 0.72 34.9789L1.782 36.8149C3.654 35.8969 5.022 34.8709 5.922 33.7009L10.386 36.4729ZM12.888 39.6589V44.2309H15.192V37.5889H3.582V39.6589H12.888ZM31.3064 27.2569H29.0204V36.4009H31.3064V32.6029H33.7364V30.5329H31.3064V27.2569ZM26.5724 36.2929L27.7064 34.4029L23.2964 31.7929C23.4764 31.2349 23.5844 30.6229 23.6024 29.9749H27.0764V27.9589H17.9504V29.9749H21.3704C21.2624 31.8289 20.0744 33.3409 17.3024 34.7989L18.3644 36.6529C20.1464 35.7529 21.4604 34.7809 22.3244 33.6469L26.5724 36.2929ZM23.9444 37.1389C21.5684 37.1389 19.8944 38.5609 19.8944 40.6849C19.8944 42.8269 21.5684 44.2309 23.9444 44.2309H27.6344C30.0284 44.2309 31.6844 42.8269 31.6844 40.6849C31.6844 38.5609 30.0284 37.1389 27.6344 37.1389H23.9444ZM24.2684 42.1789C22.9004 42.1789 22.1984 41.5669 22.1984 40.6669C22.1984 39.7849 22.9004 39.1729 24.2684 39.1729H27.2924C28.6784 39.1729 29.3804 39.7849 29.3804 40.6669C29.3804 41.5669 28.6784 42.1789 27.2924 42.1789H24.2684ZM49.3287 39.6769V27.2389H47.0247V39.6769H49.3287ZM39.9507 37.1569C42.5067 37.1569 44.5587 35.6809 44.5587 32.5309V32.2609C44.5587 29.0749 42.5067 27.5989 39.9507 27.5989C37.3767 27.5989 35.3067 29.0749 35.3067 32.2609V32.5309C35.3067 35.6809 37.3767 37.1569 39.9507 37.1569ZM39.9507 35.1409C38.6547 35.1409 37.6107 34.3129 37.6107 32.5129V32.2609C37.6107 30.4609 38.6547 29.6149 39.9507 29.6149C41.2107 29.6149 42.2727 30.4609 42.2727 32.2609V32.5129C42.2727 34.3129 41.2107 35.1409 39.9507 35.1409ZM49.9587 44.0509V41.9629H40.2207V38.5429H37.9167V44.0509H49.9587ZM68.5579 27.2389V39.6769H70.8619V27.2389H68.5579ZM65.8579 37.0849L67.1539 35.3209L62.5279 31.9009C62.7979 31.0369 62.9419 30.1189 62.9419 29.1469V27.8329H60.6919V29.1469C60.6919 31.5769 59.5219 33.6469 56.4439 35.6449L57.7219 37.4269C59.4139 36.3289 60.6919 35.1769 61.5559 33.8809L65.8579 37.0849ZM61.7539 38.6149H59.4499V44.0509H71.4739V41.9629H61.7539V38.6149ZM85.1043 33.3049C86.5443 32.8549 87.4443 31.9189 87.4443 30.4789C87.4443 28.3909 85.5003 27.3829 82.7463 27.3829H79.8123C77.0403 27.3829 75.1143 28.3909 75.1143 30.4789C75.1143 31.9009 75.9963 32.8549 77.4363 33.3049V34.9249H73.3503V36.8689H89.1903V34.9249H85.1043V33.3049ZM77.4003 30.4969C77.4003 29.6869 78.4263 29.2909 80.2443 29.2909H82.3143C84.1143 29.2909 85.1403 29.6869 85.1403 30.4969C85.1403 31.3249 84.1143 31.7389 82.3143 31.7389H80.2443C78.4263 31.7389 77.4003 31.3249 77.4003 30.4969ZM79.5963 33.6289H82.9443V34.9249H79.5963V33.6289ZM79.2723 38.0029C76.5903 38.0029 75.0243 39.3349 75.0243 41.1169C75.0243 42.9169 76.5903 44.2309 79.2723 44.2309H83.2683C85.9683 44.2309 87.5343 42.9169 87.5343 41.1169C87.5343 39.3349 85.9683 38.0029 83.2683 38.0029H79.2723ZM79.7043 42.2329C78.0303 42.2329 77.3103 41.8009 77.3103 41.0989C77.3103 40.3969 78.0303 39.9829 79.7043 39.9829H82.8543C84.5283 39.9829 85.2303 40.3969 85.2303 41.0989C85.2303 41.8009 84.5283 42.2329 82.8543 42.2329H79.7043ZM103.073 33.3229H101.399V27.5089H99.2206V43.6549H101.399V35.4109H103.073V44.0509H105.305V27.2389H103.073V33.3229ZM93.3526 39.2809V30.4969H97.4566V28.3909H91.0126V41.3869H93.6046C95.2966 41.3869 96.7006 41.3149 98.2306 41.0269L98.0146 38.9929C96.4666 39.2269 95.1526 39.2809 93.9286 39.2809H93.3526ZM109.161 34.1149C111.933 33.7549 113.805 33.2509 114.975 32.4949L121.545 34.1149L122.175 32.2789L116.307 30.8929C116.415 30.6229 116.469 30.3349 116.505 30.0109H121.329V28.1389H116.577V26.8969H114.363V28.1389H109.503V30.0109H114.363C114.021 31.0009 112.383 31.7749 108.639 32.2609L109.161 34.1149ZM123.327 34.5649H107.487V36.3289H114.255V37.3909H109.251V39.0829H119.187V39.8749H109.341V44.1409H121.941V42.3949H111.627V41.5669H121.491V37.3909H116.559V36.3289H123.327V34.5649Z" fill="black"/>
</svg>
