<svg width="176" height="51" viewBox="0 0 176 51" fill="none" xmlns="http://www.w3.org/2000/svg">
<path d="M9.408 9.04691C10.598 8.71091 11.312 7.99691 11.312 6.87691C11.312 5.28091 9.856 4.51091 7.658 4.51091H5.614C3.43 4.51091 1.96 5.28091 1.96 6.87691C1.96 7.99691 2.688 8.72491 3.878 9.04691V10.4749H0.532V11.6789H12.74V10.4749H9.408V9.04691ZM3.36 6.89091C3.36 6.09291 4.256 5.68691 5.866 5.68691H7.42C9.03 5.68691 9.926 6.09291 9.926 6.89091C9.926 7.66091 9.03 8.09491 7.42 8.09491H5.866C4.256 8.09491 3.36 7.67491 3.36 6.89091ZM5.208 9.24291C6.16 9.25691 7.126 9.25691 8.078 9.24291V10.4749H5.208V9.24291ZM5.152 12.7849C3.052 12.7849 1.89 13.7789 1.89 15.1369C1.89 16.5089 3.052 17.5029 5.152 17.5029H8.12C10.22 17.5029 11.382 16.5089 11.382 15.1369C11.382 13.7789 10.22 12.7849 8.12 12.7849H5.152ZM5.432 16.2849C3.962 16.2849 3.29 15.8369 3.29 15.1229C3.29 14.4369 3.962 13.9889 5.432 13.9889H7.854C9.324 13.9889 9.996 14.4369 9.996 15.1229C9.996 15.8369 9.324 16.2849 7.854 16.2849H5.432ZM20.6114 9.80291H24.3914V8.57091H16.8314V5.86891H24.2514V4.65091H15.4314V9.80291H19.2254V11.2729H13.8074V12.5469H26.0154V11.2729H20.6114V9.80291ZM15.4314 13.5969V17.3629H24.7274V16.0609H16.8314V13.5969H15.4314ZM33.8868 10.5869H37.9328V9.42491H30.1068V8.19291H37.6668V4.65091H28.6508V5.81291H36.2668V7.04491H28.7068V10.5869H32.5008V11.9589H27.0828V13.1769H39.2908V11.9589H33.8868V10.5869ZM28.7068 14.1009V17.3629H38.0028V16.1029H30.1068V14.1009H28.7068Z" fill="black"/>
<path d="M3.564 43.0609V32.1529L7.884 43.0609H10.224L14.544 32.1529V43.0609H16.83V28.3729H13.77L9.054 40.3249L4.338 28.3729H1.278V43.0609H3.564ZM29.3735 43.0609V40.9549H21.7595L29.1035 30.1909V28.3729H19.0955V30.4789H26.2415L18.8975 41.2249V43.0609H29.3735ZM43.3945 44.0509H45.6265V27.2389H43.3945V44.0509ZM37.3645 32.7829V34.8889H39.7405V43.6549H41.9185V27.5089H39.7405V32.7829H37.3645ZM35.8705 28.1749H33.6925V30.4609C33.6925 34.2229 32.7205 37.4269 30.5425 40.4689L32.2885 41.8009C33.3145 40.4149 34.1065 38.9749 34.6645 37.4629L37.1665 41.6389L39.0205 40.3789L35.5105 34.4929C35.7625 33.1969 35.8705 31.8649 35.8705 30.4609V28.1749ZM60.4808 33.3229H58.8068V27.5089H56.6288V43.6549H58.8068V35.4109H60.4808V44.0509H62.7128V27.2389H60.4808V33.3229ZM50.7608 39.2809V30.4969H54.8648V28.3909H48.4208V41.3869H51.0128C52.7048 41.3869 54.1088 41.3149 55.6388 41.0269L55.4228 38.9929C53.8748 39.2269 52.5608 39.2809 51.3368 39.2809H50.7608ZM83.292 37.6249L84.534 35.6989L78.072 31.6489C78.378 30.8749 78.522 30.0829 78.522 29.2549V28.0129H76.218V29.2549C76.218 31.4689 74.58 33.5569 70.026 35.6269L71.088 37.6249C73.86 36.4189 75.75 35.0509 76.938 33.5749L83.292 37.6249ZM78.432 37.0489H76.128V40.7749H69.36V42.8809H85.2V40.7749H78.432V37.0489ZM99.1364 30.7129H97.4804V27.4189H95.3744V36.6709H97.4804V32.7469H99.1364V36.6709H101.314V27.2569H99.1364V30.7129ZM94.0244 31.7029C94.0244 28.8949 92.4584 27.5269 90.3524 27.5269C88.2284 27.5269 86.6624 28.8949 86.6624 31.7029V31.9549C86.6624 34.7269 88.2284 36.1129 90.3524 36.1129C92.4584 36.1129 94.0244 34.7269 94.0244 31.9549V31.7029ZM88.7864 31.7209C88.7864 30.2809 89.4704 29.5249 90.3524 29.5249C91.2344 29.5249 91.9184 30.2809 91.9184 31.7209V31.9189C91.9184 33.3589 91.2344 34.1149 90.3524 34.1149C89.4704 34.1149 88.7864 33.3589 88.7864 31.9189V31.7209ZM99.0104 39.6589V44.2309H101.314V37.5889H89.5784V39.6589H99.0104ZM120.238 27.2389V39.6769H122.542V27.2389H120.238ZM117.538 37.0849L118.834 35.3209L114.208 31.9009C114.478 31.0369 114.622 30.1189 114.622 29.1469V27.8329H112.372V29.1469C112.372 31.5769 111.202 33.6469 108.124 35.6449L109.402 37.4269C111.094 36.3289 112.372 35.1769 113.236 33.8809L117.538 37.0849ZM113.434 38.6149H111.13V44.0509H123.154V41.9629H113.434V38.6149ZM136.784 33.3049C138.224 32.8549 139.124 31.9189 139.124 30.4789C139.124 28.3909 137.18 27.3829 134.426 27.3829H131.492C128.72 27.3829 126.794 28.3909 126.794 30.4789C126.794 31.9009 127.676 32.8549 129.116 33.3049V34.9249H125.03V36.8689H140.87V34.9249H136.784V33.3049ZM129.08 30.4969C129.08 29.6869 130.106 29.2909 131.924 29.2909H133.994C135.794 29.2909 136.82 29.6869 136.82 30.4969C136.82 31.3249 135.794 31.7389 133.994 31.7389H131.924C130.106 31.7389 129.08 31.3249 129.08 30.4969ZM131.276 33.6289H134.624V34.9249H131.276V33.6289ZM130.952 38.0029C128.27 38.0029 126.704 39.3349 126.704 41.1169C126.704 42.9169 128.27 44.2309 130.952 44.2309H134.948C137.648 44.2309 139.214 42.9169 139.214 41.1169C139.214 39.3349 137.648 38.0029 134.948 38.0029H130.952ZM131.384 42.2329C129.71 42.2329 128.99 41.8009 128.99 41.0989C128.99 40.3969 129.71 39.9829 131.384 39.9829H134.534C136.208 39.9829 136.91 40.3969 136.91 41.0989C136.91 41.8009 136.208 42.2329 134.534 42.2329H131.384ZM154.752 33.3229H153.078V27.5089H150.9V43.6549H153.078V35.4109H154.752V44.0509H156.984V27.2389H154.752V33.3229ZM145.032 39.2809V30.4969H149.136V28.3909H142.692V41.3869H145.284C146.976 41.3869 148.38 41.3149 149.91 41.0269L149.694 38.9929C148.146 39.2269 146.832 39.2809 145.608 39.2809H145.032ZM160.841 34.1149C163.613 33.7549 165.485 33.2509 166.655 32.4949L173.225 34.1149L173.855 32.2789L167.987 30.8929C168.095 30.6229 168.149 30.3349 168.185 30.0109H173.009V28.1389H168.257V26.8969H166.043V28.1389H161.183V30.0109H166.043C165.701 31.0009 164.063 31.7749 160.319 32.2609L160.841 34.1149ZM175.007 34.5649H159.167V36.3289H165.935V37.3909H160.931V39.0829H170.867V39.8749H161.021V44.1409H173.621V42.3949H163.307V41.5669H173.171V37.3909H168.239V36.3289H175.007V34.5649Z" fill="black"/>
</svg>
