<svg width="20" height="34" viewBox="0 0 20 34" fill="none" xmlns="http://www.w3.org/2000/svg">
<path d="M5.166 22.4V11.06H3.976L0.392 13.916L1.19 14.966L3.766 12.908V22.4H5.166ZM13.3219 17.108H16.9339V17.528H18.3339V10.164H16.9339V16.142H13.3219V17.108ZM11.4739 14.112C13.4479 14.112 14.9599 13.44 14.9599 12.25V12.166C14.9599 10.962 13.4479 10.318 11.4739 10.318C9.47188 10.318 7.97388 10.962 7.97388 12.166V12.25C7.97388 13.44 9.47188 14.112 11.4739 14.112ZM9.30388 12.18C9.30388 11.69 10.1859 11.382 11.4739 11.382C12.7479 11.382 13.6299 11.69 13.6299 12.18V12.222C13.6299 12.726 12.7479 13.034 11.4739 13.034C10.1859 13.034 9.30388 12.726 9.30388 12.222V12.18ZM10.6339 15.848C10.5919 16.408 10.5499 17.01 10.4799 17.57L11.8379 17.654C11.9079 17.038 11.9499 16.394 11.9919 15.792C13.3499 15.722 14.7919 15.61 16.0099 15.442L15.8839 14.434C13.8259 14.686 11.2779 14.826 9.68188 14.826H7.32988L7.38588 15.862H9.56988C9.90588 15.862 10.2559 15.862 10.6339 15.848ZM10.9699 21.182H18.3339V18.13H9.54188V19.222H16.9759V20.104H9.61188V23.226H18.8099V22.12H10.9699V21.182Z" fill="#666666"/>
</svg>
