<svg width="73" height="75" viewBox="0 0 73 75" fill="none" xmlns="http://www.w3.org/2000/svg">
<path d="M9.024 9.2028V13.6548H9.876V5.2428H9.024V8.4228H6.12C6.396 7.8468 6.54 7.2228 6.54 6.5508V5.9628H1.32V6.7428H5.688C5.688 8.5068 3.924 10.1988 1.14 11.2668L1.5 11.9988C3.36 11.2908 4.788 10.3548 5.64 9.2028H9.024ZM3.612 12.7788H2.76V16.3188H10.392V15.5268H3.612V12.7788ZM20.6309 5.2548H19.7669V11.3028H20.6309V8.5068H22.4669V7.7268H20.6309V5.2548ZM17.4149 5.9028H12.3149V6.6948H16.5629C16.5149 8.2548 14.7989 9.6708 12.1229 10.5588L12.4589 11.3028C15.5189 10.2828 17.4149 8.6988 17.4149 6.4428V5.9028ZM16.0829 11.9748C14.4629 11.9748 13.4909 12.9588 13.4909 14.2068C13.4909 15.4668 14.4629 16.4268 16.0829 16.4268H18.3149C19.9349 16.4268 20.8949 15.4668 20.8949 14.2068C20.8949 12.9588 19.9349 11.9748 18.3149 11.9748H16.0829ZM16.2509 15.6588C14.9789 15.6588 14.3549 15.0348 14.3549 14.1948C14.3549 13.3908 14.9789 12.7428 16.2509 12.7428H18.1469C19.4189 12.7428 20.0309 13.3908 20.0309 14.1948C20.0309 15.0348 19.4189 15.6588 18.1469 15.6588H16.2509ZM31.9978 9.5748V5.2428H31.1458V16.3188H31.9978V10.3668H33.8458V9.5748H31.9978ZM26.1058 5.2548V7.0068H23.3218V7.7868H29.7418V7.0068H26.9578V5.2548H26.1058ZM26.5498 8.9268C25.0498 8.9268 23.8618 9.9108 23.8618 11.5188V12.1548C23.8618 13.7508 25.0498 14.7588 26.5498 14.7588C28.0378 14.7588 29.2138 13.7508 29.2138 12.1548V11.5188C29.2138 9.9108 28.0378 8.9268 26.5498 8.9268ZM28.3618 12.1188C28.3618 13.2708 27.5578 13.9788 26.5498 13.9788C25.5178 13.9788 24.7258 13.2708 24.7258 12.1188V11.5548C24.7258 10.4028 25.5178 9.7188 26.5498 9.7188C27.5578 9.7188 28.3618 10.4028 28.3618 11.5548V12.1188ZM43.3047 16.3188H44.1447V5.2428H43.3047V16.3188ZM38.8407 9.8148C39.1047 8.9388 39.2487 8.0148 39.2487 7.0428V6.1908H35.1207V6.9708H38.3967V7.2108C38.3967 9.8028 37.0407 12.3948 34.9167 14.2908L35.5287 14.9148C36.8727 13.6788 37.9287 12.2268 38.5767 10.5948H40.9167V16.1148H41.7447V5.4228H40.9167V9.8148H38.8407Z" fill="black"/>
<path d="M14.238 32.6348V26.5508H11.952V43.3628H14.238V34.7228H16.686V32.6348H14.238ZM4.392 26.5688V28.8548H0.612V30.9068H10.494V28.8548H6.714V26.5688H4.392ZM5.562 32.1848C3.204 32.1848 1.332 33.7508 1.332 36.1808V37.1708C1.332 39.6008 3.204 41.1848 5.562 41.1848C7.938 41.1848 9.774 39.6008 9.774 37.1708V36.1808C9.774 33.7508 7.938 32.1848 5.562 32.1848ZM7.488 37.0808C7.488 38.3768 6.642 39.1328 5.562 39.1328C4.482 39.1328 3.636 38.3768 3.636 37.0808V36.2708C3.636 34.9748 4.482 34.2368 5.562 34.2368C6.642 34.2368 7.488 34.9748 7.488 36.2708V37.0808ZM19.5344 30.5468V35.6768H32.0444V33.7868H21.8204V32.4008H31.6844V27.2528H19.4444V29.1788H29.3804V30.5468H19.5344ZM17.6804 37.2068V39.2048H24.4484V43.5608H26.7524V39.2048H33.5204V37.2068H17.6804ZM47.4027 43.3628H49.6347V26.5508H47.4027V43.3628ZM42.1827 32.7968C42.1467 28.8188 40.5987 27.2708 38.6007 27.2708C36.5667 27.2708 34.9827 28.8548 34.9827 32.9588V35.5328C34.9827 39.6368 36.5667 41.2208 38.6007 41.2208C40.6167 41.2208 42.1827 39.6368 42.1827 35.5328V34.9028H43.7487V42.9668H45.9267V26.8208H43.7487V32.7968H42.1827ZM40.0227 35.5328C40.0227 38.2328 39.4107 39.1328 38.6007 39.1328C37.7907 39.1328 37.1607 38.2328 37.1607 35.5328V32.9588C37.1607 30.2588 37.7907 29.3588 38.6007 29.3588C39.4107 29.3588 40.0227 30.2588 40.0227 32.9588V35.5328ZM14.256 52.5508H11.952V64.9888H14.256V58.6168H16.686V56.5288H14.256V52.5508ZM0.828 53.3608V62.0368H9.27V53.3608H0.828ZM3.06 60.0208V55.3768H7.038V60.0208H3.06ZM3.186 63.9268V69.3628H15.03V67.2748H5.49V63.9268H3.186ZM26.7524 62.9728H31.6844V53.5048H29.3804V56.2408H21.8204V53.5048H19.5344V62.9728H24.4484V66.0868H17.6804V68.1928H33.5204V66.0868H26.7524V62.9728ZM29.3804 58.3288V60.9028H21.8204V58.3288H29.3804ZM51.4896 58.5808V61.8028H53.7936V52.5508H51.4896V56.5468H48.2856C48.5196 55.8808 48.6456 55.1608 48.6456 54.3688V53.3608H40.3296V55.4488H46.2336C45.8916 57.1228 43.7676 58.7788 39.8616 59.8048L40.7076 61.8748C43.4976 61.1008 45.6576 60.0388 47.0076 58.5808H51.4896ZM44.6856 64.7728H53.8476V62.7208H42.3816V69.3628H54.1536V67.3108H44.6856V64.7728ZM68.5579 69.3628H70.8619V52.5508H68.5579V69.3628ZM63.3379 55.8988C63.3379 59.0848 61.3399 62.8468 56.8939 65.6368L58.2979 67.4548C63.0499 64.3768 65.6779 60.2368 65.6779 55.4488V53.7928H57.3799V55.8988H63.3379Z" fill="black"/>
</svg>
