<svg width="69" height="75" viewBox="0 0 69 75" fill="none" xmlns="http://www.w3.org/2000/svg">
<path d="M9.24 5.2428H8.388V13.6548H9.24V8.9748H11.088V8.1828H9.24V5.2428ZM6.288 8.5188C6.288 6.5508 5.028 5.6028 3.48 5.6028C1.908 5.6028 0.648 6.5508 0.648 8.5188V8.7708C0.648 10.7268 1.908 11.6628 3.48 11.6628C5.028 11.6628 6.288 10.7268 6.288 8.7708V8.5188ZM1.5 8.5188C1.5 7.1028 2.34 6.3708 3.48 6.3708C4.596 6.3708 5.424 7.1028 5.424 8.5188V8.7588C5.424 10.1748 4.596 10.8948 3.48 10.8948C2.34 10.8948 1.5 10.1748 1.5 8.7588V8.5188ZM2.352 12.9468V16.3188H9.876V15.5268H3.216V12.9468H2.352ZM18.0029 9.0708H20.3909V13.6548H21.2429V5.2428H20.3909V8.3148H18.0029V9.0708ZM18.8309 11.3268L15.5549 8.6988C15.7469 8.1468 15.8429 7.5708 15.8429 6.9468V6.6708H18.3869V5.9028H12.4829V6.6708H15.0029V6.9468C15.0029 8.8428 13.9349 10.1628 12.0509 11.5188L12.5189 12.1788C13.7669 11.3268 14.6669 10.4388 15.2069 9.4548L18.3389 11.9988L18.8309 11.3268ZM14.9789 12.9468H14.1269V16.3188H21.7589V15.5268H14.9789V12.9468ZM31.9978 9.5748V5.2428H31.1458V16.3188H31.9978V10.3668H33.8458V9.5748H31.9978ZM26.1058 5.2548V7.0068H23.3218V7.7868H29.7418V7.0068H26.9578V5.2548H26.1058ZM26.5498 8.9268C25.0498 8.9268 23.8618 9.9108 23.8618 11.5188V12.1548C23.8618 13.7508 25.0498 14.7588 26.5498 14.7588C28.0378 14.7588 29.2138 13.7508 29.2138 12.1548V11.5188C29.2138 9.9108 28.0378 8.9268 26.5498 8.9268ZM28.3618 12.1188C28.3618 13.2708 27.5578 13.9788 26.5498 13.9788C25.5178 13.9788 24.7258 13.2708 24.7258 12.1188V11.5548C24.7258 10.4028 25.5178 9.7188 26.5498 9.7188C27.5578 9.7188 28.3618 10.4028 28.3618 11.5548V12.1188ZM43.3047 16.3188H44.1447V5.2428H43.3047V16.3188ZM38.8407 9.8148C39.1047 8.9388 39.2487 8.0148 39.2487 7.0428V6.1908H35.1207V6.9708H38.3967V7.2108C38.3967 9.8028 37.0407 12.3948 34.9167 14.2908L35.5287 14.9148C36.8727 13.6788 37.9287 12.2268 38.5767 10.5948H40.9167V16.1148H41.7447V5.4228H40.9167V9.8148H38.8407Z" fill="black"/>
<path d="M12.888 26.5508V38.9888H15.192V26.5508H12.888ZM10.188 36.3968L11.484 34.6328L6.858 31.2128C7.128 30.3488 7.272 29.4308 7.272 28.4588V27.1448H5.022V28.4588C5.022 30.8888 3.852 32.9588 0.774 34.9568L2.052 36.7388C3.744 35.6408 5.022 34.4888 5.886 33.1928L10.188 36.3968ZM6.084 37.9268H3.78V43.3628H15.804V41.2748H6.084V37.9268ZM29.4344 32.6168C30.8744 32.1668 31.7744 31.2308 31.7744 29.7908C31.7744 27.7028 29.8304 26.6948 27.0764 26.6948H24.1424C21.3704 26.6948 19.4444 27.7028 19.4444 29.7908C19.4444 31.2128 20.3264 32.1668 21.7664 32.6168V34.2368H17.6804V36.1808H33.5204V34.2368H29.4344V32.6168ZM21.7304 29.8088C21.7304 28.9988 22.7564 28.6028 24.5744 28.6028H26.6444C28.4444 28.6028 29.4704 28.9988 29.4704 29.8088C29.4704 30.6368 28.4444 31.0508 26.6444 31.0508H24.5744C22.7564 31.0508 21.7304 30.6368 21.7304 29.8088ZM23.9264 32.9408H27.2744V34.2368H23.9264V32.9408ZM23.6024 37.3148C20.9204 37.3148 19.3544 38.6468 19.3544 40.4288C19.3544 42.2288 20.9204 43.5428 23.6024 43.5428H27.5984C30.2984 43.5428 31.8644 42.2288 31.8644 40.4288C31.8644 38.6468 30.2984 37.3148 27.5984 37.3148H23.6024ZM24.0344 41.5448C22.3604 41.5448 21.6404 41.1128 21.6404 40.4108C21.6404 39.7088 22.3604 39.2948 24.0344 39.2948H27.1844C28.8584 39.2948 29.5604 39.7088 29.5604 40.4108C29.5604 41.1128 28.8584 41.5448 27.1844 41.5448H24.0344ZM47.0247 30.0248H44.0727V31.9868H47.0247V35.6228H49.3287V26.5508H47.0247V30.0248ZM44.1987 35.6048L45.3147 33.7148L40.8687 31.1408C41.0667 30.5648 41.1747 29.9348 41.2107 29.2868H44.6847V27.2708H35.5227V29.2868H38.9787C38.8707 31.1408 37.6647 32.5808 34.8567 34.0028L35.9187 35.8748C37.7007 35.0108 38.9967 34.0568 39.8787 32.9588L44.1987 35.6048ZM49.3287 43.3628V36.5408H37.8987V43.3628H49.3287ZM47.0247 38.5748V41.3108H40.2027V38.5748H47.0247ZM65.6771 35.1008L66.7571 33.1388L60.5651 29.8988C60.8531 29.1968 60.9791 28.4768 60.9791 27.7208V26.7308H58.6751V27.7208C58.6751 29.6468 57.0911 31.4468 52.7171 33.1028L53.6351 35.1008C56.2991 34.1468 58.1531 33.0308 59.3231 31.7708L65.6771 35.1008ZM51.8171 36.7568V38.8448H58.5851V43.5428H60.8891V38.8448H67.6571V36.7568H51.8171ZM9.684 62.9728H14.616V53.5048H12.312V56.2408H4.752V53.5048H2.466V62.9728H7.38V66.0868H0.612V68.1928H16.452V66.0868H9.684V62.9728ZM12.312 58.3288V60.9028H4.752V58.3288H12.312ZM29.9564 69.3628H32.2604V52.5508H29.9564V69.3628ZM24.7364 55.8988C24.7364 59.0848 22.7384 62.8468 18.2924 65.6368L19.6964 67.4548C24.4484 64.3768 27.0764 60.2368 27.0764 55.4488V53.7928H18.7784V55.8988H24.7364Z" fill="black"/>
</svg>
