<svg width="118" height="43" viewBox="0 0 118 43" fill="none" xmlns="http://www.w3.org/2000/svg">
<path d="M10.512 10.004C10.512 6.656 8.334 4.946 5.724 4.946C3.168 4.946 0.954 6.638 0.954 9.896V11.102C0.954 14.378 3.204 16.07 5.76 16.07C7.812 16.07 9.684 15.08 10.35 13.154L8.694 12.614C8.208 13.838 7.038 14.468 5.76 14.468C4.14 14.468 2.754 13.334 2.718 11.156H10.512V10.004ZM2.736 9.626C2.844 7.61 4.158 6.566 5.724 6.566C7.434 6.566 8.712 7.754 8.712 9.626H2.736ZM24.9974 5.162V9.266H26.7074V0.0679991H24.9974V3.578H22.9094V0.247999H21.2534V9.104H22.9094V5.162H24.9974ZM17.7974 0.788V3.056H14.1974V0.788H12.5954V8.492H19.3994V0.788H17.7974ZM14.1974 4.64H17.7974V6.908H14.1974V4.64ZM19.1474 10.148C16.6814 10.148 15.1334 11.552 15.1334 13.55C15.1334 15.548 16.6814 16.952 19.1474 16.952H22.9094C25.3754 16.952 26.9234 15.548 26.9234 13.55C26.9234 11.552 25.3754 10.148 22.9094 10.148H19.1474ZM19.4354 15.332C17.7434 15.332 16.9334 14.594 16.9334 13.55C16.9334 12.488 17.7434 11.75 19.4354 11.75H22.6214C24.3134 11.75 25.1234 12.488 25.1234 13.55C25.1234 14.594 24.3134 15.332 22.6214 15.332H19.4354ZM41.7237 0.0679991V9.176H43.5057V0.0679991H41.7237ZM38.6277 0.86H30.2757V2.39H36.9897C36.9717 2.912 36.8457 3.416 36.6297 3.902C34.8837 4.064 31.9317 4.172 30.2937 4.172H29.9337L30.0057 5.594H30.4017C31.8957 5.594 33.9477 5.486 35.5677 5.342C34.3797 6.494 32.4897 7.448 29.9517 8.114L30.4917 9.572C35.6397 8.15 38.6277 5.72 38.6277 1.868V0.86ZM36.0897 10.058C33.6597 10.058 32.1117 11.498 32.1117 13.496C32.1117 15.512 33.6597 16.952 36.0897 16.952H39.7437C42.1737 16.952 43.7217 15.512 43.7217 13.496C43.7217 11.498 42.1737 10.058 39.7437 10.058H36.0897ZM36.3957 15.332C34.7217 15.332 33.9117 14.558 33.9117 13.496C33.9117 12.434 34.7217 11.66 36.3957 11.66H39.4557C41.1117 11.66 41.9397 12.434 41.9397 13.496C41.9397 14.558 41.1117 15.332 39.4557 15.332H36.3957ZM59.9282 5.234H63.1862V9.176H64.9862V0.0679991H63.1862V3.686H59.9282V5.234ZM60.2702 9.086L61.1702 7.61L56.4902 4.658C56.7422 3.974 56.8682 3.254 56.8682 2.462H60.5222V0.86H51.5222V2.462H55.1222C55.1222 4.676 53.7362 6.296 50.8562 7.916L51.7022 9.356C53.5382 8.366 54.8882 7.304 55.7342 6.098L60.2702 9.086ZM57.5702 10.058C55.1402 10.058 53.5922 11.498 53.5922 13.496C53.5922 15.512 55.1402 16.952 57.5702 16.952H61.2062C63.6542 16.952 65.2022 15.512 65.2022 13.496C65.2022 11.498 63.6542 10.058 61.2062 10.058H57.5702ZM57.8582 15.332C56.2022 15.332 55.3742 14.558 55.3742 13.496C55.3742 12.434 56.2022 11.66 57.8582 11.66H60.9362C62.5922 11.66 63.4022 12.434 63.4022 13.496C63.4022 14.558 62.5922 15.332 60.9362 15.332H57.8582ZM80.2725 16.772H82.0545V0.0679991H80.2725V16.772ZM75.1245 3.02V3.218C75.1245 6.746 72.8205 10.58 68.5005 13.352L69.5805 14.774C74.2245 11.714 76.9245 7.592 76.9245 2.858V1.382H68.8605V3.02H75.1245ZM97.6289 16.772H99.3929V0.0679991H97.6289V16.772ZM91.8149 3.92C91.2929 1.76 90.0689 0.86 88.5929 0.86C86.6129 0.86 85.1009 2.444 85.1009 6.458V8.996C85.1009 13.01 86.6129 14.594 88.5929 14.594C90.2489 14.594 91.5629 13.478 91.9589 10.742H94.0109V16.43H95.7209V0.319999H94.0109V3.92H91.8149ZM90.3749 8.978C90.3749 11.876 89.6189 12.956 88.5929 12.956C87.5669 12.956 86.8109 11.876 86.8109 8.978V6.476C86.8109 3.56 87.5669 2.498 88.5929 2.498C89.6189 2.498 90.3749 3.56 90.3749 6.476V8.978ZM92.0669 9.158V8.996V6.458C92.0669 6.134 92.0489 5.81 92.0309 5.522H94.0109V9.158H92.0669ZM114.841 6.674C115.147 4.928 115.309 3.092 115.309 1.652V0.589999H103.807V2.228H113.527C113.509 3.2 113.347 4.982 113.041 6.674H101.881V8.258H117.577V6.674H114.841ZM115.669 16.79V10.274H103.807V16.79H115.669ZM113.869 11.822V15.206H105.607V11.822H113.869ZM9.432 32.926H14.292V26.338H12.492V28.228H4.572V26.338H2.772V32.926H7.65V34.582H0.684V36.13H16.38V34.582H9.432V32.926ZM12.492 29.704V31.45H4.572V29.704H12.492ZM12.672 39.334V42.952H14.472V37.75H2.61V39.334H12.672ZM32.0624 42.772V26.068H30.2804V42.772H32.0624ZM21.8024 40.396C24.1964 40.396 26.7344 40.18 28.6784 39.82L28.4624 38.254C26.4104 38.578 24.0344 38.776 22.1264 38.776H20.4524V34.546H26.6804V27.292H18.6524V28.912H24.8804V32.962H18.6524V40.396H21.8024ZM47.3307 35.446H49.1307V26.068H47.3307V35.446ZM44.6307 34.96L45.5847 33.538L40.7607 30.298C41.0487 29.506 41.1927 28.66 41.1927 27.742V26.608H39.4107V27.742C39.4107 30.172 38.0427 32.08 34.9827 33.88L35.9187 35.32C37.7547 34.258 39.1047 33.106 39.9687 31.828L44.6307 34.96ZM47.3307 38.128V42.952H49.1307V36.49H37.8987V38.128H47.3307Z" fill="black"/>
</svg>
