<svg width="75" height="50" viewBox="0 0 75 50" fill="none" xmlns="http://www.w3.org/2000/svg">
<path d="M26.882 17.398C27.62 19.468 29.33 21.124 32.318 21.124C35.468 21.124 37.646 19.432 37.646 16.84C37.646 15.004 36.476 13.798 35.036 13.276C36.242 12.754 37.304 11.746 37.304 9.928C37.304 7.354 35.162 5.896 32.282 5.896C29.546 5.896 27.998 7.444 27.296 9.334L29.348 10.108C29.78 8.992 30.608 7.966 32.282 7.966C33.956 7.966 35.036 8.74 35.036 10.072C35.036 11.386 34.046 12.322 32.048 12.322H30.14V14.266H32.048C34.316 14.266 35.396 15.382 35.396 16.732C35.396 18.064 34.28 19.054 32.318 19.054C30.374 19.054 29.42 17.92 28.934 16.642L26.882 17.398ZM41.2989 21.124C42.1089 21.124 42.7569 20.476 42.7569 19.666C42.7569 18.856 42.1089 18.19 41.2989 18.19C40.4889 18.19 39.8409 18.856 39.8409 19.666C39.8409 20.476 40.4889 21.124 41.2989 21.124ZM50.3946 21.124C53.5086 21.124 55.8306 19.612 55.8306 16.768C55.8306 15.292 54.9126 13.96 53.0946 13.24C54.7506 12.592 55.4526 11.386 55.4526 10.018C55.4526 7.318 53.2926 5.896 50.3946 5.896C47.5146 5.896 45.3366 7.318 45.3366 10.018C45.3366 11.386 46.0386 12.592 47.6946 13.24C45.8766 13.96 44.9586 15.292 44.9586 16.768C44.9586 19.612 47.3166 21.124 50.3946 21.124ZM50.3946 12.304C48.6486 12.304 47.6406 11.458 47.6406 10.144C47.6406 8.812 48.6486 7.966 50.3946 7.966C52.1406 7.966 53.1666 8.812 53.1666 10.144C53.1666 11.458 52.1406 12.304 50.3946 12.304ZM50.3946 19.054C48.4146 19.054 47.2446 18.118 47.2446 16.66C47.2446 15.238 48.4506 14.284 50.3946 14.284C52.3386 14.284 53.5446 15.238 53.5446 16.66C53.5446 18.118 52.3746 19.054 50.3946 19.054ZM60.9682 13.942C62.7862 13.942 64.3162 12.7 64.3162 10.594V9.226C64.3162 7.156 62.7862 5.896 60.9682 5.896C59.1502 5.896 57.6202 7.156 57.6202 9.226V10.594C57.6202 12.7 59.1502 13.942 60.9682 13.942ZM61.8682 20.854L72.0742 6.166H69.5182L59.3122 20.854H61.8682ZM60.9682 12.052C60.1942 12.052 59.6362 11.44 59.6362 10.45V9.388C59.6362 8.398 60.1942 7.786 60.9682 7.786C61.7422 7.786 62.3182 8.38 62.3182 9.388V10.45C62.3182 11.458 61.7422 12.052 60.9682 12.052ZM70.3462 21.124C72.1642 21.124 73.6942 19.882 73.6942 17.776V16.408C73.6942 14.338 72.1642 13.078 70.3462 13.078C68.5282 13.078 66.9982 14.338 66.9982 16.408V17.776C66.9982 19.882 68.5282 21.124 70.3462 21.124ZM70.3462 19.234C69.5722 19.234 69.0142 18.622 69.0142 17.632V16.57C69.0142 15.58 69.5722 14.968 70.3462 14.968C71.1202 14.968 71.6962 15.562 71.6962 16.57V17.632C71.6962 18.64 71.1202 19.234 70.3462 19.234Z" fill="black"/>
<path d="M3.69 43V34.9H2.84L0.28 36.94L0.85 37.69L2.69 36.22V43H3.69ZM10.9056 43V42.08H6.86563L9.15563 39.81C10.1256 38.85 10.7156 38.05 10.7156 36.95C10.7156 35.59 9.67563 34.75 8.11563 34.75C6.59563 34.75 5.71563 35.85 5.38563 37.04L6.33563 37.27C6.60563 36.38 7.11563 35.65 8.11563 35.65C9.14563 35.65 9.72563 36.18 9.72563 36.99C9.72563 37.74 9.30563 38.37 8.39563 39.27L5.42562 42.22V43H10.9056ZM19.082 37.75H17.902V34.4H16.952V43.35H17.902V38.66H19.082V43.54H20.062V34.26H19.082V37.75ZM14.902 35.9V36.01C14.902 37.97 13.962 40.05 12.142 41.7L12.862 42.43C14.762 40.62 15.872 38.44 15.872 35.81V34.99H12.362V35.9H14.902ZM25.8145 39.22H28.3945V39.52H29.3945V34.26H28.3945V38.53H25.8145V39.22ZM24.4945 37.08C25.9045 37.08 26.9845 36.6 26.9845 35.75V35.69C26.9845 34.83 25.9045 34.37 24.4945 34.37C23.0645 34.37 21.9945 34.83 21.9945 35.69V35.75C21.9945 36.6 23.0645 37.08 24.4945 37.08ZM22.9445 35.7C22.9445 35.35 23.5745 35.13 24.4945 35.13C25.4045 35.13 26.0345 35.35 26.0345 35.7V35.73C26.0345 36.09 25.4045 36.31 24.4945 36.31C23.5745 36.31 22.9445 36.09 22.9445 35.73V35.7ZM23.8945 38.32C23.8645 38.72 23.8345 39.15 23.7845 39.55L24.7545 39.61C24.8045 39.17 24.8345 38.71 24.8645 38.28C25.8345 38.23 26.8645 38.15 27.7345 38.03L27.6445 37.31C26.1745 37.49 24.3545 37.59 23.2145 37.59H21.5345L21.5745 38.33H23.1345C23.3745 38.33 23.6245 38.33 23.8945 38.32ZM24.1345 42.13H29.3945V39.95H23.1145V40.73H28.4245V41.36H23.1645V43.59H29.7345V42.8H24.1345V42.13ZM37.408 39.91C38.268 39.91 38.898 39.22 39.168 38.45L38.298 38.11C38.098 38.59 37.858 38.95 37.328 38.95C36.678 38.95 36.118 37.99 35.148 37.99C34.288 37.99 33.668 38.67 33.398 39.45L34.268 39.79C34.458 39.34 34.698 38.95 35.238 38.95C35.878 38.95 36.448 39.91 37.408 39.91ZM48.1615 43V42.08H44.1215L46.4115 39.81C47.3815 38.85 47.9715 38.05 47.9715 36.95C47.9715 35.59 46.9315 34.75 45.3715 34.75C43.8515 34.75 42.9715 35.85 42.6415 37.04L43.5915 37.27C43.8615 36.38 44.3715 35.65 45.3715 35.65C46.4015 35.65 46.9815 36.18 46.9815 36.99C46.9815 37.74 46.5615 38.37 45.6515 39.27L42.6815 42.22V43H48.1615ZM54.0752 40.48V34.9H52.7352L49.0152 40.58V41.4H53.0852V43.15H54.0752V41.4H55.3252V40.48H54.0752ZM53.0852 36.04V40.48H50.2152L53.0852 36.04ZM63.1934 37.75H62.0134V34.4H61.0634V43.35H62.0134V38.66H63.1934V43.54H64.1734V34.26H63.1934V37.75ZM59.0134 35.9V36.01C59.0134 37.97 58.0734 40.05 56.2534 41.7L56.9734 42.43C58.8734 40.62 59.9834 38.44 59.9834 35.81V34.99H56.4734V35.9H59.0134ZM69.9258 39.22H72.5058V39.52H73.5058V34.26H72.5058V38.53H69.9258V39.22ZM68.6058 37.08C70.0158 37.08 71.0958 36.6 71.0958 35.75V35.69C71.0958 34.83 70.0158 34.37 68.6058 34.37C67.1758 34.37 66.1058 34.83 66.1058 35.69V35.75C66.1058 36.6 67.1758 37.08 68.6058 37.08ZM67.0558 35.7C67.0558 35.35 67.6858 35.13 68.6058 35.13C69.5158 35.13 70.1458 35.35 70.1458 35.7V35.73C70.1458 36.09 69.5158 36.31 68.6058 36.31C67.6858 36.31 67.0558 36.09 67.0558 35.73V35.7ZM68.0058 38.32C67.9758 38.72 67.9458 39.15 67.8958 39.55L68.8658 39.61C68.9158 39.17 68.9458 38.71 68.9758 38.28C69.9458 38.23 70.9758 38.15 71.8458 38.03L71.7558 37.31C70.2858 37.49 68.4658 37.59 67.3258 37.59H65.6458L65.6858 38.33H67.2458C67.4858 38.33 67.7358 38.33 68.0058 38.32ZM68.2458 42.13H73.5058V39.95H67.2258V40.73H72.5358V41.36H67.2758V43.59H73.8458V42.8H68.2458V42.13Z" fill="#333333"/>
</svg>
