<svg width="91" height="126" viewBox="0 0 91 126" fill="none" xmlns="http://www.w3.org/2000/svg">
<path d="M0.742 14.782C1.26 16.322 2.562 17.61 4.858 17.61C7.224 17.61 8.862 16.308 8.862 14.362C8.862 12.934 7.952 11.926 6.734 11.548C7.77 11.156 8.582 10.288 8.582 8.902C8.582 6.998 7 5.85 4.83 5.85C2.758 5.85 1.582 7.096 1.064 8.468L2.324 8.944C2.702 8.006 3.402 7.11 4.83 7.11C6.272 7.11 7.21 7.81 7.21 8.972C7.21 10.12 6.328 10.946 4.648 10.946H3.22V12.164H4.648C6.538 12.164 7.476 13.116 7.476 14.306C7.476 15.496 6.496 16.35 4.858 16.35C3.206 16.35 2.394 15.398 1.988 14.334L0.742 14.782ZM11.7907 19.836L12.3647 15.79H10.9507L10.6427 19.836H11.7907ZM21.0998 13.872V6.06H19.2238L14.0158 14.012V15.16H19.7138V17.61H21.0998V15.16H22.8498V13.872H21.0998ZM19.7138 7.656V13.872H15.6958L19.7138 7.656ZM28.4332 17.61C30.7012 17.61 32.5632 15.986 32.5632 12.822V10.624C32.5632 7.488 30.7012 5.85 28.4332 5.85C26.1652 5.85 24.3172 7.488 24.3172 10.624V12.822C24.3172 15.986 26.1652 17.61 28.4332 17.61ZM28.4332 16.35C26.9072 16.35 25.7172 15.202 25.7172 12.752V10.708C25.7172 8.258 26.9072 7.11 28.4332 7.11C29.9592 7.11 31.1492 8.258 31.1492 10.708V12.752C31.1492 15.202 29.9592 16.35 28.4332 16.35ZM38.5641 17.61C40.8321 17.61 42.6941 15.986 42.6941 12.822V10.624C42.6941 7.488 40.8321 5.85 38.5641 5.85C36.2961 5.85 34.4481 7.488 34.4481 10.624V12.822C34.4481 15.986 36.2961 17.61 38.5641 17.61ZM38.5641 16.35C37.0381 16.35 35.8481 15.202 35.8481 12.752V10.708C35.8481 8.258 37.0381 7.11 38.5641 7.11C40.0901 7.11 41.2801 8.258 41.2801 10.708V12.752C41.2801 15.202 40.0901 16.35 38.5641 16.35ZM45.615 19.836L46.189 15.79H44.775L44.467 19.836H45.615ZM52.236 17.61C54.504 17.61 56.366 15.986 56.366 12.822V10.624C56.366 7.488 54.504 5.85 52.236 5.85C49.968 5.85 48.12 7.488 48.12 10.624V12.822C48.12 15.986 49.968 17.61 52.236 17.61ZM52.236 16.35C50.71 16.35 49.52 15.202 49.52 12.752V10.708C49.52 8.258 50.71 7.11 52.236 7.11C53.762 7.11 54.952 8.258 54.952 10.708V12.752C54.952 15.202 53.762 16.35 52.236 16.35ZM62.3668 17.61C64.6348 17.61 66.4968 15.986 66.4968 12.822V10.624C66.4968 7.488 64.6348 5.85 62.3668 5.85C60.0988 5.85 58.2508 7.488 58.2508 10.624V12.822C58.2508 15.986 60.0988 17.61 62.3668 17.61ZM62.3668 16.35C60.8408 16.35 59.6508 15.202 59.6508 12.752V10.708C59.6508 8.258 60.8408 7.11 62.3668 7.11C63.8928 7.11 65.0828 8.258 65.0828 10.708V12.752C65.0828 15.202 63.8928 16.35 62.3668 16.35ZM72.4977 17.61C74.7657 17.61 76.6277 15.986 76.6277 12.822V10.624C76.6277 7.488 74.7657 5.85 72.4977 5.85C70.2297 5.85 68.3817 7.488 68.3817 10.624V12.822C68.3817 15.986 70.2297 17.61 72.4977 17.61ZM72.4977 16.35C70.9717 16.35 69.7817 15.202 69.7817 12.752V10.708C69.7817 8.258 70.9717 7.11 72.4977 7.11C74.0237 7.11 75.2137 8.258 75.2137 10.708V12.752C75.2137 15.202 74.0237 16.35 72.4977 16.35ZM84.2105 14.404H87.8365V15.51H89.2225V5.164H87.8365V13.34H84.2105V14.404ZM82.3625 10.386C84.3225 10.386 85.8485 9.574 85.8485 8.006V7.838C85.8485 6.256 84.3225 5.444 82.3625 5.444C80.3885 5.444 78.8625 6.256 78.8625 7.838V8.006C78.8625 9.574 80.3885 10.386 82.3625 10.386ZM80.1925 7.866C80.1925 7.04 81.1025 6.592 82.3625 6.592C83.6085 6.592 84.5185 7.04 84.5185 7.866V7.978C84.5185 8.79 83.6085 9.238 82.3625 9.238C81.1025 9.238 80.1925 8.79 80.1925 7.978V7.866ZM82.6845 14.698C82.7685 13.956 82.8245 13.214 82.8665 12.528C84.2385 12.458 85.6665 12.332 86.8985 12.164L86.7585 11.016C84.7005 11.268 82.1805 11.422 80.5705 11.422H78.2325L78.2885 12.598H80.4585C80.7945 12.598 81.1445 12.598 81.5225 12.584C81.4665 13.228 81.4105 13.928 81.3405 14.6L82.6845 14.698ZM81.8865 15.16H80.5005V18.156H89.7685V16.882H81.8865V15.16Z" fill="#333333"/>
<path d="M8.166 51.4V40.06H6.976L3.392 42.916L4.19 43.966L6.766 41.908V51.4H8.166ZM11.6599 53.836L12.2339 49.79H10.8199L10.5119 53.836H11.6599ZM18.2809 51.61C20.5489 51.61 22.4109 49.986 22.4109 46.822V44.624C22.4109 41.488 20.5489 39.85 18.2809 39.85C16.0129 39.85 14.1649 41.488 14.1649 44.624V46.822C14.1649 49.986 16.0129 51.61 18.2809 51.61ZM18.2809 50.35C16.7549 50.35 15.5649 49.202 15.5649 46.752V44.708C15.5649 42.258 16.7549 41.11 18.2809 41.11C19.8069 41.11 20.9969 42.258 20.9969 44.708V46.752C20.9969 49.202 19.8069 50.35 18.2809 50.35ZM28.4118 51.61C30.6798 51.61 32.5418 49.986 32.5418 46.822V44.624C32.5418 41.488 30.6798 39.85 28.4118 39.85C26.1438 39.85 24.2958 41.488 24.2958 44.624V46.822C24.2958 49.986 26.1438 51.61 28.4118 51.61ZM28.4118 50.35C26.8858 50.35 25.6958 49.202 25.6958 46.752V44.708C25.6958 42.258 26.8858 41.11 28.4118 41.11C29.9378 41.11 31.1278 42.258 31.1278 44.708V46.752C31.1278 49.202 29.9378 50.35 28.4118 50.35ZM38.5426 51.61C40.8106 51.61 42.6726 49.986 42.6726 46.822V44.624C42.6726 41.488 40.8106 39.85 38.5426 39.85C36.2746 39.85 34.4266 41.488 34.4266 44.624V46.822C34.4266 49.986 36.2746 51.61 38.5426 51.61ZM38.5426 50.35C37.0166 50.35 35.8266 49.202 35.8266 46.752V44.708C35.8266 42.258 37.0166 41.11 38.5426 41.11C40.0686 41.11 41.2586 42.258 41.2586 44.708V46.752C41.2586 49.202 40.0686 50.35 38.5426 50.35ZM45.5935 53.836L46.1675 49.79H44.7535L44.4455 53.836H45.5935ZM52.2145 51.61C54.4825 51.61 56.3445 49.986 56.3445 46.822V44.624C56.3445 41.488 54.4825 39.85 52.2145 39.85C49.9465 39.85 48.0985 41.488 48.0985 44.624V46.822C48.0985 49.986 49.9465 51.61 52.2145 51.61ZM52.2145 50.35C50.6885 50.35 49.4985 49.202 49.4985 46.752V44.708C49.4985 42.258 50.6885 41.11 52.2145 41.11C53.7405 41.11 54.9305 42.258 54.9305 44.708V46.752C54.9305 49.202 53.7405 50.35 52.2145 50.35ZM62.3453 51.61C64.6133 51.61 66.4753 49.986 66.4753 46.822V44.624C66.4753 41.488 64.6133 39.85 62.3453 39.85C60.0773 39.85 58.2293 41.488 58.2293 44.624V46.822C58.2293 49.986 60.0773 51.61 62.3453 51.61ZM62.3453 50.35C60.8193 50.35 59.6293 49.202 59.6293 46.752V44.708C59.6293 42.258 60.8193 41.11 62.3453 41.11C63.8713 41.11 65.0613 42.258 65.0613 44.708V46.752C65.0613 49.202 63.8713 50.35 62.3453 50.35ZM72.4762 51.61C74.7442 51.61 76.6062 49.986 76.6062 46.822V44.624C76.6062 41.488 74.7442 39.85 72.4762 39.85C70.2082 39.85 68.3602 41.488 68.3602 44.624V46.822C68.3602 49.986 70.2082 51.61 72.4762 51.61ZM72.4762 50.35C70.9502 50.35 69.7602 49.202 69.7602 46.752V44.708C69.7602 42.258 70.9502 41.11 72.4762 41.11C74.0022 41.11 75.1922 42.258 75.1922 44.708V46.752C75.1922 49.202 74.0022 50.35 72.4762 50.35ZM84.1891 48.404H87.8151V49.51H89.2011V39.164H87.8151V47.34H84.1891V48.404ZM82.3411 44.386C84.3011 44.386 85.8271 43.574 85.8271 42.006V41.838C85.8271 40.256 84.3011 39.444 82.3411 39.444C80.3671 39.444 78.8411 40.256 78.8411 41.838V42.006C78.8411 43.574 80.3671 44.386 82.3411 44.386ZM80.1711 41.866C80.1711 41.04 81.0811 40.592 82.3411 40.592C83.5871 40.592 84.4971 41.04 84.4971 41.866V41.978C84.4971 42.79 83.5871 43.238 82.3411 43.238C81.0811 43.238 80.1711 42.79 80.1711 41.978V41.866ZM82.6631 48.698C82.7471 47.956 82.8031 47.214 82.8451 46.528C84.2171 46.458 85.6451 46.332 86.8771 46.164L86.7371 45.016C84.6791 45.268 82.1591 45.422 80.5491 45.422H78.2111L78.2671 46.598H80.4371C80.7731 46.598 81.1231 46.598 81.5011 46.584C81.4451 47.228 81.3891 47.928 81.3191 48.6L82.6631 48.698ZM81.8651 49.16H80.4791V52.156H89.7471V50.882H81.8651V49.16Z" fill="#333333"/>
<path d="M7.756 81.872V74.06H5.88L0.672 82.012V83.16H6.37V85.61H7.756V83.16H9.506V81.872H7.756ZM6.37 75.656V81.872H2.352L6.37 75.656ZM12.0095 87.836L12.5835 83.79H11.1695L10.8615 87.836H12.0095ZM22.1585 85.4V84.112H16.5025L19.7085 80.934C21.0665 79.59 21.8925 78.47 21.8925 76.93C21.8925 75.026 20.4365 73.85 18.2525 73.85C16.1245 73.85 14.8925 75.39 14.4305 77.056L15.7605 77.378C16.1385 76.132 16.8525 75.11 18.2525 75.11C19.6945 75.11 20.5065 75.852 20.5065 76.986C20.5065 78.036 19.9185 78.918 18.6445 80.178L14.4865 84.308V85.4H22.1585ZM28.1735 85.61C30.4415 85.61 32.3035 83.986 32.3035 80.822V78.624C32.3035 75.488 30.4415 73.85 28.1735 73.85C25.9055 73.85 24.0575 75.488 24.0575 78.624V80.822C24.0575 83.986 25.9055 85.61 28.1735 85.61ZM28.1735 84.35C26.6475 84.35 25.4575 83.202 25.4575 80.752V78.708C25.4575 76.258 26.6475 75.11 28.1735 75.11C29.6995 75.11 30.8895 76.258 30.8895 78.708V80.752C30.8895 83.202 29.6995 84.35 28.1735 84.35ZM38.3043 85.61C40.5723 85.61 42.4343 83.986 42.4343 80.822V78.624C42.4343 75.488 40.5723 73.85 38.3043 73.85C36.0363 73.85 34.1883 75.488 34.1883 78.624V80.822C34.1883 83.986 36.0363 85.61 38.3043 85.61ZM38.3043 84.35C36.7783 84.35 35.5883 83.202 35.5883 80.752V78.708C35.5883 76.258 36.7783 75.11 38.3043 75.11C39.8303 75.11 41.0203 76.258 41.0203 78.708V80.752C41.0203 83.202 39.8303 84.35 38.3043 84.35ZM45.3552 87.836L45.9292 83.79H44.5152L44.2072 87.836H45.3552ZM51.9762 85.61C54.2442 85.61 56.1062 83.986 56.1062 80.822V78.624C56.1062 75.488 54.2442 73.85 51.9762 73.85C49.7082 73.85 47.8602 75.488 47.8602 78.624V80.822C47.8602 83.986 49.7082 85.61 51.9762 85.61ZM51.9762 84.35C50.4502 84.35 49.2602 83.202 49.2602 80.752V78.708C49.2602 76.258 50.4502 75.11 51.9762 75.11C53.5022 75.11 54.6922 76.258 54.6922 78.708V80.752C54.6922 83.202 53.5022 84.35 51.9762 84.35ZM62.1071 85.61C64.3751 85.61 66.2371 83.986 66.2371 80.822V78.624C66.2371 75.488 64.3751 73.85 62.1071 73.85C59.8391 73.85 57.9911 75.488 57.9911 78.624V80.822C57.9911 83.986 59.8391 85.61 62.1071 85.61ZM62.1071 84.35C60.5811 84.35 59.3911 83.202 59.3911 80.752V78.708C59.3911 76.258 60.5811 75.11 62.1071 75.11C63.6331 75.11 64.8231 76.258 64.8231 78.708V80.752C64.8231 83.202 63.6331 84.35 62.1071 84.35ZM72.2379 85.61C74.5059 85.61 76.3679 83.986 76.3679 80.822V78.624C76.3679 75.488 74.5059 73.85 72.2379 73.85C69.9699 73.85 68.1219 75.488 68.1219 78.624V80.822C68.1219 83.986 69.9699 85.61 72.2379 85.61ZM72.2379 84.35C70.7119 84.35 69.5219 83.202 69.5219 80.752V78.708C69.5219 76.258 70.7119 75.11 72.2379 75.11C73.7639 75.11 74.9539 76.258 74.9539 78.708V80.752C74.9539 83.202 73.7639 84.35 72.2379 84.35ZM83.9508 82.404H87.5768V83.51H88.9628V73.164H87.5768V81.34H83.9508V82.404ZM82.1028 78.386C84.0628 78.386 85.5888 77.574 85.5888 76.006V75.838C85.5888 74.256 84.0628 73.444 82.1028 73.444C80.1288 73.444 78.6028 74.256 78.6028 75.838V76.006C78.6028 77.574 80.1288 78.386 82.1028 78.386ZM79.9328 75.866C79.9328 75.04 80.8428 74.592 82.1028 74.592C83.3488 74.592 84.2588 75.04 84.2588 75.866V75.978C84.2588 76.79 83.3488 77.238 82.1028 77.238C80.8428 77.238 79.9328 76.79 79.9328 75.978V75.866ZM82.4248 82.698C82.5088 81.956 82.5648 81.214 82.6068 80.528C83.9788 80.458 85.4068 80.332 86.6388 80.164L86.4988 79.016C84.4408 79.268 81.9208 79.422 80.3108 79.422H77.9728L78.0288 80.598H80.1988C80.5348 80.598 80.8848 80.598 81.2628 80.584C81.2068 81.228 81.1508 81.928 81.0808 82.6L82.4248 82.698ZM81.6268 83.16H80.2408V86.156H89.5088V84.882H81.6268V83.16Z" fill="#333333"/>
<path d="M32.596 119.4V118.112H26.94L30.146 114.934C31.504 113.59 32.33 112.47 32.33 110.93C32.33 109.026 30.874 107.85 28.69 107.85C26.562 107.85 25.33 109.39 24.868 111.056L26.198 111.378C26.576 110.132 27.29 109.11 28.69 109.11C30.132 109.11 30.944 109.852 30.944 110.986C30.944 112.036 30.356 112.918 29.082 114.178L24.924 118.308V119.4H32.596ZM38.611 119.61C40.879 119.61 42.741 117.986 42.741 114.822V112.624C42.741 109.488 40.879 107.85 38.611 107.85C36.343 107.85 34.495 109.488 34.495 112.624V114.822C34.495 117.986 36.343 119.61 38.611 119.61ZM38.611 118.35C37.085 118.35 35.895 117.202 35.895 114.752V112.708C35.895 110.258 37.085 109.11 38.611 109.11C40.137 109.11 41.327 110.258 41.327 112.708V114.752C41.327 117.202 40.137 118.35 38.611 118.35ZM45.6618 121.836L46.2358 117.79H44.8218L44.5138 121.836H45.6618ZM52.2828 119.61C54.5508 119.61 56.4128 117.986 56.4128 114.822V112.624C56.4128 109.488 54.5508 107.85 52.2828 107.85C50.0148 107.85 48.1668 109.488 48.1668 112.624V114.822C48.1668 117.986 50.0148 119.61 52.2828 119.61ZM52.2828 118.35C50.7568 118.35 49.5668 117.202 49.5668 114.752V112.708C49.5668 110.258 50.7568 109.11 52.2828 109.11C53.8088 109.11 54.9988 110.258 54.9988 112.708V114.752C54.9988 117.202 53.8088 118.35 52.2828 118.35ZM62.4137 119.61C64.6817 119.61 66.5437 117.986 66.5437 114.822V112.624C66.5437 109.488 64.6817 107.85 62.4137 107.85C60.1457 107.85 58.2977 109.488 58.2977 112.624V114.822C58.2977 117.986 60.1457 119.61 62.4137 119.61ZM62.4137 118.35C60.8877 118.35 59.6977 117.202 59.6977 114.752V112.708C59.6977 110.258 60.8877 109.11 62.4137 109.11C63.9397 109.11 65.1297 110.258 65.1297 112.708V114.752C65.1297 117.202 63.9397 118.35 62.4137 118.35ZM72.5446 119.61C74.8126 119.61 76.6746 117.986 76.6746 114.822V112.624C76.6746 109.488 74.8126 107.85 72.5446 107.85C70.2766 107.85 68.4286 109.488 68.4286 112.624V114.822C68.4286 117.986 70.2766 119.61 72.5446 119.61ZM72.5446 118.35C71.0186 118.35 69.8286 117.202 69.8286 114.752V112.708C69.8286 110.258 71.0186 109.11 72.5446 109.11C74.0706 109.11 75.2606 110.258 75.2606 112.708V114.752C75.2606 117.202 74.0706 118.35 72.5446 118.35ZM84.2574 116.404H87.8834V117.51H89.2694V107.164H87.8834V115.34H84.2574V116.404ZM82.4094 112.386C84.3694 112.386 85.8954 111.574 85.8954 110.006V109.838C85.8954 108.256 84.3694 107.444 82.4094 107.444C80.4354 107.444 78.9094 108.256 78.9094 109.838V110.006C78.9094 111.574 80.4354 112.386 82.4094 112.386ZM80.2394 109.866C80.2394 109.04 81.1494 108.592 82.4094 108.592C83.6554 108.592 84.5654 109.04 84.5654 109.866V109.978C84.5654 110.79 83.6554 111.238 82.4094 111.238C81.1494 111.238 80.2394 110.79 80.2394 109.978V109.866ZM82.7314 116.698C82.8154 115.956 82.8714 115.214 82.9134 114.528C84.2854 114.458 85.7134 114.332 86.9454 114.164L86.8054 113.016C84.7474 113.268 82.2274 113.422 80.6174 113.422H78.2794L78.3354 114.598H80.5054C80.8414 114.598 81.1914 114.598 81.5694 114.584C81.5134 115.228 81.4574 115.928 81.3874 116.6L82.7314 116.698ZM81.9334 117.16H80.5474V120.156H89.8154V118.882H81.9334V117.16Z" fill="#333333"/>
</svg>
