<svg width="87" height="34" viewBox="0 0 87 34" fill="none" xmlns="http://www.w3.org/2000/svg">
<path d="M10.622 23.648V21.76H4.58997L7.96597 18.432C9.45397 16.96 10.334 15.728 10.334 14C10.334 11.696 8.58997 10.352 6.02997 10.352C3.51797 10.352 2.01397 12.144 1.48597 14.128L3.43797 14.592C3.80597 13.248 4.58997 12.192 6.02997 12.192C7.51797 12.192 8.30197 12.976 8.30197 14.08C8.30197 15.168 7.69397 16.048 6.36597 17.376L1.64597 22.064V23.648H10.622ZM17.5248 23.888C20.1648 23.888 22.3728 22.048 22.3728 18.352V15.888C22.3728 12.208 20.1648 10.352 17.5248 10.352C14.8688 10.352 12.6608 12.208 12.6608 15.888V18.352C12.6608 22.048 14.8688 23.888 17.5248 23.888ZM17.5248 22.064C15.9088 22.064 14.7248 20.848 14.7248 18.256V15.984C14.7248 13.408 15.9088 12.176 17.5248 12.176C19.1408 12.176 20.3248 13.408 20.3248 15.984V18.256C20.3248 20.848 19.1408 22.064 17.5248 22.064ZM26.0105 26.4L26.7785 21.424H24.6665L24.3305 26.4H26.0105ZM33.7436 23.888C36.3836 23.888 38.5916 22.048 38.5916 18.352V15.888C38.5916 12.208 36.3836 10.352 33.7436 10.352C31.0876 10.352 28.8796 12.208 28.8796 15.888V18.352C28.8796 22.048 31.0876 23.888 33.7436 23.888ZM33.7436 22.064C32.1276 22.064 30.9436 20.848 30.9436 18.256V15.984C30.9436 13.408 32.1276 12.176 33.7436 12.176C35.3596 12.176 36.5436 13.408 36.5436 15.984V18.256C36.5436 20.848 35.3596 22.064 33.7436 22.064ZM45.5092 23.888C48.1492 23.888 50.3572 22.048 50.3572 18.352V15.888C50.3572 12.208 48.1492 10.352 45.5092 10.352C42.8532 10.352 40.6452 12.208 40.6452 15.888V18.352C40.6452 22.048 42.8532 23.888 45.5092 23.888ZM45.5092 22.064C43.8932 22.064 42.7092 20.848 42.7092 18.256V15.984C42.7092 13.408 43.8932 12.176 45.5092 12.176C47.1252 12.176 48.3092 13.408 48.3092 15.984V18.256C48.3092 20.848 47.1252 22.064 45.5092 22.064ZM57.2748 23.888C59.9148 23.888 62.1228 22.048 62.1228 18.352V15.888C62.1228 12.208 59.9148 10.352 57.2748 10.352C54.6188 10.352 52.4108 12.208 52.4108 15.888V18.352C52.4108 22.048 54.6188 23.888 57.2748 23.888ZM57.2748 22.064C55.6588 22.064 54.4748 20.848 54.4748 18.256V15.984C54.4748 13.408 55.6588 12.176 57.2748 12.176C58.8908 12.176 60.0748 13.408 60.0748 15.984V18.256C60.0748 20.848 58.8908 22.064 57.2748 22.064ZM69.5525 10.592H64.3365V23.648H66.4005V18.64H69.5525C72.2885 18.64 74.0965 17.296 74.0965 14.608C74.0965 11.952 72.2885 10.592 69.5525 10.592ZM66.4005 16.816V12.416H69.4405C71.1525 12.416 72.0325 13.168 72.0325 14.608C72.0325 16.048 71.1525 16.816 69.4405 16.816H66.4005Z" fill="black"/>
<path d="M80.1902 11L78.59 12.41L83.788 17L78.59 21.59L80.1902 23L87 17L80.1902 11Z" fill="black"/>
</svg>
