<svg width="27" height="24" viewBox="0 0 27 24" fill="none" xmlns="http://www.w3.org/2000/svg">
<path d="M1.932 10.456C3.976 10.008 5.404 9.42 6.286 8.692L11.242 10.456L11.704 9.308L7.126 7.684C7.294 7.362 7.392 7.012 7.406 6.648H11.046V5.444H2.226V6.648H6.034C5.88 7.684 4.452 8.622 1.568 9.308L1.932 10.456ZM0.532 12.346H12.74V11.128H0.532V12.346ZM5.152 13.578C3.052 13.578 1.89 14.572 1.89 15.93C1.89 17.302 3.052 18.296 5.152 18.296H8.12C10.22 18.296 11.382 17.302 11.382 15.93C11.382 14.572 10.22 13.578 8.12 13.578H5.152ZM5.432 17.078C3.962 17.078 3.29 16.63 3.29 15.916C3.29 15.23 3.962 14.782 5.432 14.782H7.854C9.324 14.782 9.996 15.23 9.996 15.916C9.996 16.63 9.324 17.078 7.854 17.078H5.432ZM19.9254 13.76H23.5514V15.51H24.9374V5.164H23.5514V12.626H19.9254V13.76ZM18.3294 14.222C18.4414 13.284 18.5254 12.388 18.5814 11.52C19.9394 11.45 21.3814 11.324 22.6134 11.156L22.4734 9.98C22.0114 10.036 21.5354 10.092 21.0454 10.134C21.2414 8.916 21.3674 7.642 21.3674 6.41V5.71H14.8434V6.928H20.0094C20.0094 7.74 19.8694 8.986 19.6594 10.246C18.4134 10.33 17.1954 10.386 16.2854 10.386H13.9474L14.0034 11.59H16.1734C16.5094 11.59 16.8594 11.59 17.2234 11.576C17.1674 12.402 17.0834 13.242 16.9854 14.124L18.3294 14.222ZM17.6014 14.698H16.2154V18.156H25.4834V16.882H17.6014V14.698Z" fill="#333333"/>
</svg>
