<svg width="78" height="105" viewBox="0 0 78 105" fill="none" xmlns="http://www.w3.org/2000/svg">
<path d="M7.756 14.1022V6.29022H5.88L0.672 14.2422V15.3902H6.37V17.8402H7.756V15.3902H9.506V14.1022H7.756ZM6.37 7.88622V14.1022H2.352L6.37 7.88622ZM15.0895 17.8402C17.3575 17.8402 19.2195 16.2162 19.2195 13.0522V10.8542C19.2195 7.71822 17.3575 6.08022 15.0895 6.08022C12.8215 6.08022 10.9735 7.71822 10.9735 10.8542V13.0522C10.9735 16.2162 12.8215 17.8402 15.0895 17.8402ZM15.0895 16.5802C13.5635 16.5802 12.3735 15.4322 12.3735 12.9822V10.9382C12.3735 8.48822 13.5635 7.34022 15.0895 7.34022C16.6155 7.34022 17.8055 8.48822 17.8055 10.9382V12.9822C17.8055 15.4322 16.6155 16.5802 15.0895 16.5802ZM25.2203 17.8402C27.4883 17.8402 29.3503 16.2162 29.3503 13.0522V10.8542C29.3503 7.71822 27.4883 6.08022 25.2203 6.08022C22.9523 6.08022 21.1043 7.71822 21.1043 10.8542V13.0522C21.1043 16.2162 22.9523 17.8402 25.2203 17.8402ZM25.2203 16.5802C23.6943 16.5802 22.5043 15.4322 22.5043 12.9822V10.9382C22.5043 8.48822 23.6943 7.34022 25.2203 7.34022C26.7463 7.34022 27.9363 8.48822 27.9363 10.9382V12.9822C27.9363 15.4322 26.7463 16.5802 25.2203 16.5802ZM32.2712 20.0662L32.8452 16.0202H31.4312L31.1232 20.0662H32.2712ZM38.8922 17.8402C41.1602 17.8402 43.0222 16.2162 43.0222 13.0522V10.8542C43.0222 7.71822 41.1602 6.08022 38.8922 6.08022C36.6242 6.08022 34.7762 7.71822 34.7762 10.8542V13.0522C34.7762 16.2162 36.6242 17.8402 38.8922 17.8402ZM38.8922 16.5802C37.3662 16.5802 36.1762 15.4322 36.1762 12.9822V10.9382C36.1762 8.48822 37.3662 7.34022 38.8922 7.34022C40.4182 7.34022 41.6082 8.48822 41.6082 10.9382V12.9822C41.6082 15.4322 40.4182 16.5802 38.8922 16.5802ZM49.0231 17.8402C51.2911 17.8402 53.1531 16.2162 53.1531 13.0522V10.8542C53.1531 7.71822 51.2911 6.08022 49.0231 6.08022C46.7551 6.08022 44.9071 7.71822 44.9071 10.8542V13.0522C44.9071 16.2162 46.7551 17.8402 49.0231 17.8402ZM49.0231 16.5802C47.4971 16.5802 46.3071 15.4322 46.3071 12.9822V10.9382C46.3071 8.48822 47.4971 7.34022 49.0231 7.34022C50.5491 7.34022 51.7391 8.48822 51.7391 10.9382V12.9822C51.7391 15.4322 50.5491 16.5802 49.0231 16.5802ZM59.1539 17.8402C61.4219 17.8402 63.2839 16.2162 63.2839 13.0522V10.8542C63.2839 7.71822 61.4219 6.08022 59.1539 6.08022C56.8859 6.08022 55.0379 7.71822 55.0379 10.8542V13.0522C55.0379 16.2162 56.8859 17.8402 59.1539 17.8402ZM59.1539 16.5802C57.6279 16.5802 56.4379 15.4322 56.4379 12.9822V10.9382C56.4379 8.48822 57.6279 7.34022 59.1539 7.34022C60.6799 7.34022 61.8699 8.48822 61.8699 10.9382V12.9822C61.8699 15.4322 60.6799 16.5802 59.1539 16.5802ZM70.8668 14.6342H74.4928V15.7402H75.8788V5.39422H74.4928V13.5702H70.8668V14.6342ZM69.0188 10.6162C70.9788 10.6162 72.5048 9.80422 72.5048 8.23622V8.06822C72.5048 6.48622 70.9788 5.67422 69.0188 5.67422C67.0448 5.67422 65.5188 6.48622 65.5188 8.06822V8.23622C65.5188 9.80422 67.0448 10.6162 69.0188 10.6162ZM66.8488 8.09622C66.8488 7.27022 67.7588 6.82222 69.0188 6.82222C70.2648 6.82222 71.1748 7.27022 71.1748 8.09622V8.20822C71.1748 9.02022 70.2648 9.46822 69.0188 9.46822C67.7588 9.46822 66.8488 9.02022 66.8488 8.20822V8.09622ZM69.3408 14.9282C69.4248 14.1862 69.4808 13.4442 69.5228 12.7582C70.8948 12.6882 72.3228 12.5622 73.5548 12.3942L73.4148 11.2462C71.3568 11.4982 68.8368 11.6522 67.2268 11.6522H64.8888L64.9448 12.8282H67.1148C67.4508 12.8282 67.8008 12.8282 68.1788 12.8142C68.1228 13.4582 68.0668 14.1582 67.9968 14.8302L69.3408 14.9282ZM68.5428 15.3902H67.1568V18.3862H76.4248V17.1122H68.5428V15.3902Z" fill="#333333"/>
<path d="M8.596 57.6302V56.3422H2.94L6.146 53.1642C7.504 51.8202 8.33 50.7002 8.33 49.1602C8.33 47.2562 6.874 46.0802 4.69 46.0802C2.562 46.0802 1.33 47.6202 0.868 49.2862L2.198 49.6082C2.576 48.3622 3.29 47.3402 4.69 47.3402C6.132 47.3402 6.944 48.0822 6.944 49.2162C6.944 50.2662 6.356 51.1482 5.082 52.4082L0.924 56.5382V57.6302H8.596ZM14.611 57.8402C16.879 57.8402 18.741 56.2162 18.741 53.0522V50.8542C18.741 47.7182 16.879 46.0802 14.611 46.0802C12.343 46.0802 10.495 47.7182 10.495 50.8542V53.0522C10.495 56.2162 12.343 57.8402 14.611 57.8402ZM14.611 56.5802C13.085 56.5802 11.895 55.4322 11.895 52.9822V50.9382C11.895 48.4882 13.085 47.3402 14.611 47.3402C16.137 47.3402 17.327 48.4882 17.327 50.9382V52.9822C17.327 55.4322 16.137 56.5802 14.611 56.5802ZM24.7418 57.8402C27.0098 57.8402 28.8718 56.2162 28.8718 53.0522V50.8542C28.8718 47.7182 27.0098 46.0802 24.7418 46.0802C22.4738 46.0802 20.6258 47.7182 20.6258 50.8542V53.0522C20.6258 56.2162 22.4738 57.8402 24.7418 57.8402ZM24.7418 56.5802C23.2158 56.5802 22.0258 55.4322 22.0258 52.9822V50.9382C22.0258 48.4882 23.2158 47.3402 24.7418 47.3402C26.2678 47.3402 27.4578 48.4882 27.4578 50.9382V52.9822C27.4578 55.4322 26.2678 56.5802 24.7418 56.5802ZM31.7927 60.0662L32.3667 56.0202H30.9527L30.6447 60.0662H31.7927ZM38.4137 57.8402C40.6817 57.8402 42.5437 56.2162 42.5437 53.0522V50.8542C42.5437 47.7182 40.6817 46.0802 38.4137 46.0802C36.1457 46.0802 34.2977 47.7182 34.2977 50.8542V53.0522C34.2977 56.2162 36.1457 57.8402 38.4137 57.8402ZM38.4137 56.5802C36.8877 56.5802 35.6977 55.4322 35.6977 52.9822V50.9382C35.6977 48.4882 36.8877 47.3402 38.4137 47.3402C39.9397 47.3402 41.1297 48.4882 41.1297 50.9382V52.9822C41.1297 55.4322 39.9397 56.5802 38.4137 56.5802ZM48.5446 57.8402C50.8126 57.8402 52.6746 56.2162 52.6746 53.0522V50.8542C52.6746 47.7182 50.8126 46.0802 48.5446 46.0802C46.2766 46.0802 44.4286 47.7182 44.4286 50.8542V53.0522C44.4286 56.2162 46.2766 57.8402 48.5446 57.8402ZM48.5446 56.5802C47.0186 56.5802 45.8286 55.4322 45.8286 52.9822V50.9382C45.8286 48.4882 47.0186 47.3402 48.5446 47.3402C50.0706 47.3402 51.2606 48.4882 51.2606 50.9382V52.9822C51.2606 55.4322 50.0706 56.5802 48.5446 56.5802ZM58.6754 57.8402C60.9434 57.8402 62.8054 56.2162 62.8054 53.0522V50.8542C62.8054 47.7182 60.9434 46.0802 58.6754 46.0802C56.4074 46.0802 54.5594 47.7182 54.5594 50.8542V53.0522C54.5594 56.2162 56.4074 57.8402 58.6754 57.8402ZM58.6754 56.5802C57.1494 56.5802 55.9594 55.4322 55.9594 52.9822V50.9382C55.9594 48.4882 57.1494 47.3402 58.6754 47.3402C60.2014 47.3402 61.3914 48.4882 61.3914 50.9382V52.9822C61.3914 55.4322 60.2014 56.5802 58.6754 56.5802ZM70.3883 54.6342H74.0143V55.7402H75.4003V45.3942H74.0143V53.5702H70.3883V54.6342ZM68.5403 50.6162C70.5003 50.6162 72.0263 49.8042 72.0263 48.2362V48.0682C72.0263 46.4862 70.5003 45.6742 68.5403 45.6742C66.5663 45.6742 65.0403 46.4862 65.0403 48.0682V48.2362C65.0403 49.8042 66.5663 50.6162 68.5403 50.6162ZM66.3703 48.0962C66.3703 47.2702 67.2803 46.8222 68.5403 46.8222C69.7863 46.8222 70.6963 47.2702 70.6963 48.0962V48.2082C70.6963 49.0202 69.7863 49.4682 68.5403 49.4682C67.2803 49.4682 66.3703 49.0202 66.3703 48.2082V48.0962ZM68.8623 54.9282C68.9463 54.1862 69.0023 53.4442 69.0443 52.7582C70.4163 52.6882 71.8443 52.5622 73.0763 52.3942L72.9363 51.2462C70.8783 51.4982 68.3583 51.6522 66.7483 51.6522H64.4103L64.4663 52.8282H66.6363C66.9723 52.8282 67.3223 52.8282 67.7003 52.8142C67.6443 53.4582 67.5883 54.1582 67.5183 54.8302L68.8623 54.9282ZM68.0643 55.3902H66.6783V58.3862H75.9463V57.1122H68.0643V55.3902Z" fill="#333333"/>
<path d="M5.208 90.1822C4.018 90.1822 2.87 90.6862 2.254 91.6662V91.1202C2.24 88.4882 3.402 87.3262 4.9 87.3262C6.272 87.3262 7.028 87.9562 7.63 89.1462L8.792 88.5302C8.036 86.9482 6.762 86.0802 4.844 86.0802C2.87 86.0802 0.952 87.5362 0.952 91.0642V93.8922C0.952 96.4262 2.674 97.8402 4.97 97.8402C7.224 97.8402 9.016 96.3842 9.016 94.0182C9.016 91.6522 7.224 90.1822 5.208 90.1822ZM4.97 96.5942C3.514 96.5942 2.338 95.6282 2.338 93.9902C2.338 92.3662 3.514 91.4142 4.97 91.4142C6.44 91.4142 7.63 92.3662 7.63 93.9902C7.63 95.6282 6.44 96.5942 4.97 96.5942ZM14.8844 97.8402C17.1524 97.8402 19.0144 96.2162 19.0144 93.0522V90.8542C19.0144 87.7182 17.1524 86.0802 14.8844 86.0802C12.6164 86.0802 10.7684 87.7182 10.7684 90.8542V93.0522C10.7684 96.2162 12.6164 97.8402 14.8844 97.8402ZM14.8844 96.5802C13.3584 96.5802 12.1684 95.4322 12.1684 92.9822V90.9382C12.1684 88.4882 13.3584 87.3402 14.8844 87.3402C16.4104 87.3402 17.6004 88.4882 17.6004 90.9382V92.9822C17.6004 95.4322 16.4104 96.5802 14.8844 96.5802ZM25.0153 97.8402C27.2833 97.8402 29.1453 96.2162 29.1453 93.0522V90.8542C29.1453 87.7182 27.2833 86.0802 25.0153 86.0802C22.7473 86.0802 20.8993 87.7182 20.8993 90.8542V93.0522C20.8993 96.2162 22.7473 97.8402 25.0153 97.8402ZM25.0153 96.5802C23.4893 96.5802 22.2993 95.4322 22.2993 92.9822V90.9382C22.2993 88.4882 23.4893 87.3402 25.0153 87.3402C26.5413 87.3402 27.7313 88.4882 27.7313 90.9382V92.9822C27.7313 95.4322 26.5413 96.5802 25.0153 96.5802ZM32.0661 100.066L32.6401 96.0202H31.2261L30.9181 100.066H32.0661ZM38.6871 97.8402C40.9551 97.8402 42.8171 96.2162 42.8171 93.0522V90.8542C42.8171 87.7182 40.9551 86.0802 38.6871 86.0802C36.4191 86.0802 34.5711 87.7182 34.5711 90.8542V93.0522C34.5711 96.2162 36.4191 97.8402 38.6871 97.8402ZM38.6871 96.5802C37.1611 96.5802 35.9711 95.4322 35.9711 92.9822V90.9382C35.9711 88.4882 37.1611 87.3402 38.6871 87.3402C40.2131 87.3402 41.4031 88.4882 41.4031 90.9382V92.9822C41.4031 95.4322 40.2131 96.5802 38.6871 96.5802ZM48.818 97.8402C51.086 97.8402 52.948 96.2162 52.948 93.0522V90.8542C52.948 87.7182 51.086 86.0802 48.818 86.0802C46.55 86.0802 44.702 87.7182 44.702 90.8542V93.0522C44.702 96.2162 46.55 97.8402 48.818 97.8402ZM48.818 96.5802C47.292 96.5802 46.102 95.4322 46.102 92.9822V90.9382C46.102 88.4882 47.292 87.3402 48.818 87.3402C50.344 87.3402 51.534 88.4882 51.534 90.9382V92.9822C51.534 95.4322 50.344 96.5802 48.818 96.5802ZM58.9489 97.8402C61.2169 97.8402 63.0789 96.2162 63.0789 93.0522V90.8542C63.0789 87.7182 61.2169 86.0802 58.9489 86.0802C56.6809 86.0802 54.8329 87.7182 54.8329 90.8542V93.0522C54.8329 96.2162 56.6809 97.8402 58.9489 97.8402ZM58.9489 96.5802C57.4229 96.5802 56.2329 95.4322 56.2329 92.9822V90.9382C56.2329 88.4882 57.4229 87.3402 58.9489 87.3402C60.4749 87.3402 61.6649 88.4882 61.6649 90.9382V92.9822C61.6649 95.4322 60.4749 96.5802 58.9489 96.5802ZM70.6617 94.6342H74.2877V95.7402H75.6737V85.3942H74.2877V93.5702H70.6617V94.6342ZM68.8137 90.6162C70.7737 90.6162 72.2997 89.8042 72.2997 88.2362V88.0682C72.2997 86.4862 70.7737 85.6742 68.8137 85.6742C66.8397 85.6742 65.3137 86.4862 65.3137 88.0682V88.2362C65.3137 89.8042 66.8397 90.6162 68.8137 90.6162ZM66.6437 88.0962C66.6437 87.2702 67.5537 86.8222 68.8137 86.8222C70.0597 86.8222 70.9697 87.2702 70.9697 88.0962V88.2082C70.9697 89.0202 70.0597 89.4682 68.8137 89.4682C67.5537 89.4682 66.6437 89.0202 66.6437 88.2082V88.0962ZM69.1357 94.9282C69.2197 94.1862 69.2757 93.4442 69.3177 92.7582C70.6897 92.6882 72.1177 92.5622 73.3497 92.3942L73.2097 91.2462C71.1517 91.4982 68.6317 91.6522 67.0217 91.6522H64.6837L64.7397 92.8282H66.9097C67.2457 92.8282 67.5957 92.8282 67.9737 92.8142C67.9177 93.4582 67.8617 94.1582 67.7917 94.8302L69.1357 94.9282ZM68.3377 95.3902H66.9517V98.3862H76.2197V97.1122H68.3377V95.3902Z" fill="#333333"/>
</svg>
