<svg width="87" height="25" viewBox="0 0 87 25" fill="none" xmlns="http://www.w3.org/2000/svg">
<path d="M11.662 18.3862V5.39422H10.262V18.3862H11.662ZM4.48 16.6922C6.356 16.6922 7.91 15.4602 7.91 12.3382V10.3642C7.91 7.24222 6.356 6.01022 4.48 6.01022C2.576 6.01022 1.022 7.24222 1.022 10.3642V12.3382C1.022 15.4602 2.576 16.6922 4.48 16.6922ZM4.48 15.4182C3.332 15.4182 2.422 14.5782 2.422 12.3242V10.3782C2.422 8.11022 3.332 7.28422 4.48 7.28422C5.628 7.28422 6.524 8.11022 6.524 10.3782V12.3242C6.524 14.5782 5.628 15.4182 4.48 15.4182ZM23.5514 9.76222V15.1242H24.9514V5.39422H23.5514V8.53022H20.8914V6.01022H19.5474V8.15222H15.7954V6.01022H14.4514V12.7862H20.8914V9.76222H23.5514ZM15.7954 9.37022H19.5474V11.5542H15.7954V9.37022ZM17.7554 14.3822H16.3554V18.3862H25.4974V17.1122H17.7554V14.3822ZM37.4848 5.39422H36.0848V11.7362H37.4848V9.11822H39.5008V7.83022H37.4848V5.39422ZM34.7688 9.79022C33.1448 10.0282 31.3248 10.1822 29.8828 10.1822H28.8048V7.15822H33.7048V5.94022H27.3908V11.3862H29.6308C31.4508 11.3862 33.3688 11.2182 34.9228 10.9522L34.7688 9.79022ZM37.4848 16.0342V12.5482H29.0988V13.7102H36.0848V14.8862H29.1688V18.4562H37.9608V17.2662H30.5548V16.0342H37.4848ZM49.8238 11.3722C50.8598 10.7702 51.5458 10.1262 51.9938 9.45422L54.3318 11.3722L55.1578 10.4202L52.5538 8.27822C52.7358 7.70422 52.7918 7.08822 52.7918 6.44422V5.67422H51.4618V6.44422C51.4618 7.62022 51.1958 8.71222 49.8938 9.76222L48.1158 8.30622C48.2978 7.71822 48.3678 7.08822 48.3678 6.44422V5.67422H47.0378V6.44422C47.0378 7.83022 46.6458 9.10422 44.6438 10.3222L45.3578 11.3722C46.3938 10.7702 47.0938 10.1402 47.5558 9.46822L49.8238 11.3722ZM43.7898 13.6402H55.9978V12.3662H43.7898V13.6402ZM45.4138 14.8162V18.3862H54.7098V17.0842H46.8138V14.8162H45.4138ZM70.5768 10.5322C70.8148 9.17422 70.9408 7.74622 70.9408 6.62622V5.80022H61.9948V7.07422H69.5548C69.5408 7.83022 69.4148 9.21622 69.1768 10.5322H60.4968V11.7642H72.7048V10.5322H70.5768ZM71.2208 18.4002V13.3322H61.9948V18.4002H71.2208ZM69.8208 14.5362V17.1682H63.3948V14.5362H69.8208ZM83.7822 8.25022H82.1582V5.53422H80.8562V12.6882H82.1582V9.49622H83.7822V12.6882H85.1122V5.39422H83.7822V8.25022ZM79.5542 8.82422C79.5542 6.71022 78.3642 5.67422 76.7822 5.67422C75.1862 5.67422 73.9962 6.71022 73.9962 8.82422V9.04822C73.9962 11.1482 75.1862 12.1842 76.7822 12.1842C78.3642 12.1842 79.5542 11.1482 79.5542 9.04822V8.82422ZM75.2842 8.83822C75.2842 7.57822 75.9282 6.90622 76.7822 6.90622C77.6222 6.90622 78.2662 7.57822 78.2662 8.83822V9.02022C78.2662 10.2802 77.6222 10.9522 76.7822 10.9522C75.9282 10.9522 75.2842 10.2802 75.2842 9.02022V8.83822ZM83.7122 14.7742V18.5262H85.1122V13.5002H76.3062V14.7742H83.7122Z" fill="#333333"/>
</svg>
