<svg width="91" height="58" viewBox="0 0 91 58" fill="none" xmlns="http://www.w3.org/2000/svg">
<path d="M0.742 14.782C1.26 16.322 2.562 17.61 4.858 17.61C7.224 17.61 8.862 16.308 8.862 14.362C8.862 12.934 7.952 11.926 6.734 11.548C7.77 11.156 8.582 10.288 8.582 8.902C8.582 6.998 7 5.85 4.83 5.85C2.758 5.85 1.582 7.096 1.064 8.468L2.324 8.944C2.702 8.006 3.402 7.11 4.83 7.11C6.272 7.11 7.21 7.81 7.21 8.972C7.21 10.12 6.328 10.946 4.648 10.946H3.22V12.164H4.648C6.538 12.164 7.476 13.116 7.476 14.306C7.476 15.496 6.496 16.35 4.858 16.35C3.206 16.35 2.394 15.398 1.988 14.334L0.742 14.782ZM11.7907 19.836L12.3647 15.79H10.9507L10.6427 19.836H11.7907ZM21.0998 13.872V6.06H19.2238L14.0158 14.012V15.16H19.7138V17.61H21.0998V15.16H22.8498V13.872H21.0998ZM19.7138 7.656V13.872H15.6958L19.7138 7.656ZM28.4332 17.61C30.7012 17.61 32.5632 15.986 32.5632 12.822V10.624C32.5632 7.488 30.7012 5.85 28.4332 5.85C26.1652 5.85 24.3172 7.488 24.3172 10.624V12.822C24.3172 15.986 26.1652 17.61 28.4332 17.61ZM28.4332 16.35C26.9072 16.35 25.7172 15.202 25.7172 12.752V10.708C25.7172 8.258 26.9072 7.11 28.4332 7.11C29.9592 7.11 31.1492 8.258 31.1492 10.708V12.752C31.1492 15.202 29.9592 16.35 28.4332 16.35ZM38.5641 17.61C40.8321 17.61 42.6941 15.986 42.6941 12.822V10.624C42.6941 7.488 40.8321 5.85 38.5641 5.85C36.2961 5.85 34.4481 7.488 34.4481 10.624V12.822C34.4481 15.986 36.2961 17.61 38.5641 17.61ZM38.5641 16.35C37.0381 16.35 35.8481 15.202 35.8481 12.752V10.708C35.8481 8.258 37.0381 7.11 38.5641 7.11C40.0901 7.11 41.2801 8.258 41.2801 10.708V12.752C41.2801 15.202 40.0901 16.35 38.5641 16.35ZM45.615 19.836L46.189 15.79H44.775L44.467 19.836H45.615ZM52.236 17.61C54.504 17.61 56.366 15.986 56.366 12.822V10.624C56.366 7.488 54.504 5.85 52.236 5.85C49.968 5.85 48.12 7.488 48.12 10.624V12.822C48.12 15.986 49.968 17.61 52.236 17.61ZM52.236 16.35C50.71 16.35 49.52 15.202 49.52 12.752V10.708C49.52 8.258 50.71 7.11 52.236 7.11C53.762 7.11 54.952 8.258 54.952 10.708V12.752C54.952 15.202 53.762 16.35 52.236 16.35ZM62.3668 17.61C64.6348 17.61 66.4968 15.986 66.4968 12.822V10.624C66.4968 7.488 64.6348 5.85 62.3668 5.85C60.0988 5.85 58.2508 7.488 58.2508 10.624V12.822C58.2508 15.986 60.0988 17.61 62.3668 17.61ZM62.3668 16.35C60.8408 16.35 59.6508 15.202 59.6508 12.752V10.708C59.6508 8.258 60.8408 7.11 62.3668 7.11C63.8928 7.11 65.0828 8.258 65.0828 10.708V12.752C65.0828 15.202 63.8928 16.35 62.3668 16.35ZM72.4977 17.61C74.7657 17.61 76.6277 15.986 76.6277 12.822V10.624C76.6277 7.488 74.7657 5.85 72.4977 5.85C70.2297 5.85 68.3817 7.488 68.3817 10.624V12.822C68.3817 15.986 70.2297 17.61 72.4977 17.61ZM72.4977 16.35C70.9717 16.35 69.7817 15.202 69.7817 12.752V10.708C69.7817 8.258 70.9717 7.11 72.4977 7.11C74.0237 7.11 75.2137 8.258 75.2137 10.708V12.752C75.2137 15.202 74.0237 16.35 72.4977 16.35ZM84.2105 14.404H87.8365V15.51H89.2225V5.164H87.8365V13.34H84.2105V14.404ZM82.3625 10.386C84.3225 10.386 85.8485 9.574 85.8485 8.006V7.838C85.8485 6.256 84.3225 5.444 82.3625 5.444C80.3885 5.444 78.8625 6.256 78.8625 7.838V8.006C78.8625 9.574 80.3885 10.386 82.3625 10.386ZM80.1925 7.866C80.1925 7.04 81.1025 6.592 82.3625 6.592C83.6085 6.592 84.5185 7.04 84.5185 7.866V7.978C84.5185 8.79 83.6085 9.238 82.3625 9.238C81.1025 9.238 80.1925 8.79 80.1925 7.978V7.866ZM82.6845 14.698C82.7685 13.956 82.8245 13.214 82.8665 12.528C84.2385 12.458 85.6665 12.332 86.8985 12.164L86.7585 11.016C84.7005 11.268 82.1805 11.422 80.5705 11.422H78.2325L78.2885 12.598H80.4585C80.7945 12.598 81.1445 12.598 81.5225 12.584C81.4665 13.228 81.4105 13.928 81.3405 14.6L82.6845 14.698ZM81.8865 15.16H80.5005V18.156H89.7685V16.882H81.8865V15.16Z" fill="black"/>
<path d="M8.166 51.4V40.06H6.976L3.392 42.916L4.19 43.966L6.766 41.908V51.4H8.166ZM11.6599 53.836L12.2339 49.79H10.8199L10.5119 53.836H11.6599ZM18.2809 51.61C20.5489 51.61 22.4109 49.986 22.4109 46.822V44.624C22.4109 41.488 20.5489 39.85 18.2809 39.85C16.0129 39.85 14.1649 41.488 14.1649 44.624V46.822C14.1649 49.986 16.0129 51.61 18.2809 51.61ZM18.2809 50.35C16.7549 50.35 15.5649 49.202 15.5649 46.752V44.708C15.5649 42.258 16.7549 41.11 18.2809 41.11C19.8069 41.11 20.9969 42.258 20.9969 44.708V46.752C20.9969 49.202 19.8069 50.35 18.2809 50.35ZM28.4118 51.61C30.6798 51.61 32.5418 49.986 32.5418 46.822V44.624C32.5418 41.488 30.6798 39.85 28.4118 39.85C26.1438 39.85 24.2958 41.488 24.2958 44.624V46.822C24.2958 49.986 26.1438 51.61 28.4118 51.61ZM28.4118 50.35C26.8858 50.35 25.6958 49.202 25.6958 46.752V44.708C25.6958 42.258 26.8858 41.11 28.4118 41.11C29.9378 41.11 31.1278 42.258 31.1278 44.708V46.752C31.1278 49.202 29.9378 50.35 28.4118 50.35ZM38.5426 51.61C40.8106 51.61 42.6726 49.986 42.6726 46.822V44.624C42.6726 41.488 40.8106 39.85 38.5426 39.85C36.2746 39.85 34.4266 41.488 34.4266 44.624V46.822C34.4266 49.986 36.2746 51.61 38.5426 51.61ZM38.5426 50.35C37.0166 50.35 35.8266 49.202 35.8266 46.752V44.708C35.8266 42.258 37.0166 41.11 38.5426 41.11C40.0686 41.11 41.2586 42.258 41.2586 44.708V46.752C41.2586 49.202 40.0686 50.35 38.5426 50.35ZM45.5935 53.836L46.1675 49.79H44.7535L44.4455 53.836H45.5935ZM52.2145 51.61C54.4825 51.61 56.3445 49.986 56.3445 46.822V44.624C56.3445 41.488 54.4825 39.85 52.2145 39.85C49.9465 39.85 48.0985 41.488 48.0985 44.624V46.822C48.0985 49.986 49.9465 51.61 52.2145 51.61ZM52.2145 50.35C50.6885 50.35 49.4985 49.202 49.4985 46.752V44.708C49.4985 42.258 50.6885 41.11 52.2145 41.11C53.7405 41.11 54.9305 42.258 54.9305 44.708V46.752C54.9305 49.202 53.7405 50.35 52.2145 50.35ZM62.3453 51.61C64.6133 51.61 66.4753 49.986 66.4753 46.822V44.624C66.4753 41.488 64.6133 39.85 62.3453 39.85C60.0773 39.85 58.2293 41.488 58.2293 44.624V46.822C58.2293 49.986 60.0773 51.61 62.3453 51.61ZM62.3453 50.35C60.8193 50.35 59.6293 49.202 59.6293 46.752V44.708C59.6293 42.258 60.8193 41.11 62.3453 41.11C63.8713 41.11 65.0613 42.258 65.0613 44.708V46.752C65.0613 49.202 63.8713 50.35 62.3453 50.35ZM72.4762 51.61C74.7442 51.61 76.6062 49.986 76.6062 46.822V44.624C76.6062 41.488 74.7442 39.85 72.4762 39.85C70.2082 39.85 68.3602 41.488 68.3602 44.624V46.822C68.3602 49.986 70.2082 51.61 72.4762 51.61ZM72.4762 50.35C70.9502 50.35 69.7602 49.202 69.7602 46.752V44.708C69.7602 42.258 70.9502 41.11 72.4762 41.11C74.0022 41.11 75.1922 42.258 75.1922 44.708V46.752C75.1922 49.202 74.0022 50.35 72.4762 50.35ZM84.1891 48.404H87.8151V49.51H89.2011V39.164H87.8151V47.34H84.1891V48.404ZM82.3411 44.386C84.3011 44.386 85.8271 43.574 85.8271 42.006V41.838C85.8271 40.256 84.3011 39.444 82.3411 39.444C80.3671 39.444 78.8411 40.256 78.8411 41.838V42.006C78.8411 43.574 80.3671 44.386 82.3411 44.386ZM80.1711 41.866C80.1711 41.04 81.0811 40.592 82.3411 40.592C83.5871 40.592 84.4971 41.04 84.4971 41.866V41.978C84.4971 42.79 83.5871 43.238 82.3411 43.238C81.0811 43.238 80.1711 42.79 80.1711 41.978V41.866ZM82.6631 48.698C82.7471 47.956 82.8031 47.214 82.8451 46.528C84.2171 46.458 85.6451 46.332 86.8771 46.164L86.7371 45.016C84.6791 45.268 82.1591 45.422 80.5491 45.422H78.2111L78.2671 46.598H80.4371C80.7731 46.598 81.1231 46.598 81.5011 46.584C81.4451 47.228 81.3891 47.928 81.3191 48.6L82.6631 48.698ZM81.8651 49.16H80.4791V52.156H89.7471V50.882H81.8651V49.16Z" fill="black"/>
</svg>
