<svg width="73" height="68" viewBox="0 0 73 68" fill="none" xmlns="http://www.w3.org/2000/svg">
<path d="M28.792 23.84C31.56 23.84 33.512 22.4 33.512 20.048C33.512 18.688 32.616 17.488 31.032 16.88C32.488 16.288 33.144 15.2 33.144 13.936C33.144 11.696 31.32 10.4 28.792 10.4C26.264 10.4 24.456 11.696 24.456 13.936C24.456 15.2 25.112 16.288 26.568 16.88C24.968 17.488 24.088 18.688 24.088 20.048C24.088 22.4 26.056 23.84 28.792 23.84ZM28.792 16.224C27.064 16.224 26.04 15.328 26.04 14.032C26.04 12.736 27.064 11.84 28.792 11.84C30.536 11.84 31.56 12.736 31.56 14.032C31.56 15.328 30.536 16.224 28.792 16.224ZM28.792 22.4C26.84 22.4 25.672 21.424 25.672 20C25.672 18.608 26.888 17.6 28.792 17.6C30.712 17.6 31.912 18.608 31.912 20C31.912 21.424 30.76 22.4 28.792 22.4ZM40.1301 10.4C37.5381 10.4 35.5061 12.064 35.5061 14.768C35.5061 17.472 37.5381 19.152 39.8581 19.152C41.2021 19.152 42.5301 18.56 43.2341 17.44V18.064C43.2501 21.088 41.9061 22.416 40.1941 22.416C38.6421 22.416 37.7621 21.68 37.0901 20.336L35.7461 21.04C36.6101 22.848 38.0821 23.84 40.2581 23.84C42.5301 23.84 44.7221 22.176 44.7221 18.128V14.896C44.7221 12.016 42.7541 10.4 40.1301 10.4ZM40.1141 17.728C38.4501 17.728 37.0901 16.656 37.0901 14.784C37.0901 12.912 38.4501 11.824 40.1141 11.824C41.7941 11.824 43.1221 12.912 43.1221 14.784C43.1221 16.656 41.7941 17.728 40.1141 17.728ZM51.5889 23.84C54.1809 23.84 56.3089 21.984 56.3089 18.368V15.856C56.3089 12.272 54.1809 10.4 51.5889 10.4C48.9969 10.4 46.8849 12.272 46.8849 15.856V18.368C46.8849 21.984 48.9969 23.84 51.5889 23.84ZM51.5889 22.4C49.8449 22.4 48.4849 21.088 48.4849 18.288V15.952C48.4849 13.152 49.8449 11.84 51.5889 11.84C53.3329 11.84 54.6929 13.152 54.6929 15.952V18.288C54.6929 21.088 53.3329 22.4 51.5889 22.4ZM69.103 12.832H66.191V14.208H69.103V17.632H70.703V9.616H69.103V12.832ZM66.511 17.552L67.311 16.24L63.151 13.664C63.375 13.056 63.487 12.416 63.487 11.728H66.735V10.32H58.735V11.728H61.935C61.935 13.664 60.719 15.104 58.143 16.496L58.879 17.792C60.527 16.928 61.711 16 62.479 14.944L66.511 17.552ZM70.703 24.464V18.576H60.879V24.464H70.703ZM69.103 19.984V23.024H62.463V19.984H69.103Z" fill="white"/>
<path d="M9.824 57.6V56.128H3.36L7.024 52.496C8.576 50.96 9.52 49.68 9.52 47.92C9.52 45.744 7.856 44.4 5.36 44.4C2.928 44.4 1.52 46.16 0.992 48.064L2.512 48.432C2.944 47.008 3.76 45.84 5.36 45.84C7.008 45.84 7.936 46.688 7.936 47.984C7.936 49.184 7.264 50.192 5.808 51.632L1.056 56.352V57.6H9.824ZM16.6983 57.84C19.2903 57.84 21.4183 55.984 21.4183 52.368V49.856C21.4183 46.272 19.2903 44.4 16.6983 44.4C14.1063 44.4 11.9943 46.272 11.9943 49.856V52.368C11.9943 55.984 14.1063 57.84 16.6983 57.84ZM16.6983 56.4C14.9543 56.4 13.5943 55.088 13.5943 52.288V49.952C13.5943 47.152 14.9543 45.84 16.6983 45.84C18.4423 45.84 19.8023 47.152 19.8023 49.952V52.288C19.8023 55.088 18.4423 56.4 16.6983 56.4ZM24.7564 60.384L25.4124 55.76H23.7964L23.4444 60.384H24.7564ZM32.3233 57.84C34.9153 57.84 37.0433 55.984 37.0433 52.368V49.856C37.0433 46.272 34.9153 44.4 32.3233 44.4C29.7313 44.4 27.6193 46.272 27.6193 49.856V52.368C27.6193 55.984 29.7313 57.84 32.3233 57.84ZM32.3233 56.4C30.5793 56.4 29.2193 55.088 29.2193 52.288V49.952C29.2193 47.152 30.5793 45.84 32.3233 45.84C34.0673 45.84 35.4273 47.152 35.4273 49.952V52.288C35.4273 55.088 34.0673 56.4 32.3233 56.4ZM43.9014 57.84C46.4934 57.84 48.6214 55.984 48.6214 52.368V49.856C48.6214 46.272 46.4934 44.4 43.9014 44.4C41.3094 44.4 39.1974 46.272 39.1974 49.856V52.368C39.1974 55.984 41.3094 57.84 43.9014 57.84ZM43.9014 56.4C42.1574 56.4 40.7974 55.088 40.7974 52.288V49.952C40.7974 47.152 42.1574 45.84 43.9014 45.84C45.6454 45.84 47.0054 47.152 47.0054 49.952V52.288C47.0054 55.088 45.6454 56.4 43.9014 56.4ZM55.4795 57.84C58.0715 57.84 60.1995 55.984 60.1995 52.368V49.856C60.1995 46.272 58.0715 44.4 55.4795 44.4C52.8875 44.4 50.7755 46.272 50.7755 49.856V52.368C50.7755 55.984 52.8875 57.84 55.4795 57.84ZM55.4795 56.4C53.7355 56.4 52.3755 55.088 52.3755 52.288V49.952C52.3755 47.152 53.7355 45.84 55.4795 45.84C57.2235 45.84 58.5835 47.152 58.5835 49.952V52.288C58.5835 55.088 57.2235 56.4 55.4795 56.4ZM67.4576 44.64H62.5136V57.6H64.1136V52.496H67.4576C70.3536 52.496 72.0176 51.104 72.0176 48.56C72.0176 46.048 70.3536 44.64 67.4576 44.64ZM64.1136 51.072V46.064H67.3456C69.3776 46.064 70.4016 46.896 70.4016 48.56C70.4016 50.224 69.3776 51.072 67.3456 51.072H64.1136Z" fill="white"/>
</svg>
