<svg width="40" height="24" viewBox="0 0 40 24" fill="none" xmlns="http://www.w3.org/2000/svg">
<path d="M10.262 11.912H11.662V5.164H10.262V11.912ZM7.98 8.426C7.98 6.41 6.44 5.444 4.508 5.444C2.562 5.444 1.022 6.41 1.022 8.426V8.636C1.022 10.638 2.562 11.618 4.508 11.618C6.44 11.618 7.98 10.638 7.98 8.636V8.426ZM2.422 8.44C2.422 7.264 3.318 6.676 4.508 6.676C5.698 6.676 6.594 7.264 6.594 8.44V8.622C6.594 9.784 5.698 10.386 4.508 10.386C3.318 10.386 2.422 9.784 2.422 8.622V8.44ZM4.466 14.096V12.598H3.066V18.156H11.662V12.598H10.262V14.096H4.466ZM4.466 15.328H10.262V16.91H4.466V15.328ZM15.0954 10.484C17.2654 10.12 18.7214 9.644 19.5894 8.986L24.6434 10.484L25.0494 9.364L20.4014 8.006C20.5134 7.754 20.5834 7.474 20.5974 7.166H24.3914V6.004H20.6394V4.884H19.2954V6.004H15.4314V7.166H19.2954C19.1134 8.104 17.7274 8.86 14.7594 9.336L15.0954 10.484ZM26.0154 10.974H13.8074V12.08H19.2254V13.088H15.2354V14.166H23.1314V15.09H15.3054V18.226H24.8674V17.134H16.7054V16.154H24.5314V13.088H20.6114V12.08H26.0154V10.974ZM37.1628 10.302C37.4008 8.944 37.5268 7.516 37.5268 6.396V5.57H28.5808V6.844H36.1408C36.1268 7.6 36.0008 8.986 35.7628 10.302H27.0828V11.534H39.2908V10.302H37.1628ZM37.8068 18.17V13.102H28.5808V18.17H37.8068ZM36.4068 14.306V16.938H29.9808V14.306H36.4068Z" fill="#333333"/>
</svg>
