<svg width="239" height="21" viewBox="0 0 239 21" fill="none" xmlns="http://www.w3.org/2000/svg">
<path d="M16.424 7.57103V0.135031H13.608V20.683H16.424V10.123H19.394V7.57103H16.424ZM10.33 17.427V1.54303H0.0120001V17.427H10.33ZM7.536 4.11703V14.853H2.828V4.11703H7.536ZM38.4293 20.683V0.135031H35.6133V20.683H38.4293ZM26.9013 18.065C29.9593 18.065 32.4893 16.129 32.4893 11.113V7.96703C32.4893 2.95103 29.9593 1.01503 26.9013 1.01503C23.8213 1.01503 21.2913 2.95103 21.2913 7.96703V11.113C21.2913 16.129 23.8213 18.065 26.9013 18.065ZM26.9013 15.513C25.3833 15.513 24.1073 14.413 24.1073 11.113V7.96703C24.1073 4.66703 25.3833 3.56703 26.9013 3.56703C28.4193 3.56703 29.6733 4.66703 29.6733 7.96703V11.113C29.6733 14.413 28.4193 15.513 26.9013 15.513ZM52.5587 12.433H58.5867V1.41103H43.7367V12.433H49.7427V16.679H41.4707V19.253H60.8307V16.679H52.5587V12.433ZM55.7707 3.94103V9.92503H46.5307V3.94103H55.7707ZM83.233 20.683H85.983V0.135031H83.233V20.683ZM73.839 2.95103V0.15703H71.001V2.95103H67.767V5.45903H77.073V2.95103H73.839ZM76.831 6.95503V9.44103H78.767V12.521H76.831V15.007H78.767V20.199H81.451V0.46503H78.767V6.95503H76.831ZM72.453 7.02103C70.099 7.02103 68.515 8.93503 68.515 11.905V13.115C68.515 16.085 70.099 18.021 72.453 18.021C74.785 18.021 76.347 16.085 76.347 13.115V11.905C76.347 8.93503 74.785 7.02103 72.453 7.02103ZM73.773 12.917C73.773 14.567 73.245 15.513 72.431 15.513C71.617 15.513 71.089 14.567 71.089 12.917V12.103C71.089 10.475 71.617 9.52903 72.431 9.52903C73.245 9.52903 73.773 10.475 73.773 12.103V12.917ZM104.182 4.60103H102.158V0.355031H99.6063V12.081H102.158V7.08703H104.182V12.081H106.844V0.15703H104.182V4.60103ZM98.0883 8.78103C96.5703 9.04503 95.0963 9.19903 93.1823 9.19903H91.9063V7.43903H97.2963V5.06303H91.9063V3.41303H97.4723V1.01503H89.1563V11.619H92.6763C95.2283 11.619 96.9003 11.443 98.3963 11.113L98.0883 8.78103ZM104.05 15.755V20.903H106.844V13.203H92.5223V15.755H104.05ZM121.04 6.99903C124.362 6.99903 126.738 6.00903 126.738 3.56703C126.738 1.19103 124.362 0.20103 121.04 0.20103H117.344C114.022 0.20103 111.668 1.19103 111.668 3.56703C111.668 6.00903 114.022 6.99903 117.344 6.99903H121.04ZM117.916 4.82103C115.716 4.82103 114.462 4.46903 114.462 3.61103C114.462 2.75303 115.716 2.40103 117.916 2.40103H120.49C122.69 2.40103 123.922 2.75303 123.922 3.61103C123.922 4.44703 122.69 4.82103 120.49 4.82103H117.916ZM128.872 10.431V8.20903H109.512V10.431H128.872ZM127.178 20.793V18.549H114.572V17.317H126.628V11.795H111.668V13.995H123.812V15.161H111.778V20.793H127.178ZM152.506 0.135031H149.69V11.553H152.506V6.69103H155.476V4.13903H152.506V0.135031ZM143.728 0.90503V3.36903H138.8V0.90503H136.094V10.563H146.412V0.90503H143.728ZM138.8 5.81103H143.728V8.09903H138.8V5.81103ZM152.55 15.183V12.675H138.976V20.683H152.924V18.175H141.77V15.183H152.55ZM173.345 7.57103V0.135031H170.551V20.683H173.345V10.123H176.337V7.57103H173.345ZM162.257 1.01503C159.199 1.01503 156.735 2.95103 156.735 7.96703V11.113C156.735 16.129 159.199 18.065 162.257 18.065C165.271 18.065 167.735 16.129 167.735 11.113V7.96703C167.735 2.95103 165.271 1.01503 162.257 1.01503ZM164.919 11.113C164.919 14.413 163.687 15.513 162.257 15.513C160.761 15.513 159.551 14.413 159.551 11.113V7.96703C159.551 4.66703 160.761 3.56703 162.257 3.56703C163.687 3.56703 164.919 4.66703 164.919 7.96703V11.113ZM188.641 12.873H194.669V1.30103H191.853V4.64503H182.613V1.30103H179.819V12.873H185.825V16.679H177.553V19.253H196.913V16.679H188.641V12.873ZM191.853 7.19703V10.343H182.613V7.19703H191.853ZM213.858 20.683H216.586V0.135031H213.858V20.683ZM206.488 6.91103V9.48503H209.392V20.199H212.054V0.46503H209.392V6.91103H206.488ZM204.662 1.27903H202V4.07303C202 8.67103 200.812 12.587 198.15 16.305L200.284 17.933C201.538 16.239 202.506 14.479 203.188 12.631L206.246 17.735L208.512 16.195L204.222 9.00103C204.53 7.41703 204.662 5.78903 204.662 4.07303V1.27903ZM230.715 12.323C234.345 12.323 236.787 9.90303 236.787 6.69103C236.787 3.52303 234.345 1.08103 230.715 1.08103H227.217C223.565 1.08103 221.167 3.52303 221.167 6.69103C221.167 9.90303 223.565 12.323 227.217 12.323H230.715ZM230.187 3.61103C232.497 3.61103 233.971 4.84303 233.971 6.71303C233.971 8.60503 232.497 9.85903 230.187 9.85903H227.745C225.413 9.85903 223.961 8.60503 223.961 6.71303C223.961 4.84303 225.413 3.61103 227.745 3.61103H230.187ZM233.971 13.467H231.243V16.679H226.689V13.467H223.961V16.679H219.275V19.253H238.635V16.679H233.971V13.467Z" fill="white"/>
</svg>
