<svg width="64" height="65" viewBox="0 0 64 65" fill="none" xmlns="http://www.w3.org/2000/svg">
<rect width="64" height="64" transform="translate(0 0.518799)" fill="white"/>
<path d="M32 17.5188C33.1 17.5188 34 18.4188 34 19.5188C34 20.6188 33.1 21.5188 32 21.5188C30.9 21.5188 30 20.6188 30 19.5188C30 18.4188 30.9 17.5188 32 17.5188ZM32 27.5188C34.7 27.5188 37.8 28.8088 38 29.5188H26C26.23 28.7988 29.31 27.5188 32 27.5188ZM32 15.5188C29.79 15.5188 28 17.3088 28 19.5188C28 21.7288 29.79 23.5188 32 23.5188C34.21 23.5188 36 21.7288 36 19.5188C36 17.3088 34.21 15.5188 32 15.5188ZM32 25.5188C29.33 25.5188 24 26.8588 24 29.5188V31.5188H40V29.5188C40 26.8588 34.67 25.5188 32 25.5188Z" fill="#6732FB"/>
<path d="M22.912 42.7908H25.072V47.6148H22.912V42.7908ZM21.352 48.8628H26.632V41.5428H21.352V48.8628ZM31.276 44.6628H29.668V40.5108H28.084V51.5508H29.668V45.9708H31.276V44.6628ZM39.6271 40.4868V51.5748H41.2111V40.4868H39.6271ZM35.2711 41.2668C33.6031 41.2668 32.3671 42.7788 32.3671 45.2028C32.3671 47.6388 33.6031 49.1628 35.2711 49.1628C36.9391 49.1628 38.1751 47.6388 38.1751 45.2028C38.1751 42.7788 36.9391 41.2668 35.2711 41.2668ZM35.2711 42.6948C36.0871 42.6948 36.6511 43.5708 36.6511 45.2028C36.6511 46.8468 36.0871 47.7228 35.2711 47.7228C34.4551 47.7228 33.8911 46.8468 33.8911 45.2028C33.8911 43.5708 34.4551 42.6948 35.2711 42.6948Z" fill="#6732FB"/>
</svg>
