<svg width="64" height="65" viewBox="0 0 64 65" fill="none" xmlns="http://www.w3.org/2000/svg">
<rect width="64" height="64" transform="translate(0 0.518799)" fill="white"/>
<path d="M40.5 18.7988V16.5188C40.5 15.4188 39.6 14.5188 38.5 14.5188H24.5C23.39 14.5188 22.5 15.4188 22.5 16.5188V30.5188C22.5 31.6188 23.39 32.5188 24.5 32.5188H38.5C39.6 32.5188 40.5 31.6188 40.5 30.5188V28.2388C41.09 27.8888 41.5 27.2588 41.5 26.5188V20.5188C41.5 19.7788 41.09 19.1488 40.5 18.7988ZM39.5 20.5188V26.5188H32.5V20.5188H39.5ZM24.5 30.5188V16.5188H38.5V18.5188H32.5C31.4 18.5188 30.5 19.4188 30.5 20.5188V26.5188C30.5 27.6188 31.4 28.5188 32.5 28.5188H38.5V30.5188H24.5Z" fill="black"/>
<path d="M35.5 25.0188C36.3284 25.0188 37 24.3472 37 23.5188C37 22.6904 36.3284 22.0188 35.5 22.0188C34.6716 22.0188 34 22.6904 34 23.5188C34 24.3472 34.6716 25.0188 35.5 25.0188Z" fill="black"/>
<path d="M27.352 45.7068C25.804 45.1788 24.748 43.8348 24.748 42.3828V41.1948H23.764V42.2988C23.764 43.9428 22.72 45.4068 21.088 45.9948L21.604 46.7748C22.864 46.2948 23.824 45.3108 24.268 44.0508C24.748 45.1548 25.672 46.0428 26.836 46.4748L27.352 45.7068ZM26.068 50.6268C24.472 50.6268 23.5 50.1828 23.5 49.4388C23.5 48.6828 24.472 48.2388 26.068 48.2388C27.652 48.2388 28.624 48.6828 28.624 49.4388C28.624 50.1828 27.652 50.6268 26.068 50.6268ZM26.068 47.4708C23.872 47.4708 22.516 48.1788 22.516 49.4388C22.516 50.6868 23.872 51.3948 26.068 51.3948C28.252 51.3948 29.608 50.6868 29.608 49.4388C29.608 48.1788 28.252 47.4708 26.068 47.4708ZM29.488 43.4268V40.6548H28.504V47.1708H29.488V44.2428H31.084V43.4268H29.488ZM38.3671 44.0388H35.6911V41.7828H38.3671V44.0388ZM34.7071 44.0388H33.1231V44.8308H40.9351V44.0388H39.3511V41.7828H40.9831V40.9908H33.0871V41.7828H34.7071V44.0388ZM39.7591 50.4708H34.3351V48.6828H39.7591V50.4708ZM41.9071 46.6428V45.8508H32.1751V46.6428H36.5551V47.9028H33.3751V51.2628H40.7191V47.9028H37.5391V46.6428H41.9071Z" fill="#666666"/>
</svg>
