<svg width="64" height="65" viewBox="0 0 64 65" fill="none" xmlns="http://www.w3.org/2000/svg">
<rect width="64" height="64" transform="translate(0 0.582764)" fill="white"/>
<path d="M40.5 15.8628V13.5828C40.5 12.4828 39.6 11.5828 38.5 11.5828H24.5C23.39 11.5828 22.5 12.4828 22.5 13.5828V27.5828C22.5 28.6828 23.39 29.5828 24.5 29.5828H38.5C39.6 29.5828 40.5 28.6828 40.5 27.5828V25.3028C41.09 24.9528 41.5 24.3228 41.5 23.5828V17.5828C41.5 16.8428 41.09 16.2128 40.5 15.8628ZM39.5 17.5828V23.5828H32.5V17.5828H39.5ZM24.5 27.5828V13.5828H38.5V15.5828H32.5C31.4 15.5828 30.5 16.4828 30.5 17.5828V23.5828C30.5 24.6828 31.4 25.5828 32.5 25.5828H38.5V27.5828H24.5Z" fill="#5725E0"/>
<path d="M35.5 22.0828C36.3284 22.0828 37 21.4112 37 20.5828C37 19.7543 36.3284 19.0828 35.5 19.0828C34.6716 19.0828 34 19.7543 34 20.5828C34 21.4112 34.6716 22.0828 35.5 22.0828Z" fill="#5725E0"/>
<path d="M29.872 40.2948H28.672V46.3668H29.872V43.7148H31.6V42.6228H29.872V40.2948ZM26.92 46.1028L27.568 45.1668L24.472 43.0668C24.652 42.5508 24.748 41.9868 24.748 41.3868V40.6548H23.584V41.3868C23.584 42.9588 22.696 44.2308 20.728 45.3828L21.364 46.3428C22.54 45.6588 23.404 44.9148 23.956 44.0748L26.92 46.1028ZM25.132 46.9548C23.536 46.9548 22.504 47.9148 22.504 49.2468C22.504 50.5908 23.536 51.5508 25.132 51.5508H27.484C29.104 51.5508 30.124 50.5908 30.124 49.2468C30.124 47.9148 29.104 46.9548 27.484 46.9548H25.132ZM25.336 50.4708C24.244 50.4708 23.692 49.9548 23.692 49.2468C23.692 48.5388 24.244 48.0228 25.336 48.0228H27.292C28.384 48.0228 28.924 48.5388 28.924 49.2468C28.924 49.9548 28.384 50.4708 27.292 50.4708H25.336ZM39.9189 43.6788V41.5308H41.5749V40.5348H33.5589V41.5308H35.2269V43.6788H33.5589V44.6868H41.5749V43.6788H39.9189ZM38.7549 41.5308V43.6788H36.3909V41.5308H38.7549ZM42.7989 45.6348H32.3349V46.6788H36.9669V47.7948H33.6189V51.4308H41.5269V47.7948H38.1669V46.6788H42.7989V45.6348ZM34.8189 50.4348V48.7788H40.3269V50.4348H34.8189Z" fill="#5725E0"/>
</svg>
