<svg width="64" height="65" viewBox="0 0 64 65" fill="none" xmlns="http://www.w3.org/2000/svg">
<rect width="64" height="64" transform="translate(0 0.519531)" fill="white"/>
<path d="M41 20.7395C41 15.2495 36.74 11.5195 32 11.5195C27.31 11.5195 23 15.1695 23 20.7995C22.4 21.1395 22 21.7795 22 22.5195V24.5195C22 25.6195 22.9 26.5195 24 26.5195H25V20.4195C25 16.5495 28.13 13.4195 32 13.4195C35.87 13.4195 39 16.5495 39 20.4195V27.5195H31V29.5195H39C40.1 29.5195 41 28.6195 41 27.5195V26.2995C41.59 25.9895 42 25.3795 42 24.6595V22.3595C42 21.6595 41.59 21.0495 41 20.7395Z" fill="black"/>
<path d="M29 22.5195C29.5523 22.5195 30 22.0718 30 21.5195C30 20.9672 29.5523 20.5195 29 20.5195C28.4477 20.5195 28 20.9672 28 21.5195C28 22.0718 28.4477 22.5195 29 22.5195Z" fill="black"/>
<path d="M35 22.5195C35.5523 22.5195 36 22.0718 36 21.5195C36 20.9672 35.5523 20.5195 35 20.5195C34.4477 20.5195 34 20.9672 34 21.5195C34 22.0718 34.4477 22.5195 35 22.5195Z" fill="black"/>
<path d="M38 19.5495C37.52 16.6995 35.04 14.5195 32.05 14.5195C29.02 14.5195 25.76 17.0295 26.02 20.9695C28.49 19.9595 30.35 17.7595 30.88 15.0795C32.19 17.7095 34.88 19.5195 38 19.5495Z" fill="black"/>
<path d="M11.972 46.4115L12.452 45.7635L9.884 43.6395C10.004 43.2315 10.064 42.8115 10.064 42.3435H12.116V41.5755H10.064V40.0995H9.236V41.5755H7.232V42.3435H9.224C9.212 43.8435 8.444 44.9475 6.896 46.0035L7.328 46.6515C8.408 45.9555 9.152 45.2355 9.584 44.3955L11.972 46.4115ZM15.68 40.2435V47.4675H16.508V40.2435H15.68ZM11.552 43.9995H13.352V46.4715H14.168V40.3635H13.352V43.2435H11.552V43.9995ZM13.004 48.7875C13.184 48.4515 13.28 48.0915 13.28 47.7075V47.1435H12.404V47.7075C12.404 48.9675 10.772 49.9635 8.48 50.6715L8.78 51.4275C10.472 50.9355 11.768 50.2635 12.524 49.4475L16.748 51.3675L17.096 50.6115L13.004 48.7875ZM23.9989 44.7315H27.3109V40.4595H26.4469V41.8755H20.6869V40.4595H19.8349V44.7315H23.1469V46.0395H18.3829V46.8075H28.7509V46.0395H23.9989V44.7315ZM26.4469 42.6075V43.9995H20.6869V42.6075H26.4469ZM24.0709 47.5755H23.1949V48.0795C23.1949 49.2195 21.4189 50.0835 19.1869 50.6715L19.4389 51.4395C21.0709 51.0195 22.4389 50.4675 23.2549 49.7355L27.6829 51.3795L27.9829 50.6115L23.7829 49.0995C23.9749 48.7875 24.0709 48.4515 24.0709 48.0795V47.5755ZM30.3138 52.3635L34.5138 39.8355H33.6138L29.4138 52.3635H30.3138ZM43.9119 40.2555H43.0479V46.3035H43.9119V43.5075H45.7479V42.7275H43.9119V40.2555ZM41.2599 45.9795L41.7279 45.2955L38.4759 43.0635C38.6799 42.5355 38.7759 41.9835 38.7759 41.3835V40.6395H37.9359V41.3835C37.9359 43.0875 36.9039 44.3715 34.9719 45.5115L35.4039 46.2075C36.6639 45.4875 37.5639 44.6955 38.1159 43.7955L41.2599 45.9795ZM39.3639 46.9755C37.7559 46.9755 36.7839 47.9595 36.7839 49.2075C36.7839 50.4675 37.7559 51.4275 39.3639 51.4275H41.6079C43.2279 51.4275 44.1879 50.4675 44.1879 49.2075C44.1879 47.9595 43.2279 46.9755 41.6079 46.9755H39.3639ZM39.5319 50.6595C38.2599 50.6595 37.6479 50.0355 37.6479 49.1955C37.6479 48.3915 38.2599 47.7435 39.5319 47.7435H41.4399C42.7119 47.7435 43.3239 48.3915 43.3239 49.1955C43.3239 50.0355 42.7119 50.6595 41.4399 50.6595H39.5319ZM55.3028 42.7275V40.2435H54.4388V46.2435H55.3028V43.5075H57.1388V42.7275H55.3028ZM53.1788 44.6475C51.7748 44.8635 50.0708 45.0075 48.7508 45.0075H47.7428V41.6115H52.0868V40.8435H46.8788V45.7875H48.6068C50.2028 45.7875 51.9668 45.6315 53.2748 45.4035L53.1788 44.6475ZM55.3028 51.3195V47.0355H48.4028V51.3195H55.3028ZM54.4388 47.8035V50.5395H49.2668V47.8035H54.4388Z" fill="#666666"/>
</svg>
