<svg width="64" height="64" viewBox="0 0 64 64" fill="none" xmlns="http://www.w3.org/2000/svg">
<rect width="64" height="64" fill="white"/>
<path d="M40.5 15.28V13C40.5 11.9 39.6 11 38.5 11H24.5C23.39 11 22.5 11.9 22.5 13V27C22.5 28.1 23.39 29 24.5 29H38.5C39.6 29 40.5 28.1 40.5 27V24.72C41.09 24.37 41.5 23.74 41.5 23V17C41.5 16.26 41.09 15.63 40.5 15.28ZM39.5 17V23H32.5V17H39.5ZM24.5 27V13H38.5V15H32.5C31.4 15 30.5 15.9 30.5 17V23C30.5 24.1 31.4 25 32.5 25H38.5V27H24.5Z" fill="#5725E0"/>
<path d="M35.5 21.5C36.3284 21.5 37 20.8284 37 20C37 19.1716 36.3284 18.5 35.5 18.5C34.6716 18.5 34 19.1716 34 20C34 20.8284 34.6716 21.5 35.5 21.5Z" fill="#5725E0"/>
<path d="M18.096 44.116C18.3 42.952 18.408 41.728 18.408 40.768V40.06H10.74V41.152H17.22C17.208 41.8 17.1 42.988 16.896 44.116H9.456V45.172H19.92V44.116H18.096ZM18.648 50.86V46.516H10.74V50.86H18.648ZM17.448 47.548V49.804H11.94V47.548H17.448ZM26.9429 43.9C28.8269 43.9 30.0749 43.228 30.0749 41.86C30.0749 40.492 28.8269 39.832 26.9429 39.832H25.1909C23.3189 39.832 22.0589 40.492 22.0589 41.86C22.0589 43.228 23.3189 43.9 25.1909 43.9H26.9429ZM26.7389 40.84C28.1189 40.84 28.8869 41.188 28.8869 41.872C28.8869 42.532 28.1189 42.904 26.7389 42.904H25.4069C24.0269 42.904 23.2589 42.544 23.2589 41.872C23.2589 41.188 24.0269 40.84 25.4069 40.84H26.7389ZM31.2989 44.764H20.8349V45.808H23.5709V47.08C22.5509 47.38 21.9989 48.076 21.9989 48.94C21.9989 50.116 22.9949 50.968 24.7949 50.968H27.3389C29.1389 50.968 30.1349 50.116 30.1349 48.94C30.1349 48.076 29.5949 47.392 28.5749 47.092V45.808H31.2989V44.764ZM27.4109 46.924H27.3389H24.7949H24.7349V45.808H27.4109V46.924ZM28.9469 48.928C28.9469 49.54 28.3709 49.924 27.1109 49.924H25.0349C23.7749 49.924 23.1989 49.54 23.1989 48.928C23.1989 48.34 23.7749 47.956 25.0349 47.956H27.1109C28.3709 47.956 28.9469 48.34 28.9469 48.928ZM41.1298 39.712H39.9298V45.784H41.1298V43.132H42.8578V42.04H41.1298V39.712ZM38.1778 45.52L38.8258 44.584L35.7298 42.484C35.9098 41.968 36.0058 41.404 36.0058 40.804V40.072H34.8418V40.804C34.8418 42.376 33.9538 43.648 31.9858 44.8L32.6218 45.76C33.7978 45.076 34.6618 44.332 35.2138 43.492L38.1778 45.52ZM36.3898 46.372C34.7938 46.372 33.7618 47.332 33.7618 48.664C33.7618 50.008 34.7938 50.968 36.3898 50.968H38.7418C40.3618 50.968 41.3818 50.008 41.3818 48.664C41.3818 47.332 40.3618 46.372 38.7418 46.372H36.3898ZM36.5938 49.888C35.5018 49.888 34.9498 49.372 34.9498 48.664C34.9498 47.956 35.5018 47.44 36.5938 47.44H38.5498C39.6418 47.44 40.1818 47.956 40.1818 48.664C40.1818 49.372 39.6418 49.888 38.5498 49.888H36.5938ZM51.1767 43.096V40.948H52.8327V39.952H44.8167V40.948H46.4847V43.096H44.8167V44.104H52.8327V43.096H51.1767ZM50.0127 40.948V43.096H47.6487V40.948H50.0127ZM54.0567 45.052H43.5927V46.096H48.2247V47.212H44.8767V50.848H52.7847V47.212H49.4247V46.096H54.0567V45.052ZM46.0767 49.852V48.196H51.5847V49.852H46.0767Z" fill="#5725E0"/>
</svg>
