<svg width="64" height="64" viewBox="0 0 64 64" fill="none" xmlns="http://www.w3.org/2000/svg">
<rect width="64" height="64" fill="white"/>
<path d="M39 11H25C23.9 11 23 11.9 23 13V27C23 28.1 23.9 29 25 29H39C40.1 29 41 28.1 41 27V13C41 11.9 40.1 11 39 11ZM39 27H25V13H39V27ZM27 18H29V25H27V18ZM31 15H33V25H31V15ZM35 21H37V25H35V21Z" fill="#5725E0"/>
<path d="M18.372 43.9V39.712H17.172V50.848H18.372V44.992H20.088V43.9H18.372ZM13.212 41.68H15.624V40.588H9.672V41.68H12.048V42.16C12.048 44.728 11.052 46.588 9.24 48.544L10.092 49.336C11.148 48.208 11.94 47.08 12.456 45.868L15.168 49.216L16.068 48.436L12.912 44.56C13.116 43.792 13.212 43 13.212 42.16V41.68ZM29.7509 39.712H28.5509V48.052H29.7509V43.588H31.4789V42.508H29.7509V39.712ZM26.7629 46.192L27.4469 45.292L24.3269 42.856C24.5309 42.28 24.6269 41.656 24.6269 40.996V40.132H23.4629V40.996C23.4629 42.772 22.5629 44.188 20.6069 45.496L21.2789 46.42C22.4309 45.652 23.2829 44.824 23.8469 43.912L26.7629 46.192ZM22.6109 47.356V50.848H30.3269V49.756H23.8109V47.356H22.6109ZM41.2378 39.712H40.0378V48.292H41.2378V44.176H42.8578V43.084H41.2378V39.712ZM37.9858 44.56C38.2018 43.372 38.3458 42.076 38.3458 40.852V40.276H32.7658V41.308H37.1818C37.1818 42.076 37.0498 43.264 36.8458 44.416L37.9858 44.56ZM39.1138 45.244C37.9858 45.388 36.6658 45.484 35.5258 45.544V42.94H34.3258V45.58H33.9658H32.0458L32.1058 46.672H33.8698C35.4538 46.672 37.5778 46.54 39.2458 46.3L39.1138 45.244ZM33.9898 47.824V50.848H41.8258V49.756H35.1898V47.824H33.9898ZM53.1327 50.848V39.712H51.9447V50.848H53.1327ZM46.2927 49.264C47.8887 49.264 49.5807 49.12 50.8767 48.88L50.7327 47.836C49.3647 48.052 47.7807 48.184 46.5087 48.184H45.3927V45.364H49.5447V40.528H44.1927V41.608H48.3447V44.308H44.1927V49.264H46.2927Z" fill="#5725E0"/>
</svg>
