<svg width="64" height="65" viewBox="0 0 64 65" fill="none" xmlns="http://www.w3.org/2000/svg">
<rect width="64" height="64" transform="translate(0 0.519531)" fill="white"/>
<g clip-path="url(#clip0_309_400)">
<path d="M32 11C26.48 11 22 15.48 22 21C22 26.52 26.48 31 32 31C37.52 31 42 26.52 42 21C42 15.48 37.52 11 32 11ZM32 29C27.59 29 24 25.41 24 21C24 16.59 27.59 13 32 13C36.41 13 40 16.59 40 21C40 25.41 36.41 29 32 29ZM32.89 20.1C31.11 19.51 30.25 19.14 30.25 18.2C30.25 17.18 31.36 16.81 32.06 16.81C33.37 16.81 33.85 17.8 33.96 18.15L35.54 17.48C35.39 17.04 34.72 15.57 32.88 15.25V14H31.13V15.26C28.53 15.82 28.51 18.11 28.51 18.22C28.51 20.49 30.76 21.13 31.86 21.53C33.44 22.09 34.14 22.6 34.14 23.56C34.14 24.69 33.09 25.17 32.16 25.17C30.34 25.17 29.82 23.3 29.76 23.08L28.1 23.75C28.73 25.94 30.38 26.53 31.12 26.71V28H32.87V26.76C33.39 26.67 35.89 26.17 35.89 23.54C35.9 22.15 35.29 20.93 32.89 20.1Z" fill="black"/>
<circle cx="32" cy="21" r="8" fill="white"/>
<path d="M37.286 19.566L37.869 17.124H36.285L35.669 19.819H33.634L32.974 17.124L31.346 17.135L30.697 19.819H28.651L28.035 17.124H26.451L27.034 19.566H25.956V21.414H27.485L28.629 26.166H30.609L31.841 21.161H32.479L33.711 26.166H35.691L36.835 21.414H38.364V19.566H37.286ZM28.959 21.161H30.367L29.641 24.131L28.959 21.161ZM35.361 21.161L34.679 24.131L33.953 21.161H35.361Z" fill="black"/>
</g>
<path d="M15.624 44.0715H18.012V48.6555H18.864V40.2435H18.012V43.3155H15.624V44.0715ZM16.452 46.3275L13.176 43.6995C13.368 43.1475 13.464 42.5715 13.464 41.9475V41.6715H16.008V40.9035H10.104V41.6715H12.624V41.9475C12.624 43.8435 11.556 45.1635 9.672 46.5195L10.14 47.1795C11.388 46.3275 12.288 45.4395 12.828 44.4555L15.96 46.9995L16.452 46.3275ZM12.6 47.9475H11.748V51.3195H19.38V50.5275H12.6V47.9475ZM29.5349 51.3195H30.3749V40.2435H29.5349V51.3195ZM23.9309 42.9195H25.9829V42.1395H23.9429V40.2555H23.1029V42.1395H21.0989V42.9195H23.1029V43.0875C23.1029 45.4995 22.2989 47.3115 20.7629 49.2555L21.3989 49.7835C22.3229 48.6315 22.9829 47.5155 23.3909 46.3395L25.6469 49.6515L26.3309 49.1475L23.6909 45.3075C23.8469 44.5995 23.9309 43.8675 23.9309 43.0875V42.9195ZM25.1909 44.6955V45.4755H27.1469V51.1155H27.9749V40.4235H27.1469V44.6955H25.1909ZM40.9258 51.3195H41.7658V40.2435H40.9258V51.3195ZM36.8098 43.0755C36.8338 42.7395 36.8578 42.3915 36.8578 42.0435V41.1915H32.7418V41.9715H36.0058V42.2115C36.0058 44.8035 34.6618 47.3955 32.5378 49.2915L33.1498 49.9155C34.9498 48.2475 36.2458 46.2075 36.6898 43.8555H38.5378V46.5555H36.4618V47.3235H38.5378V51.1155H39.3658V40.4235H38.5378V43.0755H36.8098ZM52.4847 44.6955V40.2435H51.6327V51.3195H52.4847V45.4755H54.2127V44.6955H52.4847ZM44.0247 46.7955C45.2367 46.0635 46.1247 45.3075 46.6767 44.4315L49.7487 46.6755L50.2287 45.9795L47.0487 43.6875C47.2287 43.2075 47.3247 42.6915 47.3247 42.1275V41.9595H49.7847V41.1915H44.0127V41.9595H46.4487V42.1275C46.4487 43.8075 45.4047 44.9355 43.5687 46.0995L44.0247 46.7955ZM47.3487 46.5315H46.4847V48.6795C46.0767 48.6915 45.7047 48.7035 45.3807 48.7035H43.4727L43.5087 49.4955H45.3327C46.9167 49.4955 49.0527 49.3515 50.6727 49.1235L50.5767 48.3675C49.5807 48.4995 48.4167 48.5835 47.3487 48.6435V46.5315Z" fill="#666666"/>
<defs>
<clipPath id="clip0_309_400">
<rect width="24" height="24" fill="white" transform="translate(20 8.51953)"/>
</clipPath>
</defs>
</svg>
