<svg width="64" height="65" viewBox="0 0 64 65" fill="none" xmlns="http://www.w3.org/2000/svg">
<rect width="64" height="64" transform="translate(0 0.519531)" fill="white"/>
<path d="M40.5 15.7995V13.5195C40.5 12.4195 39.6 11.5195 38.5 11.5195H24.5C23.39 11.5195 22.5 12.4195 22.5 13.5195V27.5195C22.5 28.6195 23.39 29.5195 24.5 29.5195H38.5C39.6 29.5195 40.5 28.6195 40.5 27.5195V25.2395C41.09 24.8895 41.5 24.2595 41.5 23.5195V17.5195C41.5 16.7795 41.09 16.1495 40.5 15.7995ZM39.5 17.5195V23.5195H32.5V17.5195H39.5ZM24.5 27.5195V13.5195H38.5V15.5195H32.5C31.4 15.5195 30.5 16.4195 30.5 17.5195V23.5195C30.5 24.6195 31.4 25.5195 32.5 25.5195H38.5V27.5195H24.5Z" fill="black"/>
<path d="M35.5 22.0195C36.3284 22.0195 37 21.348 37 20.5195C37 19.6911 36.3284 19.0195 35.5 19.0195C34.6716 19.0195 34 19.6911 34 20.5195C34 21.348 34.6716 22.0195 35.5 22.0195Z" fill="black"/>
<path d="M17.916 44.7795C18.144 43.5315 18.276 42.2595 18.276 41.2995V40.6395H10.812V41.4195H17.424V41.4795C17.424 42.1755 17.292 43.5075 17.052 44.7795H9.504V45.5595H19.872V44.7795H17.916ZM18.54 51.3195V47.0835H10.848V51.3195H18.54ZM17.676 47.8515V50.5515H11.7V47.8515H17.676ZM26.8469 44.3835C28.7669 44.3835 29.9789 43.7115 29.9789 42.3915C29.9789 41.0595 28.7669 40.3995 26.8469 40.3995H25.2989C23.3789 40.3995 22.1669 41.0595 22.1669 42.3915C22.1669 43.7115 23.3789 44.3835 25.2989 44.3835H26.8469ZM26.7029 41.1555C28.2629 41.1555 29.1149 41.5875 29.1149 42.3915C29.1149 43.1835 28.2629 43.6515 26.7029 43.6515H25.4429C23.8709 43.6515 23.0189 43.2075 23.0189 42.3915C23.0189 41.5875 23.8709 41.1555 25.4429 41.1555H26.7029ZM31.2509 45.4275H20.8829V46.1955H23.7749V47.6115C22.6829 47.8875 22.1069 48.5835 22.1069 49.4595C22.1069 50.5995 23.0549 51.4395 24.8549 51.4395H27.2789C29.0909 51.4395 30.0389 50.5995 30.0389 49.4595C30.0389 48.5835 29.4749 47.8875 28.3829 47.6115V46.1955H31.2509V45.4275ZM27.5429 47.5035C27.4589 47.4915 27.3749 47.4915 27.2789 47.4915H24.8549H24.6149V46.1955H27.5429V47.5035ZM29.1749 49.4595C29.1749 50.1915 28.5029 50.6715 27.0869 50.6715H25.0469C23.6309 50.6715 22.9589 50.1915 22.9589 49.4595C22.9589 48.7275 23.6309 48.2595 25.0469 48.2595H27.0869C28.5029 48.2595 29.1749 48.7275 29.1749 49.4595ZM40.9978 40.2555H40.1338V46.3035H40.9978V43.5075H42.8338V42.7275H40.9978V40.2555ZM38.3458 45.9795L38.8138 45.2955L35.5618 43.0635C35.7658 42.5355 35.8618 41.9835 35.8618 41.3835V40.6395H35.0218V41.3835C35.0218 43.0875 33.9898 44.3715 32.0578 45.5115L32.4898 46.2075C33.7498 45.4875 34.6498 44.6955 35.2018 43.7955L38.3458 45.9795ZM36.4498 46.9755C34.8418 46.9755 33.8698 47.9595 33.8698 49.2075C33.8698 50.4675 34.8418 51.4275 36.4498 51.4275H38.6938C40.3138 51.4275 41.2738 50.4675 41.2738 49.2075C41.2738 47.9595 40.3138 46.9755 38.6938 46.9755H36.4498ZM36.6178 50.6595C35.3458 50.6595 34.7338 50.0355 34.7338 49.1955C34.7338 48.3915 35.3458 47.7435 36.6178 47.7435H38.5258C39.7978 47.7435 40.4098 48.3915 40.4098 49.1955C40.4098 50.0355 39.7978 50.6595 38.5258 50.6595H36.6178ZM51.0087 43.8555V41.2635H52.7367V40.5195H44.9247V41.2635H46.6407V43.8555H44.9247V44.5995H52.7367V43.8555H51.0087ZM50.1687 41.2635V43.8555H47.4807V41.2635H50.1687ZM54.0087 45.7155H43.6407V46.4835H48.3927V47.7795H44.9847V51.3195H52.6767V47.7795H49.2447V46.4835H54.0087V45.7155ZM45.8367 50.5875V48.5115H51.8127V50.5875H45.8367Z" fill="#666666"/>
</svg>
