<svg width="64" height="65" viewBox="0 0 64 65" fill="none" xmlns="http://www.w3.org/2000/svg">
<rect width="64" height="64" transform="translate(0 0.519531)" fill="white"/>
<path d="M39 11.5195H25C23.9 11.5195 23 12.4195 23 13.5195V27.5195C23 28.6195 23.9 29.5195 25 29.5195H39C40.1 29.5195 41 28.6195 41 27.5195V13.5195C41 12.4195 40.1 11.5195 39 11.5195ZM39 27.5195H25V13.5195H39V27.5195ZM27 18.5195H29V25.5195H27V18.5195ZM31 15.5195H33V25.5195H31V15.5195ZM35 21.5195H37V25.5195H35V21.5195Z" fill="black"/>
<path d="M18.24 44.5755V40.2435H17.388V51.3195H18.24V45.3675H20.076V44.5755H18.24ZM13.08 41.9715H15.588V41.1915H9.756V41.9715H12.24V42.6075C12.24 45.3435 11.148 47.2395 9.324 49.2075L9.948 49.7835C11.076 48.5715 11.904 47.3715 12.432 46.0755L15.372 49.6635L16.032 49.0875L12.756 45.1155C12.972 44.3235 13.08 43.4955 13.08 42.6075V41.9715ZM29.6189 40.2435H28.7549V48.6555H29.6189V43.9755H31.4549V43.1835H29.6189V40.2435ZM26.9429 46.6515L27.4349 46.0035L24.1709 43.4475C24.3749 42.8595 24.4829 42.2355 24.4829 41.5635V40.6995H23.6429V41.5635C23.6429 43.4715 22.6109 44.9115 20.6789 46.2195L21.1469 46.8795C22.3829 46.0635 23.2709 45.1875 23.8229 44.2035L26.9429 46.6515ZM22.7309 47.9475V51.3195H30.2429V50.5275H23.5829V47.9475H22.7309ZM41.1058 40.2435H40.2538V48.8235H41.1058V44.5635H42.8338V43.7595H41.1058V40.2435ZM37.4098 41.6955C37.4098 42.4755 37.2778 43.7595 37.0378 44.9715L37.8658 45.1035C38.0938 43.8795 38.2618 42.5955 38.2618 41.4315V40.8555H32.8618V41.6115H37.4098V41.6955ZM39.1978 45.9315C38.0458 46.0755 36.6778 46.1835 35.5018 46.2435V43.4115H34.6378V46.2675C34.4098 46.2795 34.1938 46.2795 34.0018 46.2795H32.0938L32.1298 47.0595H33.9538C35.5378 47.0595 37.6738 46.9275 39.2938 46.6875L39.1978 45.9315ZM34.1098 48.4155V51.3195H41.7418V50.5275H34.9618V48.4155H34.1098ZM53.0007 51.3195V40.2435H52.1487V51.3195H53.0007ZM46.1727 49.7115C47.8047 49.7115 49.6167 49.5555 50.9247 49.3035L50.8167 48.5595C49.4247 48.7755 47.6727 48.9315 46.3167 48.9315H45.1527V45.7515H49.4607V41.1315H44.3007V41.9115H48.5967V44.9715H44.3007V49.7115H46.1727Z" fill="#666666"/>
</svg>
