<svg width="83" height="24" viewBox="0 0 83 24" fill="none" xmlns="http://www.w3.org/2000/svg">
<path d="M9 12.964H9.852V6.736H9V12.964ZM7.14 12.736L7.584 12.028L4.272 9.772C4.452 9.292 4.536 8.8 4.536 8.26V8.104H7.14V7.324H1.104V8.104H3.696V8.26C3.696 9.928 2.604 11.104 0.66 12.268L1.08 12.964C2.412 12.208 3.348 11.404 3.912 10.48L7.14 12.736ZM9 14.524V17.908H9.852V13.744H2.616V14.524H9ZM20.6189 6.736H19.7669V12.784H20.6189V9.988H22.4549V9.208H20.6189V6.736ZM17.9549 12.616L18.4109 11.92L15.2069 9.712C15.3749 9.256 15.4589 8.776 15.4589 8.26V8.092H17.9669V7.324H12.1349V8.092H14.6189V8.26C14.6189 9.868 13.5749 11.032 11.7149 12.16L12.1349 12.844C13.4189 12.112 14.3189 11.32 14.8589 10.432L17.9549 12.616ZM16.0709 13.456C14.4629 13.456 13.4909 14.44 13.4909 15.688C13.4909 16.948 14.4629 17.908 16.0709 17.908H18.3149C19.9349 17.908 20.8949 16.948 20.8949 15.688C20.8949 14.44 19.9349 13.456 18.3149 13.456H16.0709ZM16.2389 17.14C14.9669 17.14 14.3549 16.516 14.3549 15.676C14.3549 14.872 14.9669 14.224 16.2389 14.224H18.1469C19.4189 14.224 20.0309 14.872 20.0309 15.676C20.0309 16.516 19.4189 17.14 18.1469 17.14H16.2389ZM32.6338 15.136V6.724H31.7698V15.136H32.6338ZM26.6338 13.144C28.2058 13.144 29.5018 12.208 29.5018 10.252V10C29.5018 8.032 28.2058 7.084 26.6338 7.084C25.0378 7.084 23.7418 8.032 23.7418 10V10.252C23.7418 12.208 25.0378 13.144 26.6338 13.144ZM26.6338 12.376C25.4698 12.376 24.6058 11.656 24.6058 10.24V10C24.6058 8.584 25.4698 7.852 26.6338 7.852C27.7858 7.852 28.6498 8.584 28.6498 10V10.24C28.6498 11.656 27.7858 12.376 26.6338 12.376ZM33.1498 17.8V17.008H26.3698V14.26H25.5058V17.8H33.1498ZM43.5347 12.136C45.5027 12.136 46.7507 11.152 46.7507 9.628C46.7507 8.128 45.5027 7.144 43.5347 7.144H41.9627C39.9827 7.144 38.7587 8.128 38.7587 9.628C38.7587 11.152 39.9827 12.136 41.9627 12.136H43.5347ZM43.3907 7.912C44.9867 7.912 45.8867 8.608 45.8867 9.628C45.8867 10.66 44.9867 11.368 43.3907 11.368H42.0947C40.5107 11.368 39.6107 10.672 39.6107 9.628C39.6107 8.608 40.5107 7.912 42.0947 7.912H43.3907ZM37.5587 13.744V14.524H42.3227V17.92H43.1747V14.524H47.9267V13.744H37.5587ZM57.6016 11.056H55.8856V6.904H55.0576V17.596H55.8856V11.848H57.6016V17.8H58.4416V6.724H57.6016V11.056ZM50.2576 15.172V8.404H53.4736V7.612H49.3936V15.952H50.7136C52.0456 15.952 53.1256 15.88 54.2296 15.688L54.1336 14.92C52.9576 15.1 51.9136 15.172 50.8456 15.172H50.2576ZM65.9325 11.692H69.4725V10.96H62.6205V9.688H69.2445V8.956H62.6205V7.732H69.2445V7H61.7685V11.692H65.0805V12.736H60.3165V13.468H70.6845V12.736H65.9325V11.692ZM64.2525 14.44C62.4645 14.44 61.5405 15.136 61.5405 16.18C61.5405 17.236 62.4645 17.92 64.2525 17.92H66.7605C68.5485 17.92 69.4725 17.236 69.4725 16.18C69.4725 15.136 68.5485 14.44 66.7605 14.44H64.2525ZM64.4565 17.188C63.0525 17.188 62.3925 16.816 62.3925 16.18C62.3925 15.544 63.0525 15.172 64.4565 15.172H66.5565C67.9485 15.172 68.6085 15.544 68.6085 16.18C68.6085 16.816 67.9485 17.188 66.5565 17.188H64.4565ZM80.4314 6.736H79.5794V12.784H80.4314V9.988H82.2674V9.208H80.4314V6.736ZM77.7674 12.616L78.2234 11.92L75.0194 9.712C75.1874 9.256 75.2714 8.776 75.2714 8.26V8.092H77.7794V7.324H71.9474V8.092H74.4314V8.26C74.4314 9.868 73.3874 11.032 71.5274 12.16L71.9474 12.844C73.2314 12.112 74.1314 11.32 74.6714 10.432L77.7674 12.616ZM75.8834 13.456C74.2754 13.456 73.3034 14.44 73.3034 15.688C73.3034 16.948 74.2754 17.908 75.8834 17.908H78.1274C79.7474 17.908 80.7074 16.948 80.7074 15.688C80.7074 14.44 79.7474 13.456 78.1274 13.456H75.8834ZM76.0514 17.14C74.7794 17.14 74.1674 16.516 74.1674 15.676C74.1674 14.872 74.7794 14.224 76.0514 14.224H77.9594C79.2314 14.224 79.8434 14.872 79.8434 15.676C79.8434 16.516 79.2314 17.14 77.9594 17.14H76.0514Z" fill="#333333"/>
</svg>
