<svg width="131" height="22" viewBox="0 0 131 22" fill="none" xmlns="http://www.w3.org/2000/svg">
<path d="M0.98 14.22C1.8 16.52 3.7 18.36 7.02 18.36C10.52 18.36 12.94 16.48 12.94 13.6C12.94 11.56 11.64 10.22 10.04 9.64C11.38 9.06 12.56 7.94 12.56 5.92C12.56 3.06 10.18 1.44 6.98 1.44C3.94 1.44 2.22 3.16 1.44 5.26L3.72 6.12C4.2 4.88 5.12 3.74 6.98 3.74C8.84 3.74 10.04 4.6 10.04 6.08C10.04 7.54 8.94 8.58 6.72 8.58H4.6V10.74H6.72C9.24 10.74 10.44 11.98 10.44 13.48C10.44 14.96 9.2 16.06 7.02 16.06C4.86 16.06 3.8 14.8 3.26 13.38L0.98 14.22ZM17.4788 21.5L18.4388 15.28H15.7988L15.3788 21.5H17.4788ZM27.4852 7.28C25.8452 7.28 24.2452 7.96 23.4052 9.3V8.64C23.4052 5.18 24.9652 3.72 26.9052 3.72C28.6452 3.72 29.6652 4.5 30.4852 6.06L32.6052 4.96C31.4852 2.66 29.6052 1.44 26.7852 1.44C23.9052 1.44 21.0652 3.6 21.0652 8.54V12.6C21.0652 16.32 23.5652 18.36 26.9652 18.36C30.3452 18.36 32.9252 16.22 32.9252 12.84C32.9252 9.46 30.3452 7.28 27.4852 7.28ZM26.9852 16.08C25.0652 16.08 23.6252 14.82 23.6252 12.8C23.6252 10.78 25.0652 9.54 26.9852 9.54C28.9252 9.54 30.4052 10.78 30.4052 12.8C30.4052 14.82 28.9252 16.08 26.9852 16.08ZM41.3639 18.36C44.6639 18.36 47.4239 16.06 47.4239 11.44V8.36C47.4239 3.76 44.6639 1.44 41.3639 1.44C38.0439 1.44 35.2839 3.76 35.2839 8.36V11.44C35.2839 16.06 38.0439 18.36 41.3639 18.36ZM41.3639 16.08C39.3439 16.08 37.8639 14.56 37.8639 11.32V8.48C37.8639 5.26 39.3439 3.72 41.3639 3.72C43.3839 3.72 44.8639 5.26 44.8639 8.48V11.32C44.8639 14.56 43.3839 16.08 41.3639 16.08ZM56.0709 18.36C59.3709 18.36 62.1309 16.06 62.1309 11.44V8.36C62.1309 3.76 59.3709 1.44 56.0709 1.44C52.7509 1.44 49.9909 3.76 49.9909 8.36V11.44C49.9909 16.06 52.7509 18.36 56.0709 18.36ZM56.0709 16.08C54.0509 16.08 52.5709 14.56 52.5709 11.32V8.48C52.5709 5.26 54.0509 3.72 56.0709 3.72C58.0909 3.72 59.5709 5.26 59.5709 8.48V11.32C59.5709 14.56 58.0909 16.08 56.0709 16.08ZM66.678 21.5L67.638 15.28H64.998L64.578 21.5H66.678ZM76.3444 18.36C79.6444 18.36 82.4044 16.06 82.4044 11.44V8.36C82.4044 3.76 79.6444 1.44 76.3444 1.44C73.0244 1.44 70.2644 3.76 70.2644 8.36V11.44C70.2644 16.06 73.0244 18.36 76.3444 18.36ZM76.3444 16.08C74.3244 16.08 72.8444 14.56 72.8444 11.32V8.48C72.8444 5.26 74.3244 3.72 76.3444 3.72C78.3644 3.72 79.8444 5.26 79.8444 8.48V11.32C79.8444 14.56 78.3644 16.08 76.3444 16.08ZM91.0514 18.36C94.3514 18.36 97.1114 16.06 97.1114 11.44V8.36C97.1114 3.76 94.3514 1.44 91.0514 1.44C87.7314 1.44 84.9714 3.76 84.9714 8.36V11.44C84.9714 16.06 87.7314 18.36 91.0514 18.36ZM91.0514 16.08C89.0314 16.08 87.5514 14.56 87.5514 11.32V8.48C87.5514 5.26 89.0314 3.72 91.0514 3.72C93.0714 3.72 94.5514 5.26 94.5514 8.48V11.32C94.5514 14.56 93.0714 16.08 91.0514 16.08ZM105.758 18.36C109.058 18.36 111.818 16.06 111.818 11.44V8.36C111.818 3.76 109.058 1.44 105.758 1.44C102.438 1.44 99.6784 3.76 99.6784 8.36V11.44C99.6784 16.06 102.438 18.36 105.758 18.36ZM105.758 16.08C103.738 16.08 102.258 14.56 102.258 11.32V8.48C102.258 5.26 103.738 3.72 105.758 3.72C107.778 3.72 109.258 5.26 109.258 8.48V11.32C109.258 14.56 107.778 16.08 105.758 16.08ZM122.685 13.96H127.425V15.26H129.985V0.48H127.425V12.06H122.685V13.96ZM119.905 8.06C122.825 8.06 125.045 6.86 125.045 4.54V4.34C125.045 1.98 122.825 0.779999 119.905 0.779999C116.965 0.779999 114.745 1.98 114.745 4.34V4.54C114.745 6.86 116.965 8.06 119.905 8.06ZM117.145 4.36C117.145 3.36 118.305 2.84 119.905 2.84C121.485 2.84 122.645 3.36 122.645 4.36V4.5C122.645 5.5 121.485 6 119.905 6C118.305 6 117.145 5.5 117.145 4.5V4.36ZM118.425 11.32C118.365 12.18 118.305 13.06 118.225 13.94L120.665 14.1C120.765 13.12 120.845 12.14 120.905 11.24C122.745 11.14 124.685 10.98 126.365 10.74L126.105 8.68C123.145 9.02 119.625 9.22 117.345 9.22H113.985L114.085 11.34H117.105C117.525 11.34 117.965 11.34 118.425 11.32ZM119.665 14.68H117.105V19.16H130.665V16.84H119.665V14.68Z" fill="black"/>
</svg>
