<svg width="160" height="22" viewBox="0 0 160 22" fill="none" xmlns="http://www.w3.org/2000/svg">
<path d="M0.98 14.22C1.8 16.52 3.7 18.36 7.02 18.36C10.52 18.36 12.94 16.48 12.94 13.6C12.94 11.56 11.64 10.22 10.04 9.64C11.38 9.06 12.56 7.94 12.56 5.92C12.56 3.06 10.18 1.44 6.98 1.44C3.94 1.44 2.22 3.16 1.44 5.26L3.72 6.12C4.2 4.88 5.12 3.74 6.98 3.74C8.84 3.74 10.04 4.6 10.04 6.08C10.04 7.54 8.94 8.58 6.72 8.58H4.6V10.74H6.72C9.24 10.74 10.44 11.98 10.44 13.48C10.44 14.96 9.2 16.06 7.02 16.06C4.86 16.06 3.8 14.8 3.26 13.38L0.98 14.22ZM21.4988 7.56C20.3588 7.56 19.1988 8 18.4388 8.86L18.9788 4.08H26.1788V1.74H16.8188L15.7988 11.74H18.0988C18.6388 10.56 19.5588 9.9 20.9788 9.9C22.8988 9.9 24.2388 11.1 24.2388 12.96C24.2388 14.8 22.9988 16.02 20.9388 16.02C19.4188 16.02 18.1188 15.34 17.4988 13.94L15.2988 15.18C16.2588 17.32 18.6788 18.36 21.0788 18.36C24.5188 18.36 26.7588 16.2 26.7588 12.96C26.7588 9.7 24.4987 7.56 21.4988 7.56ZM31.3069 21.5L32.2669 15.28H29.6269L29.2069 21.5H31.3069ZM40.9733 18.36C44.2733 18.36 47.0333 16.06 47.0333 11.44V8.36C47.0333 3.76 44.2733 1.44 40.9733 1.44C37.6533 1.44 34.8933 3.76 34.8933 8.36V11.44C34.8933 16.06 37.6533 18.36 40.9733 18.36ZM40.9733 16.08C38.9533 16.08 37.4733 14.56 37.4733 11.32V8.48C37.4733 5.26 38.9533 3.72 40.9733 3.72C42.9933 3.72 44.4733 5.26 44.4733 8.48V11.32C44.4733 14.56 42.9933 16.08 40.9733 16.08ZM55.6803 18.36C58.9803 18.36 61.7403 16.06 61.7403 11.44V8.36C61.7403 3.76 58.9803 1.44 55.6803 1.44C52.3603 1.44 49.6003 3.76 49.6003 8.36V11.44C49.6003 16.06 52.3603 18.36 55.6803 18.36ZM55.6803 16.08C53.6603 16.08 52.1803 14.56 52.1803 11.32V8.48C52.1803 5.26 53.6603 3.72 55.6803 3.72C57.7003 3.72 59.1803 5.26 59.1803 8.48V11.32C59.1803 14.56 57.7003 16.08 55.6803 16.08ZM70.3873 18.36C73.6873 18.36 76.4473 16.06 76.4473 11.44V8.36C76.4473 3.76 73.6873 1.44 70.3873 1.44C67.0673 1.44 64.3073 3.76 64.3073 8.36V11.44C64.3073 16.06 67.0673 18.36 70.3873 18.36ZM70.3873 16.08C68.3673 16.08 66.8873 14.56 66.8873 11.32V8.48C66.8873 5.26 68.3673 3.72 70.3873 3.72C72.4073 3.72 73.8873 5.26 73.8873 8.48V11.32C73.8873 14.56 72.4073 16.08 70.3873 16.08ZM85.0944 18.36C88.3944 18.36 91.1544 16.06 91.1544 11.44V8.36C91.1544 3.76 88.3944 1.44 85.0944 1.44C81.7744 1.44 79.0144 3.76 79.0144 8.36V11.44C79.0144 16.06 81.7744 18.36 85.0944 18.36ZM85.0944 16.08C83.0744 16.08 81.5944 14.56 81.5944 11.32V8.48C81.5944 5.26 83.0744 3.72 85.0944 3.72C87.1144 3.72 88.5944 5.26 88.5944 8.48V11.32C88.5944 14.56 87.1144 16.08 85.0944 16.08ZM95.7014 21.5L96.6614 15.28H94.0214L93.6014 21.5H95.7014ZM105.368 18.36C108.668 18.36 111.428 16.06 111.428 11.44V8.36C111.428 3.76 108.668 1.44 105.368 1.44C102.048 1.44 99.2878 3.76 99.2878 8.36V11.44C99.2878 16.06 102.048 18.36 105.368 18.36ZM105.368 16.08C103.348 16.08 101.868 14.56 101.868 11.32V8.48C101.868 5.26 103.348 3.72 105.368 3.72C107.388 3.72 108.868 5.26 108.868 8.48V11.32C108.868 14.56 107.388 16.08 105.368 16.08ZM120.075 18.36C123.375 18.36 126.135 16.06 126.135 11.44V8.36C126.135 3.76 123.375 1.44 120.075 1.44C116.755 1.44 113.995 3.76 113.995 8.36V11.44C113.995 16.06 116.755 18.36 120.075 18.36ZM120.075 16.08C118.055 16.08 116.575 14.56 116.575 11.32V8.48C116.575 5.26 118.055 3.72 120.075 3.72C122.095 3.72 123.575 5.26 123.575 8.48V11.32C123.575 14.56 122.095 16.08 120.075 16.08ZM134.782 18.36C138.082 18.36 140.842 16.06 140.842 11.44V8.36C140.842 3.76 138.082 1.44 134.782 1.44C131.462 1.44 128.702 3.76 128.702 8.36V11.44C128.702 16.06 131.462 18.36 134.782 18.36ZM134.782 16.08C132.762 16.08 131.282 14.56 131.282 11.32V8.48C131.282 5.26 132.762 3.72 134.782 3.72C136.802 3.72 138.282 5.26 138.282 8.48V11.32C138.282 14.56 136.802 16.08 134.782 16.08ZM151.709 13.96H156.449V15.26H159.009V0.48H156.449V12.06H151.709V13.96ZM148.929 8.06C151.849 8.06 154.069 6.86 154.069 4.54V4.34C154.069 1.98 151.849 0.779999 148.929 0.779999C145.989 0.779999 143.769 1.98 143.769 4.34V4.54C143.769 6.86 145.989 8.06 148.929 8.06ZM146.169 4.36C146.169 3.36 147.329 2.84 148.929 2.84C150.509 2.84 151.669 3.36 151.669 4.36V4.5C151.669 5.5 150.509 6 148.929 6C147.329 6 146.169 5.5 146.169 4.5V4.36ZM147.449 11.32C147.389 12.18 147.329 13.06 147.249 13.94L149.689 14.1C149.789 13.12 149.869 12.14 149.929 11.24C151.769 11.14 153.709 10.98 155.389 10.74L155.129 8.68C152.169 9.02 148.649 9.22 146.369 9.22H143.009L143.109 11.34H146.129C146.549 11.34 146.989 11.34 147.449 11.32ZM148.689 14.68H146.129V19.16H159.689V16.84H148.689V14.68Z" fill="black"/>
</svg>
