<svg width="118" height="19" viewBox="0 0 118 19" fill="none" xmlns="http://www.w3.org/2000/svg">
<path d="M6.336 0.895999C3.312 0.895999 0.972 2.822 0.972 5.846C0.972 8.888 3.312 10.85 5.868 10.85C7.344 10.85 8.784 10.238 9.54 9.05V9.644C9.54 12.74 8.136 14.072 6.408 14.072C4.824 14.072 3.906 13.37 3.168 11.948L1.278 12.956C2.268 15.026 3.96 16.124 6.516 16.124C9.09 16.124 11.646 14.18 11.646 9.734V6.08C11.646 2.732 9.396 0.895999 6.336 0.895999ZM6.318 8.834C4.572 8.834 3.24 7.7 3.24 5.9C3.24 4.082 4.572 2.948 6.318 2.948C8.046 2.948 9.36 4.082 9.36 5.9C9.36 7.7 8.046 8.834 6.318 8.834ZM15.7309 18.95L16.5949 13.352H14.2189L13.8409 18.95H15.7309ZM24.3946 16.124C27.5086 16.124 29.8306 14.612 29.8306 11.768C29.8306 10.292 28.9126 8.96 27.0946 8.24C28.7506 7.592 29.4526 6.386 29.4526 5.018C29.4526 2.318 27.2926 0.895999 24.3946 0.895999C21.5146 0.895999 19.3366 2.318 19.3366 5.018C19.3366 6.386 20.0386 7.592 21.6946 8.24C19.8766 8.96 18.9586 10.292 18.9586 11.768C18.9586 14.612 21.3166 16.124 24.3946 16.124ZM24.3946 7.304C22.6486 7.304 21.6406 6.458 21.6406 5.144C21.6406 3.812 22.6486 2.966 24.3946 2.966C26.1406 2.966 27.1666 3.812 27.1666 5.144C27.1666 6.458 26.1406 7.304 24.3946 7.304ZM24.3946 14.054C22.4146 14.054 21.2446 13.118 21.2446 11.66C21.2446 10.238 22.4506 9.284 24.3946 9.284C26.3386 9.284 27.5446 10.238 27.5446 11.66C27.5446 13.118 26.3746 14.054 24.3946 14.054ZM37.6142 16.124C40.5842 16.124 43.0682 14.054 43.0682 9.896V7.124C43.0682 2.984 40.5842 0.895999 37.6142 0.895999C34.6262 0.895999 32.1422 2.984 32.1422 7.124V9.896C32.1422 14.054 34.6262 16.124 37.6142 16.124ZM37.6142 14.072C35.7962 14.072 34.4642 12.704 34.4642 9.788V7.232C34.4642 4.334 35.7962 2.948 37.6142 2.948C39.4322 2.948 40.7642 4.334 40.7642 7.232V9.788C40.7642 12.704 39.4322 14.072 37.6142 14.072ZM50.8506 16.124C53.8206 16.124 56.3046 14.054 56.3046 9.896V7.124C56.3046 2.984 53.8206 0.895999 50.8506 0.895999C47.8626 0.895999 45.3786 2.984 45.3786 7.124V9.896C45.3786 14.054 47.8626 16.124 50.8506 16.124ZM50.8506 14.072C49.0326 14.072 47.7006 12.704 47.7006 9.788V7.232C47.7006 4.334 49.0326 2.948 50.8506 2.948C52.6686 2.948 54.0006 4.334 54.0006 7.232V9.788C54.0006 12.704 52.6686 14.072 50.8506 14.072ZM60.3969 18.95L61.2609 13.352H58.8849L58.5069 18.95H60.3969ZM69.0967 16.124C72.0667 16.124 74.5507 14.054 74.5507 9.896V7.124C74.5507 2.984 72.0667 0.895999 69.0967 0.895999C66.1087 0.895999 63.6247 2.984 63.6247 7.124V9.896C63.6247 14.054 66.1087 16.124 69.0967 16.124ZM69.0967 14.072C67.2787 14.072 65.9467 12.704 65.9467 9.788V7.232C65.9467 4.334 67.2787 2.948 69.0967 2.948C70.9147 2.948 72.2467 4.334 72.2467 7.232V9.788C72.2467 12.704 70.9147 14.072 69.0967 14.072ZM82.333 16.124C85.303 16.124 87.787 14.054 87.787 9.896V7.124C87.787 2.984 85.303 0.895999 82.333 0.895999C79.345 0.895999 76.861 2.984 76.861 7.124V9.896C76.861 14.054 79.345 16.124 82.333 16.124ZM82.333 14.072C80.515 14.072 79.183 12.704 79.183 9.788V7.232C79.183 4.334 80.515 2.948 82.333 2.948C84.151 2.948 85.483 4.334 85.483 7.232V9.788C85.483 12.704 84.151 14.072 82.333 14.072ZM95.5693 16.124C98.5393 16.124 101.023 14.054 101.023 9.896V7.124C101.023 2.984 98.5393 0.895999 95.5693 0.895999C92.5813 0.895999 90.0973 2.984 90.0973 7.124V9.896C90.0973 14.054 92.5813 16.124 95.5693 16.124ZM95.5693 14.072C93.7513 14.072 92.4193 12.704 92.4193 9.788V7.232C92.4193 4.334 93.7513 2.948 95.5693 2.948C97.3873 2.948 98.7193 4.334 98.7193 7.232V9.788C98.7193 12.704 97.3873 14.072 95.5693 14.072ZM110.804 12.164H115.07V13.334H117.374V0.0319996H115.07V10.454H110.804V12.164ZM108.302 6.854C110.93 6.854 112.928 5.774 112.928 3.686V3.506C112.928 1.382 110.93 0.301999 108.302 0.301999C105.656 0.301999 103.658 1.382 103.658 3.506V3.686C103.658 5.774 105.656 6.854 108.302 6.854ZM105.818 3.524C105.818 2.624 106.862 2.156 108.302 2.156C109.724 2.156 110.768 2.624 110.768 3.524V3.65C110.768 4.55 109.724 5 108.302 5C106.862 5 105.818 4.55 105.818 3.65V3.524ZM106.97 9.788C106.916 10.562 106.862 11.354 106.79 12.146L108.986 12.29C109.076 11.408 109.148 10.526 109.202 9.716C110.858 9.626 112.604 9.482 114.116 9.266L113.882 7.412C111.218 7.718 108.05 7.898 105.998 7.898H102.974L103.064 9.806H105.782C106.16 9.806 106.556 9.806 106.97 9.788ZM108.086 12.812H105.782V16.844H117.986V14.756H108.086V12.812Z" fill="black"/>
</svg>
