<svg width="270" height="28" viewBox="0 0 270 28" fill="none" xmlns="http://www.w3.org/2000/svg">
<path d="M1.098 14.554H7.182V12.43H1.098V14.554ZM19.5653 20.854V18.73H12.7793L16.5773 14.986C18.2513 13.33 19.2413 11.944 19.2413 10C19.2413 7.408 17.2793 5.896 14.3993 5.896C11.5733 5.896 9.8813 7.912 9.2873 10.144L11.4833 10.666C11.8973 9.154 12.7793 7.966 14.3993 7.966C16.0733 7.966 16.9553 8.848 16.9553 10.09C16.9553 11.314 16.2713 12.304 14.7773 13.798L9.4673 19.072V20.854H19.5653ZM23.641 23.95L24.505 18.352H22.129L21.751 23.95H23.641ZM32.3408 21.124C35.3108 21.124 37.7948 19.054 37.7948 14.896V12.124C37.7948 7.984 35.3108 5.896 32.3408 5.896C29.3528 5.896 26.8688 7.984 26.8688 12.124V14.896C26.8688 19.054 29.3528 21.124 32.3408 21.124ZM32.3408 19.072C30.5228 19.072 29.1908 17.704 29.1908 14.788V12.232C29.1908 9.334 30.5228 7.948 32.3408 7.948C34.1588 7.948 35.4908 9.334 35.4908 12.232V14.788C35.4908 17.704 34.1588 19.072 32.3408 19.072ZM45.5771 21.124C48.5471 21.124 51.0311 19.054 51.0311 14.896V12.124C51.0311 7.984 48.5471 5.896 45.5771 5.896C42.5891 5.896 40.1051 7.984 40.1051 12.124V14.896C40.1051 19.054 42.5891 21.124 45.5771 21.124ZM45.5771 19.072C43.7591 19.072 42.4271 17.704 42.4271 14.788V12.232C42.4271 9.334 43.7591 7.948 45.5771 7.948C47.3951 7.948 48.7271 9.334 48.7271 12.232V14.788C48.7271 17.704 47.3951 19.072 45.5771 19.072ZM58.8135 21.124C61.7835 21.124 64.2675 19.054 64.2675 14.896V12.124C64.2675 7.984 61.7835 5.896 58.8135 5.896C55.8255 5.896 53.3415 7.984 53.3415 12.124V14.896C53.3415 19.054 55.8255 21.124 58.8135 21.124ZM58.8135 19.072C56.9955 19.072 55.6635 17.704 55.6635 14.788V12.232C55.6635 9.334 56.9955 7.948 58.8135 7.948C60.6315 7.948 61.9635 9.334 61.9635 12.232V14.788C61.9635 17.704 60.6315 19.072 58.8135 19.072ZM68.3598 23.95L69.2238 18.352H66.8478L66.4698 23.95H68.3598ZM77.0595 21.124C80.0295 21.124 82.5135 19.054 82.5135 14.896V12.124C82.5135 7.984 80.0295 5.896 77.0595 5.896C74.0715 5.896 71.5875 7.984 71.5875 12.124V14.896C71.5875 19.054 74.0715 21.124 77.0595 21.124ZM77.0595 19.072C75.2415 19.072 73.9095 17.704 73.9095 14.788V12.232C73.9095 9.334 75.2415 7.948 77.0595 7.948C78.8775 7.948 80.2095 9.334 80.2095 12.232V14.788C80.2095 17.704 78.8775 19.072 77.0595 19.072ZM90.2959 21.124C93.2659 21.124 95.7499 19.054 95.7499 14.896V12.124C95.7499 7.984 93.2659 5.896 90.2959 5.896C87.3079 5.896 84.8239 7.984 84.8239 12.124V14.896C84.8239 19.054 87.3079 21.124 90.2959 21.124ZM90.2959 19.072C88.4779 19.072 87.1459 17.704 87.1459 14.788V12.232C87.1459 9.334 88.4779 7.948 90.2959 7.948C92.1139 7.948 93.4459 9.334 93.4459 12.232V14.788C93.4459 17.704 92.1139 19.072 90.2959 19.072ZM103.532 21.124C106.502 21.124 108.986 19.054 108.986 14.896V12.124C108.986 7.984 106.502 5.896 103.532 5.896C100.544 5.896 98.0602 7.984 98.0602 12.124V14.896C98.0602 19.054 100.544 21.124 103.532 21.124ZM103.532 19.072C101.714 19.072 100.382 17.704 100.382 14.788V12.232C100.382 9.334 101.714 7.948 103.532 7.948C105.35 7.948 106.682 9.334 106.682 12.232V14.788C106.682 17.704 105.35 19.072 103.532 19.072ZM118.767 17.164H123.033V18.334H125.337V5.032H123.033V15.454H118.767V17.164ZM116.265 11.854C118.893 11.854 120.891 10.774 120.891 8.686V8.506C120.891 6.382 118.893 5.302 116.265 5.302C113.619 5.302 111.621 6.382 111.621 8.506V8.686C111.621 10.774 113.619 11.854 116.265 11.854ZM113.781 8.524C113.781 7.624 114.825 7.156 116.265 7.156C117.687 7.156 118.731 7.624 118.731 8.524V8.65C118.731 9.55 117.687 10 116.265 10C114.825 10 113.781 9.55 113.781 8.65V8.524ZM114.933 14.788C114.879 15.562 114.825 16.354 114.753 17.146L116.949 17.29C117.039 16.408 117.111 15.526 117.165 14.716C118.821 14.626 120.567 14.482 122.079 14.266L121.845 12.412C119.181 12.718 116.013 12.898 113.961 12.898H110.937L111.027 14.806H113.745C114.123 14.806 114.519 14.806 114.933 14.788ZM116.049 17.812H113.745V21.844H125.949V19.756H116.049V17.812Z" fill="black"/>
</svg>
