<svg width="80" height="22" viewBox="0 0 80 22" fill="none" xmlns="http://www.w3.org/2000/svg">
<path d="M9.168 16.8H10.008V5.724H9.168V16.8ZM5.124 8.448C4.812 6.948 3.996 6.324 3 6.324C1.704 6.324 0.72 7.368 0.72 9.996V11.652C0.72 14.28 1.704 15.324 3 15.324C4.092 15.324 4.98 14.556 5.208 12.696H6.78V16.596H7.608V5.904H6.78V8.448H5.124ZM4.44 11.64C4.44 13.704 3.84 14.532 2.988 14.532C2.148 14.532 1.548 13.704 1.548 11.64V9.996C1.548 7.932 2.148 7.116 2.988 7.116C3.84 7.116 4.44 7.932 4.44 9.996V11.64ZM5.268 11.916V11.652V9.996C5.268 9.72 5.256 9.456 5.232 9.216H6.78V11.916H5.268ZM20.3789 8.364H17.9909V9.132H20.3789V11.964H21.2309V5.736H20.3789V8.364ZM18.3749 11.796L18.8189 11.1L15.5669 8.82C15.7469 8.34 15.8429 7.824 15.8429 7.272V7.104H18.3749V6.324H12.4829V7.104H15.0029V7.272C15.0029 8.952 13.9349 10.116 12.0389 11.28L12.4589 11.964C13.7429 11.208 14.6549 10.428 15.2069 9.528L18.3749 11.796ZM20.3789 13.524V16.908H21.2309V12.744H13.9949V13.524H20.3789ZM31.6738 10.26C31.9018 9.012 32.0338 7.74 32.0338 6.78V6.12H24.5698V6.9H31.1818V6.96C31.1818 7.656 31.0498 8.988 30.8098 10.26H23.2618V11.04H33.6298V10.26H31.6738ZM32.2978 16.8V12.564H24.6058V16.8H32.2978ZM31.4338 13.332V16.032H25.4578V13.332H31.4338ZM43.3887 8.208V5.724H42.5247V11.724H43.3887V8.988H45.2247V8.208H43.3887ZM41.2647 10.128C39.8607 10.344 38.1567 10.488 36.8367 10.488H35.8287V7.092H40.1727V6.324H34.9647V11.268H36.6927C38.2887 11.268 40.0527 11.112 41.3607 10.884L41.2647 10.128ZM43.3887 16.8V12.516H36.4887V16.8H43.3887ZM42.5247 13.284V16.02H37.3527V13.284H42.5247ZM51.6356 12.456H55.0556V6.48H54.1916V8.712H48.2156V6.48H47.3636V12.456H50.7836V15.12H46.0196V15.912H56.3876V15.12H51.6356V12.456ZM54.1916 9.504V11.676H48.2156V9.504H54.1916ZM66.0625 10.056H64.3465V5.904H63.5185V16.596H64.3465V10.848H66.0625V16.8H66.9025V5.724H66.0625V10.056ZM58.7185 14.172V7.404H61.9345V6.612H57.8545V14.952H59.1745C60.5065 14.952 61.5865 14.88 62.6905 14.688L62.5945 13.92C61.4185 14.1 60.3745 14.172 59.3065 14.172H58.7185ZM69.8814 10.284C71.7534 9.876 73.0014 9.396 73.7094 8.76L77.9694 10.284L78.2574 9.564L74.2014 8.148C74.3334 7.896 74.4054 7.62 74.4174 7.332H77.7054V6.588H74.4294V5.496H73.5894V6.588H70.2294V7.332H73.6134C73.5294 8.268 72.1854 9.024 69.6534 9.552L69.8814 10.284ZM79.1454 10.812H68.7774V11.52H73.5414V12.564H70.0614V13.26H76.9494V14.34H70.1214V16.848H78.1134V16.14H70.9734V15.036H77.8134V12.564H74.3934V11.52H79.1454V10.812Z" fill="black"/>
</svg>
