<svg width="131" height="19" viewBox="0 0 131 19" fill="none" xmlns="http://www.w3.org/2000/svg">
<path d="M0.882 12.398C1.62 14.468 3.33 16.124 6.318 16.124C9.468 16.124 11.646 14.432 11.646 11.84C11.646 10.004 10.476 8.798 9.036 8.276C10.242 7.754 11.304 6.746 11.304 4.928C11.304 2.354 9.162 0.895999 6.282 0.895999C3.546 0.895999 1.998 2.444 1.296 4.334L3.348 5.108C3.78 3.992 4.608 2.966 6.282 2.966C7.956 2.966 9.036 3.74 9.036 5.072C9.036 6.386 8.046 7.322 6.048 7.322H4.14V9.266H6.048C8.316 9.266 9.396 10.382 9.396 11.732C9.396 13.064 8.28 14.054 6.318 14.054C4.374 14.054 3.42 12.92 2.934 11.642L0.882 12.398ZM19.3489 6.404C18.3229 6.404 17.2789 6.8 16.5949 7.574L17.0809 3.272H23.5609V1.166H15.1369L14.2189 10.166H16.2889C16.7749 9.104 17.6029 8.51 18.8809 8.51C20.6089 8.51 21.8149 9.59 21.8149 11.264C21.8149 12.92 20.6989 14.018 18.8449 14.018C17.4769 14.018 16.3069 13.406 15.7489 12.146L13.7689 13.262C14.6329 15.188 16.8109 16.124 18.9709 16.124C22.0669 16.124 24.0829 14.18 24.0829 11.264C24.0829 8.33 22.0489 6.404 19.3489 6.404ZM28.1762 18.95L29.0402 13.352H26.6642L26.2862 18.95H28.1762ZM36.876 16.124C39.846 16.124 42.33 14.054 42.33 9.896V7.124C42.33 2.984 39.846 0.895999 36.876 0.895999C33.888 0.895999 31.404 2.984 31.404 7.124V9.896C31.404 14.054 33.888 16.124 36.876 16.124ZM36.876 14.072C35.058 14.072 33.726 12.704 33.726 9.788V7.232C33.726 4.334 35.058 2.948 36.876 2.948C38.694 2.948 40.026 4.334 40.026 7.232V9.788C40.026 12.704 38.694 14.072 36.876 14.072ZM50.1123 16.124C53.0823 16.124 55.5663 14.054 55.5663 9.896V7.124C55.5663 2.984 53.0823 0.895999 50.1123 0.895999C47.1243 0.895999 44.6403 2.984 44.6403 7.124V9.896C44.6403 14.054 47.1243 16.124 50.1123 16.124ZM50.1123 14.072C48.2943 14.072 46.9623 12.704 46.9623 9.788V7.232C46.9623 4.334 48.2943 2.948 50.1123 2.948C51.9303 2.948 53.2623 4.334 53.2623 7.232V9.788C53.2623 12.704 51.9303 14.072 50.1123 14.072ZM63.3486 16.124C66.3186 16.124 68.8026 14.054 68.8026 9.896V7.124C68.8026 2.984 66.3186 0.895999 63.3486 0.895999C60.3606 0.895999 57.8766 2.984 57.8766 7.124V9.896C57.8766 14.054 60.3606 16.124 63.3486 16.124ZM63.3486 14.072C61.5306 14.072 60.1986 12.704 60.1986 9.788V7.232C60.1986 4.334 61.5306 2.948 63.3486 2.948C65.1666 2.948 66.4986 4.334 66.4986 7.232V9.788C66.4986 12.704 65.1666 14.072 63.3486 14.072ZM72.8949 18.95L73.7589 13.352H71.3829L71.0049 18.95H72.8949ZM81.5947 16.124C84.5647 16.124 87.0487 14.054 87.0487 9.896V7.124C87.0487 2.984 84.5647 0.895999 81.5947 0.895999C78.6067 0.895999 76.1227 2.984 76.1227 7.124V9.896C76.1227 14.054 78.6067 16.124 81.5947 16.124ZM81.5947 14.072C79.7767 14.072 78.4447 12.704 78.4447 9.788V7.232C78.4447 4.334 79.7767 2.948 81.5947 2.948C83.4127 2.948 84.7447 4.334 84.7447 7.232V9.788C84.7447 12.704 83.4127 14.072 81.5947 14.072ZM94.831 16.124C97.801 16.124 100.285 14.054 100.285 9.896V7.124C100.285 2.984 97.801 0.895999 94.831 0.895999C91.843 0.895999 89.359 2.984 89.359 7.124V9.896C89.359 14.054 91.843 16.124 94.831 16.124ZM94.831 14.072C93.013 14.072 91.681 12.704 91.681 9.788V7.232C91.681 4.334 93.013 2.948 94.831 2.948C96.649 2.948 97.981 4.334 97.981 7.232V9.788C97.981 12.704 96.649 14.072 94.831 14.072ZM108.067 16.124C111.037 16.124 113.521 14.054 113.521 9.896V7.124C113.521 2.984 111.037 0.895999 108.067 0.895999C105.079 0.895999 102.595 2.984 102.595 7.124V9.896C102.595 14.054 105.079 16.124 108.067 16.124ZM108.067 14.072C106.249 14.072 104.917 12.704 104.917 9.788V7.232C104.917 4.334 106.249 2.948 108.067 2.948C109.885 2.948 111.217 4.334 111.217 7.232V9.788C111.217 12.704 109.885 14.072 108.067 14.072ZM123.302 12.164H127.568V13.334H129.872V0.0319996H127.568V10.454H123.302V12.164ZM120.8 6.854C123.428 6.854 125.426 5.774 125.426 3.686V3.506C125.426 1.382 123.428 0.301999 120.8 0.301999C118.154 0.301999 116.156 1.382 116.156 3.506V3.686C116.156 5.774 118.154 6.854 120.8 6.854ZM118.316 3.524C118.316 2.624 119.36 2.156 120.8 2.156C122.222 2.156 123.266 2.624 123.266 3.524V3.65C123.266 4.55 122.222 5 120.8 5C119.36 5 118.316 4.55 118.316 3.65V3.524ZM119.468 9.788C119.414 10.562 119.36 11.354 119.288 12.146L121.484 12.29C121.574 11.408 121.646 10.526 121.7 9.716C123.356 9.626 125.102 9.482 126.614 9.266L126.38 7.412C123.716 7.718 120.548 7.898 118.496 7.898H115.472L115.562 9.806H118.28C118.658 9.806 119.054 9.806 119.468 9.788ZM120.584 12.812H118.28V16.844H130.484V14.756H120.584V12.812Z" fill="black"/>
</svg>
