<svg width="270" height="28" viewBox="0 0 270 28" fill="none" xmlns="http://www.w3.org/2000/svg">
<path d="M1.098 14.554H7.182V12.43H1.098V14.554ZM9.1613 17.398C9.8993 19.468 11.6093 21.124 14.5973 21.124C17.7473 21.124 19.9253 19.432 19.9253 16.84C19.9253 15.004 18.7553 13.798 17.3153 13.276C18.5213 12.754 19.5833 11.746 19.5833 9.928C19.5833 7.354 17.4413 5.896 14.5613 5.896C11.8253 5.896 10.2773 7.444 9.5753 9.334L11.6273 10.108C12.0593 8.992 12.8873 7.966 14.5613 7.966C16.2353 7.966 17.3153 8.74 17.3153 10.072C17.3153 11.386 16.3253 12.322 14.3273 12.322H12.4193V14.266H14.3273C16.5953 14.266 17.6753 15.382 17.6753 16.732C17.6753 18.064 16.5593 19.054 14.5973 19.054C12.6533 19.054 11.6993 17.92 11.2133 16.642L9.1613 17.398ZM24.0102 23.95L24.8742 18.352H22.4982L22.1202 23.95H24.0102ZM33.0159 11.152C31.5399 11.152 30.0999 11.764 29.3439 12.97V12.376C29.3439 9.262 30.7479 7.948 32.4939 7.948C34.0599 7.948 34.9779 8.65 35.7159 10.054L37.6239 9.064C36.6159 6.994 34.9239 5.896 32.3859 5.896C29.7939 5.896 27.2379 7.84 27.2379 12.286V15.94C27.2379 19.288 29.4879 21.124 32.5479 21.124C35.5899 21.124 37.9119 19.198 37.9119 16.156C37.9119 13.114 35.5899 11.152 33.0159 11.152ZM32.5659 19.072C30.8379 19.072 29.5419 17.938 29.5419 16.12C29.5419 14.302 30.8379 13.186 32.5659 13.186C34.3119 13.186 35.6439 14.302 35.6439 16.12C35.6439 17.938 34.3119 19.072 32.5659 19.072ZM45.5068 21.124C48.4768 21.124 50.9608 19.054 50.9608 14.896V12.124C50.9608 7.984 48.4768 5.896 45.5068 5.896C42.5188 5.896 40.0348 7.984 40.0348 12.124V14.896C40.0348 19.054 42.5188 21.124 45.5068 21.124ZM45.5068 19.072C43.6888 19.072 42.3568 17.704 42.3568 14.788V12.232C42.3568 9.334 43.6888 7.948 45.5068 7.948C47.3248 7.948 48.6568 9.334 48.6568 12.232V14.788C48.6568 17.704 47.3248 19.072 45.5068 19.072ZM58.7431 21.124C61.7131 21.124 64.1971 19.054 64.1971 14.896V12.124C64.1971 7.984 61.7131 5.896 58.7431 5.896C55.7551 5.896 53.2711 7.984 53.2711 12.124V14.896C53.2711 19.054 55.7551 21.124 58.7431 21.124ZM58.7431 19.072C56.9251 19.072 55.5931 17.704 55.5931 14.788V12.232C55.5931 9.334 56.9251 7.948 58.7431 7.948C60.5611 7.948 61.8931 9.334 61.8931 12.232V14.788C61.8931 17.704 60.5611 19.072 58.7431 19.072ZM68.2895 23.95L69.1535 18.352H66.7775L66.3995 23.95H68.2895ZM76.9892 21.124C79.9592 21.124 82.4432 19.054 82.4432 14.896V12.124C82.4432 7.984 79.9592 5.896 76.9892 5.896C74.0012 5.896 71.5172 7.984 71.5172 12.124V14.896C71.5172 19.054 74.0012 21.124 76.9892 21.124ZM76.9892 19.072C75.1712 19.072 73.8392 17.704 73.8392 14.788V12.232C73.8392 9.334 75.1712 7.948 76.9892 7.948C78.8072 7.948 80.1392 9.334 80.1392 12.232V14.788C80.1392 17.704 78.8072 19.072 76.9892 19.072ZM90.2256 21.124C93.1956 21.124 95.6796 19.054 95.6796 14.896V12.124C95.6796 7.984 93.1956 5.896 90.2256 5.896C87.2376 5.896 84.7536 7.984 84.7536 12.124V14.896C84.7536 19.054 87.2376 21.124 90.2256 21.124ZM90.2256 19.072C88.4076 19.072 87.0756 17.704 87.0756 14.788V12.232C87.0756 9.334 88.4076 7.948 90.2256 7.948C92.0436 7.948 93.3756 9.334 93.3756 12.232V14.788C93.3756 17.704 92.0436 19.072 90.2256 19.072ZM103.462 21.124C106.432 21.124 108.916 19.054 108.916 14.896V12.124C108.916 7.984 106.432 5.896 103.462 5.896C100.474 5.896 97.9899 7.984 97.9899 12.124V14.896C97.9899 19.054 100.474 21.124 103.462 21.124ZM103.462 19.072C101.644 19.072 100.312 17.704 100.312 14.788V12.232C100.312 9.334 101.644 7.948 103.462 7.948C105.28 7.948 106.612 9.334 106.612 12.232V14.788C106.612 17.704 105.28 19.072 103.462 19.072ZM118.696 17.164H122.962V18.334H125.266V5.032H122.962V15.454H118.696V17.164ZM116.194 11.854C118.822 11.854 120.82 10.774 120.82 8.686V8.506C120.82 6.382 118.822 5.302 116.194 5.302C113.548 5.302 111.55 6.382 111.55 8.506V8.686C111.55 10.774 113.548 11.854 116.194 11.854ZM113.71 8.524C113.71 7.624 114.754 7.156 116.194 7.156C117.616 7.156 118.66 7.624 118.66 8.524V8.65C118.66 9.55 117.616 10 116.194 10C114.754 10 113.71 9.55 113.71 8.65V8.524ZM114.862 14.788C114.808 15.562 114.754 16.354 114.682 17.146L116.878 17.29C116.968 16.408 117.04 15.526 117.094 14.716C118.75 14.626 120.496 14.482 122.008 14.266L121.774 12.412C119.11 12.718 115.942 12.898 113.89 12.898H110.866L110.956 14.806H113.674C114.052 14.806 114.448 14.806 114.862 14.788ZM115.978 17.812H113.674V21.844H125.878V19.756H115.978V17.812Z" fill="black"/>
</svg>
