<svg width="72" height="22" viewBox="0 0 72 22" fill="none" xmlns="http://www.w3.org/2000/svg">
<path d="M9 8.436H6.456C6.048 6.948 5.016 6.324 3.816 6.324C2.256 6.324 0.984 7.368 0.984 9.996V11.652C0.984 14.28 2.256 15.324 3.816 15.324C5.136 15.324 6.276 14.556 6.576 12.696H9V16.8H9.864V5.724H9V8.436ZM5.784 11.64C5.784 13.704 4.944 14.532 3.816 14.532C2.688 14.532 1.848 13.704 1.848 11.64V9.996C1.848 7.932 2.688 7.116 3.816 7.116C4.944 7.116 5.784 7.932 5.784 9.996V11.64ZM6.648 11.904V11.652V9.996C6.648 9.72 6.636 9.456 6.612 9.216H9V11.904H6.648ZM14.9789 6.852V5.58H14.1149V6.852H11.9309V7.572H17.1749V6.852H14.9789ZM20.5589 9.336V12.144H21.3869V5.724H20.5589V8.556H18.8789V5.844H18.0629V12.024H18.8789V9.336H20.5589ZM16.7429 10.044C16.7429 8.88 15.8429 8.244 14.5709 8.244C13.2749 8.244 12.3749 8.88 12.3749 10.044V10.212C12.3749 11.388 13.2749 12.024 14.5709 12.024C15.8429 12.024 16.7429 11.388 16.7429 10.212V10.044ZM13.1789 10.08C13.1789 9.42 13.7309 8.976 14.5709 8.976C15.3869 8.976 15.9389 9.42 15.9389 10.08V10.188C15.9389 10.872 15.3869 11.292 14.5709 11.292C13.7309 11.292 13.1789 10.872 13.1789 10.188V10.08ZM16.5269 12.804C14.8709 12.804 13.9109 13.68 13.9109 14.856C13.9109 16.056 14.8709 16.908 16.5269 16.908H18.9389C20.5829 16.908 21.5429 16.056 21.5429 14.856C21.5429 13.68 20.5829 12.804 18.9389 12.804H16.5269ZM16.6949 16.14C15.3989 16.14 14.7749 15.612 14.7749 14.856C14.7749 14.112 15.3989 13.584 16.6949 13.584H18.7589C20.0669 13.584 20.6789 14.112 20.6789 14.856C20.6789 15.612 20.0669 16.14 18.7589 16.14H16.6949ZM28.8778 12.216H32.2978V6.54H24.6058V12.216H28.0258V15.12H23.2618V15.912H33.6298V15.12H28.8778V12.216ZM31.4338 7.32V11.448H25.4578V7.32H31.4338ZM44.0007 11.724V5.724H43.1367V11.724H44.0007ZM38.0007 11.28C39.5847 11.28 40.8687 10.452 40.8687 8.772V8.544C40.8687 6.852 39.5847 6.024 38.0007 6.024C36.4047 6.024 35.1207 6.852 35.1207 8.544V8.772C35.1207 10.452 36.4047 11.28 38.0007 11.28ZM38.0007 10.512C36.8367 10.512 35.9847 9.9 35.9847 8.748V8.568C35.9847 7.416 36.8367 6.804 38.0007 6.804C39.1647 6.804 40.0167 7.416 40.0167 8.568V8.748C40.0167 9.9 39.1647 10.512 38.0007 10.512ZM44.0007 16.8V12.516H36.8847V16.8H44.0007ZM37.7367 13.284H43.1367V16.02H37.7367V13.284ZM54.5536 10.692H58.0936V9.96H51.2416V8.688H57.8656V7.956H51.2416V6.732H57.8656V6H50.3896V10.692H53.7016V11.736H48.9376V12.468H59.3056V11.736H54.5536V10.692ZM52.8736 13.44C51.0856 13.44 50.1616 14.136 50.1616 15.18C50.1616 16.236 51.0856 16.92 52.8736 16.92H55.3816C57.1696 16.92 58.0936 16.236 58.0936 15.18C58.0936 14.136 57.1696 13.44 55.3816 13.44H52.8736ZM53.0776 16.188C51.6736 16.188 51.0136 15.816 51.0136 15.18C51.0136 14.544 51.6736 14.172 53.0776 14.172H55.1776C56.5696 14.172 57.2296 14.544 57.2296 15.18C57.2296 15.816 56.5696 16.188 55.1776 16.188H53.0776ZM69.0525 5.736H68.2005V11.784H69.0525V8.988H70.8885V8.208H69.0525V5.736ZM66.3885 11.616L66.8445 10.92L63.6405 8.712C63.8085 8.256 63.8925 7.776 63.8925 7.26V7.092H66.4005V6.324H60.5685V7.092H63.0525V7.26C63.0525 8.868 62.0085 10.032 60.1485 11.16L60.5685 11.844C61.8525 11.112 62.7525 10.32 63.2925 9.432L66.3885 11.616ZM64.5045 12.456C62.8965 12.456 61.9245 13.44 61.9245 14.688C61.9245 15.948 62.8965 16.908 64.5045 16.908H66.7485C68.3685 16.908 69.3285 15.948 69.3285 14.688C69.3285 13.44 68.3685 12.456 66.7485 12.456H64.5045ZM64.6725 16.14C63.4005 16.14 62.7885 15.516 62.7885 14.676C62.7885 13.872 63.4005 13.224 64.6725 13.224H66.5805C67.8525 13.224 68.4645 13.872 68.4645 14.676C68.4645 15.516 67.8525 16.14 66.5805 16.14H64.6725Z" fill="black"/>
</svg>
