<svg width="63" height="22" viewBox="0 0 63 22" fill="none" xmlns="http://www.w3.org/2000/svg">
<path d="M7.872 16.164L3.552 10.812L7.512 6.516H6.36L1.848 11.412V6.516H0.972V16.164H1.848V12.66L2.976 11.436L6.756 16.164H7.872ZM14.4222 11.16C15.4422 10.74 15.8142 9.924 15.8142 9.084C15.8142 7.632 14.8542 6.516 12.6222 6.516H9.04622V16.164H13.0902C15.3222 16.164 16.2822 15.024 16.2822 13.524C16.2822 12.48 15.7782 11.556 14.4222 11.16ZM12.6102 7.296C14.2542 7.296 14.9622 8.028 14.9622 9.084C14.9622 10.128 14.2542 10.884 12.6102 10.884H9.92222V7.296H12.6102ZM9.92222 15.384V11.64H13.0782C14.7222 11.64 15.4302 12.444 15.4302 13.512C15.4302 14.604 14.7222 15.384 13.0782 15.384H9.92222ZM25.9222 5.724V14.136H26.7742V5.724H25.9222ZM24.0502 12.132L24.5302 11.472L21.1342 8.916C21.3502 8.328 21.4582 7.716 21.4582 7.044V6.18H20.6062V7.044C20.6062 8.952 19.5622 10.38 17.5462 11.688L18.0022 12.36C19.2982 11.544 20.2222 10.668 20.7862 9.672L24.0502 12.132ZM20.5102 13.428H19.6582V16.8H27.2902V16.008H20.5102V13.428ZM36.1611 9.72C37.2531 9.444 37.8891 8.832 37.8891 7.872C37.8891 6.54 36.6771 5.88 34.7571 5.88H33.2091C31.2891 5.88 30.0771 6.54 30.0771 7.872C30.0771 8.832 30.7131 9.444 31.8051 9.72V11.088H28.7931V11.844H39.1611V11.088H36.1611V9.72ZM30.9291 7.872C30.9291 7.068 31.7811 6.636 33.3531 6.636H34.6131C36.1731 6.636 37.0251 7.068 37.0251 7.872C37.0251 8.664 36.1731 9.132 34.6131 9.132H33.3531C31.7811 9.132 30.9291 8.688 30.9291 7.872ZM32.6331 9.84C32.8131 9.876 35.1531 9.876 35.3331 9.84V11.088H32.6331V9.84ZM32.7651 12.972C30.9651 12.972 30.0171 13.812 30.0171 14.94C30.0171 16.08 30.9651 16.92 32.7651 16.92H35.1891C37.0011 16.92 37.9491 16.08 37.9491 14.94C37.9491 13.812 37.0011 12.972 35.1891 12.972H32.7651ZM32.9571 16.152C31.5411 16.152 30.8691 15.672 30.8691 14.94C30.8691 14.208 31.5411 13.74 32.9571 13.74H34.9971C36.4131 13.74 37.0851 14.208 37.0851 14.94C37.0851 15.672 36.4131 16.152 34.9971 16.152H32.9571ZM48.836 10.056H47.12V5.904H46.292V16.596H47.12V10.848H48.836V16.8H49.676V5.724H48.836V10.056ZM41.492 14.172V7.404H44.708V6.612H40.628V14.952H41.948C43.28 14.952 44.36 14.88 45.464 14.688L45.368 13.92C44.192 14.1 43.148 14.172 42.08 14.172H41.492ZM52.6549 10.284C54.5269 9.876 55.7749 9.396 56.4829 8.76L60.7429 10.284L61.0309 9.564L56.9749 8.148C57.1069 7.896 57.1789 7.62 57.1909 7.332H60.4789V6.588H57.2029V5.496H56.3629V6.588H53.0029V7.332H56.3869C56.3029 8.268 54.9589 9.024 52.4269 9.552L52.6549 10.284ZM61.9189 10.812H51.5509V11.52H56.3149V12.564H52.8349V13.26H59.7229V14.34H52.8949V16.848H60.8869V16.14H53.7469V15.036H60.5869V12.564H57.1669V11.52H61.9189V10.812Z" fill="black"/>
</svg>
