<svg width="144" height="46" viewBox="0 0 144 46" fill="none" xmlns="http://www.w3.org/2000/svg">
<path d="M10.35 11.3889L11.52 9.55291L6.912 6.45691C7.074 5.93491 7.164 5.37691 7.2 4.80091H10.962V2.74891H7.236V0.804915H5.004V2.74891H1.314V4.80091H4.95C4.77 6.76291 3.438 8.36491 0.738 9.91291L1.836 11.7489C3.672 10.7409 5.04 9.62491 5.94 8.36491L10.35 11.3889ZM12.888 0.894915V13.4949H15.192V0.894915H12.888ZM6.084 12.6309H3.78V17.7069H15.804V15.6189H6.084V12.6309ZM31.0004 9.58891C31.3424 7.35691 31.5404 5.03491 31.5404 3.12691V1.74091H19.3904V3.84691H29.2364C29.2364 5.14291 29.0204 7.42891 28.6964 9.58891H17.6804V11.6769H24.4484V17.9049H26.7524V11.6769H33.5204V9.58891H31.0004ZM41.0496 11.7849C43.6596 10.7769 45.5136 9.64291 46.7016 8.40091L53.0916 11.7849L54.2076 9.78691L47.9796 6.52891C48.1776 6.02491 48.3036 5.52091 48.3396 4.99891H53.2176V2.92891H48.3396V1.05691H46.0536V2.92891H41.0676V4.99891H46.0356C45.8376 6.49291 44.0376 8.14891 40.0596 9.73291L41.0496 11.7849ZM48.2856 11.2269H45.9816V14.4309H39.2136V16.5189H55.0536V14.4309H48.2856V11.2269ZM68.9359 6.97891H67.2619V1.16491H65.0839V17.3109H67.2619V9.06691H68.9359V17.7069H71.1679V0.894915H68.9359V6.97891ZM59.2159 12.9369V4.15291H63.3199V2.04691H56.8759V15.0429H59.4679C61.1599 15.0429 62.5639 14.9709 64.0939 14.6829L63.8779 12.6489C62.3299 12.8829 61.0159 12.9369 59.7919 12.9369H59.2159ZM85.9863 6.97891H84.3123V1.16491H82.1523V17.3109H84.3123V9.06691H85.9863V17.7069H88.2363V0.894915H85.9863V6.97891ZM76.1403 0.912914V3.19892H73.3323V5.25091H81.2523V3.19892H78.4623V0.912914H76.1403ZM77.3103 6.52891C75.3303 6.52891 73.9623 8.09491 73.9623 10.5249V11.5149C73.9623 13.9449 75.3303 15.5289 77.3103 15.5289C79.2723 15.5289 80.6403 13.9449 80.6403 11.5149V10.5249C80.6403 8.09491 79.2723 6.52891 77.3103 6.52891ZM78.5343 11.3529C78.5343 12.7029 78.0303 13.4769 77.3103 13.4769C76.5723 13.4769 76.0683 12.7029 76.0683 11.3529V10.6869C76.0683 9.35491 76.5723 8.58091 77.3103 8.58091C78.0303 8.58091 78.5343 9.35491 78.5343 10.6869V11.3529ZM102.695 6.43891H99.0406V8.54491H102.695V17.7069H104.999V0.894915H102.695V6.43891ZM96.8626 1.83091H94.6126V4.13491C94.6126 7.93291 93.3526 10.9209 90.3826 13.9449L92.0026 15.4569C93.5506 13.8909 94.7206 12.2709 95.5126 10.5429L99.4006 15.2949L101.111 13.8369L96.3946 8.04091C96.7006 6.79891 96.8626 5.50291 96.8626 4.13491V1.83091Z" fill="black"/>
<path d="M14.256 34.9789V28.8949H11.952V45.7069H14.256V37.0669H16.686V34.9789H14.256ZM9.27 43.0429V30.0469H0.828V43.0429H9.27ZM6.984 32.1529V40.9369H3.132V32.1529H6.984ZM32.2604 45.7069V28.8949H29.9564V45.7069H32.2604ZM22.8284 43.5649C25.3304 43.5649 27.4004 41.9809 27.4004 37.8769V35.3029C27.4004 31.1989 25.3304 29.6149 22.8284 29.6149C20.3084 29.6149 18.2384 31.1989 18.2384 35.3029V37.8769C18.2384 41.9809 20.3084 43.5649 22.8284 43.5649ZM22.8284 41.4769C21.5864 41.4769 20.5424 40.5769 20.5424 37.8769V35.3029C20.5424 32.6029 21.5864 31.7029 22.8284 31.7029C24.0704 31.7029 25.0964 32.6029 25.0964 35.3029V37.8769C25.0964 40.5769 24.0704 41.4769 22.8284 41.4769ZM43.8207 38.9569H48.7527V29.9389H36.6027V38.9569H41.5167V42.4309H34.7487V44.5369H50.5887V42.4309H43.8207V38.9569ZM46.4487 32.0089V36.9049H38.8887V32.0089H46.4487ZM65.3539 39.3169H70.5559V37.2469H68.0359V32.0089H70.5559V29.9389H57.8659V32.0089H60.3859V37.2469H57.8659V39.3169H63.0499V42.4309H56.2819V44.5369H72.1219V42.4309H65.3539V39.3169ZM65.8039 32.0089V37.2469H62.6179V32.0089H65.8039ZM87.9303 41.3329V28.8949H85.6263V41.3329H87.9303ZM78.5523 38.8129C81.1083 38.8129 83.1603 37.3369 83.1603 34.1869V33.9169C83.1603 30.7309 81.1083 29.2549 78.5523 29.2549C75.9783 29.2549 73.9083 30.7309 73.9083 33.9169V34.1869C73.9083 37.3369 75.9783 38.8129 78.5523 38.8129ZM78.5523 36.7969C77.2563 36.7969 76.2123 35.9689 76.2123 34.1689V33.9169C76.2123 32.1169 77.2563 31.2709 78.5523 31.2709C79.8123 31.2709 80.8743 32.1169 80.8743 33.9169V34.1689C80.8743 35.9689 79.8123 36.7969 78.5523 36.7969ZM88.5603 45.7069V43.6189H78.8223V40.1989H76.5183V45.7069H88.5603ZM94.5586 37.8949V35.9149H104.423V33.8989H94.5586V32.0089H104.423V29.9389H92.2726V39.9289H104.783V37.8949H94.5586ZM90.4186 44.5369H106.259V42.4309H90.4186V44.5369ZM125.596 28.8949H123.292V38.2369H125.596V34.2589H128.026V32.1709H125.596V28.8949ZM118.414 29.5249V31.5409H114.382V29.5249H112.168V37.4269H120.61V29.5249H118.414ZM114.382 33.5389H118.414V35.4109H114.382V33.5389ZM125.632 41.2069V39.1549H114.526V45.7069H125.938V43.6549H116.812V41.2069H125.632ZM141.296 45.7069H143.6V28.8949H141.296V45.7069ZM136.076 32.2429C136.076 35.4289 134.078 39.1909 129.632 41.9809L131.036 43.7989C135.788 40.7209 138.416 36.5809 138.416 31.7929V30.1369H130.118V32.2429H136.076Z" fill="#A132F9"/>
</svg>
