<svg width="123" height="22" viewBox="0 0 123 22" fill="none" xmlns="http://www.w3.org/2000/svg">
<path d="M7.84 18.06V1.74H5.72L0.48 5.84L1.92 7.74L5.26 5.12V18.06H7.84ZM13.1623 21.5L14.1223 15.28H11.4823L11.0623 21.5H13.1623ZM23.3088 18.06V1.74H21.1888L15.9488 5.84L17.3888 7.74L20.7288 5.12V18.06H23.3088ZM32.7311 18.36C36.0311 18.36 38.7911 16.06 38.7911 11.44V8.36C38.7911 3.76 36.0311 1.44 32.7311 1.44C29.4111 1.44 26.6511 3.76 26.6511 8.36V11.44C26.6511 16.06 29.4111 18.36 32.7311 18.36ZM32.7311 16.08C30.7111 16.08 29.2311 14.56 29.2311 11.32V8.48C29.2311 5.26 30.7111 3.72 32.7311 3.72C34.7511 3.72 36.2311 5.26 36.2311 8.48V11.32C36.2311 14.56 34.7511 16.08 32.7311 16.08ZM47.4381 18.36C50.7381 18.36 53.4981 16.06 53.4981 11.44V8.36C53.4981 3.76 50.7381 1.44 47.4381 1.44C44.1181 1.44 41.3581 3.76 41.3581 8.36V11.44C41.3581 16.06 44.1181 18.36 47.4381 18.36ZM47.4381 16.08C45.4181 16.08 43.9381 14.56 43.9381 11.32V8.48C43.9381 5.26 45.4181 3.72 47.4381 3.72C49.4581 3.72 50.9381 5.26 50.9381 8.48V11.32C50.9381 14.56 49.4581 16.08 47.4381 16.08ZM58.0452 21.5L59.0052 15.28H56.3652L55.9452 21.5H58.0452ZM67.7116 18.36C71.0116 18.36 73.7716 16.06 73.7716 11.44V8.36C73.7716 3.76 71.0116 1.44 67.7116 1.44C64.3916 1.44 61.6316 3.76 61.6316 8.36V11.44C61.6316 16.06 64.3916 18.36 67.7116 18.36ZM67.7116 16.08C65.6916 16.08 64.2116 14.56 64.2116 11.32V8.48C64.2116 5.26 65.6916 3.72 67.7116 3.72C69.7316 3.72 71.2116 5.26 71.2116 8.48V11.32C71.2116 14.56 69.7316 16.08 67.7116 16.08ZM82.4186 18.36C85.7186 18.36 88.4786 16.06 88.4786 11.44V8.36C88.4786 3.76 85.7186 1.44 82.4186 1.44C79.0986 1.44 76.3386 3.76 76.3386 8.36V11.44C76.3386 16.06 79.0986 18.36 82.4186 18.36ZM82.4186 16.08C80.3986 16.08 78.9186 14.56 78.9186 11.32V8.48C78.9186 5.26 80.3986 3.72 82.4186 3.72C84.4386 3.72 85.9186 5.26 85.9186 8.48V11.32C85.9186 14.56 84.4386 16.08 82.4186 16.08ZM97.1256 18.36C100.426 18.36 103.186 16.06 103.186 11.44V8.36C103.186 3.76 100.426 1.44 97.1256 1.44C93.8056 1.44 91.0456 3.76 91.0456 8.36V11.44C91.0456 16.06 93.8056 18.36 97.1256 18.36ZM97.1256 16.08C95.1056 16.08 93.6256 14.56 93.6256 11.32V8.48C93.6256 5.26 95.1056 3.72 97.1256 3.72C99.1456 3.72 100.626 5.26 100.626 8.48V11.32C100.626 14.56 99.1456 16.08 97.1256 16.08ZM114.053 13.96H118.793V15.26H121.353V0.48H118.793V12.06H114.053V13.96ZM111.273 8.06C114.193 8.06 116.413 6.86 116.413 4.54V4.34C116.413 1.98 114.193 0.779999 111.273 0.779999C108.333 0.779999 106.113 1.98 106.113 4.34V4.54C106.113 6.86 108.333 8.06 111.273 8.06ZM108.513 4.36C108.513 3.36 109.673 2.84 111.273 2.84C112.853 2.84 114.013 3.36 114.013 4.36V4.5C114.013 5.5 112.853 6 111.273 6C109.673 6 108.513 5.5 108.513 4.5V4.36ZM109.793 11.32C109.733 12.18 109.673 13.06 109.593 13.94L112.033 14.1C112.133 13.12 112.213 12.14 112.273 11.24C114.113 11.14 116.053 10.98 117.733 10.74L117.473 8.68C114.513 9.02 110.993 9.22 108.713 9.22H105.353L105.453 11.34H108.473C108.893 11.34 109.333 11.34 109.793 11.32ZM111.033 14.68H108.473V19.16H122.033V16.84H111.033V14.68Z" fill="black"/>
</svg>
