<svg width="87" height="49" viewBox="0 0 87 49" fill="none" xmlns="http://www.w3.org/2000/svg">
<path d="M26.593 13.8689V6.22491H24.213L19.243 14.0789V15.5069H24.815V17.8589H26.593V15.5069H28.175V13.8689H26.593ZM24.815 8.35291V13.8689H21.413L24.815 8.35291ZM33.8004 17.8589C36.1104 17.8589 38.0424 16.2489 38.0424 13.0149V10.8589C38.0424 7.63891 36.1104 6.01491 33.8004 6.01491C31.4764 6.01491 29.5444 7.63891 29.5444 10.8589V13.0149C29.5444 16.2489 31.4764 17.8589 33.8004 17.8589ZM33.8004 16.2629C32.3864 16.2629 31.3504 15.1989 31.3504 12.9309V10.9429C31.3504 8.68891 32.3864 7.61091 33.8004 7.61091C35.2144 7.61091 36.2504 8.68891 36.2504 10.9429V12.9309C36.2504 15.1989 35.2144 16.2629 33.8004 16.2629ZM41.2254 20.0569L41.8974 15.7029H40.0494L39.7554 20.0569H41.2254ZM47.9918 17.8589C50.3018 17.8589 52.2338 16.2489 52.2338 13.0149V10.8589C52.2338 7.63891 50.3018 6.01491 47.9918 6.01491C45.6678 6.01491 43.7358 7.63891 43.7358 10.8589V13.0149C43.7358 16.2489 45.6678 17.8589 47.9918 17.8589ZM47.9918 16.2629C46.5778 16.2629 45.5418 15.1989 45.5418 12.9309V10.9429C45.5418 8.68891 46.5778 7.61091 47.9918 7.61091C49.4058 7.61091 50.4418 8.68891 50.4418 10.9429V12.9309C50.4418 15.1989 49.4058 16.2629 47.9918 16.2629ZM58.2868 17.8589C60.5968 17.8589 62.5288 16.2489 62.5288 13.0149V10.8589C62.5288 7.63891 60.5968 6.01491 58.2868 6.01491C55.9628 6.01491 54.0308 7.63891 54.0308 10.8589V13.0149C54.0308 16.2489 55.9628 17.8589 58.2868 17.8589ZM58.2868 16.2629C56.8728 16.2629 55.8368 15.1989 55.8368 12.9309V10.9429C55.8368 8.68891 56.8728 7.61091 58.2868 7.61091C59.7008 7.61091 60.7368 8.68891 60.7368 10.9429V12.9309C60.7368 15.1989 59.7008 16.2629 58.2868 16.2629ZM68.5817 17.8589C70.8917 17.8589 72.8237 16.2489 72.8237 13.0149V10.8589C72.8237 7.63891 70.8917 6.01491 68.5817 6.01491C66.2577 6.01491 64.3257 7.63891 64.3257 10.8589V13.0149C64.3257 16.2489 66.2577 17.8589 68.5817 17.8589ZM68.5817 16.2629C67.1677 16.2629 66.1317 15.1989 66.1317 12.9309V10.9429C66.1317 8.68891 67.1677 7.61091 68.5817 7.61091C69.9957 7.61091 71.0317 8.68891 71.0317 10.9429V12.9309C71.0317 15.1989 69.9957 16.2629 68.5817 16.2629ZM80.4306 14.7789H83.7486V15.6889H85.5406V5.34291H83.7486V13.4489H80.4306V14.7789ZM78.4846 10.6489C80.5286 10.6489 82.0826 9.80891 82.0826 8.18491V8.04491C82.0826 6.39291 80.5286 5.55291 78.4846 5.55291C76.4266 5.55291 74.8726 6.39291 74.8726 8.04491V8.18491C74.8726 9.80891 76.4266 10.6489 78.4846 10.6489ZM76.5526 8.05891C76.5526 7.35891 77.3646 6.99491 78.4846 6.99491C79.5906 6.99491 80.4026 7.35891 80.4026 8.05891V8.15691C80.4026 8.85691 79.5906 9.20691 78.4846 9.20691C77.3646 9.20691 76.5526 8.85691 76.5526 8.15691V8.05891ZM77.4486 12.9309C77.4066 13.5329 77.3646 14.1489 77.3086 14.7649L79.0166 14.8769C79.0866 14.1909 79.1426 13.5049 79.1846 12.8749C80.4726 12.8049 81.8306 12.6929 83.0066 12.5249L82.8246 11.0829C80.7526 11.3209 78.2886 11.4609 76.6926 11.4609H74.3406L74.4106 12.9449H76.5246C76.8186 12.9449 77.1266 12.9449 77.4486 12.9309ZM78.3166 15.2829H76.5246V18.4189H86.0166V16.7949H78.3166V15.2829ZM16.9099 41.6489V30.2249H15.4259L11.7579 33.0949L12.7659 34.4249L15.1039 32.5909V41.6489H16.9099ZM23.5055 41.8589C25.8155 41.8589 27.7475 40.2489 27.7475 37.0149V34.8589C27.7475 31.6389 25.8155 30.0149 23.5055 30.0149C21.1815 30.0149 19.2495 31.6389 19.2495 34.8589V37.0149C19.2495 40.2489 21.1815 41.8589 23.5055 41.8589ZM23.5055 40.2629C22.0915 40.2629 21.0555 39.1989 21.0555 36.9309V34.9429C21.0555 32.6889 22.0915 31.6109 23.5055 31.6109C24.9195 31.6109 25.9555 32.6889 25.9555 34.9429V36.9309C25.9555 39.1989 24.9195 40.2629 23.5055 40.2629ZM33.8004 41.8589C36.1104 41.8589 38.0424 40.2489 38.0424 37.0149V34.8589C38.0424 31.6389 36.1104 30.0149 33.8004 30.0149C31.4764 30.0149 29.5444 31.6389 29.5444 34.8589V37.0149C29.5444 40.2489 31.4764 41.8589 33.8004 41.8589ZM33.8004 40.2629C32.3864 40.2629 31.3504 39.1989 31.3504 36.9309V34.9429C31.3504 32.6889 32.3864 31.6109 33.8004 31.6109C35.2144 31.6109 36.2504 32.6889 36.2504 34.9429V36.9309C36.2504 39.1989 35.2144 40.2629 33.8004 40.2629ZM41.2254 44.0569L41.8974 39.7029H40.0494L39.7554 44.0569H41.2254ZM47.9918 41.8589C50.3018 41.8589 52.2338 40.2489 52.2338 37.0149V34.8589C52.2338 31.6389 50.3018 30.0149 47.9918 30.0149C45.6678 30.0149 43.7358 31.6389 43.7358 34.8589V37.0149C43.7358 40.2489 45.6678 41.8589 47.9918 41.8589ZM47.9918 40.2629C46.5778 40.2629 45.5418 39.1989 45.5418 36.9309V34.9429C45.5418 32.6889 46.5778 31.6109 47.9918 31.6109C49.4058 31.6109 50.4418 32.6889 50.4418 34.9429V36.9309C50.4418 39.1989 49.4058 40.2629 47.9918 40.2629ZM58.2868 41.8589C60.5968 41.8589 62.5288 40.2489 62.5288 37.0149V34.8589C62.5288 31.6389 60.5968 30.0149 58.2868 30.0149C55.9628 30.0149 54.0308 31.6389 54.0308 34.8589V37.0149C54.0308 40.2489 55.9628 41.8589 58.2868 41.8589ZM58.2868 40.2629C56.8728 40.2629 55.8368 39.1989 55.8368 36.9309V34.9429C55.8368 32.6889 56.8728 31.6109 58.2868 31.6109C59.7008 31.6109 60.7368 32.6889 60.7368 34.9429V36.9309C60.7368 39.1989 59.7008 40.2629 58.2868 40.2629ZM68.5817 41.8589C70.8917 41.8589 72.8237 40.2489 72.8237 37.0149V34.8589C72.8237 31.6389 70.8917 30.0149 68.5817 30.0149C66.2577 30.0149 64.3257 31.6389 64.3257 34.8589V37.0149C64.3257 40.2489 66.2577 41.8589 68.5817 41.8589ZM68.5817 40.2629C67.1677 40.2629 66.1317 39.1989 66.1317 36.9309V34.9429C66.1317 32.6889 67.1677 31.6109 68.5817 31.6109C69.9957 31.6109 71.0317 32.6889 71.0317 34.9429V36.9309C71.0317 39.1989 69.9957 40.2629 68.5817 40.2629ZM80.4306 38.7789H83.7486V39.6889H85.5406V29.3429H83.7486V37.4489H80.4306V38.7789ZM78.4846 34.6489C80.5286 34.6489 82.0826 33.8089 82.0826 32.1849V32.0449C82.0826 30.3929 80.5286 29.5529 78.4846 29.5529C76.4266 29.5529 74.8726 30.3929 74.8726 32.0449V32.1849C74.8726 33.8089 76.4266 34.6489 78.4846 34.6489ZM76.5526 32.0589C76.5526 31.3589 77.3646 30.9949 78.4846 30.9949C79.5906 30.9949 80.4026 31.3589 80.4026 32.0589V32.1569C80.4026 32.8569 79.5906 33.2069 78.4846 33.2069C77.3646 33.2069 76.5526 32.8569 76.5526 32.1569V32.0589ZM77.4486 36.9309C77.4066 37.5329 77.3646 38.1489 77.3086 38.7649L79.0166 38.8769C79.0866 38.1909 79.1426 37.5049 79.1846 36.8749C80.4726 36.8049 81.8306 36.6929 83.0066 36.5249L82.8246 35.0829C80.7526 35.3209 78.2886 35.4609 76.6926 35.4609H74.3406L74.4106 36.9449H76.5246C76.8186 36.9449 77.1266 36.9449 77.4486 36.9309ZM78.3166 39.2829H76.5246V42.4189H86.0166V40.7949H78.3166V39.2829Z" fill="#666666"/>
</svg>
