<svg width="229" height="40" viewBox="0 0 229 40" fill="none" xmlns="http://www.w3.org/2000/svg">
<path d="M12.672 5.992V0.584H10.624V15.528H12.672V7.848H14.832V5.992H12.672ZM8.24 13.16V1.608H0.736V13.16H8.24ZM6.208 3.48V11.288H2.784V3.48H6.208ZM28.6759 15.528V0.584H26.6279V15.528H28.6759ZM20.2919 13.624C22.5159 13.624 24.3559 12.216 24.3559 8.568V6.28C24.3559 2.632 22.5159 1.224 20.2919 1.224C18.0519 1.224 16.2119 2.632 16.2119 6.28V8.568C16.2119 12.216 18.0519 13.624 20.2919 13.624ZM20.2919 11.768C19.1879 11.768 18.2599 10.968 18.2599 8.568V6.28C18.2599 3.88 19.1879 3.08 20.2919 3.08C21.3959 3.08 22.3079 3.88 22.3079 6.28V8.568C22.3079 10.968 21.3959 11.768 20.2919 11.768ZM38.9518 9.528H43.3358V1.512H32.5358V9.528H36.9038V12.616H30.8878V14.488H44.9678V12.616H38.9518V9.528ZM41.2878 3.352V7.704H34.5677V3.352H41.2878ZM59.0196 8.648V0.584H56.9716V8.648H59.0196ZM49.8196 8.232C51.8996 8.232 53.9476 8.04 55.7716 7.72L55.5316 5.912C53.6116 6.2 51.7716 6.376 50.1556 6.376H49.0196V1.224H46.9556V8.232H49.8196ZM59.0196 15.528V9.464H48.8756V15.528H59.0196ZM50.9236 11.272H56.9716V13.704H50.9236V11.272ZM69.5355 6.952C72.0315 6.952 73.7595 5.816 73.7595 3.816C73.7595 1.848 72.0315 0.712 69.5355 0.712H67.0075C64.5115 0.712 62.7995 1.848 62.7995 3.816C62.7995 5.816 64.5115 6.952 67.0075 6.952H69.5355ZM67.3755 5.192C65.7595 5.192 64.8315 4.696 64.8315 3.848C64.8315 2.984 65.7595 2.488 67.3755 2.488H69.1675C70.7835 2.488 71.7115 2.984 71.7115 3.848C71.7115 4.696 70.7835 5.192 69.1675 5.192H67.3755ZM75.3115 10.072V8.216H61.2315V10.072H75.3115ZM73.9195 15.528V13.624H65.0715V11.208H63.0235V15.528H73.9195ZM12.656 29.992V24.584H10.624V39.528H12.656V31.848H14.832V29.992H12.656ZM6.368 27.56C6.368 28.376 6.224 29.224 5.936 30.072C4.448 30.2 2.272 30.296 0.912 30.296H0.64L0.736 32.136H1.072C2.256 32.136 3.776 32.056 5.056 31.944C4.096 33.544 2.592 35.064 0.512 36.36L1.76 37.976C5.984 35.24 8.432 31.576 8.432 27.16V25.688H0.96V27.56H6.368ZM26.9479 39.528H28.9319V24.584H26.9479V39.528ZM22.2919 30.136V32.008H23.8439V39.176H25.7639V24.824H23.8439V30.136H22.2919ZM21.6519 27.48H22.6599V25.608H15.6359V27.48H16.6919V35.288H15.5239L15.6199 37.16H17.3639C19.3159 37.16 21.4599 37.016 23.1719 36.744L22.9799 34.936C22.5479 35 22.0999 35.048 21.6519 35.096V27.48ZM19.8439 35.224C19.3639 35.256 18.9159 35.272 18.4679 35.272V27.48H19.8439V35.224ZM45.7685 39.528H47.8165V24.584H45.7685V39.528ZM40.7285 27.56H43.9605V25.688H35.5445V27.56H38.7285V27.96C38.7285 31.16 37.4805 33.608 34.9525 36.168L36.3925 37.528C37.7685 36.136 38.8245 34.712 39.5445 33.192L43.0485 37.384L44.5525 36.04L40.3445 31.016C40.6005 30.04 40.7285 29.032 40.7285 27.96V27.56ZM51.5164 30.696C53.9804 30.376 55.6444 29.928 56.6844 29.256L62.5244 30.696L63.0844 29.064L57.8684 27.832C57.9644 27.592 58.0124 27.336 58.0444 27.048H62.3324V25.384H58.1084V24.28H56.1404V25.384H51.8204V27.048H56.1404C55.8364 27.928 54.3804 28.616 51.0524 29.048L51.5164 30.696ZM64.1084 31.096H50.0284V32.664H56.0444V33.608H51.5964V35.112H60.4284V35.816H51.6764V39.608H62.8764V38.056H53.7084V37.32H62.4764V33.608H58.0924V32.664H64.1084V31.096ZM70.737 29.992C72.993 29.672 74.609 29.208 75.665 28.584L81.569 29.992L82.129 28.312L77.089 27.128C77.185 26.92 77.249 26.696 77.297 26.456H81.393V24.792H71.041V26.456H75.185C74.721 27.208 73.201 27.896 70.289 28.328L70.737 29.992ZM83.249 30.376H69.169V31.992H75.185V33.064H70.737V34.664H79.569V35.512H70.817V39.608H82.017V37.976H72.849V37.08H81.617V33.064H77.233V31.992H83.249V30.376ZM97.3009 39.528V24.584H95.2529V39.528H97.3009ZM88.9169 37.624C91.1409 37.624 92.9809 36.216 92.9809 32.568V30.28C92.9809 26.632 91.1409 25.224 88.9169 25.224C86.6769 25.224 84.8369 26.632 84.8369 30.28V32.568C84.8369 36.216 86.6769 37.624 88.9169 37.624ZM88.9169 35.768C87.8129 35.768 86.8849 34.968 86.8849 32.568V30.28C86.8849 27.88 87.8129 27.08 88.9169 27.08C90.0209 27.08 90.9329 27.88 90.9329 30.28V32.568C90.9329 34.968 90.0209 35.768 88.9169 35.768ZM110.425 39.528H112.473V24.584H110.425V39.528ZM105.785 27.56C105.785 30.392 104.009 33.736 100.057 36.216L101.305 37.832C105.529 35.096 107.865 31.416 107.865 27.16V25.688H100.489V27.56H105.785ZM125.933 39.528H127.917V24.584H125.933V39.528ZM121.293 30.136C121.261 26.6 119.885 25.224 118.109 25.224C116.301 25.224 114.893 26.632 114.893 30.28V32.568C114.893 36.216 116.301 37.624 118.109 37.624C119.901 37.624 121.293 36.216 121.293 32.568V32.008H122.685V39.176H124.621V24.824H122.685V30.136H121.293ZM119.373 32.568C119.373 34.968 118.829 35.768 118.109 35.768C117.389 35.768 116.829 34.968 116.829 32.568V30.28C116.829 27.88 117.389 27.08 118.109 27.08C118.829 27.08 119.373 27.88 119.373 30.28V32.568ZM141.889 33.528H146.273V31.704H137.505V27.352H146.129V25.512H135.473V33.528H139.841V36.616H133.825V38.488H147.905V36.616H141.889V33.528ZM157.301 30.072H159.909V35.64H161.957V24.584H159.909V28.328H157.301V30.072ZM157.269 33.8L158.405 32.2L154.421 29.24C154.629 28.568 154.741 27.864 154.741 27.112H157.845V25.304H149.701V27.112H152.741C152.725 29.192 151.653 30.808 149.109 32.472L150.181 34.04C151.701 33.112 152.821 32.104 153.573 30.984L157.269 33.8ZM153.861 34.696H151.813V39.528H162.501V37.672H153.861V34.696ZM165.785 30.68C168.073 30.248 169.705 29.672 170.761 28.936L176.505 30.68L177.145 28.984L172.041 27.48C172.169 27.208 172.249 26.92 172.297 26.616H176.393V24.872H166.041V26.616H170.249C169.849 27.528 168.329 28.392 165.273 29L165.785 30.68ZM178.249 31.176H164.169V32.92H170.185V34.152H169.433C167.049 34.152 165.657 35.336 165.657 36.92C165.657 38.52 167.049 39.688 169.433 39.688H172.985C175.385 39.688 176.777 38.52 176.777 36.92C176.777 35.336 175.385 34.152 172.985 34.152H172.233V32.92H178.249V31.176ZM174.729 36.904C174.729 37.528 174.105 37.928 172.617 37.928H169.817C168.329 37.928 167.689 37.528 167.689 36.904C167.689 36.28 168.329 35.912 169.817 35.912H172.617C174.105 35.912 174.729 36.28 174.729 36.904ZM192.301 39.528V24.584H190.253V39.528H192.301ZM183.917 37.624C186.141 37.624 187.981 36.216 187.981 32.568V30.28C187.981 26.632 186.141 25.224 183.917 25.224C181.677 25.224 179.837 26.632 179.837 30.28V32.568C179.837 36.216 181.677 37.624 183.917 37.624ZM183.917 35.768C182.813 35.768 181.885 34.968 181.885 32.568V30.28C181.885 27.88 182.813 27.08 183.917 27.08C185.021 27.08 185.933 27.88 185.933 30.28V32.568C185.933 34.968 185.021 35.768 183.917 35.768ZM205.761 39.528H207.745V24.584H205.761V39.528ZM201.121 30.136C201.089 26.6 199.713 25.224 197.937 25.224C196.129 25.224 194.721 26.632 194.721 30.28V32.568C194.721 36.216 196.129 37.624 197.937 37.624C199.729 37.624 201.121 36.216 201.121 32.568V32.008H202.513V39.176H204.449V24.824H202.513V30.136H201.121ZM199.201 32.568C199.201 34.968 198.657 35.768 197.937 35.768C197.217 35.768 196.657 34.968 196.657 32.568V30.28C196.657 27.88 197.217 27.08 197.937 27.08C198.657 27.08 199.201 27.88 199.201 30.28V32.568ZM218.005 33.448C220.645 33.448 222.421 31.688 222.421 29.352C222.421 27.048 220.645 25.272 218.005 25.272H215.461C212.805 25.272 211.061 27.048 211.061 29.352C211.061 31.688 212.805 33.448 215.461 33.448H218.005ZM217.621 27.112C219.301 27.112 220.373 28.008 220.373 29.368C220.373 30.744 219.301 31.656 217.621 31.656H215.845C214.149 31.656 213.093 30.744 213.093 29.368C213.093 28.008 214.149 27.112 215.845 27.112H217.621ZM220.373 34.28H218.389V36.616H215.077V34.28H213.093V36.616H209.685V38.488H223.765V36.616H220.373V34.28ZM227.737 34.536L227.945 25.192H225.641L225.849 34.536H227.737ZM226.793 38.888C227.513 38.888 228.089 38.312 228.089 37.592C228.089 36.872 227.513 36.28 226.793 36.28C226.073 36.28 225.497 36.872 225.497 37.592C225.497 38.312 226.073 38.888 226.793 38.888Z" fill="#333333"/>
</svg>
