<svg width="68" height="18" viewBox="0 0 68 18" fill="none" xmlns="http://www.w3.org/2000/svg">
<path d="M12.888 0.0319996V12.47H15.192V0.0319996H12.888ZM10.188 9.878L11.484 8.114L6.858 4.694C7.128 3.83 7.272 2.912 7.272 1.94V0.625999H5.022V1.94C5.022 4.37 3.852 6.44 0.774 8.438L2.052 10.22C3.744 9.122 5.022 7.97 5.886 6.674L10.188 9.878ZM6.084 11.408H3.78V16.844H15.804V14.756H6.084V11.408ZM29.4344 6.098C30.8744 5.648 31.7744 4.712 31.7744 3.272C31.7744 1.184 29.8304 0.176 27.0764 0.176H24.1424C21.3704 0.176 19.4444 1.184 19.4444 3.272C19.4444 4.694 20.3264 5.648 21.7664 6.098V7.718H17.6804V9.662H33.5204V7.718H29.4344V6.098ZM21.7304 3.29C21.7304 2.48 22.7564 2.084 24.5744 2.084H26.6444C28.4444 2.084 29.4704 2.48 29.4704 3.29C29.4704 4.118 28.4444 4.532 26.6444 4.532H24.5744C22.7564 4.532 21.7304 4.118 21.7304 3.29ZM23.9264 6.422H27.2744V7.718H23.9264V6.422ZM23.6024 10.796C20.9204 10.796 19.3544 12.128 19.3544 13.91C19.3544 15.71 20.9204 17.024 23.6024 17.024H27.5984C30.2984 17.024 31.8644 15.71 31.8644 13.91C31.8644 12.128 30.2984 10.796 27.5984 10.796H23.6024ZM24.0344 15.026C22.3604 15.026 21.6404 14.594 21.6404 13.892C21.6404 13.19 22.3604 12.776 24.0344 12.776H27.1844C28.8584 12.776 29.5604 13.19 29.5604 13.892C29.5604 14.594 28.8584 15.026 27.1844 15.026H24.0344ZM48.3747 6.116V0.0319996H46.0887V16.844H48.3747V8.204H50.8227V6.116H48.3747ZM41.3007 3.38C41.3007 4.298 41.1387 5.252 40.8147 6.206C39.1407 6.35 36.6927 6.458 35.1627 6.458H34.8567L34.9647 8.528H35.3427C36.6747 8.528 38.3847 8.438 39.8247 8.312C38.7447 10.112 37.0527 11.822 34.7127 13.28L36.1167 15.098C40.8687 12.02 43.6227 7.898 43.6227 2.93V1.274H35.2167V3.38H41.3007ZM53.6711 1.076V10.274H65.8211V8.204H55.9571V3.164H65.6591V1.076H53.6711ZM67.6571 15.674V13.568H51.8171V15.674H67.6571Z" fill="black"/>
</svg>
