<svg width="110" height="19" viewBox="0 0 110 19" fill="none" xmlns="http://www.w3.org/2000/svg">
<path d="M7.056 15.854V1.166H5.148L0.432 4.856L1.728 6.566L4.734 4.208V15.854H7.056ZM11.8461 18.95L12.7101 13.352H10.3341L9.95611 18.95H11.8461ZM20.9779 15.854V1.166H19.0699L14.3539 4.856L15.6499 6.566L18.6559 4.208V15.854H20.9779ZM29.458 16.124C32.428 16.124 34.912 14.054 34.912 9.896V7.124C34.912 2.984 32.428 0.895999 29.458 0.895999C26.47 0.895999 23.986 2.984 23.986 7.124V9.896C23.986 14.054 26.47 16.124 29.458 16.124ZM29.458 14.072C27.64 14.072 26.308 12.704 26.308 9.788V7.232C26.308 4.334 27.64 2.948 29.458 2.948C31.276 2.948 32.608 4.334 32.608 7.232V9.788C32.608 12.704 31.276 14.072 29.458 14.072ZM42.6943 16.124C45.6643 16.124 48.1483 14.054 48.1483 9.896V7.124C48.1483 2.984 45.6643 0.895999 42.6943 0.895999C39.7063 0.895999 37.2223 2.984 37.2223 7.124V9.896C37.2223 14.054 39.7063 16.124 42.6943 16.124ZM42.6943 14.072C40.8763 14.072 39.5443 12.704 39.5443 9.788V7.232C39.5443 4.334 40.8763 2.948 42.6943 2.948C44.5123 2.948 45.8443 4.334 45.8443 7.232V9.788C45.8443 12.704 44.5123 14.072 42.6943 14.072ZM52.2406 18.95L53.1046 13.352H50.7286L50.3506 18.95H52.2406ZM60.9404 16.124C63.9104 16.124 66.3944 14.054 66.3944 9.896V7.124C66.3944 2.984 63.9104 0.895999 60.9404 0.895999C57.9524 0.895999 55.4684 2.984 55.4684 7.124V9.896C55.4684 14.054 57.9524 16.124 60.9404 16.124ZM60.9404 14.072C59.1224 14.072 57.7904 12.704 57.7904 9.788V7.232C57.7904 4.334 59.1224 2.948 60.9404 2.948C62.7584 2.948 64.0904 4.334 64.0904 7.232V9.788C64.0904 12.704 62.7584 14.072 60.9404 14.072ZM74.1767 16.124C77.1467 16.124 79.6307 14.054 79.6307 9.896V7.124C79.6307 2.984 77.1467 0.895999 74.1767 0.895999C71.1887 0.895999 68.7047 2.984 68.7047 7.124V9.896C68.7047 14.054 71.1887 16.124 74.1767 16.124ZM74.1767 14.072C72.3587 14.072 71.0267 12.704 71.0267 9.788V7.232C71.0267 4.334 72.3587 2.948 74.1767 2.948C75.9947 2.948 77.3267 4.334 77.3267 7.232V9.788C77.3267 12.704 75.9947 14.072 74.1767 14.072ZM87.4131 16.124C90.3831 16.124 92.8671 14.054 92.8671 9.896V7.124C92.8671 2.984 90.3831 0.895999 87.4131 0.895999C84.4251 0.895999 81.9411 2.984 81.9411 7.124V9.896C81.9411 14.054 84.4251 16.124 87.4131 16.124ZM87.4131 14.072C85.5951 14.072 84.2631 12.704 84.2631 9.788V7.232C84.2631 4.334 85.5951 2.948 87.4131 2.948C89.2311 2.948 90.5631 4.334 90.5631 7.232V9.788C90.5631 12.704 89.2311 14.072 87.4131 14.072ZM102.647 12.164H106.913V13.334H109.217V0.0319996H106.913V10.454H102.647V12.164ZM100.145 6.854C102.773 6.854 104.771 5.774 104.771 3.686V3.506C104.771 1.382 102.773 0.301999 100.145 0.301999C97.4994 0.301999 95.5014 1.382 95.5014 3.506V3.686C95.5014 5.774 97.4994 6.854 100.145 6.854ZM97.6614 3.524C97.6614 2.624 98.7054 2.156 100.145 2.156C101.567 2.156 102.611 2.624 102.611 3.524V3.65C102.611 4.55 101.567 5 100.145 5C98.7054 5 97.6614 4.55 97.6614 3.65V3.524ZM98.8134 9.788C98.7594 10.562 98.7054 11.354 98.6334 12.146L100.829 12.29C100.919 11.408 100.991 10.526 101.045 9.716C102.701 9.626 104.447 9.482 105.959 9.266L105.725 7.412C103.061 7.718 99.8934 7.898 97.8414 7.898H94.8174L94.9074 9.806H97.6254C98.0034 9.806 98.3994 9.806 98.8134 9.788ZM99.9294 12.812H97.6254V16.844H109.829V14.756H99.9294V12.812Z" fill="black"/>
</svg>
