<svg width="82" height="38" viewBox="0 0 82 38" fill="none" xmlns="http://www.w3.org/2000/svg">
<path d="M5.236 1.64491V0.216909H3.822V1.64491H0.896V2.82091H8.148V1.64491H5.236ZM8.134 4.80891H10.276V6.34891H8.134V7.45491H10.276V10.2269H11.662V0.370908H10.276V3.70291H8.134V4.80891ZM7.602 5.98491C7.602 4.41691 6.272 3.57691 4.55 3.57691C2.8 3.57691 1.47 4.41691 1.47 5.98491V6.19491C1.47 7.77691 2.8 8.63091 4.55 8.63091C6.272 8.63091 7.602 7.77691 7.602 6.19491V5.98491ZM2.8 6.01291C2.8 5.22891 3.542 4.73891 4.55 4.73891C5.53 4.73891 6.272 5.22891 6.272 6.01291V6.16691C6.272 6.96491 5.53 7.45491 4.55 7.45491C3.542 7.45491 2.8 6.96491 2.8 6.16691V6.01291ZM4.466 9.69491H3.08V13.3629H12.208V12.0889H4.466V9.69491ZM23.7754 5.25691H22.1234V0.566908H20.7934V13.0969H22.1234V6.53091H23.7754V13.3629H25.1334V0.370908H23.7754V5.25691ZM17.5594 2.66691H19.7714V1.39291H14.1154V2.66691H16.2434V3.35291C16.2434 6.25091 15.3474 8.46291 13.6394 10.7449L14.7314 11.5989C15.6274 10.3809 16.3134 9.14891 16.7894 7.86091L19.0854 11.4589L20.2194 10.6609L17.2934 6.08291C17.4754 5.21491 17.5594 4.30491 17.5594 3.35291V2.66691ZM40.2444 13.3629H41.6444V0.370908H40.2444V13.3629ZM35.4424 2.66691H38.3684V1.39291H31.1724V2.66691H34.0704V3.21291C34.0704 6.20891 32.8524 8.37891 30.6544 10.6609L31.6484 11.5989C32.9364 10.2689 33.9024 8.93891 34.5464 7.51091L37.8644 11.4589L38.8864 10.5349L35.0784 6.04091C35.3164 5.14491 35.4424 4.20691 35.4424 3.21291V2.66691ZM45.0778 5.69091C47.2478 5.32691 48.7038 4.85091 49.5718 4.19291L54.6258 5.69091L55.0318 4.57091L50.3838 3.21291C50.4958 2.96091 50.5658 2.68091 50.5798 2.37291H54.3738V1.21091H50.6218V0.0909088H49.2778V1.21091H45.4138V2.37291H49.2778C49.0958 3.31091 47.7098 4.06691 44.7418 4.54291L45.0778 5.69091ZM55.9978 6.18091H43.7898V7.28691H49.2078V8.29491H45.2178V9.37291H53.1138V10.2969H45.2878V13.4329H54.8498V12.3409H46.6878V11.3609H54.5138V8.29491H50.5938V7.28691H55.9978V6.18091ZM67.1452 5.50891C67.3832 4.15091 67.5092 2.72291 67.5092 1.60291V0.776908H58.5632V2.05091H66.1232C66.1092 2.80691 65.9832 4.19291 65.7452 5.50891H57.0652V6.74091H69.2732V5.50891H67.1452ZM67.7892 13.3769V8.30891H58.5632V13.3769H67.7892ZM66.3892 9.51291V12.1449H59.9632V9.51291H66.3892ZM80.3506 3.22691H78.7266V0.510908H77.4246V7.66491H78.7266V4.47291H80.3506V7.66491H81.6806V0.370908H80.3506V3.22691ZM76.1226 3.80091C76.1226 1.68691 74.9326 0.650909 73.3506 0.650909C71.7546 0.650909 70.5646 1.68691 70.5646 3.80091V4.02491C70.5646 6.12491 71.7546 7.16091 73.3506 7.16091C74.9326 7.16091 76.1226 6.12491 76.1226 4.02491V3.80091ZM71.8526 3.81491C71.8526 2.55491 72.4966 1.88291 73.3506 1.88291C74.1906 1.88291 74.8346 2.55491 74.8346 3.81491V3.99691C74.8346 5.25691 74.1906 5.92891 73.3506 5.92891C72.4966 5.92891 71.8526 5.25691 71.8526 3.99691V3.81491ZM80.2806 9.75091V13.5029H81.6806V8.47691H72.8746V9.75091H80.2806ZM7.336 29.2989H11.116V24.6509H2.156V29.2989H5.95V30.6429H0.532V31.8609H12.74V30.6429H7.336V29.2989ZM9.716 25.8269V28.1089H3.556V25.8269H9.716ZM9.856 34.4369V37.5029H11.256V33.1909H2.03V34.4369H9.856ZM22.6974 30.8249V26.4989H24.7274V25.2389H15.0954V26.4989H17.1254V30.8249H15.0954V32.0709H24.7274V30.8249H22.6974ZM21.3394 26.4989V30.8249H18.4834V26.4989H21.3394ZM22.7674 32.8129H21.4094V35.1089H18.4274V32.8129H17.0694V35.1089H13.8074V36.3969H26.0154V35.1089H22.7674V32.8129ZM37.1628 29.5089C37.4008 28.1509 37.5268 26.7229 37.5268 25.6029V24.7769H28.5808V26.0509H36.1408C36.1268 26.8069 36.0008 28.1929 35.7628 29.5089H27.0828V30.7409H39.2908V29.5089H37.1628ZM37.8068 37.3769V32.3089H28.5808V37.3769H37.8068ZM36.4068 33.5129V36.1449H29.9808V33.5129H36.4068ZM50.3682 27.2269H48.7442V24.5109H47.4422V31.6649H48.7442V28.4729H50.3682V31.6649H51.6982V24.3709H50.3682V27.2269ZM46.1402 27.8009C46.1402 25.6869 44.9502 24.6509 43.3682 24.6509C41.7722 24.6509 40.5822 25.6869 40.5822 27.8009V28.0249C40.5822 30.1249 41.7722 31.1609 43.3682 31.1609C44.9502 31.1609 46.1402 30.1249 46.1402 28.0249V27.8009ZM41.8702 27.8149C41.8702 26.5549 42.5142 25.8829 43.3682 25.8829C44.2082 25.8829 44.8522 26.5549 44.8522 27.8149V27.9969C44.8522 29.2569 44.2082 29.9289 43.3682 29.9289C42.5142 29.9289 41.8702 29.2569 41.8702 27.9969V27.8149ZM50.2982 33.7509V37.5029H51.6982V32.4769H42.8922V33.7509H50.2982Z" fill="#666666"/>
</svg>
