<svg width="51" height="14" viewBox="0 0 51 14" fill="none" xmlns="http://www.w3.org/2000/svg">
<path d="M10.508 13.1V0.177999H9.5V13.1H10.508ZM3.466 11.378C5.286 11.378 6.784 10.16 6.784 7.094V5.162C6.784 2.096 5.286 0.877999 3.466 0.877999C1.646 0.877999 0.148 2.096 0.148 5.162V7.094C0.148 10.16 1.646 11.378 3.466 11.378ZM3.466 10.454C2.136 10.454 1.156 9.488 1.156 7.08V5.162C1.156 2.754 2.136 1.802 3.466 1.802C4.796 1.802 5.79 2.754 5.79 5.162V7.08C5.79 9.488 4.796 10.454 3.466 10.454ZM20.0034 4.644H22.7894V9.992H23.7834V0.177999H22.7894V3.762H20.0034V4.644ZM20.9694 7.276L17.1474 4.21C17.3714 3.566 17.4834 2.894 17.4834 2.166V1.844H20.4514V0.947999H13.5634V1.844H16.5034V2.166C16.5034 4.378 15.2574 5.918 13.0594 7.5L13.6054 8.27C15.0614 7.276 16.1114 6.24 16.7414 5.092L20.3954 8.06L20.9694 7.276ZM16.4754 9.166H15.4814V13.1H24.3854V12.176H16.4754V9.166ZM36.2468 5.232H34.2448V0.388H33.2788V12.862H34.2448V6.156H36.2468V13.1H37.2268V0.177999H36.2468V5.232ZM27.6788 10.034V2.138H31.4308V1.214H26.6708V10.944H28.2108C29.7648 10.944 31.0248 10.86 32.3128 10.636L32.2008 9.74C30.8288 9.95 29.6108 10.034 28.3648 10.034H27.6788ZM49.3402 13.1H50.3342V0.177999H49.3402V13.1ZM41.0942 4.91V1.074H40.1142V10.972H46.2882V1.074H45.2942V4.91H41.0942ZM41.0942 5.82H45.2942V10.048H41.0942V5.82Z" fill="#666666"/>
</svg>
