<svg width="228" height="40" viewBox="0 0 228 40" fill="none" xmlns="http://www.w3.org/2000/svg">
<path d="M12.496 6.2V0.615999H10.896V15.464H12.496V7.656H14.8V6.2H12.496ZM8.096 13.064V1.704H0.88V13.064H8.096ZM6.496 3.176V11.592H2.48V3.176H6.496ZM28.4999 15.464V0.615999H26.8999V15.464H28.4999ZM20.2919 13.528C22.4359 13.528 24.2119 12.12 24.2119 8.552V6.296C24.2119 2.728 22.4359 1.32 20.2919 1.32C18.1159 1.32 16.3399 2.728 16.3399 6.296V8.552C16.3399 12.12 18.1159 13.528 20.2919 13.528ZM20.2919 12.072C18.9799 12.072 17.9399 11.112 17.9399 8.536V6.312C17.9399 3.72 18.9799 2.776 20.2919 2.776C21.6039 2.776 22.6279 3.72 22.6279 6.312V8.536C22.6279 11.112 21.6039 12.072 20.2919 12.072ZM38.7278 9.416H43.2078V1.608H32.6638V9.416H37.1438V12.888H30.9518V14.36H44.9038V12.888H38.7278V9.416ZM41.6078 3.064V7.976H34.2638V3.064H41.6078ZM58.8436 8.632V0.615999H57.2596V8.632H58.8436ZM49.6596 8.12C51.7876 8.12 54.0276 7.912 55.8356 7.592L55.6436 6.184C53.7396 6.488 51.6276 6.664 49.9316 6.664H48.6996V1.32H47.0836V8.12H49.6596ZM58.8436 15.464V9.576H49.0356V15.464H58.8436ZM50.6196 10.984H57.2596V14.024H50.6196V10.984ZM69.4235 6.904C71.9515 6.904 73.6155 5.784 73.6155 3.832C73.6155 1.896 71.9515 0.775999 69.4235 0.775999H67.1355C64.6075 0.775999 62.9275 1.896 62.9275 3.832C62.9275 5.784 64.6075 6.904 67.1355 6.904H69.4235ZM67.4075 5.512C65.5675 5.512 64.5275 4.872 64.5275 3.848C64.5275 2.792 65.5675 2.168 67.4075 2.168H69.1515C70.9915 2.168 72.0315 2.792 72.0315 3.848C72.0315 4.872 70.9915 5.512 69.1515 5.512H67.4075ZM75.2475 9.88V8.424H61.2955V9.88H75.2475ZM73.7755 15.464V13.976H64.7515V11.16H63.1515V15.464H73.7755ZM12.496 30.2V24.616H10.896V39.464H12.496V31.656H14.8V30.2H12.496ZM6.72 27.24V27.416C6.72 28.328 6.56 29.256 6.224 30.168C4.736 30.312 2.416 30.408 1.04 30.424H0.768L0.848 31.864H1.152C2.464 31.864 4.192 31.768 5.552 31.64C4.544 33.448 2.912 35.144 0.736 36.536L1.712 37.8C5.808 35.096 8.32 31.464 8.32 27.096V25.784H1.072V27.24H6.72ZM27.1719 39.464H28.7239V24.616H27.1719V39.464ZM22.2919 30.344V31.8H24.0679V39.16H25.5879V24.84H24.0679V30.344H22.2919ZM21.5399 27.176H22.7079V25.704H15.6999V27.176H16.8839V35.592H15.5879L15.6679 37.064H17.4599C19.3479 37.064 21.5239 36.904 23.2519 36.632L23.1079 35.208C22.5959 35.272 22.0679 35.336 21.5399 35.384V27.176ZM20.1159 35.512C19.4759 35.544 18.8679 35.576 18.3079 35.576V27.176H20.1159V35.512ZM45.9936 39.464H47.5936V24.616H45.9936V39.464ZM40.5056 27.24H43.8496V25.784H35.6256V27.24H38.9376V27.864C38.9376 31.288 37.5456 33.768 35.0336 36.376L36.1696 37.448C37.6416 35.928 38.7456 34.408 39.4816 32.776L43.2736 37.288L44.4416 36.232L40.0896 31.096C40.3616 30.072 40.5056 29 40.5056 27.864V27.24ZM51.5175 30.696C53.9975 30.28 55.6615 29.736 56.6535 28.984L62.4295 30.696L62.8935 29.416L57.5815 27.864C57.7095 27.576 57.7895 27.256 57.8055 26.904H62.1415V25.576H57.8535V24.296H56.3175V25.576H51.9015V26.904H56.3175C56.1095 27.976 54.5255 28.84 51.1335 29.384L51.5175 30.696ZM63.9975 31.256H50.0455V32.52H56.2375V33.672H51.6775V34.904H60.7015V35.96H51.7575V39.544H62.6855V38.296H53.3575V37.176H62.3015V33.672H57.8215V32.52H63.9975V31.256ZM70.6913 30.008C73.0113 29.592 74.6433 29.048 75.6513 28.312L81.4273 30.008L81.9073 28.68L76.6913 27.176C76.8673 26.856 76.9633 26.52 76.9953 26.168H81.1553V24.856H71.0753V26.168H75.4273C75.1873 27.192 73.5393 28.104 70.3233 28.696L70.6913 30.008ZM83.0913 30.536H69.1393V31.848H75.3313V33.144H70.7713V34.424H79.7953V35.672H70.8513V39.544H81.7793V38.248H72.4513V36.936H81.3953V33.144H76.9153V31.848H83.0913V30.536ZM97.0311 39.464V24.616H95.4311V39.464H97.0311ZM88.8231 37.528C90.9671 37.528 92.7431 36.12 92.7431 32.552V30.296C92.7431 26.728 90.9671 25.32 88.8231 25.32C86.6471 25.32 84.8711 26.728 84.8711 30.296V32.552C84.8711 36.12 86.6471 37.528 88.8231 37.528ZM88.8231 36.072C87.5111 36.072 86.4711 35.112 86.4711 32.536V30.312C86.4711 27.72 87.5111 26.776 88.8231 26.776C90.1351 26.776 91.1591 27.72 91.1591 30.312V32.536C91.1591 35.112 90.1351 36.072 88.8231 36.072ZM110.619 39.464H112.203V24.616H110.619V39.464ZM106.043 27.24V27.416C106.043 30.552 103.995 33.96 100.155 36.424L101.115 37.688C105.243 34.968 107.643 31.304 107.643 27.096V25.784H100.475V27.24H106.043ZM126.047 39.464H127.615V24.616H126.047V39.464ZM121.151 30.344V30.296C121.151 26.728 119.791 25.32 118.047 25.32C116.271 25.32 114.911 26.728 114.911 30.296V32.552C114.911 36.12 116.271 37.528 118.047 37.528C119.791 37.528 121.151 36.12 121.151 32.552V31.8H122.831V39.16H124.351V24.84H122.831V30.344H121.151ZM119.631 32.536C119.631 35.112 118.959 36.072 118.031 36.072C117.103 36.072 116.431 35.112 116.431 32.536V30.312C116.431 27.72 117.103 26.776 118.031 26.776C118.959 26.776 119.631 27.72 119.631 30.312V32.536ZM141.525 33.416H146.005V31.976H137.061V27.064H145.845V25.608H135.461V33.416H139.941V36.888H133.749V38.36H147.701V36.888H141.525V33.416ZM157.145 29.912H160.057V35.736H161.641V24.616H160.057V28.536H157.145V29.912ZM157.369 33.72L158.265 32.472L154.089 29.24C154.329 28.52 154.441 27.768 154.441 26.968V26.824H157.689V25.4H149.673V26.824H152.873V26.968C152.873 29.304 151.625 30.984 149.081 32.728L149.945 33.96C151.529 32.92 152.697 31.832 153.449 30.616L157.369 33.72ZM153.417 34.808H151.817V39.464H162.265V38.008H153.417V34.808ZM165.692 30.664C168.028 30.152 169.66 29.48 170.668 28.648L176.332 30.664L176.86 29.352L171.628 27.496C171.82 27.128 171.932 26.728 171.948 26.312H176.108V24.936H166.028V26.312H170.38C170.204 27.496 168.572 28.568 165.276 29.352L165.692 30.664ZM178.044 31.352H164.092V32.744H170.284V34.232H169.372C166.972 34.232 165.644 35.368 165.644 36.92C165.644 38.488 166.972 39.624 169.372 39.624H172.764C175.164 39.624 176.492 38.488 176.492 36.92C176.492 35.368 175.164 34.232 172.764 34.232H171.868V32.744H178.044V31.352ZM174.908 36.904C174.908 37.72 174.14 38.232 172.46 38.232H169.692C168.012 38.232 167.244 37.72 167.244 36.904C167.244 36.12 168.012 35.608 169.692 35.608H172.46C174.14 35.608 174.908 36.12 174.908 36.904ZM191.984 39.464V24.616H190.384V39.464H191.984ZM183.776 37.528C185.92 37.528 187.696 36.12 187.696 32.552V30.296C187.696 26.728 185.92 25.32 183.776 25.32C181.6 25.32 179.824 26.728 179.824 30.296V32.552C179.824 36.12 181.6 37.528 183.776 37.528ZM183.776 36.072C182.464 36.072 181.424 35.112 181.424 32.536V30.312C181.424 27.72 182.464 26.776 183.776 26.776C185.088 26.776 186.112 27.72 186.112 30.312V32.536C186.112 35.112 185.088 36.072 183.776 36.072ZM205.828 39.464H207.396V24.616H205.828V39.464ZM200.932 30.344V30.296C200.932 26.728 199.572 25.32 197.828 25.32C196.052 25.32 194.692 26.728 194.692 30.296V32.552C194.692 36.12 196.052 37.528 197.828 37.528C199.572 37.528 200.932 36.12 200.932 32.552V31.8H202.612V39.16H204.132V24.84H202.612V30.344H200.932ZM199.412 32.536C199.412 35.112 198.74 36.072 197.812 36.072C196.884 36.072 196.212 35.112 196.212 32.536V30.312C196.212 27.72 196.884 26.776 197.812 26.776C198.74 26.776 199.412 27.72 199.412 30.312V32.536ZM217.752 33.336C220.424 33.336 222.136 31.624 222.136 29.336C222.136 27.096 220.424 25.384 217.752 25.384H215.432C212.76 25.384 211.048 27.096 211.048 29.336C211.048 31.624 212.76 33.336 215.432 33.336H217.752ZM217.464 26.808C219.4 26.808 220.552 27.864 220.552 29.352C220.552 30.856 219.4 31.912 217.464 31.912H215.704C213.784 31.912 212.648 30.856 212.648 29.352C212.648 27.864 213.784 26.808 215.704 26.808H217.464ZM220.008 34.184H218.456V36.888H214.744V34.184H213.176V36.888H209.608V38.344H223.56V36.888H220.008V34.184ZM227.26 34.584L227.404 25.24H225.612L225.772 34.584H227.26ZM226.508 38.84C227.116 38.84 227.612 38.36 227.612 37.752C227.612 37.144 227.116 36.648 226.508 36.648C225.9 36.648 225.42 37.144 225.42 37.752C225.42 38.36 225.9 38.84 226.508 38.84Z" fill="#333333"/>
</svg>
