<svg width="88" height="24" viewBox="0 0 88 24" fill="none" xmlns="http://www.w3.org/2000/svg">
<path d="M6 6L11.1962 15H0.803848L6 6Z" fill="#A132F9"/>
<path d="M20.0826 17.358V6.102H19.1866L15.6586 8.958L16.2466 9.7L19.0606 7.418V17.358H20.0826ZM26.6347 17.568C28.8467 17.568 30.6247 15.93 30.6247 12.85V10.61C30.6247 7.544 28.8467 5.892 26.6347 5.892C24.4087 5.892 22.6307 7.544 22.6307 10.61V12.85C22.6307 15.93 24.4087 17.568 26.6347 17.568ZM26.6347 16.658C24.9967 16.658 23.6527 15.426 23.6527 12.78V10.68C23.6527 8.048 24.9967 6.802 26.6347 6.802C28.2727 6.802 29.6167 8.048 29.6167 10.68V12.78C29.6167 15.426 28.2727 16.658 26.6347 16.658ZM36.6152 17.568C38.8272 17.568 40.6052 15.93 40.6052 12.85V10.61C40.6052 7.544 38.8272 5.892 36.6152 5.892C34.3892 5.892 32.6112 7.544 32.6112 10.61V12.85C32.6112 15.93 34.3892 17.568 36.6152 17.568ZM36.6152 16.658C34.9772 16.658 33.6332 15.426 33.6332 12.78V10.68C33.6332 8.048 34.9772 6.802 36.6152 6.802C38.2532 6.802 39.5972 8.048 39.5972 10.68V12.78C39.5972 15.426 38.2532 16.658 36.6152 16.658ZM43.3057 19.808L43.7817 16.098H42.7737L42.4797 19.808H43.3057ZM49.7812 17.568C51.9932 17.568 53.7712 15.93 53.7712 12.85V10.61C53.7712 7.544 51.9932 5.892 49.7812 5.892C47.5552 5.892 45.7772 7.544 45.7772 10.61V12.85C45.7772 15.93 47.5552 17.568 49.7812 17.568ZM49.7812 16.658C48.1432 16.658 46.7992 15.426 46.7992 12.78V10.68C46.7992 8.048 48.1432 6.802 49.7812 6.802C51.4192 6.802 52.7632 8.048 52.7632 10.68V12.78C52.7632 15.426 51.4192 16.658 49.7812 16.658ZM59.7617 17.568C61.9737 17.568 63.7517 15.93 63.7517 12.85V10.61C63.7517 7.544 61.9737 5.892 59.7617 5.892C57.5357 5.892 55.7577 7.544 55.7577 10.61V12.85C55.7577 15.93 57.5357 17.568 59.7617 17.568ZM59.7617 16.658C58.1237 16.658 56.7797 15.426 56.7797 12.78V10.68C56.7797 8.048 58.1237 6.802 59.7617 6.802C61.3997 6.802 62.7437 8.048 62.7437 10.68V12.78C62.7437 15.426 61.3997 16.658 59.7617 16.658ZM69.7421 17.568C71.9541 17.568 73.7321 15.93 73.7321 12.85V10.61C73.7321 7.544 71.9541 5.892 69.7421 5.892C67.5161 5.892 65.7381 7.544 65.7381 10.61V12.85C65.7381 15.93 67.5161 17.568 69.7421 17.568ZM69.7421 16.658C68.1041 16.658 66.7601 15.426 66.7601 12.78V10.68C66.7601 8.048 68.1041 6.802 69.7421 6.802C71.3801 6.802 72.7241 8.048 72.7241 10.68V12.78C72.7241 15.426 71.3801 16.658 69.7421 16.658ZM81.3046 14.25H85.2386V15.524H86.2326V5.178H85.2386V13.424H81.3046V14.25ZM79.5546 10.344C81.4306 10.344 82.9286 9.56 82.9286 8.034V7.852C82.9286 6.326 81.4306 5.528 79.5546 5.528C77.6786 5.528 76.1806 6.326 76.1806 7.852V8.034C76.1806 9.56 77.6786 10.344 79.5546 10.344ZM77.1466 7.88C77.1466 6.942 78.1546 6.396 79.5546 6.396C80.9686 6.396 81.9766 6.942 81.9766 7.88V8.006C81.9766 8.944 80.9686 9.49 79.5546 9.49C78.1546 9.49 77.1466 8.944 77.1466 8.006V7.88ZM79.6806 14.712C79.7646 13.942 79.8346 13.144 79.8906 12.388C81.3186 12.318 82.8446 12.192 84.1046 12.01L84.0066 11.17C81.9766 11.422 79.3866 11.576 77.7906 11.576H75.4386L75.4806 12.444H77.7346C78.0986 12.444 78.4906 12.444 78.8966 12.43C78.8546 13.144 78.7846 13.928 78.7006 14.642L79.6806 14.712ZM78.7846 15.258H77.7906V18.1H86.8346V17.176H78.7846V15.258Z" fill="#666666"/>
</svg>
