<svg width="99" height="34" viewBox="0 0 99 34" fill="none" xmlns="http://www.w3.org/2000/svg">
<path d="M17.835 8.86961L16.055 7.09961L6.16504 16.9996L16.065 26.8996L17.835 25.1296L9.70504 16.9996L17.835 8.86961Z" fill="black"/>
<path d="M43.644 14.674C43.95 12.928 44.112 11.092 44.112 9.652V8.59H32.61V10.228H42.33C42.312 11.2 42.15 12.982 41.844 14.674H30.684V16.258H46.38V14.674H43.644ZM44.472 24.79V18.274H32.61V24.79H44.472ZM42.672 19.822V23.206H34.41V19.822H42.672ZM56.9144 14.35C59.7404 14.35 61.6124 13.342 61.6124 11.29C61.6124 9.238 59.7404 8.248 56.9144 8.248H54.2864C51.4784 8.248 49.5884 9.238 49.5884 11.29C49.5884 13.342 51.4784 14.35 54.2864 14.35H56.9144ZM56.6084 9.76C58.6784 9.76 59.8304 10.282 59.8304 11.308C59.8304 12.298 58.6784 12.856 56.6084 12.856H54.6104C52.5404 12.856 51.3884 12.316 51.3884 11.308C51.3884 10.282 52.5404 9.76 54.6104 9.76H56.6084ZM63.4484 15.646H47.7524V17.212H51.8564V19.12C50.3264 19.57 49.4984 20.614 49.4984 21.91C49.4984 23.674 50.9924 24.952 53.6924 24.952H57.5084C60.2084 24.952 61.7024 23.674 61.7024 21.91C61.7024 20.614 60.8924 19.588 59.3624 19.138V17.212H63.4484V15.646ZM57.6164 18.886H57.5084H53.6924H53.6024V17.212H57.6164V18.886ZM59.9204 21.892C59.9204 22.81 59.0564 23.386 57.1664 23.386H54.0524C52.1624 23.386 51.2984 22.81 51.2984 21.892C51.2984 21.01 52.1624 20.434 54.0524 20.434H57.1664C59.0564 20.434 59.9204 21.01 59.9204 21.892ZM78.1947 8.068H76.3947V17.176H78.1947V13.198H80.7867V11.56H78.1947V8.068ZM73.7667 16.78L74.7387 15.376L70.0947 12.226C70.3647 11.452 70.5087 10.606 70.5087 9.706V8.608H68.7627V9.706C68.7627 12.064 67.4307 13.972 64.4787 15.7L65.4327 17.14C67.1967 16.114 68.4927 14.998 69.3207 13.738L73.7667 16.78ZM71.0847 18.058C68.6907 18.058 67.1427 19.498 67.1427 21.496C67.1427 23.512 68.6907 24.952 71.0847 24.952H74.6127C77.0427 24.952 78.5727 23.512 78.5727 21.496C78.5727 19.498 77.0427 18.058 74.6127 18.058H71.0847ZM71.3907 23.332C69.7527 23.332 68.9247 22.558 68.9247 21.496C68.9247 20.434 69.7527 19.66 71.3907 19.66H74.3247C75.9627 19.66 76.7727 20.434 76.7727 21.496C76.7727 22.558 75.9627 23.332 74.3247 23.332H71.3907ZM93.2651 13.144V9.922H95.7491V8.428H83.7251V9.922H86.2271V13.144H83.7251V14.656H95.7491V13.144H93.2651ZM91.5191 9.922V13.144H87.9731V9.922H91.5191ZM97.5851 16.078H81.8891V17.644H88.8371V19.318H83.8151V24.772H95.6771V19.318H90.6371V17.644H97.5851V16.078ZM85.6151 23.278V20.794H93.8771V23.278H85.6151Z" fill="black"/>
</svg>
