<svg width="111" height="182" viewBox="0 0 111 182" fill="none" xmlns="http://www.w3.org/2000/svg">
<circle cx="5" cy="12" r="5" fill="#B5A3F6"/>
<path d="M24.5 18.156H25.872V5.164H24.5V18.156ZM19.936 8.3C19.964 7.978 19.978 7.656 19.978 7.334V6.186H15.092V7.46H18.606V7.614C18.606 10.358 17.304 13.27 14.784 15.594L15.806 16.602C17.892 14.586 19.292 12.248 19.782 9.532H21.686V12.374H19.488V13.606H21.686V17.89H23.016V5.36H21.686V8.3H19.936ZM38.3354 10.176V5.164H36.9354V18.156H38.3354V11.45H40.2254V10.176H38.3354ZM28.3954 12.92C29.7534 12.15 30.7614 11.338 31.4054 10.414L34.8354 12.794L35.6054 11.632L32.0354 9.21C32.2314 8.664 32.3294 8.076 32.3294 7.432H35.0734V6.186H28.1994V7.432H30.9154C30.9154 9.21 29.8374 10.484 27.6674 11.786L28.3954 12.92ZM32.3854 12.514H30.9854V14.838C30.5654 14.852 30.1874 14.866 29.8514 14.866H27.6114L27.6814 16.14H29.7394C31.5734 16.14 34.0654 15.986 36.0114 15.706L35.8574 14.474C34.7654 14.6 33.5334 14.712 32.3854 14.782V12.514ZM42.1748 19.36L47.0748 4.66H45.5908L40.6908 19.36H42.1748ZM52.445 6.438V5.01H51.031V6.438H48.105V7.614H55.357V6.438H52.445ZM55.343 9.602H57.485V11.142H55.343V12.248H57.485V15.02H58.871V5.164H57.485V8.496H55.343V9.602ZM54.811 10.778C54.811 9.21 53.481 8.37 51.759 8.37C50.009 8.37 48.679 9.21 48.679 10.778V10.988C48.679 12.57 50.009 13.424 51.759 13.424C53.481 13.424 54.811 12.57 54.811 10.988V10.778ZM50.009 10.806C50.009 10.022 50.751 9.532 51.759 9.532C52.739 9.532 53.481 10.022 53.481 10.806V10.96C53.481 11.758 52.739 12.248 51.759 12.248C50.751 12.248 50.009 11.758 50.009 10.96V10.806ZM51.675 14.488H50.289V18.156H59.417V16.882H51.675V14.488ZM71.0964 10.302C71.3344 8.944 71.4604 7.516 71.4604 6.396V5.57H62.5144V6.844H70.0744C70.0604 7.6 69.9344 8.986 69.6964 10.302H61.0164V11.534H73.2244V10.302H71.0964ZM71.7404 18.17V13.102H62.5144V18.17H71.7404ZM70.3404 14.306V16.938H63.9144V14.306H70.3404Z" fill="#333333"/>
<path d="M82.1334 10.148C81.2374 10.148 80.3834 10.498 79.8234 11.156L80.2574 7.348H85.3954V6.06H79.0534L78.3394 12.976H79.6274C80.0194 12.024 80.7614 11.436 81.8814 11.436C83.3934 11.436 84.4154 12.402 84.4154 13.886C84.4154 15.356 83.3934 16.322 81.8114 16.322C80.6774 16.322 79.6554 15.832 79.1934 14.768L78.0034 15.44C78.6474 16.896 80.2574 17.61 81.8814 17.61C84.2334 17.61 85.8014 16.098 85.8014 13.886C85.8014 11.674 84.2754 10.148 82.1334 10.148ZM89.8704 12.024C91.2284 12.024 92.3624 11.086 92.3624 9.462V8.398C92.3624 6.802 91.2284 5.85 89.8704 5.85C88.4984 5.85 87.3644 6.802 87.3644 8.398V9.462C87.3644 11.086 88.4984 12.024 89.8704 12.024ZM90.3744 17.4L98.2004 6.06H96.6324L88.8064 17.4H90.3744ZM89.8704 10.848C89.1564 10.848 88.6104 10.33 88.6104 9.378V8.482C88.6104 7.544 89.1564 7.012 89.8704 7.012C90.5844 7.012 91.1164 7.544 91.1164 8.482V9.378C91.1164 10.33 90.5844 10.848 89.8704 10.848ZM97.0664 17.61C98.4244 17.61 99.5584 16.672 99.5584 15.048V13.984C99.5584 12.388 98.4244 11.436 97.0664 11.436C95.6944 11.436 94.5604 12.388 94.5604 13.984V15.048C94.5604 16.672 95.6944 17.61 97.0664 17.61ZM97.0664 16.448C96.3524 16.448 95.8064 15.916 95.8064 14.964V14.068C95.8064 13.13 96.3524 12.598 97.0664 12.598C97.7804 12.598 98.3124 13.13 98.3124 14.068V14.964C98.3124 15.916 97.7804 16.448 97.0664 16.448Z" fill="#999999"/>
<circle cx="5" cy="42" r="5" fill="#680DDD"/>
<path d="M17.43 40.96V39.504H25.256V38.356H17.43V36.97H25.256V35.78H16.03V42.122H25.522V40.96H17.43ZM14.532 43.536V44.768H19.95V48.31H21.336V44.768H26.74V43.536H14.532ZM38.2094 40.05V35.164H36.8094V48.156H38.2094V41.324H40.2114V40.05H38.2094ZM32.1894 37.46H35.0034V36.186H28.0594V37.46H30.8314V38.02C30.8314 41.016 29.6694 43.186 27.5554 45.468L28.5494 46.392C29.7814 45.076 30.7054 43.76 31.3074 42.346L34.4714 46.252L35.5214 45.342L31.8394 40.82C32.0774 39.924 32.1894 39 32.1894 38.02V37.46Z" fill="#333333"/>
<path d="M44.5844 36.06V37.334H50.7164L45.2844 47.61H46.8664L52.2984 37.334V36.06H44.5844ZM53.5565 44.782C54.0745 46.322 55.3765 47.61 57.6725 47.61C60.0385 47.61 61.6765 46.308 61.6765 44.362C61.6765 42.934 60.7665 41.926 59.5485 41.548C60.5845 41.156 61.3965 40.288 61.3965 38.902C61.3965 36.998 59.8145 35.85 57.6445 35.85C55.5725 35.85 54.3965 37.096 53.8785 38.468L55.1385 38.944C55.5165 38.006 56.2165 37.11 57.6445 37.11C59.0865 37.11 60.0245 37.81 60.0245 38.972C60.0245 40.12 59.1425 40.946 57.4625 40.946H56.0345V42.164H57.4625C59.3525 42.164 60.2905 43.116 60.2905 44.306C60.2905 45.496 59.3105 46.35 57.6725 46.35C56.0205 46.35 55.2085 45.398 54.8025 44.334L53.5565 44.782ZM65.7532 42.024C67.1112 42.024 68.2452 41.086 68.2452 39.462V38.398C68.2452 36.802 67.1112 35.85 65.7532 35.85C64.3812 35.85 63.2472 36.802 63.2472 38.398V39.462C63.2472 41.086 64.3812 42.024 65.7532 42.024ZM66.2572 47.4L74.0832 36.06H72.5152L64.6892 47.4H66.2572ZM65.7532 40.848C65.0392 40.848 64.4932 40.33 64.4932 39.378V38.482C64.4932 37.544 65.0392 37.012 65.7532 37.012C66.4672 37.012 66.9992 37.544 66.9992 38.482V39.378C66.9992 40.33 66.4672 40.848 65.7532 40.848ZM72.9492 47.61C74.3072 47.61 75.4412 46.672 75.4412 45.048V43.984C75.4412 42.388 74.3072 41.436 72.9492 41.436C71.5772 41.436 70.4432 42.388 70.4432 43.984V45.048C70.4432 46.672 71.5772 47.61 72.9492 47.61ZM72.9492 46.448C72.2352 46.448 71.6892 45.916 71.6892 44.964V44.068C71.6892 43.13 72.2352 42.598 72.9492 42.598C73.6632 42.598 74.1952 43.13 74.1952 44.068V44.964C74.1952 45.916 73.6632 46.448 72.9492 46.448Z" fill="#999999"/>
<circle cx="5" cy="72" r="5" fill="#9176E6"/>
<path d="M24.5 78.156H25.858V65.164H24.5V78.156ZM20.23 70.176V71.45H21.784V77.89H23.114V65.36H21.784V70.176H20.23ZM19.572 67.404H20.594V66.116H14.462V67.404H15.498V74.768H14.364L14.434 76.056H16.002C17.654 76.056 19.558 75.916 21.07 75.678L20.944 74.432C20.496 74.488 20.034 74.544 19.572 74.586V67.404ZM18.326 74.698C17.766 74.726 17.234 74.754 16.744 74.754V67.404H18.326V74.698ZM38.9374 78.156V65.164H37.5374V78.156H38.9374ZM31.7554 76.462C33.6314 76.462 35.1854 75.23 35.1854 72.108V70.134C35.1854 67.012 33.6314 65.78 31.7554 65.78C29.8514 65.78 28.2974 67.012 28.2974 70.134V72.108C28.2974 75.23 29.8514 76.462 31.7554 76.462ZM31.7554 75.188C30.6074 75.188 29.6974 74.348 29.6974 72.094V70.148C29.6974 67.88 30.6074 67.054 31.7554 67.054C32.9034 67.054 33.7994 67.88 33.7994 70.148V72.094C33.7994 74.348 32.9034 75.188 31.7554 75.188ZM50.8268 70.176H48.1528V66.116H41.7128V76.056H48.1528V71.45H50.8268V78.156H52.2128V65.164H50.8268V70.176ZM43.1128 74.768V67.404H46.7668V74.768H43.1128ZM65.4882 78.156V65.164H64.1022V78.156H65.4882ZM57.4522 76.042C59.3142 76.042 61.2742 75.86 62.8562 75.58L62.6882 74.348C61.0222 74.614 59.1742 74.768 57.6902 74.768H56.6122V66.116H55.1982V76.042H57.4522Z" fill="#333333"/>
<path d="M75.6012 77.61C78.0232 77.61 79.7312 76.35 79.7312 74.292C79.7312 73.102 78.9472 72.052 77.5612 71.52C78.8352 71.002 79.4092 70.05 79.4092 68.944C79.4092 66.984 77.8132 65.85 75.6012 65.85C73.3892 65.85 71.8072 66.984 71.8072 68.944C71.8072 70.05 72.3812 71.002 73.6552 71.52C72.2552 72.052 71.4852 73.102 71.4852 74.292C71.4852 76.35 73.2072 77.61 75.6012 77.61ZM75.6012 70.946C74.0892 70.946 73.1932 70.162 73.1932 69.028C73.1932 67.894 74.0892 67.11 75.6012 67.11C77.1272 67.11 78.0232 67.894 78.0232 69.028C78.0232 70.162 77.1272 70.946 75.6012 70.946ZM75.6012 76.35C73.8932 76.35 72.8712 75.496 72.8712 74.25C72.8712 73.032 73.9352 72.15 75.6012 72.15C77.2812 72.15 78.3312 73.032 78.3312 74.25C78.3312 75.496 77.3232 76.35 75.6012 76.35ZM83.8001 72.024C85.1581 72.024 86.2921 71.086 86.2921 69.462V68.398C86.2921 66.802 85.1581 65.85 83.8001 65.85C82.4281 65.85 81.2941 66.802 81.2941 68.398V69.462C81.2941 71.086 82.4281 72.024 83.8001 72.024ZM84.3041 77.4L92.1301 66.06H90.5621L82.7361 77.4H84.3041ZM83.8001 70.848C83.0861 70.848 82.5401 70.33 82.5401 69.378V68.482C82.5401 67.544 83.0861 67.012 83.8001 67.012C84.5141 67.012 85.0461 67.544 85.0461 68.482V69.378C85.0461 70.33 84.5141 70.848 83.8001 70.848ZM90.9961 77.61C92.3541 77.61 93.4881 76.672 93.4881 75.048V73.984C93.4881 72.388 92.3541 71.436 90.9961 71.436C89.6241 71.436 88.4901 72.388 88.4901 73.984V75.048C88.4901 76.672 89.6241 77.61 90.9961 77.61ZM90.9961 76.448C90.2821 76.448 89.7361 75.916 89.7361 74.964V74.068C89.7361 73.13 90.2821 72.598 90.9961 72.598C91.7101 72.598 92.2421 73.13 92.2421 74.068V74.964C92.2421 75.916 91.7101 76.448 90.9961 76.448Z" fill="#999999"/>
<circle cx="5" cy="102" r="5" fill="#C7BAF6"/>
<path d="M21.336 103.13H25.452V101.87H23.422V97.306H25.452V96.032H15.82V97.306H17.85V101.87H15.82V103.13H19.95V105.902H14.532V107.19H26.74V105.902H21.336V103.13ZM22.064 97.306V101.87H19.208V97.306H22.064ZM38.9514 104.894V95.164H37.5514V104.894H38.9514ZM31.7974 102.766C33.7154 102.766 35.2694 101.632 35.2694 99.28V99.014C35.2694 96.634 33.7154 95.514 31.7974 95.514C29.8654 95.514 28.3114 96.634 28.3114 99.014V99.28C28.3114 101.632 29.8654 102.766 31.7974 102.766ZM31.7974 101.534C30.6214 101.534 29.7114 100.778 29.7114 99.252V99.028C29.7114 97.488 30.6214 96.746 31.7974 96.746C32.9594 96.746 33.8694 97.488 33.8694 99.028V99.252C33.8694 100.778 32.9594 101.534 31.7974 101.534ZM39.4974 108.156V106.882H31.7554V103.942H30.3554V108.156H39.4974ZM43.9808 102.36V100.414H51.8068V99.182H43.9808V97.306H51.8068V96.032H42.5808V103.606H52.0728V102.36H43.9808ZM41.0828 107.19H53.2908V105.902H41.0828V107.19Z" fill="#333333"/>
<path d="M62.3258 107.61C64.5938 107.61 66.4558 105.986 66.4558 102.822V100.624C66.4558 97.488 64.5938 95.85 62.3258 95.85C60.0578 95.85 58.2098 97.488 58.2098 100.624V102.822C58.2098 105.986 60.0578 107.61 62.3258 107.61ZM62.3258 106.35C60.7998 106.35 59.6098 105.202 59.6098 102.752V100.708C59.6098 98.258 60.7998 97.11 62.3258 97.11C63.8518 97.11 65.0418 98.258 65.0418 100.708V102.752C65.0418 105.202 63.8518 106.35 62.3258 106.35ZM69.1947 107.61C69.7267 107.61 70.1467 107.19 70.1467 106.658C70.1467 106.126 69.7267 105.692 69.1947 105.692C68.6627 105.692 68.2287 106.126 68.2287 106.658C68.2287 107.19 68.6627 107.61 69.1947 107.61ZM75.9264 100.148C75.0304 100.148 74.1764 100.498 73.6164 101.156L74.0504 97.348H79.1884V96.06H72.8464L72.1324 102.976H73.4204C73.8124 102.024 74.5544 101.436 75.6744 101.436C77.1864 101.436 78.2084 102.402 78.2084 103.886C78.2084 105.356 77.1864 106.322 75.6044 106.322C74.4704 106.322 73.4484 105.832 72.9864 104.768L71.7964 105.44C72.4404 106.896 74.0504 107.61 75.6744 107.61C78.0264 107.61 79.5944 106.098 79.5944 103.886C79.5944 101.674 78.0684 100.148 75.9264 100.148ZM83.6633 102.024C85.0213 102.024 86.1553 101.086 86.1553 99.462V98.398C86.1553 96.802 85.0213 95.85 83.6633 95.85C82.2913 95.85 81.1573 96.802 81.1573 98.398V99.462C81.1573 101.086 82.2913 102.024 83.6633 102.024ZM84.1673 107.4L91.9933 96.06H90.4253L82.5993 107.4H84.1673ZM83.6633 100.848C82.9493 100.848 82.4033 100.33 82.4033 99.378V98.482C82.4033 97.544 82.9493 97.012 83.6633 97.012C84.3773 97.012 84.9093 97.544 84.9093 98.482V99.378C84.9093 100.33 84.3773 100.848 83.6633 100.848ZM90.8593 107.61C92.2173 107.61 93.3513 106.672 93.3513 105.048V103.984C93.3513 102.388 92.2173 101.436 90.8593 101.436C89.4873 101.436 88.3533 102.388 88.3533 103.984V105.048C88.3533 106.672 89.4873 107.61 90.8593 107.61ZM90.8593 106.448C90.1453 106.448 89.5993 105.916 89.5993 104.964V104.068C89.5993 103.13 90.1453 102.598 90.8593 102.598C91.5733 102.598 92.1053 103.13 92.1053 104.068V104.964C92.1053 105.916 91.5733 106.448 90.8593 106.448Z" fill="#999999"/>
<circle cx="5" cy="140" r="5" fill="#E7E5E5"/>
<path d="M24.5 146.156H25.872V133.164H24.5V146.156ZM19.978 136.16C19.572 134.48 18.62 133.78 17.472 133.78C15.932 133.78 14.756 135.012 14.756 138.134V140.108C14.756 143.23 15.932 144.462 17.472 144.462C18.76 144.462 19.782 143.594 20.09 141.466H21.686V145.89H23.016V133.36H21.686V136.16H19.978ZM18.858 140.094C18.858 142.348 18.27 143.188 17.472 143.188C16.674 143.188 16.086 142.348 16.086 140.094V138.148C16.086 135.88 16.674 135.054 17.472 135.054C18.27 135.054 18.858 135.88 18.858 138.148V140.094ZM20.174 140.234V140.108V138.134C20.174 137.882 20.16 137.63 20.146 137.406H21.686V140.234H20.174ZM37.8874 138.302C38.1254 136.944 38.2514 135.516 38.2514 134.396V133.57H29.3054V134.844H36.8654C36.8514 135.6 36.7254 136.986 36.4874 138.302H27.8074V139.534H40.0154V138.302H37.8874ZM38.5314 146.17V141.102H29.3054V146.17H38.5314ZM37.1314 142.306V144.938H30.7054V142.306H37.1314ZM51.4848 135.88V133.164H50.0848V140.178H51.4848V137.154H53.5008V135.88H51.4848ZM48.7548 138.092C47.1448 138.344 45.3248 138.498 43.8828 138.498H42.8048V135.026H47.7048V133.78H41.3908V139.73H43.6308C45.4508 139.73 47.3688 139.562 48.9228 139.296L48.7548 138.092ZM51.4848 146.156V141.004H43.1688V146.156H51.4848ZM50.0848 142.236V144.896H44.5548V142.236H50.0848ZM61.1622 141.13H65.0822V133.962H63.6822V136.342H57.2562V133.962H55.8562V141.13H59.7762V143.902H54.3582V145.19H66.5662V143.902H61.1622V141.13ZM63.6822 137.602V139.87H57.2562V137.602H63.6822ZM77.6156 138.05H75.9496V133.36H74.6336V145.89H75.9496V139.324H77.6156V146.156H78.9736V133.164H77.6156V138.05ZM69.5376 142.768V135.404H73.0096V134.116H68.1376V144.042H69.9156C71.3436 144.042 72.5196 143.972 73.7656 143.748L73.6256 142.502C72.3376 142.698 71.2176 142.768 70.1116 142.768H69.5376ZM82.197 138.484C84.367 138.12 85.823 137.644 86.691 136.986L91.745 138.484L92.151 137.364L87.503 136.006C87.615 135.754 87.685 135.474 87.699 135.166H91.493V134.004H87.741V132.884H86.397V134.004H82.533V135.166H86.397C86.215 136.104 84.829 136.86 81.861 137.336L82.197 138.484ZM93.117 138.974H80.909V140.08H86.327V141.088H82.337V142.166H90.233V143.09H82.407V146.226H91.969V145.134H83.807V144.154H91.633V141.088H87.713V140.08H93.117V138.974Z" fill="#333333"/>
<circle cx="5" cy="170" r="5" fill="#C0BFBF"/>
<path d="M24.262 170.458H25.662V163.164H24.262V170.458ZM22.204 170.248L22.89 169.1L19.166 166.748C19.362 166.216 19.46 165.642 19.46 165.026H22.386V163.78H15.19V165.026H18.102C18.102 166.79 16.982 168.106 14.672 169.394L15.33 170.514C16.828 169.716 17.906 168.848 18.592 167.868L22.204 170.248ZM24.262 172.544V176.296H25.662V171.27H16.926V172.544H24.262ZM38.2094 163.164H36.8094V170.248H38.2094V167.154H40.2114V165.88H38.2094V163.164ZM34.8074 170.108L35.5074 168.974L31.9234 166.692C32.1054 166.174 32.2034 165.614 32.2034 165.026H35.0034V163.78H28.0594V165.026H30.8454C30.8454 166.734 29.7814 168.022 27.5554 169.268L28.2134 170.388C29.6554 169.618 30.6914 168.778 31.3494 167.826L34.8074 170.108ZM32.6794 170.934C30.8174 170.934 29.6134 172.054 29.6134 173.608C29.6134 175.176 30.8174 176.296 32.6794 176.296H35.4234C37.3134 176.296 38.5034 175.176 38.5034 173.608C38.5034 172.054 37.3134 170.934 35.4234 170.934H32.6794ZM32.9174 175.036C31.6434 175.036 30.9994 174.434 30.9994 173.608C30.9994 172.782 31.6434 172.18 32.9174 172.18H35.1994C36.4734 172.18 37.1174 172.782 37.1174 173.608C37.1174 174.434 36.4734 175.036 35.1994 175.036H32.9174ZM52.2268 172.894V163.164H50.8268V172.894H52.2268ZM45.0728 170.766C46.9908 170.766 48.5448 169.632 48.5448 167.28V167.014C48.5448 164.634 46.9908 163.514 45.0728 163.514C43.1408 163.514 41.5868 164.634 41.5868 167.014V167.28C41.5868 169.632 43.1408 170.766 45.0728 170.766ZM45.0728 169.534C43.8968 169.534 42.9868 168.778 42.9868 167.252V167.028C42.9868 165.488 43.8968 164.746 45.0728 164.746C46.2348 164.746 47.1448 165.488 47.1448 167.028V167.252C47.1448 168.778 46.2348 169.534 45.0728 169.534ZM52.7728 176.156V174.882H45.0308V171.942H43.6308V176.156H52.7728ZM67.5338 163.164V172.894H68.9198V163.164H67.5338ZM65.3918 170.724L66.1758 169.66L62.3958 166.832C62.6338 166.16 62.7458 165.432 62.7458 164.662V163.654H61.3738V164.662C61.3738 166.734 60.3098 168.372 57.9298 169.898L58.6998 170.99C60.1138 170.08 61.1358 169.128 61.8078 168.05L65.3918 170.724ZM61.7238 172.082H60.3378V176.156H69.4658V174.882H61.7238V172.082ZM79.9412 167.84C81.1312 167.504 81.8452 166.79 81.8452 165.67C81.8452 164.074 80.3892 163.304 78.1912 163.304H76.1472C73.9632 163.304 72.4932 164.074 72.4932 165.67C72.4932 166.79 73.2212 167.518 74.4112 167.84V169.268H71.0652V170.472H83.2732V169.268H79.9412V167.84ZM73.8932 165.684C73.8932 164.886 74.7892 164.48 76.3992 164.48H77.9532C79.5632 164.48 80.4592 164.886 80.4592 165.684C80.4592 166.454 79.5632 166.888 77.9532 166.888H76.3992C74.7892 166.888 73.8932 166.468 73.8932 165.684ZM75.7412 168.036C76.6932 168.05 77.6592 168.05 78.6112 168.036V169.268H75.7412V168.036ZM75.6852 171.578C73.5852 171.578 72.4232 172.572 72.4232 173.93C72.4232 175.302 73.5852 176.296 75.6852 176.296H78.6532C80.7532 176.296 81.9152 175.302 81.9152 173.93C81.9152 172.572 80.7532 171.578 78.6532 171.578H75.6852ZM75.9652 175.078C74.4952 175.078 73.8232 174.63 73.8232 173.916C73.8232 173.23 74.4952 172.782 75.9652 172.782H78.3872C79.8572 172.782 80.5292 173.23 80.5292 173.916C80.5292 174.63 79.8572 175.078 78.3872 175.078H75.9652ZM94.3226 168.05H92.6566V163.36H91.3406V175.89H92.6566V169.324H94.3226V176.156H95.6806V163.164H94.3226V168.05ZM86.2446 172.768V165.404H89.7166V164.116H84.8446V174.042H86.6226C88.0506 174.042 89.2266 173.972 90.4726 173.748L90.3326 172.502C89.0446 172.698 87.9246 172.768 86.8186 172.768H86.2446ZM98.904 168.484C101.074 168.12 102.53 167.644 103.398 166.986L108.452 168.484L108.858 167.364L104.21 166.006C104.322 165.754 104.392 165.474 104.406 165.166H108.2V164.004H104.448V162.884H103.104V164.004H99.24V165.166H103.104C102.922 166.104 101.536 166.86 98.568 167.336L98.904 168.484ZM109.824 168.974H97.616V170.08H103.034V171.088H99.044V172.166H106.94V173.09H99.114V176.226H108.676V175.134H100.514V174.154H108.34V171.088H104.42V170.08H109.824V168.974Z" fill="#333333"/>
</svg>
