<svg width="90" height="15" viewBox="0 0 90 15" fill="none" xmlns="http://www.w3.org/2000/svg">
<path d="M7.756 8.872V1.06H5.88L0.672 9.012V10.16H6.37V12.61H7.756V10.16H9.506V8.872H7.756ZM6.37 2.656V8.872H2.352L6.37 2.656ZM12.0095 14.836L12.5835 10.79H11.1695L10.8615 14.836H12.0095ZM22.1585 12.4V11.112H16.5025L19.7085 7.934C21.0665 6.59 21.8925 5.47 21.8925 3.93C21.8925 2.026 20.4365 0.85 18.2525 0.85C16.1245 0.85 14.8925 2.39 14.4305 4.056L15.7605 4.378C16.1385 3.132 16.8525 2.11 18.2525 2.11C19.6945 2.11 20.5065 2.852 20.5065 3.986C20.5065 5.036 19.9185 5.918 18.6445 7.178L14.4865 11.308V12.4H22.1585ZM28.1735 12.61C30.4415 12.61 32.3035 10.986 32.3035 7.822V5.624C32.3035 2.488 30.4415 0.85 28.1735 0.85C25.9055 0.85 24.0575 2.488 24.0575 5.624V7.822C24.0575 10.986 25.9055 12.61 28.1735 12.61ZM28.1735 11.35C26.6475 11.35 25.4575 10.202 25.4575 7.752V5.708C25.4575 3.258 26.6475 2.11 28.1735 2.11C29.6995 2.11 30.8895 3.258 30.8895 5.708V7.752C30.8895 10.202 29.6995 11.35 28.1735 11.35ZM38.3043 12.61C40.5723 12.61 42.4343 10.986 42.4343 7.822V5.624C42.4343 2.488 40.5723 0.85 38.3043 0.85C36.0363 0.85 34.1883 2.488 34.1883 5.624V7.822C34.1883 10.986 36.0363 12.61 38.3043 12.61ZM38.3043 11.35C36.7783 11.35 35.5883 10.202 35.5883 7.752V5.708C35.5883 3.258 36.7783 2.11 38.3043 2.11C39.8303 2.11 41.0203 3.258 41.0203 5.708V7.752C41.0203 10.202 39.8303 11.35 38.3043 11.35ZM45.3552 14.836L45.9292 10.79H44.5152L44.2072 14.836H45.3552ZM51.9762 12.61C54.2442 12.61 56.1062 10.986 56.1062 7.822V5.624C56.1062 2.488 54.2442 0.85 51.9762 0.85C49.7082 0.85 47.8602 2.488 47.8602 5.624V7.822C47.8602 10.986 49.7082 12.61 51.9762 12.61ZM51.9762 11.35C50.4502 11.35 49.2602 10.202 49.2602 7.752V5.708C49.2602 3.258 50.4502 2.11 51.9762 2.11C53.5022 2.11 54.6922 3.258 54.6922 5.708V7.752C54.6922 10.202 53.5022 11.35 51.9762 11.35ZM62.1071 12.61C64.3751 12.61 66.2371 10.986 66.2371 7.822V5.624C66.2371 2.488 64.3751 0.85 62.1071 0.85C59.8391 0.85 57.9911 2.488 57.9911 5.624V7.822C57.9911 10.986 59.8391 12.61 62.1071 12.61ZM62.1071 11.35C60.5811 11.35 59.3911 10.202 59.3911 7.752V5.708C59.3911 3.258 60.5811 2.11 62.1071 2.11C63.6331 2.11 64.8231 3.258 64.8231 5.708V7.752C64.8231 10.202 63.6331 11.35 62.1071 11.35ZM72.2379 12.61C74.5059 12.61 76.3679 10.986 76.3679 7.822V5.624C76.3679 2.488 74.5059 0.85 72.2379 0.85C69.9699 0.85 68.1219 2.488 68.1219 5.624V7.822C68.1219 10.986 69.9699 12.61 72.2379 12.61ZM72.2379 11.35C70.7119 11.35 69.5219 10.202 69.5219 7.752V5.708C69.5219 3.258 70.7119 2.11 72.2379 2.11C73.7639 2.11 74.9539 3.258 74.9539 5.708V7.752C74.9539 10.202 73.7639 11.35 72.2379 11.35ZM83.9508 9.404H87.5768V10.51H88.9628V0.163999H87.5768V8.34H83.9508V9.404ZM82.1028 5.386C84.0628 5.386 85.5888 4.574 85.5888 3.006V2.838C85.5888 1.256 84.0628 0.444 82.1028 0.444C80.1288 0.444 78.6028 1.256 78.6028 2.838V3.006C78.6028 4.574 80.1288 5.386 82.1028 5.386ZM79.9328 2.866C79.9328 2.04 80.8428 1.592 82.1028 1.592C83.3488 1.592 84.2588 2.04 84.2588 2.866V2.978C84.2588 3.79 83.3488 4.238 82.1028 4.238C80.8428 4.238 79.9328 3.79 79.9328 2.978V2.866ZM82.4248 9.698C82.5088 8.956 82.5648 8.214 82.6068 7.528C83.9788 7.458 85.4068 7.332 86.6388 7.164L86.4988 6.016C84.4408 6.268 81.9208 6.422 80.3108 6.422H77.9728L78.0288 7.598H80.1988C80.5348 7.598 80.8848 7.598 81.2628 7.584C81.2068 8.228 81.1508 8.928 81.0808 9.6L82.4248 9.698ZM81.6268 10.16H80.2408V13.156H89.5088V11.882H81.6268V10.16Z" fill="black"/>
</svg>
