<svg width="113" height="182" viewBox="0 0 113 182" fill="none" xmlns="http://www.w3.org/2000/svg">
<circle cx="6" cy="12" r="6" fill="#19DCA1"/>
<path d="M26.5 18.156H27.872V5.164H26.5V18.156ZM21.936 8.3C21.964 7.978 21.978 7.656 21.978 7.334V6.186H17.092V7.46H20.606V7.614C20.606 10.358 19.304 13.27 16.784 15.594L17.806 16.602C19.892 14.586 21.292 12.248 21.782 9.532H23.686V12.374H21.488V13.606H23.686V17.89H25.016V5.36H23.686V8.3H21.936ZM40.3354 10.176V5.164H38.9354V18.156H40.3354V11.45H42.2254V10.176H40.3354ZM30.3954 12.92C31.7534 12.15 32.7614 11.338 33.4054 10.414L36.8354 12.794L37.6054 11.632L34.0354 9.21C34.2314 8.664 34.3294 8.076 34.3294 7.432H37.0734V6.186H30.1994V7.432H32.9154C32.9154 9.21 31.8374 10.484 29.6674 11.786L30.3954 12.92ZM34.3854 12.514H32.9854V14.838C32.5654 14.852 32.1874 14.866 31.8514 14.866H29.6114L29.6814 16.14H31.7394C33.5734 16.14 36.0654 15.986 38.0114 15.706L37.8574 14.474C36.7654 14.6 35.5334 14.712 34.3854 14.782V12.514ZM44.1748 19.36L49.0748 4.66H47.5908L42.6908 19.36H44.1748ZM54.445 6.438V5.01H53.031V6.438H50.105V7.614H57.357V6.438H54.445ZM57.343 9.602H59.485V11.142H57.343V12.248H59.485V15.02H60.871V5.164H59.485V8.496H57.343V9.602ZM56.811 10.778C56.811 9.21 55.481 8.37 53.759 8.37C52.009 8.37 50.679 9.21 50.679 10.778V10.988C50.679 12.57 52.009 13.424 53.759 13.424C55.481 13.424 56.811 12.57 56.811 10.988V10.778ZM52.009 10.806C52.009 10.022 52.751 9.532 53.759 9.532C54.739 9.532 55.481 10.022 55.481 10.806V10.96C55.481 11.758 54.739 12.248 53.759 12.248C52.751 12.248 52.009 11.758 52.009 10.96V10.806ZM53.675 14.488H52.289V18.156H61.417V16.882H53.675V14.488ZM73.0964 10.302C73.3344 8.944 73.4604 7.516 73.4604 6.396V5.57H64.5144V6.844H72.0744C72.0604 7.6 71.9344 8.986 71.6964 10.302H63.0164V11.534H75.2244V10.302H73.0964ZM73.7404 18.17V13.102H64.5144V18.17H73.7404ZM72.3404 14.306V16.938H65.9144V14.306H72.3404Z" fill="#333333"/>
<path d="M84.1334 10.148C83.2374 10.148 82.3834 10.498 81.8234 11.156L82.2574 7.348H87.3954V6.06H81.0534L80.3394 12.976H81.6274C82.0194 12.024 82.7614 11.436 83.8814 11.436C85.3934 11.436 86.4154 12.402 86.4154 13.886C86.4154 15.356 85.3934 16.322 83.8114 16.322C82.6774 16.322 81.6554 15.832 81.1934 14.768L80.0034 15.44C80.6474 16.896 82.2574 17.61 83.8814 17.61C86.2334 17.61 87.8014 16.098 87.8014 13.886C87.8014 11.674 86.2754 10.148 84.1334 10.148ZM91.8704 12.024C93.2284 12.024 94.3624 11.086 94.3624 9.462V8.398C94.3624 6.802 93.2284 5.85 91.8704 5.85C90.4984 5.85 89.3644 6.802 89.3644 8.398V9.462C89.3644 11.086 90.4984 12.024 91.8704 12.024ZM92.3744 17.4L100.2 6.06H98.6324L90.8064 17.4H92.3744ZM91.8704 10.848C91.1564 10.848 90.6104 10.33 90.6104 9.378V8.482C90.6104 7.544 91.1564 7.012 91.8704 7.012C92.5844 7.012 93.1164 7.544 93.1164 8.482V9.378C93.1164 10.33 92.5844 10.848 91.8704 10.848ZM99.0664 17.61C100.424 17.61 101.558 16.672 101.558 15.048V13.984C101.558 12.388 100.424 11.436 99.0664 11.436C97.6944 11.436 96.5604 12.388 96.5604 13.984V15.048C96.5604 16.672 97.6944 17.61 99.0664 17.61ZM99.0664 16.448C98.3524 16.448 97.8064 15.916 97.8064 14.964V14.068C97.8064 13.13 98.3524 12.598 99.0664 12.598C99.7804 12.598 100.312 13.13 100.312 14.068V14.964C100.312 15.916 99.7804 16.448 99.0664 16.448Z" fill="#999999"/>
<circle cx="6" cy="42" r="6" fill="#3299F9"/>
<path d="M19.43 40.96V39.504H27.256V38.356H19.43V36.97H27.256V35.78H18.03V42.122H27.522V40.96H19.43ZM16.532 43.536V44.768H21.95V48.31H23.336V44.768H28.74V43.536H16.532ZM40.2094 40.05V35.164H38.8094V48.156H40.2094V41.324H42.2114V40.05H40.2094ZM34.1894 37.46H37.0034V36.186H30.0594V37.46H32.8314V38.02C32.8314 41.016 31.6694 43.186 29.5554 45.468L30.5494 46.392C31.7814 45.076 32.7054 43.76 33.3074 42.346L36.4714 46.252L37.5214 45.342L33.8394 40.82C34.0774 39.924 34.1894 39 34.1894 38.02V37.46Z" fill="#333333"/>
<path d="M46.5844 36.06V37.334H52.7164L47.2844 47.61H48.8664L54.2984 37.334V36.06H46.5844ZM55.5565 44.782C56.0745 46.322 57.3765 47.61 59.6725 47.61C62.0385 47.61 63.6765 46.308 63.6765 44.362C63.6765 42.934 62.7665 41.926 61.5485 41.548C62.5845 41.156 63.3965 40.288 63.3965 38.902C63.3965 36.998 61.8145 35.85 59.6445 35.85C57.5725 35.85 56.3965 37.096 55.8785 38.468L57.1385 38.944C57.5165 38.006 58.2165 37.11 59.6445 37.11C61.0865 37.11 62.0245 37.81 62.0245 38.972C62.0245 40.12 61.1425 40.946 59.4625 40.946H58.0345V42.164H59.4625C61.3525 42.164 62.2905 43.116 62.2905 44.306C62.2905 45.496 61.3105 46.35 59.6725 46.35C58.0205 46.35 57.2085 45.398 56.8025 44.334L55.5565 44.782ZM67.7532 42.024C69.1112 42.024 70.2452 41.086 70.2452 39.462V38.398C70.2452 36.802 69.1112 35.85 67.7532 35.85C66.3812 35.85 65.2472 36.802 65.2472 38.398V39.462C65.2472 41.086 66.3812 42.024 67.7532 42.024ZM68.2572 47.4L76.0832 36.06H74.5152L66.6892 47.4H68.2572ZM67.7532 40.848C67.0392 40.848 66.4932 40.33 66.4932 39.378V38.482C66.4932 37.544 67.0392 37.012 67.7532 37.012C68.4672 37.012 68.9992 37.544 68.9992 38.482V39.378C68.9992 40.33 68.4672 40.848 67.7532 40.848ZM74.9492 47.61C76.3072 47.61 77.4412 46.672 77.4412 45.048V43.984C77.4412 42.388 76.3072 41.436 74.9492 41.436C73.5772 41.436 72.4432 42.388 72.4432 43.984V45.048C72.4432 46.672 73.5772 47.61 74.9492 47.61ZM74.9492 46.448C74.2352 46.448 73.6892 45.916 73.6892 44.964V44.068C73.6892 43.13 74.2352 42.598 74.9492 42.598C75.6632 42.598 76.1952 43.13 76.1952 44.068V44.964C76.1952 45.916 75.6632 46.448 74.9492 46.448Z" fill="#999999"/>
<circle cx="6" cy="72" r="6" fill="#F99132"/>
<path d="M26.5 78.156H27.858V65.164H26.5V78.156ZM22.23 70.176V71.45H23.784V77.89H25.114V65.36H23.784V70.176H22.23ZM21.572 67.404H22.594V66.116H16.462V67.404H17.498V74.768H16.364L16.434 76.056H18.002C19.654 76.056 21.558 75.916 23.07 75.678L22.944 74.432C22.496 74.488 22.034 74.544 21.572 74.586V67.404ZM20.326 74.698C19.766 74.726 19.234 74.754 18.744 74.754V67.404H20.326V74.698ZM40.9374 78.156V65.164H39.5374V78.156H40.9374ZM33.7554 76.462C35.6314 76.462 37.1854 75.23 37.1854 72.108V70.134C37.1854 67.012 35.6314 65.78 33.7554 65.78C31.8514 65.78 30.2974 67.012 30.2974 70.134V72.108C30.2974 75.23 31.8514 76.462 33.7554 76.462ZM33.7554 75.188C32.6074 75.188 31.6974 74.348 31.6974 72.094V70.148C31.6974 67.88 32.6074 67.054 33.7554 67.054C34.9034 67.054 35.7994 67.88 35.7994 70.148V72.094C35.7994 74.348 34.9034 75.188 33.7554 75.188ZM52.8268 70.176H50.1528V66.116H43.7128V76.056H50.1528V71.45H52.8268V78.156H54.2128V65.164H52.8268V70.176ZM45.1128 74.768V67.404H48.7668V74.768H45.1128ZM67.4882 78.156V65.164H66.1022V78.156H67.4882ZM59.4522 76.042C61.3142 76.042 63.2742 75.86 64.8562 75.58L64.6882 74.348C63.0222 74.614 61.1742 74.768 59.6902 74.768H58.6122V66.116H57.1982V76.042H59.4522Z" fill="#333333"/>
<path d="M77.6012 77.61C80.0232 77.61 81.7312 76.35 81.7312 74.292C81.7312 73.102 80.9472 72.052 79.5612 71.52C80.8352 71.002 81.4092 70.05 81.4092 68.944C81.4092 66.984 79.8132 65.85 77.6012 65.85C75.3892 65.85 73.8072 66.984 73.8072 68.944C73.8072 70.05 74.3812 71.002 75.6552 71.52C74.2552 72.052 73.4852 73.102 73.4852 74.292C73.4852 76.35 75.2072 77.61 77.6012 77.61ZM77.6012 70.946C76.0892 70.946 75.1932 70.162 75.1932 69.028C75.1932 67.894 76.0892 67.11 77.6012 67.11C79.1272 67.11 80.0232 67.894 80.0232 69.028C80.0232 70.162 79.1272 70.946 77.6012 70.946ZM77.6012 76.35C75.8932 76.35 74.8712 75.496 74.8712 74.25C74.8712 73.032 75.9352 72.15 77.6012 72.15C79.2812 72.15 80.3312 73.032 80.3312 74.25C80.3312 75.496 79.3232 76.35 77.6012 76.35ZM85.8001 72.024C87.1581 72.024 88.2921 71.086 88.2921 69.462V68.398C88.2921 66.802 87.1581 65.85 85.8001 65.85C84.4281 65.85 83.2941 66.802 83.2941 68.398V69.462C83.2941 71.086 84.4281 72.024 85.8001 72.024ZM86.3041 77.4L94.1301 66.06H92.5621L84.7361 77.4H86.3041ZM85.8001 70.848C85.0861 70.848 84.5401 70.33 84.5401 69.378V68.482C84.5401 67.544 85.0861 67.012 85.8001 67.012C86.5141 67.012 87.0461 67.544 87.0461 68.482V69.378C87.0461 70.33 86.5141 70.848 85.8001 70.848ZM92.9961 77.61C94.3541 77.61 95.4881 76.672 95.4881 75.048V73.984C95.4881 72.388 94.3541 71.436 92.9961 71.436C91.6241 71.436 90.4901 72.388 90.4901 73.984V75.048C90.4901 76.672 91.6241 77.61 92.9961 77.61ZM92.9961 76.448C92.2821 76.448 91.7361 75.916 91.7361 74.964V74.068C91.7361 73.13 92.2821 72.598 92.9961 72.598C93.7101 72.598 94.2421 73.13 94.2421 74.068V74.964C94.2421 75.916 93.7101 76.448 92.9961 76.448Z" fill="#999999"/>
<circle cx="6" cy="102" r="6" fill="#F9D932"/>
<path d="M23.336 103.13H27.452V101.87H25.422V97.306H27.452V96.032H17.82V97.306H19.85V101.87H17.82V103.13H21.95V105.902H16.532V107.19H28.74V105.902H23.336V103.13ZM24.064 97.306V101.87H21.208V97.306H24.064ZM40.9514 104.894V95.164H39.5514V104.894H40.9514ZM33.7974 102.766C35.7154 102.766 37.2694 101.632 37.2694 99.28V99.014C37.2694 96.634 35.7154 95.514 33.7974 95.514C31.8654 95.514 30.3114 96.634 30.3114 99.014V99.28C30.3114 101.632 31.8654 102.766 33.7974 102.766ZM33.7974 101.534C32.6214 101.534 31.7114 100.778 31.7114 99.252V99.028C31.7114 97.488 32.6214 96.746 33.7974 96.746C34.9594 96.746 35.8694 97.488 35.8694 99.028V99.252C35.8694 100.778 34.9594 101.534 33.7974 101.534ZM41.4974 108.156V106.882H33.7554V103.942H32.3554V108.156H41.4974ZM45.9808 102.36V100.414H53.8068V99.182H45.9808V97.306H53.8068V96.032H44.5808V103.606H54.0728V102.36H45.9808ZM43.0828 107.19H55.2908V105.902H43.0828V107.19Z" fill="#333333"/>
<path d="M64.3258 107.61C66.5938 107.61 68.4558 105.986 68.4558 102.822V100.624C68.4558 97.488 66.5938 95.85 64.3258 95.85C62.0578 95.85 60.2098 97.488 60.2098 100.624V102.822C60.2098 105.986 62.0578 107.61 64.3258 107.61ZM64.3258 106.35C62.7998 106.35 61.6098 105.202 61.6098 102.752V100.708C61.6098 98.258 62.7998 97.11 64.3258 97.11C65.8518 97.11 67.0418 98.258 67.0418 100.708V102.752C67.0418 105.202 65.8518 106.35 64.3258 106.35ZM71.1947 107.61C71.7267 107.61 72.1467 107.19 72.1467 106.658C72.1467 106.126 71.7267 105.692 71.1947 105.692C70.6627 105.692 70.2287 106.126 70.2287 106.658C70.2287 107.19 70.6627 107.61 71.1947 107.61ZM77.9264 100.148C77.0304 100.148 76.1764 100.498 75.6164 101.156L76.0504 97.348H81.1884V96.06H74.8464L74.1324 102.976H75.4204C75.8124 102.024 76.5544 101.436 77.6744 101.436C79.1864 101.436 80.2084 102.402 80.2084 103.886C80.2084 105.356 79.1864 106.322 77.6044 106.322C76.4704 106.322 75.4484 105.832 74.9864 104.768L73.7964 105.44C74.4404 106.896 76.0504 107.61 77.6744 107.61C80.0264 107.61 81.5944 106.098 81.5944 103.886C81.5944 101.674 80.0684 100.148 77.9264 100.148ZM85.6633 102.024C87.0213 102.024 88.1553 101.086 88.1553 99.462V98.398C88.1553 96.802 87.0213 95.85 85.6633 95.85C84.2913 95.85 83.1573 96.802 83.1573 98.398V99.462C83.1573 101.086 84.2913 102.024 85.6633 102.024ZM86.1673 107.4L93.9933 96.06H92.4253L84.5993 107.4H86.1673ZM85.6633 100.848C84.9493 100.848 84.4033 100.33 84.4033 99.378V98.482C84.4033 97.544 84.9493 97.012 85.6633 97.012C86.3773 97.012 86.9093 97.544 86.9093 98.482V99.378C86.9093 100.33 86.3773 100.848 85.6633 100.848ZM92.8593 107.61C94.2173 107.61 95.3513 106.672 95.3513 105.048V103.984C95.3513 102.388 94.2173 101.436 92.8593 101.436C91.4873 101.436 90.3533 102.388 90.3533 103.984V105.048C90.3533 106.672 91.4873 107.61 92.8593 107.61ZM92.8593 106.448C92.1453 106.448 91.5993 105.916 91.5993 104.964V104.068C91.5993 103.13 92.1453 102.598 92.8593 102.598C93.5733 102.598 94.1053 103.13 94.1053 104.068V104.964C94.1053 105.916 93.5733 106.448 92.8593 106.448Z" fill="#999999"/>
<circle cx="6" cy="140" r="6" fill="#D9D9D9"/>
<path d="M26.514 138.05H24.848V133.36H23.532V145.89H24.848V139.324H26.514V146.156H27.872V133.164H26.514V138.05ZM18.436 142.768V135.404H21.908V134.116H17.036V144.042H18.814C20.242 144.042 21.418 143.972 22.664 143.748L22.524 142.502C21.236 142.698 20.116 142.768 19.01 142.768H18.436ZM31.0954 138.484C33.2654 138.12 34.7214 137.644 35.5894 136.986L40.6434 138.484L41.0494 137.364L36.4014 136.006C36.5134 135.754 36.5834 135.474 36.5974 135.166H40.3914V134.004H36.6394V132.884H35.2954V134.004H31.4314V135.166H35.2954C35.1134 136.104 33.7274 136.86 30.7594 137.336L31.0954 138.484ZM42.0154 138.974H29.8074V140.08H35.2254V141.088H31.2354V142.166H39.1314V143.09H31.3054V146.226H40.8674V145.134H32.7054V144.154H40.5314V141.088H36.6114V140.08H42.0154V138.974Z" fill="#333333"/>
<circle cx="6" cy="170" r="6" fill="#A5A5A5"/>
<path d="M26.262 170.458H27.662V163.164H26.262V170.458ZM24.204 170.248L24.89 169.1L21.166 166.748C21.362 166.216 21.46 165.642 21.46 165.026H24.386V163.78H17.19V165.026H20.102C20.102 166.79 18.982 168.106 16.672 169.394L17.33 170.514C18.828 169.716 19.906 168.848 20.592 167.868L24.204 170.248ZM26.262 172.544V176.296H27.662V171.27H18.926V172.544H26.262ZM40.2094 163.164H38.8094V170.248H40.2094V167.154H42.2114V165.88H40.2094V163.164ZM36.8074 170.108L37.5074 168.974L33.9234 166.692C34.1054 166.174 34.2034 165.614 34.2034 165.026H37.0034V163.78H30.0594V165.026H32.8454C32.8454 166.734 31.7814 168.022 29.5554 169.268L30.2134 170.388C31.6554 169.618 32.6914 168.778 33.3494 167.826L36.8074 170.108ZM34.6794 170.934C32.8174 170.934 31.6134 172.054 31.6134 173.608C31.6134 175.176 32.8174 176.296 34.6794 176.296H37.4234C39.3134 176.296 40.5034 175.176 40.5034 173.608C40.5034 172.054 39.3134 170.934 37.4234 170.934H34.6794ZM34.9174 175.036C33.6434 175.036 32.9994 174.434 32.9994 173.608C32.9994 172.782 33.6434 172.18 34.9174 172.18H37.1994C38.4734 172.18 39.1174 172.782 39.1174 173.608C39.1174 174.434 38.4734 175.036 37.1994 175.036H34.9174ZM54.2268 172.894V163.164H52.8268V172.894H54.2268ZM47.0728 170.766C48.9908 170.766 50.5448 169.632 50.5448 167.28V167.014C50.5448 164.634 48.9908 163.514 47.0728 163.514C45.1408 163.514 43.5868 164.634 43.5868 167.014V167.28C43.5868 169.632 45.1408 170.766 47.0728 170.766ZM47.0728 169.534C45.8968 169.534 44.9868 168.778 44.9868 167.252V167.028C44.9868 165.488 45.8968 164.746 47.0728 164.746C48.2348 164.746 49.1448 165.488 49.1448 167.028V167.252C49.1448 168.778 48.2348 169.534 47.0728 169.534ZM54.7728 176.156V174.882H47.0308V171.942H45.6308V176.156H54.7728ZM69.5338 163.164V172.894H70.9198V163.164H69.5338ZM67.3918 170.724L68.1758 169.66L64.3958 166.832C64.6338 166.16 64.7458 165.432 64.7458 164.662V163.654H63.3738V164.662C63.3738 166.734 62.3098 168.372 59.9298 169.898L60.6998 170.99C62.1138 170.08 63.1358 169.128 63.8078 168.05L67.3918 170.724ZM63.7238 172.082H62.3378V176.156H71.4658V174.882H63.7238V172.082ZM81.9412 167.84C83.1312 167.504 83.8452 166.79 83.8452 165.67C83.8452 164.074 82.3892 163.304 80.1912 163.304H78.1472C75.9632 163.304 74.4932 164.074 74.4932 165.67C74.4932 166.79 75.2212 167.518 76.4112 167.84V169.268H73.0652V170.472H85.2732V169.268H81.9412V167.84ZM75.8932 165.684C75.8932 164.886 76.7892 164.48 78.3992 164.48H79.9532C81.5632 164.48 82.4592 164.886 82.4592 165.684C82.4592 166.454 81.5632 166.888 79.9532 166.888H78.3992C76.7892 166.888 75.8932 166.468 75.8932 165.684ZM77.7412 168.036C78.6932 168.05 79.6592 168.05 80.6112 168.036V169.268H77.7412V168.036ZM77.6852 171.578C75.5852 171.578 74.4232 172.572 74.4232 173.93C74.4232 175.302 75.5852 176.296 77.6852 176.296H80.6532C82.7532 176.296 83.9152 175.302 83.9152 173.93C83.9152 172.572 82.7532 171.578 80.6532 171.578H77.6852ZM77.9652 175.078C76.4952 175.078 75.8232 174.63 75.8232 173.916C75.8232 173.23 76.4952 172.782 77.9652 172.782H80.3872C81.8572 172.782 82.5292 173.23 82.5292 173.916C82.5292 174.63 81.8572 175.078 80.3872 175.078H77.9652ZM96.3226 168.05H94.6566V163.36H93.3406V175.89H94.6566V169.324H96.3226V176.156H97.6806V163.164H96.3226V168.05ZM88.2446 172.768V165.404H91.7166V164.116H86.8446V174.042H88.6226C90.0506 174.042 91.2266 173.972 92.4726 173.748L92.3326 172.502C91.0446 172.698 89.9246 172.768 88.8186 172.768H88.2446ZM100.904 168.484C103.074 168.12 104.53 167.644 105.398 166.986L110.452 168.484L110.858 167.364L106.21 166.006C106.322 165.754 106.392 165.474 106.406 165.166H110.2V164.004H106.448V162.884H105.104V164.004H101.24V165.166H105.104C104.922 166.104 103.536 166.86 100.568 167.336L100.904 168.484ZM111.824 168.974H99.616V170.08H105.034V171.088H101.044V172.166H108.94V173.09H101.114V176.226H110.676V175.134H102.514V174.154H110.34V171.088H106.42V170.08H111.824V168.974Z" fill="#333333"/>
</svg>
