<svg width="79" height="24" viewBox="0 0 79 24" fill="none" xmlns="http://www.w3.org/2000/svg">
<circle cx="6" cy="12" r="6" fill="#3299F9"/>
<path d="M19.43 10.96V9.504H27.256V8.356H19.43V6.97H27.256V5.78H18.03V12.122H27.522V10.96H19.43ZM16.532 13.536V14.768H21.95V18.31H23.336V14.768H28.74V13.536H16.532ZM40.2094 10.05V5.164H38.8094V18.156H40.2094V11.324H42.2114V10.05H40.2094ZM34.1894 7.46H37.0034V6.186H30.0594V7.46H32.8314V8.02C32.8314 11.016 31.6694 13.186 29.5554 15.468L30.5494 16.392C31.7814 15.076 32.7054 13.76 33.3074 12.346L36.4714 16.252L37.5214 15.342L33.8394 10.82C34.0774 9.924 34.1894 9 34.1894 8.02V7.46Z" fill="#333333"/>
<path d="M46.5844 6.06V7.334H52.7164L47.2844 17.61H48.8664L54.2984 7.334V6.06H46.5844ZM55.5565 14.782C56.0745 16.322 57.3765 17.61 59.6725 17.61C62.0385 17.61 63.6765 16.308 63.6765 14.362C63.6765 12.934 62.7665 11.926 61.5485 11.548C62.5845 11.156 63.3965 10.288 63.3965 8.902C63.3965 6.998 61.8145 5.85 59.6445 5.85C57.5725 5.85 56.3965 7.096 55.8785 8.468L57.1385 8.944C57.5165 8.006 58.2165 7.11 59.6445 7.11C61.0865 7.11 62.0245 7.81 62.0245 8.972C62.0245 10.12 61.1425 10.946 59.4625 10.946H58.0345V12.164H59.4625C61.3525 12.164 62.2905 13.116 62.2905 14.306C62.2905 15.496 61.3105 16.35 59.6725 16.35C58.0205 16.35 57.2085 15.398 56.8025 14.334L55.5565 14.782ZM67.7532 12.024C69.1112 12.024 70.2452 11.086 70.2452 9.462V8.398C70.2452 6.802 69.1112 5.85 67.7532 5.85C66.3812 5.85 65.2472 6.802 65.2472 8.398V9.462C65.2472 11.086 66.3812 12.024 67.7532 12.024ZM68.2572 17.4L76.0832 6.06H74.5152L66.6892 17.4H68.2572ZM67.7532 10.848C67.0392 10.848 66.4932 10.33 66.4932 9.378V8.482C66.4932 7.544 67.0392 7.012 67.7532 7.012C68.4672 7.012 68.9992 7.544 68.9992 8.482V9.378C68.9992 10.33 68.4672 10.848 67.7532 10.848ZM74.9492 17.61C76.3072 17.61 77.4412 16.672 77.4412 15.048V13.984C77.4412 12.388 76.3072 11.436 74.9492 11.436C73.5772 11.436 72.4432 12.388 72.4432 13.984V15.048C72.4432 16.672 73.5772 17.61 74.9492 17.61ZM74.9492 16.448C74.2352 16.448 73.6892 15.916 73.6892 14.964V14.068C73.6892 13.13 74.2352 12.598 74.9492 12.598C75.6632 12.598 76.1952 13.13 76.1952 14.068V14.964C76.1952 15.916 75.6632 16.448 74.9492 16.448Z" fill="#999999"/>
</svg>
