<svg width="66" height="15" viewBox="0 0 66 15" fill="none" xmlns="http://www.w3.org/2000/svg">
<path d="M8.596 12.4V11.112H2.94L6.146 7.934C7.504 6.59 8.33 5.47 8.33 3.93C8.33 2.026 6.874 0.85 4.69 0.85C2.562 0.85 1.33 2.39 0.868 4.056L2.198 4.378C2.576 3.132 3.29 2.11 4.69 2.11C6.132 2.11 6.944 2.852 6.944 3.986C6.944 5.036 6.356 5.918 5.082 7.178L0.924 11.308V12.4H8.596ZM14.611 12.61C16.879 12.61 18.741 10.986 18.741 7.822V5.624C18.741 2.488 16.879 0.85 14.611 0.85C12.343 0.85 10.495 2.488 10.495 5.624V7.822C10.495 10.986 12.343 12.61 14.611 12.61ZM14.611 11.35C13.085 11.35 11.895 10.202 11.895 7.752V5.708C11.895 3.258 13.085 2.11 14.611 2.11C16.137 2.11 17.327 3.258 17.327 5.708V7.752C17.327 10.202 16.137 11.35 14.611 11.35ZM21.6618 14.836L22.2358 10.79H20.8218L20.5138 14.836H21.6618ZM28.2828 12.61C30.5508 12.61 32.4128 10.986 32.4128 7.822V5.624C32.4128 2.488 30.5508 0.85 28.2828 0.85C26.0148 0.85 24.1668 2.488 24.1668 5.624V7.822C24.1668 10.986 26.0148 12.61 28.2828 12.61ZM28.2828 11.35C26.7568 11.35 25.5668 10.202 25.5668 7.752V5.708C25.5668 3.258 26.7568 2.11 28.2828 2.11C29.8088 2.11 30.9988 3.258 30.9988 5.708V7.752C30.9988 10.202 29.8088 11.35 28.2828 11.35ZM38.4137 12.61C40.6817 12.61 42.5437 10.986 42.5437 7.822V5.624C42.5437 2.488 40.6817 0.85 38.4137 0.85C36.1457 0.85 34.2977 2.488 34.2977 5.624V7.822C34.2977 10.986 36.1457 12.61 38.4137 12.61ZM38.4137 11.35C36.8877 11.35 35.6977 10.202 35.6977 7.752V5.708C35.6977 3.258 36.8877 2.11 38.4137 2.11C39.9397 2.11 41.1297 3.258 41.1297 5.708V7.752C41.1297 10.202 39.9397 11.35 38.4137 11.35ZM48.5446 12.61C50.8126 12.61 52.6746 10.986 52.6746 7.822V5.624C52.6746 2.488 50.8126 0.85 48.5446 0.85C46.2766 0.85 44.4286 2.488 44.4286 5.624V7.822C44.4286 10.986 46.2766 12.61 48.5446 12.61ZM48.5446 11.35C47.0186 11.35 45.8286 10.202 45.8286 7.752V5.708C45.8286 3.258 47.0186 2.11 48.5446 2.11C50.0706 2.11 51.2606 3.258 51.2606 5.708V7.752C51.2606 10.202 50.0706 11.35 48.5446 11.35ZM60.2574 9.404H63.8834V10.51H65.2694V0.163999H63.8834V8.34H60.2574V9.404ZM58.4094 5.386C60.3694 5.386 61.8954 4.574 61.8954 3.006V2.838C61.8954 1.256 60.3694 0.444 58.4094 0.444C56.4354 0.444 54.9094 1.256 54.9094 2.838V3.006C54.9094 4.574 56.4354 5.386 58.4094 5.386ZM56.2394 2.866C56.2394 2.04 57.1494 1.592 58.4094 1.592C59.6554 1.592 60.5654 2.04 60.5654 2.866V2.978C60.5654 3.79 59.6554 4.238 58.4094 4.238C57.1494 4.238 56.2394 3.79 56.2394 2.978V2.866ZM58.7314 9.698C58.8154 8.956 58.8714 8.214 58.9134 7.528C60.2854 7.458 61.7134 7.332 62.9454 7.164L62.8054 6.016C60.7474 6.268 58.2274 6.422 56.6174 6.422H54.2794L54.3354 7.598H56.5054C56.8414 7.598 57.1914 7.598 57.5694 7.584C57.5134 8.228 57.4574 8.928 57.3874 9.6L58.7314 9.698ZM57.9334 10.16H56.5474V13.156H65.8154V11.882H57.9334V10.16Z" fill="black"/>
</svg>
