<svg width="97" height="24" viewBox="0 0 97 24" fill="none" xmlns="http://www.w3.org/2000/svg">
<circle cx="6" cy="12" r="6" fill="#F99132"/>
<path d="M26.5 18.156H27.858V5.164H26.5V18.156ZM22.23 10.176V11.45H23.784V17.89H25.114V5.36H23.784V10.176H22.23ZM21.572 7.404H22.594V6.116H16.462V7.404H17.498V14.768H16.364L16.434 16.056H18.002C19.654 16.056 21.558 15.916 23.07 15.678L22.944 14.432C22.496 14.488 22.034 14.544 21.572 14.586V7.404ZM20.326 14.698C19.766 14.726 19.234 14.754 18.744 14.754V7.404H20.326V14.698ZM40.9374 18.156V5.164H39.5374V18.156H40.9374ZM33.7554 16.462C35.6314 16.462 37.1854 15.23 37.1854 12.108V10.134C37.1854 7.012 35.6314 5.78 33.7554 5.78C31.8514 5.78 30.2974 7.012 30.2974 10.134V12.108C30.2974 15.23 31.8514 16.462 33.7554 16.462ZM33.7554 15.188C32.6074 15.188 31.6974 14.348 31.6974 12.094V10.148C31.6974 7.88 32.6074 7.054 33.7554 7.054C34.9034 7.054 35.7994 7.88 35.7994 10.148V12.094C35.7994 14.348 34.9034 15.188 33.7554 15.188ZM52.8268 10.176H50.1528V6.116H43.7128V16.056H50.1528V11.45H52.8268V18.156H54.2128V5.164H52.8268V10.176ZM45.1128 14.768V7.404H48.7668V14.768H45.1128ZM67.4882 18.156V5.164H66.1022V18.156H67.4882ZM59.4522 16.042C61.3142 16.042 63.2742 15.86 64.8562 15.58L64.6882 14.348C63.0222 14.614 61.1742 14.768 59.6902 14.768H58.6122V6.116H57.1982V16.042H59.4522Z" fill="#333333"/>
<path d="M77.6012 17.61C80.0232 17.61 81.7312 16.35 81.7312 14.292C81.7312 13.102 80.9472 12.052 79.5612 11.52C80.8352 11.002 81.4092 10.05 81.4092 8.944C81.4092 6.984 79.8132 5.85 77.6012 5.85C75.3892 5.85 73.8072 6.984 73.8072 8.944C73.8072 10.05 74.3812 11.002 75.6552 11.52C74.2552 12.052 73.4852 13.102 73.4852 14.292C73.4852 16.35 75.2072 17.61 77.6012 17.61ZM77.6012 10.946C76.0892 10.946 75.1932 10.162 75.1932 9.028C75.1932 7.894 76.0892 7.11 77.6012 7.11C79.1272 7.11 80.0232 7.894 80.0232 9.028C80.0232 10.162 79.1272 10.946 77.6012 10.946ZM77.6012 16.35C75.8932 16.35 74.8712 15.496 74.8712 14.25C74.8712 13.032 75.9352 12.15 77.6012 12.15C79.2812 12.15 80.3312 13.032 80.3312 14.25C80.3312 15.496 79.3232 16.35 77.6012 16.35ZM85.8001 12.024C87.1581 12.024 88.2921 11.086 88.2921 9.462V8.398C88.2921 6.802 87.1581 5.85 85.8001 5.85C84.4281 5.85 83.2941 6.802 83.2941 8.398V9.462C83.2941 11.086 84.4281 12.024 85.8001 12.024ZM86.3041 17.4L94.1301 6.06H92.5621L84.7361 17.4H86.3041ZM85.8001 10.848C85.0861 10.848 84.5401 10.33 84.5401 9.378V8.482C84.5401 7.544 85.0861 7.012 85.8001 7.012C86.5141 7.012 87.0461 7.544 87.0461 8.482V9.378C87.0461 10.33 86.5141 10.848 85.8001 10.848ZM92.9961 17.61C94.3541 17.61 95.4881 16.672 95.4881 15.048V13.984C95.4881 12.388 94.3541 11.436 92.9961 11.436C91.6241 11.436 90.4901 12.388 90.4901 13.984V15.048C90.4901 16.672 91.6241 17.61 92.9961 17.61ZM92.9961 16.448C92.2821 16.448 91.7361 15.916 91.7361 14.964V14.068C91.7361 13.13 92.2821 12.598 92.9961 12.598C93.7101 12.598 94.2421 13.13 94.2421 14.068V14.964C94.2421 15.916 93.7101 16.448 92.9961 16.448Z" fill="#999999"/>
</svg>
