<svg width="96" height="24" viewBox="0 0 96 24" fill="none" xmlns="http://www.w3.org/2000/svg">
<circle cx="6" cy="12" r="6" fill="#F9D932"/>
<path d="M23.336 13.13H27.452V11.87H25.422V7.306H27.452V6.032H17.82V7.306H19.85V11.87H17.82V13.13H21.95V15.902H16.532V17.19H28.74V15.902H23.336V13.13ZM24.064 7.306V11.87H21.208V7.306H24.064ZM40.9514 14.894V5.164H39.5514V14.894H40.9514ZM33.7974 12.766C35.7154 12.766 37.2694 11.632 37.2694 9.28V9.014C37.2694 6.634 35.7154 5.514 33.7974 5.514C31.8654 5.514 30.3114 6.634 30.3114 9.014V9.28C30.3114 11.632 31.8654 12.766 33.7974 12.766ZM33.7974 11.534C32.6214 11.534 31.7114 10.778 31.7114 9.252V9.028C31.7114 7.488 32.6214 6.746 33.7974 6.746C34.9594 6.746 35.8694 7.488 35.8694 9.028V9.252C35.8694 10.778 34.9594 11.534 33.7974 11.534ZM41.4974 18.156V16.882H33.7554V13.942H32.3554V18.156H41.4974ZM45.9808 12.36V10.414H53.8068V9.182H45.9808V7.306H53.8068V6.032H44.5808V13.606H54.0728V12.36H45.9808ZM43.0828 17.19H55.2908V15.902H43.0828V17.19Z" fill="#333333"/>
<path d="M64.3258 17.61C66.5938 17.61 68.4558 15.986 68.4558 12.822V10.624C68.4558 7.488 66.5938 5.85 64.3258 5.85C62.0578 5.85 60.2098 7.488 60.2098 10.624V12.822C60.2098 15.986 62.0578 17.61 64.3258 17.61ZM64.3258 16.35C62.7998 16.35 61.6098 15.202 61.6098 12.752V10.708C61.6098 8.258 62.7998 7.11 64.3258 7.11C65.8518 7.11 67.0418 8.258 67.0418 10.708V12.752C67.0418 15.202 65.8518 16.35 64.3258 16.35ZM71.1947 17.61C71.7267 17.61 72.1467 17.19 72.1467 16.658C72.1467 16.126 71.7267 15.692 71.1947 15.692C70.6627 15.692 70.2287 16.126 70.2287 16.658C70.2287 17.19 70.6627 17.61 71.1947 17.61ZM77.9264 10.148C77.0304 10.148 76.1764 10.498 75.6164 11.156L76.0504 7.348H81.1884V6.06H74.8464L74.1324 12.976H75.4204C75.8124 12.024 76.5544 11.436 77.6744 11.436C79.1864 11.436 80.2084 12.402 80.2084 13.886C80.2084 15.356 79.1864 16.322 77.6044 16.322C76.4704 16.322 75.4484 15.832 74.9864 14.768L73.7964 15.44C74.4404 16.896 76.0504 17.61 77.6744 17.61C80.0264 17.61 81.5944 16.098 81.5944 13.886C81.5944 11.674 80.0684 10.148 77.9264 10.148ZM85.6633 12.024C87.0213 12.024 88.1553 11.086 88.1553 9.462V8.398C88.1553 6.802 87.0213 5.85 85.6633 5.85C84.2913 5.85 83.1573 6.802 83.1573 8.398V9.462C83.1573 11.086 84.2913 12.024 85.6633 12.024ZM86.1673 17.4L93.9933 6.06H92.4253L84.5993 17.4H86.1673ZM85.6633 10.848C84.9493 10.848 84.4033 10.33 84.4033 9.378V8.482C84.4033 7.544 84.9493 7.012 85.6633 7.012C86.3773 7.012 86.9093 7.544 86.9093 8.482V9.378C86.9093 10.33 86.3773 10.848 85.6633 10.848ZM92.8593 17.61C94.2173 17.61 95.3513 16.672 95.3513 15.048V13.984C95.3513 12.388 94.2173 11.436 92.8593 11.436C91.4873 11.436 90.3533 12.388 90.3533 13.984V15.048C90.3533 16.672 91.4873 17.61 92.8593 17.61ZM92.8593 16.448C92.1453 16.448 91.5993 15.916 91.5993 14.964V14.068C91.5993 13.13 92.1453 12.598 92.8593 12.598C93.5733 12.598 94.1053 13.13 94.1053 14.068V14.964C94.1053 15.916 93.5733 16.448 92.8593 16.448Z" fill="#999999"/>
</svg>
