<svg width="101" height="182" viewBox="0 0 101 182" fill="none" xmlns="http://www.w3.org/2000/svg">
<path d="M10.742 14.782C11.26 16.322 12.562 17.61 14.858 17.61C17.224 17.61 18.862 16.308 18.862 14.362C18.862 12.934 17.952 11.926 16.734 11.548C17.77 11.156 18.582 10.288 18.582 8.902C18.582 6.998 17 5.85 14.83 5.85C12.758 5.85 11.582 7.096 11.064 8.468L12.324 8.944C12.702 8.006 13.402 7.11 14.83 7.11C16.272 7.11 17.21 7.81 17.21 8.972C17.21 10.12 16.328 10.946 14.648 10.946H13.22V12.164H14.648C16.538 12.164 17.476 13.116 17.476 14.306C17.476 15.496 16.496 16.35 14.858 16.35C13.206 16.35 12.394 15.398 11.988 14.334L10.742 14.782ZM21.7907 19.836L22.3647 15.79H20.9507L20.6427 19.836H21.7907ZM31.0998 13.872V6.06H29.2238L24.0158 14.012V15.16H29.7138V17.61H31.0998V15.16H32.8498V13.872H31.0998ZM29.7138 7.656V13.872H25.6958L29.7138 7.656ZM38.4332 17.61C40.7012 17.61 42.5632 15.986 42.5632 12.822V10.624C42.5632 7.488 40.7012 5.85 38.4332 5.85C36.1652 5.85 34.3172 7.488 34.3172 10.624V12.822C34.3172 15.986 36.1652 17.61 38.4332 17.61ZM38.4332 16.35C36.9072 16.35 35.7172 15.202 35.7172 12.752V10.708C35.7172 8.258 36.9072 7.11 38.4332 7.11C39.9592 7.11 41.1492 8.258 41.1492 10.708V12.752C41.1492 15.202 39.9592 16.35 38.4332 16.35ZM48.5641 17.61C50.8321 17.61 52.6941 15.986 52.6941 12.822V10.624C52.6941 7.488 50.8321 5.85 48.5641 5.85C46.2961 5.85 44.4481 7.488 44.4481 10.624V12.822C44.4481 15.986 46.2961 17.61 48.5641 17.61ZM48.5641 16.35C47.0381 16.35 45.8481 15.202 45.8481 12.752V10.708C45.8481 8.258 47.0381 7.11 48.5641 7.11C50.0901 7.11 51.2801 8.258 51.2801 10.708V12.752C51.2801 15.202 50.0901 16.35 48.5641 16.35ZM55.615 19.836L56.189 15.79H54.775L54.467 19.836H55.615ZM62.236 17.61C64.504 17.61 66.366 15.986 66.366 12.822V10.624C66.366 7.488 64.504 5.85 62.236 5.85C59.968 5.85 58.12 7.488 58.12 10.624V12.822C58.12 15.986 59.968 17.61 62.236 17.61ZM62.236 16.35C60.71 16.35 59.52 15.202 59.52 12.752V10.708C59.52 8.258 60.71 7.11 62.236 7.11C63.762 7.11 64.952 8.258 64.952 10.708V12.752C64.952 15.202 63.762 16.35 62.236 16.35ZM72.3668 17.61C74.6348 17.61 76.4968 15.986 76.4968 12.822V10.624C76.4968 7.488 74.6348 5.85 72.3668 5.85C70.0988 5.85 68.2508 7.488 68.2508 10.624V12.822C68.2508 15.986 70.0988 17.61 72.3668 17.61ZM72.3668 16.35C70.8408 16.35 69.6508 15.202 69.6508 12.752V10.708C69.6508 8.258 70.8408 7.11 72.3668 7.11C73.8928 7.11 75.0828 8.258 75.0828 10.708V12.752C75.0828 15.202 73.8928 16.35 72.3668 16.35ZM82.4977 17.61C84.7657 17.61 86.6277 15.986 86.6277 12.822V10.624C86.6277 7.488 84.7657 5.85 82.4977 5.85C80.2297 5.85 78.3817 7.488 78.3817 10.624V12.822C78.3817 15.986 80.2297 17.61 82.4977 17.61ZM82.4977 16.35C80.9717 16.35 79.7817 15.202 79.7817 12.752V10.708C79.7817 8.258 80.9717 7.11 82.4977 7.11C84.0237 7.11 85.2137 8.258 85.2137 10.708V12.752C85.2137 15.202 84.0237 16.35 82.4977 16.35ZM94.2105 14.404H97.8365V15.51H99.2225V5.164H97.8365V13.34H94.2105V14.404ZM92.3625 10.386C94.3225 10.386 95.8485 9.574 95.8485 8.006V7.838C95.8485 6.256 94.3225 5.444 92.3625 5.444C90.3885 5.444 88.8625 6.256 88.8625 7.838V8.006C88.8625 9.574 90.3885 10.386 92.3625 10.386ZM90.1925 7.866C90.1925 7.04 91.1025 6.592 92.3625 6.592C93.6085 6.592 94.5185 7.04 94.5185 7.866V7.978C94.5185 8.79 93.6085 9.238 92.3625 9.238C91.1025 9.238 90.1925 8.79 90.1925 7.978V7.866ZM92.6845 14.698C92.7685 13.956 92.8245 13.214 92.8665 12.528C94.2385 12.458 95.6665 12.332 96.8985 12.164L96.7585 11.016C94.7005 11.268 92.1805 11.422 90.5705 11.422H88.2325L88.2885 12.598H90.4585C90.7945 12.598 91.1445 12.598 91.5225 12.584C91.4665 13.228 91.4105 13.928 91.3405 14.6L92.6845 14.698ZM91.8865 15.16H90.5005V18.156H99.7685V16.882H91.8865V15.16Z" fill="black"/>
<path d="M7.756 43.872V36.06H5.88L0.672 44.012V45.16H6.37V47.61H7.756V45.16H9.506V43.872H7.756ZM6.37 37.656V43.872H2.352L6.37 37.656ZM10.7635 44.782C11.2815 46.322 12.5835 47.61 14.8795 47.61C17.2455 47.61 18.8835 46.308 18.8835 44.362C18.8835 42.934 17.9735 41.926 16.7555 41.548C17.7915 41.156 18.6035 40.288 18.6035 38.902C18.6035 36.998 17.0215 35.85 14.8515 35.85C12.7795 35.85 11.6035 37.096 11.0855 38.468L12.3455 38.944C12.7235 38.006 13.4235 37.11 14.8515 37.11C16.2935 37.11 17.2315 37.81 17.2315 38.972C17.2315 40.12 16.3495 40.946 14.6695 40.946H13.2415V42.164H14.6695C16.5595 42.164 17.4975 43.116 17.4975 44.306C17.4975 45.496 16.5175 46.35 14.8795 46.35C13.2275 46.35 12.4155 45.398 12.0095 44.334L10.7635 44.782ZM21.8122 49.836L22.3862 45.79H20.9722L20.6642 49.836H21.8122ZM28.4332 47.61C30.7012 47.61 32.5632 45.986 32.5632 42.822V40.624C32.5632 37.488 30.7012 35.85 28.4332 35.85C26.1652 35.85 24.3172 37.488 24.3172 40.624V42.822C24.3172 45.986 26.1652 47.61 28.4332 47.61ZM28.4332 46.35C26.9072 46.35 25.7172 45.202 25.7172 42.752V40.708C25.7172 38.258 26.9072 37.11 28.4332 37.11C29.9592 37.11 31.1492 38.258 31.1492 40.708V42.752C31.1492 45.202 29.9592 46.35 28.4332 46.35ZM38.5641 47.61C40.8321 47.61 42.6941 45.986 42.6941 42.822V40.624C42.6941 37.488 40.8321 35.85 38.5641 35.85C36.2961 35.85 34.4481 37.488 34.4481 40.624V42.822C34.4481 45.986 36.2961 47.61 38.5641 47.61ZM38.5641 46.35C37.0381 46.35 35.8481 45.202 35.8481 42.752V40.708C35.8481 38.258 37.0381 37.11 38.5641 37.11C40.0901 37.11 41.2801 38.258 41.2801 40.708V42.752C41.2801 45.202 40.0901 46.35 38.5641 46.35ZM48.695 47.61C50.963 47.61 52.825 45.986 52.825 42.822V40.624C52.825 37.488 50.963 35.85 48.695 35.85C46.427 35.85 44.579 37.488 44.579 40.624V42.822C44.579 45.986 46.427 47.61 48.695 47.61ZM48.695 46.35C47.169 46.35 45.979 45.202 45.979 42.752V40.708C45.979 38.258 47.169 37.11 48.695 37.11C50.221 37.11 51.411 38.258 51.411 40.708V42.752C51.411 45.202 50.221 46.35 48.695 46.35ZM55.7458 49.836L56.3198 45.79H54.9058L54.5978 49.836H55.7458ZM62.3668 47.61C64.6348 47.61 66.4968 45.986 66.4968 42.822V40.624C66.4968 37.488 64.6348 35.85 62.3668 35.85C60.0988 35.85 58.2508 37.488 58.2508 40.624V42.822C58.2508 45.986 60.0988 47.61 62.3668 47.61ZM62.3668 46.35C60.8408 46.35 59.6508 45.202 59.6508 42.752V40.708C59.6508 38.258 60.8408 37.11 62.3668 37.11C63.8928 37.11 65.0828 38.258 65.0828 40.708V42.752C65.0828 45.202 63.8928 46.35 62.3668 46.35ZM72.4977 47.61C74.7657 47.61 76.6277 45.986 76.6277 42.822V40.624C76.6277 37.488 74.7657 35.85 72.4977 35.85C70.2297 35.85 68.3817 37.488 68.3817 40.624V42.822C68.3817 45.986 70.2297 47.61 72.4977 47.61ZM72.4977 46.35C70.9717 46.35 69.7817 45.202 69.7817 42.752V40.708C69.7817 38.258 70.9717 37.11 72.4977 37.11C74.0237 37.11 75.2137 38.258 75.2137 40.708V42.752C75.2137 45.202 74.0237 46.35 72.4977 46.35ZM82.6285 47.61C84.8965 47.61 86.7585 45.986 86.7585 42.822V40.624C86.7585 37.488 84.8965 35.85 82.6285 35.85C80.3605 35.85 78.5125 37.488 78.5125 40.624V42.822C78.5125 45.986 80.3605 47.61 82.6285 47.61ZM82.6285 46.35C81.1025 46.35 79.9125 45.202 79.9125 42.752V40.708C79.9125 38.258 81.1025 37.11 82.6285 37.11C84.1545 37.11 85.3445 38.258 85.3445 40.708V42.752C85.3445 45.202 84.1545 46.35 82.6285 46.35ZM94.3414 44.404H97.9674V45.51H99.3534V35.164H97.9674V43.34H94.3414V44.404ZM92.4934 40.386C94.4534 40.386 95.9794 39.574 95.9794 38.006V37.838C95.9794 36.256 94.4534 35.444 92.4934 35.444C90.5194 35.444 88.9934 36.256 88.9934 37.838V38.006C88.9934 39.574 90.5194 40.386 92.4934 40.386ZM90.3234 37.866C90.3234 37.04 91.2334 36.592 92.4934 36.592C93.7394 36.592 94.6494 37.04 94.6494 37.866V37.978C94.6494 38.79 93.7394 39.238 92.4934 39.238C91.2334 39.238 90.3234 38.79 90.3234 37.978V37.866ZM92.8154 44.698C92.8994 43.956 92.9554 43.214 92.9974 42.528C94.3694 42.458 95.7974 42.332 97.0294 42.164L96.8894 41.016C94.8314 41.268 92.3114 41.422 90.7014 41.422H88.3634L88.4194 42.598H90.5894C90.9254 42.598 91.2754 42.598 91.6534 42.584C91.5974 43.228 91.5414 43.928 91.4714 44.6L92.8154 44.698ZM92.0174 45.16H90.6314V48.156H99.8994V46.882H92.0174V45.16Z" fill="black"/>
<path d="M17.756 73.872V66.06H15.88L10.672 74.012V75.16H16.37V77.61H17.756V75.16H19.506V73.872H17.756ZM16.37 67.656V73.872H12.352L16.37 67.656ZM22.0095 79.836L22.5835 75.79H21.1695L20.8615 79.836H22.0095ZM32.1585 77.4V76.112H26.5025L29.7085 72.934C31.0665 71.59 31.8925 70.47 31.8925 68.93C31.8925 67.026 30.4365 65.85 28.2525 65.85C26.1245 65.85 24.8925 67.39 24.4305 69.056L25.7605 69.378C26.1385 68.132 26.8525 67.11 28.2525 67.11C29.6945 67.11 30.5065 67.852 30.5065 68.986C30.5065 70.036 29.9185 70.918 28.6445 72.178L24.4865 76.308V77.4H32.1585ZM38.1735 77.61C40.4415 77.61 42.3035 75.986 42.3035 72.822V70.624C42.3035 67.488 40.4415 65.85 38.1735 65.85C35.9055 65.85 34.0575 67.488 34.0575 70.624V72.822C34.0575 75.986 35.9055 77.61 38.1735 77.61ZM38.1735 76.35C36.6475 76.35 35.4575 75.202 35.4575 72.752V70.708C35.4575 68.258 36.6475 67.11 38.1735 67.11C39.6995 67.11 40.8895 68.258 40.8895 70.708V72.752C40.8895 75.202 39.6995 76.35 38.1735 76.35ZM48.3043 77.61C50.5723 77.61 52.4343 75.986 52.4343 72.822V70.624C52.4343 67.488 50.5723 65.85 48.3043 65.85C46.0363 65.85 44.1883 67.488 44.1883 70.624V72.822C44.1883 75.986 46.0363 77.61 48.3043 77.61ZM48.3043 76.35C46.7783 76.35 45.5883 75.202 45.5883 72.752V70.708C45.5883 68.258 46.7783 67.11 48.3043 67.11C49.8303 67.11 51.0203 68.258 51.0203 70.708V72.752C51.0203 75.202 49.8303 76.35 48.3043 76.35ZM55.3552 79.836L55.9292 75.79H54.5152L54.2072 79.836H55.3552ZM61.9762 77.61C64.2442 77.61 66.1062 75.986 66.1062 72.822V70.624C66.1062 67.488 64.2442 65.85 61.9762 65.85C59.7082 65.85 57.8602 67.488 57.8602 70.624V72.822C57.8602 75.986 59.7082 77.61 61.9762 77.61ZM61.9762 76.35C60.4502 76.35 59.2602 75.202 59.2602 72.752V70.708C59.2602 68.258 60.4502 67.11 61.9762 67.11C63.5022 67.11 64.6922 68.258 64.6922 70.708V72.752C64.6922 75.202 63.5022 76.35 61.9762 76.35ZM72.1071 77.61C74.3751 77.61 76.2371 75.986 76.2371 72.822V70.624C76.2371 67.488 74.3751 65.85 72.1071 65.85C69.8391 65.85 67.9911 67.488 67.9911 70.624V72.822C67.9911 75.986 69.8391 77.61 72.1071 77.61ZM72.1071 76.35C70.5811 76.35 69.3911 75.202 69.3911 72.752V70.708C69.3911 68.258 70.5811 67.11 72.1071 67.11C73.6331 67.11 74.8231 68.258 74.8231 70.708V72.752C74.8231 75.202 73.6331 76.35 72.1071 76.35ZM82.2379 77.61C84.5059 77.61 86.3679 75.986 86.3679 72.822V70.624C86.3679 67.488 84.5059 65.85 82.2379 65.85C79.9699 65.85 78.1219 67.488 78.1219 70.624V72.822C78.1219 75.986 79.9699 77.61 82.2379 77.61ZM82.2379 76.35C80.7119 76.35 79.5219 75.202 79.5219 72.752V70.708C79.5219 68.258 80.7119 67.11 82.2379 67.11C83.7639 67.11 84.9539 68.258 84.9539 70.708V72.752C84.9539 75.202 83.7639 76.35 82.2379 76.35ZM93.9508 74.404H97.5768V75.51H98.9628V65.164H97.5768V73.34H93.9508V74.404ZM92.1028 70.386C94.0628 70.386 95.5888 69.574 95.5888 68.006V67.838C95.5888 66.256 94.0628 65.444 92.1028 65.444C90.1288 65.444 88.6028 66.256 88.6028 67.838V68.006C88.6028 69.574 90.1288 70.386 92.1028 70.386ZM89.9328 67.866C89.9328 67.04 90.8428 66.592 92.1028 66.592C93.3488 66.592 94.2588 67.04 94.2588 67.866V67.978C94.2588 68.79 93.3488 69.238 92.1028 69.238C90.8428 69.238 89.9328 68.79 89.9328 67.978V67.866ZM92.4248 74.698C92.5088 73.956 92.5648 73.214 92.6068 72.528C93.9788 72.458 95.4068 72.332 96.6388 72.164L96.4988 71.016C94.4408 71.268 91.9208 71.422 90.3108 71.422H87.9728L88.0288 72.598H90.1988C90.5348 72.598 90.8848 72.598 91.2628 72.584C91.2068 73.228 91.1508 73.928 91.0808 74.6L92.4248 74.698ZM91.6268 75.16H90.2408V78.156H99.5088V76.882H91.6268V75.16Z" fill="black"/>
<path d="M42.596 107.4V106.112H36.94L40.146 102.934C41.504 101.59 42.33 100.47 42.33 98.93C42.33 97.026 40.874 95.85 38.69 95.85C36.562 95.85 35.33 97.39 34.868 99.056L36.198 99.378C36.576 98.132 37.29 97.11 38.69 97.11C40.132 97.11 40.944 97.852 40.944 98.986C40.944 100.036 40.356 100.918 39.082 102.178L34.924 106.308V107.4H42.596ZM48.611 107.61C50.879 107.61 52.741 105.986 52.741 102.822V100.624C52.741 97.488 50.879 95.85 48.611 95.85C46.343 95.85 44.495 97.488 44.495 100.624V102.822C44.495 105.986 46.343 107.61 48.611 107.61ZM48.611 106.35C47.085 106.35 45.895 105.202 45.895 102.752V100.708C45.895 98.258 47.085 97.11 48.611 97.11C50.137 97.11 51.327 98.258 51.327 100.708V102.752C51.327 105.202 50.137 106.35 48.611 106.35ZM55.6618 109.836L56.2358 105.79H54.8218L54.5138 109.836H55.6618ZM62.2828 107.61C64.5508 107.61 66.4128 105.986 66.4128 102.822V100.624C66.4128 97.488 64.5508 95.85 62.2828 95.85C60.0148 95.85 58.1668 97.488 58.1668 100.624V102.822C58.1668 105.986 60.0148 107.61 62.2828 107.61ZM62.2828 106.35C60.7568 106.35 59.5668 105.202 59.5668 102.752V100.708C59.5668 98.258 60.7568 97.11 62.2828 97.11C63.8088 97.11 64.9988 98.258 64.9988 100.708V102.752C64.9988 105.202 63.8088 106.35 62.2828 106.35ZM72.4137 107.61C74.6817 107.61 76.5437 105.986 76.5437 102.822V100.624C76.5437 97.488 74.6817 95.85 72.4137 95.85C70.1457 95.85 68.2977 97.488 68.2977 100.624V102.822C68.2977 105.986 70.1457 107.61 72.4137 107.61ZM72.4137 106.35C70.8877 106.35 69.6977 105.202 69.6977 102.752V100.708C69.6977 98.258 70.8877 97.11 72.4137 97.11C73.9397 97.11 75.1297 98.258 75.1297 100.708V102.752C75.1297 105.202 73.9397 106.35 72.4137 106.35ZM82.5446 107.61C84.8126 107.61 86.6746 105.986 86.6746 102.822V100.624C86.6746 97.488 84.8126 95.85 82.5446 95.85C80.2766 95.85 78.4286 97.488 78.4286 100.624V102.822C78.4286 105.986 80.2766 107.61 82.5446 107.61ZM82.5446 106.35C81.0186 106.35 79.8286 105.202 79.8286 102.752V100.708C79.8286 98.258 81.0186 97.11 82.5446 97.11C84.0706 97.11 85.2606 98.258 85.2606 100.708V102.752C85.2606 105.202 84.0706 106.35 82.5446 106.35ZM94.2574 104.404H97.8834V105.51H99.2694V95.164H97.8834V103.34H94.2574V104.404ZM92.4094 100.386C94.3694 100.386 95.8954 99.574 95.8954 98.006V97.838C95.8954 96.256 94.3694 95.444 92.4094 95.444C90.4354 95.444 88.9094 96.256 88.9094 97.838V98.006C88.9094 99.574 90.4354 100.386 92.4094 100.386ZM90.2394 97.866C90.2394 97.04 91.1494 96.592 92.4094 96.592C93.6554 96.592 94.5654 97.04 94.5654 97.866V97.978C94.5654 98.79 93.6554 99.238 92.4094 99.238C91.1494 99.238 90.2394 98.79 90.2394 97.978V97.866ZM92.7314 104.698C92.8154 103.956 92.8714 103.214 92.9134 102.528C94.2854 102.458 95.7134 102.332 96.9454 102.164L96.8054 101.016C94.7474 101.268 92.2274 101.422 90.6174 101.422H88.2794L88.3354 102.598H90.5054C90.8414 102.598 91.1914 102.598 91.5694 102.584C91.5134 103.228 91.4574 103.928 91.3874 104.6L92.7314 104.698ZM91.9334 105.16H90.5474V108.156H99.8154V106.882H91.9334V105.16Z" fill="black"/>
<path d="M3.952 140.374H8.502V139.072H3.952V140.374ZM18.0355 145.4V144.112H12.3795L15.5855 140.934C16.9435 139.59 17.7695 138.47 17.7695 136.93C17.7695 135.026 16.3135 133.85 14.1295 133.85C12.0015 133.85 10.7695 135.39 10.3075 137.056L11.6375 137.378C12.0155 136.132 12.7295 135.11 14.1295 135.11C15.5715 135.11 16.3835 135.852 16.3835 136.986C16.3835 138.036 15.7955 138.918 14.5215 140.178L10.3635 144.308V145.4H18.0355ZM20.9704 147.836L21.5444 143.79H20.1304L19.8224 147.836H20.9704ZM27.5914 145.61C29.8594 145.61 31.7214 143.986 31.7214 140.822V138.624C31.7214 135.488 29.8594 133.85 27.5914 133.85C25.3234 133.85 23.4754 135.488 23.4754 138.624V140.822C23.4754 143.986 25.3234 145.61 27.5914 145.61ZM27.5914 144.35C26.0654 144.35 24.8754 143.202 24.8754 140.752V138.708C24.8754 136.258 26.0654 135.11 27.5914 135.11C29.1174 135.11 30.3074 136.258 30.3074 138.708V140.752C30.3074 143.202 29.1174 144.35 27.5914 144.35ZM37.7223 145.61C39.9903 145.61 41.8523 143.986 41.8523 140.822V138.624C41.8523 135.488 39.9903 133.85 37.7223 133.85C35.4543 133.85 33.6063 135.488 33.6063 138.624V140.822C33.6063 143.986 35.4543 145.61 37.7223 145.61ZM37.7223 144.35C36.1963 144.35 35.0063 143.202 35.0063 140.752V138.708C35.0063 136.258 36.1963 135.11 37.7223 135.11C39.2483 135.11 40.4383 136.258 40.4383 138.708V140.752C40.4383 143.202 39.2483 144.35 37.7223 144.35ZM47.8532 145.61C50.1212 145.61 51.9832 143.986 51.9832 140.822V138.624C51.9832 135.488 50.1212 133.85 47.8532 133.85C45.5852 133.85 43.7372 135.488 43.7372 138.624V140.822C43.7372 143.986 45.5852 145.61 47.8532 145.61ZM47.8532 144.35C46.3272 144.35 45.1372 143.202 45.1372 140.752V138.708C45.1372 136.258 46.3272 135.11 47.8532 135.11C49.3792 135.11 50.5692 136.258 50.5692 138.708V140.752C50.5692 143.202 49.3792 144.35 47.8532 144.35ZM54.904 147.836L55.478 143.79H54.064L53.756 147.836H54.904ZM61.525 145.61C63.793 145.61 65.655 143.986 65.655 140.822V138.624C65.655 135.488 63.793 133.85 61.525 133.85C59.257 133.85 57.409 135.488 57.409 138.624V140.822C57.409 143.986 59.257 145.61 61.525 145.61ZM61.525 144.35C59.999 144.35 58.809 143.202 58.809 140.752V138.708C58.809 136.258 59.999 135.11 61.525 135.11C63.051 135.11 64.241 136.258 64.241 138.708V140.752C64.241 143.202 63.051 144.35 61.525 144.35ZM71.6559 145.61C73.9239 145.61 75.7859 143.986 75.7859 140.822V138.624C75.7859 135.488 73.9239 133.85 71.6559 133.85C69.3879 133.85 67.5399 135.488 67.5399 138.624V140.822C67.5399 143.986 69.3879 145.61 71.6559 145.61ZM71.6559 144.35C70.1299 144.35 68.9399 143.202 68.9399 140.752V138.708C68.9399 136.258 70.1299 135.11 71.6559 135.11C73.1819 135.11 74.3719 136.258 74.3719 138.708V140.752C74.3719 143.202 73.1819 144.35 71.6559 144.35ZM81.7868 145.61C84.0548 145.61 85.9168 143.986 85.9168 140.822V138.624C85.9168 135.488 84.0548 133.85 81.7868 133.85C79.5188 133.85 77.6708 135.488 77.6708 138.624V140.822C77.6708 143.986 79.5188 145.61 81.7868 145.61ZM81.7868 144.35C80.2608 144.35 79.0708 143.202 79.0708 140.752V138.708C79.0708 136.258 80.2608 135.11 81.7868 135.11C83.3128 135.11 84.5028 136.258 84.5028 138.708V140.752C84.5028 143.202 83.3128 144.35 81.7868 144.35ZM93.4996 142.404H97.1256V143.51H98.5116V133.164H97.1256V141.34H93.4996V142.404ZM91.6516 138.386C93.6116 138.386 95.1376 137.574 95.1376 136.006V135.838C95.1376 134.256 93.6116 133.444 91.6516 133.444C89.6776 133.444 88.1516 134.256 88.1516 135.838V136.006C88.1516 137.574 89.6776 138.386 91.6516 138.386ZM89.4816 135.866C89.4816 135.04 90.3916 134.592 91.6516 134.592C92.8976 134.592 93.8076 135.04 93.8076 135.866V135.978C93.8076 136.79 92.8976 137.238 91.6516 137.238C90.3916 137.238 89.4816 136.79 89.4816 135.978V135.866ZM91.9736 142.698C92.0576 141.956 92.1136 141.214 92.1556 140.528C93.5276 140.458 94.9556 140.332 96.1876 140.164L96.0476 139.016C93.9896 139.268 91.4696 139.422 89.8596 139.422H87.5216L87.5776 140.598H89.7476C90.0836 140.598 90.4336 140.598 90.8116 140.584C90.7556 141.228 90.6996 141.928 90.6296 142.6L91.9736 142.698ZM91.1756 143.16H89.7896V146.156H99.0576V144.882H91.1756V143.16Z" fill="black"/>
<path d="M3.952 170.374H8.502V169.072H3.952V170.374ZM18.0355 175.4V174.112H12.3795L15.5855 170.934C16.9435 169.59 17.7695 168.47 17.7695 166.93C17.7695 165.026 16.3135 163.85 14.1295 163.85C12.0015 163.85 10.7695 165.39 10.3075 167.056L11.6375 167.378C12.0155 166.132 12.7295 165.11 14.1295 165.11C15.5715 165.11 16.3835 165.852 16.3835 166.986C16.3835 168.036 15.7955 168.918 14.5215 170.178L10.3635 174.308V175.4H18.0355ZM20.9704 177.836L21.5444 173.79H20.1304L19.8224 177.836H20.9704ZM27.5914 175.61C30.0134 175.61 31.7214 174.35 31.7214 172.292C31.7214 171.102 30.9374 170.052 29.5514 169.52C30.8254 169.002 31.3994 168.05 31.3994 166.944C31.3994 164.984 29.8034 163.85 27.5914 163.85C25.3794 163.85 23.7974 164.984 23.7974 166.944C23.7974 168.05 24.3714 169.002 25.6454 169.52C24.2454 170.052 23.4754 171.102 23.4754 172.292C23.4754 174.35 25.1974 175.61 27.5914 175.61ZM27.5914 168.946C26.0794 168.946 25.1834 168.162 25.1834 167.028C25.1834 165.894 26.0794 165.11 27.5914 165.11C29.1174 165.11 30.0134 165.894 30.0134 167.028C30.0134 168.162 29.1174 168.946 27.5914 168.946ZM27.5914 174.35C25.8834 174.35 24.8614 173.496 24.8614 172.25C24.8614 171.032 25.9254 170.15 27.5914 170.15C29.2714 170.15 30.3214 171.032 30.3214 172.25C30.3214 173.496 29.3134 174.35 27.5914 174.35ZM37.7223 175.61C39.9903 175.61 41.8523 173.986 41.8523 170.822V168.624C41.8523 165.488 39.9903 163.85 37.7223 163.85C35.4543 163.85 33.6063 165.488 33.6063 168.624V170.822C33.6063 173.986 35.4543 175.61 37.7223 175.61ZM37.7223 174.35C36.1963 174.35 35.0063 173.202 35.0063 170.752V168.708C35.0063 166.258 36.1963 165.11 37.7223 165.11C39.2483 165.11 40.4383 166.258 40.4383 168.708V170.752C40.4383 173.202 39.2483 174.35 37.7223 174.35ZM47.8532 175.61C50.1212 175.61 51.9832 173.986 51.9832 170.822V168.624C51.9832 165.488 50.1212 163.85 47.8532 163.85C45.5852 163.85 43.7372 165.488 43.7372 168.624V170.822C43.7372 173.986 45.5852 175.61 47.8532 175.61ZM47.8532 174.35C46.3272 174.35 45.1372 173.202 45.1372 170.752V168.708C45.1372 166.258 46.3272 165.11 47.8532 165.11C49.3792 165.11 50.5692 166.258 50.5692 168.708V170.752C50.5692 173.202 49.3792 174.35 47.8532 174.35ZM54.904 177.836L55.478 173.79H54.064L53.756 177.836H54.904ZM61.525 175.61C63.793 175.61 65.655 173.986 65.655 170.822V168.624C65.655 165.488 63.793 163.85 61.525 163.85C59.257 163.85 57.409 165.488 57.409 168.624V170.822C57.409 173.986 59.257 175.61 61.525 175.61ZM61.525 174.35C59.999 174.35 58.809 173.202 58.809 170.752V168.708C58.809 166.258 59.999 165.11 61.525 165.11C63.051 165.11 64.241 166.258 64.241 168.708V170.752C64.241 173.202 63.051 174.35 61.525 174.35ZM71.6559 175.61C73.9239 175.61 75.7859 173.986 75.7859 170.822V168.624C75.7859 165.488 73.9239 163.85 71.6559 163.85C69.3879 163.85 67.5399 165.488 67.5399 168.624V170.822C67.5399 173.986 69.3879 175.61 71.6559 175.61ZM71.6559 174.35C70.1299 174.35 68.9399 173.202 68.9399 170.752V168.708C68.9399 166.258 70.1299 165.11 71.6559 165.11C73.1819 165.11 74.3719 166.258 74.3719 168.708V170.752C74.3719 173.202 73.1819 174.35 71.6559 174.35ZM81.7868 175.61C84.0548 175.61 85.9168 173.986 85.9168 170.822V168.624C85.9168 165.488 84.0548 163.85 81.7868 163.85C79.5188 163.85 77.6708 165.488 77.6708 168.624V170.822C77.6708 173.986 79.5188 175.61 81.7868 175.61ZM81.7868 174.35C80.2608 174.35 79.0708 173.202 79.0708 170.752V168.708C79.0708 166.258 80.2608 165.11 81.7868 165.11C83.3128 165.11 84.5028 166.258 84.5028 168.708V170.752C84.5028 173.202 83.3128 174.35 81.7868 174.35ZM93.4996 172.404H97.1256V173.51H98.5116V163.164H97.1256V171.34H93.4996V172.404ZM91.6516 168.386C93.6116 168.386 95.1376 167.574 95.1376 166.006V165.838C95.1376 164.256 93.6116 163.444 91.6516 163.444C89.6776 163.444 88.1516 164.256 88.1516 165.838V166.006C88.1516 167.574 89.6776 168.386 91.6516 168.386ZM89.4816 165.866C89.4816 165.04 90.3916 164.592 91.6516 164.592C92.8976 164.592 93.8076 165.04 93.8076 165.866V165.978C93.8076 166.79 92.8976 167.238 91.6516 167.238C90.3916 167.238 89.4816 166.79 89.4816 165.978V165.866ZM91.9736 172.698C92.0576 171.956 92.1136 171.214 92.1556 170.528C93.5276 170.458 94.9556 170.332 96.1876 170.164L96.0476 169.016C93.9896 169.268 91.4696 169.422 89.8596 169.422H87.5216L87.5776 170.598H89.7476C90.0836 170.598 90.4336 170.598 90.8116 170.584C90.7556 171.228 90.6996 171.928 90.6296 172.6L91.9736 172.698ZM91.1756 173.16H89.7896V176.156H99.0576V174.882H91.1756V173.16Z" fill="black"/>
</svg>
