<svg width="100" height="15" viewBox="0 0 100 15" fill="none" xmlns="http://www.w3.org/2000/svg">
<path d="M7.756 8.872V1.06H5.88L0.672 9.012V10.16H6.37V12.61H7.756V10.16H9.506V8.872H7.756ZM6.37 2.656V8.872H2.352L6.37 2.656ZM10.7635 9.782C11.2815 11.322 12.5835 12.61 14.8795 12.61C17.2455 12.61 18.8835 11.308 18.8835 9.362C18.8835 7.934 17.9735 6.926 16.7555 6.548C17.7915 6.156 18.6035 5.288 18.6035 3.902C18.6035 1.998 17.0215 0.85 14.8515 0.85C12.7795 0.85 11.6035 2.096 11.0855 3.468L12.3455 3.944C12.7235 3.006 13.4235 2.11 14.8515 2.11C16.2935 2.11 17.2315 2.81 17.2315 3.972C17.2315 5.12 16.3495 5.946 14.6695 5.946H13.2415V7.164H14.6695C16.5595 7.164 17.4975 8.116 17.4975 9.306C17.4975 10.496 16.5175 11.35 14.8795 11.35C13.2275 11.35 12.4155 10.398 12.0095 9.334L10.7635 9.782ZM21.8122 14.836L22.3862 10.79H20.9722L20.6642 14.836H21.8122ZM28.4332 12.61C30.7012 12.61 32.5632 10.986 32.5632 7.822V5.624C32.5632 2.488 30.7012 0.85 28.4332 0.85C26.1652 0.85 24.3172 2.488 24.3172 5.624V7.822C24.3172 10.986 26.1652 12.61 28.4332 12.61ZM28.4332 11.35C26.9072 11.35 25.7172 10.202 25.7172 7.752V5.708C25.7172 3.258 26.9072 2.11 28.4332 2.11C29.9592 2.11 31.1492 3.258 31.1492 5.708V7.752C31.1492 10.202 29.9592 11.35 28.4332 11.35ZM38.5641 12.61C40.8321 12.61 42.6941 10.986 42.6941 7.822V5.624C42.6941 2.488 40.8321 0.85 38.5641 0.85C36.2961 0.85 34.4481 2.488 34.4481 5.624V7.822C34.4481 10.986 36.2961 12.61 38.5641 12.61ZM38.5641 11.35C37.0381 11.35 35.8481 10.202 35.8481 7.752V5.708C35.8481 3.258 37.0381 2.11 38.5641 2.11C40.0901 2.11 41.2801 3.258 41.2801 5.708V7.752C41.2801 10.202 40.0901 11.35 38.5641 11.35ZM48.695 12.61C50.963 12.61 52.825 10.986 52.825 7.822V5.624C52.825 2.488 50.963 0.85 48.695 0.85C46.427 0.85 44.579 2.488 44.579 5.624V7.822C44.579 10.986 46.427 12.61 48.695 12.61ZM48.695 11.35C47.169 11.35 45.979 10.202 45.979 7.752V5.708C45.979 3.258 47.169 2.11 48.695 2.11C50.221 2.11 51.411 3.258 51.411 5.708V7.752C51.411 10.202 50.221 11.35 48.695 11.35ZM55.7458 14.836L56.3198 10.79H54.9058L54.5978 14.836H55.7458ZM62.3668 12.61C64.6348 12.61 66.4968 10.986 66.4968 7.822V5.624C66.4968 2.488 64.6348 0.85 62.3668 0.85C60.0988 0.85 58.2508 2.488 58.2508 5.624V7.822C58.2508 10.986 60.0988 12.61 62.3668 12.61ZM62.3668 11.35C60.8408 11.35 59.6508 10.202 59.6508 7.752V5.708C59.6508 3.258 60.8408 2.11 62.3668 2.11C63.8928 2.11 65.0828 3.258 65.0828 5.708V7.752C65.0828 10.202 63.8928 11.35 62.3668 11.35ZM72.4977 12.61C74.7657 12.61 76.6277 10.986 76.6277 7.822V5.624C76.6277 2.488 74.7657 0.85 72.4977 0.85C70.2297 0.85 68.3817 2.488 68.3817 5.624V7.822C68.3817 10.986 70.2297 12.61 72.4977 12.61ZM72.4977 11.35C70.9717 11.35 69.7817 10.202 69.7817 7.752V5.708C69.7817 3.258 70.9717 2.11 72.4977 2.11C74.0237 2.11 75.2137 3.258 75.2137 5.708V7.752C75.2137 10.202 74.0237 11.35 72.4977 11.35ZM82.6285 12.61C84.8965 12.61 86.7585 10.986 86.7585 7.822V5.624C86.7585 2.488 84.8965 0.85 82.6285 0.85C80.3605 0.85 78.5125 2.488 78.5125 5.624V7.822C78.5125 10.986 80.3605 12.61 82.6285 12.61ZM82.6285 11.35C81.1025 11.35 79.9125 10.202 79.9125 7.752V5.708C79.9125 3.258 81.1025 2.11 82.6285 2.11C84.1545 2.11 85.3445 3.258 85.3445 5.708V7.752C85.3445 10.202 84.1545 11.35 82.6285 11.35ZM94.3414 9.404H97.9674V10.51H99.3534V0.163999H97.9674V8.34H94.3414V9.404ZM92.4934 5.386C94.4534 5.386 95.9794 4.574 95.9794 3.006V2.838C95.9794 1.256 94.4534 0.444 92.4934 0.444C90.5194 0.444 88.9934 1.256 88.9934 2.838V3.006C88.9934 4.574 90.5194 5.386 92.4934 5.386ZM90.3234 2.866C90.3234 2.04 91.2334 1.592 92.4934 1.592C93.7394 1.592 94.6494 2.04 94.6494 2.866V2.978C94.6494 3.79 93.7394 4.238 92.4934 4.238C91.2334 4.238 90.3234 3.79 90.3234 2.978V2.866ZM92.8154 9.698C92.8994 8.956 92.9554 8.214 92.9974 7.528C94.3694 7.458 95.7974 7.332 97.0294 7.164L96.8894 6.016C94.8314 6.268 92.3114 6.422 90.7014 6.422H88.3634L88.4194 7.598H90.5894C90.9254 7.598 91.2754 7.598 91.6534 7.584C91.5974 8.228 91.5414 8.928 91.4714 9.6L92.8154 9.698ZM92.0174 10.16H90.6314V13.156H99.8994V11.882H92.0174V10.16Z" fill="black"/>
</svg>
