<svg width="102" height="15" viewBox="0 0 102 15" fill="none" xmlns="http://www.w3.org/2000/svg">
<path d="M5.096 5.092C4.298 5.092 3.486 5.4 2.954 6.002L3.332 2.656H8.372V1.018H1.82L1.106 8.018H2.716C3.094 7.192 3.738 6.73 4.732 6.73C6.076 6.73 7.014 7.57 7.014 8.872C7.014 10.16 6.146 11.014 4.704 11.014C3.64 11.014 2.73 10.538 2.296 9.558L0.756 10.426C1.428 11.924 3.122 12.652 4.802 12.652C7.21 12.652 8.778 11.14 8.778 8.872C8.778 6.59 7.196 5.092 5.096 5.092ZM14.7757 5.092C13.9777 5.092 13.1657 5.4 12.6337 6.002L13.0117 2.656H18.0517V1.018H11.4997L10.7857 8.018H12.3957C12.7737 7.192 13.4177 6.73 14.4117 6.73C15.7557 6.73 16.6937 7.57 16.6937 8.872C16.6937 10.16 15.8257 11.014 14.3837 11.014C13.3197 11.014 12.4097 10.538 11.9757 9.558L10.4357 10.426C11.1077 11.924 12.8017 12.652 14.4817 12.652C16.8897 12.652 18.4577 11.14 18.4577 8.872C18.4577 6.59 16.8757 5.092 14.7757 5.092ZM21.6414 14.85L22.3134 10.496H20.4654L20.1714 14.85H21.6414ZM28.4079 12.652C30.7179 12.652 32.6499 11.042 32.6499 7.808V5.652C32.6499 2.432 30.7179 0.807999 28.4079 0.807999C26.0839 0.807999 24.1519 2.432 24.1519 5.652V7.808C24.1519 11.042 26.0839 12.652 28.4079 12.652ZM28.4079 11.056C26.9939 11.056 25.9579 9.992 25.9579 7.724V5.736C25.9579 3.482 26.9939 2.404 28.4079 2.404C29.8219 2.404 30.8579 3.482 30.8579 5.736V7.724C30.8579 9.992 29.8219 11.056 28.4079 11.056ZM38.7028 12.652C41.0128 12.652 42.9448 11.042 42.9448 7.808V5.652C42.9448 2.432 41.0128 0.807999 38.7028 0.807999C36.3788 0.807999 34.4468 2.432 34.4468 5.652V7.808C34.4468 11.042 36.3788 12.652 38.7028 12.652ZM38.7028 11.056C37.2888 11.056 36.2528 9.992 36.2528 7.724V5.736C36.2528 3.482 37.2888 2.404 38.7028 2.404C40.1168 2.404 41.1528 3.482 41.1528 5.736V7.724C41.1528 9.992 40.1168 11.056 38.7028 11.056ZM48.9977 12.652C51.3077 12.652 53.2397 11.042 53.2397 7.808V5.652C53.2397 2.432 51.3077 0.807999 48.9977 0.807999C46.6737 0.807999 44.7417 2.432 44.7417 5.652V7.808C44.7417 11.042 46.6737 12.652 48.9977 12.652ZM48.9977 11.056C47.5837 11.056 46.5477 9.992 46.5477 7.724V5.736C46.5477 3.482 47.5837 2.404 48.9977 2.404C50.4117 2.404 51.4477 3.482 51.4477 5.736V7.724C51.4477 9.992 50.4117 11.056 48.9977 11.056ZM56.4226 14.85L57.0946 10.496H55.2466L54.9526 14.85H56.4226ZM63.1891 12.652C65.4991 12.652 67.4311 11.042 67.4311 7.808V5.652C67.4311 2.432 65.4991 0.807999 63.1891 0.807999C60.8651 0.807999 58.9331 2.432 58.9331 5.652V7.808C58.9331 11.042 60.8651 12.652 63.1891 12.652ZM63.1891 11.056C61.7751 11.056 60.7391 9.992 60.7391 7.724V5.736C60.7391 3.482 61.7751 2.404 63.1891 2.404C64.6031 2.404 65.6391 3.482 65.6391 5.736V7.724C65.6391 9.992 64.6031 11.056 63.1891 11.056ZM73.484 12.652C75.794 12.652 77.726 11.042 77.726 7.808V5.652C77.726 2.432 75.794 0.807999 73.484 0.807999C71.16 0.807999 69.228 2.432 69.228 5.652V7.808C69.228 11.042 71.16 12.652 73.484 12.652ZM73.484 11.056C72.07 11.056 71.034 9.992 71.034 7.724V5.736C71.034 3.482 72.07 2.404 73.484 2.404C74.898 2.404 75.934 3.482 75.934 5.736V7.724C75.934 9.992 74.898 11.056 73.484 11.056ZM83.779 12.652C86.089 12.652 88.021 11.042 88.021 7.808V5.652C88.021 2.432 86.089 0.807999 83.779 0.807999C81.455 0.807999 79.523 2.432 79.523 5.652V7.808C79.523 11.042 81.455 12.652 83.779 12.652ZM83.779 11.056C82.365 11.056 81.329 9.992 81.329 7.724V5.736C81.329 3.482 82.365 2.404 83.779 2.404C85.193 2.404 86.229 3.482 86.229 5.736V7.724C86.229 9.992 85.193 11.056 83.779 11.056ZM95.6279 9.572H98.9459V10.482H100.738V0.136H98.9459V8.242H95.6279V9.572ZM93.6819 5.442C95.7259 5.442 97.2799 4.602 97.2799 2.978V2.838C97.2799 1.186 95.7259 0.345999 93.6819 0.345999C91.6239 0.345999 90.0699 1.186 90.0699 2.838V2.978C90.0699 4.602 91.6239 5.442 93.6819 5.442ZM91.7499 2.852C91.7499 2.152 92.5619 1.788 93.6819 1.788C94.7879 1.788 95.5999 2.152 95.5999 2.852V2.95C95.5999 3.65 94.7879 4 93.6819 4C92.5619 4 91.7499 3.65 91.7499 2.95V2.852ZM92.6459 7.724C92.6039 8.326 92.5619 8.942 92.5059 9.558L94.2139 9.67C94.2839 8.984 94.3399 8.298 94.3819 7.668C95.6699 7.598 97.0279 7.486 98.2039 7.318L98.0219 5.876C95.9499 6.114 93.4859 6.254 91.8899 6.254H89.5379L89.6079 7.738H91.7219C92.0159 7.738 92.3239 7.738 92.6459 7.724ZM93.5139 10.076H91.7219V13.212H101.214V11.588H93.5139V10.076Z" fill="#5725E0"/>
</svg>
