<svg width="40" height="24" viewBox="0 0 40 24" fill="none" xmlns="http://www.w3.org/2000/svg">
<path d="M11.172 10.82L11.886 9.322L7.28 7.376C7.476 6.9 7.574 6.396 7.574 5.864V5.248H5.838V5.864C5.838 7.152 4.634 8.314 1.386 9.28L1.974 10.82C3.962 10.26 5.362 9.574 6.258 8.762L11.172 10.82ZM0.476 13.298H5.74V15.426H7.532V13.298H12.796V11.674H0.476V13.298ZM2.016 14.432V18.212H11.578V16.546H3.822V14.432H2.016ZM24.3494 9.868V5.136H22.5714V18.212H24.3494V11.492H26.2394V9.868H24.3494ZM18.3434 7.74H21.0594V6.102H13.9614V7.74H16.5934V8.118C16.5934 10.904 15.5434 13.046 13.4434 15.3L14.7174 16.462C15.8654 15.272 16.7334 14.04 17.3354 12.738L20.2194 16.336L21.5634 15.174L18.0354 10.764C18.2454 9.91 18.3434 9.042 18.3434 8.118V7.74ZM37.6248 5.136H35.8328V14.81H37.6248V9.854H39.5148V8.23H37.6248V5.136ZM33.7748 12.794L34.7968 11.464L31.3528 8.776C31.5628 8.104 31.6748 7.39 31.6748 6.62V5.598H29.9248V6.62C29.9248 8.51 29.0568 10.148 26.7468 11.688L27.7688 13.06C29.0288 12.22 29.9668 11.324 30.6108 10.33L33.7748 12.794ZM29.0288 13.984V18.212H38.2408V16.588H30.8068V13.984H29.0288Z" fill="#333333"/>
</svg>
