<svg width="175" height="51" viewBox="0 0 175 51" fill="none" xmlns="http://www.w3.org/2000/svg">
<path d="M7.872 9.92691C8.964 9.65091 9.6 9.03891 9.6 8.07891C9.6 6.74691 8.388 6.08691 6.468 6.08691H4.92C3 6.08691 1.788 6.74691 1.788 8.07891C1.788 9.03891 2.424 9.65091 3.516 9.92691V11.2949H0.504V12.0509H10.872V11.2949H7.872V9.92691ZM2.64 8.07891C2.64 7.27491 3.492 6.84291 5.064 6.84291H6.324C7.884 6.84291 8.736 7.27491 8.736 8.07891C8.736 8.87091 7.884 9.33891 6.324 9.33891H5.064C3.492 9.33891 2.64 8.89491 2.64 8.07891ZM4.344 10.0469C4.524 10.0829 6.864 10.0829 7.044 10.0469V11.2949H4.344V10.0469ZM4.476 13.1789C2.676 13.1789 1.728 14.0189 1.728 15.1469C1.728 16.2869 2.676 17.1269 4.476 17.1269H6.9C8.712 17.1269 9.66 16.2869 9.66 15.1469C9.66 14.0189 8.712 13.1789 6.9 13.1789H4.476ZM4.668 16.3589C3.252 16.3589 2.58 15.8789 2.58 15.1469C2.58 14.4149 3.252 13.9469 4.668 13.9469H6.708C8.124 13.9469 8.796 14.4149 8.796 15.1469C8.796 15.8789 8.124 16.3589 6.708 16.3589H4.668ZM17.4989 10.5389H20.8109V9.75891H14.1869V6.97491H20.6909V6.20691H13.3349V10.5389H16.6469V12.0029H11.8829V12.7949H22.2509V12.0029H17.4989V10.5389ZM13.3349 13.7909V17.0069H21.0989V16.2149H14.1869V13.7909H13.3349ZM28.8778 11.1989H32.4178V10.4429H25.5658V9.05091H32.1898V6.20691H24.6538V6.95091H31.3258V8.33091H24.7138V11.1989H28.0258V12.5909H23.2618V13.3589H33.6298V12.5909H28.8778V11.1989ZM24.7138 14.2349V17.0069H32.4778V16.2269H25.5658V14.2349H24.7138Z" fill="black"/>
<path d="M3.096 43.0069V31.3789L7.92 43.0069H9.792L14.634 31.3609V43.0069H16.416V28.4269H14.076L8.874 40.9909L3.654 28.4269H1.314V43.0069H3.096ZM28.7528 43.0069V41.3689H20.7968L28.5908 29.8849V28.4269H18.7088V30.0649H26.3588L18.5828 41.5489V43.0069H28.7528ZM43.1191 43.9789H44.8651V27.2749H43.1191V43.9789ZM36.8371 33.0349V34.6729H39.5011V43.6369H41.2111V27.5269H39.5011V33.0349H36.8371ZM35.1451 28.2469H33.4351V30.4609C33.4351 34.3849 32.3371 37.6069 30.0691 40.6309L31.4371 41.7109C32.6251 40.1449 33.5071 38.5069 34.1191 36.7789L37.0351 41.5309L38.4751 40.5049L34.7491 34.4749C35.0191 33.1969 35.1451 31.8649 35.1451 30.4609V28.2469ZM60.2055 33.5569H58.0635V27.5269H56.3715V43.6369H58.0635V35.1949H60.2055V43.9789H61.9515V27.2749H60.2055V33.5569ZM49.8195 39.6229V30.1549H54.2835V28.4989H48.0195V41.2609H50.3055C52.1415 41.2609 53.6535 41.1709 55.2555 40.8829L55.0755 39.2809C53.4195 39.5329 51.9795 39.6229 50.5575 39.6229H49.8195ZM82.766 37.5169L83.738 36.0229L77.222 31.7929C77.546 31.0189 77.69 30.2269 77.69 29.3989V28.1389H75.89V29.3989C75.89 31.7929 74.072 33.9349 69.662 35.9689L70.472 37.5169C73.316 36.2389 75.224 34.8169 76.358 33.2869L82.766 37.5169ZM77.6 36.9949H75.818V41.0809H68.852V42.7189H84.548V41.0809H77.6V36.9949ZM98.7903 30.9469H96.7023V27.4549H95.0283V36.6529H96.7023V32.5489H98.7903V36.6529H100.5V27.2749H98.7903V30.9469ZM93.3543 31.6849C93.3543 28.9669 91.8243 27.6349 89.7903 27.6349C87.7383 27.6349 86.2083 28.9669 86.2083 31.6849V31.9729C86.2083 34.6729 87.7383 36.0049 89.7903 36.0049C91.8243 36.0049 93.3543 34.6729 93.3543 31.9729V31.6849ZM87.8643 31.7029C87.8643 30.0829 88.6923 29.2189 89.7903 29.2189C90.8703 29.2189 91.6983 30.0829 91.6983 31.7029V31.9369C91.6983 33.5569 90.8703 34.4209 89.7903 34.4209C88.6923 34.4209 87.8643 33.5569 87.8643 31.9369V31.7029ZM98.7003 39.3349V44.1589H100.5V37.6969H89.1783V39.3349H98.7003ZM119.929 27.2749V39.7849H121.711V27.2749H119.929ZM117.175 36.9949L118.183 35.6269L113.323 31.9909C113.629 31.1269 113.773 30.1909 113.773 29.2009V27.9049H112.009V29.2009C112.009 31.8649 110.641 33.9709 107.581 35.9329L108.571 37.3369C110.389 36.1669 111.703 34.9429 112.567 33.5569L117.175 36.9949ZM112.459 38.7409H110.677V43.9789H122.413V42.3409H112.459V38.7409ZM135.881 33.2869C137.411 32.8549 138.329 31.9369 138.329 30.4969C138.329 28.4449 136.457 27.4549 133.631 27.4549H131.003C128.195 27.4549 126.305 28.4449 126.305 30.4969C126.305 31.9369 127.241 32.8729 128.771 33.2869V35.1229H124.469V36.6709H140.165V35.1229H135.881V33.2869ZM128.105 30.5149C128.105 29.4889 129.257 28.9669 131.327 28.9669H133.325C135.395 28.9669 136.547 29.4889 136.547 30.5149C136.547 31.5049 135.395 32.0629 133.325 32.0629H131.327C129.257 32.0629 128.105 31.5229 128.105 30.5149ZM130.481 33.5389C131.705 33.5569 132.947 33.5569 134.171 33.5389V35.1229H130.481V33.5389ZM130.409 38.0929C127.709 38.0929 126.215 39.3709 126.215 41.1169C126.215 42.8809 127.709 44.1589 130.409 44.1589H134.225C136.925 44.1589 138.419 42.8809 138.419 41.1169C138.419 39.3709 136.925 38.0929 134.225 38.0929H130.409ZM130.769 42.5929C128.879 42.5929 128.015 42.0169 128.015 41.0989C128.015 40.2169 128.879 39.6409 130.769 39.6409H133.883C135.773 39.6409 136.637 40.2169 136.637 41.0989C136.637 42.0169 135.773 42.5929 133.883 42.5929H130.769ZM154.372 33.5569H152.23V27.5269H150.538V43.6369H152.23V35.1949H154.372V43.9789H156.118V27.2749H154.372V33.5569ZM143.986 39.6229V30.1549H148.45V28.4989H142.186V41.2609H144.472C146.308 41.2609 147.82 41.1709 149.422 40.8829L149.242 39.2809C147.586 39.5329 146.146 39.6229 144.724 39.6229H143.986ZM160.262 34.1149C163.052 33.6469 164.924 33.0349 166.04 32.1889L172.538 34.1149L173.06 32.6749L167.084 30.9289C167.228 30.6049 167.318 30.2449 167.336 29.8489H172.214V28.3549H167.39V26.9149H165.662V28.3549H160.694V29.8489H165.662C165.428 31.0549 163.646 32.0269 159.83 32.6389L160.262 34.1149ZM174.302 34.7449H158.606V36.1669H165.572V37.4629H160.442V38.8489H170.594V40.0369H160.532V44.0689H172.826V42.6649H162.332V41.4049H172.394V37.4629H167.354V36.1669H174.302V34.7449Z" fill="black"/>
</svg>
