<svg width="157" height="33" viewBox="0 0 157 33" fill="none" xmlns="http://www.w3.org/2000/svg">
<path d="M8.796 12.0549H9.996V0.918909H8.796V12.0549ZM1.26 7.86691C2.472 7.19491 3.372 6.47491 3.948 5.64691L6.96 7.74691L7.596 6.75091L4.488 4.62691C4.62 4.24291 4.692 3.82291 4.716 3.37891H7.2V2.31091H4.716V0.930908H3.528V2.31091H1.056V3.37891H3.528C3.444 4.75891 2.46 5.85091 0.672 6.87091L1.26 7.86691ZM4.716 7.45891H3.516V9.33091C3.18 9.34291 2.856 9.34291 2.58 9.34291H0.564L0.624 10.4469H2.472C4.104 10.4469 6.288 10.3029 7.992 10.0629L7.86 8.99491C6.876 9.11491 5.748 9.21091 4.716 9.27091V7.45891ZM20.1749 4.98691H17.7629V6.07891H20.1749V12.0549H21.3749V0.918909H20.1749V4.98691ZM16.0229 2.88691H18.5069V1.79491H12.3989V2.88691H14.8469V3.35491C14.8469 5.92291 13.8149 7.79491 11.9549 9.73891L12.8069 10.5429C13.8989 9.41491 14.7149 8.27491 15.2549 7.05091L18.0629 10.4229L18.9509 9.63091L15.7109 5.76691C15.9149 5.01091 16.0229 4.20691 16.0229 3.35491V2.88691ZM30.1272 11.4069V1.68691H29.1072L26.0352 4.13491L26.7192 5.03491L28.9272 3.27091V11.4069H30.1272ZM35.762 11.5869C37.706 11.5869 39.302 10.1949 39.302 7.48291V5.59891C39.302 2.91091 37.706 1.50691 35.762 1.50691C33.818 1.50691 32.234 2.91091 32.234 5.59891V7.48291C32.234 10.1949 33.818 11.5869 35.762 11.5869ZM35.762 10.5069C34.454 10.5069 33.434 9.52291 33.434 7.42291V5.67091C33.434 3.57091 34.454 2.58691 35.762 2.58691C37.07 2.58691 38.09 3.57091 38.09 5.67091V7.42291C38.09 9.52291 37.07 10.5069 35.762 10.5069ZM41.6496 11.5869C42.1056 11.5869 42.4656 11.2269 42.4656 10.7709C42.4656 10.3149 42.1056 9.94291 41.6496 9.94291C41.1936 9.94291 40.8216 10.3149 40.8216 10.7709C40.8216 11.2269 41.1936 11.5869 41.6496 11.5869ZM47.6116 11.4069V1.68691H46.5916L43.5196 4.13491L44.2036 5.03491L46.4116 3.27091V11.4069H47.6116ZM53.1383 5.19091C52.3703 5.19091 51.6383 5.49091 51.1583 6.05491L51.5303 2.79091H55.9343V1.68691H50.4983L49.8863 7.61491H50.9903C51.3263 6.79891 51.9623 6.29491 52.9223 6.29491C54.2183 6.29491 55.0943 7.12291 55.0943 8.39491C55.0943 9.65491 54.2183 10.4829 52.8623 10.4829C51.8903 10.4829 51.0143 10.0629 50.6183 9.15091L49.5983 9.72691C50.1503 10.9749 51.5303 11.5869 52.9223 11.5869C54.9383 11.5869 56.2823 10.2909 56.2823 8.39491C56.2823 6.49891 54.9743 5.19091 53.1383 5.19091ZM62.7114 6.79891C63.8754 6.79891 64.8474 5.99491 64.8474 4.60291V3.69091C64.8474 2.32291 63.8754 1.50691 62.7114 1.50691C61.5354 1.50691 60.5634 2.32291 60.5634 3.69091V4.60291C60.5634 5.99491 61.5354 6.79891 62.7114 6.79891ZM63.1434 11.4069L69.8514 1.68691H68.5074L61.7994 11.4069H63.1434ZM62.7114 5.79091C62.0994 5.79091 61.6314 5.34691 61.6314 4.53091V3.76291C61.6314 2.95891 62.0994 2.50291 62.7114 2.50291C63.3234 2.50291 63.7794 2.95891 63.7794 3.76291V4.53091C63.7794 5.34691 63.3234 5.79091 62.7114 5.79091ZM68.8794 11.5869C70.0434 11.5869 71.0154 10.7829 71.0154 9.39091V8.47891C71.0154 7.11091 70.0434 6.29491 68.8794 6.29491C67.7034 6.29491 66.7314 7.11091 66.7314 8.47891V9.39091C66.7314 10.7829 67.7034 11.5869 68.8794 11.5869ZM68.8794 10.5909C68.2674 10.5909 67.7994 10.1349 67.7994 9.31891V8.55091C67.7994 7.74691 68.2674 7.29091 68.8794 7.29091C69.4914 7.29091 69.9474 7.74691 69.9474 8.55091V9.31891C69.9474 10.1349 69.4914 10.5909 68.8794 10.5909ZM79.7881 7.69891C80.8201 7.69891 81.5761 6.87091 81.9001 5.94691L80.8561 5.53891C80.6161 6.11491 80.3281 6.54691 79.6921 6.54691C78.9121 6.54691 78.2401 5.39491 77.0761 5.39491C76.0441 5.39491 75.3001 6.21091 74.9761 7.14691L76.0201 7.55491C76.2481 7.01491 76.5361 6.54691 77.1841 6.54691C77.9521 6.54691 78.6361 7.69891 79.7881 7.69891ZM94.1202 12.0549H95.3202V0.918909H94.1202V12.0549ZM86.5842 7.86691C87.7962 7.19491 88.6962 6.47491 89.2722 5.64691L92.2842 7.74691L92.9202 6.75091L89.8122 4.62691C89.9442 4.24291 90.0162 3.82291 90.0402 3.37891H92.5242V2.31091H90.0402V0.930908H88.8522V2.31091H86.3802V3.37891H88.8522C88.7682 4.75891 87.7842 5.85091 85.9962 6.87091L86.5842 7.86691ZM90.0402 7.45891H88.8402V9.33091C88.5042 9.34291 88.1802 9.34291 87.9042 9.34291H85.8882L85.9482 10.4469H87.7962C89.4282 10.4469 91.6122 10.3029 93.3162 10.0629L93.1842 8.99491C92.2002 9.11491 91.0722 9.21091 90.0402 9.27091V7.45891ZM105.715 5.10691H104.287V1.08691H103.159V11.8269H104.287V6.19891H105.715V12.0549H106.879V0.918909H105.715V5.10691ZM98.7911 9.15091V2.83891H101.767V1.73491H97.5911V10.2429H99.1151C100.339 10.2429 101.347 10.1829 102.415 9.99091L102.295 8.92291C101.191 9.09091 100.231 9.15091 99.2831 9.15091H98.7911ZM115.451 11.4069V1.68691H114.431L111.359 4.13491L112.043 5.03491L114.251 3.27091V11.4069H115.451ZM121.086 11.5869C123.162 11.5869 124.626 10.5069 124.626 8.74291C124.626 7.72291 123.954 6.82291 122.766 6.36691C123.858 5.92291 124.35 5.10691 124.35 4.15891C124.35 2.47891 122.982 1.50691 121.086 1.50691C119.19 1.50691 117.834 2.47891 117.834 4.15891C117.834 5.10691 118.326 5.92291 119.418 6.36691C118.218 6.82291 117.558 7.72291 117.558 8.74291C117.558 10.5069 119.034 11.5869 121.086 11.5869ZM121.086 5.87491C119.79 5.87491 119.022 5.20291 119.022 4.23091C119.022 3.25891 119.79 2.58691 121.086 2.58691C122.394 2.58691 123.162 3.25891 123.162 4.23091C123.162 5.20291 122.394 5.87491 121.086 5.87491ZM121.086 10.5069C119.622 10.5069 118.746 9.77491 118.746 8.70691C118.746 7.66291 119.658 6.90691 121.086 6.90691C122.526 6.90691 123.426 7.66291 123.426 8.70691C123.426 9.77491 122.562 10.5069 121.086 10.5069ZM126.974 11.5869C127.43 11.5869 127.79 11.2269 127.79 10.7709C127.79 10.3149 127.43 9.94291 126.974 9.94291C126.518 9.94291 126.146 10.3149 126.146 10.7709C126.146 11.2269 126.518 11.5869 126.974 11.5869ZM135.156 8.38291V1.68691H133.548L129.084 8.50291V9.48691H133.968V11.5869H135.156V9.48691H136.656V8.38291H135.156ZM133.968 3.05491V8.38291H130.524L133.968 3.05491ZM141.442 11.5869C143.518 11.5869 144.982 10.5069 144.982 8.74291C144.982 7.72291 144.31 6.82291 143.122 6.36691C144.214 5.92291 144.706 5.10691 144.706 4.15891C144.706 2.47891 143.338 1.50691 141.442 1.50691C139.546 1.50691 138.19 2.47891 138.19 4.15891C138.19 5.10691 138.682 5.92291 139.774 6.36691C138.574 6.82291 137.914 7.72291 137.914 8.74291C137.914 10.5069 139.39 11.5869 141.442 11.5869ZM141.442 5.87491C140.146 5.87491 139.378 5.20291 139.378 4.23091C139.378 3.25891 140.146 2.58691 141.442 2.58691C142.75 2.58691 143.518 3.25891 143.518 4.23091C143.518 5.20291 142.75 5.87491 141.442 5.87491ZM141.442 10.5069C139.978 10.5069 139.102 9.77491 139.102 8.70691C139.102 7.66291 140.014 6.90691 141.442 6.90691C142.882 6.90691 143.782 7.66291 143.782 8.70691C143.782 9.77491 142.918 10.5069 141.442 10.5069ZM148.469 6.79891C149.633 6.79891 150.605 5.99491 150.605 4.60291V3.69091C150.605 2.32291 149.633 1.50691 148.469 1.50691C147.293 1.50691 146.321 2.32291 146.321 3.69091V4.60291C146.321 5.99491 147.293 6.79891 148.469 6.79891ZM148.901 11.4069L155.609 1.68691H154.265L147.557 11.4069H148.901ZM148.469 5.79091C147.857 5.79091 147.389 5.34691 147.389 4.53091V3.76291C147.389 2.95891 147.857 2.50291 148.469 2.50291C149.081 2.50291 149.537 2.95891 149.537 3.76291V4.53091C149.537 5.34691 149.081 5.79091 148.469 5.79091ZM154.637 11.5869C155.801 11.5869 156.773 10.7829 156.773 9.39091V8.47891C156.773 7.11091 155.801 6.29491 154.637 6.29491C153.461 6.29491 152.489 7.11091 152.489 8.47891V9.39091C152.489 10.7829 153.461 11.5869 154.637 11.5869ZM154.637 10.5909C154.025 10.5909 153.557 10.1349 153.557 9.31891V8.55091C153.557 7.74691 154.025 7.29091 154.637 7.29091C155.249 7.29091 155.705 7.74691 155.705 8.55091V9.31891C155.705 10.1349 155.249 10.5909 154.637 10.5909ZM8.796 32.0549H9.996V20.9189H8.796V32.0549ZM1.26 27.8669C2.472 27.1949 3.372 26.4749 3.948 25.6469L6.96 27.7469L7.596 26.7509L4.488 24.6269C4.62 24.2429 4.692 23.8229 4.716 23.3789H7.2V22.3109H4.716V20.9309H3.528V22.3109H1.056V23.3789H3.528C3.444 24.7589 2.46 25.8509 0.672 26.8709L1.26 27.8669ZM4.716 27.4589H3.516V29.3309C3.18 29.3429 2.856 29.3429 2.58 29.3429H0.564L0.624 30.4469H2.472C4.104 30.4469 6.288 30.3029 7.992 30.0629L7.86 28.9949C6.876 29.1149 5.748 29.2109 4.716 29.2709V27.4589ZM20.3909 25.1069H18.9629V21.0869H17.8349V31.8269H18.9629V26.1989H20.3909V32.0549H21.5549V20.9189H20.3909V25.1069ZM13.4669 29.1509V22.8389H16.4429V21.7349H12.2669V30.2429H13.7909C15.0149 30.2429 16.0229 30.1829 17.0909 29.9909L16.9709 28.9229C15.8669 29.0909 14.9069 29.1509 13.9589 29.1509H13.4669ZM29.9352 25.1909C29.1672 25.1909 28.4352 25.4909 27.9552 26.0549L28.3272 22.7909H32.7312V21.6869H27.2952L26.6832 27.6149H27.7872C28.1232 26.7989 28.7592 26.2949 29.7192 26.2949C31.0152 26.2949 31.8912 27.1229 31.8912 28.3949C31.8912 29.6549 31.0152 30.4829 29.6592 30.4829C28.6872 30.4829 27.8112 30.0629 27.4152 29.1509L26.3952 29.7269C26.9472 30.9749 28.3272 31.5869 29.7192 31.5869C31.7352 31.5869 33.0792 30.2909 33.0792 28.3949C33.0792 26.4989 31.7712 25.1909 29.9352 25.1909ZM38.2229 31.5869C40.1669 31.5869 41.7629 30.1949 41.7629 27.4829V25.5989C41.7629 22.9109 40.1669 21.5069 38.2229 21.5069C36.2789 21.5069 34.6949 22.9109 34.6949 25.5989V27.4829C34.6949 30.1949 36.2789 31.5869 38.2229 31.5869ZM38.2229 30.5069C36.9149 30.5069 35.8949 29.5229 35.8949 27.4229V25.6709C35.8949 23.5709 36.9149 22.5869 38.2229 22.5869C39.5309 22.5869 40.5509 23.5709 40.5509 25.6709V27.4229C40.5509 29.5229 39.5309 30.5069 38.2229 30.5069ZM46.9065 31.5869C48.8505 31.5869 50.4465 30.1949 50.4465 27.4829V25.5989C50.4465 22.9109 48.8505 21.5069 46.9065 21.5069C44.9625 21.5069 43.3785 22.9109 43.3785 25.5989V27.4829C43.3785 30.1949 44.9625 31.5869 46.9065 31.5869ZM46.9065 30.5069C45.5985 30.5069 44.5785 29.5229 44.5785 27.4229V25.6709C44.5785 23.5709 45.5985 22.5869 46.9065 22.5869C48.2145 22.5869 49.2345 23.5709 49.2345 25.6709V27.4229C49.2345 29.5229 48.2145 30.5069 46.9065 30.5069ZM55.5901 31.5869C57.5341 31.5869 59.1301 30.1949 59.1301 27.4829V25.5989C59.1301 22.9109 57.5341 21.5069 55.5901 21.5069C53.6461 21.5069 52.0621 22.9109 52.0621 25.5989V27.4829C52.0621 30.1949 53.6461 31.5869 55.5901 31.5869ZM55.5901 30.5069C54.2821 30.5069 53.2621 29.5229 53.2621 27.4229V25.6709C53.2621 23.5709 54.2821 22.5869 55.5901 22.5869C56.8981 22.5869 57.9181 23.5709 57.9181 25.6709V27.4229C57.9181 29.5229 56.8981 30.5069 55.5901 30.5069ZM69.3017 20.9189H68.1017V29.2589H69.3017V24.7949H71.0297V23.7149H69.3017V20.9189ZM60.5897 21.5069V27.1349H66.0017V21.5069H60.5897ZM61.7537 26.0789V22.5629H64.8377V26.0789H61.7537ZM62.1737 28.5629V32.0549H69.8777V30.9629H63.3617V28.5629H62.1737ZM77.0086 28.8389H80.1166V29.7869H81.3046V20.9189H80.1166V27.9269H77.0086V28.8389ZM75.4246 25.3949C77.1046 25.3949 78.4126 24.6989 78.4126 23.3549V23.2109C78.4126 21.8549 77.1046 21.1589 75.4246 21.1589C73.7326 21.1589 72.4246 21.8549 72.4246 23.2109V23.3549C72.4246 24.6989 73.7326 25.3949 75.4246 25.3949ZM73.5646 23.2349C73.5646 22.5269 74.3446 22.1429 75.4246 22.1429C76.4926 22.1429 77.2726 22.5269 77.2726 23.2349V23.3309C77.2726 24.0269 76.4926 24.4109 75.4246 24.4109C74.3446 24.4109 73.5646 24.0269 73.5646 23.3309V23.2349ZM75.7006 29.0909C75.7726 28.4549 75.8206 27.8189 75.8566 27.2309C77.0326 27.1709 78.2566 27.0629 79.3126 26.9189L79.1926 25.9349C77.4286 26.1509 75.2686 26.2829 73.8886 26.2829H71.8846L71.9326 27.2909H73.7926C74.0806 27.2909 74.3806 27.2909 74.7046 27.2789C74.6566 27.8309 74.6086 28.4309 74.5486 29.0069L75.7006 29.0909ZM75.0166 29.4869H73.8286V32.0549H81.7726V30.9629H75.0166V29.4869Z" fill="#666666"/>
</svg>
