<svg width="157" height="33" viewBox="0 0 157 33" fill="none" xmlns="http://www.w3.org/2000/svg">
<path d="M8.796 12.0549H9.996V0.918909H8.796V12.0549ZM1.26 7.86691C2.472 7.19491 3.372 6.47491 3.948 5.64691L6.96 7.74691L7.596 6.75091L4.488 4.62691C4.62 4.24291 4.692 3.82291 4.716 3.37891H7.2V2.31091H4.716V0.930908H3.528V2.31091H1.056V3.37891H3.528C3.444 4.75891 2.46 5.85091 0.672 6.87091L1.26 7.86691ZM4.716 7.45891H3.516V9.33091C3.18 9.34291 2.856 9.34291 2.58 9.34291H0.564L0.624 10.4469H2.472C4.104 10.4469 6.288 10.3029 7.992 10.0629L7.86 8.99491C6.876 9.11491 5.748 9.21091 4.716 9.27091V7.45891ZM20.1749 4.98691H17.7629V6.07891H20.1749V12.0549H21.3749V0.918909H20.1749V4.98691ZM16.0229 2.88691H18.5069V1.79491H12.3989V2.88691H14.8469V3.35491C14.8469 5.92291 13.8149 7.79491 11.9549 9.73891L12.8069 10.5429C13.8989 9.41491 14.7149 8.27491 15.2549 7.05091L18.0629 10.4229L18.9509 9.63091L15.7109 5.76691C15.9149 5.01091 16.0229 4.20691 16.0229 3.35491V2.88691ZM30.1272 11.4069V1.68691H29.1072L26.0352 4.13491L26.7192 5.03491L28.9272 3.27091V11.4069H30.1272ZM35.846 11.4069V1.68691H34.826L31.754 4.13491L32.438 5.03491L34.646 3.27091V11.4069H35.846ZM38.6847 11.5869C39.1407 11.5869 39.5007 11.2269 39.5007 10.7709C39.5007 10.3149 39.1407 9.94291 38.6847 9.94291C38.2287 9.94291 37.8567 10.3149 37.8567 10.7709C37.8567 11.2269 38.2287 11.5869 38.6847 11.5869ZM44.5628 11.5869C46.5068 11.5869 48.1028 10.1949 48.1028 7.48291V5.59891C48.1028 2.91091 46.5068 1.50691 44.5628 1.50691C42.6188 1.50691 41.0348 2.91091 41.0348 5.59891V7.48291C41.0348 10.1949 42.6188 11.5869 44.5628 11.5869ZM44.5628 10.5069C43.2548 10.5069 42.2348 9.52291 42.2348 7.42291V5.67091C42.2348 3.57091 43.2548 2.58691 44.5628 2.58691C45.8708 2.58691 46.8908 3.57091 46.8908 5.67091V7.42291C46.8908 9.52291 45.8708 10.5069 44.5628 10.5069ZM56.2703 11.4069V10.3029H51.4223L54.1703 7.57891C55.3343 6.42691 56.0423 5.46691 56.0423 4.14691C56.0423 2.51491 54.7943 1.50691 52.9223 1.50691C51.0983 1.50691 50.0423 2.82691 49.6463 4.25491L50.7863 4.53091C51.1103 3.46291 51.7223 2.58691 52.9223 2.58691C54.1583 2.58691 54.8543 3.22291 54.8543 4.19491C54.8543 5.09491 54.3503 5.85091 53.2583 6.93091L49.6943 10.4709V11.4069H56.2703ZM62.7114 6.79891C63.8754 6.79891 64.8474 5.99491 64.8474 4.60291V3.69091C64.8474 2.32291 63.8754 1.50691 62.7114 1.50691C61.5354 1.50691 60.5634 2.32291 60.5634 3.69091V4.60291C60.5634 5.99491 61.5354 6.79891 62.7114 6.79891ZM63.1434 11.4069L69.8514 1.68691H68.5074L61.7994 11.4069H63.1434ZM62.7114 5.79091C62.0994 5.79091 61.6314 5.34691 61.6314 4.53091V3.76291C61.6314 2.95891 62.0994 2.50291 62.7114 2.50291C63.3234 2.50291 63.7794 2.95891 63.7794 3.76291V4.53091C63.7794 5.34691 63.3234 5.79091 62.7114 5.79091ZM68.8794 11.5869C70.0434 11.5869 71.0154 10.7829 71.0154 9.39091V8.47891C71.0154 7.11091 70.0434 6.29491 68.8794 6.29491C67.7034 6.29491 66.7314 7.11091 66.7314 8.47891V9.39091C66.7314 10.7829 67.7034 11.5869 68.8794 11.5869ZM68.8794 10.5909C68.2674 10.5909 67.7994 10.1349 67.7994 9.31891V8.55091C67.7994 7.74691 68.2674 7.29091 68.8794 7.29091C69.4914 7.29091 69.9474 7.74691 69.9474 8.55091V9.31891C69.9474 10.1349 69.4914 10.5909 68.8794 10.5909ZM79.7881 7.69891C80.8201 7.69891 81.5761 6.87091 81.9001 5.94691L80.8561 5.53891C80.6161 6.11491 80.3281 6.54691 79.6921 6.54691C78.9121 6.54691 78.2401 5.39491 77.0761 5.39491C76.0441 5.39491 75.3001 6.21091 74.9761 7.14691L76.0201 7.55491C76.2481 7.01491 76.5361 6.54691 77.1841 6.54691C77.9521 6.54691 78.6361 7.69891 79.7881 7.69891ZM94.1202 12.0549H95.3202V0.918909H94.1202V12.0549ZM86.5842 7.86691C87.7962 7.19491 88.6962 6.47491 89.2722 5.64691L92.2842 7.74691L92.9202 6.75091L89.8122 4.62691C89.9442 4.24291 90.0162 3.82291 90.0402 3.37891H92.5242V2.31091H90.0402V0.930908H88.8522V2.31091H86.3802V3.37891H88.8522C88.7682 4.75891 87.7842 5.85091 85.9962 6.87091L86.5842 7.86691ZM90.0402 7.45891H88.8402V9.33091C88.5042 9.34291 88.1802 9.34291 87.9042 9.34291H85.8882L85.9482 10.4469H87.7962C89.4282 10.4469 91.6122 10.3029 93.3162 10.0629L93.1842 8.99491C92.2002 9.11491 91.0722 9.21091 90.0402 9.27091V7.45891ZM105.715 5.10691H104.287V1.08691H103.159V11.8269H104.287V6.19891H105.715V12.0549H106.879V0.918909H105.715V5.10691ZM98.7911 9.15091V2.83891H101.767V1.73491H97.5911V10.2429H99.1151C100.339 10.2429 101.347 10.1829 102.415 9.99091L102.295 8.92291C101.191 9.09091 100.231 9.15091 99.2831 9.15091H98.7911ZM115.451 11.4069V1.68691H114.431L111.359 4.13491L112.043 5.03491L114.251 3.27091V11.4069H115.451ZM121.086 11.5869C123.162 11.5869 124.626 10.5069 124.626 8.74291C124.626 7.72291 123.954 6.82291 122.766 6.36691C123.858 5.92291 124.35 5.10691 124.35 4.15891C124.35 2.47891 122.982 1.50691 121.086 1.50691C119.19 1.50691 117.834 2.47891 117.834 4.15891C117.834 5.10691 118.326 5.92291 119.418 6.36691C118.218 6.82291 117.558 7.72291 117.558 8.74291C117.558 10.5069 119.034 11.5869 121.086 11.5869ZM121.086 5.87491C119.79 5.87491 119.022 5.20291 119.022 4.23091C119.022 3.25891 119.79 2.58691 121.086 2.58691C122.394 2.58691 123.162 3.25891 123.162 4.23091C123.162 5.20291 122.394 5.87491 121.086 5.87491ZM121.086 10.5069C119.622 10.5069 118.746 9.77491 118.746 8.70691C118.746 7.66291 119.658 6.90691 121.086 6.90691C122.526 6.90691 123.426 7.66291 123.426 8.70691C123.426 9.77491 122.562 10.5069 121.086 10.5069ZM126.974 11.5869C127.43 11.5869 127.79 11.2269 127.79 10.7709C127.79 10.3149 127.43 9.94291 126.974 9.94291C126.518 9.94291 126.146 10.3149 126.146 10.7709C126.146 11.2269 126.518 11.5869 126.974 11.5869ZM135.156 8.38291V1.68691H133.548L129.084 8.50291V9.48691H133.968V11.5869H135.156V9.48691H136.656V8.38291H135.156ZM133.968 3.05491V8.38291H130.524L133.968 3.05491ZM141.442 11.5869C143.518 11.5869 144.982 10.5069 144.982 8.74291C144.982 7.72291 144.31 6.82291 143.122 6.36691C144.214 5.92291 144.706 5.10691 144.706 4.15891C144.706 2.47891 143.338 1.50691 141.442 1.50691C139.546 1.50691 138.19 2.47891 138.19 4.15891C138.19 5.10691 138.682 5.92291 139.774 6.36691C138.574 6.82291 137.914 7.72291 137.914 8.74291C137.914 10.5069 139.39 11.5869 141.442 11.5869ZM141.442 5.87491C140.146 5.87491 139.378 5.20291 139.378 4.23091C139.378 3.25891 140.146 2.58691 141.442 2.58691C142.75 2.58691 143.518 3.25891 143.518 4.23091C143.518 5.20291 142.75 5.87491 141.442 5.87491ZM141.442 10.5069C139.978 10.5069 139.102 9.77491 139.102 8.70691C139.102 7.66291 140.014 6.90691 141.442 6.90691C142.882 6.90691 143.782 7.66291 143.782 8.70691C143.782 9.77491 142.918 10.5069 141.442 10.5069ZM148.469 6.79891C149.633 6.79891 150.605 5.99491 150.605 4.60291V3.69091C150.605 2.32291 149.633 1.50691 148.469 1.50691C147.293 1.50691 146.321 2.32291 146.321 3.69091V4.60291C146.321 5.99491 147.293 6.79891 148.469 6.79891ZM148.901 11.4069L155.609 1.68691H154.265L147.557 11.4069H148.901ZM148.469 5.79091C147.857 5.79091 147.389 5.34691 147.389 4.53091V3.76291C147.389 2.95891 147.857 2.50291 148.469 2.50291C149.081 2.50291 149.537 2.95891 149.537 3.76291V4.53091C149.537 5.34691 149.081 5.79091 148.469 5.79091ZM154.637 11.5869C155.801 11.5869 156.773 10.7829 156.773 9.39091V8.47891C156.773 7.11091 155.801 6.29491 154.637 6.29491C153.461 6.29491 152.489 7.11091 152.489 8.47891V9.39091C152.489 10.7829 153.461 11.5869 154.637 11.5869ZM154.637 10.5909C154.025 10.5909 153.557 10.1349 153.557 9.31891V8.55091C153.557 7.74691 154.025 7.29091 154.637 7.29091C155.249 7.29091 155.705 7.74691 155.705 8.55091V9.31891C155.705 10.1349 155.249 10.5909 154.637 10.5909ZM8.796 32.0549H9.996V20.9189H8.796V32.0549ZM1.26 27.8669C2.472 27.1949 3.372 26.4749 3.948 25.6469L6.96 27.7469L7.596 26.7509L4.488 24.6269C4.62 24.2429 4.692 23.8229 4.716 23.3789H7.2V22.3109H4.716V20.9309H3.528V22.3109H1.056V23.3789H3.528C3.444 24.7589 2.46 25.8509 0.672 26.8709L1.26 27.8669ZM4.716 27.4589H3.516V29.3309C3.18 29.3429 2.856 29.3429 2.58 29.3429H0.564L0.624 30.4469H2.472C4.104 30.4469 6.288 30.3029 7.992 30.0629L7.86 28.9949C6.876 29.1149 5.748 29.2109 4.716 29.2709V27.4589ZM20.3909 25.1069H18.9629V21.0869H17.8349V31.8269H18.9629V26.1989H20.3909V32.0549H21.5549V20.9189H20.3909V25.1069ZM13.4669 29.1509V22.8389H16.4429V21.7349H12.2669V30.2429H13.7909C15.0149 30.2429 16.0229 30.1829 17.0909 29.9909L16.9709 28.9229C15.8669 29.0909 14.9069 29.1509 13.9589 29.1509H13.4669ZM26.3352 29.1629C26.7792 30.4829 27.8952 31.5869 29.8632 31.5869C31.8912 31.5869 33.2952 30.4709 33.2952 28.8029C33.2952 27.5789 32.5152 26.7149 31.4712 26.3909C32.3592 26.0549 33.0552 25.3109 33.0552 24.1229C33.0552 22.4909 31.6992 21.5069 29.8392 21.5069C28.0632 21.5069 27.0552 22.5749 26.6112 23.7509L27.6912 24.1589C28.0152 23.3549 28.6152 22.5869 29.8392 22.5869C31.0752 22.5869 31.8792 23.1869 31.8792 24.1829C31.8792 25.1669 31.1232 25.8749 29.6832 25.8749H28.4592V26.9189H29.6832C31.3032 26.9189 32.1072 27.7349 32.1072 28.7549C32.1072 29.7749 31.2672 30.5069 29.8632 30.5069C28.4472 30.5069 27.7512 29.6909 27.4032 28.7789L26.3352 29.1629ZM38.4456 31.5869C40.3896 31.5869 41.9856 30.1949 41.9856 27.4829V25.5989C41.9856 22.9109 40.3896 21.5069 38.4456 21.5069C36.5016 21.5069 34.9176 22.9109 34.9176 25.5989V27.4829C34.9176 30.1949 36.5016 31.5869 38.4456 31.5869ZM38.4456 30.5069C37.1376 30.5069 36.1176 29.5229 36.1176 27.4229V25.6709C36.1176 23.5709 37.1376 22.5869 38.4456 22.5869C39.7536 22.5869 40.7736 23.5709 40.7736 25.6709V27.4229C40.7736 29.5229 39.7536 30.5069 38.4456 30.5069ZM47.1292 31.5869C49.0732 31.5869 50.6692 30.1949 50.6692 27.4829V25.5989C50.6692 22.9109 49.0732 21.5069 47.1292 21.5069C45.1852 21.5069 43.6012 22.9109 43.6012 25.5989V27.4829C43.6012 30.1949 45.1852 31.5869 47.1292 31.5869ZM47.1292 30.5069C45.8212 30.5069 44.8012 29.5229 44.8012 27.4229V25.6709C44.8012 23.5709 45.8212 22.5869 47.1292 22.5869C48.4372 22.5869 49.4572 23.5709 49.4572 25.6709V27.4229C49.4572 29.5229 48.4372 30.5069 47.1292 30.5069ZM60.8408 20.9189H59.6408V29.2589H60.8408V24.7949H62.5688V23.7149H60.8408V20.9189ZM52.1288 21.5069V27.1349H57.5408V21.5069H52.1288ZM53.2928 26.0789V22.5629H56.3768V26.0789H53.2928ZM53.7128 28.5629V32.0549H61.4168V30.9629H54.9008V28.5629H53.7128ZM68.5477 28.8389H71.6557V29.7869H72.8437V20.9189H71.6557V27.9269H68.5477V28.8389ZM66.9637 25.3949C68.6437 25.3949 69.9517 24.6989 69.9517 23.3549V23.2109C69.9517 21.8549 68.6437 21.1589 66.9637 21.1589C65.2717 21.1589 63.9637 21.8549 63.9637 23.2109V23.3549C63.9637 24.6989 65.2717 25.3949 66.9637 25.3949ZM65.1037 23.2349C65.1037 22.5269 65.8837 22.1429 66.9637 22.1429C68.0317 22.1429 68.8117 22.5269 68.8117 23.2349V23.3309C68.8117 24.0269 68.0317 24.4109 66.9637 24.4109C65.8837 24.4109 65.1037 24.0269 65.1037 23.3309V23.2349ZM67.2397 29.0909C67.3117 28.4549 67.3597 27.8189 67.3957 27.2309C68.5717 27.1709 69.7957 27.0629 70.8517 26.9189L70.7317 25.9349C68.9677 26.1509 66.8077 26.2829 65.4277 26.2829H63.4237L63.4717 27.2909H65.3317C65.6197 27.2909 65.9197 27.2909 66.2437 27.2789C66.1957 27.8309 66.1477 28.4309 66.0877 29.0069L67.2397 29.0909ZM66.5557 29.4869H65.3677V32.0549H73.3117V30.9629H66.5557V29.4869Z" fill="#666666"/>
</svg>
