<svg width="124" height="51" viewBox="0 0 124 51" fill="none" xmlns="http://www.w3.org/2000/svg">
<path d="M6.12 12.6029H6.48C8.496 12.6029 9.756 11.2709 9.756 9.57891C9.756 7.88691 8.496 6.56691 6.48 6.56691H4.908C2.88 6.56691 1.632 7.88691 1.632 9.57891C1.632 11.2709 2.88 12.6029 4.908 12.6029H5.268V15.3269H0.504V16.1069H10.872V15.3269H6.12V12.6029ZM2.496 9.57891C2.496 8.30691 3.42 7.35891 5.04 7.35891H6.336C7.956 7.35891 8.892 8.30691 8.892 9.57891C8.892 10.8389 7.956 11.8229 6.336 11.8229H5.04C3.42 11.8229 2.496 10.8509 2.496 9.57891ZM20.5709 5.93091V14.4509H21.3989V5.93091H20.5709ZM19.0469 14.1029V6.05091H18.2429V8.65491H16.6709V9.41091H18.2429V14.1029H19.0469ZM17.0789 11.6789C15.9509 11.8469 15.0149 11.9309 13.8629 11.9309H13.0949V9.97491H16.0949V6.59091H12.2909V7.35891H15.2789V9.20691H12.2909V12.7109H13.7069C15.1469 12.7109 16.1189 12.6149 17.1749 12.4349L17.0789 11.6789ZM14.9909 13.8749H14.1269V17.0069H21.9149V16.2149H14.9909V13.8749ZM31.7578 17.0069H32.6098V5.93091H31.7578V17.0069ZM27.2938 7.65891H29.8978V6.87891H23.8618V7.65891H26.4418V8.28291C26.4418 11.0189 25.3138 12.9149 23.4178 14.8829L24.0418 15.4709C25.2058 14.2469 26.0818 13.0469 26.6218 11.7269L29.7178 15.3509L30.3418 14.7749L26.9458 10.8149C27.1738 10.0229 27.2938 9.18291 27.2938 8.28291V7.65891ZM40.2567 11.1989H43.7967V10.4429H36.9447V9.05091H43.5687V6.20691H36.0327V6.95091H42.7047V8.33091H36.0927V11.1989H39.4047V12.5909H34.6407V13.3589H45.0087V12.5909H40.2567V11.1989ZM36.0927 14.2349V17.0069H43.8567V16.2269H36.9447V14.2349H36.0927Z" fill="black"/>
<path d="M13.194 36.6529H14.994V27.2749H13.194V36.6529ZM10.548 36.3829L11.43 34.9069L6.642 31.8829C6.894 31.1989 7.02 30.4609 7.02 29.6689H10.782V28.0669H1.53V29.6689H5.274C5.274 31.9369 3.834 33.6289 0.864 35.2849L1.71 36.7249C3.636 35.6989 5.022 34.5829 5.904 33.3229L10.548 36.3829ZM13.194 39.3349V44.1589H14.994V37.6969H3.762V39.3349H13.194ZM31.1264 27.2749H29.3264V36.3829H31.1264V32.4049H33.7004V30.7669H31.1264V27.2749ZM26.7524 36.2029L27.6524 34.7449L23.0444 31.8109C23.2784 31.1449 23.4044 30.4249 23.4044 29.6689H27.0044V28.0669H18.0764V29.6689H21.6584C21.6584 31.8649 20.2904 33.5209 17.4284 35.1229L18.2744 36.5629C20.1284 35.5729 21.4604 34.4929 22.3064 33.2689L26.7524 36.2029ZM24.0164 37.2649C21.6224 37.2649 20.0744 38.7049 20.0744 40.7029C20.0744 42.7189 21.6224 44.1589 24.0164 44.1589H27.5444C29.9744 44.1589 31.5044 42.7189 31.5044 40.7029C31.5044 38.7049 29.9744 37.2649 27.5444 37.2649H24.0164ZM24.3224 42.5389C22.6844 42.5389 21.8564 41.7649 21.8564 40.7029C21.8564 39.6409 22.6844 38.8669 24.3224 38.8669H27.2564C28.8944 38.8669 29.7224 39.6409 29.7224 40.7029C29.7224 41.7649 28.8944 42.5389 27.2564 42.5389H24.3224ZM49.1487 39.7849V27.2749H47.3487V39.7849H49.1487ZM39.9507 37.0489C42.4167 37.0489 44.4147 35.5909 44.4147 32.5669V32.2249C44.4147 29.1649 42.4167 27.7249 39.9507 27.7249C37.4667 27.7249 35.4687 29.1649 35.4687 32.2249V32.5669C35.4687 35.5909 37.4667 37.0489 39.9507 37.0489ZM39.9507 35.4649C38.4387 35.4649 37.2687 34.4929 37.2687 32.5309V32.2429C37.2687 30.2629 38.4387 29.3089 39.9507 29.3089C41.4447 29.3089 42.6147 30.2629 42.6147 32.2429V32.5309C42.6147 34.4929 41.4447 35.4649 39.9507 35.4649ZM49.8507 43.9789V42.3409H39.8967V38.5609H38.0967V43.9789H49.8507ZM68.8292 27.2749V39.7849H70.6112V27.2749H68.8292ZM66.0752 36.9949L67.0832 35.6269L62.2232 31.9909C62.5292 31.1269 62.6732 30.1909 62.6732 29.2009V27.9049H60.9092V29.2009C60.9092 31.8649 59.5412 33.9709 56.4812 35.9329L57.4712 37.3369C59.2892 36.1669 60.6032 34.9429 61.4672 33.5569L66.0752 36.9949ZM61.3592 38.7409H59.5772V43.9789H71.3132V42.3409H61.3592V38.7409ZM84.7815 33.2869C86.3115 32.8549 87.2295 31.9369 87.2295 30.4969C87.2295 28.4449 85.3575 27.4549 82.5315 27.4549H79.9035C77.0955 27.4549 75.2055 28.4449 75.2055 30.4969C75.2055 31.9369 76.1415 32.8729 77.6715 33.2869V35.1229H73.3695V36.6709H89.0655V35.1229H84.7815V33.2869ZM77.0055 30.5149C77.0055 29.4889 78.1575 28.9669 80.2275 28.9669H82.2255C84.2955 28.9669 85.4475 29.4889 85.4475 30.5149C85.4475 31.5049 84.2955 32.0629 82.2255 32.0629H80.2275C78.1575 32.0629 77.0055 31.5229 77.0055 30.5149ZM79.3815 33.5389C80.6055 33.5569 81.8475 33.5569 83.0715 33.5389V35.1229H79.3815V33.5389ZM79.3095 38.0929C76.6095 38.0929 75.1155 39.3709 75.1155 41.1169C75.1155 42.8809 76.6095 44.1589 79.3095 44.1589H83.1255C85.8255 44.1589 87.3195 42.8809 87.3195 41.1169C87.3195 39.3709 85.8255 38.0929 83.1255 38.0929H79.3095ZM79.6695 42.5929C77.7795 42.5929 76.9155 42.0169 76.9155 41.0989C76.9155 40.2169 77.7795 39.6409 79.6695 39.6409H82.7835C84.6735 39.6409 85.5375 40.2169 85.5375 41.0989C85.5375 42.0169 84.6735 42.5929 82.7835 42.5929H79.6695ZM103.272 33.5569H101.13V27.5269H99.4379V43.6369H101.13V35.1949H103.272V43.9789H105.018V27.2749H103.272V33.5569ZM92.8859 39.6229V30.1549H97.3499V28.4989H91.0859V41.2609H93.3719C95.2079 41.2609 96.7199 41.1709 98.3219 40.8829L98.1419 39.2809C96.4859 39.5329 95.0459 39.6229 93.6239 39.6229H92.8859ZM109.162 34.1149C111.952 33.6469 113.824 33.0349 114.94 32.1889L121.438 34.1149L121.96 32.6749L115.984 30.9289C116.128 30.6049 116.218 30.2449 116.236 29.8489H121.114V28.3549H116.29V26.9149H114.562V28.3549H109.594V29.8489H114.562C114.328 31.0549 112.546 32.0269 108.73 32.6389L109.162 34.1149ZM123.202 34.7449H107.506V36.1669H114.472V37.4629H109.342V38.8489H119.494V40.0369H109.432V44.0689H121.726V42.6649H111.232V41.4049H121.294V37.4629H116.254V36.1669H123.202V34.7449Z" fill="black"/>
</svg>
