<svg width="183" height="38" viewBox="0 0 183 38" fill="none" xmlns="http://www.w3.org/2000/svg">
<path d="M10.262 13.3629H11.662V0.370908H10.262V13.3629ZM1.47 8.47691C2.884 7.69291 3.934 6.85291 4.606 5.88691L8.12 8.33691L8.862 7.17491L5.236 4.69691C5.39 4.24891 5.474 3.75891 5.502 3.24091H8.4V1.99491H5.502V0.384908H4.116V1.99491H1.232V3.24091H4.116C4.018 4.85091 2.87 6.12491 0.784 7.31491L1.47 8.47691ZM5.502 8.00091H4.102V10.1849C3.71 10.1989 3.332 10.1989 3.01 10.1989H0.658L0.728 11.4869H2.884C4.788 11.4869 7.336 11.3189 9.324 11.0389L9.17 9.79291C8.022 9.93291 6.706 10.0449 5.502 10.1149V8.00091ZM23.5374 5.11691H20.7234V6.39091H23.5374V13.3629H24.9374V0.370908H23.5374V5.11691ZM18.6934 2.66691H21.5914V1.39291H14.4654V2.66691H17.3214V3.21291C17.3214 6.20891 16.1174 8.39291 13.9474 10.6609L14.9414 11.5989C16.2154 10.2829 17.1674 8.95291 17.7974 7.52491L21.0734 11.4589L22.1094 10.5349L18.3294 6.02691C18.5674 5.14491 18.6934 4.20691 18.6934 3.21291V2.66691ZM35.1484 12.6069V1.26691H33.9584L30.3744 4.12291L31.1724 5.17291L33.7484 3.11491V12.6069H35.1484ZM41.8203 12.6069V1.26691H40.6303L37.0463 4.12291L37.8443 5.17291L40.4203 3.11491V12.6069H41.8203ZM45.1322 12.8169C45.6642 12.8169 46.0842 12.3969 46.0842 11.8649C46.0842 11.3329 45.6642 10.8989 45.1322 10.8989C44.6002 10.8989 44.1662 11.3329 44.1662 11.8649C44.1662 12.3969 44.6002 12.8169 45.1322 12.8169ZM51.9899 12.8169C54.2579 12.8169 56.1199 11.1929 56.1199 8.02891V5.83091C56.1199 2.69491 54.2579 1.05691 51.9899 1.05691C49.7219 1.05691 47.8739 2.69491 47.8739 5.83091V8.02891C47.8739 11.1929 49.7219 12.8169 51.9899 12.8169ZM51.9899 11.5569C50.4639 11.5569 49.2739 10.4089 49.2739 7.95891V5.91491C49.2739 3.46491 50.4639 2.31691 51.9899 2.31691C53.5159 2.31691 54.7059 3.46491 54.7059 5.91491V7.95891C54.7059 10.4089 53.5159 11.5569 51.9899 11.5569ZM65.6487 12.6069V11.3189H59.9927L63.1987 8.14091C64.5567 6.79691 65.3827 5.67691 65.3827 4.13691C65.3827 2.23291 63.9267 1.05691 61.7427 1.05691C59.6147 1.05691 58.3827 2.59691 57.9207 4.26291L59.2507 4.58491C59.6287 3.33891 60.3427 2.31691 61.7427 2.31691C63.1847 2.31691 63.9967 3.05891 63.9967 4.19291C63.9967 5.24291 63.4087 6.12491 62.1347 7.38491L57.9767 11.5149V12.6069H65.6487ZM73.1633 7.23091C74.5213 7.23091 75.6553 6.29291 75.6553 4.66891V3.60491C75.6553 2.00891 74.5213 1.05691 73.1633 1.05691C71.7913 1.05691 70.6573 2.00891 70.6573 3.60491V4.66891C70.6573 6.29291 71.7913 7.23091 73.1633 7.23091ZM73.6673 12.6069L81.4933 1.26691H79.9253L72.0993 12.6069H73.6673ZM73.1633 6.05491C72.4493 6.05491 71.9033 5.53691 71.9033 4.58491V3.68891C71.9033 2.75091 72.4493 2.21891 73.1633 2.21891C73.8773 2.21891 74.4093 2.75091 74.4093 3.68891V4.58491C74.4093 5.53691 73.8773 6.05491 73.1633 6.05491ZM80.3593 12.8169C81.7173 12.8169 82.8513 11.8789 82.8513 10.2549V9.19091C82.8513 7.59491 81.7173 6.64291 80.3593 6.64291C78.9873 6.64291 77.8533 7.59491 77.8533 9.19091V10.2549C77.8533 11.8789 78.9873 12.8169 80.3593 12.8169ZM80.3593 11.6549C79.6453 11.6549 79.0993 11.1229 79.0993 10.1709V9.27491C79.0993 8.33691 79.6453 7.80491 80.3593 7.80491C81.0733 7.80491 81.6053 8.33691 81.6053 9.27491V10.1709C81.6053 11.1229 81.0733 11.6549 80.3593 11.6549ZM93.0861 8.28091C94.2901 8.28091 95.1721 7.31491 95.5501 6.23691L94.3321 5.76091C94.0521 6.43291 93.7161 6.93691 92.9741 6.93691C92.0641 6.93691 91.2801 5.59291 89.9221 5.59291C88.7181 5.59291 87.8501 6.54491 87.4721 7.63691L88.6901 8.11291C88.9561 7.48291 89.2921 6.93691 90.0481 6.93691C90.9441 6.93691 91.7421 8.28091 93.0861 8.28091ZM109.807 13.3629H111.207V0.370908H109.807V13.3629ZM101.015 8.47691C102.429 7.69291 103.479 6.85291 104.151 5.88691L107.665 8.33691L108.407 7.17491L104.781 4.69691C104.935 4.24891 105.019 3.75891 105.047 3.24091H107.945V1.99491H105.047V0.384908H103.661V1.99491H100.777V3.24091H103.661C103.563 4.85091 102.415 6.12491 100.329 7.31491L101.015 8.47691ZM105.047 8.00091H103.647V10.1849C103.255 10.1989 102.877 10.1989 102.555 10.1989H100.203L100.273 11.4869H102.429C104.333 11.4869 106.881 11.3189 108.869 11.0389L108.715 9.79291C107.567 9.93291 106.251 10.0449 105.047 10.1149V8.00091ZM123.334 5.25691H121.668V0.566908H120.352V13.0969H121.668V6.53091H123.334V13.3629H124.692V0.370908H123.334V5.25691ZM115.256 9.97491V2.61091H118.728V1.32291H113.856V11.2489H115.634C117.062 11.2489 118.238 11.1789 119.484 10.9549L119.344 9.70891C118.056 9.90491 116.936 9.97491 115.83 9.97491H115.256ZM134.693 12.6069V1.26691H133.503L129.919 4.12291L130.717 5.17291L133.293 3.11491V12.6069H134.693ZM141.267 12.8169C143.689 12.8169 145.397 11.5569 145.397 9.49891C145.397 8.30891 144.613 7.25891 143.227 6.72691C144.501 6.20891 145.075 5.25691 145.075 4.15091C145.075 2.19091 143.479 1.05691 141.267 1.05691C139.055 1.05691 137.473 2.19091 137.473 4.15091C137.473 5.25691 138.047 6.20891 139.321 6.72691C137.921 7.25891 137.151 8.30891 137.151 9.49891C137.151 11.5569 138.873 12.8169 141.267 12.8169ZM141.267 6.15291C139.755 6.15291 138.859 5.36891 138.859 4.23491C138.859 3.10091 139.755 2.31691 141.267 2.31691C142.793 2.31691 143.689 3.10091 143.689 4.23491C143.689 5.36891 142.793 6.15291 141.267 6.15291ZM141.267 11.5569C139.559 11.5569 138.537 10.7029 138.537 9.45691C138.537 8.23891 139.601 7.35691 141.267 7.35691C142.947 7.35691 143.997 8.23891 143.997 9.45691C143.997 10.7029 142.989 11.5569 141.267 11.5569ZM148.136 12.8169C148.668 12.8169 149.088 12.3969 149.088 11.8649C149.088 11.3329 148.668 10.8989 148.136 10.8989C147.604 10.8989 147.17 11.3329 147.17 11.8649C147.17 12.3969 147.604 12.8169 148.136 12.8169ZM157.682 9.07891V1.26691H155.806L150.598 9.21891V10.3669H156.296V12.8169H157.682V10.3669H159.432V9.07891H157.682ZM156.296 2.86291V9.07891H152.278L156.296 2.86291ZM165.015 12.8169C167.437 12.8169 169.145 11.5569 169.145 9.49891C169.145 8.30891 168.361 7.25891 166.975 6.72691C168.249 6.20891 168.823 5.25691 168.823 4.15091C168.823 2.19091 167.227 1.05691 165.015 1.05691C162.803 1.05691 161.221 2.19091 161.221 4.15091C161.221 5.25691 161.795 6.20891 163.069 6.72691C161.669 7.25891 160.899 8.30891 160.899 9.49891C160.899 11.5569 162.621 12.8169 165.015 12.8169ZM165.015 6.15291C163.503 6.15291 162.607 5.36891 162.607 4.23491C162.607 3.10091 163.503 2.31691 165.015 2.31691C166.541 2.31691 167.437 3.10091 167.437 4.23491C167.437 5.36891 166.541 6.15291 165.015 6.15291ZM165.015 11.5569C163.307 11.5569 162.285 10.7029 162.285 9.45691C162.285 8.23891 163.349 7.35691 165.015 7.35691C166.695 7.35691 167.745 8.23891 167.745 9.45691C167.745 10.7029 166.737 11.5569 165.015 11.5569ZM173.214 7.23091C174.572 7.23091 175.706 6.29291 175.706 4.66891V3.60491C175.706 2.00891 174.572 1.05691 173.214 1.05691C171.842 1.05691 170.708 2.00891 170.708 3.60491V4.66891C170.708 6.29291 171.842 7.23091 173.214 7.23091ZM173.718 12.6069L181.544 1.26691H179.976L172.15 12.6069H173.718ZM173.214 6.05491C172.5 6.05491 171.954 5.53691 171.954 4.58491V3.68891C171.954 2.75091 172.5 2.21891 173.214 2.21891C173.928 2.21891 174.46 2.75091 174.46 3.68891V4.58491C174.46 5.53691 173.928 6.05491 173.214 6.05491ZM180.41 12.8169C181.768 12.8169 182.902 11.8789 182.902 10.2549V9.19091C182.902 7.59491 181.768 6.64291 180.41 6.64291C179.038 6.64291 177.904 7.59491 177.904 9.19091V10.2549C177.904 11.8789 179.038 12.8169 180.41 12.8169ZM180.41 11.6549C179.696 11.6549 179.15 11.1229 179.15 10.1709V9.27491C179.15 8.33691 179.696 7.80491 180.41 7.80491C181.124 7.80491 181.656 8.33691 181.656 9.27491V10.1709C181.656 11.1229 181.124 11.6549 180.41 11.6549ZM10.262 37.3629H11.662V24.3709H10.262V37.3629ZM1.47 32.4769C2.884 31.6929 3.934 30.8529 4.606 29.8869L8.12 32.3369L8.862 31.1749L5.236 28.6969C5.39 28.2489 5.474 27.7589 5.502 27.2409H8.4V25.9949H5.502V24.3849H4.116V25.9949H1.232V27.2409H4.116C4.018 28.8509 2.87 30.1249 0.784 31.3149L1.47 32.4769ZM5.502 32.0009H4.102V34.1849C3.71 34.1989 3.332 34.1989 3.01 34.1989H0.658L0.728 35.4869H2.884C4.788 35.4869 7.336 35.3189 9.324 35.0389L9.17 33.7929C8.022 33.9329 6.706 34.0449 5.502 34.1149V32.0009ZM23.7894 29.2569H22.1234V24.5669H20.8074V37.0969H22.1234V30.5309H23.7894V37.3629H25.1474V24.3709H23.7894V29.2569ZM15.7114 33.9749V26.6109H19.1834V25.3229H14.3114V35.2489H16.0894C17.5174 35.2489 18.6934 35.1789 19.9394 34.9549L19.7994 33.7089C18.5114 33.9049 17.3914 33.9749 16.2854 33.9749H15.7114ZM30.7244 33.9889C31.2424 35.5289 32.5444 36.8169 34.8404 36.8169C37.2064 36.8169 38.8444 35.5149 38.8444 33.5689C38.8444 32.1409 37.9344 31.1329 36.7164 30.7549C37.7524 30.3629 38.5644 29.4949 38.5644 28.1089C38.5644 26.2049 36.9824 25.0569 34.8124 25.0569C32.7404 25.0569 31.5644 26.3029 31.0464 27.6749L32.3064 28.1509C32.6844 27.2129 33.3844 26.3169 34.8124 26.3169C36.2544 26.3169 37.1924 27.0169 37.1924 28.1789C37.1924 29.3269 36.3104 30.1529 34.6304 30.1529H33.2024V31.3709H34.6304C36.5204 31.3709 37.4584 32.3229 37.4584 33.5129C37.4584 34.7029 36.4784 35.5569 34.8404 35.5569C33.1884 35.5569 32.3764 34.6049 31.9704 33.5409L30.7244 33.9889ZM44.8532 36.8169C47.1212 36.8169 48.9832 35.1929 48.9832 32.0289V29.8309C48.9832 26.6949 47.1212 25.0569 44.8532 25.0569C42.5852 25.0569 40.7372 26.6949 40.7372 29.8309V32.0289C40.7372 35.1929 42.5852 36.8169 44.8532 36.8169ZM44.8532 35.5569C43.3272 35.5569 42.1372 34.4089 42.1372 31.9589V29.9149C42.1372 27.4649 43.3272 26.3169 44.8532 26.3169C46.3792 26.3169 47.5692 27.4649 47.5692 29.9149V31.9589C47.5692 34.4089 46.3792 35.5569 44.8532 35.5569ZM54.984 36.8169C57.252 36.8169 59.114 35.1929 59.114 32.0289V29.8309C59.114 26.6949 57.252 25.0569 54.984 25.0569C52.716 25.0569 50.868 26.6949 50.868 29.8309V32.0289C50.868 35.1929 52.716 36.8169 54.984 36.8169ZM54.984 35.5569C53.458 35.5569 52.268 34.4089 52.268 31.9589V29.9149C52.268 27.4649 53.458 26.3169 54.984 26.3169C56.51 26.3169 57.7 27.4649 57.7 29.9149V31.9589C57.7 34.4089 56.51 35.5569 54.984 35.5569ZM70.9809 24.3709H69.5809V34.1009H70.9809V28.8929H72.9969V27.6329H70.9809V24.3709ZM60.8169 25.0569V31.6229H67.1309V25.0569H60.8169ZM62.1749 30.3909V26.2889H65.7729V30.3909H62.1749ZM62.6649 33.2889V37.3629H71.6529V36.0889H64.0509V33.2889H62.6649ZM79.9723 33.6109H83.5983V34.7169H84.9843V24.3709H83.5983V32.5469H79.9723V33.6109ZM78.1243 29.5929C80.0843 29.5929 81.6103 28.7809 81.6103 27.2129V27.0449C81.6103 25.4629 80.0843 24.6509 78.1243 24.6509C76.1503 24.6509 74.6243 25.4629 74.6243 27.0449V27.2129C74.6243 28.7809 76.1503 29.5929 78.1243 29.5929ZM75.9543 27.0729C75.9543 26.2469 76.8643 25.7989 78.1243 25.7989C79.3703 25.7989 80.2803 26.2469 80.2803 27.0729V27.1849C80.2803 27.9969 79.3703 28.4449 78.1243 28.4449C76.8643 28.4449 75.9543 27.9969 75.9543 27.1849V27.0729ZM78.4463 33.9049C78.5303 33.1629 78.5863 32.4209 78.6283 31.7349C80.0003 31.6649 81.4283 31.5389 82.6603 31.3709L82.5203 30.2229C80.4623 30.4749 77.9423 30.6289 76.3323 30.6289H73.9943L74.0503 31.8049H76.2203C76.5563 31.8049 76.9063 31.8049 77.2843 31.7909C77.2283 32.4349 77.1723 33.1349 77.1023 33.8069L78.4463 33.9049ZM77.6483 34.3669H76.2623V37.3629H85.5303V36.0889H77.6483V34.3669Z" fill="#666666"/>
</svg>
