<svg width="50" height="30" viewBox="0 0 50 30" fill="none" xmlns="http://www.w3.org/2000/svg">
<rect width="50" height="30" rx="4" fill="black"/>
<path d="M15.5769 16.984C15.2969 17.12 14.9889 17.216 14.6529 17.272C14.3169 17.328 13.9689 17.356 13.6089 17.356H11.8089C11.4569 17.356 11.2129 17.296 11.0769 17.176C10.9409 17.056 10.8729 16.804 10.8729 16.42V10.444H12.3249V15.904C12.3249 15.992 12.3369 16.052 12.3609 16.084C12.3929 16.108 12.4529 16.12 12.5409 16.12H13.6449C13.9889 16.12 14.3209 16.096 14.6409 16.048C14.9609 15.992 15.2729 15.896 15.5769 15.76V9.988H17.0049V13.276H17.7369V9.856H19.1769V20.152H17.7369V14.512H17.0049V19.816H15.5769V16.984ZM25.719 15.892H24.411V14.848C24.323 15.112 24.203 15.364 24.051 15.604C23.899 15.844 23.699 16.084 23.451 16.324C23.203 16.556 22.899 16.796 22.539 17.044C22.187 17.292 21.767 17.552 21.279 17.824L20.523 16.732C21.107 16.372 21.571 16.056 21.915 15.784C22.259 15.512 22.519 15.26 22.695 15.028C22.879 14.788 22.995 14.556 23.043 14.332C23.099 14.108 23.127 13.864 23.127 13.6V11.728H20.655V10.492H24.591V11.992H25.719V9.988H27.075V19.852H25.719V15.892ZM27.651 9.856H29.091V20.176H27.651V9.856ZM25.719 14.656V13.228H24.591V13.336C24.591 13.584 24.579 13.816 24.555 14.032C24.531 14.248 24.499 14.456 24.459 14.656H25.719ZM36.113 10.384V11.62H34.217V11.716C34.217 11.98 34.281 12.236 34.409 12.484C34.545 12.724 34.725 12.952 34.949 13.168C35.173 13.392 35.429 13.596 35.717 13.78C36.005 13.964 36.317 14.128 36.653 14.272L35.885 15.244C35.405 15.028 34.953 14.756 34.529 14.428C34.113 14.092 33.785 13.744 33.545 13.384C33.281 13.792 32.933 14.168 32.501 14.512C32.077 14.856 31.609 15.16 31.097 15.424L30.329 14.392C30.649 14.232 30.953 14.052 31.241 13.852C31.537 13.652 31.793 13.436 32.009 13.204C32.225 12.98 32.393 12.744 32.513 12.496C32.641 12.248 32.709 11.992 32.717 11.728V11.62H30.857V10.384H36.113ZM34.289 14.68V16.708H34.349C34.781 16.708 35.213 16.68 35.645 16.624C36.085 16.568 36.485 16.452 36.845 16.276V9.844H38.345V13.312H39.725V14.572H38.345V20.164H36.845V17.5C36.485 17.668 36.077 17.788 35.621 17.86C35.173 17.924 34.753 17.956 34.361 17.956H30.293V16.708H32.789V14.68H34.289Z" fill="white"/>
</svg>
