<svg width="24" height="34" viewBox="0 0 24 34" fill="none" xmlns="http://www.w3.org/2000/svg">
<path d="M9.096 22.4V21.112H3.44L6.646 17.934C8.004 16.59 8.83 15.47 8.83 13.93C8.83 12.026 7.374 10.85 5.19 10.85C3.062 10.85 1.83 12.39 1.368 14.056L2.698 14.378C3.076 13.132 3.79 12.11 5.19 12.11C6.632 12.11 7.444 12.852 7.444 13.986C7.444 15.036 6.856 15.918 5.582 17.178L1.424 21.308V22.4H9.096ZM16.693 17.108H20.305V17.528H21.705V10.164H20.305V16.142H16.693V17.108ZM14.845 14.112C16.819 14.112 18.331 13.44 18.331 12.25V12.166C18.331 10.962 16.819 10.318 14.845 10.318C12.843 10.318 11.345 10.962 11.345 12.166V12.25C11.345 13.44 12.843 14.112 14.845 14.112ZM12.675 12.18C12.675 11.69 13.557 11.382 14.845 11.382C16.119 11.382 17.001 11.69 17.001 12.18V12.222C17.001 12.726 16.119 13.034 14.845 13.034C13.557 13.034 12.675 12.726 12.675 12.222V12.18ZM14.005 15.848C13.963 16.408 13.921 17.01 13.851 17.57L15.209 17.654C15.279 17.038 15.321 16.394 15.363 15.792C16.721 15.722 18.163 15.61 19.381 15.442L19.255 14.434C17.197 14.686 14.649 14.826 13.053 14.826H10.701L10.757 15.862H12.941C13.277 15.862 13.627 15.862 14.005 15.848ZM14.341 21.182H21.705V18.13H12.913V19.222H20.347V20.104H12.983V23.226H22.181V22.12H14.341V21.182Z" fill="#666666"/>
</svg>
