<svg width="24" height="34" viewBox="0 0 24 34" fill="none" xmlns="http://www.w3.org/2000/svg">
<path d="M0.742 19.782C1.26 21.322 2.562 22.61 4.858 22.61C7.224 22.61 8.862 21.308 8.862 19.362C8.862 17.934 7.952 16.926 6.734 16.548C7.77 16.156 8.582 15.288 8.582 13.902C8.582 11.998 7 10.85 4.83 10.85C2.758 10.85 1.582 12.096 1.064 13.468L2.324 13.944C2.702 13.006 3.402 12.11 4.83 12.11C6.272 12.11 7.21 12.81 7.21 13.972C7.21 15.12 6.328 15.946 4.648 15.946H3.22V17.164H4.648C6.538 17.164 7.476 18.116 7.476 19.306C7.476 20.496 6.496 21.35 4.858 21.35C3.206 21.35 2.394 20.398 1.988 19.334L0.742 19.782ZM16.4527 17.108H20.0647V17.528H21.4647V10.164H20.0647V16.142H16.4527V17.108ZM14.6047 14.112C16.5787 14.112 18.0907 13.44 18.0907 12.25V12.166C18.0907 10.962 16.5787 10.318 14.6047 10.318C12.6027 10.318 11.1047 10.962 11.1047 12.166V12.25C11.1047 13.44 12.6027 14.112 14.6047 14.112ZM12.4347 12.18C12.4347 11.69 13.3167 11.382 14.6047 11.382C15.8787 11.382 16.7607 11.69 16.7607 12.18V12.222C16.7607 12.726 15.8787 13.034 14.6047 13.034C13.3167 13.034 12.4347 12.726 12.4347 12.222V12.18ZM13.7647 15.848C13.7227 16.408 13.6807 17.01 13.6107 17.57L14.9687 17.654C15.0387 17.038 15.0807 16.394 15.1227 15.792C16.4807 15.722 17.9227 15.61 19.1407 15.442L19.0147 14.434C16.9567 14.686 14.4087 14.826 12.8127 14.826H10.4607L10.5167 15.862H12.7007C13.0367 15.862 13.3867 15.862 13.7647 15.848ZM14.1007 21.182H21.4647V18.13H12.6727V19.222H20.1067V20.104H12.7427V23.226H21.9407V22.12H14.1007V21.182Z" fill="#666666"/>
</svg>
