<svg width="92" height="34" viewBox="0 0 92 34" fill="none" xmlns="http://www.w3.org/2000/svg">
<path d="M17.835 8.8701L16.055 7.1001L6.16504 17.0001L16.065 26.9001L17.835 25.1301L9.70504 17.0001L17.835 8.8701Z" fill="black"/>
<path d="M44.74 14.24H42.88V7.78H40.46V25.72H42.88V16.56H44.74V26.16H47.22V7.48H44.74V14.24ZM33.94 20.86V8.76H31.34V23.2H34.34C36.08 23.2 37.62 23.12 39.36 22.78L39.12 20.54C37.38 20.78 35.92 20.86 34.66 20.86H33.94ZM69.7458 14.24V7.48H67.2058V26.16H69.7458V16.56H72.4458V14.24H69.7458ZM61.1658 11.2H65.0458V8.86H54.9058V11.2H58.6658V11.74C58.6658 15.72 57.1658 18.78 54.1658 22L55.9858 23.66C57.6258 21.96 58.8658 20.2 59.7258 18.34L63.8458 23.48L65.7658 21.82L60.7258 15.52C61.0258 14.3 61.1658 13.06 61.1658 11.74V11.2ZM88.7106 7.48H86.1506V21.3H88.7106V14.22H91.4106V11.9H88.7106V7.48ZM83.2106 18.42L84.6706 16.52L79.7506 12.68C80.0506 11.72 80.2106 10.7 80.2106 9.6V8.14H77.7106V9.6C77.7106 12.3 76.4706 14.64 73.1706 16.84L74.6306 18.8C76.4306 17.6 77.7706 16.32 78.6906 14.9L83.2106 18.42ZM76.4306 20.12V26.16H89.5906V23.84H78.9706V20.12H76.4306Z" fill="black"/>
</svg>
