<svg width="68" height="34" viewBox="0 0 68 34" fill="none" xmlns="http://www.w3.org/2000/svg">
<path d="M17.835 8.8701L16.055 7.1001L6.16504 17.0001L16.065 26.9001L17.835 25.1301L9.70504 17.0001L17.835 8.8701Z" fill="black"/>
<path d="M45.84 14.24V7.48H43.28V26.16H45.84V16.56H48.54V14.24H45.84ZM40.3 23.2V8.76H30.92V23.2H40.3ZM37.76 11.1V20.86H33.48V11.1H37.76ZM65.8448 26.16V7.48H63.2848V26.16H65.8448ZM55.3648 23.78C58.1448 23.78 60.4448 22.02 60.4448 17.46V14.6C60.4448 10.04 58.1448 8.28 55.3648 8.28C52.5648 8.28 50.2648 10.04 50.2648 14.6V17.46C50.2648 22.02 52.5648 23.78 55.3648 23.78ZM55.3648 21.46C53.9848 21.46 52.8248 20.46 52.8248 17.46V14.6C52.8248 11.6 53.9848 10.6 55.3648 10.6C56.7448 10.6 57.8848 11.6 57.8848 14.6V17.46C57.8848 20.46 56.7448 21.46 55.3648 21.46Z" fill="black"/>
</svg>
