<svg width="110" height="14" viewBox="0 0 110 14" fill="none" xmlns="http://www.w3.org/2000/svg">
<path d="M10.934 5.05V0.163999H9.534V13.156H10.934V6.324H12.95V5.05H10.934ZM7.084 11.056V1.116H0.77V11.056H7.084ZM5.684 2.404V9.768H2.17V2.404H5.684ZM24.9374 13.156V0.163999H23.5374V13.156H24.9374ZM17.7554 11.462C19.6314 11.462 21.1854 10.23 21.1854 7.108V5.134C21.1854 2.012 19.6314 0.78 17.7554 0.78C15.8514 0.78 14.2974 2.012 14.2974 5.134V7.108C14.2974 10.23 15.8514 11.462 17.7554 11.462ZM17.7554 10.188C16.6074 10.188 15.6974 9.348 15.6974 7.094V5.148C15.6974 2.88 16.6074 2.054 17.7554 2.054C18.9034 2.054 19.7994 2.88 19.7994 5.148V7.094C19.7994 9.348 18.9034 10.188 17.7554 10.188ZM33.8868 7.864H37.8068V1.032H28.5808V7.864H32.5008V10.902H27.0828V12.19H39.2908V10.902H33.8868V7.864ZM36.4068 2.306V6.604H29.9808V2.306H36.4068ZM51.4882 7.178V0.163999H50.1022V7.178H51.4882ZM43.4522 6.73C45.3142 6.73 47.2742 6.548 48.8562 6.268L48.6882 5.036C47.0222 5.302 45.1742 5.456 43.6902 5.456H42.6122V0.78H41.1982V6.73H43.4522ZM51.4882 13.156V8.004H42.9062V13.156H51.4882ZM44.2922 9.236H50.1022V11.896H44.2922V9.236ZM64.7636 13.156V0.163999H63.3636V13.156H64.7636ZM57.8896 7.934C59.8216 7.934 61.3756 6.828 61.3756 4.49V4.238C61.3756 1.886 59.8216 0.78 57.8896 0.78C55.9576 0.78 54.3896 1.886 54.3896 4.238V4.49C54.3896 6.828 55.9576 7.934 57.8896 7.934ZM57.8896 6.66C56.6996 6.66 55.7896 5.946 55.7896 4.476V4.238C55.7896 2.768 56.6996 2.054 57.8896 2.054C59.0656 2.054 59.9896 2.768 59.9896 4.238V4.476C59.9896 5.946 59.0656 6.66 57.8896 6.66ZM55.9856 11.14C57.8896 11.14 60.4376 10.986 62.4256 10.692L62.2716 9.46C60.2416 9.698 57.7076 9.866 56.1116 9.866H53.7596L53.8296 11.14H55.9856ZM80.9806 5.806L81.5546 4.644L76.8786 2.46C77.1026 1.998 77.2006 1.508 77.2006 0.976V0.303999H75.8426V0.976C75.8426 2.376 74.4566 3.594 71.3346 4.602L71.8106 5.806C73.8266 5.176 75.2266 4.434 76.0946 3.566L80.9806 5.806ZM70.3406 8.144H75.7586V10.51H77.1446V8.144H82.5486V6.856H70.3406V8.144ZM71.9366 9.39V13.156H81.2606V11.854H73.3366V9.39H71.9366ZM94.018 5.05V0.163999H92.618V13.156H94.018V6.324H96.02V5.05H94.018ZM87.998 2.46H90.812V1.186H83.868V2.46H86.64V3.02C86.64 6.016 85.478 8.186 83.364 10.468L84.358 11.392C85.59 10.076 86.514 8.76 87.116 7.346L90.28 11.252L91.33 10.342L87.648 5.82C87.886 4.924 87.998 4 87.998 3.02V2.46ZM107.293 0.163999H105.893V9.894H107.293V4.686H109.309V3.426H107.293V0.163999ZM103.807 7.724L104.605 6.674L100.965 3.832C101.203 3.16 101.315 2.432 101.315 1.662V0.654H99.9574V1.662C99.9574 3.734 98.9074 5.386 96.6254 6.912L97.4094 7.99C98.7534 7.094 99.7474 6.128 100.405 5.064L103.807 7.724ZM98.9634 9.082V13.156H107.965V11.882H100.363V9.082H98.9634Z" fill="white"/>
</svg>
