<svg width="62" height="24" viewBox="0 0 62 24" fill="none" xmlns="http://www.w3.org/2000/svg">
<path d="M9.05019 11.644V15.052H10.2502V6.712H9.05019V8.284H6.60219C6.08619 7.42 5.16219 7.012 4.09419 7.012C2.45019 7.012 1.13019 7.972 1.13019 10.012V10.24C1.13019 12.256 2.45019 13.228 4.09419 13.228C5.28219 13.228 6.30219 12.712 6.77019 11.644H9.05019ZM2.33019 10.024C2.33019 8.704 3.09819 8.068 4.09419 8.068C5.06619 8.068 5.83419 8.704 5.83419 10.024V10.216C5.83419 11.524 5.06619 12.172 4.09419 12.172C3.09819 12.172 2.33019 11.524 2.33019 10.216V10.024ZM9.05019 10.672H7.01019C7.02219 10.528 7.03419 10.384 7.03419 10.24V10.012C7.03419 9.736 7.01019 9.484 6.96219 9.256H9.05019V10.672ZM4.08219 14.236H2.88219V17.848H10.7182V16.756H4.08219V14.236ZM20.4291 9.196V10.264H17.9091V11.236H20.4291V12.148H21.6291V6.712H20.4291V8.224H18.1611C18.1731 8.092 18.1851 7.948 18.1851 7.804V7.24H12.8571V8.308H16.9851C16.8291 9.532 15.2571 10.648 12.6171 11.332L13.0251 12.376C15.5331 11.716 17.2731 10.72 17.9091 9.196H20.4291ZM15.4611 15.832H21.6291V12.844H14.2011V13.84H20.4291V14.848H14.2611V17.908H22.0371V16.888H15.4611V15.832ZM24.632 12.904C26.444 12.292 27.68 11.608 28.436 10.828L32.672 12.904L33.2 11.872L29.096 9.88C29.24 9.544 29.324 9.196 29.336 8.824H32.588V7.768H29.336V6.532H28.136V7.768H24.8V8.824H28.136C28.052 9.928 26.816 10.936 24.176 11.848L24.632 12.904ZM23.456 13.852V14.944H28.1V17.968H29.288V14.944H33.92V13.852H23.456ZM43.7509 10.9V6.712H42.5509V17.848H43.7509V11.992H45.4789V10.9H43.7509ZM39.3109 8.68V8.812C39.3109 11.164 37.8109 13.72 34.9909 15.568L35.7349 16.516C38.7349 14.464 40.5109 11.728 40.5109 8.572V7.588H35.2429V8.68H39.3109Z" fill="white"/>
<path d="M58.6666 12.6666H54.6666V16.6666H53.3333V12.6666H49.3333V11.3333H53.3333V7.33325H54.6666V11.3333H58.6666V12.6666Z" fill="white"/>
</svg>
