<svg width="161" height="58" viewBox="0 0 161 58" fill="none" xmlns="http://www.w3.org/2000/svg">
<path d="M10.934 10.05V5.164H9.534V18.156H10.934V11.324H12.95V10.05H10.934ZM7.084 16.056V6.116H0.77V16.056H7.084ZM5.684 7.404V14.768H2.17V7.404H5.684ZM24.9374 18.156V5.164H23.5374V18.156H24.9374ZM17.7554 16.462C19.6314 16.462 21.1854 15.23 21.1854 12.108V10.134C21.1854 7.012 19.6314 5.78 17.7554 5.78C15.8514 5.78 14.2974 7.012 14.2974 10.134V12.108C14.2974 15.23 15.8514 16.462 17.7554 16.462ZM17.7554 15.188C16.6074 15.188 15.6974 14.348 15.6974 12.094V10.148C15.6974 7.88 16.6074 7.054 17.7554 7.054C18.9034 7.054 19.7994 7.88 19.7994 10.148V12.094C19.7994 14.348 18.9034 15.188 17.7554 15.188ZM33.8868 12.864H37.8068V6.032H28.5808V12.864H32.5008V15.902H27.0828V17.19H39.2908V15.902H33.8868V12.864ZM36.4068 7.306V11.604H29.9808V7.306H36.4068ZM51.4882 12.178V5.164H50.1022V12.178H51.4882ZM43.4522 11.73C45.3142 11.73 47.2742 11.548 48.8562 11.268L48.6882 10.036C47.0222 10.302 45.1742 10.456 43.6902 10.456H42.6122V5.78H41.1982V11.73H43.4522ZM51.4882 18.156V13.004H42.9062V18.156H51.4882ZM44.2922 14.236H50.1022V16.896H44.2922V14.236ZM64.7636 18.156V5.164H63.3636V18.156H64.7636ZM57.8896 12.934C59.8216 12.934 61.3756 11.828 61.3756 9.49V9.238C61.3756 6.886 59.8216 5.78 57.8896 5.78C55.9576 5.78 54.3896 6.886 54.3896 9.238V9.49C54.3896 11.828 55.9576 12.934 57.8896 12.934ZM57.8896 11.66C56.6996 11.66 55.7896 10.946 55.7896 9.476V9.238C55.7896 7.768 56.6996 7.054 57.8896 7.054C59.0656 7.054 59.9896 7.768 59.9896 9.238V9.476C59.9896 10.946 59.0656 11.66 57.8896 11.66ZM55.9856 16.14C57.8896 16.14 60.4376 15.986 62.4256 15.692L62.2716 14.46C60.2416 14.698 57.7076 14.866 56.1116 14.866H53.7596L53.8296 16.14H55.9856ZM80.9806 10.806L81.5546 9.644L76.8786 7.46C77.1026 6.998 77.2006 6.508 77.2006 5.976V5.304H75.8426V5.976C75.8426 7.376 74.4566 8.594 71.3346 9.602L71.8106 10.806C73.8266 10.176 75.2266 9.434 76.0946 8.566L80.9806 10.806ZM70.3406 13.144H75.7586V15.51H77.1446V13.144H82.5486V11.856H70.3406V13.144ZM71.9366 14.39V18.156H81.2606V16.854H73.3366V14.39H71.9366ZM94.018 10.05V5.164H92.618V18.156H94.018V11.324H96.02V10.05H94.018ZM87.998 7.46H90.812V6.186H83.868V7.46H86.64V8.02C86.64 11.016 85.478 13.186 83.364 15.468L84.358 16.392C85.59 15.076 86.514 13.76 87.116 12.346L90.28 16.252L91.33 15.342L87.648 10.82C87.886 9.924 87.998 9 87.998 8.02V7.46ZM107.293 5.164H105.893V14.894H107.293V9.686H109.309V8.426H107.293V5.164ZM103.807 12.724L104.605 11.674L100.965 8.832C101.203 8.16 101.315 7.432 101.315 6.662V5.654H99.9574V6.662C99.9574 8.734 98.9074 10.386 96.6254 11.912L97.4094 12.99C98.7534 12.094 99.7474 11.128 100.405 10.064L103.807 12.724ZM98.9634 14.082V18.156H107.965V16.882H100.363V14.082H98.9634Z" fill="white"/>
<path d="M7.28 38.56C6.14 38.56 4.98 39 4.22 39.86L4.76 35.08H11.96V32.74H2.6L1.58 42.74H3.88C4.42 41.56 5.34 40.9 6.76 40.9C8.68 40.9 10.02 42.1 10.02 43.96C10.02 45.8 8.78 47.02 6.72 47.02C5.2 47.02 3.9 46.34 3.28 44.94L1.08 46.18C2.04 48.32 4.46 49.36 6.86 49.36C10.3 49.36 12.54 47.2 12.54 43.96C12.54 40.7 10.28 38.56 7.28 38.56ZM21.1081 38.56C19.9681 38.56 18.8081 39 18.0481 39.86L18.5881 35.08H25.7881V32.74H16.4281L15.4081 42.74H17.7081C18.2481 41.56 19.1681 40.9 20.5881 40.9C22.5081 40.9 23.8481 42.1 23.8481 43.96C23.8481 45.8 22.6081 47.02 20.5481 47.02C19.0281 47.02 17.7281 46.34 17.1081 44.94L14.9081 46.18C15.8681 48.32 18.2881 49.36 20.6881 49.36C24.1281 49.36 26.3681 47.2 26.3681 43.96C26.3681 40.7 24.1081 38.56 21.1081 38.56ZM30.9163 52.5L31.8763 46.28H29.2363L28.8163 52.5H30.9163ZM40.5827 49.36C43.8827 49.36 46.6427 47.06 46.6427 42.44V39.36C46.6427 34.76 43.8827 32.44 40.5827 32.44C37.2627 32.44 34.5027 34.76 34.5027 39.36V42.44C34.5027 47.06 37.2627 49.36 40.5827 49.36ZM40.5827 47.08C38.5627 47.08 37.0827 45.56 37.0827 42.32V39.48C37.0827 36.26 38.5627 34.72 40.5827 34.72C42.6027 34.72 44.0827 36.26 44.0827 39.48V42.32C44.0827 45.56 42.6027 47.08 40.5827 47.08ZM55.2897 49.36C58.5897 49.36 61.3497 47.06 61.3497 42.44V39.36C61.3497 34.76 58.5897 32.44 55.2897 32.44C51.9697 32.44 49.2097 34.76 49.2097 39.36V42.44C49.2097 47.06 51.9697 49.36 55.2897 49.36ZM55.2897 47.08C53.2697 47.08 51.7897 45.56 51.7897 42.32V39.48C51.7897 36.26 53.2697 34.72 55.2897 34.72C57.3097 34.72 58.7897 36.26 58.7897 39.48V42.32C58.7897 45.56 57.3097 47.08 55.2897 47.08ZM69.9967 49.36C73.2967 49.36 76.0567 47.06 76.0567 42.44V39.36C76.0567 34.76 73.2967 32.44 69.9967 32.44C66.6767 32.44 63.9167 34.76 63.9167 39.36V42.44C63.9167 47.06 66.6767 49.36 69.9967 49.36ZM69.9967 47.08C67.9767 47.08 66.4967 45.56 66.4967 42.32V39.48C66.4967 36.26 67.9767 34.72 69.9967 34.72C72.0167 34.72 73.4967 36.26 73.4967 39.48V42.32C73.4967 45.56 72.0167 47.08 69.9967 47.08ZM84.7038 49.36C88.0038 49.36 90.7638 47.06 90.7638 42.44V39.36C90.7638 34.76 88.0038 32.44 84.7038 32.44C81.3838 32.44 78.6238 34.76 78.6238 39.36V42.44C78.6238 47.06 81.3838 49.36 84.7038 49.36ZM84.7038 47.08C82.6838 47.08 81.2038 45.56 81.2038 42.32V39.48C81.2038 36.26 82.6838 34.72 84.7038 34.72C86.7238 34.72 88.2038 36.26 88.2038 39.48V42.32C88.2038 45.56 86.7238 47.08 84.7038 47.08ZM95.3108 52.5L96.2708 46.28H93.6308L93.2108 52.5H95.3108ZM104.977 49.36C108.277 49.36 111.037 47.06 111.037 42.44V39.36C111.037 34.76 108.277 32.44 104.977 32.44C101.657 32.44 98.8972 34.76 98.8972 39.36V42.44C98.8972 47.06 101.657 49.36 104.977 49.36ZM104.977 47.08C102.957 47.08 101.477 45.56 101.477 42.32V39.48C101.477 36.26 102.957 34.72 104.977 34.72C106.997 34.72 108.477 36.26 108.477 39.48V42.32C108.477 45.56 106.997 47.08 104.977 47.08ZM119.684 49.36C122.984 49.36 125.744 47.06 125.744 42.44V39.36C125.744 34.76 122.984 32.44 119.684 32.44C116.364 32.44 113.604 34.76 113.604 39.36V42.44C113.604 47.06 116.364 49.36 119.684 49.36ZM119.684 47.08C117.664 47.08 116.184 45.56 116.184 42.32V39.48C116.184 36.26 117.664 34.72 119.684 34.72C121.704 34.72 123.184 36.26 123.184 39.48V42.32C123.184 45.56 121.704 47.08 119.684 47.08ZM134.391 49.36C137.691 49.36 140.451 47.06 140.451 42.44V39.36C140.451 34.76 137.691 32.44 134.391 32.44C131.071 32.44 128.311 34.76 128.311 39.36V42.44C128.311 47.06 131.071 49.36 134.391 49.36ZM134.391 47.08C132.371 47.08 130.891 45.56 130.891 42.32V39.48C130.891 36.26 132.371 34.72 134.391 34.72C136.411 34.72 137.891 36.26 137.891 39.48V42.32C137.891 45.56 136.411 47.08 134.391 47.08ZM151.318 44.96H156.058V46.26H158.618V31.48H156.058V43.06H151.318V44.96ZM148.538 39.06C151.458 39.06 153.678 37.86 153.678 35.54V35.34C153.678 32.98 151.458 31.78 148.538 31.78C145.598 31.78 143.378 32.98 143.378 35.34V35.54C143.378 37.86 145.598 39.06 148.538 39.06ZM145.778 35.36C145.778 34.36 146.938 33.84 148.538 33.84C150.118 33.84 151.278 34.36 151.278 35.36V35.5C151.278 36.5 150.118 37 148.538 37C146.938 37 145.778 36.5 145.778 35.5V35.36ZM147.058 42.32C146.998 43.18 146.938 44.06 146.858 44.94L149.298 45.1C149.398 44.12 149.478 43.14 149.538 42.24C151.378 42.14 153.318 41.98 154.998 41.74L154.738 39.68C151.778 40.02 148.258 40.22 145.978 40.22H142.618L142.718 42.34H145.738C146.158 42.34 146.598 42.34 147.058 42.32ZM148.298 45.68H145.738V50.16H159.298V47.84H148.298V45.68Z" fill="white"/>
</svg>
