<svg width="52" height="38" viewBox="0 0 52 38" fill="none" xmlns="http://www.w3.org/2000/svg">
<g filter="url(#filter0_d_281_204)">
<rect x="4" width="44" height="30" rx="4" fill="#5725E0" shape-rendering="crispEdges"/>
<path d="M18.7499 14.236C18.3979 14.236 18.1539 14.176 18.0179 14.056C17.8819 13.936 17.8139 13.684 17.8139 13.3V10.036H19.3019V11.056H22.6979V10.036H24.1859V14.236H18.7499ZM19.3019 12.808C19.3019 12.896 19.3139 12.956 19.3379 12.988C19.3699 13.012 19.4299 13.024 19.5179 13.024H22.6979V12.148H19.3019V12.808ZM20.3819 18.028V16.06H16.4219V14.812H25.5779V16.06H21.8579V18.028H20.3819ZM24.3539 20.128H18.7499C18.3979 20.128 18.1539 20.068 18.0179 19.948C17.8819 19.828 17.8139 19.576 17.8139 19.192V17.068H19.3139V18.676C19.3139 18.764 19.3259 18.824 19.3499 18.856C19.3819 18.88 19.4419 18.892 19.5299 18.892H24.3539V20.128ZM30.236 10.084V11.548C30.236 12.06 30.424 12.572 30.8 13.084C31.184 13.588 31.772 14.032 32.564 14.416L31.808 15.46C31.328 15.244 30.884 14.964 30.476 14.62C30.068 14.268 29.744 13.908 29.504 13.54C29.256 13.948 28.924 14.336 28.508 14.704C28.1 15.064 27.632 15.38 27.104 15.652L26.348 14.608C27.116 14.176 27.704 13.692 28.112 13.156C28.52 12.612 28.724 12.076 28.724 11.548V10.084H30.236ZM34.736 15.748H33.224V13.012H31.34V11.752H33.224V9.856H34.736V15.748ZM34.736 20.284H33.236V17.512H28.184V16.276H34.736V20.284Z" fill="white"/>
</g>
<defs>
<filter id="filter0_d_281_204" x="0" y="0" width="52" height="38" filterUnits="userSpaceOnUse" color-interpolation-filters="sRGB">
<feFlood flood-opacity="0" result="BackgroundImageFix"/>
<feColorMatrix in="SourceAlpha" type="matrix" values="0 0 0 0 0 0 0 0 0 0 0 0 0 0 0 0 0 0 127 0" result="hardAlpha"/>
<feOffset dy="4"/>
<feGaussianBlur stdDeviation="2"/>
<feComposite in2="hardAlpha" operator="out"/>
<feColorMatrix type="matrix" values="0 0 0 0 0 0 0 0 0 0 0 0 0 0 0 0 0 0 0.25 0"/>
<feBlend mode="normal" in2="BackgroundImageFix" result="effect1_dropShadow_281_204"/>
<feBlend mode="normal" in="SourceGraphic" in2="effect1_dropShadow_281_204" result="shape"/>
</filter>
</defs>
</svg>
