<svg width="183" height="25" viewBox="0 0 183 25" fill="none" xmlns="http://www.w3.org/2000/svg">
<path d="M7.372 8.294C6.061 8.294 4.727 8.8 3.853 9.789L4.474 4.292H12.754V1.601H1.99L0.817 13.101H3.462C4.083 11.744 5.141 10.985 6.774 10.985C8.982 10.985 10.523 12.365 10.523 14.504C10.523 16.62 9.097 18.023 6.728 18.023C4.98 18.023 3.485 17.241 2.772 15.631L0.242 17.057C1.346 19.518 4.129 20.714 6.889 20.714C10.845 20.714 13.421 18.23 13.421 14.504C13.421 10.755 10.822 8.294 7.372 8.294ZM23.2743 8.294C21.9633 8.294 20.6293 8.8 19.7553 9.789L20.3763 4.292H28.6563V1.601H17.8923L16.7193 13.101H19.3643C19.9853 11.744 21.0433 10.985 22.6763 10.985C24.8843 10.985 26.4253 12.365 26.4253 14.504C26.4253 16.62 24.9993 18.023 22.6303 18.023C20.8823 18.023 19.3873 17.241 18.6743 15.631L16.1443 17.057C17.2483 19.518 20.0313 20.714 22.7913 20.714C26.7473 20.714 29.3233 18.23 29.3233 14.504C29.3233 10.755 26.7243 8.294 23.2743 8.294ZM34.5537 24.325L35.6577 17.172H32.6217L32.1387 24.325H34.5537ZM45.6701 20.714C49.4651 20.714 52.6391 18.069 52.6391 12.756V9.214C52.6391 3.924 49.4651 1.256 45.6701 1.256C41.8521 1.256 38.6781 3.924 38.6781 9.214V12.756C38.6781 18.069 41.8521 20.714 45.6701 20.714ZM45.6701 18.092C43.3471 18.092 41.6451 16.344 41.6451 12.618V9.352C41.6451 5.649 43.3471 3.878 45.6701 3.878C47.9931 3.878 49.6951 5.649 49.6951 9.352V12.618C49.6951 16.344 47.9931 18.092 45.6701 18.092ZM62.5831 20.714C66.3781 20.714 69.5521 18.069 69.5521 12.756V9.214C69.5521 3.924 66.3781 1.256 62.5831 1.256C58.7651 1.256 55.5911 3.924 55.5911 9.214V12.756C55.5911 18.069 58.7651 20.714 62.5831 20.714ZM62.5831 18.092C60.2601 18.092 58.5581 16.344 58.5581 12.618V9.352C58.5581 5.649 60.2601 3.878 62.5831 3.878C64.9061 3.878 66.6081 5.649 66.6081 9.352V12.618C66.6081 16.344 64.9061 18.092 62.5831 18.092ZM79.4962 20.714C83.2912 20.714 86.4652 18.069 86.4652 12.756V9.214C86.4652 3.924 83.2912 1.256 79.4962 1.256C75.6782 1.256 72.5042 3.924 72.5042 9.214V12.756C72.5042 18.069 75.6782 20.714 79.4962 20.714ZM79.4962 18.092C77.1732 18.092 75.4712 16.344 75.4712 12.618V9.352C75.4712 5.649 77.1732 3.878 79.4962 3.878C81.8192 3.878 83.5212 5.649 83.5212 9.352V12.618C83.5212 16.344 81.8192 18.092 79.4962 18.092ZM96.4093 20.714C100.204 20.714 103.378 18.069 103.378 12.756V9.214C103.378 3.924 100.204 1.256 96.4093 1.256C92.5913 1.256 89.4173 3.924 89.4173 9.214V12.756C89.4173 18.069 92.5913 20.714 96.4093 20.714ZM96.4093 18.092C94.0863 18.092 92.3843 16.344 92.3843 12.618V9.352C92.3843 5.649 94.0863 3.878 96.4093 3.878C98.7323 3.878 100.434 5.649 100.434 9.352V12.618C100.434 16.344 98.7323 18.092 96.4093 18.092ZM108.607 24.325L109.711 17.172H106.675L106.192 24.325H108.607ZM119.724 20.714C123.519 20.714 126.693 18.069 126.693 12.756V9.214C126.693 3.924 123.519 1.256 119.724 1.256C115.906 1.256 112.732 3.924 112.732 9.214V12.756C112.732 18.069 115.906 20.714 119.724 20.714ZM119.724 18.092C117.401 18.092 115.699 16.344 115.699 12.618V9.352C115.699 5.649 117.401 3.878 119.724 3.878C122.047 3.878 123.749 5.649 123.749 9.352V12.618C123.749 16.344 122.047 18.092 119.724 18.092ZM136.637 20.714C140.432 20.714 143.606 18.069 143.606 12.756V9.214C143.606 3.924 140.432 1.256 136.637 1.256C132.819 1.256 129.645 3.924 129.645 9.214V12.756C129.645 18.069 132.819 20.714 136.637 20.714ZM136.637 18.092C134.314 18.092 132.612 16.344 132.612 12.618V9.352C132.612 5.649 134.314 3.878 136.637 3.878C138.96 3.878 140.662 5.649 140.662 9.352V12.618C140.662 16.344 138.96 18.092 136.637 18.092ZM153.55 20.714C157.345 20.714 160.519 18.069 160.519 12.756V9.214C160.519 3.924 157.345 1.256 153.55 1.256C149.732 1.256 146.558 3.924 146.558 9.214V12.756C146.558 18.069 149.732 20.714 153.55 20.714ZM153.55 18.092C151.227 18.092 149.525 16.344 149.525 12.618V9.352C149.525 5.649 151.227 3.878 153.55 3.878C155.873 3.878 157.575 5.649 157.575 9.352V12.618C157.575 16.344 155.873 18.092 153.55 18.092ZM173.016 15.654H178.467V17.149H181.411V0.151999H178.467V13.469H173.016V15.654ZM169.819 8.869C173.177 8.869 175.73 7.489 175.73 4.821V4.591C175.73 1.877 173.177 0.496999 169.819 0.496999C166.438 0.496999 163.885 1.877 163.885 4.591V4.821C163.885 7.489 166.438 8.869 169.819 8.869ZM166.645 4.614C166.645 3.464 167.979 2.866 169.819 2.866C171.636 2.866 172.97 3.464 172.97 4.614V4.775C172.97 5.925 171.636 6.5 169.819 6.5C167.979 6.5 166.645 5.925 166.645 4.775V4.614ZM168.117 12.618C168.048 13.607 167.979 14.619 167.887 15.631L170.693 15.815C170.808 14.688 170.9 13.561 170.969 12.526C173.085 12.411 175.316 12.227 177.248 11.951L176.949 9.582C173.545 9.973 169.497 10.203 166.875 10.203H163.011L163.126 12.641H166.599C167.082 12.641 167.588 12.641 168.117 12.618ZM169.543 16.482H166.599V21.634H182.193V18.966H169.543V16.482Z" fill="black"/>
</svg>
