<svg width="44" height="30" viewBox="0 0 44 30" fill="none" xmlns="http://www.w3.org/2000/svg">
<rect width="44" height="30" rx="4" fill="black"/>
<path d="M14.7499 14.236C14.3979 14.236 14.1539 14.176 14.0179 14.056C13.8819 13.936 13.8139 13.684 13.8139 13.3V10.036H15.3019V11.056H18.6979V10.036H20.1859V14.236H14.7499ZM15.3019 12.808C15.3019 12.896 15.3139 12.956 15.3379 12.988C15.3699 13.012 15.4299 13.024 15.5179 13.024H18.6979V12.148H15.3019V12.808ZM16.3819 18.028V16.06H12.4219V14.812H21.5779V16.06H17.8579V18.028H16.3819ZM20.3539 20.128H14.7499C14.3979 20.128 14.1539 20.068 14.0179 19.948C13.8819 19.828 13.8139 19.576 13.8139 19.192V17.068H15.3139V18.676C15.3139 18.764 15.3259 18.824 15.3499 18.856C15.3819 18.88 15.4419 18.892 15.5299 18.892H20.3539V20.128ZM26.236 10.084V11.548C26.236 12.06 26.424 12.572 26.8 13.084C27.184 13.588 27.772 14.032 28.564 14.416L27.808 15.46C27.328 15.244 26.884 14.964 26.476 14.62C26.068 14.268 25.744 13.908 25.504 13.54C25.256 13.948 24.924 14.336 24.508 14.704C24.1 15.064 23.632 15.38 23.104 15.652L22.348 14.608C23.116 14.176 23.704 13.692 24.112 13.156C24.52 12.612 24.724 12.076 24.724 11.548V10.084H26.236ZM30.736 15.748H29.224V13.012H27.34V11.752H29.224V9.856H30.736V15.748ZM30.736 20.284H29.236V17.512H24.184V16.276H30.736V20.284Z" fill="white"/>
</svg>
