<svg width="94" height="12" viewBox="0 0 94 12" fill="none" xmlns="http://www.w3.org/2000/svg">
<path d="M9.372 4.9V0.711999H8.172V11.848H9.372V5.992H11.1V4.9H9.372ZM6.072 10.048V1.528H0.66V10.048H6.072ZM4.872 2.632V8.944H1.86V2.632H4.872ZM21.3749 11.848V0.711999H20.1749V11.848H21.3749ZM15.2189 10.396C16.8269 10.396 18.1589 9.34 18.1589 6.664V4.972C18.1589 2.296 16.8269 1.24 15.2189 1.24C13.5869 1.24 12.2549 2.296 12.2549 4.972V6.664C12.2549 9.34 13.5869 10.396 15.2189 10.396ZM15.2189 9.304C14.2349 9.304 13.4549 8.584 13.4549 6.652V4.984C13.4549 3.04 14.2349 2.332 15.2189 2.332C16.2029 2.332 16.9709 3.04 16.9709 4.984V6.652C16.9709 8.584 16.2029 9.304 15.2189 9.304ZM29.0458 7.312H32.4058V1.456H24.4978V7.312H27.8578V9.916H23.2138V11.02H33.6778V9.916H29.0458V7.312ZM31.2058 2.548V6.232H25.6978V2.548H31.2058ZM44.1327 6.724V0.711999H42.9447V6.724H44.1327ZM37.2447 6.34C38.8407 6.34 40.5207 6.184 41.8767 5.944L41.7327 4.888C40.3047 5.116 38.7207 5.248 37.4487 5.248H36.5247V1.24H35.3127V6.34H37.2447ZM44.1327 11.848V7.432H36.7767V11.848H44.1327ZM37.9647 8.488H42.9447V10.768H37.9647V8.488ZM55.5116 11.848V0.711999H54.3116V11.848H55.5116ZM49.6196 7.372C51.2756 7.372 52.6076 6.424 52.6076 4.42V4.204C52.6076 2.188 51.2756 1.24 49.6196 1.24C47.9636 1.24 46.6196 2.188 46.6196 4.204V4.42C46.6196 6.424 47.9636 7.372 49.6196 7.372ZM49.6196 6.28C48.5996 6.28 47.8196 5.668 47.8196 4.408V4.204C47.8196 2.944 48.5996 2.332 49.6196 2.332C50.6276 2.332 51.4196 2.944 51.4196 4.204V4.408C51.4196 5.668 50.6276 6.28 49.6196 6.28ZM47.9876 10.12C49.6196 10.12 51.8036 9.988 53.5076 9.736L53.3756 8.68C51.6356 8.884 49.4636 9.028 48.0956 9.028H46.0796L46.1396 10.12H47.9876ZM69.4119 5.548L69.9039 4.552L65.8959 2.68C66.0879 2.284 66.1719 1.864 66.1719 1.408V0.831999H65.0079V1.408C65.0079 2.608 63.8199 3.652 61.1439 4.516L61.5519 5.548C63.2799 5.008 64.4799 4.372 65.2239 3.628L69.4119 5.548ZM60.2919 7.552H64.9359V9.58H66.1239V7.552H70.7559V6.448H60.2919V7.552ZM61.6599 8.62V11.848H69.6519V10.732H62.8599V8.62H61.6599ZM80.5868 4.9V0.711999H79.3868V11.848H80.5868V5.992H82.3028V4.9H80.5868ZM75.4268 2.68H77.8388V1.588H71.8868V2.68H74.2628V3.16C74.2628 5.728 73.2668 7.588 71.4548 9.544L72.3068 10.336C73.3628 9.208 74.1548 8.08 74.6708 6.868L77.3828 10.216L78.2828 9.436L75.1268 5.56C75.3308 4.792 75.4268 4 75.4268 3.16V2.68ZM91.9658 0.711999H90.7658V9.052H91.9658V4.588H93.6938V3.508H91.9658V0.711999ZM88.9778 7.192L89.6618 6.292L86.5418 3.856C86.7458 3.28 86.8418 2.656 86.8418 1.996V1.132H85.6777V1.996C85.6777 3.772 84.7778 5.188 82.8218 6.496L83.4938 7.42C84.6458 6.652 85.4978 5.824 86.0618 4.912L88.9778 7.192ZM84.8258 8.356V11.848H92.5418V10.756H86.0258V8.356H84.8258Z" fill="white"/>
</svg>
