<svg width="73" height="75" viewBox="0 0 73 75" fill="none" xmlns="http://www.w3.org/2000/svg">
<path d="M9.024 9.2028V13.6548H9.876V5.2428H9.024V8.4228H6.12C6.396 7.8468 6.54 7.2228 6.54 6.5508V5.9628H1.32V6.7428H5.688C5.688 8.5068 3.924 10.1988 1.14 11.2668L1.5 11.9988C3.36 11.2908 4.788 10.3548 5.64 9.2028H9.024ZM3.612 12.7788H2.76V16.3188H10.392V15.5268H3.612V12.7788ZM20.6309 5.2548H19.7669V11.3028H20.6309V8.5068H22.4669V7.7268H20.6309V5.2548ZM17.4149 5.9028H12.3149V6.6948H16.5629C16.5149 8.2548 14.7989 9.6708 12.1229 10.5588L12.4589 11.3028C15.5189 10.2828 17.4149 8.6988 17.4149 6.4428V5.9028ZM16.0829 11.9748C14.4629 11.9748 13.4909 12.9588 13.4909 14.2068C13.4909 15.4668 14.4629 16.4268 16.0829 16.4268H18.3149C19.9349 16.4268 20.8949 15.4668 20.8949 14.2068C20.8949 12.9588 19.9349 11.9748 18.3149 11.9748H16.0829ZM16.2509 15.6588C14.9789 15.6588 14.3549 15.0348 14.3549 14.1948C14.3549 13.3908 14.9789 12.7428 16.2509 12.7428H18.1469C19.4189 12.7428 20.0309 13.3908 20.0309 14.1948C20.0309 15.0348 19.4189 15.6588 18.1469 15.6588H16.2509ZM31.9978 9.5748V5.2428H31.1458V16.3188H31.9978V10.3668H33.8458V9.5748H31.9978ZM26.1058 5.2548V7.0068H23.3218V7.7868H29.7418V7.0068H26.9578V5.2548H26.1058ZM26.5498 8.9268C25.0498 8.9268 23.8618 9.9108 23.8618 11.5188V12.1548C23.8618 13.7508 25.0498 14.7588 26.5498 14.7588C28.0378 14.7588 29.2138 13.7508 29.2138 12.1548V11.5188C29.2138 9.9108 28.0378 8.9268 26.5498 8.9268ZM28.3618 12.1188C28.3618 13.2708 27.5578 13.9788 26.5498 13.9788C25.5178 13.9788 24.7258 13.2708 24.7258 12.1188V11.5548C24.7258 10.4028 25.5178 9.7188 26.5498 9.7188C27.5578 9.7188 28.3618 10.4028 28.3618 11.5548V12.1188ZM43.3047 16.3188H44.1447V5.2428H43.3047V16.3188ZM38.8407 9.8148C39.1047 8.9388 39.2487 8.0148 39.2487 7.0428V6.1908H35.1207V6.9708H38.3967V7.2108C38.3967 9.8028 37.0407 12.3948 34.9167 14.2908L35.5287 14.9148C36.8727 13.6788 37.9287 12.2268 38.5767 10.5948H40.9167V16.1148H41.7447V5.4228H40.9167V9.8148H38.8407Z" fill="black"/>
<path d="M14.058 32.8688V26.5868H12.258V43.2908H14.058V34.5068H16.65V32.8688H14.058ZM4.698 26.6048V29.0528H0.72V30.6548H10.494V29.0528H6.516V26.6048H4.698ZM5.634 32.1488C3.312 32.1488 1.494 33.6788 1.494 36.0908V37.0628C1.494 39.4748 3.312 41.0228 5.634 41.0228C7.938 41.0228 9.738 39.4748 9.738 37.0628V36.0908C9.738 33.6788 7.938 32.1488 5.634 32.1488ZM7.938 36.9908C7.938 38.5028 6.93 39.4208 5.634 39.4208C4.32 39.4208 3.294 38.5028 3.294 36.9908V36.1628C3.294 34.6688 4.32 33.7688 5.634 33.7688C6.93 33.7688 7.938 34.6688 7.938 36.1628V36.9908ZM19.6784 30.7088V35.5328H31.8824V34.0388H21.4784V32.2028H31.5404V27.3788H19.5884V28.9088H29.7404V30.7088H19.6784ZM17.7524 37.3508V38.9348H24.7184V43.4888H26.5004V38.9348H33.4484V37.3508H17.7524ZM47.6367 43.2908H49.4007V26.5868H47.6367V43.2908ZM42.1287 33.0308V32.9768C42.1287 28.9628 40.5987 27.3788 38.6367 27.3788C36.6387 27.3788 35.1087 28.9628 35.1087 32.9768V35.5148C35.1087 39.5288 36.6387 41.1128 38.6367 41.1128C40.5987 41.1128 42.1287 39.5288 42.1287 35.5148V34.6688H44.0187V42.9488H45.7287V26.8388H44.0187V33.0308H42.1287ZM40.4187 35.4968C40.4187 38.3948 39.6627 39.4748 38.6187 39.4748C37.5747 39.4748 36.8187 38.3948 36.8187 35.4968V32.9948C36.8187 30.0788 37.5747 29.0168 38.6187 29.0168C39.6627 29.0168 40.4187 30.0788 40.4187 32.9948V35.4968ZM14.058 52.5868H12.258V65.0968H14.058V58.4008H16.65V56.7808H14.058V52.5868ZM0.99 53.4688V61.9108H9.108V53.4688H0.99ZM2.736 60.3268V55.0528H7.362V60.3268H2.736ZM3.366 64.0528V69.2908H14.922V67.6528H5.148V64.0528H3.366ZM26.5004 62.8288H31.5404V53.6128H29.7404V56.6728H21.4784V53.6128H19.6784V62.8288H24.7184V66.3928H17.7524V68.0488H33.4484V66.3928H26.5004V62.8288ZM29.7404 58.2928V61.2088H21.4784V58.2928H29.7404ZM51.7608 58.3828V61.7848H53.5608V52.5868H51.7608V56.7808H47.9808C48.3048 56.0608 48.4848 55.2508 48.4848 54.3868V53.4688H40.4028V55.1068H46.6308C46.4328 57.0868 44.0568 58.9768 40.0248 60.1468L40.6908 61.7488C43.4268 60.9388 45.5688 59.8408 46.9008 58.3828H51.7608ZM44.2908 64.4488H53.6328V62.8288H42.5088V69.2908H53.9928V67.6708H44.2908V64.4488ZM68.8292 69.2908H70.6112V52.5868H68.8292V69.2908ZM63.6812 55.5388V55.7368C63.6812 59.2648 61.3772 63.0988 57.0572 65.8708L58.1372 67.2928C62.7812 64.2328 65.4812 60.1108 65.4812 55.3768V53.9008H57.4172V55.5388H63.6812Z" fill="black"/>
</svg>
