<svg width="73" height="74" viewBox="0 0 73 74" fill="none" xmlns="http://www.w3.org/2000/svg">
<path d="M9 15.8H9.852V4.724H9V15.8ZM1.212 11.6C2.472 10.868 3.396 10.088 3.96 9.2L7.044 11.48L7.512 10.772L4.32 8.444C4.488 8.012 4.572 7.532 4.572 7.028H7.128V6.26H4.572V4.736H3.72V6.26H1.164V7.028H3.708C3.708 8.612 2.628 9.788 0.792 10.892L1.212 11.6ZM4.548 11.252H3.684V13.28C3.288 13.292 2.928 13.304 2.616 13.304H0.6L0.648 14.096H2.568C4.2 14.096 6.372 13.94 8.04 13.712L7.944 12.944C6.888 13.088 5.664 13.184 4.548 13.244V11.252ZM20.3789 8.948H17.7629V9.728H20.3789V15.8H21.2309V4.724H20.3789V8.948ZM15.9029 6.452H18.4949V5.672H12.4829V6.452H15.0509V7.076C15.0509 9.812 13.9229 11.708 12.0389 13.688L12.6629 14.264C13.8269 13.04 14.6909 11.84 15.2309 10.52L18.3029 14.144L18.9389 13.568L15.5549 9.608C15.7829 8.816 15.9029 7.976 15.9029 7.076V6.452ZM34.5918 9.26C34.8198 8.012 34.9518 6.74 34.9518 5.78V5.12H27.4878V5.9H34.0998V5.96C34.0998 6.656 33.9678 7.988 33.7278 9.26H26.1798V10.04H36.5478V9.26H34.5918ZM35.2158 15.8V11.564H27.5238V15.8H35.2158ZM34.3518 12.332V15.032H28.3758V12.332H34.3518ZM46.9187 15.8V4.724H46.0667V15.8H46.9187ZM40.0907 14.192C41.7227 14.192 43.5347 14.036 44.8427 13.784L44.7347 13.04C43.3427 13.256 41.5907 13.412 40.2347 13.412H39.0707V10.232H43.3787V5.612H38.2187V6.392H42.5147V9.452H38.2187V14.192H40.0907ZM54.5536 11.744H58.2136V10.976H51.1336V9.008H57.9736V5.54H50.2216V6.32H57.1096V8.24H50.2816V11.744H53.7016V14.12H48.9376V14.912H59.3056V14.12H54.5536V11.744Z" fill="black"/>
<path d="M13.518 32.35H11.376V26.32H9.684V42.43H11.376V33.988H13.518V42.772H15.264V26.068H13.518V32.35ZM3.132 38.416V28.948H7.596V27.292H1.332V40.054H3.618C5.454 40.054 6.966 39.964 8.568 39.676L8.388 38.074C6.732 38.326 5.292 38.416 3.87 38.416H3.132ZM19.4084 32.908C22.1984 32.44 24.0704 31.828 25.1864 30.982L31.6844 32.908L32.2064 31.468L26.2304 29.722C26.3744 29.398 26.4644 29.038 26.4824 28.642H31.3604V27.148H26.5364V25.708H24.8084V27.148H19.8404V28.642H24.8084C24.5744 29.848 22.7924 30.82 18.9764 31.432L19.4084 32.908ZM33.4484 33.538H17.7524V34.96H24.7184V36.256H19.5884V37.642H29.7404V38.83H19.6784V42.862H31.9724V41.458H21.4784V40.198H31.5404V36.256H26.5004V34.96H33.4484V33.538ZM6.516 53.724V51.87H4.698V53.724H0.72V55.236H10.494V53.724H6.516ZM14.058 52.068H12.258V64.74H14.058V58.584H16.65V56.946H14.058V52.068ZM9.756 59.358C9.756 57.306 7.938 56.226 5.634 56.226C3.312 56.226 1.494 57.306 1.494 59.358V59.628C1.494 61.662 3.312 62.778 5.634 62.778C7.938 62.778 9.756 61.662 9.756 59.628V59.358ZM3.258 59.394C3.258 58.368 4.284 57.738 5.634 57.738C6.966 57.738 8.01 58.368 8.01 59.394V59.592C8.01 60.636 6.966 61.266 5.634 61.266C4.284 61.266 3.258 60.636 3.258 59.592V59.394ZM3.348 64.146V68.772H14.922V67.134H5.148V64.146H3.348ZM26.5004 61.968H31.5404V60.348H21.4784V54.822H31.3604V53.184H19.6784V61.968H24.7184V65.874H17.7524V67.53H33.4484V65.874H26.5004V61.968ZM40.9968 62.58C43.7688 61.392 45.6588 60.078 46.7748 58.638L53.0208 62.58L53.9568 61.068L47.6568 57.144C47.9448 56.46 48.0708 55.758 48.0708 55.02V54.822H53.0208V53.184H41.1588V54.822H46.2888V55.02C46.2888 57.18 44.4168 59.142 40.2048 61.014L40.9968 62.58ZM47.9808 62.13H46.1988V65.874H39.2328V67.53H54.9288V65.874H47.9808V62.13ZM68.8112 68.772H70.6112V52.068H68.8112V68.772ZM62.7632 53.976V52.086H60.9632V53.976H56.9312V55.47H66.7952V53.976H62.7632ZM62.7632 63.048C64.6352 62.796 66.0392 61.716 66.0392 59.916V59.646C66.0392 57.594 64.1852 56.478 61.8812 56.478C59.5412 56.478 57.7052 57.594 57.7052 59.646V59.916C57.7052 61.716 59.0912 62.796 60.9812 63.048V65.028C60.4412 65.046 59.9372 65.064 59.4872 65.064H56.4632L56.5532 66.702H59.3252C61.7732 66.702 65.0492 66.504 67.6052 66.144L67.4072 64.542C65.9492 64.722 64.2932 64.866 62.7632 64.956V63.048ZM59.4512 59.664C59.4512 58.566 60.5132 57.918 61.8812 57.918C63.2132 57.918 64.2752 58.566 64.2752 59.664V59.898C64.2752 61.014 63.2132 61.662 61.8812 61.662C60.5132 61.662 59.4512 61.014 59.4512 59.898V59.664Z" fill="black"/>
</svg>
