<svg width="52" height="74" viewBox="0 0 52 74" fill="none" xmlns="http://www.w3.org/2000/svg">
<path d="M9.168 9.056H7.452V4.904H6.612V15.596H7.452V9.848H9.168V15.8H10.008V4.724H9.168V9.056ZM5.172 13.976V5.612H0.84V13.976H5.172ZM4.356 6.404V13.184H1.656V6.404H4.356ZM21.2429 10.148V4.724H20.3909V10.148H21.2429ZM15.2549 9.824C16.8389 9.824 18.1229 9.044 18.1229 7.496V7.304C18.1229 5.744 16.8389 4.976 15.2549 4.976C13.6469 4.976 12.3629 5.744 12.3629 7.304V7.496C12.3629 9.044 13.6469 9.824 15.2549 9.824ZM15.2549 9.044C14.0669 9.044 13.2269 8.504 13.2269 7.472V7.316C13.2269 6.308 14.0669 5.744 15.2549 5.744C16.4189 5.744 17.2709 6.308 17.2709 7.316V7.472C17.2709 8.504 16.4189 9.044 15.2549 9.044ZM21.7109 15.86V15.104H14.9909V13.736H21.2429V10.94H14.0789V11.672H20.3909V12.992H14.1269V15.86H21.7109ZM31.9258 9.056H30.2098V4.904H29.3698V15.596H30.2098V9.848H31.9258V15.8H32.7658V4.724H31.9258V9.056ZM27.9298 13.976V5.612H23.5978V13.976H27.9298ZM27.1138 6.404V13.184H24.4138V6.404H27.1138ZM44.0007 10.148V4.724H43.1487V10.148H44.0007ZM38.0127 9.824C39.5967 9.824 40.8807 9.044 40.8807 7.496V7.304C40.8807 5.744 39.5967 4.976 38.0127 4.976C36.4047 4.976 35.1207 5.744 35.1207 7.304V7.496C35.1207 9.044 36.4047 9.824 38.0127 9.824ZM38.0127 9.044C36.8247 9.044 35.9847 8.504 35.9847 7.472V7.316C35.9847 6.308 36.8247 5.744 38.0127 5.744C39.1767 5.744 40.0287 6.308 40.0287 7.316V7.472C40.0287 8.504 39.1767 9.044 38.0127 9.044ZM44.4687 15.86V15.104H37.7487V13.736H44.0007V10.94H36.8367V11.672H43.1487V12.992H36.8847V15.86H44.4687Z" fill="black"/>
<path d="M2.34 32.908C5.13 32.44 7.002 31.828 8.118 30.982L14.616 32.908L15.138 31.468L9.162 29.722C9.306 29.398 9.396 29.038 9.414 28.642H14.292V27.148H9.468V25.708H7.74V27.148H2.772V28.642H7.74C7.506 29.848 5.724 30.82 1.908 31.432L2.34 32.908ZM16.38 33.538H0.684V34.96H7.65V36.256H2.52V37.642H12.672V38.83H2.61V42.862H14.904V41.458H4.41V40.198H14.472V36.256H9.432V34.96H16.38V33.538ZM30.2624 29.308H26.6444V30.91H30.2624V35.446H32.0624V26.068H30.2624V29.308ZM27.2024 35.05L28.1744 33.664L23.5124 30.316C23.8004 29.524 23.9444 28.66 23.9444 27.742V26.608H22.1984V27.742C22.1984 30.154 20.8664 32.116 17.9144 33.898L18.8684 35.32C20.6324 34.258 21.9104 33.124 22.7564 31.846L27.2024 35.05ZM30.2624 38.128V42.952H32.0624V36.49H20.8304V38.128H30.2624ZM14.994 68.772V52.068H13.194V68.772H14.994ZM5.76 66.594C8.172 66.594 10.17 65.01 10.17 60.996V58.458C10.17 54.444 8.172 52.86 5.76 52.86C3.312 52.86 1.314 54.444 1.314 58.458V60.996C1.314 65.01 3.312 66.594 5.76 66.594ZM5.76 64.956C4.284 64.956 3.114 63.876 3.114 60.978V58.476C3.114 55.56 4.284 54.498 5.76 54.498C7.236 54.498 8.388 55.56 8.388 58.476V60.978C8.388 63.876 7.236 64.956 5.76 64.956ZM30.6404 52.068V64.578H32.3324V52.068H30.6404ZM27.1124 57.684V64.056H28.7684V52.23H27.1124V56.1H25.0424V52.86H23.4224V55.614H19.8224V52.86H18.2384V61.572H25.0424V57.684H27.1124ZM19.8224 57.18H23.4224V59.988H19.8224V57.18ZM22.8284 63.624H21.0284V68.772H33.0344V67.134H22.8284V63.624ZM38.5467 61.32V58.818H48.6087V57.234H38.5467V54.822H48.6087V53.184H36.7467V62.922H48.9507V61.32H38.5467ZM34.8207 67.53H50.5167V65.874H34.8207V67.53Z" fill="black"/>
</svg>
