<svg width="69" height="75" viewBox="0 0 69 75" fill="none" xmlns="http://www.w3.org/2000/svg">
<path d="M9.24 5.2428H8.388V13.6548H9.24V8.9748H11.088V8.1828H9.24V5.2428ZM6.288 8.5188C6.288 6.5508 5.028 5.6028 3.48 5.6028C1.908 5.6028 0.648 6.5508 0.648 8.5188V8.7708C0.648 10.7268 1.908 11.6628 3.48 11.6628C5.028 11.6628 6.288 10.7268 6.288 8.7708V8.5188ZM1.5 8.5188C1.5 7.1028 2.34 6.3708 3.48 6.3708C4.596 6.3708 5.424 7.1028 5.424 8.5188V8.7588C5.424 10.1748 4.596 10.8948 3.48 10.8948C2.34 10.8948 1.5 10.1748 1.5 8.7588V8.5188ZM2.352 12.9468V16.3188H9.876V15.5268H3.216V12.9468H2.352ZM18.0029 9.0708H20.3909V13.6548H21.2429V5.2428H20.3909V8.3148H18.0029V9.0708ZM18.8309 11.3268L15.5549 8.6988C15.7469 8.1468 15.8429 7.5708 15.8429 6.9468V6.6708H18.3869V5.9028H12.4829V6.6708H15.0029V6.9468C15.0029 8.8428 13.9349 10.1628 12.0509 11.5188L12.5189 12.1788C13.7669 11.3268 14.6669 10.4388 15.2069 9.4548L18.3389 11.9988L18.8309 11.3268ZM14.9789 12.9468H14.1269V16.3188H21.7589V15.5268H14.9789V12.9468ZM31.9978 9.5748V5.2428H31.1458V16.3188H31.9978V10.3668H33.8458V9.5748H31.9978ZM26.1058 5.2548V7.0068H23.3218V7.7868H29.7418V7.0068H26.9578V5.2548H26.1058ZM26.5498 8.9268C25.0498 8.9268 23.8618 9.9108 23.8618 11.5188V12.1548C23.8618 13.7508 25.0498 14.7588 26.5498 14.7588C28.0378 14.7588 29.2138 13.7508 29.2138 12.1548V11.5188C29.2138 9.9108 28.0378 8.9268 26.5498 8.9268ZM28.3618 12.1188C28.3618 13.2708 27.5578 13.9788 26.5498 13.9788C25.5178 13.9788 24.7258 13.2708 24.7258 12.1188V11.5548C24.7258 10.4028 25.5178 9.7188 26.5498 9.7188C27.5578 9.7188 28.3618 10.4028 28.3618 11.5548V12.1188ZM43.3047 16.3188H44.1447V5.2428H43.3047V16.3188ZM38.8407 9.8148C39.1047 8.9388 39.2487 8.0148 39.2487 7.0428V6.1908H35.1207V6.9708H38.3967V7.2108C38.3967 9.8028 37.0407 12.3948 34.9167 14.2908L35.5287 14.9148C36.8727 13.6788 37.9287 12.2268 38.5767 10.5948H40.9167V16.1148H41.7447V5.4228H40.9167V9.8148H38.8407Z" fill="black"/>
<path d="M13.212 26.5868V39.0968H14.994V26.5868H13.212ZM10.458 36.3068L11.466 34.9388L6.606 31.3028C6.912 30.4388 7.056 29.5028 7.056 28.5128V27.2168H5.292V28.5128C5.292 31.1768 3.924 33.2828 0.864 35.2448L1.854 36.6488C3.672 35.4788 4.986 34.2548 5.85 32.8688L10.458 36.3068ZM5.742 38.0528H3.96V43.2908H15.696V41.6528H5.742V38.0528ZM29.1644 32.5988C30.6944 32.1668 31.6124 31.2488 31.6124 29.8088C31.6124 27.7568 29.7404 26.7668 26.9144 26.7668H24.2864C21.4784 26.7668 19.5884 27.7568 19.5884 29.8088C19.5884 31.2488 20.5244 32.1848 22.0544 32.5988V34.4348H17.7524V35.9828H33.4484V34.4348H29.1644V32.5988ZM21.3884 29.8268C21.3884 28.8008 22.5404 28.2788 24.6104 28.2788H26.6084C28.6784 28.2788 29.8304 28.8008 29.8304 29.8268C29.8304 30.8168 28.6784 31.3748 26.6084 31.3748H24.6104C22.5404 31.3748 21.3884 30.8348 21.3884 29.8268ZM23.7644 32.8508C24.9884 32.8688 26.2304 32.8688 27.4544 32.8508V34.4348H23.7644V32.8508ZM23.6924 37.4048C20.9924 37.4048 19.4984 38.6828 19.4984 40.4288C19.4984 42.1928 20.9924 43.4708 23.6924 43.4708H27.5084C30.2084 43.4708 31.7024 42.1928 31.7024 40.4288C31.7024 38.6828 30.2084 37.4048 27.5084 37.4048H23.6924ZM24.0524 41.9048C22.1624 41.9048 21.2984 41.3288 21.2984 40.4108C21.2984 39.5288 22.1624 38.9528 24.0524 38.9528H27.1664C29.0564 38.9528 29.9204 39.5288 29.9204 40.4108C29.9204 41.3288 29.0564 41.9048 27.1664 41.9048H24.0524ZM47.3307 30.2048H44.0547V31.7528H47.3307V35.6048H49.1307V26.5868H47.3307V30.2048ZM44.4147 35.5148L45.3147 34.0388L40.6347 31.1408C40.8867 30.4568 41.0127 29.7368 41.0127 28.9628H44.6667V27.3788H35.6667V28.9628H39.2667C39.2667 31.1408 37.8987 32.7608 35.0007 34.3268L35.8287 35.7848C37.6827 34.8128 39.0147 33.7688 39.8787 32.5808L44.4147 35.5148ZM49.1307 43.2908V36.6668H38.0787V43.2908H49.1307ZM47.3307 38.2508V41.6708H39.8607V38.2508H47.3307ZM65.7131 35.0108L66.5771 33.4988L60.2771 30.0248C60.5831 29.3408 60.7271 28.6388 60.7271 27.8828V26.8568H58.9271V27.8828C58.9271 29.9528 57.1271 31.8068 52.8971 33.4448L53.6171 35.0108C56.3531 33.9848 58.2071 32.8148 59.3411 31.5008L65.7131 35.0108ZM51.8891 36.8828V38.5028H58.8551V43.4708H60.6371V38.5028H67.5851V36.8828H51.8891ZM9.432 62.8288H14.472V53.6128H12.672V56.6728H4.41V53.6128H2.61V62.8288H7.65V66.3928H0.684V68.0488H16.38V66.3928H9.432V62.8288ZM12.672 58.2928V61.2088H4.41V58.2928H12.672ZM30.2804 69.2908H32.0624V52.5868H30.2804V69.2908ZM25.1324 55.5388V55.7368C25.1324 59.2648 22.8284 63.0988 18.5084 65.8708L19.5884 67.2928C24.2324 64.2328 26.9324 60.1108 26.9324 55.3768V53.9008H18.8684V55.5388H25.1324Z" fill="black"/>
</svg>
