<svg width="310" height="40" viewBox="0 0 310 40" fill="none" xmlns="http://www.w3.org/2000/svg">
<rect x="0.5" y="0.5" width="309" height="39" rx="5.5" fill="#F4F4F4"/>
<path d="M114.512 17.868V13.136H112.734V26.212H114.512V19.492H116.402V17.868H114.512ZM108.506 15.74H111.222V14.102H104.124V15.74H106.756V16.118C106.756 18.904 105.706 21.046 103.606 23.3L104.88 24.462C106.028 23.272 106.896 22.04 107.498 20.738L110.382 24.336L111.726 23.174L108.198 18.764C108.408 17.91 108.506 17.042 108.506 16.118V15.74ZM127.787 13.136H125.995V22.81H127.787V17.854H129.677V16.23H127.787V13.136ZM123.937 20.794L124.959 19.464L121.515 16.776C121.725 16.104 121.837 15.39 121.837 14.62V13.598H120.087V14.62C120.087 16.51 119.219 18.148 116.909 19.688L117.931 21.06C119.191 20.22 120.129 19.324 120.773 18.33L123.937 20.794ZM119.191 21.984V26.212H128.403V24.588H120.969V21.984H119.191ZM135.365 20.458C137.409 19.828 138.837 19.1 139.747 18.274L144.731 20.458L145.501 18.904L140.783 16.86C140.923 16.524 141.007 16.174 141.021 15.81H144.759V14.228H141.035V12.94H139.257V14.228H135.435V15.81H139.229C139.047 16.832 137.717 17.91 134.679 18.876L135.365 20.458ZM133.937 21.382V23.006H139.201V26.352H140.993V23.006H146.257V21.382H133.937ZM157.824 17.868V13.136H156.032V26.212H157.824V19.492H159.714V17.868H157.824ZM152.182 15.74C152.182 18.218 150.656 21.13 147.296 23.328L148.402 24.728C151.986 22.306 153.988 19.114 153.988 15.39V14.102H147.674V15.74H152.182ZM171.086 17.868V13.136H169.308V26.212H171.086V19.492H172.99V17.868H171.086ZM163.428 13.15V14.928H160.488V16.524H168.174V14.928H165.234V13.15H163.428ZM164.338 17.518C162.504 17.518 161.048 18.736 161.048 20.626V21.396C161.048 23.286 162.504 24.518 164.338 24.518C166.186 24.518 167.614 23.286 167.614 21.396V20.626C167.614 18.736 166.186 17.518 164.338 17.518ZM165.836 21.326C165.836 22.334 165.178 22.922 164.338 22.922C163.498 22.922 162.84 22.334 162.84 21.326V20.696C162.84 19.688 163.498 19.114 164.338 19.114C165.178 19.114 165.836 19.688 165.836 20.696V21.326ZM183.311 26.212H185.103V13.136H183.311V26.212ZM179.251 15.74C179.251 18.218 177.697 21.144 174.239 23.314L175.331 24.728C179.027 22.334 181.071 19.114 181.071 15.39V14.102H174.617V15.74H179.251Z" fill="black"/>
<path d="M203.667 20.6666H199.667V24.6666H198.333V20.6666H194.333V19.3333H198.333V15.3333H199.667V19.3333H203.667V20.6666Z" fill="black"/>
<rect x="0.5" y="0.5" width="309" height="39" rx="5.5" stroke="#EDEDED"/>
</svg>
