<svg width="83" height="15" viewBox="0 0 83 15" fill="none" xmlns="http://www.w3.org/2000/svg">
<path d="M11.5115 5.868V1.136H9.7335V14.212H11.5115V7.492H13.4015V5.868H11.5115ZM5.5055 3.74H8.2215V2.102H1.1235V3.74H3.7555V4.118C3.7555 6.904 2.7055 9.046 0.6055 11.3L1.8795 12.462C3.0275 11.272 3.8955 10.04 4.4975 8.738L7.3815 12.336L8.7255 11.174L5.1975 6.764C5.4075 5.91 5.5055 5.042 5.5055 4.118V3.74ZM24.7869 1.136H22.9949V10.81H24.7869V5.854H26.6769V4.23H24.7869V1.136ZM20.9369 8.794L21.9589 7.464L18.5149 4.776C18.7249 4.104 18.8369 3.39 18.8369 2.62V1.598H17.0869V2.62C17.0869 4.51 16.2189 6.148 13.9089 7.688L14.9309 9.06C16.1909 8.22 17.1289 7.324 17.7729 6.33L20.9369 8.794ZM16.1909 9.984V14.212H25.4029V12.588H17.9689V9.984H16.1909ZM32.3649 8.458C34.4089 7.828 35.8369 7.1 36.7469 6.274L41.7309 8.458L42.5009 6.904L37.7829 4.86C37.9229 4.524 38.0069 4.174 38.0209 3.81H41.7589V2.228H38.0349V0.94H36.2569V2.228H32.4349V3.81H36.2289C36.0469 4.832 34.7169 5.91 31.6789 6.876L32.3649 8.458ZM30.9369 9.382V11.006H36.2009V14.352H37.9929V11.006H43.2569V9.382H30.9369ZM54.8243 5.868V1.136H53.0323V14.212H54.8243V7.492H56.7143V5.868H54.8243ZM49.1823 3.74C49.1823 6.218 47.6563 9.13 44.2963 11.328L45.4023 12.728C48.9863 10.306 50.9883 7.114 50.9883 3.39V2.102H44.6743V3.74H49.1823ZM68.0857 5.868V1.136H66.3077V14.212H68.0857V7.492H69.9897V5.868H68.0857ZM60.4277 1.15V2.928H57.4877V4.524H65.1737V2.928H62.2337V1.15H60.4277ZM61.3377 5.518C59.5037 5.518 58.0477 6.736 58.0477 8.626V9.396C58.0477 11.286 59.5037 12.518 61.3377 12.518C63.1857 12.518 64.6137 11.286 64.6137 9.396V8.626C64.6137 6.736 63.1857 5.518 61.3377 5.518ZM62.8357 9.326C62.8357 10.334 62.1777 10.922 61.3377 10.922C60.4977 10.922 59.8397 10.334 59.8397 9.326V8.696C59.8397 7.688 60.4977 7.114 61.3377 7.114C62.1777 7.114 62.8357 7.688 62.8357 8.696V9.326ZM80.3111 14.212H82.1031V1.136H80.3111V14.212ZM76.2511 3.74C76.2511 6.218 74.6971 9.144 71.2391 11.314L72.3311 12.728C76.0271 10.334 78.0711 7.114 78.0711 3.39V2.102H71.6171V3.74H76.2511Z" fill="black"/>
</svg>
