<svg width="153" height="16" viewBox="0 0 153 16" fill="none" xmlns="http://www.w3.org/2000/svg">
<path d="M9.344 9.448C9.344 6.472 7.408 4.952 5.088 4.952C2.816 4.952 0.848 6.456 0.848 9.352V10.424C0.848 13.336 2.848 14.84 5.12 14.84C6.944 14.84 8.608 13.96 9.2 12.248L7.728 11.768C7.296 12.856 6.256 13.416 5.12 13.416C3.68 13.416 2.448 12.408 2.416 10.472H9.344V9.448ZM2.432 9.112C2.528 7.32 3.696 6.392 5.088 6.392C6.608 6.392 7.744 7.448 7.744 9.112H2.432ZM22.2199 5.144V8.792H23.7399V0.615999H22.2199V3.736H20.3639V0.775999H18.8919V8.648H20.3639V5.144H22.2199ZM15.8199 1.256V3.272H12.6199V1.256H11.1959V8.104H17.2439V1.256H15.8199ZM12.6199 4.68H15.8199V6.696H12.6199V4.68ZM17.0199 9.576C14.8279 9.576 13.4519 10.824 13.4519 12.6C13.4519 14.376 14.8279 15.624 17.0199 15.624H20.3639C22.5559 15.624 23.9319 14.376 23.9319 12.6C23.9319 10.824 22.5559 9.576 20.3639 9.576H17.0199ZM17.2759 14.184C15.7719 14.184 15.0519 13.528 15.0519 12.6C15.0519 11.656 15.7719 11 17.2759 11H20.1079C21.6119 11 22.3319 11.656 22.3319 12.6C22.3319 13.528 21.6119 14.184 20.1079 14.184H17.2759ZM37.0878 0.615999V8.712H38.6718V0.615999H37.0878ZM34.3358 1.32H26.9118V2.68H32.8798C32.8638 3.144 32.7518 3.592 32.5598 4.024C31.0078 4.168 28.3838 4.264 26.9278 4.264H26.6078L26.6718 5.528H27.0238C28.3518 5.528 30.1758 5.432 31.6158 5.304C30.5598 6.328 28.8798 7.176 26.6238 7.768L27.1038 9.064C31.6798 7.8 34.3358 5.64 34.3358 2.216V1.32ZM32.0798 9.496C29.9198 9.496 28.5438 10.776 28.5438 12.552C28.5438 14.344 29.9198 15.624 32.0798 15.624H35.3278C37.4878 15.624 38.8638 14.344 38.8638 12.552C38.8638 10.776 37.4878 9.496 35.3278 9.496H32.0798ZM32.3518 14.184C30.8638 14.184 30.1438 13.496 30.1438 12.552C30.1438 11.608 30.8638 10.92 32.3518 10.92H35.0718C36.5438 10.92 37.2798 11.608 37.2798 12.552C37.2798 13.496 36.5438 14.184 35.0718 14.184H32.3518ZM53.2695 5.208H56.1655V8.712H57.7655V0.615999H56.1655V3.832H53.2695V5.208ZM53.5735 8.632L54.3735 7.32L50.2135 4.696C50.4375 4.088 50.5495 3.448 50.5495 2.744H53.7975V1.32H45.7975V2.744H48.9975C48.9975 4.712 47.7655 6.152 45.2055 7.592L45.9575 8.872C47.5895 7.992 48.7895 7.048 49.5415 5.976L53.5735 8.632ZM51.1735 9.496C49.0135 9.496 47.6375 10.776 47.6375 12.552C47.6375 14.344 49.0135 15.624 51.1735 15.624H54.4055C56.5815 15.624 57.9575 14.344 57.9575 12.552C57.9575 10.776 56.5815 9.496 54.4055 9.496H51.1735ZM51.4295 14.184C49.9575 14.184 49.2215 13.496 49.2215 12.552C49.2215 11.608 49.9575 10.92 51.4295 10.92H54.1655C55.6375 10.92 56.3575 11.608 56.3575 12.552C56.3575 13.496 55.6375 14.184 54.1655 14.184H51.4295ZM71.3534 15.464H72.9374V0.615999H71.3534V15.464ZM66.7774 3.24V3.416C66.7774 6.552 64.7294 9.96 60.8894 12.424L61.8494 13.688C65.9774 10.968 68.3774 7.304 68.3774 3.096V1.784H61.2094V3.24H66.7774ZM86.7813 15.464H88.3493V0.615999H86.7813V15.464ZM81.6133 4.04C81.1493 2.12 80.0613 1.32 78.7493 1.32C76.9893 1.32 75.6453 2.728 75.6453 6.296V8.552C75.6453 12.12 76.9893 13.528 78.7493 13.528C80.2213 13.528 81.3893 12.536 81.7413 10.104H83.5653V15.16H85.0853V0.839999H83.5653V4.04H81.6133ZM80.3333 8.536C80.3333 11.112 79.6613 12.072 78.7493 12.072C77.8373 12.072 77.1653 11.112 77.1653 8.536V6.312C77.1653 3.72 77.8373 2.776 78.7493 2.776C79.6613 2.776 80.3333 3.72 80.3333 6.312V8.536ZM81.8373 8.696V8.552V6.296C81.8373 6.008 81.8213 5.72 81.8053 5.464H83.5653V8.696H81.8373ZM102.081 6.488C102.353 4.936 102.497 3.304 102.497 2.024V1.08H92.2731V2.536H100.913C100.897 3.4 100.753 4.984 100.481 6.488H90.5611V7.896H104.513V6.488H102.081ZM102.817 15.48V9.688H92.2731V15.48H102.817ZM101.217 11.064V14.072H93.8731V11.064H101.217ZM117.431 6.712H121.751V0.855999H120.151V2.536H113.111V0.855999H111.511V6.712H115.847V8.184H109.655V9.56H123.607V8.184H117.431V6.712ZM120.151 3.848V5.4H113.111V3.848H120.151ZM120.311 12.408V15.624H121.911V11H111.367V12.408H120.311ZM137.547 15.464V0.615999H135.963V15.464H137.547ZM128.427 13.352C130.555 13.352 132.811 13.16 134.539 12.84L134.347 11.448C132.523 11.736 130.411 11.912 128.715 11.912H127.227V8.152H132.763V1.704H125.627V3.144H131.163V6.744H125.627V13.352H128.427ZM151.119 8.952H152.719V0.615999H151.119V8.952ZM148.719 8.52L149.567 7.256L145.279 4.376C145.535 3.672 145.663 2.92 145.663 2.104V1.096H144.079V2.104C144.079 4.264 142.863 5.96 140.143 7.56L140.975 8.84C142.607 7.896 143.807 6.872 144.575 5.736L148.719 8.52ZM151.119 11.336V15.624H152.719V9.88H142.735V11.336H151.119Z" fill="black"/>
</svg>
