<svg width="49" height="28" viewBox="0 0 49 28" fill="none" xmlns="http://www.w3.org/2000/svg">
<path d="M6.93 11.152C5.454 11.152 4.014 11.764 3.258 12.97V12.376C3.258 9.262 4.662 7.948 6.408 7.948C7.974 7.948 8.892 8.65 9.63 10.054L11.538 9.064C10.53 6.994 8.838 5.896 6.3 5.896C3.708 5.896 1.152 7.84 1.152 12.286V15.94C1.152 19.288 3.402 21.124 6.462 21.124C9.504 21.124 11.826 19.198 11.826 16.156C11.826 13.114 9.504 11.152 6.93 11.152ZM6.48 19.072C4.752 19.072 3.456 17.938 3.456 16.12C3.456 14.302 4.752 13.186 6.48 13.186C8.226 13.186 9.558 14.302 9.558 16.12C9.558 17.938 8.226 19.072 6.48 19.072ZM15.2989 21.124C16.1089 21.124 16.7569 20.476 16.7569 19.666C16.7569 18.856 16.1089 18.19 15.2989 18.19C14.4889 18.19 13.8409 18.856 13.8409 19.666C13.8409 20.476 14.4889 21.124 15.2989 21.124ZM18.6886 17.398C19.4266 19.468 21.1366 21.124 24.1246 21.124C27.2746 21.124 29.4526 19.432 29.4526 16.84C29.4526 15.004 28.2826 13.798 26.8426 13.276C28.0486 12.754 29.1106 11.746 29.1106 9.928C29.1106 7.354 26.9686 5.896 24.0886 5.896C21.3526 5.896 19.8046 7.444 19.1026 9.334L21.1546 10.108C21.5866 8.992 22.4146 7.966 24.0886 7.966C25.7626 7.966 26.8426 8.74 26.8426 10.072C26.8426 11.386 25.8526 12.322 23.8546 12.322H21.9466V14.266H23.8546C26.1226 14.266 27.2026 15.382 27.2026 16.732C27.2026 18.064 26.0866 19.054 24.1246 19.054C22.1806 19.054 21.2266 17.92 20.7406 16.642L18.6886 17.398ZM34.5815 13.942C36.3995 13.942 37.9295 12.7 37.9295 10.594V9.226C37.9295 7.156 36.3995 5.896 34.5815 5.896C32.7635 5.896 31.2335 7.156 31.2335 9.226V10.594C31.2335 12.7 32.7635 13.942 34.5815 13.942ZM35.4815 20.854L45.6875 6.166H43.1315L32.9255 20.854H35.4815ZM34.5815 12.052C33.8075 12.052 33.2495 11.44 33.2495 10.45V9.388C33.2495 8.398 33.8075 7.786 34.5815 7.786C35.3555 7.786 35.9315 8.38 35.9315 9.388V10.45C35.9315 11.458 35.3555 12.052 34.5815 12.052ZM43.9595 21.124C45.7775 21.124 47.3075 19.882 47.3075 17.776V16.408C47.3075 14.338 45.7775 13.078 43.9595 13.078C42.1415 13.078 40.6115 14.338 40.6115 16.408V17.776C40.6115 19.882 42.1415 21.124 43.9595 21.124ZM43.9595 19.234C43.1855 19.234 42.6275 18.622 42.6275 17.632V16.57C42.6275 15.58 43.1855 14.968 43.9595 14.968C44.7335 14.968 45.3095 15.562 45.3095 16.57V17.632C45.3095 18.64 44.7335 19.234 43.9595 19.234Z" fill="black"/>
</svg>
