<svg width="49" height="28" viewBox="0 0 49 28" fill="none" xmlns="http://www.w3.org/2000/svg">
<path d="M0.882 17.398C1.62 19.468 3.33 21.124 6.318 21.124C9.468 21.124 11.646 19.432 11.646 16.84C11.646 15.004 10.476 13.798 9.036 13.276C10.242 12.754 11.304 11.746 11.304 9.928C11.304 7.354 9.162 5.896 6.282 5.896C3.546 5.896 1.998 7.444 1.296 9.334L3.348 10.108C3.78 8.992 4.608 7.966 6.282 7.966C7.956 7.966 9.036 8.74 9.036 10.072C9.036 11.386 8.046 12.322 6.048 12.322H4.14V14.266H6.048C8.316 14.266 9.396 15.382 9.396 16.732C9.396 18.064 8.28 19.054 6.318 19.054C4.374 19.054 3.42 17.92 2.934 16.642L0.882 17.398ZM15.2989 21.124C16.1089 21.124 16.7569 20.476 16.7569 19.666C16.7569 18.856 16.1089 18.19 15.2989 18.19C14.4889 18.19 13.8409 18.856 13.8409 19.666C13.8409 20.476 14.4889 21.124 15.2989 21.124ZM24.3946 21.124C27.5086 21.124 29.8306 19.612 29.8306 16.768C29.8306 15.292 28.9126 13.96 27.0946 13.24C28.7506 12.592 29.4526 11.386 29.4526 10.018C29.4526 7.318 27.2926 5.896 24.3946 5.896C21.5146 5.896 19.3366 7.318 19.3366 10.018C19.3366 11.386 20.0386 12.592 21.6946 13.24C19.8766 13.96 18.9586 15.292 18.9586 16.768C18.9586 19.612 21.3166 21.124 24.3946 21.124ZM24.3946 12.304C22.6486 12.304 21.6406 11.458 21.6406 10.144C21.6406 8.812 22.6486 7.966 24.3946 7.966C26.1406 7.966 27.1666 8.812 27.1666 10.144C27.1666 11.458 26.1406 12.304 24.3946 12.304ZM24.3946 19.054C22.4146 19.054 21.2446 18.118 21.2446 16.66C21.2446 15.238 22.4506 14.284 24.3946 14.284C26.3386 14.284 27.5446 15.238 27.5446 16.66C27.5446 18.118 26.3746 19.054 24.3946 19.054ZM34.9682 13.942C36.7862 13.942 38.3162 12.7 38.3162 10.594V9.226C38.3162 7.156 36.7862 5.896 34.9682 5.896C33.1502 5.896 31.6202 7.156 31.6202 9.226V10.594C31.6202 12.7 33.1502 13.942 34.9682 13.942ZM35.8682 20.854L46.0742 6.166H43.5182L33.3122 20.854H35.8682ZM34.9682 12.052C34.1942 12.052 33.6362 11.44 33.6362 10.45V9.388C33.6362 8.398 34.1942 7.786 34.9682 7.786C35.7422 7.786 36.3182 8.38 36.3182 9.388V10.45C36.3182 11.458 35.7422 12.052 34.9682 12.052ZM44.3462 21.124C46.1642 21.124 47.6942 19.882 47.6942 17.776V16.408C47.6942 14.338 46.1642 13.078 44.3462 13.078C42.5282 13.078 40.9982 14.338 40.9982 16.408V17.776C40.9982 19.882 42.5282 21.124 44.3462 21.124ZM44.3462 19.234C43.5722 19.234 43.0142 18.622 43.0142 17.632V16.57C43.0142 15.58 43.5722 14.968 44.3462 14.968C45.1202 14.968 45.6962 15.562 45.6962 16.57V17.632C45.6962 18.64 45.1202 19.234 44.3462 19.234Z" fill="black"/>
</svg>
