<svg width="49" height="28" viewBox="0 0 49 28" fill="none" xmlns="http://www.w3.org/2000/svg">
<path d="M0.882 17.398C1.62 19.468 3.33 21.124 6.318 21.124C9.468 21.124 11.646 19.432 11.646 16.84C11.646 15.004 10.476 13.798 9.036 13.276C10.242 12.754 11.304 11.746 11.304 9.928C11.304 7.354 9.162 5.896 6.282 5.896C3.546 5.896 1.998 7.444 1.296 9.334L3.348 10.108C3.78 8.992 4.608 7.966 6.282 7.966C7.956 7.966 9.036 8.74 9.036 10.072C9.036 11.386 8.046 12.322 6.048 12.322H4.14V14.266H6.048C8.316 14.266 9.396 15.382 9.396 16.732C9.396 18.064 8.28 19.054 6.318 19.054C4.374 19.054 3.42 17.92 2.934 16.642L0.882 17.398ZM15.2989 21.124C16.1089 21.124 16.7569 20.476 16.7569 19.666C16.7569 18.856 16.1089 18.19 15.2989 18.19C14.4889 18.19 13.8409 18.856 13.8409 19.666C13.8409 20.476 14.4889 21.124 15.2989 21.124ZM24.3586 11.404C23.3326 11.404 22.2886 11.8 21.6046 12.574L22.0906 8.272H28.5706V6.166H20.1466L19.2286 15.166H21.2986C21.7846 14.104 22.6126 13.51 23.8906 13.51C25.6186 13.51 26.8246 14.59 26.8246 16.264C26.8246 17.92 25.7086 19.018 23.8546 19.018C22.4866 19.018 21.3166 18.406 20.7586 17.146L18.7786 18.262C19.6426 20.188 21.8206 21.124 23.9806 21.124C27.0766 21.124 29.0926 19.18 29.0926 16.264C29.0926 13.33 27.0586 11.404 24.3586 11.404ZM34.23 13.942C36.048 13.942 37.578 12.7 37.578 10.594V9.226C37.578 7.156 36.048 5.896 34.23 5.896C32.412 5.896 30.882 7.156 30.882 9.226V10.594C30.882 12.7 32.412 13.942 34.23 13.942ZM35.13 20.854L45.336 6.166H42.78L32.574 20.854H35.13ZM34.23 12.052C33.456 12.052 32.898 11.44 32.898 10.45V9.388C32.898 8.398 33.456 7.786 34.23 7.786C35.004 7.786 35.58 8.38 35.58 9.388V10.45C35.58 11.458 35.004 12.052 34.23 12.052ZM43.608 21.124C45.426 21.124 46.956 19.882 46.956 17.776V16.408C46.956 14.338 45.426 13.078 43.608 13.078C41.79 13.078 40.26 14.338 40.26 16.408V17.776C40.26 19.882 41.79 21.124 43.608 21.124ZM43.608 19.234C42.834 19.234 42.276 18.622 42.276 17.632V16.57C42.276 15.58 42.834 14.968 43.608 14.968C44.382 14.968 44.958 15.562 44.958 16.57V17.632C44.958 18.64 44.382 19.234 43.608 19.234Z" fill="black"/>
</svg>
