<svg width="79" height="20" viewBox="0 0 79 20" fill="none" xmlns="http://www.w3.org/2000/svg">
<path d="M15.82 7.24V0.48H13.28V19.16H15.82V9.56H18.52V7.24H15.82ZM7.24 4.2H11.12V1.86H0.98V4.2H4.74V4.74C4.74 8.72 3.24 11.78 0.24 15L2.06 16.66C3.7 14.96 4.94 13.2 5.8 11.34L9.92 16.48L11.84 14.82L6.8 8.52C7.1 7.3 7.24 6.06 7.24 4.74V4.2ZM34.7848 0.48H32.2248V14.3H34.7848V7.22H37.4848V4.9H34.7848V0.48ZM29.2848 11.42L30.7448 9.52L25.8248 5.68C26.1248 4.72 26.2848 3.7 26.2848 2.6V1.14H23.7848V2.6C23.7848 5.3 22.5448 7.64 19.2448 9.84L20.7048 11.8C22.5048 10.6 23.8448 9.32 24.7648 7.9L29.2848 11.42ZM22.5048 13.12V19.16H35.6648V16.84H25.0448V13.12H22.5048ZM58.3706 10.14C58.7506 7.66 58.9706 5.08 58.9706 2.96V1.42H45.4706V3.76H56.4106C56.4106 5.2 56.1706 7.74 55.8106 10.14H43.5706V12.46H51.0906V19.38H53.6506V12.46H61.1706V10.14H58.3706ZM78.7355 10.66V0.499999H76.1755V3.62H72.5155V5.88H76.1755V10.66H78.7355ZM72.8355 10.42L74.2155 8.44L69.3155 5.04C69.6155 4.18 69.7555 3.26 69.7555 2.26V1.04H67.2555V2.26C67.2555 4.62 66.0355 6.72 62.6955 8.7L64.0755 10.72C65.8955 9.66 67.2755 8.5 68.2155 7.18L72.8355 10.42ZM70.1755 11.48C67.4955 11.48 65.6555 13.06 65.6555 15.42C65.6555 17.8 67.4955 19.36 70.1755 19.36H74.4155C77.0955 19.36 78.9555 17.8 78.9555 15.42C78.9555 13.06 77.0955 11.48 74.4155 11.48H70.1755ZM70.5355 17.08C68.9955 17.08 68.2155 16.4 68.2155 15.4C68.2155 14.42 68.9955 13.74 70.5355 13.74H74.0555C75.5955 13.74 76.3955 14.42 76.3955 15.4C76.3955 16.4 75.5955 17.08 74.0555 17.08H70.5355Z" fill="black"/>
</svg>
