<svg width="90" height="126" viewBox="0 0 90 126" fill="none" xmlns="http://www.w3.org/2000/svg">
<path d="M0.784 14.824C1.274 16.266 2.548 17.568 4.788 17.568C7.098 17.568 8.652 16.266 8.652 14.404C8.652 12.962 7.742 11.912 6.44 11.534C7.56 11.184 8.386 10.232 8.386 8.846C8.386 7.04 6.874 5.892 4.774 5.892C2.744 5.892 1.596 7.166 1.12 8.468L2.03 8.804C2.45 7.782 3.206 6.816 4.774 6.816C6.342 6.816 7.378 7.586 7.378 8.888C7.378 10.176 6.412 11.1 4.578 11.1H3.206V11.996H4.578C6.622 11.996 7.658 13.046 7.658 14.376C7.658 15.72 6.566 16.644 4.788 16.644C3.01 16.644 2.128 15.65 1.708 14.516L0.784 14.824ZM11.3603 19.808L11.8363 16.098H10.8283L10.5343 19.808H11.3603ZM20.3839 14.082V6.102H19.0119L13.5519 14.152V15.006H19.3759V17.568H20.3839V15.006H22.2879V14.082H20.3839ZM19.3759 7.222V14.082H14.7699L19.3759 7.222ZM27.8574 17.568C30.0694 17.568 31.8474 15.93 31.8474 12.85V10.61C31.8474 7.544 30.0694 5.892 27.8574 5.892C25.6314 5.892 23.8534 7.544 23.8534 10.61V12.85C23.8534 15.93 25.6314 17.568 27.8574 17.568ZM27.8574 16.658C26.2194 16.658 24.8754 15.426 24.8754 12.78V10.68C24.8754 8.048 26.2194 6.802 27.8574 6.802C29.4954 6.802 30.8394 8.048 30.8394 10.68V12.78C30.8394 15.426 29.4954 16.658 27.8574 16.658ZM37.8378 17.568C40.0498 17.568 41.8278 15.93 41.8278 12.85V10.61C41.8278 7.544 40.0498 5.892 37.8378 5.892C35.6118 5.892 33.8338 7.544 33.8338 10.61V12.85C33.8338 15.93 35.6118 17.568 37.8378 17.568ZM37.8378 16.658C36.1998 16.658 34.8558 15.426 34.8558 12.78V10.68C34.8558 8.048 36.1998 6.802 37.8378 6.802C39.4758 6.802 40.8198 8.048 40.8198 10.68V12.78C40.8198 15.426 39.4758 16.658 37.8378 16.658ZM44.5283 19.808L45.0043 16.098H43.9963L43.7023 19.808H44.5283ZM51.0039 17.568C53.2159 17.568 54.9939 15.93 54.9939 12.85V10.61C54.9939 7.544 53.2159 5.892 51.0039 5.892C48.7779 5.892 46.9999 7.544 46.9999 10.61V12.85C46.9999 15.93 48.7779 17.568 51.0039 17.568ZM51.0039 16.658C49.3659 16.658 48.0219 15.426 48.0219 12.78V10.68C48.0219 8.048 49.3659 6.802 51.0039 6.802C52.6419 6.802 53.9859 8.048 53.9859 10.68V12.78C53.9859 15.426 52.6419 16.658 51.0039 16.658ZM60.9843 17.568C63.1963 17.568 64.9743 15.93 64.9743 12.85V10.61C64.9743 7.544 63.1963 5.892 60.9843 5.892C58.7583 5.892 56.9803 7.544 56.9803 10.61V12.85C56.9803 15.93 58.7583 17.568 60.9843 17.568ZM60.9843 16.658C59.3463 16.658 58.0023 15.426 58.0023 12.78V10.68C58.0023 8.048 59.3463 6.802 60.9843 6.802C62.6223 6.802 63.9663 8.048 63.9663 10.68V12.78C63.9663 15.426 62.6223 16.658 60.9843 16.658ZM70.9648 17.568C73.1768 17.568 74.9548 15.93 74.9548 12.85V10.61C74.9548 7.544 73.1768 5.892 70.9648 5.892C68.7388 5.892 66.9608 7.544 66.9608 10.61V12.85C66.9608 15.93 68.7388 17.568 70.9648 17.568ZM70.9648 16.658C69.3268 16.658 67.9828 15.426 67.9828 12.78V10.68C67.9828 8.048 69.3268 6.802 70.9648 6.802C72.6028 6.802 73.9468 8.048 73.9468 10.68V12.78C73.9468 15.426 72.6028 16.658 70.9648 16.658ZM82.5273 14.25H86.4613V15.524H87.4553V5.178H86.4613V13.424H82.5273V14.25ZM80.7773 10.344C82.6533 10.344 84.1513 9.56 84.1513 8.034V7.852C84.1513 6.326 82.6533 5.528 80.7773 5.528C78.9013 5.528 77.4033 6.326 77.4033 7.852V8.034C77.4033 9.56 78.9013 10.344 80.7773 10.344ZM78.3693 7.88C78.3693 6.942 79.3773 6.396 80.7773 6.396C82.1913 6.396 83.1993 6.942 83.1993 7.88V8.006C83.1993 8.944 82.1913 9.49 80.7773 9.49C79.3773 9.49 78.3693 8.944 78.3693 8.006V7.88ZM80.9033 14.712C80.9873 13.942 81.0573 13.144 81.1133 12.388C82.5413 12.318 84.0673 12.192 85.3273 12.01L85.2293 11.17C83.1993 11.422 80.6093 11.576 79.0133 11.576H76.6613L76.7033 12.444H78.9573C79.3213 12.444 79.7133 12.444 80.1193 12.43C80.0773 13.144 80.0073 13.928 79.9233 14.642L80.9033 14.712ZM80.0073 15.258H79.0133V18.1H88.0573V17.176H80.0073V15.258Z" fill="black"/>
<path d="M8.858 51.358V40.102H7.962L4.434 42.958L5.022 43.7L7.836 41.418V51.358H8.858ZM12.1201 53.808L12.5961 50.098H11.5881L11.2941 53.808H12.1201ZM18.5957 51.568C20.8077 51.568 22.5857 49.93 22.5857 46.85V44.61C22.5857 41.544 20.8077 39.892 18.5957 39.892C16.3697 39.892 14.5917 41.544 14.5917 44.61V46.85C14.5917 49.93 16.3697 51.568 18.5957 51.568ZM18.5957 50.658C16.9577 50.658 15.6137 49.426 15.6137 46.78V44.68C15.6137 42.048 16.9577 40.802 18.5957 40.802C20.2337 40.802 21.5777 42.048 21.5777 44.68V46.78C21.5777 49.426 20.2337 50.658 18.5957 50.658ZM28.5761 51.568C30.7881 51.568 32.5661 49.93 32.5661 46.85V44.61C32.5661 41.544 30.7881 39.892 28.5761 39.892C26.3501 39.892 24.5721 41.544 24.5721 44.61V46.85C24.5721 49.93 26.3501 51.568 28.5761 51.568ZM28.5761 50.658C26.9381 50.658 25.5941 49.426 25.5941 46.78V44.68C25.5941 42.048 26.9381 40.802 28.5761 40.802C30.2141 40.802 31.5581 42.048 31.5581 44.68V46.78C31.5581 49.426 30.2141 50.658 28.5761 50.658ZM38.5566 51.568C40.7686 51.568 42.5466 49.93 42.5466 46.85V44.61C42.5466 41.544 40.7686 39.892 38.5566 39.892C36.3306 39.892 34.5526 41.544 34.5526 44.61V46.85C34.5526 49.93 36.3306 51.568 38.5566 51.568ZM38.5566 50.658C36.9186 50.658 35.5746 49.426 35.5746 46.78V44.68C35.5746 42.048 36.9186 40.802 38.5566 40.802C40.1946 40.802 41.5386 42.048 41.5386 44.68V46.78C41.5386 49.426 40.1946 50.658 38.5566 50.658ZM45.2471 53.808L45.7231 50.098H44.7151L44.4211 53.808H45.2471ZM51.7226 51.568C53.9346 51.568 55.7126 49.93 55.7126 46.85V44.61C55.7126 41.544 53.9346 39.892 51.7226 39.892C49.4966 39.892 47.7186 41.544 47.7186 44.61V46.85C47.7186 49.93 49.4966 51.568 51.7226 51.568ZM51.7226 50.658C50.0846 50.658 48.7406 49.426 48.7406 46.78V44.68C48.7406 42.048 50.0846 40.802 51.7226 40.802C53.3606 40.802 54.7046 42.048 54.7046 44.68V46.78C54.7046 49.426 53.3606 50.658 51.7226 50.658ZM61.7031 51.568C63.9151 51.568 65.6931 49.93 65.6931 46.85V44.61C65.6931 41.544 63.9151 39.892 61.7031 39.892C59.4771 39.892 57.6991 41.544 57.6991 44.61V46.85C57.6991 49.93 59.4771 51.568 61.7031 51.568ZM61.7031 50.658C60.0651 50.658 58.7211 49.426 58.7211 46.78V44.68C58.7211 42.048 60.0651 40.802 61.7031 40.802C63.3411 40.802 64.6851 42.048 64.6851 44.68V46.78C64.6851 49.426 63.3411 50.658 61.7031 50.658ZM71.6835 51.568C73.8955 51.568 75.6735 49.93 75.6735 46.85V44.61C75.6735 41.544 73.8955 39.892 71.6835 39.892C69.4575 39.892 67.6795 41.544 67.6795 44.61V46.85C67.6795 49.93 69.4575 51.568 71.6835 51.568ZM71.6835 50.658C70.0455 50.658 68.7015 49.426 68.7015 46.78V44.68C68.7015 42.048 70.0455 40.802 71.6835 40.802C73.3215 40.802 74.6655 42.048 74.6655 44.68V46.78C74.6655 49.426 73.3215 50.658 71.6835 50.658ZM83.246 48.25H87.18V49.524H88.174V39.178H87.18V47.424H83.246V48.25ZM81.496 44.344C83.372 44.344 84.87 43.56 84.87 42.034V41.852C84.87 40.326 83.372 39.528 81.496 39.528C79.62 39.528 78.122 40.326 78.122 41.852V42.034C78.122 43.56 79.62 44.344 81.496 44.344ZM79.088 41.88C79.088 40.942 80.096 40.396 81.496 40.396C82.91 40.396 83.918 40.942 83.918 41.88V42.006C83.918 42.944 82.91 43.49 81.496 43.49C80.096 43.49 79.088 42.944 79.088 42.006V41.88ZM81.622 48.712C81.706 47.942 81.776 47.144 81.832 46.388C83.26 46.318 84.786 46.192 86.046 46.01L85.948 45.17C83.918 45.422 81.328 45.576 79.732 45.576H77.38L77.422 46.444H79.676C80.04 46.444 80.432 46.444 80.838 46.43C80.796 47.144 80.726 47.928 80.642 48.642L81.622 48.712ZM80.726 49.258H79.732V52.1H88.776V51.176H80.726V49.258Z" fill="black"/>
<path d="M8.546 82.082V74.102H7.174L1.714 82.152V83.006H7.538V85.568H8.546V83.006H10.45V82.082H8.546ZM7.538 75.222V82.082H2.932L7.538 75.222ZM12.7295 87.808L13.2055 84.098H12.1975L11.9035 87.808H12.7295ZM22.635 85.358V84.434H16.601L20.045 81.004C21.459 79.59 22.327 78.414 22.327 76.874C22.327 75.054 20.941 73.892 18.841 73.892C16.783 73.892 15.607 75.404 15.159 77.014L16.125 77.252C16.531 75.936 17.287 74.816 18.841 74.816C20.395 74.816 21.333 75.614 21.333 76.888C21.333 78.064 20.689 79.03 19.303 80.416L15.117 84.574V85.358H22.635ZM28.625 85.568C30.837 85.568 32.615 83.93 32.615 80.85V78.61C32.615 75.544 30.837 73.892 28.625 73.892C26.399 73.892 24.621 75.544 24.621 78.61V80.85C24.621 83.93 26.399 85.568 28.625 85.568ZM28.625 84.658C26.987 84.658 25.643 83.426 25.643 80.78V78.68C25.643 76.048 26.987 74.802 28.625 74.802C30.263 74.802 31.607 76.048 31.607 78.68V80.78C31.607 83.426 30.263 84.658 28.625 84.658ZM38.6054 85.568C40.8174 85.568 42.5954 83.93 42.5954 80.85V78.61C42.5954 75.544 40.8174 73.892 38.6054 73.892C36.3794 73.892 34.6014 75.544 34.6014 78.61V80.85C34.6014 83.93 36.3794 85.568 38.6054 85.568ZM38.6054 84.658C36.9674 84.658 35.6234 83.426 35.6234 80.78V78.68C35.6234 76.048 36.9674 74.802 38.6054 74.802C40.2434 74.802 41.5874 76.048 41.5874 78.68V80.78C41.5874 83.426 40.2434 84.658 38.6054 84.658ZM45.2959 87.808L45.7719 84.098H44.7639L44.4699 87.808H45.2959ZM51.7714 85.568C53.9834 85.568 55.7614 83.93 55.7614 80.85V78.61C55.7614 75.544 53.9834 73.892 51.7714 73.892C49.5454 73.892 47.7674 75.544 47.7674 78.61V80.85C47.7674 83.93 49.5454 85.568 51.7714 85.568ZM51.7714 84.658C50.1334 84.658 48.7894 83.426 48.7894 80.78V78.68C48.7894 76.048 50.1334 74.802 51.7714 74.802C53.4094 74.802 54.7534 76.048 54.7534 78.68V80.78C54.7534 83.426 53.4094 84.658 51.7714 84.658ZM61.7519 85.568C63.9639 85.568 65.7419 83.93 65.7419 80.85V78.61C65.7419 75.544 63.9639 73.892 61.7519 73.892C59.5259 73.892 57.7479 75.544 57.7479 78.61V80.85C57.7479 83.93 59.5259 85.568 61.7519 85.568ZM61.7519 84.658C60.1139 84.658 58.7699 83.426 58.7699 80.78V78.68C58.7699 76.048 60.1139 74.802 61.7519 74.802C63.3899 74.802 64.7339 76.048 64.7339 78.68V80.78C64.7339 83.426 63.3899 84.658 61.7519 84.658ZM71.7324 85.568C73.9444 85.568 75.7224 83.93 75.7224 80.85V78.61C75.7224 75.544 73.9444 73.892 71.7324 73.892C69.5064 73.892 67.7284 75.544 67.7284 78.61V80.85C67.7284 83.93 69.5064 85.568 71.7324 85.568ZM71.7324 84.658C70.0944 84.658 68.7504 83.426 68.7504 80.78V78.68C68.7504 76.048 70.0944 74.802 71.7324 74.802C73.3704 74.802 74.7144 76.048 74.7144 78.68V80.78C74.7144 83.426 73.3704 84.658 71.7324 84.658ZM83.2948 82.25H87.2288V83.524H88.2228V73.178H87.2288V81.424H83.2948V82.25ZM81.5448 78.344C83.4208 78.344 84.9188 77.56 84.9188 76.034V75.852C84.9188 74.326 83.4208 73.528 81.5448 73.528C79.6688 73.528 78.1708 74.326 78.1708 75.852V76.034C78.1708 77.56 79.6688 78.344 81.5448 78.344ZM79.1368 75.88C79.1368 74.942 80.1448 74.396 81.5448 74.396C82.9588 74.396 83.9668 74.942 83.9668 75.88V76.006C83.9668 76.944 82.9588 77.49 81.5448 77.49C80.1448 77.49 79.1368 76.944 79.1368 76.006V75.88ZM81.6708 82.712C81.7548 81.942 81.8248 81.144 81.8808 80.388C83.3088 80.318 84.8348 80.192 86.0948 80.01L85.9968 79.17C83.9668 79.422 81.3768 79.576 79.7808 79.576H77.4288L77.4708 80.444H79.7248C80.0888 80.444 80.4808 80.444 80.8868 80.43C80.8448 81.144 80.7748 81.928 80.6908 82.642L81.6708 82.712ZM80.7748 83.258H79.7808V86.1H88.8248V85.176H80.7748V83.258Z" fill="black"/>
<path d="M32.428 119.358V118.434H26.394L29.838 115.004C31.252 113.59 32.12 112.414 32.12 110.874C32.12 109.054 30.734 107.892 28.634 107.892C26.576 107.892 25.4 109.404 24.952 111.014L25.918 111.252C26.324 109.936 27.08 108.816 28.634 108.816C30.188 108.816 31.126 109.614 31.126 110.888C31.126 112.064 30.482 113.03 29.096 114.416L24.91 118.574V119.358H32.428ZM38.4179 119.568C40.6299 119.568 42.4079 117.93 42.4079 114.85V112.61C42.4079 109.544 40.6299 107.892 38.4179 107.892C36.1919 107.892 34.4139 109.544 34.4139 112.61V114.85C34.4139 117.93 36.1919 119.568 38.4179 119.568ZM38.4179 118.658C36.7799 118.658 35.4359 117.426 35.4359 114.78V112.68C35.4359 110.048 36.7799 108.802 38.4179 108.802C40.0559 108.802 41.3999 110.048 41.3999 112.68V114.78C41.3999 117.426 40.0559 118.658 38.4179 118.658ZM45.1084 121.808L45.5844 118.098H44.5764L44.2824 121.808H45.1084ZM51.5839 119.568C53.7959 119.568 55.5739 117.93 55.5739 114.85V112.61C55.5739 109.544 53.7959 107.892 51.5839 107.892C49.3579 107.892 47.5799 109.544 47.5799 112.61V114.85C47.5799 117.93 49.3579 119.568 51.5839 119.568ZM51.5839 118.658C49.9459 118.658 48.6019 117.426 48.6019 114.78V112.68C48.6019 110.048 49.9459 108.802 51.5839 108.802C53.2219 108.802 54.5659 110.048 54.5659 112.68V114.78C54.5659 117.426 53.2219 118.658 51.5839 118.658ZM61.5644 119.568C63.7764 119.568 65.5544 117.93 65.5544 114.85V112.61C65.5544 109.544 63.7764 107.892 61.5644 107.892C59.3384 107.892 57.5604 109.544 57.5604 112.61V114.85C57.5604 117.93 59.3384 119.568 61.5644 119.568ZM61.5644 118.658C59.9264 118.658 58.5824 117.426 58.5824 114.78V112.68C58.5824 110.048 59.9264 108.802 61.5644 108.802C63.2024 108.802 64.5464 110.048 64.5464 112.68V114.78C64.5464 117.426 63.2024 118.658 61.5644 118.658ZM71.5449 119.568C73.7569 119.568 75.5349 117.93 75.5349 114.85V112.61C75.5349 109.544 73.7569 107.892 71.5449 107.892C69.3189 107.892 67.5409 109.544 67.5409 112.61V114.85C67.5409 117.93 69.3189 119.568 71.5449 119.568ZM71.5449 118.658C69.9069 118.658 68.5629 117.426 68.5629 114.78V112.68C68.5629 110.048 69.9069 108.802 71.5449 108.802C73.1829 108.802 74.5269 110.048 74.5269 112.68V114.78C74.5269 117.426 73.1829 118.658 71.5449 118.658ZM83.1073 116.25H87.0413V117.524H88.0353V107.178H87.0413V115.424H83.1073V116.25ZM81.3573 112.344C83.2333 112.344 84.7313 111.56 84.7313 110.034V109.852C84.7313 108.326 83.2333 107.528 81.3573 107.528C79.4813 107.528 77.9833 108.326 77.9833 109.852V110.034C77.9833 111.56 79.4813 112.344 81.3573 112.344ZM78.9493 109.88C78.9493 108.942 79.9573 108.396 81.3573 108.396C82.7713 108.396 83.7793 108.942 83.7793 109.88V110.006C83.7793 110.944 82.7713 111.49 81.3573 111.49C79.9573 111.49 78.9493 110.944 78.9493 110.006V109.88ZM81.4833 116.712C81.5673 115.942 81.6373 115.144 81.6933 114.388C83.1213 114.318 84.6473 114.192 85.9073 114.01L85.8093 113.17C83.7793 113.422 81.1893 113.576 79.5933 113.576H77.2413L77.2833 114.444H79.5373C79.9013 114.444 80.2933 114.444 80.6993 114.43C80.6573 115.144 80.5873 115.928 80.5033 116.642L81.4833 116.712ZM80.5873 117.258H79.5933V120.1H88.6373V119.176H80.5873V117.258Z" fill="#333333"/>
</svg>
