<svg width="101" height="161" viewBox="0 0 101 161" fill="none" xmlns="http://www.w3.org/2000/svg">
<path d="M8.166 17.6302V6.29022H6.976L3.392 9.14622L4.19 10.1962L6.766 8.13822V17.6302H8.166ZM17.4279 14.1022V6.29022H15.5519L10.3439 14.2422V15.3902H16.0419V17.8402H17.4279V15.3902H19.1779V14.1022H17.4279ZM16.0419 7.88622V14.1022H12.0239L16.0419 7.88622ZM21.6814 20.0662L22.2554 16.0202H20.8414L20.5334 20.0662H21.6814ZM28.3024 17.8402C30.5704 17.8402 32.4324 16.2162 32.4324 13.0522V10.8542C32.4324 7.71822 30.5704 6.08022 28.3024 6.08022C26.0344 6.08022 24.1864 7.71822 24.1864 10.8542V13.0522C24.1864 16.2162 26.0344 17.8402 28.3024 17.8402ZM28.3024 16.5802C26.7764 16.5802 25.5864 15.4322 25.5864 12.9822V10.9382C25.5864 8.48822 26.7764 7.34022 28.3024 7.34022C29.8284 7.34022 31.0184 8.48822 31.0184 10.9382V12.9822C31.0184 15.4322 29.8284 16.5802 28.3024 16.5802ZM38.4332 17.8402C40.7012 17.8402 42.5632 16.2162 42.5632 13.0522V10.8542C42.5632 7.71822 40.7012 6.08022 38.4332 6.08022C36.1652 6.08022 34.3172 7.71822 34.3172 10.8542V13.0522C34.3172 16.2162 36.1652 17.8402 38.4332 17.8402ZM38.4332 16.5802C36.9072 16.5802 35.7172 15.4322 35.7172 12.9822V10.9382C35.7172 8.48822 36.9072 7.34022 38.4332 7.34022C39.9592 7.34022 41.1492 8.48822 41.1492 10.9382V12.9822C41.1492 15.4322 39.9592 16.5802 38.4332 16.5802ZM48.5641 17.8402C50.8321 17.8402 52.6941 16.2162 52.6941 13.0522V10.8542C52.6941 7.71822 50.8321 6.08022 48.5641 6.08022C46.2961 6.08022 44.4481 7.71822 44.4481 10.8542V13.0522C44.4481 16.2162 46.2961 17.8402 48.5641 17.8402ZM48.5641 16.5802C47.0381 16.5802 45.8481 15.4322 45.8481 12.9822V10.9382C45.8481 8.48822 47.0381 7.34022 48.5641 7.34022C50.0901 7.34022 51.2801 8.48822 51.2801 10.9382V12.9822C51.2801 15.4322 50.0901 16.5802 48.5641 16.5802ZM55.615 20.0662L56.189 16.0202H54.775L54.467 20.0662H55.615ZM62.236 17.8402C64.504 17.8402 66.366 16.2162 66.366 13.0522V10.8542C66.366 7.71822 64.504 6.08022 62.236 6.08022C59.968 6.08022 58.12 7.71822 58.12 10.8542V13.0522C58.12 16.2162 59.968 17.8402 62.236 17.8402ZM62.236 16.5802C60.71 16.5802 59.52 15.4322 59.52 12.9822V10.9382C59.52 8.48822 60.71 7.34022 62.236 7.34022C63.762 7.34022 64.952 8.48822 64.952 10.9382V12.9822C64.952 15.4322 63.762 16.5802 62.236 16.5802ZM72.3668 17.8402C74.6348 17.8402 76.4968 16.2162 76.4968 13.0522V10.8542C76.4968 7.71822 74.6348 6.08022 72.3668 6.08022C70.0988 6.08022 68.2508 7.71822 68.2508 10.8542V13.0522C68.2508 16.2162 70.0988 17.8402 72.3668 17.8402ZM72.3668 16.5802C70.8408 16.5802 69.6508 15.4322 69.6508 12.9822V10.9382C69.6508 8.48822 70.8408 7.34022 72.3668 7.34022C73.8928 7.34022 75.0828 8.48822 75.0828 10.9382V12.9822C75.0828 15.4322 73.8928 16.5802 72.3668 16.5802ZM82.4977 17.8402C84.7657 17.8402 86.6277 16.2162 86.6277 13.0522V10.8542C86.6277 7.71822 84.7657 6.08022 82.4977 6.08022C80.2297 6.08022 78.3817 7.71822 78.3817 10.8542V13.0522C78.3817 16.2162 80.2297 17.8402 82.4977 17.8402ZM82.4977 16.5802C80.9717 16.5802 79.7817 15.4322 79.7817 12.9822V10.9382C79.7817 8.48822 80.9717 7.34022 82.4977 7.34022C84.0237 7.34022 85.2137 8.48822 85.2137 10.9382V12.9822C85.2137 15.4322 84.0237 16.5802 82.4977 16.5802ZM94.2105 14.6342H97.8365V15.7402H99.2225V5.39422H97.8365V13.5702H94.2105V14.6342ZM92.3625 10.6162C94.3225 10.6162 95.8485 9.80422 95.8485 8.23622V8.06822C95.8485 6.48622 94.3225 5.67422 92.3625 5.67422C90.3885 5.67422 88.8625 6.48622 88.8625 8.06822V8.23622C88.8625 9.80422 90.3885 10.6162 92.3625 10.6162ZM90.1925 8.09622C90.1925 7.27022 91.1025 6.82222 92.3625 6.82222C93.6085 6.82222 94.5185 7.27022 94.5185 8.09622V8.20822C94.5185 9.02022 93.6085 9.46822 92.3625 9.46822C91.1025 9.46822 90.1925 9.02022 90.1925 8.20822V8.09622ZM92.6845 14.9282C92.7685 14.1862 92.8245 13.4442 92.8665 12.7582C94.2385 12.6882 95.6665 12.5622 96.8985 12.3942L96.7585 11.2462C94.7005 11.4982 92.1805 11.6522 90.5705 11.6522H88.2325L88.2885 12.8282H90.4585C90.7945 12.8282 91.1445 12.8282 91.5225 12.8142C91.4665 13.4582 91.4105 14.1582 91.3405 14.8302L92.6845 14.9282ZM91.8865 15.3902H90.5005V18.3862H99.7685V17.1122H91.8865V15.3902Z" fill="#333333"/>
<path d="M8.596 51.6302V50.3422H2.94L6.146 47.1642C7.504 45.8202 8.33 44.7002 8.33 43.1602C8.33 41.2562 6.874 40.0802 4.69 40.0802C2.562 40.0802 1.33 41.6202 0.868 43.2862L2.198 43.6082C2.576 42.3622 3.29 41.3402 4.69 41.3402C6.132 41.3402 6.944 42.0822 6.944 43.2162C6.944 44.2662 6.356 45.1482 5.082 46.4082L0.924 50.5382V51.6302H8.596ZM14.611 51.8402C16.879 51.8402 18.741 50.2162 18.741 47.0522V44.8542C18.741 41.7182 16.879 40.0802 14.611 40.0802C12.343 40.0802 10.495 41.7182 10.495 44.8542V47.0522C10.495 50.2162 12.343 51.8402 14.611 51.8402ZM14.611 50.5802C13.085 50.5802 11.895 49.4322 11.895 46.9822V44.9382C11.895 42.4882 13.085 41.3402 14.611 41.3402C16.137 41.3402 17.327 42.4882 17.327 44.9382V46.9822C17.327 49.4322 16.137 50.5802 14.611 50.5802ZM21.6618 54.0662L22.2358 50.0202H20.8218L20.5138 54.0662H21.6618ZM31.8108 51.6302V50.3422H26.1548L29.3608 47.1642C30.7188 45.8202 31.5448 44.7002 31.5448 43.1602C31.5448 41.2562 30.0888 40.0802 27.9048 40.0802C25.7768 40.0802 24.5448 41.6202 24.0828 43.2862L25.4128 43.6082C25.7908 42.3622 26.5048 41.3402 27.9048 41.3402C29.3468 41.3402 30.1588 42.0822 30.1588 43.2162C30.1588 44.2662 29.5708 45.1482 28.2968 46.4082L24.1388 50.5382V51.6302H31.8108ZM37.8258 51.8402C40.0938 51.8402 41.9558 50.2162 41.9558 47.0522V44.8542C41.9558 41.7182 40.0938 40.0802 37.8258 40.0802C35.5578 40.0802 33.7098 41.7182 33.7098 44.8542V47.0522C33.7098 50.2162 35.5578 51.8402 37.8258 51.8402ZM37.8258 50.5802C36.2998 50.5802 35.1098 49.4322 35.1098 46.9822V44.9382C35.1098 42.4882 36.2998 41.3402 37.8258 41.3402C39.3518 41.3402 40.5418 42.4882 40.5418 44.9382V46.9822C40.5418 49.4322 39.3518 50.5802 37.8258 50.5802ZM47.9567 51.8402C50.2247 51.8402 52.0867 50.2162 52.0867 47.0522V44.8542C52.0867 41.7182 50.2247 40.0802 47.9567 40.0802C45.6887 40.0802 43.8407 41.7182 43.8407 44.8542V47.0522C43.8407 50.2162 45.6887 51.8402 47.9567 51.8402ZM47.9567 50.5802C46.4307 50.5802 45.2407 49.4322 45.2407 46.9822V44.9382C45.2407 42.4882 46.4307 41.3402 47.9567 41.3402C49.4827 41.3402 50.6727 42.4882 50.6727 44.9382V46.9822C50.6727 49.4322 49.4827 50.5802 47.9567 50.5802ZM55.0075 54.0662L55.5815 50.0202H54.1675L53.8595 54.0662H55.0075ZM61.6285 51.8402C63.8965 51.8402 65.7585 50.2162 65.7585 47.0522V44.8542C65.7585 41.7182 63.8965 40.0802 61.6285 40.0802C59.3605 40.0802 57.5125 41.7182 57.5125 44.8542V47.0522C57.5125 50.2162 59.3605 51.8402 61.6285 51.8402ZM61.6285 50.5802C60.1025 50.5802 58.9125 49.4322 58.9125 46.9822V44.9382C58.9125 42.4882 60.1025 41.3402 61.6285 41.3402C63.1545 41.3402 64.3445 42.4882 64.3445 44.9382V46.9822C64.3445 49.4322 63.1545 50.5802 61.6285 50.5802ZM71.7594 51.8402C74.0274 51.8402 75.8894 50.2162 75.8894 47.0522V44.8542C75.8894 41.7182 74.0274 40.0802 71.7594 40.0802C69.4914 40.0802 67.6434 41.7182 67.6434 44.8542V47.0522C67.6434 50.2162 69.4914 51.8402 71.7594 51.8402ZM71.7594 50.5802C70.2334 50.5802 69.0434 49.4322 69.0434 46.9822V44.9382C69.0434 42.4882 70.2334 41.3402 71.7594 41.3402C73.2854 41.3402 74.4754 42.4882 74.4754 44.9382V46.9822C74.4754 49.4322 73.2854 50.5802 71.7594 50.5802ZM81.8903 51.8402C84.1583 51.8402 86.0203 50.2162 86.0203 47.0522V44.8542C86.0203 41.7182 84.1583 40.0802 81.8903 40.0802C79.6223 40.0802 77.7743 41.7182 77.7743 44.8542V47.0522C77.7743 50.2162 79.6223 51.8402 81.8903 51.8402ZM81.8903 50.5802C80.3643 50.5802 79.1743 49.4322 79.1743 46.9822V44.9382C79.1743 42.4882 80.3643 41.3402 81.8903 41.3402C83.4163 41.3402 84.6063 42.4882 84.6063 44.9382V46.9822C84.6063 49.4322 83.4163 50.5802 81.8903 50.5802ZM93.6031 48.6342H97.2291V49.7402H98.6151V39.3942H97.2291V47.5702H93.6031V48.6342ZM91.7551 44.6162C93.7151 44.6162 95.2411 43.8042 95.2411 42.2362V42.0682C95.2411 40.4862 93.7151 39.6742 91.7551 39.6742C89.7811 39.6742 88.2551 40.4862 88.2551 42.0682V42.2362C88.2551 43.8042 89.7811 44.6162 91.7551 44.6162ZM89.5851 42.0962C89.5851 41.2702 90.4951 40.8222 91.7551 40.8222C93.0011 40.8222 93.9111 41.2702 93.9111 42.0962V42.2082C93.9111 43.0202 93.0011 43.4682 91.7551 43.4682C90.4951 43.4682 89.5851 43.0202 89.5851 42.2082V42.0962ZM92.0771 48.9282C92.1611 48.1862 92.2171 47.4442 92.2591 46.7582C93.6311 46.6882 95.0591 46.5622 96.2911 46.3942L96.1511 45.2462C94.0931 45.4982 91.5731 45.6522 89.9631 45.6522H87.6251L87.6811 46.8282H89.8511C90.1871 46.8282 90.5371 46.8282 90.9151 46.8142C90.8591 47.4582 90.8031 48.1582 90.7331 48.8302L92.0771 48.9282ZM91.2791 49.3902H89.8931V52.3862H99.1611V51.1122H91.2791V49.3902Z" fill="#333333"/>
<path d="M8.166 85.6302V74.2902H6.976L3.392 77.1462L4.19 78.1962L6.766 76.1382V85.6302H8.166ZM18.2679 85.6302V84.3422H12.6119L15.8179 81.1642C17.1759 79.8202 18.0019 78.7002 18.0019 77.1602C18.0019 75.2562 16.5459 74.0802 14.3619 74.0802C12.2339 74.0802 11.0019 75.6202 10.5399 77.2862L11.8699 77.6082C12.2479 76.3622 12.9619 75.3402 14.3619 75.3402C15.8039 75.3402 16.6159 76.0822 16.6159 77.2162C16.6159 78.2662 16.0279 79.1482 14.7539 80.4082L10.5959 84.5382V85.6302H18.2679ZM21.2028 88.0662L21.7768 84.0202H20.3628L20.0548 88.0662H21.2028ZM27.8239 85.8402C30.0919 85.8402 31.9539 84.2162 31.9539 81.0522V78.8542C31.9539 75.7182 30.0919 74.0802 27.8239 74.0802C25.5559 74.0802 23.7079 75.7182 23.7079 78.8542V81.0522C23.7079 84.2162 25.5559 85.8402 27.8239 85.8402ZM27.8239 84.5802C26.2979 84.5802 25.1079 83.4322 25.1079 80.9822V78.9382C25.1079 76.4882 26.2979 75.3402 27.8239 75.3402C29.3499 75.3402 30.5399 76.4882 30.5399 78.9382V80.9822C30.5399 83.4322 29.3499 84.5802 27.8239 84.5802ZM37.9547 85.8402C40.2227 85.8402 42.0847 84.2162 42.0847 81.0522V78.8542C42.0847 75.7182 40.2227 74.0802 37.9547 74.0802C35.6867 74.0802 33.8387 75.7182 33.8387 78.8542V81.0522C33.8387 84.2162 35.6867 85.8402 37.9547 85.8402ZM37.9547 84.5802C36.4287 84.5802 35.2387 83.4322 35.2387 80.9822V78.9382C35.2387 76.4882 36.4287 75.3402 37.9547 75.3402C39.4807 75.3402 40.6707 76.4882 40.6707 78.9382V80.9822C40.6707 83.4322 39.4807 84.5802 37.9547 84.5802ZM48.0856 85.8402C50.3536 85.8402 52.2156 84.2162 52.2156 81.0522V78.8542C52.2156 75.7182 50.3536 74.0802 48.0856 74.0802C45.8176 74.0802 43.9696 75.7182 43.9696 78.8542V81.0522C43.9696 84.2162 45.8176 85.8402 48.0856 85.8402ZM48.0856 84.5802C46.5596 84.5802 45.3696 83.4322 45.3696 80.9822V78.9382C45.3696 76.4882 46.5596 75.3402 48.0856 75.3402C49.6116 75.3402 50.8016 76.4882 50.8016 78.9382V80.9822C50.8016 83.4322 49.6116 84.5802 48.0856 84.5802ZM55.1364 88.0662L55.7104 84.0202H54.2964L53.9884 88.0662H55.1364ZM61.7575 85.8402C64.0255 85.8402 65.8875 84.2162 65.8875 81.0522V78.8542C65.8875 75.7182 64.0255 74.0802 61.7575 74.0802C59.4895 74.0802 57.6415 75.7182 57.6415 78.8542V81.0522C57.6415 84.2162 59.4895 85.8402 61.7575 85.8402ZM61.7575 84.5802C60.2315 84.5802 59.0415 83.4322 59.0415 80.9822V78.9382C59.0415 76.4882 60.2315 75.3402 61.7575 75.3402C63.2835 75.3402 64.4735 76.4882 64.4735 78.9382V80.9822C64.4735 83.4322 63.2835 84.5802 61.7575 84.5802ZM71.8883 85.8402C74.1563 85.8402 76.0183 84.2162 76.0183 81.0522V78.8542C76.0183 75.7182 74.1563 74.0802 71.8883 74.0802C69.6203 74.0802 67.7723 75.7182 67.7723 78.8542V81.0522C67.7723 84.2162 69.6203 85.8402 71.8883 85.8402ZM71.8883 84.5802C70.3623 84.5802 69.1723 83.4322 69.1723 80.9822V78.9382C69.1723 76.4882 70.3623 75.3402 71.8883 75.3402C73.4143 75.3402 74.6043 76.4882 74.6043 78.9382V80.9822C74.6043 83.4322 73.4143 84.5802 71.8883 84.5802ZM82.0192 85.8402C84.2872 85.8402 86.1492 84.2162 86.1492 81.0522V78.8542C86.1492 75.7182 84.2872 74.0802 82.0192 74.0802C79.7512 74.0802 77.9032 75.7182 77.9032 78.8542V81.0522C77.9032 84.2162 79.7512 85.8402 82.0192 85.8402ZM82.0192 84.5802C80.4932 84.5802 79.3032 83.4322 79.3032 80.9822V78.9382C79.3032 76.4882 80.4932 75.3402 82.0192 75.3402C83.5452 75.3402 84.7352 76.4882 84.7352 78.9382V80.9822C84.7352 83.4322 83.5452 84.5802 82.0192 84.5802ZM93.732 82.6342H97.358V83.7402H98.744V73.3942H97.358V81.5702H93.732V82.6342ZM91.884 78.6162C93.844 78.6162 95.37 77.8042 95.37 76.2362V76.0682C95.37 74.4862 93.844 73.6742 91.884 73.6742C89.91 73.6742 88.384 74.4862 88.384 76.0682V76.2362C88.384 77.8042 89.91 78.6162 91.884 78.6162ZM89.714 76.0962C89.714 75.2702 90.624 74.8222 91.884 74.8222C93.13 74.8222 94.04 75.2702 94.04 76.0962V76.2082C94.04 77.0202 93.13 77.4682 91.884 77.4682C90.624 77.4682 89.714 77.0202 89.714 76.2082V76.0962ZM92.206 82.9282C92.29 82.1862 92.346 81.4442 92.388 80.7582C93.76 80.6882 95.188 80.5622 96.42 80.3942L96.28 79.2462C94.222 79.4982 91.702 79.6522 90.092 79.6522H87.754L87.81 80.8282H89.98C90.316 80.8282 90.666 80.8282 91.044 80.8142C90.988 81.4582 90.932 82.1582 90.862 82.8302L92.206 82.9282ZM91.408 83.3902H90.022V86.3862H99.29V85.1122H91.408V83.3902Z" fill="#333333"/>
<path d="M8.166 119.63V108.29H6.976L3.392 111.146L4.19 112.196L6.766 110.138V119.63H8.166ZM14.7399 119.84C17.0079 119.84 18.8699 118.216 18.8699 115.052V112.854C18.8699 109.718 17.0079 108.08 14.7399 108.08C12.4719 108.08 10.6239 109.718 10.6239 112.854V115.052C10.6239 118.216 12.4719 119.84 14.7399 119.84ZM14.7399 118.58C13.2139 118.58 12.0239 117.432 12.0239 114.982V112.938C12.0239 110.488 13.2139 109.34 14.7399 109.34C16.2659 109.34 17.4559 110.488 17.4559 112.938V114.982C17.4559 117.432 16.2659 118.58 14.7399 118.58ZM21.7907 122.066L22.3647 118.02H20.9507L20.6427 122.066H21.7907ZM28.4118 119.84C30.6798 119.84 32.5418 118.216 32.5418 115.052V112.854C32.5418 109.718 30.6798 108.08 28.4118 108.08C26.1438 108.08 24.2958 109.718 24.2958 112.854V115.052C24.2958 118.216 26.1438 119.84 28.4118 119.84ZM28.4118 118.58C26.8858 118.58 25.6958 117.432 25.6958 114.982V112.938C25.6958 110.488 26.8858 109.34 28.4118 109.34C29.9378 109.34 31.1278 110.488 31.1278 112.938V114.982C31.1278 117.432 29.9378 118.58 28.4118 118.58ZM38.5426 119.84C40.8106 119.84 42.6726 118.216 42.6726 115.052V112.854C42.6726 109.718 40.8106 108.08 38.5426 108.08C36.2746 108.08 34.4266 109.718 34.4266 112.854V115.052C34.4266 118.216 36.2746 119.84 38.5426 119.84ZM38.5426 118.58C37.0166 118.58 35.8266 117.432 35.8266 114.982V112.938C35.8266 110.488 37.0166 109.34 38.5426 109.34C40.0686 109.34 41.2586 110.488 41.2586 112.938V114.982C41.2586 117.432 40.0686 118.58 38.5426 118.58ZM48.6735 119.84C50.9415 119.84 52.8035 118.216 52.8035 115.052V112.854C52.8035 109.718 50.9415 108.08 48.6735 108.08C46.4055 108.08 44.5575 109.718 44.5575 112.854V115.052C44.5575 118.216 46.4055 119.84 48.6735 119.84ZM48.6735 118.58C47.1475 118.58 45.9575 117.432 45.9575 114.982V112.938C45.9575 110.488 47.1475 109.34 48.6735 109.34C50.1995 109.34 51.3895 110.488 51.3895 112.938V114.982C51.3895 117.432 50.1995 118.58 48.6735 118.58ZM55.7243 122.066L56.2983 118.02H54.8843L54.5763 122.066H55.7243ZM62.3453 119.84C64.6133 119.84 66.4753 118.216 66.4753 115.052V112.854C66.4753 109.718 64.6133 108.08 62.3453 108.08C60.0773 108.08 58.2293 109.718 58.2293 112.854V115.052C58.2293 118.216 60.0773 119.84 62.3453 119.84ZM62.3453 118.58C60.8193 118.58 59.6293 117.432 59.6293 114.982V112.938C59.6293 110.488 60.8193 109.34 62.3453 109.34C63.8713 109.34 65.0613 110.488 65.0613 112.938V114.982C65.0613 117.432 63.8713 118.58 62.3453 118.58ZM72.4762 119.84C74.7442 119.84 76.6062 118.216 76.6062 115.052V112.854C76.6062 109.718 74.7442 108.08 72.4762 108.08C70.2082 108.08 68.3602 109.718 68.3602 112.854V115.052C68.3602 118.216 70.2082 119.84 72.4762 119.84ZM72.4762 118.58C70.9502 118.58 69.7602 117.432 69.7602 114.982V112.938C69.7602 110.488 70.9502 109.34 72.4762 109.34C74.0022 109.34 75.1922 110.488 75.1922 112.938V114.982C75.1922 117.432 74.0022 118.58 72.4762 118.58ZM82.6071 119.84C84.8751 119.84 86.7371 118.216 86.7371 115.052V112.854C86.7371 109.718 84.8751 108.08 82.6071 108.08C80.3391 108.08 78.4911 109.718 78.4911 112.854V115.052C78.4911 118.216 80.3391 119.84 82.6071 119.84ZM82.6071 118.58C81.0811 118.58 79.8911 117.432 79.8911 114.982V112.938C79.8911 110.488 81.0811 109.34 82.6071 109.34C84.1331 109.34 85.3231 110.488 85.3231 112.938V114.982C85.3231 117.432 84.1331 118.58 82.6071 118.58ZM94.3199 116.634H97.9459V117.74H99.3319V107.394H97.9459V115.57H94.3199V116.634ZM92.4719 112.616C94.4319 112.616 95.9579 111.804 95.9579 110.236V110.068C95.9579 108.486 94.4319 107.674 92.4719 107.674C90.4979 107.674 88.9719 108.486 88.9719 110.068V110.236C88.9719 111.804 90.4979 112.616 92.4719 112.616ZM90.3019 110.096C90.3019 109.27 91.2119 108.822 92.4719 108.822C93.7179 108.822 94.6279 109.27 94.6279 110.096V110.208C94.6279 111.02 93.7179 111.468 92.4719 111.468C91.2119 111.468 90.3019 111.02 90.3019 110.208V110.096ZM92.7939 116.928C92.8779 116.186 92.9339 115.444 92.9759 114.758C94.3479 114.688 95.7759 114.562 97.0079 114.394L96.8679 113.246C94.8099 113.498 92.2899 113.652 90.6799 113.652H88.3419L88.3979 114.828H90.5679C90.9039 114.828 91.2539 114.828 91.6319 114.814C91.5759 115.458 91.5199 116.158 91.4499 116.83L92.7939 116.928ZM91.9959 117.39H90.6099V120.386H99.8779V119.112H91.9959V117.39Z" fill="#333333"/>
<path d="M8.166 153.63V142.29H6.976L3.392 145.146L4.19 146.196L6.766 144.138V153.63H8.166ZM14.7399 153.84C17.0079 153.84 18.8699 152.216 18.8699 149.052V146.854C18.8699 143.718 17.0079 142.08 14.7399 142.08C12.4719 142.08 10.6239 143.718 10.6239 146.854V149.052C10.6239 152.216 12.4719 153.84 14.7399 153.84ZM14.7399 152.58C13.2139 152.58 12.0239 151.432 12.0239 148.982V146.938C12.0239 144.488 13.2139 143.34 14.7399 143.34C16.2659 143.34 17.4559 144.488 17.4559 146.938V148.982C17.4559 151.432 16.2659 152.58 14.7399 152.58ZM21.7907 156.066L22.3647 152.02H20.9507L20.6427 156.066H21.7907ZM28.4118 153.84C30.6798 153.84 32.5418 152.216 32.5418 149.052V146.854C32.5418 143.718 30.6798 142.08 28.4118 142.08C26.1438 142.08 24.2958 143.718 24.2958 146.854V149.052C24.2958 152.216 26.1438 153.84 28.4118 153.84ZM28.4118 152.58C26.8858 152.58 25.6958 151.432 25.6958 148.982V146.938C25.6958 144.488 26.8858 143.34 28.4118 143.34C29.9378 143.34 31.1278 144.488 31.1278 146.938V148.982C31.1278 151.432 29.9378 152.58 28.4118 152.58ZM38.5426 153.84C40.8106 153.84 42.6726 152.216 42.6726 149.052V146.854C42.6726 143.718 40.8106 142.08 38.5426 142.08C36.2746 142.08 34.4266 143.718 34.4266 146.854V149.052C34.4266 152.216 36.2746 153.84 38.5426 153.84ZM38.5426 152.58C37.0166 152.58 35.8266 151.432 35.8266 148.982V146.938C35.8266 144.488 37.0166 143.34 38.5426 143.34C40.0686 143.34 41.2586 144.488 41.2586 146.938V148.982C41.2586 151.432 40.0686 152.58 38.5426 152.58ZM48.6735 153.84C50.9415 153.84 52.8035 152.216 52.8035 149.052V146.854C52.8035 143.718 50.9415 142.08 48.6735 142.08C46.4055 142.08 44.5575 143.718 44.5575 146.854V149.052C44.5575 152.216 46.4055 153.84 48.6735 153.84ZM48.6735 152.58C47.1475 152.58 45.9575 151.432 45.9575 148.982V146.938C45.9575 144.488 47.1475 143.34 48.6735 143.34C50.1995 143.34 51.3895 144.488 51.3895 146.938V148.982C51.3895 151.432 50.1995 152.58 48.6735 152.58ZM55.7243 156.066L56.2983 152.02H54.8843L54.5763 156.066H55.7243ZM62.3453 153.84C64.6133 153.84 66.4753 152.216 66.4753 149.052V146.854C66.4753 143.718 64.6133 142.08 62.3453 142.08C60.0773 142.08 58.2293 143.718 58.2293 146.854V149.052C58.2293 152.216 60.0773 153.84 62.3453 153.84ZM62.3453 152.58C60.8193 152.58 59.6293 151.432 59.6293 148.982V146.938C59.6293 144.488 60.8193 143.34 62.3453 143.34C63.8713 143.34 65.0613 144.488 65.0613 146.938V148.982C65.0613 151.432 63.8713 152.58 62.3453 152.58ZM72.4762 153.84C74.7442 153.84 76.6062 152.216 76.6062 149.052V146.854C76.6062 143.718 74.7442 142.08 72.4762 142.08C70.2082 142.08 68.3602 143.718 68.3602 146.854V149.052C68.3602 152.216 70.2082 153.84 72.4762 153.84ZM72.4762 152.58C70.9502 152.58 69.7602 151.432 69.7602 148.982V146.938C69.7602 144.488 70.9502 143.34 72.4762 143.34C74.0022 143.34 75.1922 144.488 75.1922 146.938V148.982C75.1922 151.432 74.0022 152.58 72.4762 152.58ZM82.6071 153.84C84.8751 153.84 86.7371 152.216 86.7371 149.052V146.854C86.7371 143.718 84.8751 142.08 82.6071 142.08C80.3391 142.08 78.4911 143.718 78.4911 146.854V149.052C78.4911 152.216 80.3391 153.84 82.6071 153.84ZM82.6071 152.58C81.0811 152.58 79.8911 151.432 79.8911 148.982V146.938C79.8911 144.488 81.0811 143.34 82.6071 143.34C84.1331 143.34 85.3231 144.488 85.3231 146.938V148.982C85.3231 151.432 84.1331 152.58 82.6071 152.58ZM94.3199 150.634H97.9459V151.74H99.3319V141.394H97.9459V149.57H94.3199V150.634ZM92.4719 146.616C94.4319 146.616 95.9579 145.804 95.9579 144.236V144.068C95.9579 142.486 94.4319 141.674 92.4719 141.674C90.4979 141.674 88.9719 142.486 88.9719 144.068V144.236C88.9719 145.804 90.4979 146.616 92.4719 146.616ZM90.3019 144.096C90.3019 143.27 91.2119 142.822 92.4719 142.822C93.7179 142.822 94.6279 143.27 94.6279 144.096V144.208C94.6279 145.02 93.7179 145.468 92.4719 145.468C91.2119 145.468 90.3019 145.02 90.3019 144.208V144.096ZM92.7939 150.928C92.8779 150.186 92.9339 149.444 92.9759 148.758C94.3479 148.688 95.7759 148.562 97.0079 148.394L96.8679 147.246C94.8099 147.498 92.2899 147.652 90.6799 147.652H88.3419L88.3979 148.828H90.5679C90.9039 148.828 91.2539 148.828 91.6319 148.814C91.5759 149.458 91.5199 150.158 91.4499 150.83L92.7939 150.928ZM91.9959 151.39H90.6099V154.386H99.8779V153.112H91.9959V151.39Z" fill="#333333"/>
</svg>
