<svg width="57" height="20" viewBox="0 0 57 20" fill="none" xmlns="http://www.w3.org/2000/svg">
<path d="M15.82 6.93067V0.170673H13.28V18.8507H15.82V9.25067H18.52V6.93067H15.82ZM7.24 3.89067H11.12V1.55067H0.98V3.89067H4.74V4.43067C4.74 8.41067 3.24 11.4707 0.24 14.6907L2.06 16.3507C3.7 14.6507 4.94 12.8907 5.8 11.0307L9.92 16.1707L11.84 14.5107L6.8 8.21067C7.1 6.99067 7.24 5.75067 7.24 4.43067V3.89067ZM29.7248 7.17067H35.0248V5.05067H24.4448V2.63067H34.8248V0.530674H21.8848V7.17067H27.1648V8.61067H19.6448V10.7707H37.2448V8.61067H29.7248V7.17067ZM26.2248 12.1307C23.2448 12.1307 21.5048 13.6107 21.5048 15.5907C21.5048 17.5907 23.2448 19.0507 26.2248 19.0507H30.6648C33.6648 19.0507 35.4048 17.5907 35.4048 15.5907C35.4048 13.6107 33.6648 12.1307 30.6648 12.1307H26.2248ZM26.7048 16.8507C24.8448 16.8507 24.0448 16.3507 24.0448 15.5707C24.0448 14.7907 24.8448 14.3307 26.7048 14.3307H30.2048C32.0648 14.3307 32.8448 14.7907 32.8448 15.5707C32.8448 16.3507 32.0648 16.8507 30.2048 16.8507H26.7048ZM53.7497 6.93067V0.170673H51.1897V18.8507H53.7497V9.25067H56.4497V6.93067H53.7497ZM49.1497 5.27067V2.95067H45.2097V0.190673H42.6697V2.95067H38.8097V5.27067H42.6497C42.6097 8.67067 41.0897 11.5507 38.1497 14.6707L39.9497 16.3707C41.5897 14.6907 42.8497 12.9907 43.7097 11.2307L47.9297 16.1707L49.8097 14.5107L44.7297 8.53067C45.0097 7.47067 45.1497 6.39067 45.1697 5.27067H49.1497Z" fill="black"/>
</svg>
