<svg width="146" height="17" viewBox="0 0 146 17" fill="none" xmlns="http://www.w3.org/2000/svg">
<path d="M11.016 6.67424H9.112V1.31424H7.608V15.6342H9.112V8.13024H11.016V15.9382H12.568V1.09024H11.016V6.67424ZM1.784 12.0662V2.17824H0.184V13.5222H2.28C3.816 13.5222 5.176 13.4262 6.616 13.1702L6.456 11.7622C4.968 11.9862 3.656 12.0662 2.504 12.0662H1.784ZM29.8218 8.80224H31.4218V1.09024H29.8218V8.80224ZM27.5178 8.80224L28.2538 7.45824L24.0138 4.97824C24.2218 4.43424 24.3338 3.84224 24.3338 3.20224H27.6778V1.79424H19.4538V3.20224H22.7818C22.7498 5.07424 21.4858 6.45024 18.8618 7.79424L19.5818 9.10624C21.3098 8.25824 22.5578 7.33024 23.3418 6.25824L27.5178 8.80224ZM23.1818 11.2982V9.58624H21.5978V15.9382H31.4218V9.58624H29.8218V11.2982H23.1818ZM23.1818 12.7062H29.8218V14.5142H23.1818V12.7062ZM48.9155 15.9382H50.5155V1.09024H48.9155V15.9382ZM43.2675 1.95424H41.7155V3.89024C41.7155 7.44224 40.4515 10.1622 37.7795 12.8502L38.8995 13.9222C40.4195 12.4022 41.5075 10.8502 42.2275 9.18624L46.0195 13.7622L47.2195 12.7382L42.8195 7.47424C43.1235 6.33824 43.2675 5.15424 43.2675 3.89024V1.95424ZM64.3594 15.9382H65.9114V1.09024H64.3594V15.9382ZM58.7754 6.21024V7.66624H61.1434V15.6342H62.6634V1.31424H61.1434V6.21024H58.7754ZM57.2714 1.95424H55.7514V3.92224C55.7514 7.41024 54.7754 10.2742 52.7594 12.9622L53.9754 13.9222C55.0314 12.5302 55.8154 11.0742 56.3594 9.53824L58.9514 13.7622L60.2314 12.8502L56.9194 7.49024C57.1594 6.35424 57.2714 5.17024 57.2714 3.92224V1.95424ZM80.1713 6.81824V1.09024H78.5713V15.9382H80.1713V8.27424H82.3313V6.81824H80.1713ZM73.2913 9.89024C75.0193 9.58624 76.3153 8.33824 76.3153 6.03424V5.74624C76.3153 3.05824 74.5713 1.79424 72.4113 1.79424C70.2353 1.79424 68.4913 3.05824 68.4913 5.74624V6.03424C68.4913 8.40224 69.8673 9.66624 71.6913 9.92224V12.1622C71.2433 12.1782 70.8433 12.1782 70.4753 12.1782H67.9153L67.9953 13.6342H70.3473C72.4593 13.6342 75.2913 13.4582 77.5153 13.1382L77.3393 11.7302C76.0753 11.8742 74.6193 12.0022 73.2913 12.0822V9.89024ZM70.0753 5.74624C70.0753 4.06624 71.0833 3.25024 72.4113 3.25024C73.7233 3.25024 74.7153 4.06624 74.7153 5.74624V6.01824C74.7153 7.69824 73.7233 8.51424 72.4113 8.51424C71.0833 8.51424 70.0753 7.69824 70.0753 6.01824V5.74624ZM95.793 9.41024L96.577 8.08224L92.449 5.57024C92.609 5.10624 92.689 4.62624 92.721 4.11424H96.065V2.69024H92.737V0.914243H91.185V2.69024H87.905V4.11424H91.153C91.041 5.81024 89.761 7.12224 87.393 8.32224L88.081 9.65024C89.777 8.83424 91.009 7.93824 91.777 6.86624L95.793 9.41024ZM95.457 6.22624H98.353V9.50624H99.953V1.09024H98.353V4.85024H95.457V6.22624ZM93.361 10.2742C91.201 10.2742 89.825 11.4582 89.825 13.1862C89.825 14.9142 91.201 16.0982 93.361 16.0982H96.609C98.769 16.0982 100.145 14.9142 100.145 13.1862C100.145 11.4582 98.769 10.2742 96.609 10.2742H93.361ZM93.617 14.6582C92.145 14.6582 91.409 14.0502 91.409 13.1702C91.409 12.3062 92.145 11.6822 93.617 11.6822H96.353C97.825 11.6822 98.561 12.3062 98.561 13.1702C98.561 14.0502 97.825 14.6582 96.353 14.6582H93.617ZM116.597 2.77024H114.293V1.09024H112.693V9.42624H114.293V7.15424H116.597V5.79424H114.293V4.13024H116.597V2.77024ZM110.309 5.01024C110.309 2.57824 108.597 1.41024 106.437 1.41024C104.245 1.41024 102.517 2.57824 102.517 5.01024V5.26624C102.517 7.68224 104.245 8.85024 106.437 8.85024C108.597 8.85024 110.309 7.68224 110.309 5.26624V5.01024ZM104.117 5.02624C104.117 3.55424 105.109 2.81824 106.437 2.81824C107.733 2.81824 108.725 3.55424 108.725 5.02624V5.23424C108.725 6.70624 107.733 7.44224 106.437 7.44224C105.109 7.44224 104.117 6.70624 104.117 5.23424V5.02624ZM112.693 11.8102V16.0982H114.293V10.3542H104.629V11.8102H112.693ZM125.353 10.1942H129.833V2.00224H128.233V4.72224H120.889V2.00224H119.289V10.1942H123.769V13.3622H117.577V14.8342H131.529V13.3622H125.353V10.1942ZM128.233 6.16224V8.75424H120.889V6.16224H128.233ZM143.885 15.9382H145.469V1.09024H143.885V15.9382ZM139.309 3.71424V3.89024C139.309 7.02624 137.261 10.4342 133.421 12.8982L134.381 14.1622C138.509 11.4422 140.909 7.77824 140.909 3.57024V2.25824H133.741V3.71424H139.309Z" fill="black"/>
</svg>
