<svg width="69" height="53" viewBox="0 0 69 53" fill="none" xmlns="http://www.w3.org/2000/svg">
<path d="M13.518 10.4271H11.376V4.39715H9.684V20.5071H11.376V12.0651H13.518V20.8491H15.264V4.14515H13.518V10.4271ZM3.132 16.4931V7.02515H7.596V5.36915H1.332V18.1311H3.618C5.454 18.1311 6.966 18.0411 8.568 17.7531L8.388 16.1511C6.732 16.4031 5.292 16.4931 3.87 16.4931H3.132ZM19.4084 10.9851C22.1984 10.5171 24.0704 9.90515 25.1864 9.05915L31.6844 10.9851L32.2064 9.54515L26.2304 7.79915C26.3744 7.47515 26.4644 7.11515 26.4824 6.71915H31.3604V5.22515H26.5364V3.78515H24.8084V5.22515H19.8404V6.71915H24.8084C24.5744 7.92515 22.7924 8.89715 18.9764 9.50915L19.4084 10.9851ZM33.4484 11.6151H17.7524V13.0371H24.7184V14.3331H19.5884V15.7191H29.7404V16.9071H19.6784V20.9391H31.9724V19.5351H21.4784V18.2751H31.5404V14.3331H26.5004V13.0371H33.4484V11.6151ZM13.212 35.0591V38.2991H14.994V30.1451H13.212V33.4751H10.242C9.954 31.4231 8.1 30.4151 5.814 30.4151C3.294 30.4151 1.332 31.6031 1.332 34.0331V34.3031C1.332 36.7151 3.294 37.9211 5.814 37.9211C8.028 37.9211 9.828 36.9671 10.206 35.0591H13.212ZM3.132 34.0691C3.132 32.7011 4.266 31.9991 5.814 31.9991C7.344 31.9991 8.478 32.7011 8.478 34.0691V34.2671C8.478 35.6351 7.344 36.3371 5.814 36.3371C4.266 36.3371 3.132 35.6351 3.132 34.2671V34.0691ZM5.76 43.8251H14.994V39.3431H3.87V40.8371H13.212V42.3491H3.96V46.9391H15.624V45.4091H5.76V43.8251ZM31.1264 36.4271V30.1451H29.3264V46.8491H31.1264V38.0651H33.7184V36.4271H31.1264ZM26.1764 44.1491V31.3691H18.0584V44.1491H26.1764ZM24.3764 33.0251V42.4931H19.8584V33.0251H24.3764ZM48.3207 36.4271V30.1451H46.5747V46.8491H48.3207V38.0651H50.8767V36.4271H48.3207ZM37.7367 33.0971V33.2951C37.7367 36.2291 36.8727 39.8651 34.8567 43.7171L36.3687 44.5811C38.4207 40.6211 39.4827 36.9131 39.4827 32.9351V31.4591H35.3427V33.0971H37.7367ZM42.6147 33.0971V33.2951C42.6147 36.3191 41.7687 40.5491 39.7707 44.4191L41.2647 45.2651C43.3347 41.3051 44.3787 36.9851 44.3787 32.9351V31.4591H40.2927V33.0971H42.6147ZM64.3991 46.8491H66.1991V30.1451H64.3991V46.8491ZM58.2251 33.0971H61.9871V31.4591H52.7351V33.0971H56.4611V33.7991C56.4611 37.6511 54.8951 40.4411 52.0691 43.3751L53.3471 44.5811C55.0031 42.8711 56.2451 41.1611 57.0731 39.3251L61.3391 44.4011L62.6531 43.2131L57.7571 37.4351C58.0631 36.2831 58.2251 35.0771 58.2251 33.7991V33.0971Z" fill="black"/>
</svg>
