<svg width="38" height="20" viewBox="0 0 38 20" fill="none" xmlns="http://www.w3.org/2000/svg">
<path d="M5.28 8.75022V7.17022H16.24V5.09022H5.28V3.63022H16.24V1.49022H2.74V10.8502H16.64V8.75022H5.28ZM0.68 12.5502V14.7702H8.2V19.6102H10.76V14.7702H18.28V12.5502H0.68ZM34.7848 7.47022V0.710224H32.2448V19.3902H34.7848V9.79022H37.4848V7.47022H34.7848ZM26.2048 4.43022H30.0848V2.09022H19.9448V4.43022H23.7048V4.97022C23.7048 8.95022 22.2048 12.0102 19.2048 15.2302L21.0248 16.8902C22.6648 15.1902 23.9048 13.4302 24.7648 11.5702L28.8848 16.7102L30.8048 15.0502L25.7648 8.75022C26.0648 7.53022 26.2048 6.29022 26.2048 4.97022V4.43022Z" fill="black"/>
</svg>
