<svg width="92" height="59" viewBox="0 0 92 59" fill="none" xmlns="http://www.w3.org/2000/svg">
<path d="M7.756 14.1022V6.29022H5.88L0.672 14.2422V15.3902H6.37V17.8402H7.756V15.3902H9.506V14.1022H7.756ZM6.37 7.88622V14.1022H2.352L6.37 7.88622ZM12.0095 20.0662L12.5835 16.0202H11.1695L10.8615 20.0662H12.0095ZM18.6305 17.8402C21.0525 17.8402 22.7605 16.5802 22.7605 14.5222C22.7605 13.3322 21.9765 12.2822 20.5905 11.7502C21.8645 11.2322 22.4385 10.2802 22.4385 9.17422C22.4385 7.21422 20.8425 6.08022 18.6305 6.08022C16.4185 6.08022 14.8365 7.21422 14.8365 9.17422C14.8365 10.2802 15.4105 11.2322 16.6845 11.7502C15.2845 12.2822 14.5145 13.3322 14.5145 14.5222C14.5145 16.5802 16.2365 17.8402 18.6305 17.8402ZM18.6305 11.1762C17.1185 11.1762 16.2225 10.3922 16.2225 9.25822C16.2225 8.12422 17.1185 7.34022 18.6305 7.34022C20.1565 7.34022 21.0525 8.12422 21.0525 9.25822C21.0525 10.3922 20.1565 11.1762 18.6305 11.1762ZM18.6305 16.5802C16.9225 16.5802 15.9005 15.7262 15.9005 14.4802C15.9005 13.2622 16.9645 12.3802 18.6305 12.3802C20.3105 12.3802 21.3605 13.2622 21.3605 14.4802C21.3605 15.7262 20.3525 16.5802 18.6305 16.5802ZM28.7614 17.8402C31.0294 17.8402 32.8914 16.2162 32.8914 13.0522V10.8542C32.8914 7.71822 31.0294 6.08022 28.7614 6.08022C26.4934 6.08022 24.6454 7.71822 24.6454 10.8542V13.0522C24.6454 16.2162 26.4934 17.8402 28.7614 17.8402ZM28.7614 16.5802C27.2354 16.5802 26.0454 15.4322 26.0454 12.9822V10.9382C26.0454 8.48822 27.2354 7.34022 28.7614 7.34022C30.2874 7.34022 31.4774 8.48822 31.4774 10.9382V12.9822C31.4774 15.4322 30.2874 16.5802 28.7614 16.5802ZM38.8922 17.8402C41.1602 17.8402 43.0222 16.2162 43.0222 13.0522V10.8542C43.0222 7.71822 41.1602 6.08022 38.8922 6.08022C36.6242 6.08022 34.7762 7.71822 34.7762 10.8542V13.0522C34.7762 16.2162 36.6242 17.8402 38.8922 17.8402ZM38.8922 16.5802C37.3662 16.5802 36.1762 15.4322 36.1762 12.9822V10.9382C36.1762 8.48822 37.3662 7.34022 38.8922 7.34022C40.4182 7.34022 41.6082 8.48822 41.6082 10.9382V12.9822C41.6082 15.4322 40.4182 16.5802 38.8922 16.5802ZM45.9431 20.0662L46.5171 16.0202H45.1031L44.7951 20.0662H45.9431ZM52.5641 17.8402C54.8321 17.8402 56.6941 16.2162 56.6941 13.0522V10.8542C56.6941 7.71822 54.8321 6.08022 52.5641 6.08022C50.2961 6.08022 48.4481 7.71822 48.4481 10.8542V13.0522C48.4481 16.2162 50.2961 17.8402 52.5641 17.8402ZM52.5641 16.5802C51.0381 16.5802 49.8481 15.4322 49.8481 12.9822V10.9382C49.8481 8.48822 51.0381 7.34022 52.5641 7.34022C54.0901 7.34022 55.2801 8.48822 55.2801 10.9382V12.9822C55.2801 15.4322 54.0901 16.5802 52.5641 16.5802ZM62.695 17.8402C64.963 17.8402 66.825 16.2162 66.825 13.0522V10.8542C66.825 7.71822 64.963 6.08022 62.695 6.08022C60.427 6.08022 58.579 7.71822 58.579 10.8542V13.0522C58.579 16.2162 60.427 17.8402 62.695 17.8402ZM62.695 16.5802C61.169 16.5802 59.979 15.4322 59.979 12.9822V10.9382C59.979 8.48822 61.169 7.34022 62.695 7.34022C64.221 7.34022 65.411 8.48822 65.411 10.9382V12.9822C65.411 15.4322 64.221 16.5802 62.695 16.5802ZM72.8258 17.8402C75.0938 17.8402 76.9558 16.2162 76.9558 13.0522V10.8542C76.9558 7.71822 75.0938 6.08022 72.8258 6.08022C70.5578 6.08022 68.7098 7.71822 68.7098 10.8542V13.0522C68.7098 16.2162 70.5578 17.8402 72.8258 17.8402ZM72.8258 16.5802C71.2998 16.5802 70.1098 15.4322 70.1098 12.9822V10.9382C70.1098 8.48822 71.2998 7.34022 72.8258 7.34022C74.3518 7.34022 75.5418 8.48822 75.5418 10.9382V12.9822C75.5418 15.4322 74.3518 16.5802 72.8258 16.5802ZM84.5387 14.6342H88.1647V15.7402H89.5507V5.39422H88.1647V13.5702H84.5387V14.6342ZM82.6907 10.6162C84.6507 10.6162 86.1767 9.80422 86.1767 8.23622V8.06822C86.1767 6.48622 84.6507 5.67422 82.6907 5.67422C80.7167 5.67422 79.1907 6.48622 79.1907 8.06822V8.23622C79.1907 9.80422 80.7167 10.6162 82.6907 10.6162ZM80.5207 8.09622C80.5207 7.27022 81.4307 6.82222 82.6907 6.82222C83.9367 6.82222 84.8467 7.27022 84.8467 8.09622V8.20822C84.8467 9.02022 83.9367 9.46822 82.6907 9.46822C81.4307 9.46822 80.5207 9.02022 80.5207 8.20822V8.09622ZM83.0127 14.9282C83.0967 14.1862 83.1527 13.4442 83.1947 12.7582C84.5667 12.6882 85.9947 12.5622 87.2267 12.3942L87.0867 11.2462C85.0287 11.4982 82.5087 11.6522 80.8987 11.6522H78.5607L78.6167 12.8282H80.7867C81.1227 12.8282 81.4727 12.8282 81.8507 12.8142C81.7947 13.4582 81.7387 14.1582 81.6687 14.8302L83.0127 14.9282ZM82.2147 15.3902H80.8287V18.3862H90.0967V17.1122H82.2147V15.3902Z" fill="#333333"/>
<path d="M29.068 51.8402C31.49 51.8402 33.198 50.5802 33.198 48.5222C33.198 47.3322 32.414 46.2822 31.028 45.7502C32.302 45.2322 32.876 44.2802 32.876 43.1742C32.876 41.2142 31.28 40.0802 29.068 40.0802C26.856 40.0802 25.274 41.2142 25.274 43.1742C25.274 44.2802 25.848 45.2322 27.122 45.7502C25.722 46.2822 24.952 47.3322 24.952 48.5222C24.952 50.5802 26.674 51.8402 29.068 51.8402ZM29.068 45.1762C27.556 45.1762 26.66 44.3922 26.66 43.2582C26.66 42.1242 27.556 41.3402 29.068 41.3402C30.594 41.3402 31.49 42.1242 31.49 43.2582C31.49 44.3922 30.594 45.1762 29.068 45.1762ZM29.068 50.5802C27.36 50.5802 26.338 49.7262 26.338 48.4802C26.338 47.2622 27.402 46.3802 29.068 46.3802C30.748 46.3802 31.798 47.2622 31.798 48.4802C31.798 49.7262 30.79 50.5802 29.068 50.5802ZM39.1989 51.8402C41.4669 51.8402 43.3289 50.2162 43.3289 47.0522V44.8542C43.3289 41.7182 41.4669 40.0802 39.1989 40.0802C36.9309 40.0802 35.0829 41.7182 35.0829 44.8542V47.0522C35.0829 50.2162 36.9309 51.8402 39.1989 51.8402ZM39.1989 50.5802C37.6729 50.5802 36.4829 49.4322 36.4829 46.9822V44.9382C36.4829 42.4882 37.6729 41.3402 39.1989 41.3402C40.7249 41.3402 41.9149 42.4882 41.9149 44.9382V46.9822C41.9149 49.4322 40.7249 50.5802 39.1989 50.5802ZM46.2497 54.0662L46.8237 50.0202H45.4097L45.1017 54.0662H46.2497ZM52.8707 51.8402C55.1387 51.8402 57.0007 50.2162 57.0007 47.0522V44.8542C57.0007 41.7182 55.1387 40.0802 52.8707 40.0802C50.6027 40.0802 48.7547 41.7182 48.7547 44.8542V47.0522C48.7547 50.2162 50.6027 51.8402 52.8707 51.8402ZM52.8707 50.5802C51.3447 50.5802 50.1547 49.4322 50.1547 46.9822V44.9382C50.1547 42.4882 51.3447 41.3402 52.8707 41.3402C54.3967 41.3402 55.5867 42.4882 55.5867 44.9382V46.9822C55.5867 49.4322 54.3967 50.5802 52.8707 50.5802ZM63.0016 51.8402C65.2696 51.8402 67.1316 50.2162 67.1316 47.0522V44.8542C67.1316 41.7182 65.2696 40.0802 63.0016 40.0802C60.7336 40.0802 58.8856 41.7182 58.8856 44.8542V47.0522C58.8856 50.2162 60.7336 51.8402 63.0016 51.8402ZM63.0016 50.5802C61.4756 50.5802 60.2856 49.4322 60.2856 46.9822V44.9382C60.2856 42.4882 61.4756 41.3402 63.0016 41.3402C64.5276 41.3402 65.7176 42.4882 65.7176 44.9382V46.9822C65.7176 49.4322 64.5276 50.5802 63.0016 50.5802ZM73.1325 51.8402C75.4005 51.8402 77.2625 50.2162 77.2625 47.0522V44.8542C77.2625 41.7182 75.4005 40.0802 73.1325 40.0802C70.8645 40.0802 69.0165 41.7182 69.0165 44.8542V47.0522C69.0165 50.2162 70.8645 51.8402 73.1325 51.8402ZM73.1325 50.5802C71.6065 50.5802 70.4165 49.4322 70.4165 46.9822V44.9382C70.4165 42.4882 71.6065 41.3402 73.1325 41.3402C74.6585 41.3402 75.8485 42.4882 75.8485 44.9382V46.9822C75.8485 49.4322 74.6585 50.5802 73.1325 50.5802ZM84.8453 48.6342H88.4713V49.7402H89.8573V39.3942H88.4713V47.5702H84.8453V48.6342ZM82.9973 44.6162C84.9573 44.6162 86.4833 43.8042 86.4833 42.2362V42.0682C86.4833 40.4862 84.9573 39.6742 82.9973 39.6742C81.0233 39.6742 79.4973 40.4862 79.4973 42.0682V42.2362C79.4973 43.8042 81.0233 44.6162 82.9973 44.6162ZM80.8273 42.0962C80.8273 41.2702 81.7373 40.8222 82.9973 40.8222C84.2433 40.8222 85.1533 41.2702 85.1533 42.0962V42.2082C85.1533 43.0202 84.2433 43.4682 82.9973 43.4682C81.7373 43.4682 80.8273 43.0202 80.8273 42.2082V42.0962ZM83.3193 48.9282C83.4033 48.1862 83.4593 47.4442 83.5013 46.7582C84.8733 46.6882 86.3013 46.5622 87.5333 46.3942L87.3933 45.2462C85.3353 45.4982 82.8153 45.6522 81.2053 45.6522H78.8673L78.9233 46.8282H81.0933C81.4293 46.8282 81.7793 46.8282 82.1573 46.8142C82.1013 47.4582 82.0453 48.1582 81.9753 48.8302L83.3193 48.9282ZM82.5213 49.3902H81.1353V52.3862H90.4033V51.1122H82.5213V49.3902Z" fill="#333333"/>
</svg>
