<svg width="56" height="22" viewBox="0 0 56 22" fill="none" xmlns="http://www.w3.org/2000/svg">
<path d="M9.048 9.156H7.404L7.944 6.48H6.804L6.276 9.156H4.164L4.692 6.48H3.552L3.024 9.156H1.116V10.2H2.808L2.364 12.48H0.576V13.524H2.148L1.62 16.2H2.76L3.288 13.524H5.4L4.872 16.2H6L6.54 13.524H8.496V12.48H6.744L7.2 10.2H9.048V9.156ZM3.504 12.48L3.948 10.2H6.06L5.616 12.48H3.504ZM16.2334 9.156H18.4054V11.784H19.6054V5.712H18.4054V8.124H16.2334V9.156ZM16.4614 11.724L17.0614 10.74L13.9414 8.772C14.1094 8.316 14.1934 7.836 14.1934 7.308H16.6294V6.24H10.6294V7.308H13.0294C13.0294 8.784 12.1054 9.864 10.1854 10.944L10.7494 11.904C11.9734 11.244 12.8734 10.536 13.4374 9.732L16.4614 11.724ZM14.6614 12.372C13.0414 12.372 12.0094 13.332 12.0094 14.664C12.0094 16.008 13.0414 16.968 14.6614 16.968H17.0854C18.7174 16.968 19.7494 16.008 19.7494 14.664C19.7494 13.332 18.7174 12.372 17.0854 12.372H14.6614ZM14.8534 15.888C13.7494 15.888 13.1974 15.372 13.1974 14.664C13.1974 13.956 13.7494 13.44 14.8534 13.44H16.9054C18.0094 13.44 18.5494 13.956 18.5494 14.664C18.5494 15.372 18.0094 15.888 16.9054 15.888H14.8534ZM29.7963 16.848H30.9843V5.712H29.7963V16.848ZM26.3643 7.68V7.812C26.3643 10.164 24.8283 12.72 21.9483 14.568L22.6683 15.516C25.7643 13.476 27.5643 10.728 27.5643 7.572V6.588H22.1883V7.68H26.3643ZM41.3672 16.848H42.5432V5.712H41.3672V16.848ZM37.4912 8.28C37.1432 6.84 36.3272 6.24 35.3432 6.24C34.0232 6.24 33.0152 7.296 33.0152 9.972V11.664C33.0152 14.34 34.0232 15.396 35.3432 15.396C36.4472 15.396 37.3232 14.652 37.5872 12.828H38.9552V16.62H40.0952V5.88H38.9552V8.28H37.4912ZM36.5312 11.652C36.5312 13.584 36.0272 14.304 35.3432 14.304C34.6592 14.304 34.1552 13.584 34.1552 11.652V9.984C34.1552 8.04 34.6592 7.332 35.3432 7.332C36.0272 7.332 36.5312 8.04 36.5312 9.984V11.652ZM37.6592 11.772V11.664V9.972C37.6592 9.756 37.6472 9.54 37.6352 9.348H38.9552V11.772H37.6592ZM52.8421 10.116C53.0461 8.952 53.1541 7.728 53.1541 6.768V6.06H45.4861V7.152H51.9661C51.9541 7.8 51.8461 8.988 51.6421 10.116H44.2021V11.172H54.6661V10.116H52.8421ZM53.3941 16.86V12.516H45.4861V16.86H53.3941ZM52.1941 13.548V15.804H46.6861V13.548H52.1941Z" fill="#666666"/>
</svg>
