<svg width="165" height="48" viewBox="0 0 165 48" fill="none" xmlns="http://www.w3.org/2000/svg">
<path d="M8.596 17.4V16.112H2.94L6.146 12.934C7.504 11.59 8.33 10.47 8.33 8.93C8.33 7.026 6.874 5.85 4.69 5.85C2.562 5.85 1.33 7.39 0.868 9.056L2.198 9.378C2.576 8.132 3.29 7.11 4.69 7.11C6.132 7.11 6.944 7.852 6.944 8.986C6.944 10.036 6.356 10.918 5.082 12.178L0.924 16.308V17.4H8.596ZM14.751 9.952C13.561 9.952 12.413 10.456 11.797 11.436V10.89C11.783 8.258 12.945 7.096 14.443 7.096C15.815 7.096 16.571 7.726 17.173 8.916L18.335 8.3C17.579 6.718 16.305 5.85 14.387 5.85C12.413 5.85 10.495 7.306 10.495 10.834V13.662C10.495 16.196 12.217 17.61 14.513 17.61C16.767 17.61 18.559 16.154 18.559 13.788C18.559 11.422 16.767 9.952 14.751 9.952ZM14.513 16.364C13.057 16.364 11.881 15.398 11.881 13.76C11.881 12.136 13.057 11.184 14.513 11.184C15.983 11.184 17.173 12.136 17.173 13.76C17.173 15.398 15.983 16.364 14.513 16.364ZM21.3194 11.996C23.4054 11.296 24.8474 10.484 25.7154 9.56L30.5594 11.996L31.1754 10.82L26.4574 8.468C26.6814 8.006 26.7794 7.53 26.7794 7.012H30.4754V5.78H21.5154V7.012H25.3794C25.3794 8.412 23.9514 9.686 20.8154 10.792L21.3194 11.996ZM19.8914 13.242V14.516H25.3094V18.31H26.6954V14.516H32.0994V13.242H19.8914ZM46.3284 8.118H43.7804V9.322H46.3284V12.458H47.7284V5.164H46.3284V8.118ZM44.0464 12.318L44.7604 11.184L41.1204 8.804C41.3164 8.258 41.4144 7.67 41.4144 7.04V7.026H44.2564V5.78H37.2564V7.026H40.0564V7.04C40.0564 8.818 38.9784 10.12 36.7384 11.408L37.4104 12.514C38.8384 11.73 39.8744 10.89 40.5324 9.924L44.0464 12.318ZM46.3284 14.544V18.296H47.7284V13.27H38.9924V14.544H46.3284ZM59.9538 10.302C60.1918 8.944 60.3178 7.516 60.3178 6.396V5.57H51.3718V6.844H58.9318C58.9178 7.6 58.7918 8.986 58.5538 10.302H49.8738V11.534H62.0818V10.302H59.9538ZM60.5978 18.17V13.102H51.3718V18.17H60.5978ZM59.1978 14.306V16.938H52.7718V14.306H59.1978Z" fill="black"/>
<path d="M9 34.948H6.384V35.728H9V41.8H9.852V30.724H9V34.948ZM4.524 32.452H7.116V31.672H1.104V32.452H3.672V33.076C3.672 35.812 2.544 37.708 0.66 39.688L1.284 40.264C2.448 39.04 3.312 37.84 3.852 36.52L6.924 40.144L7.56 39.568L4.176 35.608C4.404 34.816 4.524 33.976 4.524 33.076V32.452ZM13.0109 35.944C14.8709 35.428 16.1069 34.84 16.8149 34.12L21.0389 35.944L21.3749 35.236L17.2829 33.496C17.4389 33.184 17.5229 32.86 17.5349 32.512H20.8109V31.732H17.5349V30.556H16.6949V31.732H13.3349V32.512H16.7069C16.6589 33.604 15.3149 34.492 12.7469 35.212L13.0109 35.944ZM22.2509 36.688H11.8829V37.432H16.6469V38.776H13.2269V39.532H20.0549V41.908H20.9189V38.776H17.4989V37.432H22.2509V36.688ZM31.9978 35.056V30.724H31.1458V41.8H31.9978V35.848H33.8458V35.056H31.9978ZM26.1058 30.736V32.488H23.3218V33.268H29.7418V32.488H26.9578V30.736H26.1058ZM26.5498 34.408C25.0498 34.408 23.8618 35.392 23.8618 37V37.636C23.8618 39.232 25.0498 40.24 26.5498 40.24C28.0378 40.24 29.2138 39.232 29.2138 37.636V37C29.2138 35.392 28.0378 34.408 26.5498 34.408ZM28.3618 37.6C28.3618 38.752 27.5578 39.46 26.5498 39.46C25.5178 39.46 24.7258 38.752 24.7258 37.6V37.036C24.7258 35.884 25.5178 35.2 26.5498 35.2C27.5578 35.2 28.3618 35.884 28.3618 37.036V37.6ZM36.9447 34.54V31H36.0927V35.332H43.6527V34.54H36.9447ZM45.0087 37.54V36.748H34.6407V37.54H45.0087ZM43.8567 41.8V41.008H36.9447V38.584H36.0927V41.8H43.8567ZM58.0336 34.96L58.3696 34.228L54.3136 32.524C54.5056 32.176 54.6016 31.804 54.6016 31.396V30.88H53.7616V31.396C53.7616 32.524 52.4416 33.508 49.8736 34.204L50.1256 34.96C51.8776 34.492 53.0896 33.904 53.8096 33.196L58.0336 34.96ZM48.9376 36.544H59.3056V35.8H48.9376V36.544ZM51.1336 38.92V37.624H50.2816V41.8H57.9736V37.624H57.1096V38.92H51.1336ZM51.1336 39.652H57.1096V41.068H51.1336V39.652ZM69.1605 30.724H68.3085V39.304H69.1605V35.044H70.8885V34.24H69.1605V30.724ZM65.4645 32.176C65.4645 32.956 65.3325 34.24 65.0925 35.452L65.9205 35.584C66.1485 34.36 66.3165 33.076 66.3165 31.912V31.336H60.9165V32.092H65.4645V32.176ZM67.2525 36.412C66.1005 36.556 64.7325 36.664 63.5565 36.724V33.892H62.6925V36.748C62.4645 36.76 62.2485 36.76 62.0565 36.76H60.1485L60.1845 37.54H62.0085C63.5925 37.54 65.7285 37.408 67.3485 37.168L67.2525 36.412ZM62.1645 38.896V41.8H69.7965V41.008H63.0165V38.896H62.1645ZM77.6594 34.396C79.5794 34.396 80.7914 33.856 80.7914 32.596C80.7914 31.348 79.5794 30.82 77.6594 30.82H76.0994C74.1914 30.82 72.9794 31.348 72.9794 32.596C72.9794 33.856 74.1914 34.396 76.0994 34.396H77.6594ZM76.2434 33.664C74.6834 33.664 73.8314 33.328 73.8314 32.596C73.8314 31.888 74.6834 31.552 76.2434 31.552H77.5274C79.0874 31.552 79.9274 31.888 79.9274 32.596C79.9274 33.304 79.0874 33.664 77.5274 33.664H76.2434ZM82.0634 36.076V35.344H71.6954V36.076H82.0634ZM81.0314 41.86V41.128H73.8914V39.844H80.7314V37.156H72.9794V37.876H79.8674V39.124H73.0394V41.86H81.0314ZM94.7403 30.724H93.8763V39.136H94.7403V34.456H96.5763V33.664H94.7403V30.724ZM86.2563 31.384V36.856H91.4403V31.384H86.2563ZM87.0963 36.088V32.152H90.6003V36.088H87.0963ZM87.8403 38.428V41.8H95.3643V41.008H88.7043V38.428H87.8403ZM98.8232 30.94V34.336H106.299V33.616H99.6752V31.66H106.179V30.94H98.8232ZM107.739 36.076V35.344H97.3712V36.076H107.739ZM106.707 41.86V41.128H99.5672V39.844H106.407V37.156H98.6552V37.888H105.543V39.124H98.7152V41.86H106.707ZM117.246 35.176H114.918V34.996C114.918 32.368 113.634 31.324 112.074 31.324C110.514 31.324 109.23 32.368 109.23 34.996V36.652C109.23 39.28 110.514 40.324 112.074 40.324C113.634 40.324 114.918 39.28 114.918 36.652V35.956H117.246V41.8H118.11V30.724H117.246V35.176ZM114.066 36.64C114.066 38.704 113.214 39.532 112.074 39.532C110.934 39.532 110.094 38.704 110.094 36.64V34.996C110.094 32.932 110.934 32.116 112.074 32.116C113.214 32.116 114.066 32.932 114.066 34.996V36.64ZM121.305 36.52C123.141 35.848 124.377 35.092 125.085 34.24L129.237 36.52L129.621 35.788L125.517 33.568C125.721 33.16 125.817 32.728 125.817 32.272V32.092H129.057V31.312H121.581V32.092H124.953V32.272C124.953 33.628 123.621 34.792 120.993 35.776L121.305 36.52ZM120.129 37.744V38.524H124.893V41.932H125.745V38.524H130.497V37.744H120.129ZM133.812 34.54V31H132.96V35.332H140.52V34.54H133.812ZM141.876 37.54V36.748H131.508V37.54H141.876ZM140.724 41.8V41.008H133.812V38.584H132.96V41.8H140.724Z" fill="#333333"/>
</svg>
