<svg width="40" height="58" viewBox="0 0 40 58" fill="none" xmlns="http://www.w3.org/2000/svg">
<path d="M10.276 5.164V14.894H11.662V5.164H10.276ZM8.134 12.724L8.918 11.66L5.138 8.832C5.376 8.16 5.488 7.432 5.488 6.662V5.654H4.116V6.662C4.116 8.734 3.052 10.372 0.672 11.898L1.442 12.99C2.856 12.08 3.878 11.128 4.55 10.05L8.134 12.724ZM4.466 14.082H3.08V18.156H12.208V16.882H4.466V14.082ZM22.6834 9.84C23.8734 9.504 24.5874 8.79 24.5874 7.67C24.5874 6.074 23.1314 5.304 20.9334 5.304H18.8894C16.7054 5.304 15.2354 6.074 15.2354 7.67C15.2354 8.79 15.9634 9.518 17.1534 9.84V11.268H13.8074V12.472H26.0154V11.268H22.6834V9.84ZM16.6354 7.684C16.6354 6.886 17.5314 6.48 19.1414 6.48H20.6954C22.3054 6.48 23.2014 6.886 23.2014 7.684C23.2014 8.454 22.3054 8.888 20.6954 8.888H19.1414C17.5314 8.888 16.6354 8.468 16.6354 7.684ZM18.4834 10.036C19.4354 10.05 20.4014 10.05 21.3534 10.036V11.268H18.4834V10.036ZM18.4274 13.578C16.3274 13.578 15.1654 14.572 15.1654 15.93C15.1654 17.302 16.3274 18.296 18.4274 18.296H21.3954C23.4954 18.296 24.6574 17.302 24.6574 15.93C24.6574 14.572 23.4954 13.578 21.3954 13.578H18.4274ZM18.7074 17.078C17.2374 17.078 16.5654 16.63 16.5654 15.916C16.5654 15.23 17.2374 14.782 18.7074 14.782H21.1294C22.5994 14.782 23.2714 15.23 23.2714 15.916C23.2714 16.63 22.5994 17.078 21.1294 17.078H18.7074Z" fill="white"/>
<path d="M7.336 47.13H11.452V45.87H9.422V41.306H11.452V40.032H1.82V41.306H3.85V45.87H1.82V47.13H5.95V49.902H0.532V51.19H12.74V49.902H7.336V47.13ZM8.064 41.306V45.87H5.208V41.306H8.064ZM24.9514 48.894V39.164H23.5514V48.894H24.9514ZM17.7974 46.766C19.7154 46.766 21.2694 45.632 21.2694 43.28V43.014C21.2694 40.634 19.7154 39.514 17.7974 39.514C15.8654 39.514 14.3114 40.634 14.3114 43.014V43.28C14.3114 45.632 15.8654 46.766 17.7974 46.766ZM17.7974 45.534C16.6214 45.534 15.7114 44.778 15.7114 43.252V43.028C15.7114 41.488 16.6214 40.746 17.7974 40.746C18.9594 40.746 19.8694 41.488 19.8694 43.028V43.252C19.8694 44.778 18.9594 45.534 17.7974 45.534ZM25.4974 52.156V50.882H17.7554V47.942H16.3554V52.156H25.4974ZM29.9808 46.36V44.414H37.8068V43.182H29.9808V41.306H37.8068V40.032H28.5808V47.606H38.0728V46.36H29.9808ZM27.0828 51.19H39.2908V49.902H27.0828V51.19Z" fill="white"/>
</svg>
