<svg width="36" height="20" viewBox="0 0 36 20" fill="none" xmlns="http://www.w3.org/2000/svg">
<path d="M10.76 12.5204H16.24V2.00045H13.68V5.04045H5.28V2.00045H2.74V12.5204H8.2V15.9804H0.68V18.3204H18.28V15.9804H10.76V12.5204ZM13.68 7.36045V10.2204H5.28V7.36045H13.68ZM26.9448 2.36045V0.740449H24.3648V2.36045H20.1648V4.42045H31.1448V2.36045H26.9448ZM33.2848 5.82045H30.9848V8.00045H33.2848V11.6604H35.8448V0.940449H33.2848V5.82045ZM30.3648 8.28045C30.3648 6.18045 28.3048 5.12045 25.6648 5.12045C23.0248 5.12045 20.9648 6.18045 20.9648 8.28045V8.50045C20.9648 10.6004 23.0248 11.6404 25.6648 11.6404C28.3048 11.6404 30.3648 10.6004 30.3648 8.50045V8.28045ZM23.4448 8.32045C23.4448 7.60045 24.4048 7.18045 25.6648 7.18045C26.9248 7.18045 27.8848 7.60045 27.8848 8.32045V8.46045C27.8848 9.18045 26.9248 9.60045 25.6648 9.60045C24.4048 9.60045 23.4448 9.18045 23.4448 8.46045V8.32045ZM35.8448 19.6204V12.6804H23.1448V19.6204H35.8448ZM33.2848 14.8404V17.4204H25.7048V14.8404H33.2848Z" fill="black"/>
</svg>
