<svg width="129" height="30" viewBox="0 0 129 30" fill="none" xmlns="http://www.w3.org/2000/svg">
<path d="M15.84 12.24V5.48H13.28V24.16H15.84V14.56H18.54V12.24H15.84ZM3.6 18.86V6.76H1.02V21.2H4.56C7.12 21.2 9.6 20.94 11.86 20.56L11.58 18.3C9.22 18.66 6.96 18.86 5.02 18.86H3.6ZM35.4048 13.02V11.18H24.4448V10.34H35.0248V5.74H21.7848V7.62H32.4448V8.52H21.8848V13.02H35.4048ZM37.2448 15.84V13.96H19.6448V15.84H37.2448ZM35.7048 24.26V22.32H24.2448V21.42H35.2048V16.8H21.6048V18.68H32.6448V19.56H21.7048V24.26H35.7048ZM57.2106 24.16H59.7706V5.5H57.2106V24.16ZM49.6906 14.92C52.5706 14.92 54.8306 13.54 54.8306 10.64V10.4C54.8306 7.46 52.5706 6.08 49.6906 6.08C46.7706 6.08 44.5106 7.46 44.5106 10.4V10.64C44.5106 13.54 46.7706 14.92 49.6906 14.92ZM47.0906 10.42C47.0906 8.98 48.1906 8.32 49.6906 8.32C51.1306 8.32 52.2706 8.98 52.2706 10.42V10.6C52.2706 12.04 51.1306 12.7 49.6906 12.7C48.1906 12.7 47.0906 12.04 47.0906 10.6V10.42ZM55.8506 16.16C52.9306 16.5 49.3906 16.72 47.1106 16.72H43.7506L43.8706 19.04H46.8706C47.3706 19.04 47.8906 19.04 48.4306 19.02C48.3106 20.58 48.1506 22.1 47.9306 23.98L50.4106 24.28C50.6706 22.28 50.8506 20.58 50.9706 18.92C52.7306 18.82 54.5506 18.66 56.1506 18.44L55.8506 16.16ZM69.3155 7.12V5.28H66.7355V7.12H62.5355V9.24H73.5155V7.12H69.3155ZM77.6755 5.48H75.1355V19.48H77.6755V13H80.3955V10.66H77.6755V5.48ZM72.7355 13.66C72.7355 11.34 70.6755 10.12 68.0355 10.12C65.4155 10.12 63.3155 11.34 63.3155 13.66V13.94C63.3155 16.28 65.4155 17.5 68.0355 17.5C70.6755 17.5 72.7355 16.28 72.7355 13.94V13.66ZM65.8155 13.7C65.8155 12.78 66.7955 12.24 68.0355 12.24C69.2955 12.24 70.2555 12.78 70.2555 13.7V13.9C70.2555 14.82 69.2955 15.38 68.0355 15.38C66.7955 15.38 65.8155 14.82 65.8155 13.9V13.7ZM65.3955 18.86V24.16H78.5555V21.84H67.9555V18.86H65.3955ZM93.4622 15.94C96.3822 15.04 98.4222 14 99.7222 12.82L106.842 15.94L107.942 13.72L101.202 10.8C101.402 10.32 101.522 9.82 101.542 9.3H106.882V7.04H101.562V5.2H99.0222V7.04H93.5622V9.3H98.9822C98.7222 10.76 96.8222 12.3 92.4822 13.68L93.4622 15.94ZM91.4222 17.26V19.58H98.9422V24.36H101.502V19.58H109.022V17.26H91.4222ZM120.807 17.44L122.187 15.42L117.167 11.86C117.367 11.24 117.487 10.56 117.507 9.86H121.547V7.58H117.547V5.38H115.067V7.58H111.167V9.86H115.027C114.847 12.08 113.447 13.92 110.527 15.7L111.787 17.72C113.707 16.58 115.167 15.38 116.107 14L120.807 17.44ZM120.767 12.96H124.027V19.48H126.587V5.48H124.027V10.78H120.767V12.96ZM116.467 18.52H113.907V24.16H127.267V21.84H116.467V18.52Z" fill="black"/>
</svg>
