<svg width="165" height="50" viewBox="0 0 165 50" fill="none" xmlns="http://www.w3.org/2000/svg">
<path d="M12.496 10.2V4.616H10.896V19.464H12.496V11.656H14.8V10.2H12.496ZM2.56 15.912V12.152H7.856V5.704H0.96V7.144H6.272V10.744H0.96V17.352H3.68C5.776 17.352 7.888 17.176 9.568 16.856L9.376 15.48C7.616 15.752 5.648 15.912 3.968 15.912H2.56ZM28.4999 19.464V4.616H26.8999V19.464H28.4999ZM20.2919 17.528C22.4359 17.528 24.2119 16.12 24.2119 12.552V10.296C24.2119 6.728 22.4359 5.32 20.2919 5.32C18.1159 5.32 16.3399 6.728 16.3399 10.296V12.552C16.3399 16.12 18.1159 17.528 20.2919 17.528ZM20.2919 16.072C18.9799 16.072 17.9399 15.112 17.9399 12.536V10.312C17.9399 7.72 18.9799 6.776 20.2919 6.776C21.6039 6.776 22.6279 7.72 22.6279 10.312V12.536C22.6279 15.112 21.6039 16.072 20.2919 16.072ZM41.1118 12.424V7.064H43.4318V5.608H32.4238V7.064H34.7438V12.424H32.4238V13.88H43.4318V12.424H41.1118ZM39.5598 7.064V12.424H36.2958V7.064H39.5598ZM30.9518 18.36H44.9038V16.888H30.9518V18.36ZM56.2356 8.536V6.136H58.4436V4.856H47.7556V6.136H49.9796V8.536H47.7556V9.816H58.4436V8.536H56.2356ZM54.6836 6.136V8.536H51.5316V6.136H54.6836ZM46.1236 12.232H60.0756V10.936H46.1236V12.232ZM58.3796 17.016V13.304H47.7556V14.552H56.7796V15.752H47.8356V19.544H58.7636V18.264H49.4356V17.016H58.3796ZM72.4315 10.344H69.9835V11.8H72.4315V19.464H74.0155V4.616H72.4315V10.344ZM63.6955 15.912V12.152H68.9915V5.704H62.0955V7.144H67.4075V10.744H62.0955V17.352H64.8635C66.9595 17.352 69.1675 17.16 70.8475 16.84L70.6715 15.464C68.8955 15.736 66.8155 15.912 65.1515 15.912H63.6955ZM88.8354 13.88L89.6994 12.552L83.9074 8.68C84.1954 7.976 84.3234 7.256 84.3234 6.52V5.384H82.7234V6.52C82.7234 8.712 81.1074 10.632 77.1874 12.504L77.9234 13.88C80.4514 12.712 82.1474 11.416 83.1554 10.04L88.8354 13.88ZM76.4674 18.344H90.4194V16.888H76.4674V18.344ZM103.785 9.208H106.681V12.712H108.281V4.616H106.681V7.832H103.785V9.208ZM104.089 12.632L104.889 11.32L100.729 8.696C100.953 8.088 101.065 7.448 101.065 6.744H104.313V5.32H96.3131V6.744H99.5131C99.5131 8.712 98.2811 10.152 95.7211 11.592L96.4731 12.872C98.1051 11.992 99.3051 11.048 100.057 9.976L104.089 12.632ZM101.689 13.496C99.5291 13.496 98.1531 14.776 98.1531 16.552C98.1531 18.344 99.5291 19.624 101.689 19.624H104.921C107.097 19.624 108.473 18.344 108.473 16.552C108.473 14.776 107.097 13.496 104.921 13.496H101.689ZM101.945 18.184C100.473 18.184 99.7371 17.496 99.7371 16.552C99.7371 15.608 100.473 14.92 101.945 14.92H104.681C106.153 14.92 106.873 15.608 106.873 16.552C106.873 17.496 106.153 18.184 104.681 18.184H101.945ZM121.869 19.464H123.453V4.616H121.869V19.464ZM117.293 7.24V7.416C117.293 10.552 115.245 13.96 111.405 16.424L112.365 17.688C116.493 14.968 118.893 11.304 118.893 7.096V5.784H111.725V7.24H117.293ZM137.025 7.992H134.113V9.368H137.025V12.952H138.625V4.616H137.025V7.992ZM134.417 12.792L135.233 11.496L131.073 8.776C131.297 8.152 131.409 7.48 131.409 6.76V6.744H134.657V5.32H126.657V6.744H129.857V6.76C129.857 8.792 128.625 10.28 126.065 11.752L126.833 13.016C128.465 12.12 129.649 11.16 130.401 10.056L134.417 12.792ZM137.025 15.336V19.624H138.625V13.88H128.641V15.336H137.025ZM152.597 10.488C152.869 8.936 153.013 7.304 153.013 6.024V5.08H142.789V6.536H151.429C151.413 7.4 151.269 8.984 150.997 10.488H141.077V11.896H155.029V10.488H152.597ZM153.333 19.48V13.688H142.789V19.48H153.333ZM151.733 15.064V18.072H144.389V15.064H151.733Z" fill="black"/>
<path d="M9 43.8H9.852V32.724H9V43.8ZM1.212 39.6C2.472 38.868 3.396 38.088 3.96 37.2L7.044 39.48L7.512 38.772L4.32 36.444C4.488 36.012 4.572 35.532 4.572 35.028H7.128V34.26H4.572V32.736H3.72V34.26H1.164V35.028H3.708C3.708 36.612 2.628 37.788 0.792 38.892L1.212 39.6ZM4.548 39.252H3.684V41.28C3.288 41.292 2.928 41.304 2.616 41.304H0.6L0.648 42.096H2.568C4.2 42.096 6.372 41.94 8.04 41.712L7.944 40.944C6.888 41.088 5.664 41.184 4.548 41.244V39.252ZM20.5469 37.056H18.8309V32.904H18.0029V43.596H18.8309V37.848H20.5469V43.8H21.3869V32.724H20.5469V37.056ZM13.2029 41.172V34.404H16.4189V33.612H12.3389V41.952H13.6589C14.9909 41.952 16.0709 41.88 17.1749 41.688L17.0789 40.92C15.9029 41.1 14.8589 41.172 13.7909 41.172H13.2029ZM29.8398 43.164V33.516H29.0718L26.0478 35.964L26.5518 36.6L28.9638 34.644V43.164H29.8398ZM38.3959 43.164V42.372H33.2239L36.1759 39.432C37.3879 38.22 38.1319 37.212 38.1319 35.892C38.1319 34.332 36.9439 33.336 35.1439 33.336C33.3799 33.336 32.3719 34.632 31.9879 36.012L32.8159 36.216C33.1639 35.088 33.8119 34.128 35.1439 34.128C36.4759 34.128 37.2799 34.812 37.2799 35.904C37.2799 36.912 36.7279 37.74 35.5399 38.928L31.9519 42.492V43.164H38.3959ZM48.4141 37.056H46.6981V32.904H45.8581V43.596H46.6981V37.848H48.4141V43.8H49.2541V32.724H48.4141V37.056ZM43.5061 34.452V34.692C43.5061 37.284 42.1501 39.876 40.0261 41.772L40.6381 42.396C42.8821 40.32 44.3581 37.656 44.3581 34.524V33.672H40.2301V34.452H43.5061ZM56.265 38.556H59.625V39.024H60.489V32.724H59.625V37.908H56.265V38.556ZM54.765 36.06C56.385 36.06 57.657 35.508 57.657 34.524V34.44C57.657 33.456 56.385 32.916 54.765 32.916C53.145 32.916 51.873 33.456 51.873 34.44V34.524C51.873 35.508 53.145 36.06 54.765 36.06ZM52.701 34.464C52.701 33.96 53.553 33.612 54.765 33.612C55.977 33.612 56.841 33.96 56.841 34.464V34.5C56.841 35.016 55.977 35.352 54.765 35.352C53.553 35.352 52.701 35.016 52.701 34.5V34.464ZM54.213 37.512C54.177 38.028 54.129 38.604 54.069 39.096L54.909 39.168C54.969 38.616 55.017 38.028 55.065 37.476C56.289 37.416 57.585 37.296 58.665 37.152L58.581 36.492C56.841 36.708 54.621 36.828 53.253 36.828H51.237L51.273 37.524H53.205C53.517 37.524 53.865 37.524 54.213 37.512ZM54.093 42.072H60.489V39.624H53.193V40.332H59.637V41.364H53.253V43.86H60.957V43.14H54.093V42.072ZM65.9779 44.844L70.1779 32.316H69.2779L65.0779 44.844H65.9779ZM79.3359 43.8H80.1879V32.724H79.3359V43.8ZM71.5479 39.6C72.8079 38.868 73.7319 38.088 74.2959 37.2L77.3799 39.48L77.8479 38.772L74.6559 36.444C74.8239 36.012 74.9079 35.532 74.9079 35.028H77.4639V34.26H74.9079V32.736H74.0559V34.26H71.4999V35.028H74.0439C74.0439 36.612 72.9639 37.788 71.1279 38.892L71.5479 39.6ZM74.8839 39.252H74.0199V41.28C73.6239 41.292 73.2639 41.304 72.9519 41.304H70.9359L70.9839 42.096H72.9039C74.5359 42.096 76.7079 41.94 78.3759 41.712L78.2799 40.944C77.2239 41.088 75.9999 41.184 74.8839 41.244V39.252ZM90.4628 34.788C90.4628 36 90.2108 38.148 89.8628 40.008L90.7028 40.164C91.0508 38.268 91.3148 36.156 91.3148 34.596V33.66H83.3828V34.44H90.4628V34.788ZM87.0788 37.428H86.2268V42.12H82.2188V42.912H92.5868V42.12H87.0788V37.428ZM105.024 37.464V41.136H105.888V32.724H105.024V34.416H102.36C101.868 33.516 100.932 33.084 99.8757 33.084C98.2797 33.084 96.9957 34.032 96.9957 36V36.252C96.9957 38.208 98.2797 39.144 99.8757 39.144C101.064 39.144 102.096 38.592 102.516 37.464H105.024ZM97.8597 36C97.8597 34.584 98.7117 33.852 99.8757 33.852C101.016 33.852 101.868 34.584 101.868 36V36.24C101.868 37.656 101.016 38.376 99.8757 38.376C98.7117 38.376 97.8597 37.656 97.8597 36.24V36ZM105.024 36.744H102.696C102.708 36.588 102.72 36.42 102.72 36.252V36C102.72 35.7 102.684 35.412 102.636 35.16H105.024V36.744ZM99.6237 40.26H98.7597V43.8H106.404V43.008H99.6237V40.26ZM114.605 36.852C113.549 36.852 112.529 37.332 111.989 38.22V37.668C111.965 35.208 113.033 34.116 114.449 34.116C115.733 34.116 116.429 34.728 116.957 35.808L117.701 35.424C117.065 34.092 115.997 33.336 114.425 33.336C112.745 33.336 111.161 34.524 111.161 37.632V40.044C111.161 42.132 112.613 43.344 114.509 43.344C116.369 43.344 117.869 42.12 117.869 40.092C117.869 38.064 116.369 36.852 114.605 36.852ZM114.509 42.564C113.153 42.564 112.025 41.688 112.025 40.092C112.025 38.496 113.153 37.632 114.509 37.632C115.853 37.632 117.005 38.496 117.005 40.092C117.005 41.688 115.853 42.564 114.509 42.564ZM120.021 43.344C120.393 43.344 120.693 43.044 120.693 42.672C120.693 42.3 120.393 42.012 120.021 42.012C119.649 42.012 119.361 42.3 119.361 42.672C119.361 43.044 119.649 43.344 120.021 43.344ZM125.749 43.344C127.813 43.344 129.193 42.204 129.193 40.572C129.193 39.516 128.473 38.592 127.297 38.148C128.377 37.716 128.893 36.888 128.893 35.892C128.893 34.344 127.621 33.336 125.749 33.336C123.889 33.336 122.605 34.344 122.605 35.892C122.605 36.888 123.121 37.716 124.201 38.148C123.025 38.592 122.305 39.516 122.305 40.572C122.305 42.204 123.697 43.344 125.749 43.344ZM125.749 37.788C124.309 37.788 123.469 37.032 123.469 35.964C123.469 34.884 124.309 34.128 125.749 34.128C127.189 34.128 128.041 34.884 128.041 35.964C128.041 37.032 127.189 37.788 125.749 37.788ZM125.749 42.552C124.129 42.552 123.169 41.724 123.169 40.548C123.169 39.408 124.177 38.556 125.749 38.556C127.321 38.556 128.329 39.408 128.329 40.548C128.329 41.724 127.369 42.552 125.749 42.552ZM132.755 38.556C133.883 38.556 134.807 37.776 134.807 36.384V35.496C134.807 34.128 133.883 33.336 132.755 33.336C131.615 33.336 130.703 34.128 130.703 35.496V36.384C130.703 37.776 131.615 38.556 132.755 38.556ZM133.019 43.164L139.655 33.516H138.659L132.035 43.164H133.019ZM132.755 37.812C132.047 37.812 131.507 37.308 131.507 36.348V35.532C131.507 34.584 132.047 34.08 132.755 34.08C133.463 34.08 134.015 34.584 134.015 35.532V36.348C134.015 37.32 133.463 37.812 132.755 37.812ZM138.839 43.344C139.967 43.344 140.891 42.564 140.891 41.172V40.284C140.891 38.916 139.967 38.124 138.839 38.124C137.699 38.124 136.787 38.916 136.787 40.284V41.172C136.787 42.564 137.699 43.344 138.839 43.344ZM138.839 42.6C138.131 42.6 137.591 42.108 137.591 41.136V40.32C137.591 39.372 138.131 38.868 138.839 38.868C139.547 38.868 140.099 39.372 140.099 40.32V41.136C140.099 42.108 139.547 42.6 138.839 42.6Z" fill="#333333"/>
</svg>
