<svg width="66" height="45" viewBox="0 0 66 45" fill="none" xmlns="http://www.w3.org/2000/svg">
<path d="M12.266 7.19315H10.592V1.37915H8.414V17.5251H10.592V9.28115H12.266V17.9211H14.498V1.10915H12.266V7.19315ZM2.546 13.1511V4.36715H6.65V2.26115H0.206V15.2571H2.798C4.49 15.2571 5.894 15.1851 7.424 14.8971L7.208 12.8631C5.66 13.0971 4.346 13.1511 3.122 13.1511H2.546ZM18.3544 7.98515C21.1264 7.62515 22.9984 7.12115 24.1684 6.36515L30.7384 7.98515L31.3684 6.14915L25.5004 4.76315C25.6084 4.49315 25.6624 4.20515 25.6984 3.88115H30.5224V2.00915H25.7704V0.767148H23.5564V2.00915H18.6964V3.88115H23.5564C23.2144 4.87115 21.5764 5.64515 17.8324 6.13115L18.3544 7.98515ZM32.5204 8.43515H16.6804V10.1991H23.4484V11.2611H18.4444V12.9531H28.3804V13.7451H18.5344V18.0111H31.1344V16.2651H20.8204V15.4371H30.6844V11.2611H25.7524V10.1991H32.5204V8.43515ZM11.888 32.2571V35.2991H14.192V27.1091H11.888V30.2411H9.35C8.954 28.2611 7.118 27.3071 4.814 27.3071C2.186 27.3071 0.17 28.5311 0.17 31.0511V31.2851C0.17 33.7871 2.186 35.0291 4.814 35.0291C7.046 35.0291 8.846 34.1111 9.314 32.2571H11.888ZM2.474 31.0691C2.474 29.8811 3.482 29.3051 4.814 29.3051C6.128 29.3051 7.136 29.8811 7.136 31.0691V31.2491C7.136 32.4551 6.128 33.0131 4.814 33.0131C3.482 33.0131 2.474 32.4551 2.474 31.2491V31.0691ZM5.084 40.9691H14.192V36.2171H2.708V38.0891H11.888V39.1151H2.78V44.0111H14.732V42.0851H5.084V40.9691ZM30.3244 33.1931V27.1091H28.0204V43.9211H30.3244V35.2811H32.7544V33.1931H30.3244ZM25.3384 41.2571V28.2611H16.8964V41.2571H25.3384ZM23.0524 30.3671V39.1511H19.2004V30.3671H23.0524ZM47.5367 33.1931V27.1091H45.2867V43.9211H47.5367V35.2811H49.9127V33.1931H47.5367ZM36.3227 30.4571C36.3227 33.2651 35.6207 36.6671 33.6227 40.6451L35.5487 41.7071C37.5647 37.7291 38.5547 34.1651 38.5547 30.0071V28.3511H34.1987V30.4571H36.3227ZM41.2727 30.4571C41.2727 33.3011 40.5887 37.3511 38.5907 41.3291L40.5167 42.3911C42.5147 38.4131 43.5047 34.2011 43.5047 30.0071V28.3511H39.2387V30.4571H41.2727ZM63.0931 43.9211H65.3971V27.1091H63.0931V43.9211ZM57.4231 30.4571H61.0591V28.3511H51.5911V30.4571H55.1731V30.9071C55.1731 34.5071 53.7691 37.2611 50.9251 40.1411L52.5451 41.6711C54.0931 40.1051 55.2811 38.5031 56.0911 36.7931L60.0331 41.5091L61.7251 39.9971L56.9911 34.3451C57.2791 33.2471 57.4231 32.1131 57.4231 30.9071V30.4571Z" fill="black"/>
</svg>
