<svg width="57" height="30" viewBox="0 0 57 30" fill="none" xmlns="http://www.w3.org/2000/svg">
<path d="M14.74 24.16H17.22V5.48H14.74V24.16ZM8.54 9.54C7.92 7.22 6.56 6.28 4.92 6.28C2.68 6.28 0.94 8.04 0.94 12.6V15.46C0.94 20.02 2.68 21.78 4.92 21.78C6.76 21.78 8.26 20.58 8.72 17.62H10.68V23.72H13.1V5.78H10.68V9.54H8.54ZM6.46 15.46C6.46 18.46 5.82 19.46 4.92 19.46C4.04 19.46 3.36 18.46 3.36 15.46V12.6C3.36 9.6 4.04 8.6 4.92 8.6C5.82 8.6 6.46 9.6 6.46 12.6V15.46ZM8.88 12.6C8.88 12.32 8.88 12.06 8.86 11.8H10.68V15.38H8.88V12.6ZM33.2848 9.54H30.0048V11.72H33.2848V15.96H35.8448V5.5H33.2848V9.54ZM30.1248 15.84L31.3848 13.76L26.4448 10.74C26.6648 10.04 26.8048 9.32 26.8248 8.54H30.6848V6.28H20.5048V8.54H24.3448C24.2448 10.72 22.9248 12.4 19.7648 14.1L20.9848 16.12C22.9448 15.12 24.3848 14.02 25.3448 12.76L30.1248 15.84ZM33.2848 19.28V24.36H35.8448V16.98H22.9448V19.28H33.2848ZM53.4097 12.6C53.6897 10.78 53.8297 8.84 53.8297 7.26V6.02H40.7097V8.36H51.2697C51.2297 9.38 51.0897 11.02 50.8297 12.6H38.6097V14.86H56.2097V12.6H53.4097ZM54.1697 24.18V16.76H40.6697V24.18H54.1697ZM51.6097 18.96V21.94H43.2097V18.96H51.6097Z" fill="black"/>
</svg>
