<svg width="191" height="16" viewBox="0 0 191 16" fill="none" xmlns="http://www.w3.org/2000/svg">
<path d="M5.792 1.92418V0.276181H4.176V1.92418H0.64V3.26818H9.328V1.92418H5.792ZM12.496 0.452181H10.896V11.7162H12.496V6.24418H14.8V4.78818H12.496V0.452181ZM8.672 6.93218C8.672 5.10818 7.056 4.14818 5.008 4.14818C2.944 4.14818 1.328 5.10818 1.328 6.93218V7.17218C1.328 8.98018 2.944 9.97218 5.008 9.97218C7.056 9.97218 8.672 8.98018 8.672 7.17218V6.93218ZM2.896 6.96418C2.896 6.05218 3.808 5.49218 5.008 5.49218C6.192 5.49218 7.12 6.05218 7.12 6.96418V7.14018C7.12 8.06818 6.192 8.62818 5.008 8.62818C3.808 8.62818 2.896 8.06818 2.896 7.14018V6.96418ZM2.976 11.1882V15.3002H13.264V13.8442H4.576V11.1882H2.976ZM27.8119 6.18018V0.452181H26.2119V15.3002H27.8119V7.63618H29.9719V6.18018H27.8119ZM20.9319 2.14818V0.468181H19.3159V2.14818H15.8119V3.47618H24.4199V2.14818H20.9319ZM21.0119 10.1962C22.5959 9.94018 23.7639 8.99618 23.7639 7.42818V7.18818C23.7639 5.36418 22.1639 4.37218 20.1479 4.37218C18.0839 4.37218 16.4839 5.36418 16.4839 7.18818V7.42818C16.4839 9.04418 17.7159 10.0042 19.4119 10.2122V11.9882C18.9319 12.0042 18.4999 12.0202 18.1159 12.0202H15.5559L15.6359 13.4442H17.9879C20.0999 13.4442 22.9319 13.2682 25.1559 12.9642L24.9799 11.5722C23.7319 11.7162 22.3239 11.8442 21.0119 11.9242V10.1962ZM18.0519 7.20418C18.0519 6.22818 18.9479 5.65218 20.1479 5.65218C21.2999 5.65218 22.2119 6.22818 22.2119 7.20418V7.41218C22.2119 8.40418 21.2999 8.98018 20.1479 8.98018C18.9479 8.98018 18.0519 8.40418 18.0519 7.41218V7.20418ZM39.6878 9.28418C39.6878 6.30818 37.7518 4.78818 35.4318 4.78818C33.1598 4.78818 31.1918 6.29218 31.1918 9.18818V10.2602C31.1918 13.1722 33.1918 14.6762 35.4638 14.6762C37.2878 14.6762 38.9518 13.7962 39.5438 12.0842L38.0718 11.6042C37.6398 12.6922 36.5998 13.2522 35.4638 13.2522C34.0238 13.2522 32.7918 12.2442 32.7598 10.3082H39.6878V9.28418ZM32.7758 8.94818C32.8718 7.15618 34.0398 6.22818 35.4318 6.22818C36.9518 6.22818 38.0878 7.28418 38.0878 8.94818H32.7758ZM41.6036 8.69218H46.8036V7.20418H41.6036V8.69218ZM59.603 15.3002H61.203V0.452181H59.603V15.3002ZM54.227 2.14818V0.468181H52.627V2.14818H49.043V3.47618H57.811V2.14818H54.227ZM54.227 10.2122C55.891 9.98818 57.139 9.02818 57.139 7.42818V7.18818C57.139 5.36418 55.491 4.37218 53.443 4.37218C51.363 4.37218 49.731 5.36418 49.731 7.18818V7.42818C49.731 9.02818 50.963 9.98818 52.643 10.2122V11.9722C52.163 11.9882 51.715 12.0042 51.315 12.0042H48.627L48.707 13.4602H51.171C53.347 13.4602 56.259 13.2842 58.531 12.9642L58.355 11.5402C57.059 11.7002 55.587 11.8282 54.227 11.9082V10.2122ZM51.283 7.20418C51.283 6.22818 52.227 5.65218 53.443 5.65218C54.627 5.65218 55.571 6.22818 55.571 7.20418V7.41218C55.571 8.40418 54.627 8.98018 53.443 8.98018C52.227 8.98018 51.283 8.40418 51.283 7.41218V7.20418ZM71.8789 5.74818H74.7909V11.5722H76.3749V0.452181H74.7909V4.37218H71.8789V5.74818ZM72.1029 9.55618L72.9989 8.30818L68.8229 5.07618C69.0629 4.35618 69.1749 3.60418 69.1749 2.80418V2.66018H72.4229V1.23618H64.4069V2.66018H67.6069V2.80418C67.6069 5.14018 66.3589 6.82018 63.8149 8.56418L64.6789 9.79618C66.2629 8.75618 67.4309 7.66818 68.1829 6.45218L72.1029 9.55618ZM68.1509 10.6442H66.5509V15.3002H76.9989V13.8442H68.1509V10.6442ZM90.9726 5.04418H93.8686V8.54818H95.4686V0.452181H93.8686V3.66818H90.9726V5.04418ZM91.2766 8.46818L92.0766 7.15618L87.9166 4.53218C88.1406 3.92418 88.2526 3.28418 88.2526 2.58018H91.5006V1.15618H83.5006V2.58018H86.7006C86.7006 4.54818 85.4686 5.98818 82.9086 7.42818L83.6606 8.70818C85.2926 7.82818 86.4926 6.88418 87.2446 5.81218L91.2766 8.46818ZM88.8766 9.33218C86.7166 9.33218 85.3406 10.6122 85.3406 12.3882C85.3406 14.1802 86.7166 15.4602 88.8766 15.4602H92.1086C94.2846 15.4602 95.6606 14.1802 95.6606 12.3882C95.6606 10.6122 94.2846 9.33218 92.1086 9.33218H88.8766ZM89.1326 14.0202C87.6606 14.0202 86.9246 13.3322 86.9246 12.3882C86.9246 11.4442 87.6606 10.7562 89.1326 10.7562H91.8686C93.3406 10.7562 94.0606 11.4442 94.0606 12.3882C94.0606 13.3322 93.3406 14.0202 91.8686 14.0202H89.1326ZM109.057 15.3002H110.641V0.452181H109.057V15.3002ZM104.481 3.07618V3.25218C104.481 6.38818 102.433 9.79618 98.5925 12.2602L99.5525 13.5242C103.681 10.8042 106.081 7.14018 106.081 2.93218V1.62018H98.9125V3.07618H104.481ZM124.484 15.3002H126.052V0.452181H124.484V15.3002ZM119.316 3.87618C118.852 1.95618 117.764 1.15618 116.452 1.15618C114.692 1.15618 113.348 2.56418 113.348 6.13218V8.38818C113.348 11.9562 114.692 13.3642 116.452 13.3642C117.924 13.3642 119.092 12.3722 119.444 9.94018H121.268V14.9962H122.788V0.676181H121.268V3.87618H119.316ZM118.036 8.37218C118.036 10.9482 117.364 11.9082 116.452 11.9082C115.54 11.9082 114.868 10.9482 114.868 8.37218V6.14818C114.868 3.55618 115.54 2.61218 116.452 2.61218C117.364 2.61218 118.036 3.55618 118.036 6.14818V8.37218ZM119.54 8.53218V8.38818V6.13218C119.54 5.84418 119.524 5.55618 119.508 5.30018H121.268V8.53218H119.54ZM139.784 6.32418C140.056 4.77218 140.2 3.14018 140.2 1.86018V0.916181H129.976V2.37218H138.616C138.6 3.23618 138.456 4.82018 138.184 6.32418H128.264V7.73218H142.216V6.32418H139.784ZM140.52 15.3162V9.52418H129.976V15.3162H140.52ZM138.92 10.9002V13.9082H131.576V10.9002H138.92ZM155.134 6.54818H159.454V0.692181H157.854V2.37218H150.814V0.692181H149.214V6.54818H153.55V8.02018H147.358V9.39618H161.31V8.02018H155.134V6.54818ZM157.854 3.68418V5.23618H150.814V3.68418H157.854ZM158.014 12.2442V15.4602H159.614V10.8362H149.07V12.2442H158.014ZM175.25 15.3002V0.452181H173.666V15.3002H175.25ZM166.13 13.1882C168.258 13.1882 170.514 12.9962 172.242 12.6762L172.05 11.2842C170.226 11.5722 168.114 11.7482 166.418 11.7482H164.93V7.98818H170.466V1.54018H163.33V2.98018H168.866V6.58018H163.33V13.1882H166.13ZM188.822 8.78818H190.422V0.452181H188.822V8.78818ZM186.422 8.35618L187.27 7.09218L182.982 4.21218C183.238 3.50818 183.366 2.75618 183.366 1.94018V0.932181H181.782V1.94018C181.782 4.10018 180.566 5.79618 177.846 7.39618L178.678 8.67618C180.31 7.73218 181.51 6.70818 182.278 5.57218L186.422 8.35618ZM188.822 11.1722V15.4602H190.422V9.71618H180.438V11.1722H188.822Z" fill="black"/>
</svg>
