<svg width="49" height="24" viewBox="0 0 49 24" fill="none" xmlns="http://www.w3.org/2000/svg">
<path d="M0.784 15.576C1.44 17.416 2.96 18.888 5.616 18.888C8.416 18.888 10.352 17.384 10.352 15.08C10.352 13.448 9.312 12.376 8.032 11.912C9.104 11.448 10.048 10.552 10.048 8.936C10.048 6.648 8.144 5.352 5.584 5.352C3.152 5.352 1.776 6.728 1.152 8.408L2.976 9.096C3.36 8.104 4.096 7.192 5.584 7.192C7.072 7.192 8.032 7.88 8.032 9.064C8.032 10.232 7.152 11.064 5.376 11.064H3.68V12.792H5.376C7.392 12.792 8.352 13.784 8.352 14.984C8.352 16.168 7.36 17.048 5.616 17.048C3.888 17.048 3.04 16.04 2.608 14.904L0.784 15.576ZM13.599 18.888C14.319 18.888 14.895 18.312 14.895 17.592C14.895 16.872 14.319 16.28 13.599 16.28C12.879 16.28 12.303 16.872 12.303 17.592C12.303 18.312 12.879 18.888 13.599 18.888ZM21.6841 18.888C24.4521 18.888 26.5161 17.544 26.5161 15.016C26.5161 13.704 25.7001 12.52 24.0841 11.88C25.5561 11.304 26.1801 10.232 26.1801 9.016C26.1801 6.616 24.2601 5.352 21.6841 5.352C19.1241 5.352 17.1881 6.616 17.1881 9.016C17.1881 10.232 17.8121 11.304 19.2841 11.88C17.6681 12.52 16.8521 13.704 16.8521 15.016C16.8521 17.544 18.9481 18.888 21.6841 18.888ZM21.6841 11.048C20.1321 11.048 19.2361 10.296 19.2361 9.128C19.2361 7.944 20.1321 7.192 21.6841 7.192C23.2361 7.192 24.1481 7.944 24.1481 9.128C24.1481 10.296 23.2361 11.048 21.6841 11.048ZM21.6841 17.048C19.9241 17.048 18.8841 16.216 18.8841 14.92C18.8841 13.656 19.9561 12.808 21.6841 12.808C23.4121 12.808 24.4841 13.656 24.4841 14.92C24.4841 16.216 23.4441 17.048 21.6841 17.048ZM31.0829 12.504C32.6989 12.504 34.0589 11.4 34.0589 9.528V8.312C34.0589 6.472 32.6989 5.352 31.0829 5.352C29.4669 5.352 28.1069 6.472 28.1069 8.312V9.528C28.1069 11.4 29.4669 12.504 31.0829 12.504ZM31.8829 18.648L40.9549 5.592H38.6829L29.6109 18.648H31.8829ZM31.0829 10.824C30.3949 10.824 29.8989 10.28 29.8989 9.4V8.456C29.8989 7.576 30.3949 7.032 31.0829 7.032C31.7709 7.032 32.2829 7.56 32.2829 8.456V9.4C32.2829 10.296 31.7709 10.824 31.0829 10.824ZM39.4189 18.888C41.0349 18.888 42.3949 17.784 42.3949 15.912V14.696C42.3949 12.856 41.0349 11.736 39.4189 11.736C37.8029 11.736 36.4429 12.856 36.4429 14.696V15.912C36.4429 17.784 37.8029 18.888 39.4189 18.888ZM39.4189 17.208C38.7309 17.208 38.2349 16.664 38.2349 15.784V14.84C38.2349 13.96 38.7309 13.416 39.4189 13.416C40.1069 13.416 40.6189 13.944 40.6189 14.84V15.784C40.6189 16.68 40.1069 17.208 39.4189 17.208Z" fill="#5725E0"/>
</svg>
