<svg width="101" height="161" viewBox="0 0 101 161" fill="none" xmlns="http://www.w3.org/2000/svg">
<path d="M8.166 18.0721V6.73212H6.976L3.392 9.58812L4.19 10.6381L6.766 8.58012V18.0721H8.166ZM17.4279 14.5441V6.73212H15.5519L10.3439 14.6841V15.8321H16.0419V18.2821H17.4279V15.8321H19.1779V14.5441H17.4279ZM16.0419 8.32812V14.5441H12.0239L16.0419 8.32812ZM21.6814 20.5081L22.2554 16.4621H20.8414L20.5334 20.5081H21.6814ZM28.3024 18.2821C30.5704 18.2821 32.4324 16.6581 32.4324 13.4941V11.2961C32.4324 8.16012 30.5704 6.52212 28.3024 6.52212C26.0344 6.52212 24.1864 8.16012 24.1864 11.2961V13.4941C24.1864 16.6581 26.0344 18.2821 28.3024 18.2821ZM28.3024 17.0221C26.7764 17.0221 25.5864 15.8741 25.5864 13.4241V11.3801C25.5864 8.93012 26.7764 7.78212 28.3024 7.78212C29.8284 7.78212 31.0184 8.93012 31.0184 11.3801V13.4241C31.0184 15.8741 29.8284 17.0221 28.3024 17.0221ZM38.4332 18.2821C40.7012 18.2821 42.5632 16.6581 42.5632 13.4941V11.2961C42.5632 8.16012 40.7012 6.52212 38.4332 6.52212C36.1652 6.52212 34.3172 8.16012 34.3172 11.2961V13.4941C34.3172 16.6581 36.1652 18.2821 38.4332 18.2821ZM38.4332 17.0221C36.9072 17.0221 35.7172 15.8741 35.7172 13.4241V11.3801C35.7172 8.93012 36.9072 7.78212 38.4332 7.78212C39.9592 7.78212 41.1492 8.93012 41.1492 11.3801V13.4241C41.1492 15.8741 39.9592 17.0221 38.4332 17.0221ZM48.5641 18.2821C50.8321 18.2821 52.6941 16.6581 52.6941 13.4941V11.2961C52.6941 8.16012 50.8321 6.52212 48.5641 6.52212C46.2961 6.52212 44.4481 8.16012 44.4481 11.2961V13.4941C44.4481 16.6581 46.2961 18.2821 48.5641 18.2821ZM48.5641 17.0221C47.0381 17.0221 45.8481 15.8741 45.8481 13.4241V11.3801C45.8481 8.93012 47.0381 7.78212 48.5641 7.78212C50.0901 7.78212 51.2801 8.93012 51.2801 11.3801V13.4241C51.2801 15.8741 50.0901 17.0221 48.5641 17.0221ZM55.615 20.5081L56.189 16.4621H54.775L54.467 20.5081H55.615ZM62.236 18.2821C64.504 18.2821 66.366 16.6581 66.366 13.4941V11.2961C66.366 8.16012 64.504 6.52212 62.236 6.52212C59.968 6.52212 58.12 8.16012 58.12 11.2961V13.4941C58.12 16.6581 59.968 18.2821 62.236 18.2821ZM62.236 17.0221C60.71 17.0221 59.52 15.8741 59.52 13.4241V11.3801C59.52 8.93012 60.71 7.78212 62.236 7.78212C63.762 7.78212 64.952 8.93012 64.952 11.3801V13.4241C64.952 15.8741 63.762 17.0221 62.236 17.0221ZM72.3668 18.2821C74.6348 18.2821 76.4968 16.6581 76.4968 13.4941V11.2961C76.4968 8.16012 74.6348 6.52212 72.3668 6.52212C70.0988 6.52212 68.2508 8.16012 68.2508 11.2961V13.4941C68.2508 16.6581 70.0988 18.2821 72.3668 18.2821ZM72.3668 17.0221C70.8408 17.0221 69.6508 15.8741 69.6508 13.4241V11.3801C69.6508 8.93012 70.8408 7.78212 72.3668 7.78212C73.8928 7.78212 75.0828 8.93012 75.0828 11.3801V13.4241C75.0828 15.8741 73.8928 17.0221 72.3668 17.0221ZM82.4977 18.2821C84.7657 18.2821 86.6277 16.6581 86.6277 13.4941V11.2961C86.6277 8.16012 84.7657 6.52212 82.4977 6.52212C80.2297 6.52212 78.3817 8.16012 78.3817 11.2961V13.4941C78.3817 16.6581 80.2297 18.2821 82.4977 18.2821ZM82.4977 17.0221C80.9717 17.0221 79.7817 15.8741 79.7817 13.4241V11.3801C79.7817 8.93012 80.9717 7.78212 82.4977 7.78212C84.0237 7.78212 85.2137 8.93012 85.2137 11.3801V13.4241C85.2137 15.8741 84.0237 17.0221 82.4977 17.0221ZM94.2105 15.0761H97.8365V16.1821H99.2225V5.83612H97.8365V14.0121H94.2105V15.0761ZM92.3625 11.0581C94.3225 11.0581 95.8485 10.2461 95.8485 8.67812V8.51012C95.8485 6.92812 94.3225 6.11612 92.3625 6.11612C90.3885 6.11612 88.8625 6.92812 88.8625 8.51012V8.67812C88.8625 10.2461 90.3885 11.0581 92.3625 11.0581ZM90.1925 8.53812C90.1925 7.71212 91.1025 7.26412 92.3625 7.26412C93.6085 7.26412 94.5185 7.71212 94.5185 8.53812V8.65012C94.5185 9.46212 93.6085 9.91012 92.3625 9.91012C91.1025 9.91012 90.1925 9.46212 90.1925 8.65012V8.53812ZM92.6845 15.3701C92.7685 14.6281 92.8245 13.8861 92.8665 13.2001C94.2385 13.1301 95.6665 13.0041 96.8985 12.8361L96.7585 11.6881C94.7005 11.9401 92.1805 12.0941 90.5705 12.0941H88.2325L88.2885 13.2701H90.4585C90.7945 13.2701 91.1445 13.2701 91.5225 13.2561C91.4665 13.9001 91.4105 14.6001 91.3405 15.2721L92.6845 15.3701ZM91.8865 15.8321H90.5005V18.8281H99.7685V17.5541H91.8865V15.8321Z" fill="#333333"/>
<path d="M8.596 52.0721V50.7841H2.94L6.146 47.6061C7.504 46.2621 8.33 45.1421 8.33 43.6021C8.33 41.6981 6.874 40.5221 4.69 40.5221C2.562 40.5221 1.33 42.0621 0.868 43.7281L2.198 44.0501C2.576 42.8041 3.29 41.7821 4.69 41.7821C6.132 41.7821 6.944 42.5241 6.944 43.6581C6.944 44.7081 6.356 45.5901 5.082 46.8501L0.924 50.9801V52.0721H8.596ZM14.611 52.2821C16.879 52.2821 18.741 50.6581 18.741 47.4941V45.2961C18.741 42.1601 16.879 40.5221 14.611 40.5221C12.343 40.5221 10.495 42.1601 10.495 45.2961V47.4941C10.495 50.6581 12.343 52.2821 14.611 52.2821ZM14.611 51.0221C13.085 51.0221 11.895 49.8741 11.895 47.4241V45.3801C11.895 42.9301 13.085 41.7821 14.611 41.7821C16.137 41.7821 17.327 42.9301 17.327 45.3801V47.4241C17.327 49.8741 16.137 51.0221 14.611 51.0221ZM21.6618 54.5081L22.2358 50.4621H20.8218L20.5138 54.5081H21.6618ZM31.8108 52.0721V50.7841H26.1548L29.3608 47.6061C30.7188 46.2621 31.5448 45.1421 31.5448 43.6021C31.5448 41.6981 30.0888 40.5221 27.9048 40.5221C25.7768 40.5221 24.5448 42.0621 24.0828 43.7281L25.4128 44.0501C25.7908 42.8041 26.5048 41.7821 27.9048 41.7821C29.3468 41.7821 30.1588 42.5241 30.1588 43.6581C30.1588 44.7081 29.5708 45.5901 28.2968 46.8501L24.1388 50.9801V52.0721H31.8108ZM37.8258 52.2821C40.0938 52.2821 41.9558 50.6581 41.9558 47.4941V45.2961C41.9558 42.1601 40.0938 40.5221 37.8258 40.5221C35.5578 40.5221 33.7098 42.1601 33.7098 45.2961V47.4941C33.7098 50.6581 35.5578 52.2821 37.8258 52.2821ZM37.8258 51.0221C36.2998 51.0221 35.1098 49.8741 35.1098 47.4241V45.3801C35.1098 42.9301 36.2998 41.7821 37.8258 41.7821C39.3518 41.7821 40.5418 42.9301 40.5418 45.3801V47.4241C40.5418 49.8741 39.3518 51.0221 37.8258 51.0221ZM47.9567 52.2821C50.2247 52.2821 52.0867 50.6581 52.0867 47.4941V45.2961C52.0867 42.1601 50.2247 40.5221 47.9567 40.5221C45.6887 40.5221 43.8407 42.1601 43.8407 45.2961V47.4941C43.8407 50.6581 45.6887 52.2821 47.9567 52.2821ZM47.9567 51.0221C46.4307 51.0221 45.2407 49.8741 45.2407 47.4241V45.3801C45.2407 42.9301 46.4307 41.7821 47.9567 41.7821C49.4827 41.7821 50.6727 42.9301 50.6727 45.3801V47.4241C50.6727 49.8741 49.4827 51.0221 47.9567 51.0221ZM55.0075 54.5081L55.5815 50.4621H54.1675L53.8595 54.5081H55.0075ZM61.6285 52.2821C63.8965 52.2821 65.7585 50.6581 65.7585 47.4941V45.2961C65.7585 42.1601 63.8965 40.5221 61.6285 40.5221C59.3605 40.5221 57.5125 42.1601 57.5125 45.2961V47.4941C57.5125 50.6581 59.3605 52.2821 61.6285 52.2821ZM61.6285 51.0221C60.1025 51.0221 58.9125 49.8741 58.9125 47.4241V45.3801C58.9125 42.9301 60.1025 41.7821 61.6285 41.7821C63.1545 41.7821 64.3445 42.9301 64.3445 45.3801V47.4241C64.3445 49.8741 63.1545 51.0221 61.6285 51.0221ZM71.7594 52.2821C74.0274 52.2821 75.8894 50.6581 75.8894 47.4941V45.2961C75.8894 42.1601 74.0274 40.5221 71.7594 40.5221C69.4914 40.5221 67.6434 42.1601 67.6434 45.2961V47.4941C67.6434 50.6581 69.4914 52.2821 71.7594 52.2821ZM71.7594 51.0221C70.2334 51.0221 69.0434 49.8741 69.0434 47.4241V45.3801C69.0434 42.9301 70.2334 41.7821 71.7594 41.7821C73.2854 41.7821 74.4754 42.9301 74.4754 45.3801V47.4241C74.4754 49.8741 73.2854 51.0221 71.7594 51.0221ZM81.8903 52.2821C84.1583 52.2821 86.0203 50.6581 86.0203 47.4941V45.2961C86.0203 42.1601 84.1583 40.5221 81.8903 40.5221C79.6223 40.5221 77.7743 42.1601 77.7743 45.2961V47.4941C77.7743 50.6581 79.6223 52.2821 81.8903 52.2821ZM81.8903 51.0221C80.3643 51.0221 79.1743 49.8741 79.1743 47.4241V45.3801C79.1743 42.9301 80.3643 41.7821 81.8903 41.7821C83.4163 41.7821 84.6063 42.9301 84.6063 45.3801V47.4241C84.6063 49.8741 83.4163 51.0221 81.8903 51.0221ZM93.6031 49.0761H97.2291V50.1821H98.6151V39.8361H97.2291V48.0121H93.6031V49.0761ZM91.7551 45.0581C93.7151 45.0581 95.2411 44.2461 95.2411 42.6781V42.5101C95.2411 40.9281 93.7151 40.1161 91.7551 40.1161C89.7811 40.1161 88.2551 40.9281 88.2551 42.5101V42.6781C88.2551 44.2461 89.7811 45.0581 91.7551 45.0581ZM89.5851 42.5381C89.5851 41.7121 90.4951 41.2641 91.7551 41.2641C93.0011 41.2641 93.9111 41.7121 93.9111 42.5381V42.6501C93.9111 43.4621 93.0011 43.9101 91.7551 43.9101C90.4951 43.9101 89.5851 43.4621 89.5851 42.6501V42.5381ZM92.0771 49.3701C92.1611 48.6281 92.2171 47.8861 92.2591 47.2001C93.6311 47.1301 95.0591 47.0041 96.2911 46.8361L96.1511 45.6881C94.0931 45.9401 91.5731 46.0941 89.9631 46.0941H87.6251L87.6811 47.2701H89.8511C90.1871 47.2701 90.5371 47.2701 90.9151 47.2561C90.8591 47.9001 90.8031 48.6001 90.7331 49.2721L92.0771 49.3701ZM91.2791 49.8321H89.8931V52.8281H99.1611V51.5541H91.2791V49.8321Z" fill="#333333"/>
<path d="M8.166 86.0721V74.7321H6.976L3.392 77.5881L4.19 78.6381L6.766 76.5801V86.0721H8.166ZM18.2679 86.0721V84.7841H12.6119L15.8179 81.6061C17.1759 80.2621 18.0019 79.1421 18.0019 77.6021C18.0019 75.6981 16.5459 74.5221 14.3619 74.5221C12.2339 74.5221 11.0019 76.0621 10.5399 77.7281L11.8699 78.0501C12.2479 76.8041 12.9619 75.7821 14.3619 75.7821C15.8039 75.7821 16.6159 76.5241 16.6159 77.6581C16.6159 78.7081 16.0279 79.5901 14.7539 80.8501L10.5959 84.9801V86.0721H18.2679ZM21.2028 88.5081L21.7768 84.4621H20.3628L20.0548 88.5081H21.2028ZM27.8239 86.2821C30.0919 86.2821 31.9539 84.6581 31.9539 81.4941V79.2961C31.9539 76.1601 30.0919 74.5221 27.8239 74.5221C25.5559 74.5221 23.7079 76.1601 23.7079 79.2961V81.4941C23.7079 84.6581 25.5559 86.2821 27.8239 86.2821ZM27.8239 85.0221C26.2979 85.0221 25.1079 83.8741 25.1079 81.4241V79.3801C25.1079 76.9301 26.2979 75.7821 27.8239 75.7821C29.3499 75.7821 30.5399 76.9301 30.5399 79.3801V81.4241C30.5399 83.8741 29.3499 85.0221 27.8239 85.0221ZM37.9547 86.2821C40.2227 86.2821 42.0847 84.6581 42.0847 81.4941V79.2961C42.0847 76.1601 40.2227 74.5221 37.9547 74.5221C35.6867 74.5221 33.8387 76.1601 33.8387 79.2961V81.4941C33.8387 84.6581 35.6867 86.2821 37.9547 86.2821ZM37.9547 85.0221C36.4287 85.0221 35.2387 83.8741 35.2387 81.4241V79.3801C35.2387 76.9301 36.4287 75.7821 37.9547 75.7821C39.4807 75.7821 40.6707 76.9301 40.6707 79.3801V81.4241C40.6707 83.8741 39.4807 85.0221 37.9547 85.0221ZM48.0856 86.2821C50.3536 86.2821 52.2156 84.6581 52.2156 81.4941V79.2961C52.2156 76.1601 50.3536 74.5221 48.0856 74.5221C45.8176 74.5221 43.9696 76.1601 43.9696 79.2961V81.4941C43.9696 84.6581 45.8176 86.2821 48.0856 86.2821ZM48.0856 85.0221C46.5596 85.0221 45.3696 83.8741 45.3696 81.4241V79.3801C45.3696 76.9301 46.5596 75.7821 48.0856 75.7821C49.6116 75.7821 50.8016 76.9301 50.8016 79.3801V81.4241C50.8016 83.8741 49.6116 85.0221 48.0856 85.0221ZM55.1364 88.5081L55.7104 84.4621H54.2964L53.9884 88.5081H55.1364ZM61.7575 86.2821C64.0255 86.2821 65.8875 84.6581 65.8875 81.4941V79.2961C65.8875 76.1601 64.0255 74.5221 61.7575 74.5221C59.4895 74.5221 57.6415 76.1601 57.6415 79.2961V81.4941C57.6415 84.6581 59.4895 86.2821 61.7575 86.2821ZM61.7575 85.0221C60.2315 85.0221 59.0415 83.8741 59.0415 81.4241V79.3801C59.0415 76.9301 60.2315 75.7821 61.7575 75.7821C63.2835 75.7821 64.4735 76.9301 64.4735 79.3801V81.4241C64.4735 83.8741 63.2835 85.0221 61.7575 85.0221ZM71.8883 86.2821C74.1563 86.2821 76.0183 84.6581 76.0183 81.4941V79.2961C76.0183 76.1601 74.1563 74.5221 71.8883 74.5221C69.6203 74.5221 67.7723 76.1601 67.7723 79.2961V81.4941C67.7723 84.6581 69.6203 86.2821 71.8883 86.2821ZM71.8883 85.0221C70.3623 85.0221 69.1723 83.8741 69.1723 81.4241V79.3801C69.1723 76.9301 70.3623 75.7821 71.8883 75.7821C73.4143 75.7821 74.6043 76.9301 74.6043 79.3801V81.4241C74.6043 83.8741 73.4143 85.0221 71.8883 85.0221ZM82.0192 86.2821C84.2872 86.2821 86.1492 84.6581 86.1492 81.4941V79.2961C86.1492 76.1601 84.2872 74.5221 82.0192 74.5221C79.7512 74.5221 77.9032 76.1601 77.9032 79.2961V81.4941C77.9032 84.6581 79.7512 86.2821 82.0192 86.2821ZM82.0192 85.0221C80.4932 85.0221 79.3032 83.8741 79.3032 81.4241V79.3801C79.3032 76.9301 80.4932 75.7821 82.0192 75.7821C83.5452 75.7821 84.7352 76.9301 84.7352 79.3801V81.4241C84.7352 83.8741 83.5452 85.0221 82.0192 85.0221ZM93.732 83.0761H97.358V84.1821H98.744V73.8361H97.358V82.0121H93.732V83.0761ZM91.884 79.0581C93.844 79.0581 95.37 78.2461 95.37 76.6781V76.5101C95.37 74.9281 93.844 74.1161 91.884 74.1161C89.91 74.1161 88.384 74.9281 88.384 76.5101V76.6781C88.384 78.2461 89.91 79.0581 91.884 79.0581ZM89.714 76.5381C89.714 75.7121 90.624 75.2641 91.884 75.2641C93.13 75.2641 94.04 75.7121 94.04 76.5381V76.6501C94.04 77.4621 93.13 77.9101 91.884 77.9101C90.624 77.9101 89.714 77.4621 89.714 76.6501V76.5381ZM92.206 83.3701C92.29 82.6281 92.346 81.8861 92.388 81.2001C93.76 81.1301 95.188 81.0041 96.42 80.8361L96.28 79.6881C94.222 79.9401 91.702 80.0941 90.092 80.0941H87.754L87.81 81.2701H89.98C90.316 81.2701 90.666 81.2701 91.044 81.2561C90.988 81.9001 90.932 82.6001 90.862 83.2721L92.206 83.3701ZM91.408 83.8321H90.022V86.8281H99.29V85.5541H91.408V83.8321Z" fill="#333333"/>
<path d="M8.166 120.072V108.732H6.976L3.392 111.588L4.19 112.638L6.766 110.58V120.072H8.166ZM14.7399 120.282C17.0079 120.282 18.8699 118.658 18.8699 115.494V113.296C18.8699 110.16 17.0079 108.522 14.7399 108.522C12.4719 108.522 10.6239 110.16 10.6239 113.296V115.494C10.6239 118.658 12.4719 120.282 14.7399 120.282ZM14.7399 119.022C13.2139 119.022 12.0239 117.874 12.0239 115.424V113.38C12.0239 110.93 13.2139 109.782 14.7399 109.782C16.2659 109.782 17.4559 110.93 17.4559 113.38V115.424C17.4559 117.874 16.2659 119.022 14.7399 119.022ZM21.7907 122.508L22.3647 118.462H20.9507L20.6427 122.508H21.7907ZM28.4118 120.282C30.6798 120.282 32.5418 118.658 32.5418 115.494V113.296C32.5418 110.16 30.6798 108.522 28.4118 108.522C26.1438 108.522 24.2958 110.16 24.2958 113.296V115.494C24.2958 118.658 26.1438 120.282 28.4118 120.282ZM28.4118 119.022C26.8858 119.022 25.6958 117.874 25.6958 115.424V113.38C25.6958 110.93 26.8858 109.782 28.4118 109.782C29.9378 109.782 31.1278 110.93 31.1278 113.38V115.424C31.1278 117.874 29.9378 119.022 28.4118 119.022ZM38.5426 120.282C40.8106 120.282 42.6726 118.658 42.6726 115.494V113.296C42.6726 110.16 40.8106 108.522 38.5426 108.522C36.2746 108.522 34.4266 110.16 34.4266 113.296V115.494C34.4266 118.658 36.2746 120.282 38.5426 120.282ZM38.5426 119.022C37.0166 119.022 35.8266 117.874 35.8266 115.424V113.38C35.8266 110.93 37.0166 109.782 38.5426 109.782C40.0686 109.782 41.2586 110.93 41.2586 113.38V115.424C41.2586 117.874 40.0686 119.022 38.5426 119.022ZM48.6735 120.282C50.9415 120.282 52.8035 118.658 52.8035 115.494V113.296C52.8035 110.16 50.9415 108.522 48.6735 108.522C46.4055 108.522 44.5575 110.16 44.5575 113.296V115.494C44.5575 118.658 46.4055 120.282 48.6735 120.282ZM48.6735 119.022C47.1475 119.022 45.9575 117.874 45.9575 115.424V113.38C45.9575 110.93 47.1475 109.782 48.6735 109.782C50.1995 109.782 51.3895 110.93 51.3895 113.38V115.424C51.3895 117.874 50.1995 119.022 48.6735 119.022ZM55.7243 122.508L56.2983 118.462H54.8843L54.5763 122.508H55.7243ZM62.3453 120.282C64.6133 120.282 66.4753 118.658 66.4753 115.494V113.296C66.4753 110.16 64.6133 108.522 62.3453 108.522C60.0773 108.522 58.2293 110.16 58.2293 113.296V115.494C58.2293 118.658 60.0773 120.282 62.3453 120.282ZM62.3453 119.022C60.8193 119.022 59.6293 117.874 59.6293 115.424V113.38C59.6293 110.93 60.8193 109.782 62.3453 109.782C63.8713 109.782 65.0613 110.93 65.0613 113.38V115.424C65.0613 117.874 63.8713 119.022 62.3453 119.022ZM72.4762 120.282C74.7442 120.282 76.6062 118.658 76.6062 115.494V113.296C76.6062 110.16 74.7442 108.522 72.4762 108.522C70.2082 108.522 68.3602 110.16 68.3602 113.296V115.494C68.3602 118.658 70.2082 120.282 72.4762 120.282ZM72.4762 119.022C70.9502 119.022 69.7602 117.874 69.7602 115.424V113.38C69.7602 110.93 70.9502 109.782 72.4762 109.782C74.0022 109.782 75.1922 110.93 75.1922 113.38V115.424C75.1922 117.874 74.0022 119.022 72.4762 119.022ZM82.6071 120.282C84.8751 120.282 86.7371 118.658 86.7371 115.494V113.296C86.7371 110.16 84.8751 108.522 82.6071 108.522C80.3391 108.522 78.4911 110.16 78.4911 113.296V115.494C78.4911 118.658 80.3391 120.282 82.6071 120.282ZM82.6071 119.022C81.0811 119.022 79.8911 117.874 79.8911 115.424V113.38C79.8911 110.93 81.0811 109.782 82.6071 109.782C84.1331 109.782 85.3231 110.93 85.3231 113.38V115.424C85.3231 117.874 84.1331 119.022 82.6071 119.022ZM94.3199 117.076H97.9459V118.182H99.3319V107.836H97.9459V116.012H94.3199V117.076ZM92.4719 113.058C94.4319 113.058 95.9579 112.246 95.9579 110.678V110.51C95.9579 108.928 94.4319 108.116 92.4719 108.116C90.4979 108.116 88.9719 108.928 88.9719 110.51V110.678C88.9719 112.246 90.4979 113.058 92.4719 113.058ZM90.3019 110.538C90.3019 109.712 91.2119 109.264 92.4719 109.264C93.7179 109.264 94.6279 109.712 94.6279 110.538V110.65C94.6279 111.462 93.7179 111.91 92.4719 111.91C91.2119 111.91 90.3019 111.462 90.3019 110.65V110.538ZM92.7939 117.37C92.8779 116.628 92.9339 115.886 92.9759 115.2C94.3479 115.13 95.7759 115.004 97.0079 114.836L96.8679 113.688C94.8099 113.94 92.2899 114.094 90.6799 114.094H88.3419L88.3979 115.27H90.5679C90.9039 115.27 91.2539 115.27 91.6319 115.256C91.5759 115.9 91.5199 116.6 91.4499 117.272L92.7939 117.37ZM91.9959 117.832H90.6099V120.828H99.8779V119.554H91.9959V117.832Z" fill="#333333"/>
<path d="M8.166 154.072V142.732H6.976L3.392 145.588L4.19 146.638L6.766 144.58V154.072H8.166ZM14.7399 154.282C17.0079 154.282 18.8699 152.658 18.8699 149.494V147.296C18.8699 144.16 17.0079 142.522 14.7399 142.522C12.4719 142.522 10.6239 144.16 10.6239 147.296V149.494C10.6239 152.658 12.4719 154.282 14.7399 154.282ZM14.7399 153.022C13.2139 153.022 12.0239 151.874 12.0239 149.424V147.38C12.0239 144.93 13.2139 143.782 14.7399 143.782C16.2659 143.782 17.4559 144.93 17.4559 147.38V149.424C17.4559 151.874 16.2659 153.022 14.7399 153.022ZM21.7907 156.508L22.3647 152.462H20.9507L20.6427 156.508H21.7907ZM28.4118 154.282C30.6798 154.282 32.5418 152.658 32.5418 149.494V147.296C32.5418 144.16 30.6798 142.522 28.4118 142.522C26.1438 142.522 24.2958 144.16 24.2958 147.296V149.494C24.2958 152.658 26.1438 154.282 28.4118 154.282ZM28.4118 153.022C26.8858 153.022 25.6958 151.874 25.6958 149.424V147.38C25.6958 144.93 26.8858 143.782 28.4118 143.782C29.9378 143.782 31.1278 144.93 31.1278 147.38V149.424C31.1278 151.874 29.9378 153.022 28.4118 153.022ZM38.5426 154.282C40.8106 154.282 42.6726 152.658 42.6726 149.494V147.296C42.6726 144.16 40.8106 142.522 38.5426 142.522C36.2746 142.522 34.4266 144.16 34.4266 147.296V149.494C34.4266 152.658 36.2746 154.282 38.5426 154.282ZM38.5426 153.022C37.0166 153.022 35.8266 151.874 35.8266 149.424V147.38C35.8266 144.93 37.0166 143.782 38.5426 143.782C40.0686 143.782 41.2586 144.93 41.2586 147.38V149.424C41.2586 151.874 40.0686 153.022 38.5426 153.022ZM48.6735 154.282C50.9415 154.282 52.8035 152.658 52.8035 149.494V147.296C52.8035 144.16 50.9415 142.522 48.6735 142.522C46.4055 142.522 44.5575 144.16 44.5575 147.296V149.494C44.5575 152.658 46.4055 154.282 48.6735 154.282ZM48.6735 153.022C47.1475 153.022 45.9575 151.874 45.9575 149.424V147.38C45.9575 144.93 47.1475 143.782 48.6735 143.782C50.1995 143.782 51.3895 144.93 51.3895 147.38V149.424C51.3895 151.874 50.1995 153.022 48.6735 153.022ZM55.7243 156.508L56.2983 152.462H54.8843L54.5763 156.508H55.7243ZM62.3453 154.282C64.6133 154.282 66.4753 152.658 66.4753 149.494V147.296C66.4753 144.16 64.6133 142.522 62.3453 142.522C60.0773 142.522 58.2293 144.16 58.2293 147.296V149.494C58.2293 152.658 60.0773 154.282 62.3453 154.282ZM62.3453 153.022C60.8193 153.022 59.6293 151.874 59.6293 149.424V147.38C59.6293 144.93 60.8193 143.782 62.3453 143.782C63.8713 143.782 65.0613 144.93 65.0613 147.38V149.424C65.0613 151.874 63.8713 153.022 62.3453 153.022ZM72.4762 154.282C74.7442 154.282 76.6062 152.658 76.6062 149.494V147.296C76.6062 144.16 74.7442 142.522 72.4762 142.522C70.2082 142.522 68.3602 144.16 68.3602 147.296V149.494C68.3602 152.658 70.2082 154.282 72.4762 154.282ZM72.4762 153.022C70.9502 153.022 69.7602 151.874 69.7602 149.424V147.38C69.7602 144.93 70.9502 143.782 72.4762 143.782C74.0022 143.782 75.1922 144.93 75.1922 147.38V149.424C75.1922 151.874 74.0022 153.022 72.4762 153.022ZM82.6071 154.282C84.8751 154.282 86.7371 152.658 86.7371 149.494V147.296C86.7371 144.16 84.8751 142.522 82.6071 142.522C80.3391 142.522 78.4911 144.16 78.4911 147.296V149.494C78.4911 152.658 80.3391 154.282 82.6071 154.282ZM82.6071 153.022C81.0811 153.022 79.8911 151.874 79.8911 149.424V147.38C79.8911 144.93 81.0811 143.782 82.6071 143.782C84.1331 143.782 85.3231 144.93 85.3231 147.38V149.424C85.3231 151.874 84.1331 153.022 82.6071 153.022ZM94.3199 151.076H97.9459V152.182H99.3319V141.836H97.9459V150.012H94.3199V151.076ZM92.4719 147.058C94.4319 147.058 95.9579 146.246 95.9579 144.678V144.51C95.9579 142.928 94.4319 142.116 92.4719 142.116C90.4979 142.116 88.9719 142.928 88.9719 144.51V144.678C88.9719 146.246 90.4979 147.058 92.4719 147.058ZM90.3019 144.538C90.3019 143.712 91.2119 143.264 92.4719 143.264C93.7179 143.264 94.6279 143.712 94.6279 144.538V144.65C94.6279 145.462 93.7179 145.91 92.4719 145.91C91.2119 145.91 90.3019 145.462 90.3019 144.65V144.538ZM92.7939 151.37C92.8779 150.628 92.9339 149.886 92.9759 149.2C94.3479 149.13 95.7759 149.004 97.0079 148.836L96.8679 147.688C94.8099 147.94 92.2899 148.094 90.6799 148.094H88.3419L88.3979 149.27H90.5679C90.9039 149.27 91.2539 149.27 91.6319 149.256C91.5759 149.9 91.5199 150.6 91.4499 151.272L92.7939 151.37ZM91.9959 151.832H90.6099V154.828H99.8779V153.554H91.9959V151.832Z" fill="#333333"/>
</svg>
