<svg width="73" height="52" viewBox="0 0 73 52" fill="none" xmlns="http://www.w3.org/2000/svg">
<path d="M13.518 10.35H11.376V4.32H9.684V20.43H11.376V11.988H13.518V20.772H15.264V4.068H13.518V10.35ZM3.132 16.416V6.948H7.596V5.292H1.332V18.054H3.618C5.454 18.054 6.966 17.964 8.568 17.676L8.388 16.074C6.732 16.326 5.292 16.416 3.87 16.416H3.132ZM19.4084 10.908C22.1984 10.44 24.0704 9.828 25.1864 8.982L31.6844 10.908L32.2064 9.468L26.2304 7.722C26.3744 7.398 26.4644 7.038 26.4824 6.642H31.3604V5.148H26.5364V3.708H24.8084V5.148H19.8404V6.642H24.8084C24.5744 7.848 22.7924 8.82 18.9764 9.432L19.4084 10.908ZM33.4484 11.538H17.7524V12.96H24.7184V14.256H19.5884V15.642H29.7404V16.83H19.6784V20.862H31.9724V19.458H21.4784V18.198H31.5404V14.256H26.5004V12.96H33.4484V11.538ZM6.516 31.724V29.87H4.698V31.724H0.72V33.236H10.494V31.724H6.516ZM14.058 30.068H12.258V42.74H14.058V36.584H16.65V34.946H14.058V30.068ZM9.756 37.358C9.756 35.306 7.938 34.226 5.634 34.226C3.312 34.226 1.494 35.306 1.494 37.358V37.628C1.494 39.662 3.312 40.778 5.634 40.778C7.938 40.778 9.756 39.662 9.756 37.628V37.358ZM3.258 37.394C3.258 36.368 4.284 35.738 5.634 35.738C6.966 35.738 8.01 36.368 8.01 37.394V37.592C8.01 38.636 6.966 39.266 5.634 39.266C4.284 39.266 3.258 38.636 3.258 37.592V37.394ZM3.348 42.146V46.772H14.922V45.134H5.148V42.146H3.348ZM26.5004 39.968H31.5404V38.348H21.4784V32.822H31.3604V31.184H19.6784V39.968H24.7184V43.874H17.7524V45.53H33.4484V43.874H26.5004V39.968ZM40.9968 40.58C43.7688 39.392 45.6588 38.078 46.7748 36.638L53.0208 40.58L53.9568 39.068L47.6568 35.144C47.9448 34.46 48.0708 33.758 48.0708 33.02V32.822H53.0208V31.184H41.1588V32.822H46.2888V33.02C46.2888 35.18 44.4168 37.142 40.2048 39.014L40.9968 40.58ZM47.9808 40.13H46.1988V43.874H39.2328V45.53H54.9288V43.874H47.9808V40.13ZM68.8112 46.772H70.6112V30.068H68.8112V46.772ZM62.7632 31.976V30.086H60.9632V31.976H56.9312V33.47H66.7952V31.976H62.7632ZM62.7632 41.048C64.6352 40.796 66.0392 39.716 66.0392 37.916V37.646C66.0392 35.594 64.1852 34.478 61.8812 34.478C59.5412 34.478 57.7052 35.594 57.7052 37.646V37.916C57.7052 39.716 59.0912 40.796 60.9812 41.048V43.028C60.4412 43.046 59.9372 43.064 59.4872 43.064H56.4632L56.5532 44.702H59.3252C61.7732 44.702 65.0492 44.504 67.6052 44.144L67.4072 42.542C65.9492 42.722 64.2932 42.866 62.7632 42.956V41.048ZM59.4512 37.664C59.4512 36.566 60.5132 35.918 61.8812 35.918C63.2132 35.918 64.2752 36.566 64.2752 37.664V37.898C64.2752 39.014 63.2132 39.662 61.8812 39.662C60.5132 39.662 59.4512 39.014 59.4512 37.898V37.664Z" fill="black"/>
</svg>
