<svg width="165" height="50" viewBox="0 0 165 50" fill="none" xmlns="http://www.w3.org/2000/svg">
<path d="M11.728 12.952H13.328V4.616H11.728V12.952ZM9.376 12.712L10.16 11.4L5.904 8.712C6.128 8.104 6.24 7.448 6.24 6.744H9.584V5.32H1.36V6.744H4.688C4.688 8.76 3.408 10.264 0.768 11.736L1.52 13.016C3.232 12.104 4.464 11.112 5.248 9.992L9.376 12.712ZM11.728 15.336V19.624H13.328V13.88H3.344V15.336H11.728ZM27.6679 4.616H26.0679V12.712H27.6679V9.176H29.9559V7.72H27.6679V4.616ZM23.7799 12.552L24.5799 11.256L20.4839 8.648C20.6919 8.056 20.8039 7.416 20.8039 6.744H24.0039V5.32H16.0679V6.744H19.2519C19.2519 8.696 18.0359 10.168 15.4919 11.592L16.2439 12.872C17.8919 11.992 19.0759 11.032 19.8279 9.944L23.7799 12.552ZM21.3479 13.496C19.2199 13.496 17.8439 14.776 17.8439 16.552C17.8439 18.344 19.2199 19.624 21.3479 19.624H24.4839C26.6439 19.624 28.0039 18.344 28.0039 16.552C28.0039 14.776 26.6439 13.496 24.4839 13.496H21.3479ZM21.6199 18.184C20.1639 18.184 19.4279 17.496 19.4279 16.552C19.4279 15.608 20.1639 14.92 21.6199 14.92H24.2279C25.6839 14.92 26.4199 15.608 26.4199 16.552C26.4199 17.496 25.6839 18.184 24.2279 18.184H21.6199ZM43.6878 15.736V4.616H42.0878V15.736H43.6878ZM35.5118 13.304C37.7038 13.304 39.4798 12.008 39.4798 9.32V9.016C39.4798 6.296 37.7038 5.016 35.5118 5.016C33.3038 5.016 31.5278 6.296 31.5278 9.016V9.32C31.5278 12.008 33.3038 13.304 35.5118 13.304ZM35.5118 11.896C34.1678 11.896 33.1278 11.032 33.1278 9.288V9.032C33.1278 7.272 34.1678 6.424 35.5118 6.424C36.8398 6.424 37.8798 7.272 37.8798 9.032V9.288C37.8798 11.032 36.8398 11.896 35.5118 11.896ZM44.3118 19.464V18.008H35.4638V14.648H33.8638V19.464H44.3118ZM61.1815 4.616V15.736H62.7655V4.616H61.1815ZM58.7335 13.256L59.6295 12.04L55.3095 8.808C55.5815 8.04 55.7095 7.208 55.7095 6.328V5.176H54.1415V6.328C54.1415 8.696 52.9255 10.568 50.2055 12.312L51.0855 13.56C52.7015 12.52 53.8695 11.432 54.6375 10.2L58.7335 13.256ZM54.5415 14.808H52.9575V19.464H63.3895V18.008H54.5415V14.808ZM75.3614 9.96C76.7214 9.576 77.5374 8.76 77.5374 7.48C77.5374 5.656 75.8734 4.776 73.3614 4.776H71.0254C68.5294 4.776 66.8494 5.656 66.8494 7.48C66.8494 8.76 67.6814 9.592 69.0414 9.96V11.592H65.2174V12.968H79.1694V11.592H75.3614V9.96ZM68.4494 7.496C68.4494 6.584 69.4734 6.12 71.3134 6.12H73.0894C74.9294 6.12 75.9534 6.584 75.9534 7.496C75.9534 8.376 74.9294 8.872 73.0894 8.872H71.3134C69.4734 8.872 68.4494 8.392 68.4494 7.496ZM70.5614 10.184C71.6494 10.2 72.7534 10.2 73.8414 10.184V11.592H70.5614V10.184ZM70.4974 14.232C68.0974 14.232 66.7694 15.368 66.7694 16.92C66.7694 18.488 68.0974 19.624 70.4974 19.624H73.8894C76.2894 19.624 77.6174 18.488 77.6174 16.92C77.6174 15.368 76.2894 14.232 73.8894 14.232H70.4974ZM70.8174 18.232C69.1374 18.232 68.3694 17.72 68.3694 16.904C68.3694 16.12 69.1374 15.608 70.8174 15.608H73.5854C75.2654 15.608 76.0334 16.12 76.0334 16.904C76.0334 17.72 75.2654 18.232 73.5854 18.232H70.8174ZM91.7973 10.2H89.8933V4.84H88.3893V19.16H89.8933V11.656H91.7973V19.464H93.3493V4.616H91.7973V10.2ZM82.5653 15.592V7.176H86.5333V5.704H80.9653V17.048H82.9973C84.6293 17.048 85.9733 16.968 87.3973 16.712L87.2373 15.288C85.7653 15.512 84.4852 15.592 83.2213 15.592H82.5653ZM97.0331 10.696C99.5131 10.28 101.177 9.736 102.169 8.984L107.945 10.696L108.409 9.416L103.097 7.864C103.225 7.576 103.305 7.256 103.321 6.904H107.657V5.576H103.369V4.296H101.833V5.576H97.4171V6.904H101.833C101.625 7.976 100.041 8.84 96.6491 9.384L97.0331 10.696ZM109.513 11.256H95.5611V12.52H101.753V13.672H97.1931V14.904H106.217V15.96H97.2731V19.544H108.201V18.296H98.8731V17.176H107.817V13.672H103.337V12.52H109.513V11.256Z" fill="black"/>
<path d="M6.12 36.876H9.432V33H1.956V36.876H5.268V38.22H0.504V38.988H10.872V38.22H6.12V36.876ZM8.568 33.744V36.132H2.808V33.744H8.568ZM8.676 41.1V43.92H9.54V40.32H1.848V41.1H8.676ZM17.4989 37.332H20.8109V36.552H14.1869V33.768H20.6909V33H13.3349V37.332H16.6469V38.796H11.8829V39.588H22.2509V38.796H17.4989V37.332ZM13.3349 40.584V43.8H21.0989V43.008H14.1869V40.584H13.3349ZM29.2258 36.396C31.1458 36.396 32.3578 35.856 32.3578 34.596C32.3578 33.348 31.1458 32.82 29.2258 32.82H27.6658C25.7578 32.82 24.5458 33.348 24.5458 34.596C24.5458 35.856 25.7578 36.396 27.6658 36.396H29.2258ZM27.8098 35.664C26.2498 35.664 25.3978 35.328 25.3978 34.596C25.3978 33.888 26.2498 33.552 27.8098 33.552H29.0938C30.6538 33.552 31.4938 33.888 31.4938 34.596C31.4938 35.304 30.6538 35.664 29.0938 35.664H27.8098ZM33.6298 38.076V37.344H23.2618V38.076H33.6298ZM32.5978 43.86V43.128H25.4578V41.844H32.2978V39.156H24.5458V39.876H31.4338V41.124H24.6058V43.86H32.5978ZM46.9187 38.148V32.724H46.0667V38.148H46.9187ZM40.9307 37.824C42.5147 37.824 43.7987 37.044 43.7987 35.496V35.304C43.7987 33.744 42.5147 32.976 40.9307 32.976C39.3227 32.976 38.0387 33.744 38.0387 35.304V35.496C38.0387 37.044 39.3227 37.824 40.9307 37.824ZM40.9307 37.044C39.7427 37.044 38.9027 36.504 38.9027 35.472V35.316C38.9027 34.308 39.7427 33.744 40.9307 33.744C42.0947 33.744 42.9467 34.308 42.9467 35.316V35.472C42.9467 36.504 42.0947 37.044 40.9307 37.044ZM47.3867 43.86V43.104H40.6667V41.736H46.9187V38.94H39.7547V39.672H46.0667V40.992H39.8027V43.86H47.3867ZM55.0456 36.012H57.4336V38.784H58.2856V32.736H57.4336V35.256H55.0456V36.012ZM55.4296 38.676L55.8736 37.968L52.6336 35.76C52.8136 35.292 52.8976 34.8 52.8976 34.26V34.092H55.4416V33.324H49.5376V34.092H52.0576V34.26C52.0576 35.892 50.9896 37.032 49.0936 38.16L49.5136 38.844C50.7976 38.112 51.7096 37.344 52.2616 36.468L55.4296 38.676ZM53.5336 39.456C51.9016 39.456 50.9416 40.44 50.9416 41.688C50.9416 42.948 51.9016 43.908 53.5336 43.908H55.8616C57.4936 43.908 58.4536 42.948 58.4536 41.688C58.4536 40.44 57.4936 39.456 55.8616 39.456H53.5336ZM53.7016 43.14C52.4176 43.14 51.7936 42.516 51.7936 41.676C51.7936 40.872 52.4176 40.224 53.7016 40.224H55.6936C56.9776 40.224 57.5896 40.872 57.5896 41.676C57.5896 42.516 56.9776 43.14 55.6936 43.14H53.7016ZM68.8245 43.8H69.6765V32.724H68.8245V43.8ZM65.4405 34.452V34.692C65.4405 37.284 63.7125 39.9 60.9045 41.724L61.4085 42.396C64.4325 40.392 66.3045 37.656 66.3045 34.524V33.672H61.0725V34.452H65.4405ZM80.4434 32.724H79.5794V41.136H80.4434V36.456H82.2794V35.664H80.4434V32.724ZM77.2274 33.444H72.1274V34.224H76.3754C76.3754 35.988 74.6594 37.668 71.9354 38.748L72.3074 39.48C75.3434 38.268 77.2274 36.456 77.2274 34.032V33.444ZM73.5434 40.26V43.8H81.0674V43.008H74.4074V40.26H73.5434ZM94.2363 34.788C94.2363 36 93.9843 38.148 93.6363 40.008L94.4763 40.164C94.8243 38.268 95.0883 36.156 95.0883 34.596V33.66H87.1563V34.44H94.2363V34.788ZM90.8523 37.428H90.0003V42.12H85.9923V42.912H96.3603V42.12H90.8523V37.428ZM106.575 38.28L106.983 37.548L102.735 35.088C102.939 34.644 103.035 34.176 103.035 33.696V32.964H102.183V33.696C102.183 35.172 100.851 36.444 98.1152 37.524L98.4632 38.28C100.323 37.536 101.583 36.72 102.291 35.796L106.575 38.28ZM97.3712 39.648V40.44H102.135V43.92H102.987V40.44H107.739V39.648H97.3712ZM118.11 38.964V32.736H117.246V38.964H118.11ZM112.11 38.46C113.694 38.46 114.978 37.608 114.978 35.868V35.628C114.978 33.888 113.694 33.036 112.11 33.036C110.514 33.036 109.23 33.888 109.23 35.628V35.868C109.23 37.608 110.514 38.46 112.11 38.46ZM112.11 37.692C110.946 37.692 110.094 37.056 110.094 35.844V35.652C110.094 34.44 110.946 33.804 112.11 33.804C113.274 33.804 114.126 34.44 114.126 35.652V35.844C114.126 37.056 113.274 37.692 112.11 37.692ZM118.11 43.908V39.744H110.874V40.524H117.246V43.908H118.11ZM126.093 36.372C128.013 36.372 129.225 35.844 129.225 34.584C129.225 33.336 128.013 32.82 126.093 32.82H124.533C122.625 32.82 121.413 33.336 121.413 34.584C121.413 35.844 122.625 36.372 124.533 36.372H126.093ZM125.961 33.552C127.521 33.552 128.361 33.876 128.361 34.596C128.361 35.292 127.521 35.652 125.961 35.652H124.677C123.105 35.652 122.265 35.316 122.265 34.596C122.265 33.876 123.105 33.552 124.677 33.552H125.961ZM130.497 37.284H120.129V38.016H123.021V39.156H121.413V39.876H128.301V41.124H121.473V43.86H129.465V43.128H122.325V41.844H129.165V39.156H127.629V38.016H130.497V37.284ZM123.861 39.156V38.016H126.789V39.156H123.861ZM137.124 39.744H140.784V38.976H133.704V37.008H140.544V33.54H132.792V34.32H139.68V36.24H132.852V39.744H136.272V42.12H131.508V42.912H141.876V42.12H137.124V39.744Z" fill="#333333"/>
</svg>
