<svg width="27" height="24" viewBox="0 0 27 24" fill="none" xmlns="http://www.w3.org/2000/svg">
<path d="M5.236 6.438V5.01H3.822V6.438H0.896V7.614H8.148V6.438H5.236ZM8.134 9.602H10.276V11.142H8.134V12.248H10.276V15.02H11.662V5.164H10.276V8.496H8.134V9.602ZM7.602 10.778C7.602 9.21 6.272 8.37 4.55 8.37C2.8 8.37 1.47 9.21 1.47 10.778V10.988C1.47 12.57 2.8 13.424 4.55 13.424C6.272 13.424 7.602 12.57 7.602 10.988V10.778ZM2.8 10.806C2.8 10.022 3.542 9.532 4.55 9.532C5.53 9.532 6.272 10.022 6.272 10.806V10.96C6.272 11.758 5.53 12.248 4.55 12.248C3.542 12.248 2.8 11.758 2.8 10.96V10.806ZM4.466 14.488H3.08V18.156H12.208V16.882H4.466V14.488ZM23.8874 10.302C24.1254 8.944 24.2514 7.516 24.2514 6.396V5.57H15.3054V6.844H22.8654C22.8514 7.6 22.7254 8.986 22.4874 10.302H13.8074V11.534H26.0154V10.302H23.8874ZM24.5314 18.17V13.102H15.3054V18.17H24.5314ZM23.1314 14.306V16.938H16.7054V14.306H23.1314Z" fill="#333333"/>
</svg>
