<svg width="168" height="163" viewBox="0 0 168 163" fill="none" xmlns="http://www.w3.org/2000/svg">
<path d="M12 119.8H12.852V108.724H12V119.8ZM4.212 115.6C5.472 114.868 6.396 114.088 6.96 113.2L10.044 115.48L10.512 114.772L7.32 112.444C7.488 112.012 7.572 111.532 7.572 111.028H10.128V110.26H7.572V108.736H6.72V110.26H4.164V111.028H6.708C6.708 112.612 5.628 113.788 3.792 114.892L4.212 115.6ZM7.548 115.252H6.684V117.28C6.288 117.292 5.928 117.304 5.616 117.304H3.6L3.648 118.096H5.568C7.2 118.096 9.372 117.94 11.04 117.712L10.944 116.944C9.888 117.088 8.664 117.184 7.548 117.244V115.252ZM23.5469 113.056H21.8309V108.904H21.0029V119.596H21.8309V113.848H23.5469V119.8H24.3869V108.724H23.5469V113.056ZM16.2029 117.172V110.404H19.4189V109.612H15.3389V117.952H16.6589C17.9909 117.952 19.0709 117.88 20.1749 117.688L20.0789 116.92C18.9029 117.1 17.8589 117.172 16.7909 117.172H16.2029ZM32.9718 112.852C31.9158 112.852 30.8958 113.332 30.3558 114.22V113.668C30.3318 111.208 31.3998 110.116 32.8158 110.116C34.0998 110.116 34.7958 110.728 35.3238 111.808L36.0678 111.424C35.4318 110.092 34.3638 109.336 32.7918 109.336C31.1118 109.336 29.5278 110.524 29.5278 113.632V116.044C29.5278 118.132 30.9798 119.344 32.8758 119.344C34.7358 119.344 36.2358 118.12 36.2358 116.092C36.2358 114.064 34.7358 112.852 32.9718 112.852ZM32.8758 118.564C31.5198 118.564 30.3918 117.688 30.3918 116.092C30.3918 114.496 31.5198 113.632 32.8758 113.632C34.2198 113.632 35.3718 114.496 35.3718 116.092C35.3718 117.688 34.2198 118.564 32.8758 118.564ZM46.1407 113.056H44.4247V108.904H43.5847V119.596H44.4247V113.848H46.1407V119.8H46.9807V108.724H46.1407V113.056ZM41.2327 110.452V110.692C41.2327 113.284 39.8767 115.876 37.7527 117.772L38.3647 118.396C40.6087 116.32 42.0847 113.656 42.0847 110.524V109.672H37.9567V110.452H41.2327ZM53.9916 114.556H57.3516V115.024H58.2156V108.724H57.3516V113.908H53.9916V114.556ZM52.4916 112.06C54.1116 112.06 55.3836 111.508 55.3836 110.524V110.44C55.3836 109.456 54.1116 108.916 52.4916 108.916C50.8716 108.916 49.5996 109.456 49.5996 110.44V110.524C49.5996 111.508 50.8716 112.06 52.4916 112.06ZM50.4276 110.464C50.4276 109.96 51.2796 109.612 52.4916 109.612C53.7036 109.612 54.5676 109.96 54.5676 110.464V110.5C54.5676 111.016 53.7036 111.352 52.4916 111.352C51.2796 111.352 50.4276 111.016 50.4276 110.5V110.464ZM51.9396 113.512C51.9036 114.028 51.8556 114.604 51.7956 115.096L52.6356 115.168C52.6956 114.616 52.7436 114.028 52.7916 113.476C54.0156 113.416 55.3116 113.296 56.3916 113.152L56.3076 112.492C54.5676 112.708 52.3476 112.828 50.9796 112.828H48.9636L48.9996 113.524H50.9316C51.2436 113.524 51.5916 113.524 51.9396 113.512ZM51.8196 118.072H58.2156V115.624H50.9196V116.332H57.3636V117.364H50.9796V119.86H58.6836V119.14H51.8196V118.072ZM63.7044 120.844L67.9044 108.316H67.0044L62.8044 120.844H63.7044ZM77.0625 119.8H77.9145V108.724H77.0625V119.8ZM69.2745 115.6C70.5345 114.868 71.4585 114.088 72.0225 113.2L75.1065 115.48L75.5745 114.772L72.3825 112.444C72.5505 112.012 72.6345 111.532 72.6345 111.028H75.1905V110.26H72.6345V108.736H71.7825V110.26H69.2265V111.028H71.7705C71.7705 112.612 70.6905 113.788 68.8545 114.892L69.2745 115.6ZM72.6105 115.252H71.7465V117.28C71.3505 117.292 70.9905 117.304 70.6785 117.304H68.6625L68.7105 118.096H70.6305C72.2625 118.096 74.4345 117.94 76.1025 117.712L76.0065 116.944C74.9505 117.088 73.7265 117.184 72.6105 117.244V115.252ZM88.1894 110.788C88.1894 112 87.9374 114.148 87.5894 116.008L88.4294 116.164C88.7774 114.268 89.0414 112.156 89.0414 110.596V109.66H81.1094V110.44H88.1894V110.788ZM84.8054 113.428H83.9534V118.12H79.9454V118.912H90.3134V118.12H84.8054V113.428ZM102.75 113.464V117.136H103.614V108.724H102.75V110.416H100.086C99.5943 109.516 98.6583 109.084 97.6023 109.084C96.0063 109.084 94.7223 110.032 94.7223 112V112.252C94.7223 114.208 96.0063 115.144 97.6023 115.144C98.7903 115.144 99.8223 114.592 100.242 113.464H102.75ZM95.5863 112C95.5863 110.584 96.4383 109.852 97.6023 109.852C98.7423 109.852 99.5943 110.584 99.5943 112V112.24C99.5943 113.656 98.7423 114.376 97.6023 114.376C96.4383 114.376 95.5863 113.656 95.5863 112.24V112ZM102.75 112.744H100.422C100.434 112.588 100.446 112.42 100.446 112.252V112C100.446 111.7 100.41 111.412 100.362 111.16H102.75V112.744ZM97.3503 116.26H96.4863V119.8H104.13V119.008H97.3503V116.26ZM115.259 119.164V118.372H110.087L113.039 115.432C114.251 114.22 114.995 113.212 114.995 111.892C114.995 110.332 113.807 109.336 112.007 109.336C110.243 109.336 109.235 110.632 108.851 112.012L109.679 112.216C110.027 111.088 110.675 110.128 112.007 110.128C113.339 110.128 114.143 110.812 114.143 111.904C114.143 112.912 113.591 113.74 112.403 114.928L108.815 118.492V119.164H115.259ZM117.525 119.344C117.897 119.344 118.197 119.044 118.197 118.672C118.197 118.3 117.897 118.012 117.525 118.012C117.153 118.012 116.865 118.3 116.865 118.672C116.865 119.044 117.153 119.344 117.525 119.344ZM123.049 113.044C122.197 113.044 121.417 113.38 120.925 114.028L121.345 110.308H125.833V109.516H120.601L119.965 115.384H120.793C121.141 114.46 121.861 113.848 122.941 113.848C124.369 113.848 125.329 114.76 125.329 116.2C125.329 117.628 124.309 118.552 122.857 118.552C121.825 118.552 120.853 118.108 120.433 117.136L119.689 117.544C120.241 118.744 121.525 119.344 122.881 119.344C124.849 119.344 126.181 118.036 126.181 116.2C126.181 114.352 124.921 113.044 123.049 113.044ZM129.755 114.556C130.883 114.556 131.807 113.776 131.807 112.384V111.496C131.807 110.128 130.883 109.336 129.755 109.336C128.615 109.336 127.703 110.128 127.703 111.496V112.384C127.703 113.776 128.615 114.556 129.755 114.556ZM130.019 119.164L136.655 109.516H135.659L129.035 119.164H130.019ZM129.755 113.812C129.047 113.812 128.507 113.308 128.507 112.348V111.532C128.507 110.584 129.047 110.08 129.755 110.08C130.463 110.08 131.015 110.584 131.015 111.532V112.348C131.015 113.32 130.463 113.812 129.755 113.812ZM135.839 119.344C136.967 119.344 137.891 118.564 137.891 117.172V116.284C137.891 114.916 136.967 114.124 135.839 114.124C134.699 114.124 133.787 114.916 133.787 116.284V117.172C133.787 118.564 134.699 119.344 135.839 119.344ZM135.839 118.6C135.131 118.6 134.591 118.108 134.591 117.136V116.32C134.591 115.372 135.131 114.868 135.839 114.868C136.547 114.868 137.099 115.372 137.099 116.32V117.136C137.099 118.108 136.547 118.6 135.839 118.6Z" fill="#333333"/>
<path d="M11.384 90.416H15.864V82.608H5.32V90.416H9.8V93.888H3.608V95.36H17.56V93.888H11.384V90.416ZM14.264 84.064V88.976H6.92V84.064H14.264ZM31.4999 89.632V81.616H29.8999V89.632H31.4999ZM23.3239 89.136C25.5319 89.136 27.2919 88 27.2919 85.664V85.424C27.2919 83.072 25.5319 81.936 23.3239 81.936C21.0999 81.936 19.3399 83.072 19.3399 85.424V85.664C19.3399 88 21.0999 89.136 23.3239 89.136ZM23.3239 87.744C21.9639 87.744 20.9399 87.04 20.9399 85.632V85.44C20.9399 84.032 21.9639 83.344 23.3239 83.344C24.6839 83.344 25.7079 84.032 25.7079 85.44V85.632C25.7079 87.04 24.6839 87.744 23.3239 87.744ZM31.4999 96.464V90.576H21.6759V96.464H31.4999ZM23.2759 91.984H29.8999V95.024H23.2759V91.984ZM41.7278 88.336H46.3518V87.024H37.4078V85.744H46.0478V84.448H37.4078V83.248H46.0478V81.936H35.8078V88.336H40.1438V89.488H33.9518V90.784H47.9038V89.488H41.7278V88.336ZM39.1838 91.84C36.7998 91.84 35.5038 92.816 35.5038 94.24C35.5038 95.68 36.7998 96.624 39.1838 96.624H42.6718C45.0558 96.624 46.3518 95.68 46.3518 94.24C46.3518 92.816 45.0558 91.84 42.6718 91.84H39.1838ZM39.5518 95.312C37.8558 95.312 37.1038 94.928 37.1038 94.224C37.1038 93.536 37.8558 93.136 39.5518 93.136H42.3198C44.0158 93.136 44.7678 93.536 44.7678 94.224C44.7678 94.928 44.0158 95.312 42.3198 95.312H39.5518ZM61.0116 81.616H59.4116V89.712H61.0116V86.176H63.2996V84.72H61.0116V81.616ZM57.1236 89.552L57.9236 88.256L53.8276 85.648C54.0356 85.056 54.1476 84.416 54.1476 83.744H57.3476V82.32H49.4116V83.744H52.5956C52.5956 85.696 51.3796 87.168 48.8356 88.592L49.5876 89.872C51.2356 88.992 52.4196 88.032 53.1716 86.944L57.1236 89.552ZM54.6916 90.496C52.5636 90.496 51.1876 91.776 51.1876 93.552C51.1876 95.344 52.5636 96.624 54.6916 96.624H57.8276C59.9876 96.624 61.3476 95.344 61.3476 93.552C61.3476 91.776 59.9876 90.496 57.8276 90.496H54.6916ZM54.9636 95.184C53.5076 95.184 52.7716 94.496 52.7716 93.552C52.7716 92.608 53.5076 91.92 54.9636 91.92H57.5716C59.0276 91.92 59.7636 92.608 59.7636 93.552C59.7636 94.496 59.0276 95.184 57.5716 95.184H54.9636Z" fill="#5725E0"/>
<path d="M15.62 5.52H13.62V14.58H15.62V10.84H18.5V9H15.62V5.52ZM10.22 6.4H1.44V8.18H8.22C7.96 10.22 5.36 12.08 1.04 13.22L1.72 14.96C6.98 13.56 10.22 11.22 10.22 7.34V6.4ZM15.62 20.72V19.08H5.72V17.4H15.62V15.74H3.74V24.18H16.2V22.48H5.72V20.72H15.62ZM35.6248 24.08V5.52H33.6248V24.08H35.6248ZM25.3648 21.66C28.0448 21.66 30.2648 19.9 30.2648 15.44V12.62C30.2648 8.16 28.0448 6.4 25.3648 6.4C22.6448 6.4 20.4248 8.16 20.4248 12.62V15.44C20.4248 19.9 22.6448 21.66 25.3648 21.66ZM25.3648 19.84C23.7248 19.84 22.4248 18.64 22.4248 15.42V12.64C22.4248 9.4 23.7248 8.22 25.3648 8.22C27.0048 8.22 28.2848 9.4 28.2848 12.64V15.42C28.2848 18.64 27.0048 19.84 25.3648 19.84ZM53.312 16.52H58.912V6.76H45.732V16.52H51.332V20.86H43.592V22.7H61.032V20.86H53.312V16.52ZM56.912 8.58V14.72H47.732V8.58H56.912ZM72.7169 17C76.0769 17 78.2169 14.66 78.2169 11.72C78.2169 8.8 76.0769 6.48 72.7169 6.48H69.8569C66.4969 6.48 64.3369 8.8 64.3369 11.72C64.3369 14.66 66.4969 17 69.8569 17H72.7169ZM70.1969 15.2C67.7969 15.2 66.3369 13.74 66.3369 11.74C66.3369 9.72 67.7969 8.28 70.1969 8.28H72.3569C74.7769 8.28 76.2369 9.72 76.2369 11.74C76.2369 13.74 74.7769 15.2 72.3569 15.2H70.1969ZM79.9969 22.68V20.86H62.5569V22.68H79.9969ZM94.9417 9.14C94.9417 11.06 94.5617 14.54 94.0017 17.58L95.9617 17.9C96.5417 14.74 96.9217 11.26 96.9217 8.58V6.96H83.3617V8.78H94.9417V9.14ZM89.8817 13.42H87.9017V20.86H81.5217V22.7H98.9617V20.86H89.8817V13.42ZM7.24 37.16V35.3H5.24V37.16H0.82V38.78H11.66V37.16H7.24ZM15.62 39.98V35.52H13.62V46.18H15.62V41.8H18.5V39.98H15.62ZM10.84 42.76C10.84 40.74 8.84 39.7 6.26 39.7C3.7 39.7 1.66 40.74 1.66 42.76V43.02C1.66 45.04 3.7 46.08 6.26 46.08C8.84 46.08 10.84 45.04 10.84 43.02V42.76ZM3.62 42.82C3.62 41.9 4.78 41.32 6.26 41.32C7.74 41.32 8.9 41.9 8.9 42.82V42.98C8.9 43.9 7.74 44.46 6.26 44.46C4.78 44.46 3.62 43.9 3.62 42.98V42.82ZM15.62 54.08V47.34H3.72V54.08H15.62ZM13.62 49.04V52.34H5.72V49.04H13.62ZM34.2648 54.08H36.1048V35.52H34.2648V54.08ZM28.5848 42.88C28.7648 41.44 28.8648 40 28.8648 38.62V36.98H24.9848V38.8H27.0648V39.02C27.0648 42.52 26.1848 47.28 24.4448 51.6L26.1448 52.3C27.1448 49.84 27.8648 47.26 28.3248 44.7H30.5848V53.7H32.3848V35.8H30.5848V42.88H28.5848ZM22.4848 38.8V39.02C22.4848 42.42 21.6248 46.52 19.9448 50.84L21.6448 51.54C23.3848 47.08 24.2848 42.9 24.2848 38.62V36.98H20.4248V38.8H22.4848ZM57.672 41.92H54.832V43.74H57.672V54.08H59.632V35.52H57.672V41.92ZM53.512 36.6H51.732V39.12C51.732 42.46 50.992 45.66 49.752 47.88L47.952 43.98C48.292 42.36 48.472 40.72 48.472 39.12V36.6H46.692V39.12C46.692 42.92 45.512 47.12 43.512 50.4L45.032 51.4C45.952 49.92 46.692 48.32 47.232 46.64L49.672 51.4C50.832 50 51.692 48.42 52.312 46.7L54.612 51.4L56.212 50.5L53.072 43.92C53.372 42.38 53.512 40.76 53.512 39.12V36.6ZM72.7369 46.42C76.0769 46.42 78.2169 44.28 78.2169 41.42C78.2169 38.62 76.0769 36.48 72.7369 36.48H69.8369C66.4969 36.48 64.3569 38.62 64.3569 41.42C64.3569 44.28 66.4969 46.42 69.8369 46.42H72.7369ZM72.3769 38.26C74.7969 38.26 76.2369 39.58 76.2369 41.44C76.2369 43.32 74.7969 44.64 72.3769 44.64H70.1769C67.7769 44.64 66.3569 43.32 66.3569 41.44C66.3569 39.58 67.7769 38.26 70.1769 38.26H72.3769ZM75.5569 47.48H73.6169V50.86H68.9769V47.48H67.0169V50.86H62.5569V52.68H79.9969V50.86H75.5569V47.48Z" fill="black"/>
<rect y="133" width="70" height="30" rx="4" fill="#5725E0"/>
<path d="M21.6142 146.9V142.712H20.4142V153.848H21.6142V147.992H23.3422V146.9H21.6142ZM17.1742 144.68V144.812C17.1742 147.164 15.6742 149.72 12.8542 151.568L13.5982 152.516C16.5982 150.464 18.3742 147.728 18.3742 144.572V143.588H13.1062V144.68H17.1742ZM32.4171 148.496H33.6171V142.712H32.4171V148.496ZM30.4611 145.508C30.4611 143.78 29.1411 142.952 27.4851 142.952C25.8171 142.952 24.4971 143.78 24.4971 145.508V145.688C24.4971 147.404 25.8171 148.244 27.4851 148.244C29.1411 148.244 30.4611 147.404 30.4611 145.688V145.508ZM25.6971 145.52C25.6971 144.512 26.4651 144.008 27.4851 144.008C28.5051 144.008 29.2731 144.512 29.2731 145.52V145.676C29.2731 146.672 28.5051 147.188 27.4851 147.188C26.4651 147.188 25.6971 146.672 25.6971 145.676V145.52ZM27.4491 150.368V149.084H26.2491V153.848H33.6171V149.084H32.4171V150.368H27.4491ZM27.4491 151.424H32.4171V152.78H27.4491V151.424ZM44.372 146.9V142.712H43.172V153.848H44.372V147.992H46.1V146.9H44.372ZM38.132 142.724V144.356H35.48V145.424H41.996V144.356H39.344V142.724H38.132ZM38.756 146.42C37.208 146.42 35.996 147.44 35.996 149.048V149.696C35.996 151.304 37.208 152.336 38.756 152.336C40.292 152.336 41.492 151.304 41.492 149.696V149.048C41.492 147.44 40.292 146.42 38.756 146.42ZM40.292 149.648C40.292 150.656 39.62 151.268 38.756 151.268C37.88 151.268 37.196 150.656 37.196 149.648V149.096C37.196 148.1 37.88 147.5 38.756 147.5C39.62 147.5 40.292 148.1 40.292 149.096V149.648ZM55.1869 153.848H56.3749V142.712H55.1869V153.848ZM51.7549 144.68V144.812C51.7549 147.164 50.2189 149.72 47.3389 151.568L48.0589 152.516C51.1549 150.476 52.9549 147.728 52.9549 144.572V143.588H47.5789V144.68H51.7549Z" fill="white"/>
</svg>
