<svg width="36" height="28" viewBox="0 0 36 28" fill="none" xmlns="http://www.w3.org/2000/svg">
<path d="M9.204 9.012H7.656L8.16 6.444H6.708L6.204 9.012H4.332L4.836 6.444H3.408L2.892 9.012H1.044V10.332H2.628L2.232 12.348H0.492V13.668H1.968L1.452 16.236H2.904L3.408 13.668H5.28L4.776 16.236H6.216L6.72 13.668H8.664V12.348H6.984L7.392 10.332H9.204V9.012ZM3.672 12.348L4.068 10.332H5.94L5.544 12.348H3.672ZM18.2951 8.124H16.3271V9.432H18.2951V11.976H19.8311V5.7H18.2951V8.124ZM16.3991 11.904L17.1551 10.656L14.1911 8.844C14.3231 8.424 14.4071 7.992 14.4191 7.524H16.7351V6.168H10.6271V7.524H12.9311C12.8711 8.832 12.0791 9.84 10.1831 10.86L10.9151 12.072C12.0911 11.472 12.9551 10.812 13.5311 10.056L16.3991 11.904ZM18.2951 13.968V17.016H19.8311V12.588H12.0911V13.968H18.2951ZM30.37 9.96C30.538 8.868 30.622 7.704 30.622 6.756V6.012H22.75V7.416H29.086C29.062 8.028 28.978 9.012 28.822 9.96H21.49V11.316H32.05V9.96H30.37ZM30.826 16.908V12.456H22.726V16.908H30.826ZM29.29 13.776V15.564H24.25V13.776H29.29Z" fill="black"/>
<rect y="26" width="36" height="2" fill="black"/>
</svg>
