<svg width="91" height="16" viewBox="0 0 91 16" fill="none" xmlns="http://www.w3.org/2000/svg">
<path d="M7.756 9.10222V1.29022H5.88L0.672 9.24222V10.3902H6.37V12.8402H7.756V10.3902H9.506V9.10222H7.756ZM6.37 2.88622V9.10222H2.352L6.37 2.88622ZM12.0095 15.0662L12.5835 11.0202H11.1695L10.8615 15.0662H12.0095ZM18.6305 12.8402C21.0525 12.8402 22.7605 11.5802 22.7605 9.52222C22.7605 8.33222 21.9765 7.28222 20.5905 6.75022C21.8645 6.23222 22.4385 5.28022 22.4385 4.17422C22.4385 2.21422 20.8425 1.08022 18.6305 1.08022C16.4185 1.08022 14.8365 2.21422 14.8365 4.17422C14.8365 5.28022 15.4105 6.23222 16.6845 6.75022C15.2845 7.28222 14.5145 8.33222 14.5145 9.52222C14.5145 11.5802 16.2365 12.8402 18.6305 12.8402ZM18.6305 6.17622C17.1185 6.17622 16.2225 5.39222 16.2225 4.25822C16.2225 3.12422 17.1185 2.34022 18.6305 2.34022C20.1565 2.34022 21.0525 3.12422 21.0525 4.25822C21.0525 5.39222 20.1565 6.17622 18.6305 6.17622ZM18.6305 11.5802C16.9225 11.5802 15.9005 10.7262 15.9005 9.48022C15.9005 8.26222 16.9645 7.38022 18.6305 7.38022C20.3105 7.38022 21.3605 8.26222 21.3605 9.48022C21.3605 10.7262 20.3525 11.5802 18.6305 11.5802ZM28.7614 12.8402C31.0294 12.8402 32.8914 11.2162 32.8914 8.05222V5.85422C32.8914 2.71822 31.0294 1.08022 28.7614 1.08022C26.4934 1.08022 24.6454 2.71822 24.6454 5.85422V8.05222C24.6454 11.2162 26.4934 12.8402 28.7614 12.8402ZM28.7614 11.5802C27.2354 11.5802 26.0454 10.4322 26.0454 7.98222V5.93822C26.0454 3.48822 27.2354 2.34022 28.7614 2.34022C30.2874 2.34022 31.4774 3.48822 31.4774 5.93822V7.98222C31.4774 10.4322 30.2874 11.5802 28.7614 11.5802ZM38.8922 12.8402C41.1602 12.8402 43.0222 11.2162 43.0222 8.05222V5.85422C43.0222 2.71822 41.1602 1.08022 38.8922 1.08022C36.6242 1.08022 34.7762 2.71822 34.7762 5.85422V8.05222C34.7762 11.2162 36.6242 12.8402 38.8922 12.8402ZM38.8922 11.5802C37.3662 11.5802 36.1762 10.4322 36.1762 7.98222V5.93822C36.1762 3.48822 37.3662 2.34022 38.8922 2.34022C40.4182 2.34022 41.6082 3.48822 41.6082 5.93822V7.98222C41.6082 10.4322 40.4182 11.5802 38.8922 11.5802ZM45.9431 15.0662L46.5171 11.0202H45.1031L44.7951 15.0662H45.9431ZM52.5641 12.8402C54.8321 12.8402 56.6941 11.2162 56.6941 8.05222V5.85422C56.6941 2.71822 54.8321 1.08022 52.5641 1.08022C50.2961 1.08022 48.4481 2.71822 48.4481 5.85422V8.05222C48.4481 11.2162 50.2961 12.8402 52.5641 12.8402ZM52.5641 11.5802C51.0381 11.5802 49.8481 10.4322 49.8481 7.98222V5.93822C49.8481 3.48822 51.0381 2.34022 52.5641 2.34022C54.0901 2.34022 55.2801 3.48822 55.2801 5.93822V7.98222C55.2801 10.4322 54.0901 11.5802 52.5641 11.5802ZM62.695 12.8402C64.963 12.8402 66.825 11.2162 66.825 8.05222V5.85422C66.825 2.71822 64.963 1.08022 62.695 1.08022C60.427 1.08022 58.579 2.71822 58.579 5.85422V8.05222C58.579 11.2162 60.427 12.8402 62.695 12.8402ZM62.695 11.5802C61.169 11.5802 59.979 10.4322 59.979 7.98222V5.93822C59.979 3.48822 61.169 2.34022 62.695 2.34022C64.221 2.34022 65.411 3.48822 65.411 5.93822V7.98222C65.411 10.4322 64.221 11.5802 62.695 11.5802ZM72.8258 12.8402C75.0938 12.8402 76.9558 11.2162 76.9558 8.05222V5.85422C76.9558 2.71822 75.0938 1.08022 72.8258 1.08022C70.5578 1.08022 68.7098 2.71822 68.7098 5.85422V8.05222C68.7098 11.2162 70.5578 12.8402 72.8258 12.8402ZM72.8258 11.5802C71.2998 11.5802 70.1098 10.4322 70.1098 7.98222V5.93822C70.1098 3.48822 71.2998 2.34022 72.8258 2.34022C74.3518 2.34022 75.5418 3.48822 75.5418 5.93822V7.98222C75.5418 10.4322 74.3518 11.5802 72.8258 11.5802ZM84.5387 9.63422H88.1647V10.7402H89.5507V0.394224H88.1647V8.57022H84.5387V9.63422ZM82.6907 5.61622C84.6507 5.61622 86.1767 4.80422 86.1767 3.23622V3.06822C86.1767 1.48622 84.6507 0.674224 82.6907 0.674224C80.7167 0.674224 79.1907 1.48622 79.1907 3.06822V3.23622C79.1907 4.80422 80.7167 5.61622 82.6907 5.61622ZM80.5207 3.09622C80.5207 2.27022 81.4307 1.82222 82.6907 1.82222C83.9367 1.82222 84.8467 2.27022 84.8467 3.09622V3.20822C84.8467 4.02022 83.9367 4.46822 82.6907 4.46822C81.4307 4.46822 80.5207 4.02022 80.5207 3.20822V3.09622ZM83.0127 9.92822C83.0967 9.18622 83.1527 8.44422 83.1947 7.75822C84.5667 7.68822 85.9947 7.56222 87.2267 7.39422L87.0867 6.24622C85.0287 6.49822 82.5087 6.65222 80.8987 6.65222H78.5607L78.6167 7.82822H80.7867C81.1227 7.82822 81.4727 7.82822 81.8507 7.81422C81.7947 8.45822 81.7387 9.15822 81.6687 9.83022L83.0127 9.92822ZM82.2147 10.3902H80.8287V13.3862H90.0967V12.1122H82.2147V10.3902Z" fill="black"/>
</svg>
