<svg width="83" height="53" viewBox="0 0 83 53" fill="none" xmlns="http://www.w3.org/2000/svg">
<path d="M0.954 16.5111C1.62 18.4911 3.294 20.1471 6.246 20.1471C9.288 20.1471 11.394 18.4731 11.394 15.9711C11.394 14.1351 10.224 12.8391 8.658 12.3531C9.99 11.8491 11.034 10.7331 11.034 8.95115C11.034 6.50315 9 5.02715 6.21 5.02715C3.546 5.02715 2.034 6.62915 1.368 8.39315L2.988 9.00515C3.474 7.79915 4.374 6.64715 6.21 6.64715C8.064 6.64715 9.27 7.54715 9.27 9.04115C9.27 10.5171 8.136 11.5791 5.976 11.5791H4.14V13.1451H5.976C8.406 13.1451 9.612 14.3691 9.612 15.8991C9.612 17.4291 8.352 18.5271 6.246 18.5271C4.122 18.5271 3.078 17.3031 2.556 15.9351L0.954 16.5111ZM19.1195 20.1471C22.0355 20.1471 24.4295 18.0591 24.4295 13.9911V11.1651C24.4295 7.13315 22.0355 5.02715 19.1195 5.02715C16.2035 5.02715 13.8275 7.13315 13.8275 11.1651V13.9911C13.8275 18.0591 16.2035 20.1471 19.1195 20.1471ZM19.1195 18.5271C17.1575 18.5271 15.6275 17.0511 15.6275 13.9011V11.2731C15.6275 8.12315 17.1575 6.64715 19.1195 6.64715C21.0815 6.64715 22.6115 8.12315 22.6115 11.2731V13.9011C22.6115 17.0511 21.0815 18.5271 19.1195 18.5271ZM40.6409 16.6551V4.14515H38.8589V6.25115H34.7909V7.67315H38.8589V9.49115H34.7909V10.9131H38.8589V16.6551H40.6409ZM36.0149 11.6331C34.0709 11.9211 32.0369 12.0831 30.3629 12.0831H29.2109V5.02715H27.4109V13.7211H30.0749C32.1989 13.7211 34.3589 13.5411 36.2129 13.2171L36.0149 11.6331ZM31.3889 15.6111H29.5889V20.8491H41.3429V19.2111H31.3889V15.6111ZM56.5594 5.58515V3.87515H54.7774V5.58515H49.0894V7.07915H62.1754V5.58515H56.5594ZM53.7154 8.23115C51.3574 8.23115 49.8814 9.41915 49.8814 11.1471C49.8814 12.8211 51.3574 14.0091 53.7154 14.0091H57.5494C59.9074 14.0091 61.3654 12.8211 61.3654 11.1471C61.3654 9.41915 59.9074 8.23115 57.5494 8.23115H53.7154ZM59.5834 11.1291C59.5834 11.9391 58.7914 12.5151 57.1894 12.5151H54.0754C52.4554 12.5151 51.6814 11.9391 51.6814 11.1291C51.6814 10.3011 52.4554 9.72515 54.0754 9.72515H57.1894C58.7914 9.72515 59.5834 10.3011 59.5834 11.1291ZM47.7934 15.5931V17.1591H54.7594V21.0291H56.5414V17.1591H63.4894V15.5931H47.7934ZM13.518 36.4271H11.376V30.3971H9.684V46.5071H11.376V38.0651H13.518V46.8491H15.264V30.1451H13.518V36.4271ZM3.132 42.4931V31.3691H1.332V44.1311H3.69C5.418 44.1311 6.948 44.0231 8.568 43.7351L8.388 42.1511C6.714 42.4031 5.238 42.4931 3.942 42.4931H3.132ZM35.5385 36.4271V30.1451H33.7385V46.8491H35.5385V38.0651H38.1125V36.4271H35.5385ZM27.7985 33.0971H31.4165V31.4591H22.4885V33.0971H26.0525V33.8171C26.0525 37.6691 24.5585 40.4591 21.8405 43.3931L23.1185 44.5811C24.7025 42.8891 25.8905 41.1971 26.6645 39.3791L30.7325 44.4011L32.0825 43.2311L27.3485 37.4171C27.6545 36.2651 27.7985 35.0771 27.7985 33.8171V33.0971ZM52.6068 30.1451H50.8068V42.6551H52.6068V35.9591H55.1988V34.3391H52.6068V30.1451ZM48.1248 39.8651L49.1508 38.5151L44.4708 34.8611C44.7768 33.9971 44.9208 33.0611 44.9208 32.0711V30.7751H43.1748V32.0711C43.1748 34.7351 41.8248 36.8591 38.8908 38.8211L39.8988 40.2071C41.6268 39.0551 42.9048 37.8131 43.7508 36.4451L48.1248 39.8651ZM41.8968 41.6111V46.8491H53.4708V45.2111H43.6968V41.6111H41.8968ZM65.4452 37.2191C68.2892 37.2191 70.1612 35.9591 70.1612 33.7631C70.1612 31.5851 68.2892 30.3251 65.4452 30.3251H62.8712C60.0272 30.3251 58.1372 31.5851 58.1372 33.7631C58.1372 35.9591 60.0272 37.2191 62.8712 37.2191H65.4452ZM63.1772 35.6531C61.1072 35.6531 59.9372 34.9331 59.9372 33.7811C59.9372 32.5931 61.1072 31.8911 63.1772 31.8911H65.1392C67.2092 31.8911 68.3792 32.5931 68.3792 33.7811C68.3792 34.9331 67.2092 35.6531 65.1392 35.6531H63.1772ZM71.9972 40.5671V38.9291H56.3012V40.5671H71.9972ZM70.3412 46.8491V45.1751H60.1892V42.0071H58.3892V46.8491H70.3412ZM74.7555 34.5191C75.2775 33.1511 76.0695 32.2331 77.7615 32.2331C79.3095 32.2331 80.4795 33.1511 80.4795 34.5731C80.4795 35.8871 79.7775 36.6071 78.3735 37.3631C76.7895 38.1731 76.2855 38.8571 76.2855 40.3331L76.3035 41.3591H78.0135V40.4771C78.0315 39.6851 78.3375 39.2711 79.4355 38.6771C81.1455 37.7771 82.2975 36.6431 82.2975 34.5731C82.2975 32.0891 80.1015 30.5771 77.7615 30.5771C75.2595 30.5771 73.7475 32.0351 73.0995 33.9431L74.7555 34.5191ZM77.1675 46.1471C77.8515 46.1471 78.4095 45.6071 78.4095 44.9231C78.4095 44.2391 77.8515 43.6811 77.1675 43.6811C76.4835 43.6811 75.9435 44.2391 75.9435 44.9231C75.9435 45.6071 76.4835 46.1471 77.1675 46.1471Z" fill="black"/>
</svg>
