<svg width="33" height="22" viewBox="0 0 33 22" fill="none" xmlns="http://www.w3.org/2000/svg">
<path d="M9.048 9.156H7.404L7.944 6.48H6.804L6.276 9.156H4.164L4.692 6.48H3.552L3.024 9.156H1.116V10.2H2.808L2.364 12.48H0.576V13.524H2.148L1.62 16.2H2.76L3.288 13.524H5.4L4.872 16.2H6L6.54 13.524H8.496V12.48H6.744L7.2 10.2H9.048V9.156ZM3.504 12.48L3.948 10.2H6.06L5.616 12.48H3.504ZM18.6214 9.9H17.1934V5.88H16.0654V16.62H17.1934V10.992H18.6214V16.848H19.7854V5.712H18.6214V9.9ZM11.6974 13.944V7.632H14.6734V6.528H10.4974V15.036H12.0214C13.2454 15.036 14.2534 14.976 15.3214 14.784L15.2014 13.716C14.0974 13.884 13.1374 13.944 12.1894 13.944H11.6974ZM22.5483 10.272C24.4083 9.96 25.6563 9.552 26.4003 8.988L30.7323 10.272L31.0803 9.312L27.0963 8.148C27.1923 7.932 27.2523 7.692 27.2643 7.428H30.5163V6.432H27.3003V5.472H26.1483V6.432H22.8363V7.428H26.1483C25.9923 8.232 24.8043 8.88 22.2603 9.288L22.5483 10.272ZM31.9083 10.692H21.4443V11.64H26.0883V12.504H22.6683V13.428H29.4363V14.22H22.7283V16.908H30.9243V15.972H23.9283V15.132H30.6363V12.504H27.2763V11.64H31.9083V10.692Z" fill="#666666"/>
</svg>
