<svg width="132" height="41" viewBox="0 0 132 41" fill="none" xmlns="http://www.w3.org/2000/svg">
<path d="M5.792 3.20323V1.55523H4.176V3.20323H0.64V4.54723H9.328V3.20323H5.792ZM12.496 1.73123H10.896V12.9952H12.496V7.52323H14.8V6.06723H12.496V1.73123ZM8.672 8.21123C8.672 6.38723 7.056 5.42723 5.008 5.42723C2.944 5.42723 1.328 6.38723 1.328 8.21123V8.45123C1.328 10.2592 2.944 11.2512 5.008 11.2512C7.056 11.2512 8.672 10.2592 8.672 8.45123V8.21123ZM2.896 8.24323C2.896 7.33123 3.808 6.77123 5.008 6.77123C6.192 6.77123 7.12 7.33123 7.12 8.24323V8.41923C7.12 9.34723 6.192 9.90723 5.008 9.90723C3.808 9.90723 2.896 9.34723 2.896 8.41923V8.24323ZM2.976 12.4672V16.5792H13.264V15.1232H4.576V12.4672H2.976ZM27.8119 7.45923V1.73123H26.2119V16.5792H27.8119V8.91523H29.9719V7.45923H27.8119ZM20.9319 3.42723V1.74723H19.3159V3.42723H15.8119V4.75523H24.4199V3.42723H20.9319ZM21.0119 11.4752C22.5959 11.2192 23.7639 10.2752 23.7639 8.70723V8.46723C23.7639 6.64323 22.1639 5.65123 20.1479 5.65123C18.0839 5.65123 16.4839 6.64323 16.4839 8.46723V8.70723C16.4839 10.3232 17.7159 11.2832 19.4119 11.4912V13.2672C18.9319 13.2832 18.4999 13.2992 18.1159 13.2992H15.5559L15.6359 14.7232H17.9879C20.0999 14.7232 22.9319 14.5472 25.1559 14.2432L24.9799 12.8512C23.7319 12.9952 22.3239 13.1232 21.0119 13.2032V11.4752ZM18.0519 8.48323C18.0519 7.50723 18.9479 6.93123 20.1479 6.93123C21.2999 6.93123 22.2119 7.50723 22.2119 8.48323V8.69123C22.2119 9.68323 21.2999 10.2592 20.1479 10.2592C18.9479 10.2592 18.0519 9.68323 18.0519 8.69123V8.48323ZM39.6878 10.5632C39.6878 7.58723 37.7518 6.06723 35.4318 6.06723C33.1598 6.06723 31.1918 7.57123 31.1918 10.4672V11.5392C31.1918 14.4512 33.1918 15.9552 35.4638 15.9552C37.2878 15.9552 38.9518 15.0752 39.5438 13.3632L38.0718 12.8832C37.6398 13.9712 36.5998 14.5312 35.4638 14.5312C34.0238 14.5312 32.7918 13.5232 32.7598 11.5872H39.6878V10.5632ZM32.7758 10.2272C32.8718 8.43523 34.0398 7.50723 35.4318 7.50723C36.9518 7.50723 38.0878 8.56323 38.0878 10.2272H32.7758ZM41.6036 9.97123H46.8036V8.48323H41.6036V9.97123ZM59.603 16.5792H61.203V1.73123H59.603V16.5792ZM54.227 3.42723V1.74723H52.627V3.42723H49.043V4.75523H57.811V3.42723H54.227ZM54.227 11.4912C55.891 11.2672 57.139 10.3072 57.139 8.70723V8.46723C57.139 6.64323 55.491 5.65123 53.443 5.65123C51.363 5.65123 49.731 6.64323 49.731 8.46723V8.70723C49.731 10.3072 50.963 11.2672 52.643 11.4912V13.2512C52.163 13.2672 51.715 13.2832 51.315 13.2832H48.627L48.707 14.7392H51.171C53.347 14.7392 56.259 14.5632 58.531 14.2432L58.355 12.8192C57.059 12.9792 55.587 13.1072 54.227 13.1872V11.4912ZM51.283 8.48323C51.283 7.50723 52.227 6.93123 53.443 6.93123C54.627 6.93123 55.571 7.50723 55.571 8.48323V8.69123C55.571 9.68323 54.627 10.2592 53.443 10.2592C52.227 10.2592 51.283 9.68323 51.283 8.69123V8.48323ZM71.8789 7.02723H74.7909V12.8512H76.3749V1.73123H74.7909V5.65123H71.8789V7.02723ZM72.1029 10.8352L72.9989 9.58723L68.8229 6.35523C69.0629 5.63523 69.1749 4.88323 69.1749 4.08323V3.93923H72.4229V2.51523H64.4069V3.93923H67.6069V4.08323C67.6069 6.41923 66.3589 8.09923 63.8149 9.84323L64.6789 11.0752C66.2629 10.0352 67.4309 8.94723 68.1829 7.73123L72.1029 10.8352ZM68.1509 11.9232H66.5509V16.5792H76.9989V15.1232H68.1509V11.9232ZM79.6268 9.23523C79.6268 12.5312 80.8908 15.4112 83.1628 17.7952L84.2188 16.8192C82.1068 14.4352 81.1468 11.8752 81.1468 9.23523C81.1468 6.57923 82.1068 4.03523 84.2188 1.65123L83.1628 0.675234C80.8908 3.05923 79.6268 5.93923 79.6268 9.23523ZM85.4418 12.7232C86.0338 14.4832 87.5218 15.9552 90.1458 15.9552C92.8498 15.9552 94.7218 14.4672 94.7218 12.2432C94.7218 10.6112 93.6818 9.45923 92.2898 9.02723C93.4738 8.57923 94.4018 7.58723 94.4018 6.00323C94.4018 3.82723 92.5938 2.51523 90.1138 2.51523C87.7458 2.51523 86.4018 3.93923 85.8098 5.50723L87.2498 6.05123C87.6818 4.97923 88.4818 3.95523 90.1138 3.95523C91.7618 3.95523 92.8338 4.75523 92.8338 6.08323C92.8338 7.39523 91.8258 8.33923 89.9058 8.33923H88.2738V9.73123H89.9058C92.0658 9.73123 93.1378 10.8192 93.1378 12.1792C93.1378 13.5392 92.0178 14.5152 90.1458 14.5152C88.2578 14.5152 87.3298 13.4272 86.8658 12.2112L85.4418 12.7232ZM107.797 7.31523H105.909V1.95523H104.389V16.2752H105.909V8.77123H107.797V16.5792H109.365V1.73123H107.797V7.31523ZM101.109 4.35523V4.53123C101.109 7.66723 99.6049 10.9952 96.6929 13.6352L97.8449 14.8032C100.885 11.9072 102.661 8.41923 102.661 4.21123V2.89923H97.0449V4.35523H101.109ZM118.569 9.66723H122.697V10.1472H124.297V1.73123H122.697V8.56323H118.569V9.66723ZM116.457 6.24323C118.713 6.24323 120.441 5.47523 120.441 4.11523V4.01923C120.441 2.64323 118.713 1.90723 116.457 1.90723C114.169 1.90723 112.457 2.64323 112.457 4.01923V4.11523C112.457 5.47523 114.169 6.24323 116.457 6.24323ZM113.977 4.03523C113.977 3.47523 114.985 3.12323 116.457 3.12323C117.913 3.12323 118.921 3.47523 118.921 4.03523V4.08323C118.921 4.65923 117.913 5.01123 116.457 5.01123C114.985 5.01123 113.977 4.65923 113.977 4.08323V4.03523ZM115.497 8.22723C115.449 8.86723 115.401 9.55523 115.321 10.1952L116.873 10.2912C116.953 9.58723 117.001 8.85123 117.049 8.16323C118.601 8.08323 120.249 7.95523 121.641 7.76323L121.497 6.61123C119.145 6.89923 116.233 7.05923 114.409 7.05923H111.721L111.785 8.24323H114.281C114.665 8.24323 115.065 8.24323 115.497 8.22723ZM115.881 14.3232H124.297V10.8352H114.249V12.0832H122.745V13.0912H114.329V16.6592H124.841V15.3952H115.881V14.3232ZM131.101 9.23523C131.101 5.93923 129.837 3.05923 127.565 0.675234L126.509 1.65123C128.621 4.03523 129.581 6.57923 129.581 9.23523C129.581 11.8752 128.621 14.4352 126.509 16.8192L127.565 17.7952C129.837 15.4112 131.101 12.5312 131.101 9.23523ZM8.832 30.3232H11.728V33.8272H13.328V25.7312H11.728V28.9472H8.832V30.3232ZM9.136 33.7472L9.936 32.4352L5.776 29.8112C6 29.2032 6.112 28.5632 6.112 27.8592H9.36V26.4352H1.36V27.8592H4.56C4.56 29.8272 3.328 31.2672 0.768 32.7072L1.52 33.9872C3.152 33.1072 4.352 32.1632 5.104 31.0912L9.136 33.7472ZM6.736 34.6112C4.576 34.6112 3.2 35.8912 3.2 37.6672C3.2 39.4592 4.576 40.7392 6.736 40.7392H9.968C12.144 40.7392 13.52 39.4592 13.52 37.6672C13.52 35.8912 12.144 34.6112 9.968 34.6112H6.736ZM6.992 39.2992C5.52 39.2992 4.784 38.6112 4.784 37.6672C4.784 36.7232 5.52 36.0352 6.992 36.0352H9.728C11.2 36.0352 11.92 36.7232 11.92 37.6672C11.92 38.6112 11.2 39.2992 9.728 39.2992H6.992ZM26.9159 40.5792H28.4999V25.7312H26.9159V40.5792ZM22.3399 28.3552V28.5312C22.3399 31.6672 20.2919 35.0752 16.4519 37.5392L17.4119 38.8032C21.5399 36.0832 23.9399 32.4192 23.9399 28.2112V26.8992H16.7719V28.3552H22.3399ZM42.3438 40.5792H43.9118V25.7312H42.3438V40.5792ZM37.1758 29.1552C36.7118 27.2352 35.6238 26.4352 34.3118 26.4352C32.5518 26.4352 31.2078 27.8432 31.2078 31.4112V33.6672C31.2078 37.2352 32.5518 38.6432 34.3118 38.6432C35.7838 38.6432 36.9518 37.6512 37.3038 35.2192H39.1278V40.2752H40.6478V25.9552H39.1278V29.1552H37.1758ZM35.8958 33.6512C35.8958 36.2272 35.2238 37.1872 34.3118 37.1872C33.3998 37.1872 32.7278 36.2272 32.7278 33.6512V31.4272C32.7278 28.8352 33.3998 27.8912 34.3118 27.8912C35.2238 27.8912 35.8958 28.8352 35.8958 31.4272V33.6512ZM37.3998 33.8112V33.6672V31.4112C37.3998 31.1232 37.3838 30.8352 37.3678 30.5792H39.1278V33.8112H37.3998ZM57.6436 31.6032C57.9156 30.0512 58.0596 28.4192 58.0596 27.1392V26.1952H47.8356V27.6512H56.4756C56.4596 28.5152 56.3156 30.0992 56.0436 31.6032H46.1236V33.0112H60.0756V31.6032H57.6436ZM58.3796 40.5952V34.8032H47.8356V40.5952H58.3796ZM56.7796 36.1792V39.1872H49.4356V36.1792H56.7796ZM72.9934 31.8272H77.3134V25.9712H75.7134V27.6512H68.6734V25.9712H67.0734V31.8272H71.4094V33.2992H65.2174V34.6752H79.1694V33.2992H72.9934V31.8272ZM75.7134 28.9632V30.5152H68.6734V28.9632H75.7134ZM75.8734 37.5232V40.7392H77.4734V36.1152H66.9294V37.5232H75.8734ZM93.1093 40.5792V25.7312H91.5253V40.5792H93.1093ZM83.9893 38.4672C86.1173 38.4672 88.3733 38.2752 90.1013 37.9552L89.9093 36.5632C88.0853 36.8512 85.9733 37.0272 84.2773 37.0272H82.7893V33.2672H88.3253V26.8192H81.1893V28.2592H86.7253V31.8592H81.1893V38.4672H83.9893ZM106.681 34.0672H108.281V25.7312H106.681V34.0672ZM104.281 33.6352L105.129 32.3712L100.841 29.4912C101.097 28.7872 101.225 28.0352 101.225 27.2192V26.2112H99.6411V27.2192C99.6411 29.3792 98.4251 31.0752 95.7051 32.6752L96.5371 33.9552C98.1691 33.0112 99.3691 31.9872 100.137 30.8512L104.281 33.6352ZM106.681 36.4512V40.7392H108.281V34.9952H98.2971V36.4512H106.681Z" fill="black"/>
</svg>
