<svg width="66" height="59" viewBox="0 0 66 59" fill="none" xmlns="http://www.w3.org/2000/svg">
<path d="M0.644 6.77412V7.69812H7.126L1.428 18.2401H2.576L8.26 7.69812V6.77412H0.644ZM13.83 18.2401C16.042 18.2401 17.82 16.6021 17.82 13.5221V11.2821C17.82 8.21612 16.042 6.56412 13.83 6.56412C11.604 6.56412 9.82603 8.21612 9.82603 11.2821V13.5221C9.82603 16.6021 11.604 18.2401 13.83 18.2401ZM13.83 17.3301C12.192 17.3301 10.848 16.0981 10.848 13.4521V11.3521C10.848 8.72012 12.192 7.47412 13.83 7.47412C15.468 7.47412 16.812 8.72012 16.812 11.3521V13.4521C16.812 16.0981 15.468 17.3301 13.83 17.3301ZM20.5205 20.4801L20.9965 16.7701H19.9885L19.6945 20.4801H20.5205ZM26.996 18.2401C29.208 18.2401 30.986 16.6021 30.986 13.5221V11.2821C30.986 8.21612 29.208 6.56412 26.996 6.56412C24.77 6.56412 22.992 8.21612 22.992 11.2821V13.5221C22.992 16.6021 24.77 18.2401 26.996 18.2401ZM26.996 17.3301C25.358 17.3301 24.014 16.0981 24.014 13.4521V11.3521C24.014 8.72012 25.358 7.47412 26.996 7.47412C28.634 7.47412 29.978 8.72012 29.978 11.3521V13.4521C29.978 16.0981 28.634 17.3301 26.996 17.3301ZM36.9765 18.2401C39.1885 18.2401 40.9665 16.6021 40.9665 13.5221V11.2821C40.9665 8.21612 39.1885 6.56412 36.9765 6.56412C34.7505 6.56412 32.9725 8.21612 32.9725 11.2821V13.5221C32.9725 16.6021 34.7505 18.2401 36.9765 18.2401ZM36.9765 17.3301C35.3385 17.3301 33.9945 16.0981 33.9945 13.4521V11.3521C33.9945 8.72012 35.3385 7.47412 36.9765 7.47412C38.6145 7.47412 39.9585 8.72012 39.9585 11.3521V13.4521C39.9585 16.0981 38.6145 17.3301 36.9765 17.3301ZM46.957 18.2401C49.169 18.2401 50.947 16.6021 50.947 13.5221V11.2821C50.947 8.21612 49.169 6.56412 46.957 6.56412C44.731 6.56412 42.953 8.21612 42.953 11.2821V13.5221C42.953 16.6021 44.731 18.2401 46.957 18.2401ZM46.957 17.3301C45.319 17.3301 43.975 16.0981 43.975 13.4521V11.3521C43.975 8.72012 45.319 7.47412 46.957 7.47412C48.595 7.47412 49.939 8.72012 49.939 11.3521V13.4521C49.939 16.0981 48.595 17.3301 46.957 17.3301ZM58.5195 14.9221H62.4535V16.1961H63.4475V5.85012H62.4535V14.0961H58.5195V14.9221ZM56.7695 11.0161C58.6455 11.0161 60.1435 10.2321 60.1435 8.70612V8.52412C60.1435 6.99812 58.6455 6.20012 56.7695 6.20012C54.8935 6.20012 53.3955 6.99812 53.3955 8.52412V8.70612C53.3955 10.2321 54.8935 11.0161 56.7695 11.0161ZM54.3615 8.55212C54.3615 7.61412 55.3695 7.06812 56.7695 7.06812C58.1835 7.06812 59.1915 7.61412 59.1915 8.55212V8.67812C59.1915 9.61612 58.1835 10.1621 56.7695 10.1621C55.3695 10.1621 54.3615 9.61612 54.3615 8.67812V8.55212ZM56.8955 15.3841C56.9795 14.6141 57.0495 13.8161 57.1055 13.0601C58.5335 12.9901 60.0595 12.8641 61.3195 12.6821L61.2215 11.8421C59.1915 12.0941 56.6015 12.2481 55.0055 12.2481H52.6535L52.6955 13.1161H54.9495C55.3135 13.1161 55.7055 13.1161 56.1115 13.1021C56.0695 13.8161 55.9995 14.6001 55.9155 15.3141L56.8955 15.3841ZM55.9995 15.9301H55.0055V18.7721H64.0495V17.8481H55.9995V15.9301Z" fill="#333333"/>
<path d="M13.774 40.5641C11.618 40.5641 9.854 41.9921 9.854 44.3441C9.854 46.7101 11.618 48.1241 13.662 48.1241C14.88 48.1241 16.084 47.5781 16.714 46.5421V47.1861C16.742 50.0421 15.496 51.3301 13.858 51.3301C12.346 51.3301 11.534 50.6161 10.918 49.3421L10.064 49.8041C10.792 51.3581 12.038 52.2401 13.886 52.2401C15.832 52.2401 17.68 50.8541 17.68 47.2281V44.4141C17.68 41.9781 15.986 40.5641 13.774 40.5641ZM13.774 47.2281C12.206 47.2281 10.862 46.2061 10.862 44.3581C10.862 42.4961 12.206 41.4741 13.774 41.4741C15.356 41.4741 16.686 42.4961 16.686 44.3581C16.686 46.2061 15.356 47.2281 13.774 47.2281ZM20.3877 54.4801L20.8637 50.7701H19.8557L19.5617 54.4801H20.3877ZM29.4112 48.7541V40.7741H28.0392L22.5792 48.8241V49.6781H28.4032V52.2401H29.4112V49.6781H31.3152V48.7541H29.4112ZM28.4032 41.8941V48.7541H23.7972L28.4032 41.8941ZM36.8847 52.2401C39.0967 52.2401 40.8747 50.6021 40.8747 47.5221V45.2821C40.8747 42.2161 39.0967 40.5641 36.8847 40.5641C34.6587 40.5641 32.8807 42.2161 32.8807 45.2821V47.5221C32.8807 50.6021 34.6587 52.2401 36.8847 52.2401ZM36.8847 51.3301C35.2467 51.3301 33.9027 50.0981 33.9027 47.4521V45.3521C33.9027 42.7201 35.2467 41.4741 36.8847 41.4741C38.5227 41.4741 39.8667 42.7201 39.8667 45.3521V47.4521C39.8667 50.0981 38.5227 51.3301 36.8847 51.3301ZM46.8652 52.2401C49.0772 52.2401 50.8552 50.6021 50.8552 47.5221V45.2821C50.8552 42.2161 49.0772 40.5641 46.8652 40.5641C44.6392 40.5641 42.8612 42.2161 42.8612 45.2821V47.5221C42.8612 50.6021 44.6392 52.2401 46.8652 52.2401ZM46.8652 51.3301C45.2272 51.3301 43.8832 50.0981 43.8832 47.4521V45.3521C43.8832 42.7201 45.2272 41.4741 46.8652 41.4741C48.5032 41.4741 49.8472 42.7201 49.8472 45.3521V47.4521C49.8472 50.0981 48.5032 51.3301 46.8652 51.3301ZM58.4277 48.9221H62.3617V50.1961H63.3557V39.8501H62.3617V48.0961H58.4277V48.9221ZM56.6777 45.0161C58.5537 45.0161 60.0517 44.2321 60.0517 42.7061V42.5241C60.0517 40.9981 58.5537 40.2001 56.6777 40.2001C54.8017 40.2001 53.3037 40.9981 53.3037 42.5241V42.7061C53.3037 44.2321 54.8017 45.0161 56.6777 45.0161ZM54.2697 42.5521C54.2697 41.6141 55.2777 41.0681 56.6777 41.0681C58.0917 41.0681 59.0997 41.6141 59.0997 42.5521V42.6781C59.0997 43.6161 58.0917 44.1621 56.6777 44.1621C55.2777 44.1621 54.2697 43.6161 54.2697 42.6781V42.5521ZM56.8037 49.3841C56.8877 48.6141 56.9577 47.8161 57.0137 47.0601C58.4417 46.9901 59.9677 46.8641 61.2277 46.6821L61.1297 45.8421C59.0997 46.0941 56.5097 46.2481 54.9137 46.2481H52.5617L52.6037 47.1161H54.8577C55.2217 47.1161 55.6137 47.1161 56.0197 47.1021C55.9777 47.8161 55.9077 48.6001 55.8237 49.3141L56.8037 49.3841ZM55.9077 49.9301H54.9137V52.7721H63.9577V51.8481H55.9077V49.9301Z" fill="#333333"/>
</svg>
