<svg width="87" height="25" viewBox="0 0 87 25" fill="none" xmlns="http://www.w3.org/2000/svg">
<path d="M11.662 18.8281V5.83612H10.262V18.8281H11.662ZM4.48 17.1341C6.356 17.1341 7.91 15.9021 7.91 12.7801V10.8061C7.91 7.68412 6.356 6.45212 4.48 6.45212C2.576 6.45212 1.022 7.68412 1.022 10.8061V12.7801C1.022 15.9021 2.576 17.1341 4.48 17.1341ZM4.48 15.8601C3.332 15.8601 2.422 15.0201 2.422 12.7661V10.8201C2.422 8.55212 3.332 7.72612 4.48 7.72612C5.628 7.72612 6.524 8.55212 6.524 10.8201V12.7661C6.524 15.0201 5.628 15.8601 4.48 15.8601ZM23.5514 10.2041V15.5661H24.9514V5.83612H23.5514V8.97212H20.8914V6.45212H19.5474V8.59412H15.7954V6.45212H14.4514V13.2281H20.8914V10.2041H23.5514ZM15.7954 9.81212H19.5474V11.9961H15.7954V9.81212ZM17.7554 14.8241H16.3554V18.8281H25.4974V17.5541H17.7554V14.8241ZM37.4848 5.83612H36.0848V12.1781H37.4848V9.56012H39.5008V8.27212H37.4848V5.83612ZM34.7688 10.2321C33.1448 10.4701 31.3248 10.6241 29.8828 10.6241H28.8048V7.60012H33.7048V6.38212H27.3908V11.8281H29.6308C31.4508 11.8281 33.3688 11.6601 34.9228 11.3941L34.7688 10.2321ZM37.4848 16.4761V12.9901H29.0988V14.1521H36.0848V15.3281H29.1688V18.8981H37.9608V17.7081H30.5548V16.4761H37.4848ZM49.8238 11.8141C50.8598 11.2121 51.5458 10.5681 51.9938 9.89612L54.3318 11.8141L55.1578 10.8621L52.5538 8.72012C52.7358 8.14612 52.7918 7.53012 52.7918 6.88612V6.11612H51.4618V6.88612C51.4618 8.06212 51.1958 9.15412 49.8938 10.2041L48.1158 8.74812C48.2978 8.16012 48.3678 7.53012 48.3678 6.88612V6.11612H47.0378V6.88612C47.0378 8.27212 46.6458 9.54612 44.6438 10.7641L45.3578 11.8141C46.3938 11.2121 47.0938 10.5821 47.5558 9.91012L49.8238 11.8141ZM43.7898 14.0821H55.9978V12.8081H43.7898V14.0821ZM45.4138 15.2581V18.8281H54.7098V17.5261H46.8138V15.2581H45.4138ZM70.5768 10.9741C70.8148 9.61612 70.9408 8.18812 70.9408 7.06812V6.24212H61.9948V7.51612H69.5548C69.5408 8.27212 69.4148 9.65812 69.1768 10.9741H60.4968V12.2061H72.7048V10.9741H70.5768ZM71.2208 18.8421V13.7741H61.9948V18.8421H71.2208ZM69.8208 14.9781V17.6101H63.3948V14.9781H69.8208ZM83.7822 8.69212H82.1582V5.97612H80.8562V13.1301H82.1582V9.93812H83.7822V13.1301H85.1122V5.83612H83.7822V8.69212ZM79.5542 9.26612C79.5542 7.15212 78.3642 6.11612 76.7822 6.11612C75.1862 6.11612 73.9962 7.15212 73.9962 9.26612V9.49012C73.9962 11.5901 75.1862 12.6261 76.7822 12.6261C78.3642 12.6261 79.5542 11.5901 79.5542 9.49012V9.26612ZM75.2842 9.28012C75.2842 8.02012 75.9282 7.34812 76.7822 7.34812C77.6222 7.34812 78.2662 8.02012 78.2662 9.28012V9.46212C78.2662 10.7221 77.6222 11.3941 76.7822 11.3941C75.9282 11.3941 75.2842 10.7221 75.2842 9.46212V9.28012ZM83.7122 15.2161V18.9681H85.1122V13.9421H76.3062V15.2161H83.7122Z" fill="black"/>
</svg>
