<svg width="52" height="24" viewBox="0 0 52 24" fill="none" xmlns="http://www.w3.org/2000/svg">
<path d="M6.272 18.648V5.592H4.576L0.384 8.872L1.536 10.392L4.208 8.296V18.648H6.272ZM13.8099 18.888C16.4499 18.888 18.6579 17.048 18.6579 13.352V10.888C18.6579 7.208 16.4499 5.352 13.8099 5.352C11.1539 5.352 8.94588 7.208 8.94588 10.888V13.352C8.94588 17.048 11.1539 18.888 13.8099 18.888ZM13.8099 17.064C12.1939 17.064 11.0099 15.848 11.0099 13.256V10.984C11.0099 8.408 12.1939 7.176 13.8099 7.176C15.4259 7.176 16.6099 8.408 16.6099 10.984V13.256C16.6099 15.848 15.4259 17.064 13.8099 17.064ZM21.9115 18.888C22.6315 18.888 23.2075 18.312 23.2075 17.592C23.2075 16.872 22.6315 16.28 21.9115 16.28C21.1915 16.28 20.6155 16.872 20.6155 17.592C20.6155 18.312 21.1915 18.888 21.9115 18.888ZM30.0286 18.888C32.6686 18.888 34.8766 17.048 34.8766 13.352V10.888C34.8766 7.208 32.6686 5.352 30.0286 5.352C27.3726 5.352 25.1646 7.208 25.1646 10.888V13.352C25.1646 17.048 27.3726 18.888 30.0286 18.888ZM30.0286 17.064C28.4126 17.064 27.2286 15.848 27.2286 13.256V10.984C27.2286 8.408 28.4126 7.176 30.0286 7.176C31.6446 7.176 32.8286 8.408 32.8286 10.984V13.256C32.8286 15.848 31.6446 17.064 30.0286 17.064ZM39.4423 12.504C41.0583 12.504 42.4183 11.4 42.4183 9.528V8.312C42.4183 6.472 41.0583 5.352 39.4423 5.352C37.8263 5.352 36.4663 6.472 36.4663 8.312V9.528C36.4663 11.4 37.8263 12.504 39.4423 12.504ZM40.2423 18.648L49.3143 5.592H47.0423L37.9703 18.648H40.2423ZM39.4423 10.824C38.7543 10.824 38.2582 10.28 38.2582 9.4V8.456C38.2582 7.576 38.7543 7.032 39.4423 7.032C40.1302 7.032 40.6423 7.56 40.6423 8.456V9.4C40.6423 10.296 40.1302 10.824 39.4423 10.824ZM47.7783 18.888C49.3943 18.888 50.7543 17.784 50.7543 15.912V14.696C50.7543 12.856 49.3943 11.736 47.7783 11.736C46.1623 11.736 44.8023 12.856 44.8023 14.696V15.912C44.8023 17.784 46.1623 18.888 47.7783 18.888ZM47.7783 17.208C47.0903 17.208 46.5943 16.664 46.5943 15.784V14.84C46.5943 13.96 47.0903 13.416 47.7783 13.416C48.4663 13.416 48.9783 13.944 48.9783 14.84V15.784C48.9783 16.68 48.4663 17.208 47.7783 17.208Z" fill="#5725E0"/>
</svg>
