<svg width="45" height="16" viewBox="0 0 45 16" fill="none" xmlns="http://www.w3.org/2000/svg">
<path d="M8.608 9.848H13.232V8.008H10.992V3.352H13.232V1.512H1.952V3.352H4.192V8.008H1.952V9.848H6.56V12.616H0.544V14.488H14.624V12.616H8.608V9.848ZM9.008 3.352V8.008H6.176V3.352H9.008ZM28.6759 11.64V0.584H26.6279V11.64H28.6759ZM20.3399 9.4C22.6119 9.4 24.4359 8.088 24.4359 5.288V5.048C24.4359 2.216 22.6119 0.903999 20.3399 0.903999C18.0519 0.903999 16.2119 2.216 16.2119 5.048V5.288C16.2119 8.088 18.0519 9.4 20.3399 9.4ZM20.3399 7.608C19.1879 7.608 18.2599 6.872 18.2599 5.272V5.048C18.2599 3.448 19.1879 2.696 20.3399 2.696C21.4599 2.696 22.4039 3.448 22.4039 5.048V5.272C22.4039 6.872 21.4599 7.608 20.3399 7.608ZM29.2359 15.528V13.672H20.5799V10.632H18.5319V15.528H29.2359ZM34.5677 8.584V6.824H43.3358V5.032H34.5677V3.352H43.3358V1.512H32.5358V10.392H43.6558V8.584H34.5677ZM30.8878 14.488H44.9678V12.616H30.8878V14.488Z" fill="black"/>
</svg>
