<svg width="27" height="25" viewBox="0 0 27 25" fill="none" xmlns="http://www.w3.org/2000/svg">
<path d="M1.96 12.6681C4.046 11.9681 5.488 11.1561 6.356 10.2321L11.2 12.6681L11.816 11.4921L7.098 9.14012C7.322 8.67812 7.42 8.20212 7.42 7.68412H11.116V6.45212H2.156V7.68412H6.02C6.02 9.08412 4.592 10.3581 1.456 11.4641L1.96 12.6681ZM0.532 13.9141V15.1881H5.95V18.9821H7.336V15.1881H12.74V13.9141H0.532ZM23.5374 13.1301H24.9374V5.83612H23.5374V13.1301ZM21.4374 12.7521L22.1794 11.6461L18.4274 9.12612C18.6514 8.51012 18.7634 7.85212 18.7634 7.13812V6.25612H17.3774V7.13812C17.3774 9.02812 16.3134 10.5121 13.9334 11.9121L14.6614 13.0321C16.0894 12.2061 17.1394 11.3101 17.8114 10.3161L21.4374 12.7521ZM23.5374 15.2161V18.9681H24.9374V13.9421H16.2014V15.2161H23.5374Z" fill="black"/>
</svg>
