<svg width="165" height="50" viewBox="0 0 165 50" fill="none" xmlns="http://www.w3.org/2000/svg">
<path d="M12.496 10.2V4.616H10.896V19.464H12.496V11.656H14.8V10.2H12.496ZM8.096 17.064V5.704H0.88V17.064H8.096ZM6.496 7.176V15.592H2.48V7.176H6.496ZM28.4999 19.464V4.616H26.9159V19.464H28.4999ZM23.8599 17.064V5.704H16.4999V17.064H23.8599ZM18.0999 7.176H22.2759V15.592H18.0999V7.176ZM38.7278 13.416H43.2078V5.608H32.6638V13.416H37.1438V16.888H30.9518V18.36H44.9038V16.888H38.7278V13.416ZM41.6078 7.064V11.976H34.2638V7.064H41.6078ZM61.1655 8.024H58.0935C57.5015 6.12 56.1255 5.32 54.5095 5.32C52.3655 5.32 50.6055 6.728 50.6055 10.296V12.552C50.6055 16.12 52.3655 17.528 54.5095 17.528C56.3015 17.528 57.8215 16.536 58.2695 14.136H61.1655V19.464H62.7655V4.616H61.1655V8.024ZM56.8135 12.536C56.8135 15.112 55.8055 16.072 54.5095 16.072C53.2135 16.072 52.2055 15.112 52.2055 12.536V10.312C52.2055 7.72 53.2135 6.776 54.5095 6.776C55.8055 6.776 56.8135 7.72 56.8135 10.312V12.536ZM58.3975 12.68V12.552V10.296C58.3975 10.008 58.3815 9.736 58.3655 9.48H61.1655V12.68H58.3975ZM69.5854 5.928V4.44H67.9854V5.928H65.2494V7.24H72.3214V5.928H69.5854ZM76.6574 9.608V13.224H78.1774V4.616H76.6574V8.2H74.8014V4.776H73.3134V13.064H74.8014V9.608H76.6574ZM71.7934 10.44C71.7934 8.824 70.5454 7.976 68.8014 7.976C67.0414 7.976 65.7934 8.824 65.7934 10.44V10.648C65.7934 12.28 67.0414 13.128 68.8014 13.128C70.5454 13.128 71.7934 12.28 71.7934 10.648V10.44ZM67.2334 10.488C67.2334 9.768 67.8574 9.272 68.8014 9.272C69.7294 9.272 70.3534 9.768 70.3534 10.488V10.616C70.3534 11.352 69.7294 11.816 68.8014 11.816C67.8574 11.816 67.2334 11.352 67.2334 10.616V10.488ZM71.4574 13.992C69.2654 13.992 67.8894 15.112 67.8894 16.808C67.8894 18.52 69.2654 19.624 71.4574 19.624H74.8014C76.9774 19.624 78.3534 18.52 78.3534 16.808C78.3534 15.112 76.9774 13.992 74.8014 13.992H71.4574ZM71.6974 18.2C70.2094 18.2 69.4734 17.64 69.4734 16.792C69.4734 15.96 70.2094 15.4 71.6974 15.4H74.5454C76.0334 15.4 76.7694 15.96 76.7694 16.792C76.7694 17.64 76.0334 18.2 74.5454 18.2H71.6974ZM91.5093 7.992H88.5972V9.368H91.5093V12.952H93.1093V4.616H91.5093V7.992ZM88.9013 12.792L89.7173 11.496L85.5573 8.776C85.7813 8.152 85.8933 7.48 85.8933 6.76V6.744H89.1413V5.32H81.1413V6.744H84.3413V6.76C84.3413 8.792 83.1093 10.28 80.5493 11.752L81.3173 13.016C82.9493 12.12 84.1333 11.16 84.8853 10.056L88.9013 12.792ZM91.5093 15.336V19.624H93.1093V13.88H83.1253V15.336H91.5093ZM107.081 10.488C107.353 8.936 107.497 7.304 107.497 6.024V5.08H97.2731V6.536H105.913C105.897 7.4 105.753 8.984 105.481 10.488H95.5611V11.896H109.513V10.488H107.081ZM107.817 19.48V13.688H97.2731V19.48H107.817ZM106.217 15.064V18.072H98.8731V15.064H106.217Z" fill="black"/>
<path d="M9 43.8H9.852V32.724H9V43.8ZM1.212 39.6C2.472 38.868 3.396 38.088 3.96 37.2L7.044 39.48L7.512 38.772L4.32 36.444C4.488 36.012 4.572 35.532 4.572 35.028H7.128V34.26H4.572V32.736H3.72V34.26H1.164V35.028H3.708C3.708 36.612 2.628 37.788 0.792 38.892L1.212 39.6ZM4.548 39.252H3.684V41.28C3.288 41.292 2.928 41.304 2.616 41.304H0.6L0.648 42.096H2.568C4.2 42.096 6.372 41.94 8.04 41.712L7.944 40.944C6.888 41.088 5.664 41.184 4.548 41.244V39.252ZM20.5469 37.056H18.8309V32.904H18.0029V43.596H18.8309V37.848H20.5469V43.8H21.3869V32.724H20.5469V37.056ZM13.2029 41.172V34.404H16.4189V33.612H12.3389V41.952H13.6589C14.9909 41.952 16.0709 41.88 17.1749 41.688L17.0789 40.92C15.9029 41.1 14.8589 41.172 13.7909 41.172H13.2029ZM29.9818 43.164V42.372H24.8098L27.7618 39.432C28.9738 38.22 29.7178 37.212 29.7178 35.892C29.7178 34.332 28.5298 33.336 26.7298 33.336C24.9658 33.336 23.9578 34.632 23.5738 36.012L24.4018 36.216C24.7498 35.088 25.3978 34.128 26.7298 34.128C28.0618 34.128 28.8658 34.812 28.8658 35.904C28.8658 36.912 28.3138 37.74 27.1258 38.928L23.5378 42.492V43.164H29.9818ZM36.9368 40.356V33.516H35.7608L31.0808 40.416V41.148H36.0728V43.344H36.9368V41.148H38.5688V40.356H36.9368ZM36.0728 34.476V40.356H32.1248L36.0728 34.476ZM48.2266 37.056H46.5106V32.904H45.6706V43.596H46.5106V37.848H48.2266V43.8H49.0666V32.724H48.2266V37.056ZM43.3186 34.452V34.692C43.3186 37.284 41.9626 39.876 39.8386 41.772L40.4506 42.396C42.6946 40.32 44.1706 37.656 44.1706 34.524V33.672H40.0426V34.452H43.3186ZM56.0775 38.556H59.4375V39.024H60.3015V32.724H59.4375V37.908H56.0775V38.556ZM54.5775 36.06C56.1975 36.06 57.4695 35.508 57.4695 34.524V34.44C57.4695 33.456 56.1975 32.916 54.5775 32.916C52.9575 32.916 51.6855 33.456 51.6855 34.44V34.524C51.6855 35.508 52.9575 36.06 54.5775 36.06ZM52.5135 34.464C52.5135 33.96 53.3655 33.612 54.5775 33.612C55.7895 33.612 56.6535 33.96 56.6535 34.464V34.5C56.6535 35.016 55.7895 35.352 54.5775 35.352C53.3655 35.352 52.5135 35.016 52.5135 34.5V34.464ZM54.0255 37.512C53.9895 38.028 53.9415 38.604 53.8815 39.096L54.7215 39.168C54.7815 38.616 54.8295 38.028 54.8775 37.476C56.1015 37.416 57.3975 37.296 58.4775 37.152L58.3935 36.492C56.6535 36.708 54.4335 36.828 53.0655 36.828H51.0495L51.0855 37.524H53.0175C53.3295 37.524 53.6775 37.524 54.0255 37.512ZM53.9055 42.072H60.3015V39.624H53.0055V40.332H59.4495V41.364H53.0655V43.86H60.7695V43.14H53.9055V42.072ZM65.7904 44.844L69.9904 32.316H69.0904L64.8904 44.844H65.7904ZM82.0664 43.8H82.9184V32.724H82.0664V43.8ZM74.2784 39.6C75.5384 38.868 76.4624 38.088 77.0264 37.2L80.1104 39.48L80.5784 38.772L77.3864 36.444C77.5544 36.012 77.6384 35.532 77.6384 35.028H80.1944V34.26H77.6384V32.736H76.7864V34.26H74.2304V35.028H76.7744C76.7744 36.612 75.6944 37.788 73.8584 38.892L74.2784 39.6ZM77.6144 39.252H76.7504V41.28C76.3544 41.292 75.9944 41.304 75.6824 41.304H73.6664L73.7144 42.096H75.6344C77.2664 42.096 79.4384 41.94 81.1064 41.712L81.0104 40.944C79.9544 41.088 78.7304 41.184 77.6144 41.244V39.252ZM93.1933 34.788C93.1933 36 92.9413 38.148 92.5933 40.008L93.4333 40.164C93.7813 38.268 94.0453 36.156 94.0453 34.596V33.66H86.1133V34.44H93.1933V34.788ZM89.8093 37.428H88.9573V42.12H84.9493V42.912H95.3173V42.12H89.8093V37.428ZM107.754 37.464V41.136H108.618V32.724H107.754V34.416H105.09C104.598 33.516 103.662 33.084 102.606 33.084C101.01 33.084 99.7262 34.032 99.7262 36V36.252C99.7262 38.208 101.01 39.144 102.606 39.144C103.794 39.144 104.826 38.592 105.246 37.464H107.754ZM100.59 36C100.59 34.584 101.442 33.852 102.606 33.852C103.746 33.852 104.598 34.584 104.598 36V36.24C104.598 37.656 103.746 38.376 102.606 38.376C101.442 38.376 100.59 37.656 100.59 36.24V36ZM107.754 36.744H105.426C105.438 36.588 105.45 36.42 105.45 36.252V36C105.45 35.7 105.414 35.412 105.366 35.16H107.754V36.744ZM102.354 40.26H101.49V43.8H109.134V43.008H102.354V40.26ZM120.263 43.164V42.372H115.091L118.043 39.432C119.255 38.22 119.999 37.212 119.999 35.892C119.999 34.332 118.811 33.336 117.011 33.336C115.247 33.336 114.239 34.632 113.855 36.012L114.683 36.216C115.031 35.088 115.679 34.128 117.011 34.128C118.343 34.128 119.147 34.812 119.147 35.904C119.147 36.912 118.595 37.74 117.407 38.928L113.819 42.492V43.164H120.263ZM122.529 43.344C122.901 43.344 123.201 43.044 123.201 42.672C123.201 42.3 122.901 42.012 122.529 42.012C122.157 42.012 121.869 42.3 121.869 42.672C121.869 43.044 122.157 43.344 122.529 43.344ZM128.257 43.344C130.321 43.344 131.701 42.204 131.701 40.572C131.701 39.516 130.981 38.592 129.805 38.148C130.885 37.716 131.401 36.888 131.401 35.892C131.401 34.344 130.129 33.336 128.257 33.336C126.397 33.336 125.113 34.344 125.113 35.892C125.113 36.888 125.629 37.716 126.709 38.148C125.533 38.592 124.813 39.516 124.813 40.572C124.813 42.204 126.205 43.344 128.257 43.344ZM128.257 37.788C126.817 37.788 125.977 37.032 125.977 35.964C125.977 34.884 126.817 34.128 128.257 34.128C129.697 34.128 130.549 34.884 130.549 35.964C130.549 37.032 129.697 37.788 128.257 37.788ZM128.257 42.552C126.637 42.552 125.677 41.724 125.677 40.548C125.677 39.408 126.685 38.556 128.257 38.556C129.829 38.556 130.837 39.408 130.837 40.548C130.837 41.724 129.877 42.552 128.257 42.552ZM135.263 38.556C136.391 38.556 137.315 37.776 137.315 36.384V35.496C137.315 34.128 136.391 33.336 135.263 33.336C134.123 33.336 133.211 34.128 133.211 35.496V36.384C133.211 37.776 134.123 38.556 135.263 38.556ZM135.527 43.164L142.163 33.516H141.167L134.543 43.164H135.527ZM135.263 37.812C134.555 37.812 134.015 37.308 134.015 36.348V35.532C134.015 34.584 134.555 34.08 135.263 34.08C135.971 34.08 136.523 34.584 136.523 35.532V36.348C136.523 37.32 135.971 37.812 135.263 37.812ZM141.347 43.344C142.475 43.344 143.399 42.564 143.399 41.172V40.284C143.399 38.916 142.475 38.124 141.347 38.124C140.207 38.124 139.295 38.916 139.295 40.284V41.172C139.295 42.564 140.207 43.344 141.347 43.344ZM141.347 42.6C140.639 42.6 140.099 42.108 140.099 41.136V40.32C140.099 39.372 140.639 38.868 141.347 38.868C142.055 38.868 142.607 39.372 142.607 40.32V41.136C142.607 42.108 142.055 42.6 141.347 42.6Z" fill="#333333"/>
</svg>
