<svg width="120" height="41" viewBox="0 0 120 41" fill="none" xmlns="http://www.w3.org/2000/svg">
<rect x="0.5" y="0.577148" width="119" height="39" rx="19.5" fill="#F4F4F4"/>
<path d="M28.5573 19.1551C28.5573 18.3898 28.7859 17.8251 29.2433 17.4611H27.6613V16.3411H34.5213V17.4611H32.9953C33.4526 17.8251 33.6813 18.3898 33.6813 19.1551C33.6813 19.4165 33.6486 19.6731 33.5833 19.9251C33.5179 20.1771 33.4106 20.4105 33.2613 20.6251C33.1213 20.8305 32.9346 21.0125 32.7013 21.1711C32.4773 21.3298 32.2019 21.4418 31.8753 21.5071V22.9911H32.1133C32.6453 22.9818 33.1819 22.9398 33.7233 22.8651C34.2646 22.7811 34.7593 22.6178 35.2073 22.3751V14.4651H36.6073V18.6511H38.3013V19.8271H36.6073V26.3371H35.2073V23.4671C34.9926 23.5885 34.7593 23.6911 34.5073 23.7751C34.2553 23.8591 33.9939 23.9291 33.7233 23.9851C33.4619 24.0411 33.1913 24.0831 32.9113 24.1111C32.6406 24.1298 32.3793 24.1391 32.1273 24.1391H27.4653V22.9911H30.4753V21.5211C30.1206 21.4651 29.8219 21.3625 29.5793 21.2131C29.3366 21.0545 29.1406 20.8725 28.9913 20.6671C28.8419 20.4525 28.7299 20.2145 28.6553 19.9531C28.5899 19.6918 28.5573 19.4258 28.5573 19.1551ZM31.1193 17.5731C30.7179 17.5731 30.4006 17.7085 30.1673 17.9791C29.9339 18.2405 29.8173 18.6091 29.8173 19.0851C29.8173 19.5891 29.9339 19.9671 30.1673 20.2191C30.4006 20.4711 30.7179 20.5971 31.1193 20.5971C31.5206 20.5971 31.8379 20.4711 32.0713 20.2191C32.3046 19.9671 32.4213 19.5891 32.4213 19.0851C32.4213 18.6091 32.3046 18.2405 32.0713 17.9791C31.8379 17.7085 31.5206 17.5731 31.1193 17.5731ZM29.1873 15.6411V14.4651H32.9393V15.6411H29.1873ZM48.4976 22.8791H47.0836V19.7151H45.0676V20.7511H40.1816C39.883 20.7511 39.6683 20.6905 39.5376 20.5691C39.4163 20.4385 39.3556 20.2145 39.3556 19.8971V15.1511H45.0676V15.9491H47.0836V14.4651H48.4976V22.8791ZM41.2456 22.1651H42.6456V24.9091C42.6456 25.0118 42.655 25.0725 42.6736 25.0911C42.7016 25.1191 42.7623 25.1331 42.8556 25.1331H48.7776V26.2671H42.0436C41.5116 26.2671 41.2456 26.0058 41.2456 25.4831V22.1651ZM43.6816 16.2851H40.7416V19.4211C40.7416 19.4865 40.7556 19.5378 40.7836 19.5751C40.8116 19.6031 40.8676 19.6171 40.9516 19.6171H43.6816V16.2851ZM47.0836 17.1111H45.0676V18.5531H47.0836V17.1111ZM50.672 15.1371H56.846V16.2711H55.768V20.0091C56.0387 19.9905 56.2907 19.9625 56.524 19.9251C56.7573 19.8785 56.9673 19.8131 57.154 19.7291L57.322 20.6951C57.0513 20.8631 56.6873 20.9845 56.23 21.0591C55.782 21.1338 55.306 21.1711 54.802 21.1711H50.588V20.0371H51.792V16.2711H50.672V15.1371ZM58.596 14.4651H59.982V23.2991H58.596V19.5191H56.902V18.3571H58.596V17.3631H56.902V16.2011H58.596V14.4651ZM52.73 22.5991H54.13V24.9091C54.13 25.0118 54.1393 25.0725 54.158 25.0911C54.186 25.1191 54.2467 25.1331 54.34 25.1331H60.262V26.2671H53.528C52.996 26.2671 52.73 26.0058 52.73 25.4831V22.5991ZM53.136 20.0371H54.424V16.2711H53.136V20.0371ZM71.4664 26.3371H65.0264C64.485 26.3371 64.2144 26.0571 64.2144 25.4971V21.4931H65.6144V22.9351H70.0664V21.4931H71.4664V26.3371ZM62.4924 16.0611V14.9411H68.4844V16.0611H66.2164V16.2851C66.2164 16.8545 66.4357 17.4098 66.8744 17.9511C67.3224 18.4925 68.013 19.0385 68.9464 19.5891L68.2324 20.6111C67.971 20.4711 67.7097 20.3125 67.4484 20.1351C67.187 19.9578 66.935 19.7665 66.6924 19.5611C66.4497 19.3558 66.2257 19.1411 66.0204 18.9171C65.8244 18.6931 65.6564 18.4691 65.5164 18.2451C65.2457 18.7678 64.8584 19.2578 64.3544 19.7151C63.8504 20.1631 63.2904 20.5505 62.6744 20.8771L61.9604 19.8551C62.3897 19.6031 62.7817 19.3278 63.1364 19.0291C63.491 18.7305 63.7897 18.4225 64.0324 18.1051C64.275 17.7785 64.4617 17.4471 64.5924 17.1111C64.7324 16.7658 64.8024 16.4298 64.8024 16.1031V16.0611H62.4924ZM71.4664 20.6951H70.0524V14.4651H71.4664V20.6951ZM70.0664 25.2311V24.0411H65.6144V24.9931C65.6144 25.1518 65.6937 25.2311 65.8524 25.2311H70.0664Z" fill="#666666"/>
<path d="M86.3725 18.0905L86.9858 18.7038L80.9458 24.7438H80.3325V24.1305L86.3725 18.0905ZM88.7725 14.0771C88.6058 14.0771 88.4325 14.1438 88.3058 14.2705L87.0858 15.4905L89.5858 17.9905L90.8058 16.7705C91.0658 16.5105 91.0658 16.0905 90.8058 15.8305L89.2458 14.2705C89.1125 14.1371 88.9458 14.0771 88.7725 14.0771ZM86.3725 16.2038L78.9991 23.5771V26.0771H81.4991L88.8725 18.7038L86.3725 16.2038Z" fill="black"/>
<rect x="0.5" y="0.577148" width="119" height="39" rx="19.5" stroke="#EDEDED"/>
</svg>
