<svg width="56" height="16" viewBox="0 0 56 16" fill="none" xmlns="http://www.w3.org/2000/svg">
<path d="M4.858 1.31045C2.59 1.31045 0.812 2.76645 0.812 5.13245C0.812 7.49845 2.59 8.96845 4.62 8.96845C5.796 8.96845 6.958 8.45045 7.574 7.47045V8.01645C7.588 10.6624 6.412 11.8244 4.914 11.8244C3.556 11.8244 2.786 11.1804 2.198 10.0044L1.022 10.6204C1.778 12.2024 3.066 13.0704 4.97 13.0704C6.958 13.0704 8.876 11.6144 8.876 8.07245V5.24445C8.876 2.72445 7.154 1.31045 4.858 1.31045ZM4.844 7.72245C3.388 7.72245 2.198 6.78445 2.198 5.14645C2.198 3.50845 3.388 2.55645 4.844 2.55645C6.314 2.55645 7.476 3.50845 7.476 5.14645C7.476 6.78445 6.314 7.72245 4.844 7.72245ZM11.8044 15.2964L12.3784 11.2504H10.9644L10.6564 15.2964H11.8044ZM21.1134 9.33245V1.52045H19.2374L14.0294 9.47245V10.6204H19.7274V13.0704H21.1134V10.6204H22.8634V9.33245H21.1134ZM19.7274 3.11645V9.33245H15.7094L19.7274 3.11645ZM28.4469 13.0704C30.7149 13.0704 32.5769 11.4464 32.5769 8.28245V6.08445C32.5769 2.94845 30.7149 1.31045 28.4469 1.31045C26.1789 1.31045 24.3309 2.94845 24.3309 6.08445V8.28245C24.3309 11.4464 26.1789 13.0704 28.4469 13.0704ZM28.4469 11.8104C26.9209 11.8104 25.7309 10.6624 25.7309 8.21245V6.16845C25.7309 3.71845 26.9209 2.57045 28.4469 2.57045C29.9729 2.57045 31.1629 3.71845 31.1629 6.16845V8.21245C31.1629 10.6624 29.9729 11.8104 28.4469 11.8104ZM38.5778 13.0704C40.8458 13.0704 42.7078 11.4464 42.7078 8.28245V6.08445C42.7078 2.94845 40.8458 1.31045 38.5778 1.31045C36.3098 1.31045 34.4618 2.94845 34.4618 6.08445V8.28245C34.4618 11.4464 36.3098 13.0704 38.5778 13.0704ZM38.5778 11.8104C37.0518 11.8104 35.8618 10.6624 35.8618 8.21245V6.16845C35.8618 3.71845 37.0518 2.57045 38.5778 2.57045C40.1038 2.57045 41.2938 3.71845 41.2938 6.16845V8.21245C41.2938 10.6624 40.1038 11.8104 38.5778 11.8104ZM50.2906 9.86445H53.9166V10.9704H55.3026V0.624449H53.9166V8.80045H50.2906V9.86445ZM48.4426 5.84645C50.4026 5.84645 51.9286 5.03445 51.9286 3.46645V3.29845C51.9286 1.71645 50.4026 0.904449 48.4426 0.904449C46.4686 0.904449 44.9426 1.71645 44.9426 3.29845V3.46645C44.9426 5.03445 46.4686 5.84645 48.4426 5.84645ZM46.2726 3.32645C46.2726 2.50045 47.1826 2.05245 48.4426 2.05245C49.6886 2.05245 50.5986 2.50045 50.5986 3.32645V3.43845C50.5986 4.25045 49.6886 4.69845 48.4426 4.69845C47.1826 4.69845 46.2726 4.25045 46.2726 3.43845V3.32645ZM48.7646 10.1584C48.8486 9.41645 48.9046 8.67445 48.9466 7.98845C50.3186 7.91845 51.7466 7.79245 52.9786 7.62445L52.8386 6.47645C50.7806 6.72845 48.2606 6.88245 46.6506 6.88245H44.3126L44.3686 8.05845H46.5386C46.8746 8.05845 47.2246 8.05845 47.6026 8.04445C47.5466 8.68845 47.4906 9.38845 47.4206 10.0604L48.7646 10.1584ZM47.9666 10.6204H46.5806V13.6164H55.8486V12.3424H47.9666V10.6204Z" fill="#333333"/>
</svg>
