<svg width="38" height="30" viewBox="0 0 38 30" fill="none" xmlns="http://www.w3.org/2000/svg">
<path d="M14.74 12.24H12.88V5.78H10.46V23.72H12.88V14.56H14.74V24.16H17.22V5.48H14.74V12.24ZM3.94 18.86V9.1H8.5V6.76H1.34V21.2H4.22C6.1 21.2 7.66 21.12 9.36 20.8L9.12 18.54C7.4 18.8 5.94 18.86 4.58 18.86H3.94ZM21.5048 13.12C24.5848 12.72 26.6648 12.16 27.9648 11.32L35.2648 13.12L35.9648 11.08L29.4448 9.54C29.5648 9.24 29.6248 8.92 29.6648 8.56H35.0248V6.48H29.7448V5.1H27.2848V6.48H21.8848V8.56H27.2848C26.9048 9.66 25.0848 10.52 20.9248 11.06L21.5048 13.12ZM37.2448 13.62H19.6448V15.58H27.1648V16.76H21.6048V18.64H32.6448V19.52H21.7048V24.26H35.7048V22.32H24.2448V21.4H35.2048V16.76H29.7248V15.58H37.2448V13.62Z" fill="black"/>
</svg>
