<svg width="100" height="16" viewBox="0 0 100 16" fill="none" xmlns="http://www.w3.org/2000/svg">
<path d="M4.942 5.37822C4.046 5.37822 3.192 5.72822 2.632 6.38622L3.066 2.57822H8.204V1.29022H1.862L1.148 8.20622H2.436C2.828 7.25422 3.57 6.66622 4.69 6.66622C6.202 6.66622 7.224 7.63222 7.224 9.11622C7.224 10.5862 6.202 11.5522 4.62 11.5522C3.486 11.5522 2.464 11.0622 2.002 9.99822L0.812 10.6702C1.456 12.1262 3.066 12.8402 4.69 12.8402C7.042 12.8402 8.61 11.3282 8.61 9.11622C8.61 6.90422 7.084 5.37822 4.942 5.37822ZM14.611 12.8402C16.879 12.8402 18.741 11.2162 18.741 8.05222V5.85422C18.741 2.71822 16.879 1.08022 14.611 1.08022C12.343 1.08022 10.495 2.71822 10.495 5.85422V8.05222C10.495 11.2162 12.343 12.8402 14.611 12.8402ZM14.611 11.5802C13.085 11.5802 11.895 10.4322 11.895 7.98222V5.93822C11.895 3.48822 13.085 2.34022 14.611 2.34022C16.137 2.34022 17.327 3.48822 17.327 5.93822V7.98222C17.327 10.4322 16.137 11.5802 14.611 11.5802ZM21.6618 15.0662L22.2358 11.0202H20.8218L20.5138 15.0662H21.6618ZM28.2828 12.8402C30.5508 12.8402 32.4128 11.2162 32.4128 8.05222V5.85422C32.4128 2.71822 30.5508 1.08022 28.2828 1.08022C26.0148 1.08022 24.1668 2.71822 24.1668 5.85422V8.05222C24.1668 11.2162 26.0148 12.8402 28.2828 12.8402ZM28.2828 11.5802C26.7568 11.5802 25.5668 10.4322 25.5668 7.98222V5.93822C25.5668 3.48822 26.7568 2.34022 28.2828 2.34022C29.8088 2.34022 30.9988 3.48822 30.9988 5.93822V7.98222C30.9988 10.4322 29.8088 11.5802 28.2828 11.5802ZM38.4137 12.8402C40.6817 12.8402 42.5437 11.2162 42.5437 8.05222V5.85422C42.5437 2.71822 40.6817 1.08022 38.4137 1.08022C36.1457 1.08022 34.2977 2.71822 34.2977 5.85422V8.05222C34.2977 11.2162 36.1457 12.8402 38.4137 12.8402ZM38.4137 11.5802C36.8877 11.5802 35.6977 10.4322 35.6977 7.98222V5.93822C35.6977 3.48822 36.8877 2.34022 38.4137 2.34022C39.9397 2.34022 41.1297 3.48822 41.1297 5.93822V7.98222C41.1297 10.4322 39.9397 11.5802 38.4137 11.5802ZM48.5446 12.8402C50.8126 12.8402 52.6746 11.2162 52.6746 8.05222V5.85422C52.6746 2.71822 50.8126 1.08022 48.5446 1.08022C46.2766 1.08022 44.4286 2.71822 44.4286 5.85422V8.05222C44.4286 11.2162 46.2766 12.8402 48.5446 12.8402ZM48.5446 11.5802C47.0186 11.5802 45.8286 10.4322 45.8286 7.98222V5.93822C45.8286 3.48822 47.0186 2.34022 48.5446 2.34022C50.0706 2.34022 51.2606 3.48822 51.2606 5.93822V7.98222C51.2606 10.4322 50.0706 11.5802 48.5446 11.5802ZM55.5954 15.0662L56.1694 11.0202H54.7554L54.4474 15.0662H55.5954ZM62.2164 12.8402C64.4844 12.8402 66.3464 11.2162 66.3464 8.05222V5.85422C66.3464 2.71822 64.4844 1.08022 62.2164 1.08022C59.9484 1.08022 58.1004 2.71822 58.1004 5.85422V8.05222C58.1004 11.2162 59.9484 12.8402 62.2164 12.8402ZM62.2164 11.5802C60.6904 11.5802 59.5004 10.4322 59.5004 7.98222V5.93822C59.5004 3.48822 60.6904 2.34022 62.2164 2.34022C63.7424 2.34022 64.9324 3.48822 64.9324 5.93822V7.98222C64.9324 10.4322 63.7424 11.5802 62.2164 11.5802ZM72.3473 12.8402C74.6153 12.8402 76.4773 11.2162 76.4773 8.05222V5.85422C76.4773 2.71822 74.6153 1.08022 72.3473 1.08022C70.0793 1.08022 68.2313 2.71822 68.2313 5.85422V8.05222C68.2313 11.2162 70.0793 12.8402 72.3473 12.8402ZM72.3473 11.5802C70.8213 11.5802 69.6313 10.4322 69.6313 7.98222V5.93822C69.6313 3.48822 70.8213 2.34022 72.3473 2.34022C73.8733 2.34022 75.0633 3.48822 75.0633 5.93822V7.98222C75.0633 10.4322 73.8733 11.5802 72.3473 11.5802ZM82.4782 12.8402C84.7462 12.8402 86.6082 11.2162 86.6082 8.05222V5.85422C86.6082 2.71822 84.7462 1.08022 82.4782 1.08022C80.2102 1.08022 78.3622 2.71822 78.3622 5.85422V8.05222C78.3622 11.2162 80.2102 12.8402 82.4782 12.8402ZM82.4782 11.5802C80.9522 11.5802 79.7622 10.4322 79.7622 7.98222V5.93822C79.7622 3.48822 80.9522 2.34022 82.4782 2.34022C84.0042 2.34022 85.1942 3.48822 85.1942 5.93822V7.98222C85.1942 10.4322 84.0042 11.5802 82.4782 11.5802ZM94.191 9.63422H97.817V10.7402H99.203V0.394224H97.817V8.57022H94.191V9.63422ZM92.343 5.61622C94.303 5.61622 95.829 4.80422 95.829 3.23622V3.06822C95.829 1.48622 94.303 0.674224 92.343 0.674224C90.369 0.674224 88.843 1.48622 88.843 3.06822V3.23622C88.843 4.80422 90.369 5.61622 92.343 5.61622ZM90.173 3.09622C90.173 2.27022 91.083 1.82222 92.343 1.82222C93.589 1.82222 94.499 2.27022 94.499 3.09622V3.20822C94.499 4.02022 93.589 4.46822 92.343 4.46822C91.083 4.46822 90.173 4.02022 90.173 3.20822V3.09622ZM92.665 9.92822C92.749 9.18622 92.805 8.44422 92.847 7.75822C94.219 7.68822 95.647 7.56222 96.879 7.39422L96.739 6.24622C94.681 6.49822 92.161 6.65222 90.551 6.65222H88.213L88.269 7.82822H90.439C90.775 7.82822 91.125 7.82822 91.503 7.81422C91.447 8.45822 91.391 9.15822 91.321 9.83022L92.665 9.92822ZM91.867 10.3902H90.481V13.3862H99.749V12.1122H91.867V10.3902Z" fill="black"/>
</svg>
