<svg width="87" height="16" viewBox="0 0 87 16" fill="none" xmlns="http://www.w3.org/2000/svg">
<path d="M5.166 13.0721V1.73212H3.976L0.392 4.58812L1.19 5.63812L3.766 3.58012V13.0721H5.166ZM8.65988 15.5081L9.23388 11.4621H7.81988L7.51188 15.5081H8.65988ZM17.9689 9.54412V1.73212H16.0929L10.8849 9.68412V10.8321H16.5829V13.2821H17.9689V10.8321H19.7189V9.54412H17.9689ZM16.5829 3.32812V9.54412H12.5649L16.5829 3.32812ZM25.3024 13.2821C27.5704 13.2821 29.4324 11.6581 29.4324 8.49412V6.29612C29.4324 3.16012 27.5704 1.52212 25.3024 1.52212C23.0344 1.52212 21.1864 3.16012 21.1864 6.29612V8.49412C21.1864 11.6581 23.0344 13.2821 25.3024 13.2821ZM25.3024 12.0221C23.7764 12.0221 22.5864 10.8741 22.5864 8.42412V6.38012C22.5864 3.93012 23.7764 2.78212 25.3024 2.78212C26.8284 2.78212 28.0184 3.93012 28.0184 6.38012V8.42412C28.0184 10.8741 26.8284 12.0221 25.3024 12.0221ZM35.4332 13.2821C37.7012 13.2821 39.5632 11.6581 39.5632 8.49412V6.29612C39.5632 3.16012 37.7012 1.52212 35.4332 1.52212C33.1652 1.52212 31.3172 3.16012 31.3172 6.29612V8.49412C31.3172 11.6581 33.1652 13.2821 35.4332 13.2821ZM35.4332 12.0221C33.9072 12.0221 32.7172 10.8741 32.7172 8.42412V6.38012C32.7172 3.93012 33.9072 2.78212 35.4332 2.78212C36.9592 2.78212 38.1492 3.93012 38.1492 6.38012V8.42412C38.1492 10.8741 36.9592 12.0221 35.4332 12.0221ZM42.4841 15.5081L43.0581 11.4621H41.6441L41.3361 15.5081H42.4841ZM49.1051 13.2821C51.3731 13.2821 53.2351 11.6581 53.2351 8.49412V6.29612C53.2351 3.16012 51.3731 1.52212 49.1051 1.52212C46.8371 1.52212 44.9891 3.16012 44.9891 6.29612V8.49412C44.9891 11.6581 46.8371 13.2821 49.1051 13.2821ZM49.1051 12.0221C47.5791 12.0221 46.3891 10.8741 46.3891 8.42412V6.38012C46.3891 3.93012 47.5791 2.78212 49.1051 2.78212C50.6311 2.78212 51.8211 3.93012 51.8211 6.38012V8.42412C51.8211 10.8741 50.6311 12.0221 49.1051 12.0221ZM59.236 13.2821C61.504 13.2821 63.366 11.6581 63.366 8.49412V6.29612C63.366 3.16012 61.504 1.52212 59.236 1.52212C56.968 1.52212 55.12 3.16012 55.12 6.29612V8.49412C55.12 11.6581 56.968 13.2821 59.236 13.2821ZM59.236 12.0221C57.71 12.0221 56.52 10.8741 56.52 8.42412V6.38012C56.52 3.93012 57.71 2.78212 59.236 2.78212C60.762 2.78212 61.952 3.93012 61.952 6.38012V8.42412C61.952 10.8741 60.762 12.0221 59.236 12.0221ZM69.3668 13.2821C71.6348 13.2821 73.4968 11.6581 73.4968 8.49412V6.29612C73.4968 3.16012 71.6348 1.52212 69.3668 1.52212C67.0988 1.52212 65.2508 3.16012 65.2508 6.29612V8.49412C65.2508 11.6581 67.0988 13.2821 69.3668 13.2821ZM69.3668 12.0221C67.8408 12.0221 66.6508 10.8741 66.6508 8.42412V6.38012C66.6508 3.93012 67.8408 2.78212 69.3668 2.78212C70.8928 2.78212 72.0828 3.93012 72.0828 6.38012V8.42412C72.0828 10.8741 70.8928 12.0221 69.3668 12.0221ZM81.0797 10.0761H84.7057V11.1821H86.0917V0.836118H84.7057V9.01212H81.0797V10.0761ZM79.2317 6.05812C81.1917 6.05812 82.7177 5.24612 82.7177 3.67812V3.51012C82.7177 1.92812 81.1917 1.11612 79.2317 1.11612C77.2577 1.11612 75.7317 1.92812 75.7317 3.51012V3.67812C75.7317 5.24612 77.2577 6.05812 79.2317 6.05812ZM77.0617 3.53812C77.0617 2.71212 77.9717 2.26412 79.2317 2.26412C80.4777 2.26412 81.3877 2.71212 81.3877 3.53812V3.65012C81.3877 4.46212 80.4777 4.91012 79.2317 4.91012C77.9717 4.91012 77.0617 4.46212 77.0617 3.65012V3.53812ZM79.5537 10.3701C79.6377 9.62812 79.6937 8.88612 79.7357 8.20012C81.1077 8.13012 82.5357 8.00412 83.7677 7.83612L83.6277 6.68812C81.5697 6.94012 79.0497 7.09412 77.4397 7.09412H75.1017L75.1577 8.27012H77.3277C77.6637 8.27012 78.0137 8.27012 78.3917 8.25612C78.3357 8.90012 78.2797 9.60012 78.2097 10.2721L79.5537 10.3701ZM78.7557 10.8321H77.3697V13.8281H86.6377V12.5541H78.7557V10.8321Z" fill="black"/>
</svg>
