<svg width="70" height="25" viewBox="0 0 70 25" fill="none" xmlns="http://www.w3.org/2000/svg">
<path d="M1.862 11.2322C4.046 10.7702 5.502 10.2102 6.356 9.46822L11.326 11.2322L11.788 10.0702L7.14 8.44622C7.252 8.16622 7.322 7.88622 7.35 7.57822H11.116V6.37422H7.378V5.18422H6.006V6.37422H2.156V7.57822H6.02C5.852 8.57222 4.452 9.42622 1.47 10.0422L1.862 11.2322ZM7.336 10.7842H5.95V12.1142H0.532V13.2902H12.74V12.1142H7.336V10.7842ZM5.11 14.3402C3.024 14.3402 1.89 15.1802 1.89 16.4262C1.89 17.6862 3.024 18.5262 5.11 18.5262H8.162C10.248 18.5262 11.382 17.6862 11.382 16.4262C11.382 15.1802 10.248 14.3402 8.162 14.3402H5.11ZM5.432 17.3782C3.948 17.3782 3.29 17.0282 3.29 16.4262C3.29 15.8102 3.948 15.4742 5.432 15.4742H7.854C9.338 15.4742 9.996 15.8102 9.996 16.4262C9.996 17.0282 9.338 17.3782 7.854 17.3782H5.432ZM27.221 10.2802H25.555V5.59022H24.239V18.1202H25.555V11.5542H27.221V18.3862H28.579V5.39422H27.221V10.2802ZM19.143 14.9982V7.63422H22.615V6.34622H17.743V16.2722H19.521C20.949 16.2722 22.125 16.2022 23.371 15.9782L23.231 14.7322C21.943 14.9282 20.823 14.9982 19.717 14.9982H19.143ZM31.8024 10.7142C33.9724 10.3502 35.4284 9.87422 36.2964 9.21622L41.3504 10.7142L41.7564 9.59422L37.1084 8.23622C37.2204 7.98422 37.2904 7.70422 37.3044 7.39622H41.0984V6.23422H37.3464V5.11422H36.0024V6.23422H32.1384V7.39622H36.0024C35.8204 8.33422 34.4344 9.09022 31.4664 9.56622L31.8024 10.7142ZM42.7224 11.2042H30.5144V12.3102H35.9324V13.3182H31.9424V14.3962H39.8384V15.3202H32.0124V18.4562H41.5744V17.3642H33.4124V16.3842H41.2384V13.3182H37.3184V12.3102H42.7224V11.2042ZM53.8698 10.5322C54.1078 9.17422 54.2338 7.74622 54.2338 6.62622V5.80022H45.2878V7.07422H52.8478C52.8338 7.83022 52.7078 9.21622 52.4698 10.5322H43.7898V11.7642H55.9978V10.5322H53.8698ZM54.5138 18.4002V13.3322H45.2878V18.4002H54.5138ZM53.1138 14.5362V17.1682H46.6878V14.5362H53.1138ZM67.0752 8.25022H65.4512V5.53422H64.1492V12.6882H65.4512V9.49622H67.0752V12.6882H68.4052V5.39422H67.0752V8.25022ZM62.8472 8.82422C62.8472 6.71022 61.6572 5.67422 60.0752 5.67422C58.4792 5.67422 57.2892 6.71022 57.2892 8.82422V9.04822C57.2892 11.1482 58.4792 12.1842 60.0752 12.1842C61.6572 12.1842 62.8472 11.1482 62.8472 9.04822V8.82422ZM58.5772 8.83822C58.5772 7.57822 59.2212 6.90622 60.0752 6.90622C60.9152 6.90622 61.5592 7.57822 61.5592 8.83822V9.02022C61.5592 10.2802 60.9152 10.9522 60.0752 10.9522C59.2212 10.9522 58.5772 10.2802 58.5772 9.02022V8.83822ZM67.0052 14.7742V18.5262H68.4052V13.5002H59.5992V14.7742H67.0052Z" fill="#333333"/>
</svg>
