<svg width="82" height="14" viewBox="0 0 82 14" fill="none" xmlns="http://www.w3.org/2000/svg">
<path d="M10.662 13.6164V0.624449H9.262V13.6164H10.662ZM3.48 11.9224C5.356 11.9224 6.91 10.6904 6.91 7.56845V5.59445C6.91 2.47245 5.356 1.24045 3.48 1.24045C1.576 1.24045 0.0220001 2.47245 0.0220001 5.59445V7.56845C0.0220001 10.6904 1.576 11.9224 3.48 11.9224ZM3.48 10.6484C2.332 10.6484 1.422 9.80845 1.422 7.55445V5.60845C1.422 3.34045 2.332 2.51445 3.48 2.51445C4.628 2.51445 5.524 3.34045 5.524 5.60845V7.55445C5.524 9.80845 4.628 10.6484 3.48 10.6484ZM22.5514 4.99245V10.3544H23.9514V0.624449H22.5514V3.76045H19.8914V1.24045H18.5474V3.38245H14.7954V1.24045H13.4514V8.01645H19.8914V4.99245H22.5514ZM14.7954 4.60045H18.5474V6.78445H14.7954V4.60045ZM16.7554 9.61245H15.3554V13.6164H24.4974V12.3424H16.7554V9.61245ZM36.4848 0.624449H35.0848V6.96645H36.4848V4.34845H38.5008V3.06045H36.4848V0.624449ZM33.7688 5.02045C32.1448 5.25845 30.3248 5.41245 28.8828 5.41245H27.8048V2.38845H32.7048V1.17045H26.3908V6.61645H28.6308C30.4508 6.61645 32.3688 6.44845 33.9228 6.18245L33.7688 5.02045ZM36.4848 11.2644V7.77845H28.0988V8.94045H35.0848V10.1164H28.1688V13.6864H36.9608V12.4964H29.5548V11.2644H36.4848ZM49.5938 8.59045H53.5138V1.42245H52.1138V3.80245H45.6878V1.42245H44.2878V8.59045H48.2078V11.3624H42.7898V12.6504H54.9978V11.3624H49.5938V8.59045ZM52.1138 5.06245V7.33045H45.6878V5.06245H52.1138ZM60.9232 1.77245V0.470449H59.5092V1.77245H56.4292V2.90645H64.0172V1.77245H60.9232ZM65.7952 4.18045H63.9332V5.38445H65.7952V8.08645H67.1952V0.624449H65.7952V4.18045ZM63.4432 5.69245C63.4432 4.27845 62.0292 3.55045 60.2372 3.55045C58.4312 3.55045 57.0172 4.27845 57.0172 5.69245V5.87445C57.0172 7.28845 58.4312 8.01645 60.2372 8.01645C62.0292 8.01645 63.4432 7.28845 63.4432 5.87445V5.69245ZM58.3752 5.73445C58.3752 5.09045 59.1872 4.68445 60.2372 4.68445C61.2732 4.68445 62.0852 5.09045 62.0852 5.73445V5.84645C62.0852 6.49045 61.2732 6.88245 60.2372 6.88245C59.1872 6.88245 58.3752 6.49045 58.3752 5.84645V5.73445ZM67.1952 13.6164V8.89845H58.5992V13.6164H67.1952ZM65.7952 10.0884V12.3984H59.9852V10.0884H65.7952ZM70.8386 4.44645V8.66045H80.3306V7.42845H72.2386V5.67845H80.0646V1.49245H70.7686V2.75245H78.6646V4.44645H70.8386ZM78.3006 9.41645H76.9426V11.3624H73.9606V9.41645H72.6026V11.3624H69.3406V12.6504H81.5486V11.3624H78.3006V9.41645Z" fill="#333333"/>
</svg>
