<svg width="115" height="14" viewBox="0 0 115 14" fill="none" xmlns="http://www.w3.org/2000/svg">
<path d="M7 7C7 8.65685 5.65685 10 4 10C2.34315 10 1 8.65685 1 7C1 5.34315 2.34315 4 4 4C5.65685 4 7 5.34315 7 7Z" fill="white" stroke="#5725E0" stroke-width="2"/>
<path d="M17.97 6.28L18.28 5.68L14.89 3.97C15.06 3.64 15.14 3.29 15.14 2.92V2.4H14.44V2.92C14.44 4 13.34 4.92 11.19 5.65L11.44 6.28C12.91 5.78 13.91 5.2 14.5 4.53L17.97 6.28ZM10.42 7.84H14.39V9.72H15.1V7.84H19.06V7.18H10.42V7.84ZM11.59 8.82V11.5H18.1V10.84H12.31V8.82H11.59ZM27.1824 5.88V2.27H26.4724V11.5H27.1824V6.54H28.7124V5.88H27.1824ZM22.8824 3.71H24.9724V3.06H20.1124V3.71H22.1824V4.24C22.1824 6.52 21.2724 8.1 19.7524 9.74L20.2724 10.22C21.2124 9.21 21.9024 8.21 22.3424 7.13L24.7924 10.12L25.3424 9.64L22.6124 6.33C22.7924 5.67 22.8824 4.98 22.8824 4.24V3.71ZM36.6648 2.27H35.9448V9.28H36.6648V5.38H38.1948V4.72H36.6648V2.27ZM34.4348 7.61L34.8448 7.07L32.1248 4.94C32.2948 4.45 32.3848 3.93 32.3848 3.37V2.65H31.6848V3.37C31.6848 4.96 30.8248 6.16 29.2148 7.25L29.6048 7.8C30.6348 7.12 31.3748 6.39 31.8348 5.57L34.4348 7.61ZM30.9248 8.69V11.5H37.1848V10.84H31.6348V8.69H30.9248Z" fill="#999999"/>
<path d="M64.7 5.88V2.27H63.99V11.5H64.7V6.54H66.23V5.88H64.7ZM60.4 3.71H62.49V3.06H57.63V3.71H59.7V4.24C59.7 6.52 58.79 8.1 57.27 9.74L57.79 10.22C58.73 9.21 59.42 8.21 59.86 7.13L62.31 10.12L62.86 9.64L60.13 6.33C60.31 5.67 60.4 4.98 60.4 4.24V3.71ZM74.1824 2.27H73.4624V9.28H74.1824V5.38H75.7124V4.72H74.1824V2.27ZM71.9524 7.61L72.3624 7.07L69.6424 4.94C69.8124 4.45 69.9024 3.93 69.9024 3.37V2.65H69.2024V3.37C69.2024 4.96 68.3424 6.16 66.7324 7.25L67.1224 7.8C68.1524 7.12 68.8924 6.39 69.3524 5.57L71.9524 7.61ZM68.4424 8.69V11.5H74.7024V10.84H69.1524V8.69H68.4424Z" fill="#999999"/>
<path d="M103.23 2.72V4.15H98.25V2.72H97.54V6.83H103.95V2.72H103.23ZM98.25 4.8H103.23V6.19H98.25V4.8ZM96.42 8.21V8.87H100.39V11.6H101.1V8.87H105.06V8.21H96.42ZM113.112 5.88H111.682V2.42H110.992V11.33H111.682V6.54H113.112V11.5H113.812V2.27H113.112V5.88ZM108.452 4.5H110.152V3.85H108.452V2.28H107.752V3.85H106.082V4.5H107.752V4.64C107.752 6.64 107.072 8.16 105.802 9.77L106.342 10.22C107.102 9.26 107.652 8.33 108.002 7.36L109.872 10.11L110.442 9.68L108.252 6.49C108.382 5.9 108.452 5.29 108.452 4.64V4.5Z" fill="#999999"/>
<rect x="46" y="3" width="8" height="8" rx="2" fill="#815AED"/>
<rect x="85" y="3" width="8" height="8" rx="2" fill="#E0D6FD"/>
</svg>
