<svg width="68" height="44" viewBox="0 0 68 44" fill="none" xmlns="http://www.w3.org/2000/svg">
<path d="M12.888 0.109148V12.5471H15.192V0.109148H12.888ZM10.188 9.95515L11.484 8.19115L6.858 4.77115C7.128 3.90715 7.272 2.98915 7.272 2.01715V0.703148H5.022V2.01715C5.022 4.44715 3.852 6.51715 0.774 8.51515L2.052 10.2971C3.744 9.19915 5.022 8.04715 5.886 6.75115L10.188 9.95515ZM6.084 11.4851H3.78V16.9211H15.804V14.8331H6.084V11.4851ZM29.4344 6.17515C30.8744 5.72515 31.7744 4.78915 31.7744 3.34915C31.7744 1.26115 29.8304 0.253148 27.0764 0.253148H24.1424C21.3704 0.253148 19.4444 1.26115 19.4444 3.34915C19.4444 4.77115 20.3264 5.72515 21.7664 6.17515V7.79515H17.6804V9.73915H33.5204V7.79515H29.4344V6.17515ZM21.7304 3.36715C21.7304 2.55715 22.7564 2.16115 24.5744 2.16115H26.6444C28.4444 2.16115 29.4704 2.55715 29.4704 3.36715C29.4704 4.19515 28.4444 4.60915 26.6444 4.60915H24.5744C22.7564 4.60915 21.7304 4.19515 21.7304 3.36715ZM23.9264 6.49915H27.2744V7.79515H23.9264V6.49915ZM23.6024 10.8731C20.9204 10.8731 19.3544 12.2051 19.3544 13.9871C19.3544 15.7871 20.9204 17.1011 23.6024 17.1011H27.5984C30.2984 17.1011 31.8644 15.7871 31.8644 13.9871C31.8644 12.2051 30.2984 10.8731 27.5984 10.8731H23.6024ZM24.0344 15.1031C22.3604 15.1031 21.6404 14.6711 21.6404 13.9691C21.6404 13.2671 22.3604 12.8531 24.0344 12.8531H27.1844C28.8584 12.8531 29.5604 13.2671 29.5604 13.9691C29.5604 14.6711 28.8584 15.1031 27.1844 15.1031H24.0344ZM47.0247 3.58315H44.0727V5.54515H47.0247V9.18115H49.3287V0.109148H47.0247V3.58315ZM44.1987 9.16315L45.3147 7.27315L40.8687 4.69915C41.0667 4.12315 41.1747 3.49315 41.2107 2.84515H44.6847V0.829147H35.5227V2.84515H38.9787C38.8707 4.69915 37.6647 6.13915 34.8567 7.56115L35.9187 9.43315C37.7007 8.56915 38.9967 7.61515 39.8787 6.51715L44.1987 9.16315ZM49.3287 16.9211V10.0991H37.8987V16.9211H49.3287ZM47.0247 12.1331V14.8691H40.2027V12.1331H47.0247ZM65.6771 8.65915L66.7571 6.69715L60.5651 3.45715C60.8531 2.75515 60.9791 2.03515 60.9791 1.27915V0.289148H58.6751V1.27915C58.6751 3.20515 57.0911 5.00515 52.7171 6.66115L53.6351 8.65915C56.2991 7.70515 58.1531 6.58915 59.3231 5.32915L65.6771 8.65915ZM51.8171 10.3151V12.4031H58.5851V17.1011H60.8891V12.4031H67.6571V10.3151H51.8171ZM9.684 31.7251H10.044C12.762 31.7251 14.706 30.9151 14.706 28.9171C14.706 26.9731 12.762 26.1631 10.044 26.1631H7.02C4.302 26.1631 2.376 26.9731 2.376 28.9171C2.376 30.9151 4.302 31.7251 7.02 31.7251H7.38V32.8051H0.612V34.6231H16.452V32.8051H9.684V31.7251ZM4.662 28.9531C4.662 28.2511 5.688 27.9631 7.488 27.9631H9.594C11.394 27.9631 12.402 28.2511 12.402 28.9531C12.402 29.6371 11.394 29.9431 9.594 29.9431H7.488C5.688 29.9431 4.662 29.6551 4.662 28.9531ZM14.616 40.1671V35.6491H2.376V37.4491H12.312V38.4031H2.466V43.0111H15.066V41.1751H4.752V40.1671H14.616ZM32.2604 42.9211V26.1091H29.9564V42.9211H32.2604ZM21.9824 40.5991C24.3224 40.5991 26.6624 40.4011 28.6064 40.0231L28.3184 38.0431C26.3024 38.3671 24.1964 38.5291 22.3964 38.5291H20.7944V34.8391H26.8244V27.2611H18.5084V29.3311H24.5204V32.8231H18.5084V40.5991H21.9824ZM47.0247 42.9211H49.3287V26.1091H47.0247V42.9211ZM41.8047 29.4571C41.8047 32.6431 39.8067 36.4051 35.3607 39.1951L36.7647 41.0131C41.5167 37.9351 44.1447 33.7951 44.1447 29.0071V27.3511H35.8467V29.4571H41.8047Z" fill="black"/>
</svg>
