<svg width="125" height="42" viewBox="0 0 125 42" fill="none" xmlns="http://www.w3.org/2000/svg">
<path d="M12.496 6.2V0.615999H10.896V15.464H12.496V7.656H14.784V6.2H12.496ZM5.568 1.48H4V3.416C4 6.968 2.816 9.704 0.24 12.392L1.376 13.448C2.816 11.944 3.856 10.408 4.544 8.76L8.16 13.288L9.36 12.28L5.136 7C5.424 5.864 5.568 4.664 5.568 3.416V1.48ZM26.8999 15.464H28.4999V0.615999H26.8999V15.464ZM21.5239 2.312V0.631999H19.9239V2.312H16.3399V3.64H25.1079V2.312H21.5239ZM21.5239 10.376C23.1879 10.152 24.4359 9.192 24.4359 7.592V7.352C24.4359 5.528 22.7879 4.536 20.7399 4.536C18.6599 4.536 17.0279 5.528 17.0279 7.352V7.592C17.0279 9.192 18.2599 10.152 19.9399 10.376V12.136C19.4599 12.152 19.0119 12.168 18.6119 12.168H15.9239L16.0039 13.624H18.4679C20.6439 13.624 23.5559 13.448 25.8279 13.128L25.6519 11.704C24.3559 11.864 22.8839 11.992 21.5239 12.072V10.376ZM18.5799 7.368C18.5799 6.392 19.5239 5.816 20.7399 5.816C21.9239 5.816 22.8679 6.392 22.8679 7.368V7.576C22.8679 8.568 21.9239 9.144 20.7399 9.144C19.5239 9.144 18.5799 8.568 18.5799 7.576V7.368ZM32.5038 10.184C34.9198 9.192 36.5838 8.088 37.5918 6.904L43.2558 10.184L44.0398 8.792L38.4237 5.624C38.6638 5.096 38.7758 4.552 38.7917 4.008H43.2078V2.552H38.7917V0.759999H37.1918V2.552H32.6638V4.008H37.1918C37.1278 5.672 35.3998 7.256 31.8158 8.76L32.5038 10.184ZM38.7278 9.72H37.1438V12.872H30.9518V14.328H44.9038V12.872H38.7278V9.72ZM58.8596 11.736V0.615999H57.2756V2.488H53.6596V3.752H57.2756V5.368H53.6596V6.632H57.2756V11.736H58.8596ZM54.7476 7.272C53.0196 7.528 51.2116 7.672 49.7236 7.672H48.6996V1.4H47.0996V9.128H49.4676C51.3556 9.128 53.2756 8.968 54.9236 8.68L54.7476 7.272ZM50.6356 10.808H49.0356V15.464H59.4836V14.008H50.6356V10.808ZM72.7195 5.144V8.712H74.2395V0.615999H72.7195V3.736H70.8795V0.775999H69.3915V8.568H70.8795V5.144H72.7195ZM68.7355 7.208L65.4395 4.36C65.6475 3.656 65.7595 2.904 65.7595 2.104V1.096H64.2235V2.104C64.2235 4.136 63.2635 5.944 61.1675 7.48L62.0795 8.68C63.2955 7.8 64.2075 6.856 64.8315 5.768L67.8075 8.36L68.7355 7.208ZM67.5195 9.496C65.3435 9.496 63.9675 10.776 63.9675 12.552C63.9675 14.344 65.3435 15.624 67.5195 15.624H70.8795C73.0555 15.624 74.4315 14.344 74.4315 12.552C74.4315 10.776 73.0555 9.496 70.8795 9.496H67.5195ZM67.7755 14.184C66.2875 14.184 65.5515 13.496 65.5515 12.552C65.5515 11.608 66.2875 10.92 67.7755 10.92H70.6235C72.1115 10.92 72.8475 11.608 72.8475 12.552C72.8475 13.496 72.1115 14.184 70.6235 14.184H67.7755ZM84.6434 5.544C87.1234 5.544 88.7874 4.824 88.7874 3.096C88.7874 1.4 87.1234 0.695999 84.6434 0.695999H82.2594C79.7794 0.695999 78.0994 1.4 78.0994 3.096C78.0994 4.824 79.7794 5.544 82.2594 5.544H84.6434ZM82.5634 4.28C80.7074 4.28 79.6994 3.912 79.6994 3.112C79.6994 2.328 80.7074 1.976 82.5634 1.976H84.3394C86.1954 1.976 87.2034 2.328 87.2034 3.112C87.2034 3.896 86.1954 4.28 84.3394 4.28H82.5634ZM90.4194 7.912V6.616H76.4674V7.912H90.4194ZM89.1074 15.544V14.232H79.7794V12.936H88.7234V9.144H78.0994V10.408H87.1234V11.672H78.1794V15.544H89.1074ZM106.681 15.464H108.281V0.615999H106.681V15.464ZM100.425 8.104C102.649 8.104 104.409 7 104.409 4.76V4.52C104.409 2.264 102.649 1.176 100.425 1.176C98.2011 1.176 96.4251 2.264 96.4251 4.52V4.76C96.4251 7 98.2011 8.104 100.425 8.104ZM98.0251 4.536C98.0251 3.224 99.0491 2.568 100.425 2.568C101.801 2.568 102.825 3.224 102.825 4.536V4.728C102.825 6.04 101.801 6.696 100.425 6.696C99.0491 6.696 98.0251 6.04 98.0251 4.728V4.536ZM105.433 9.304C103.113 9.576 100.217 9.768 98.3931 9.768H95.7051L95.7851 11.208H98.2491C98.6811 11.208 99.1611 11.208 99.6411 11.192C99.5451 12.536 99.4011 13.848 99.2091 15.4L100.777 15.576C100.985 13.96 101.129 12.536 101.225 11.128C102.729 11.048 104.281 10.92 105.609 10.728L105.433 9.304ZM115.917 2.088V0.44H114.301V2.088H110.765V3.432H119.453V2.088H115.917ZM122.621 0.615999H121.021V11.88H122.621V6.408H124.925V4.952H122.621V0.615999ZM118.797 7.096C118.797 5.272 117.181 4.312 115.133 4.312C113.069 4.312 111.453 5.272 111.453 7.096V7.336C111.453 9.144 113.069 10.136 115.133 10.136C117.181 10.136 118.797 9.144 118.797 7.336V7.096ZM113.021 7.128C113.021 6.216 113.933 5.656 115.133 5.656C116.317 5.656 117.245 6.216 117.245 7.128V7.304C117.245 8.232 116.317 8.792 115.133 8.792C113.933 8.792 113.021 8.232 113.021 7.304V7.128ZM113.101 11.352V15.464H123.389V14.008H114.701V11.352H113.101ZM12.496 26.616H10.896V34.712H12.496V30.936H14.8V29.48H12.496V26.616ZM0.88 27.256V33.448H8.096V27.256H0.88ZM2.432 32.072V28.632H6.544V32.072H2.432ZM12.656 37.48V36.088H8.624V34.488H6.976V36.088H2.832V37.48H6.96C6.784 38.632 4.96 39.544 2.032 40.248L2.48 41.624C4.704 41.112 6.4 40.424 7.44 39.544L12.864 41.624L13.408 40.264L8.384 38.376C8.512 38.088 8.592 37.8 8.624 37.48H12.656ZM17.3159 33.432C19.7639 32.888 21.4119 32.232 22.4039 31.384L28.1159 33.432L28.6439 32.12L23.2999 30.232C23.4599 29.896 23.5399 29.528 23.5719 29.144H27.8759V27.736H23.6039V26.376H22.0359V27.736H17.6359V29.144H22.0519C21.8759 30.312 20.2759 31.32 16.8519 32.088L17.3159 33.432ZM29.7319 34.136H15.7799V35.48H21.9719V36.92H17.5079V41.464H28.0359V36.92H23.5559V35.48H29.7319V34.136ZM19.0919 40.184V38.168H26.4359V40.184H19.0919ZM42.8398 26.616H41.2398V34.712H42.8398V31.176H45.1438V29.72H42.8398V26.616ZM38.9038 34.36L39.7678 33.112L35.6398 30.312C35.8798 29.624 36.0078 28.872 36.0078 28.072V27.096H34.4557V28.072C34.4557 30.168 33.2718 31.864 30.6478 33.4L31.4958 34.68C33.0638 33.768 34.2158 32.776 34.9518 31.656L38.9038 34.36ZM36.5198 35.496C34.3918 35.496 33.0158 36.776 33.0158 38.552C33.0158 40.344 34.3918 41.624 36.5198 41.624H39.6558C41.8158 41.624 43.1758 40.344 43.1758 38.552C43.1758 36.776 41.8158 35.496 39.6558 35.496H36.5198ZM36.7918 40.184C35.3358 40.184 34.5998 39.496 34.5998 38.552C34.5998 37.608 35.3358 36.92 36.7918 36.92H39.3998C40.8558 36.92 41.5758 37.608 41.5758 38.552C41.5758 39.496 40.8558 40.184 39.3998 40.184H36.7918ZM56.2356 31.128V28.264H58.4436V26.936H47.7556V28.264H49.9796V31.128H47.7556V32.472H58.4436V31.128H56.2356ZM54.6836 28.264V31.128H51.5316V28.264H54.6836ZM60.0756 33.736H46.1236V35.128H52.2996V36.616H47.8356V41.464H58.3796V36.616H53.8996V35.128H60.0756V33.736ZM49.4356 40.136V37.928H56.7796V40.136H49.4356Z" fill="black"/>
</svg>
