<svg width="120" height="41" viewBox="0 0 120 41" fill="none" xmlns="http://www.w3.org/2000/svg">
<rect x="0.5" y="0.577148" width="119" height="39" rx="19.5" fill="#F4F4F4"/>
<path d="M34.2706 20.0931C33.9813 20.6811 33.5846 21.2551 33.0806 21.8151C32.5766 22.3658 32.0213 22.8418 31.4146 23.2431L30.5466 22.2491C31.004 21.9225 31.4146 21.5818 31.7786 21.2271C32.152 20.8631 32.4693 20.4945 32.7306 20.1211C32.992 19.7385 33.1926 19.3605 33.3326 18.9871C33.482 18.6045 33.5566 18.2311 33.5566 17.8671V16.3131H31.2466V15.1791H37.1546V16.3131H34.9846V17.8671C34.9846 18.2218 35.05 18.5905 35.1806 18.9731C35.3206 19.3465 35.512 19.7198 35.7546 20.0931C36.0066 20.4571 36.31 20.8165 36.6646 21.1711C37.0193 21.5165 37.416 21.8291 37.8546 22.1091L36.9866 23.1031C36.716 22.9351 36.4453 22.7345 36.1746 22.5011C35.904 22.2678 35.6473 22.0205 35.4046 21.7591C35.1713 21.4885 34.952 21.2131 34.7466 20.9331C34.5506 20.6438 34.392 20.3638 34.2706 20.0931ZM38.5406 14.4651H39.9406V18.3571H41.6346V19.5331H39.9406V26.3371H38.5406V14.4651ZM45.727 18.6651C45.4563 19.1878 45.0643 19.6825 44.551 20.1491C44.047 20.6065 43.487 20.9985 42.871 21.3251L42.185 20.3451C42.6143 20.0931 43.0063 19.8178 43.361 19.5191C43.7157 19.2205 44.0143 18.9125 44.257 18.5951C44.4997 18.2685 44.6863 17.9371 44.817 17.6011C44.957 17.2558 45.027 16.9198 45.027 16.5931V14.8011H46.441V16.5931C46.441 16.9385 46.511 17.2838 46.651 17.6291C46.791 17.9651 46.987 18.2918 47.239 18.6091C47.491 18.9171 47.785 19.2111 48.121 19.4911C48.457 19.7618 48.821 19.9998 49.213 20.2051L48.527 21.1851C47.9763 20.9238 47.449 20.5738 46.945 20.1351C46.441 19.6871 46.035 19.1971 45.727 18.6651ZM44.173 22.3051H45.573V24.9091C45.573 25.0118 45.5823 25.0725 45.601 25.0911C45.629 25.1191 45.6897 25.1331 45.783 25.1331H51.705V26.2671H44.971C44.439 26.2671 44.173 26.0058 44.173 25.4831V22.3051ZM50.025 23.0191V14.4651H51.425V17.3631H53.119V18.5391H51.425V23.0191H50.025ZM59.0174 19.0851C58.868 19.2811 58.658 19.4771 58.3874 19.6731C58.126 19.8598 57.818 20.0371 57.4634 20.2051C57.1087 20.3638 56.7167 20.5085 56.2874 20.6391C55.858 20.7698 55.41 20.8678 54.9434 20.9331L54.5654 19.8411C55.116 19.7291 55.6154 19.5938 56.0634 19.4351C56.5207 19.2765 56.908 19.1085 57.2254 18.9311C57.552 18.7445 57.804 18.5578 57.9814 18.3711C58.1587 18.1751 58.2474 17.9838 58.2474 17.7971V17.6431H55.2094V16.5511H62.8394V17.6431H59.7874V17.7971C59.7874 17.9838 59.876 18.1751 60.0534 18.3711C60.2307 18.5578 60.478 18.7445 60.7954 18.9311C61.122 19.1085 61.5094 19.2765 61.9574 19.4351C62.4147 19.5938 62.9187 19.7291 63.4694 19.8411L63.0914 20.9331C62.6247 20.8678 62.1767 20.7698 61.7474 20.6391C61.318 20.5085 60.926 20.3638 60.5714 20.2051C60.2167 20.0371 59.904 19.8598 59.6334 19.6731C59.372 19.4771 59.1667 19.2811 59.0174 19.0851ZM61.0894 15.6131H56.9594V14.4511H61.0894V15.6131ZM64.2814 22.8511H59.7174V26.3371H58.3174V22.8511H53.7674V21.7031H64.2814V22.8511ZM72.9937 14.4651H74.3937V18.2871H76.0877V19.4351H74.3937V26.3371H72.9937V14.4651ZM65.6577 22.3751C66.4884 21.9645 67.1604 21.5818 67.6737 21.2271C68.1871 20.8725 68.5837 20.5365 68.8637 20.2191C69.1437 19.9018 69.3304 19.5938 69.4237 19.2951C69.5264 18.9871 69.5777 18.6791 69.5777 18.3711V16.3551H65.7557V15.1931H71.0337V18.3151C71.0337 18.8471 70.9544 19.3278 70.7957 19.7571C70.6464 20.1865 70.3851 20.6018 70.0117 21.0031C69.6477 21.4045 69.1624 21.8058 68.5557 22.2071C67.9491 22.5991 67.1931 23.0238 66.2877 23.4811L65.6577 22.3751Z" fill="#666666"/>
<path d="M89.6667 20.7438H85.6667V24.7438H84.3334V20.7438H80.3334V19.4105H84.3334V15.4105H85.6667V19.4105H89.6667V20.7438Z" fill="black"/>
<rect x="0.5" y="0.577148" width="119" height="39" rx="19.5" stroke="#EDEDED"/>
</svg>
