<svg width="165" height="50" viewBox="0 0 165 50" fill="none" xmlns="http://www.w3.org/2000/svg">
<path d="M11.728 12.952H13.328V4.616H11.728V12.952ZM9.376 12.712L10.16 11.4L5.904 8.712C6.128 8.104 6.24 7.448 6.24 6.744H9.584V5.32H1.36V6.744H4.688C4.688 8.76 3.408 10.264 0.768 11.736L1.52 13.016C3.232 12.104 4.464 11.112 5.248 9.992L9.376 12.712ZM11.728 15.336V19.624H13.328V13.88H3.344V15.336H11.728ZM27.6679 4.616H26.0679V12.712H27.6679V9.176H29.9559V7.72H27.6679V4.616ZM23.7799 12.552L24.5799 11.256L20.4839 8.648C20.6919 8.056 20.8039 7.416 20.8039 6.744H24.0039V5.32H16.0679V6.744H19.2519C19.2519 8.696 18.0359 10.168 15.4919 11.592L16.2439 12.872C17.8919 11.992 19.0759 11.032 19.8279 9.944L23.7799 12.552ZM21.3479 13.496C19.2199 13.496 17.8439 14.776 17.8439 16.552C17.8439 18.344 19.2199 19.624 21.3479 19.624H24.4839C26.6439 19.624 28.0039 18.344 28.0039 16.552C28.0039 14.776 26.6439 13.496 24.4839 13.496H21.3479ZM21.6199 18.184C20.1639 18.184 19.4279 17.496 19.4279 16.552C19.4279 15.608 20.1639 14.92 21.6199 14.92H24.2279C25.6839 14.92 26.4199 15.608 26.4199 16.552C26.4199 17.496 25.6839 18.184 24.2279 18.184H21.6199ZM43.6878 15.736V4.616H42.0878V15.736H43.6878ZM35.5118 13.304C37.7038 13.304 39.4798 12.008 39.4798 9.32V9.016C39.4798 6.296 37.7038 5.016 35.5118 5.016C33.3038 5.016 31.5278 6.296 31.5278 9.016V9.32C31.5278 12.008 33.3038 13.304 35.5118 13.304ZM35.5118 11.896C34.1678 11.896 33.1278 11.032 33.1278 9.288V9.032C33.1278 7.272 34.1678 6.424 35.5118 6.424C36.8398 6.424 37.8798 7.272 37.8798 9.032V9.288C37.8798 11.032 36.8398 11.896 35.5118 11.896ZM44.3118 19.464V18.008H35.4638V14.648H33.8638V19.464H44.3118ZM58.1895 11.96C60.7975 11.96 62.4935 10.6 62.4935 8.504C62.4935 6.44 60.7975 5.096 58.1895 5.096H55.8535C53.2615 5.096 51.5655 6.44 51.5655 8.504C51.5655 10.6 53.2615 11.96 55.8535 11.96H58.1895ZM57.9175 6.488C59.7895 6.488 60.9095 7.272 60.9095 8.52C60.9095 9.752 59.7895 10.568 57.9175 10.568H56.1415C54.2535 10.568 53.1655 9.768 53.1655 8.52C53.1655 7.272 54.2535 6.488 56.1415 6.488H57.9175ZM50.0455 13.848V15.304H56.2375V19.624H57.8215V15.304H63.9975V13.848H50.0455ZM76.6254 10.2H74.7214V4.84H73.2174V19.16H74.7214V11.656H76.6254V19.464H78.1774V4.616H76.6254V10.2ZM67.3934 15.592V7.176H71.3614V5.704H65.7934V17.048H67.8254C69.4574 17.048 70.8014 16.968 72.2254 16.712L72.0654 15.288C70.5934 15.512 69.3134 15.592 68.0494 15.592H67.3934ZM91.5093 7.992H88.5972V9.368H91.5093V12.952H93.1093V4.616H91.5093V7.992ZM88.9013 12.792L89.7173 11.496L85.5573 8.776C85.7813 8.152 85.8933 7.48 85.8933 6.76V6.744H89.1413V5.32H81.1413V6.744H84.3413V6.76C84.3413 8.792 83.1093 10.28 80.5493 11.752L81.3173 13.016C82.9493 12.12 84.1333 11.16 84.8853 10.056L88.9013 12.792ZM91.5093 15.336V19.624H93.1093V13.88H83.1253V15.336H91.5093ZM107.081 10.488C107.353 8.936 107.497 7.304 107.497 6.024V5.08H97.2731V6.536H105.913C105.897 7.4 105.753 8.984 105.481 10.488H95.5611V11.896H109.513V10.488H107.081ZM107.817 19.48V13.688H97.2731V19.48H107.817ZM106.217 15.064V18.072H98.8731V15.064H106.217Z" fill="black"/>
<path d="M9 43.8H9.852V32.724H9V43.8ZM1.212 39.6C2.472 38.868 3.396 38.088 3.96 37.2L7.044 39.48L7.512 38.772L4.32 36.444C4.488 36.012 4.572 35.532 4.572 35.028H7.128V34.26H4.572V32.736H3.72V34.26H1.164V35.028H3.708C3.708 36.612 2.628 37.788 0.792 38.892L1.212 39.6ZM4.548 39.252H3.684V41.28C3.288 41.292 2.928 41.304 2.616 41.304H0.6L0.648 42.096H2.568C4.2 42.096 6.372 41.94 8.04 41.712L7.944 40.944C6.888 41.088 5.664 41.184 4.548 41.244V39.252ZM20.5469 37.056H18.8309V32.904H18.0029V43.596H18.8309V37.848H20.5469V43.8H21.3869V32.724H20.5469V37.056ZM13.2029 41.172V34.404H16.4189V33.612H12.3389V41.952H13.6589C14.9909 41.952 16.0709 41.88 17.1749 41.688L17.0789 40.92C15.9029 41.1 14.8589 41.172 13.7909 41.172H13.2029ZM29.8398 43.164V33.516H29.0718L26.0478 35.964L26.5518 36.6L28.9638 34.644V43.164H29.8398ZM38.3959 43.164V42.372H33.2239L36.1759 39.432C37.3879 38.22 38.1319 37.212 38.1319 35.892C38.1319 34.332 36.9439 33.336 35.1439 33.336C33.3799 33.336 32.3719 34.632 31.9879 36.012L32.8159 36.216C33.1639 35.088 33.8119 34.128 35.1439 34.128C36.4759 34.128 37.2799 34.812 37.2799 35.904C37.2799 36.912 36.7279 37.74 35.5399 38.928L31.9519 42.492V43.164H38.3959ZM48.4141 37.056H46.6981V32.904H45.8581V43.596H46.6981V37.848H48.4141V43.8H49.2541V32.724H48.4141V37.056ZM43.5061 34.452V34.692C43.5061 37.284 42.1501 39.876 40.0261 41.772L40.6381 42.396C42.8821 40.32 44.3581 37.656 44.3581 34.524V33.672H40.2301V34.452H43.5061ZM56.265 38.556H59.625V39.024H60.489V32.724H59.625V37.908H56.265V38.556ZM54.765 36.06C56.385 36.06 57.657 35.508 57.657 34.524V34.44C57.657 33.456 56.385 32.916 54.765 32.916C53.145 32.916 51.873 33.456 51.873 34.44V34.524C51.873 35.508 53.145 36.06 54.765 36.06ZM52.701 34.464C52.701 33.96 53.553 33.612 54.765 33.612C55.977 33.612 56.841 33.96 56.841 34.464V34.5C56.841 35.016 55.977 35.352 54.765 35.352C53.553 35.352 52.701 35.016 52.701 34.5V34.464ZM54.213 37.512C54.177 38.028 54.129 38.604 54.069 39.096L54.909 39.168C54.969 38.616 55.017 38.028 55.065 37.476C56.289 37.416 57.585 37.296 58.665 37.152L58.581 36.492C56.841 36.708 54.621 36.828 53.253 36.828H51.237L51.273 37.524H53.205C53.517 37.524 53.865 37.524 54.213 37.512ZM54.093 42.072H60.489V39.624H53.193V40.332H59.637V41.364H53.253V43.86H60.957V43.14H54.093V42.072ZM65.9779 44.844L70.1779 32.316H69.2779L65.0779 44.844H65.9779ZM79.3359 43.8H80.1879V32.724H79.3359V43.8ZM71.5479 39.6C72.8079 38.868 73.7319 38.088 74.2959 37.2L77.3799 39.48L77.8479 38.772L74.6559 36.444C74.8239 36.012 74.9079 35.532 74.9079 35.028H77.4639V34.26H74.9079V32.736H74.0559V34.26H71.4999V35.028H74.0439C74.0439 36.612 72.9639 37.788 71.1279 38.892L71.5479 39.6ZM74.8839 39.252H74.0199V41.28C73.6239 41.292 73.2639 41.304 72.9519 41.304H70.9359L70.9839 42.096H72.9039C74.5359 42.096 76.7079 41.94 78.3759 41.712L78.2799 40.944C77.2239 41.088 75.9999 41.184 74.8839 41.244V39.252ZM90.4628 34.788C90.4628 36 90.2108 38.148 89.8628 40.008L90.7028 40.164C91.0508 38.268 91.3148 36.156 91.3148 34.596V33.66H83.3828V34.44H90.4628V34.788ZM87.0788 37.428H86.2268V42.12H82.2188V42.912H92.5868V42.12H87.0788V37.428ZM105.024 37.464V41.136H105.888V32.724H105.024V34.416H102.36C101.868 33.516 100.932 33.084 99.8757 33.084C98.2797 33.084 96.9957 34.032 96.9957 36V36.252C96.9957 38.208 98.2797 39.144 99.8757 39.144C101.064 39.144 102.096 38.592 102.516 37.464H105.024ZM97.8597 36C97.8597 34.584 98.7117 33.852 99.8757 33.852C101.016 33.852 101.868 34.584 101.868 36V36.24C101.868 37.656 101.016 38.376 99.8757 38.376C98.7117 38.376 97.8597 37.656 97.8597 36.24V36ZM105.024 36.744H102.696C102.708 36.588 102.72 36.42 102.72 36.252V36C102.72 35.7 102.684 35.412 102.636 35.16H105.024V36.744ZM99.6237 40.26H98.7597V43.8H106.404V43.008H99.6237V40.26ZM114.605 36.852C113.549 36.852 112.529 37.332 111.989 38.22V37.668C111.965 35.208 113.033 34.116 114.449 34.116C115.733 34.116 116.429 34.728 116.957 35.808L117.701 35.424C117.065 34.092 115.997 33.336 114.425 33.336C112.745 33.336 111.161 34.524 111.161 37.632V40.044C111.161 42.132 112.613 43.344 114.509 43.344C116.369 43.344 117.869 42.12 117.869 40.092C117.869 38.064 116.369 36.852 114.605 36.852ZM114.509 42.564C113.153 42.564 112.025 41.688 112.025 40.092C112.025 38.496 113.153 37.632 114.509 37.632C115.853 37.632 117.005 38.496 117.005 40.092C117.005 41.688 115.853 42.564 114.509 42.564ZM120.021 43.344C120.393 43.344 120.693 43.044 120.693 42.672C120.693 42.3 120.393 42.012 120.021 42.012C119.649 42.012 119.361 42.3 119.361 42.672C119.361 43.044 119.649 43.344 120.021 43.344ZM125.749 43.344C127.813 43.344 129.193 42.204 129.193 40.572C129.193 39.516 128.473 38.592 127.297 38.148C128.377 37.716 128.893 36.888 128.893 35.892C128.893 34.344 127.621 33.336 125.749 33.336C123.889 33.336 122.605 34.344 122.605 35.892C122.605 36.888 123.121 37.716 124.201 38.148C123.025 38.592 122.305 39.516 122.305 40.572C122.305 42.204 123.697 43.344 125.749 43.344ZM125.749 37.788C124.309 37.788 123.469 37.032 123.469 35.964C123.469 34.884 124.309 34.128 125.749 34.128C127.189 34.128 128.041 34.884 128.041 35.964C128.041 37.032 127.189 37.788 125.749 37.788ZM125.749 42.552C124.129 42.552 123.169 41.724 123.169 40.548C123.169 39.408 124.177 38.556 125.749 38.556C127.321 38.556 128.329 39.408 128.329 40.548C128.329 41.724 127.369 42.552 125.749 42.552ZM132.755 38.556C133.883 38.556 134.807 37.776 134.807 36.384V35.496C134.807 34.128 133.883 33.336 132.755 33.336C131.615 33.336 130.703 34.128 130.703 35.496V36.384C130.703 37.776 131.615 38.556 132.755 38.556ZM133.019 43.164L139.655 33.516H138.659L132.035 43.164H133.019ZM132.755 37.812C132.047 37.812 131.507 37.308 131.507 36.348V35.532C131.507 34.584 132.047 34.08 132.755 34.08C133.463 34.08 134.015 34.584 134.015 35.532V36.348C134.015 37.32 133.463 37.812 132.755 37.812ZM138.839 43.344C139.967 43.344 140.891 42.564 140.891 41.172V40.284C140.891 38.916 139.967 38.124 138.839 38.124C137.699 38.124 136.787 38.916 136.787 40.284V41.172C136.787 42.564 137.699 43.344 138.839 43.344ZM138.839 42.6C138.131 42.6 137.591 42.108 137.591 41.136V40.32C137.591 39.372 138.131 38.868 138.839 38.868C139.547 38.868 140.099 39.372 140.099 40.32V41.136C140.099 42.108 139.547 42.6 138.839 42.6Z" fill="#333333"/>
</svg>
