<svg width="165" height="165" viewBox="0 0 165 165" fill="none" xmlns="http://www.w3.org/2000/svg">
<path d="M9 119.8H9.852V108.724H9V119.8ZM1.212 115.6C2.472 114.868 3.396 114.088 3.96 113.2L7.044 115.48L7.512 114.772L4.32 112.444C4.488 112.012 4.572 111.532 4.572 111.028H7.128V110.26H4.572V108.736H3.72V110.26H1.164V111.028H3.708C3.708 112.612 2.628 113.788 0.792 114.892L1.212 115.6ZM4.548 115.252H3.684V117.28C3.288 117.292 2.928 117.304 2.616 117.304H0.6L0.648 118.096H2.568C4.2 118.096 6.372 117.94 8.04 117.712L7.944 116.944C6.888 117.088 5.664 117.184 4.548 117.244V115.252ZM20.5469 113.056H18.8309V108.904H18.0029V119.596H18.8309V113.848H20.5469V119.8H21.3869V108.724H20.5469V113.056ZM13.2029 117.172V110.404H16.4189V109.612H12.3389V117.952H13.6589C14.9909 117.952 16.0709 117.88 17.1749 117.688L17.0789 116.92C15.9029 117.1 14.8589 117.172 13.7909 117.172H13.2029ZM29.9718 112.852C28.9158 112.852 27.8958 113.332 27.3558 114.22V113.668C27.3318 111.208 28.3998 110.116 29.8158 110.116C31.0998 110.116 31.7958 110.728 32.3238 111.808L33.0678 111.424C32.4318 110.092 31.3638 109.336 29.7918 109.336C28.1118 109.336 26.5278 110.524 26.5278 113.632V116.044C26.5278 118.132 27.9798 119.344 29.8758 119.344C31.7358 119.344 33.2358 118.12 33.2358 116.092C33.2358 114.064 31.7358 112.852 29.9718 112.852ZM29.8758 118.564C28.5198 118.564 27.3918 117.688 27.3918 116.092C27.3918 114.496 28.5198 113.632 29.8758 113.632C31.2198 113.632 32.3718 114.496 32.3718 116.092C32.3718 117.688 31.2198 118.564 29.8758 118.564ZM43.1407 113.056H41.4247V108.904H40.5847V119.596H41.4247V113.848H43.1407V119.8H43.9807V108.724H43.1407V113.056ZM38.2327 110.452V110.692C38.2327 113.284 36.8767 115.876 34.7527 117.772L35.3647 118.396C37.6087 116.32 39.0847 113.656 39.0847 110.524V109.672H34.9567V110.452H38.2327ZM50.9916 114.556H54.3516V115.024H55.2156V108.724H54.3516V113.908H50.9916V114.556ZM49.4916 112.06C51.1116 112.06 52.3836 111.508 52.3836 110.524V110.44C52.3836 109.456 51.1116 108.916 49.4916 108.916C47.8716 108.916 46.5996 109.456 46.5996 110.44V110.524C46.5996 111.508 47.8716 112.06 49.4916 112.06ZM47.4276 110.464C47.4276 109.96 48.2796 109.612 49.4916 109.612C50.7036 109.612 51.5676 109.96 51.5676 110.464V110.5C51.5676 111.016 50.7036 111.352 49.4916 111.352C48.2796 111.352 47.4276 111.016 47.4276 110.5V110.464ZM48.9396 113.512C48.9036 114.028 48.8556 114.604 48.7956 115.096L49.6356 115.168C49.6956 114.616 49.7436 114.028 49.7916 113.476C51.0156 113.416 52.3116 113.296 53.3916 113.152L53.3076 112.492C51.5676 112.708 49.3476 112.828 47.9796 112.828H45.9636L45.9996 113.524H47.9316C48.2436 113.524 48.5916 113.524 48.9396 113.512ZM48.8196 118.072H55.2156V115.624H47.9196V116.332H54.3636V117.364H47.9796V119.86H55.6836V119.14H48.8196V118.072ZM60.7044 120.844L64.9044 108.316H64.0044L59.8044 120.844H60.7044ZM74.0625 119.8H74.9145V108.724H74.0625V119.8ZM66.2745 115.6C67.5345 114.868 68.4585 114.088 69.0225 113.2L72.1065 115.48L72.5745 114.772L69.3825 112.444C69.5505 112.012 69.6345 111.532 69.6345 111.028H72.1905V110.26H69.6345V108.736H68.7825V110.26H66.2265V111.028H68.7705C68.7705 112.612 67.6905 113.788 65.8545 114.892L66.2745 115.6ZM69.6105 115.252H68.7465V117.28C68.3505 117.292 67.9905 117.304 67.6785 117.304H65.6625L65.7105 118.096H67.6305C69.2625 118.096 71.4345 117.94 73.1025 117.712L73.0065 116.944C71.9505 117.088 70.7265 117.184 69.6105 117.244V115.252ZM85.1894 110.788C85.1894 112 84.9374 114.148 84.5894 116.008L85.4294 116.164C85.7774 114.268 86.0414 112.156 86.0414 110.596V109.66H78.1094V110.44H85.1894V110.788ZM81.8054 113.428H80.9534V118.12H76.9454V118.912H87.3134V118.12H81.8054V113.428ZM99.7503 113.464V117.136H100.614V108.724H99.7503V110.416H97.0863C96.5943 109.516 95.6583 109.084 94.6023 109.084C93.0063 109.084 91.7223 110.032 91.7223 112V112.252C91.7223 114.208 93.0063 115.144 94.6023 115.144C95.7903 115.144 96.8223 114.592 97.2423 113.464H99.7503ZM92.5863 112C92.5863 110.584 93.4383 109.852 94.6023 109.852C95.7423 109.852 96.5943 110.584 96.5943 112V112.24C96.5943 113.656 95.7423 114.376 94.6023 114.376C93.4383 114.376 92.5863 113.656 92.5863 112.24V112ZM99.7503 112.744H97.4223C97.4343 112.588 97.4463 112.42 97.4463 112.252V112C97.4463 111.7 97.4103 111.412 97.3623 111.16H99.7503V112.744ZM94.3503 116.26H93.4863V119.8H101.13V119.008H94.3503V116.26ZM109.331 119.344C111.395 119.344 112.775 118.204 112.775 116.572C112.775 115.516 112.055 114.592 110.879 114.148C111.959 113.716 112.475 112.888 112.475 111.892C112.475 110.344 111.203 109.336 109.331 109.336C107.471 109.336 106.187 110.344 106.187 111.892C106.187 112.888 106.703 113.716 107.783 114.148C106.607 114.592 105.887 115.516 105.887 116.572C105.887 118.204 107.279 119.344 109.331 119.344ZM109.331 113.788C107.891 113.788 107.051 113.032 107.051 111.964C107.051 110.884 107.891 110.128 109.331 110.128C110.771 110.128 111.623 110.884 111.623 111.964C111.623 113.032 110.771 113.788 109.331 113.788ZM109.331 118.552C107.711 118.552 106.751 117.724 106.751 116.548C106.751 115.408 107.759 114.556 109.331 114.556C110.903 114.556 111.911 115.408 111.911 116.548C111.911 117.724 110.951 118.552 109.331 118.552ZM116.337 114.556C117.465 114.556 118.389 113.776 118.389 112.384V111.496C118.389 110.128 117.465 109.336 116.337 109.336C115.197 109.336 114.285 110.128 114.285 111.496V112.384C114.285 113.776 115.197 114.556 116.337 114.556ZM116.601 119.164L123.237 109.516H122.241L115.617 119.164H116.601ZM116.337 113.812C115.629 113.812 115.089 113.308 115.089 112.348V111.532C115.089 110.584 115.629 110.08 116.337 110.08C117.045 110.08 117.597 110.584 117.597 111.532V112.348C117.597 113.32 117.045 113.812 116.337 113.812ZM122.421 119.344C123.549 119.344 124.473 118.564 124.473 117.172V116.284C124.473 114.916 123.549 114.124 122.421 114.124C121.281 114.124 120.369 114.916 120.369 116.284V117.172C120.369 118.564 121.281 119.344 122.421 119.344ZM122.421 118.6C121.713 118.6 121.173 118.108 121.173 117.136V116.32C121.173 115.372 121.713 114.868 122.421 114.868C123.129 114.868 123.681 115.372 123.681 116.32V117.136C123.681 118.108 123.129 118.6 122.421 118.6Z" fill="black"/>
<path d="M11.728 90.952H13.328V82.616H11.728V90.952ZM9.376 90.712L10.16 89.4L5.904 86.712C6.128 86.104 6.24 85.448 6.24 84.744H9.584V83.32H1.36V84.744H4.688C4.688 86.76 3.408 88.264 0.768 89.736L1.52 91.016C3.232 90.104 4.464 89.112 5.248 87.992L9.376 90.712ZM11.728 93.336V97.624H13.328V91.88H3.344V93.336H11.728ZM27.6679 82.616H26.0679V90.712H27.6679V87.176H29.9559V85.72H27.6679V82.616ZM23.7799 90.552L24.5799 89.256L20.4839 86.648C20.6919 86.056 20.8039 85.416 20.8039 84.744H24.0039V83.32H16.0679V84.744H19.2519C19.2519 86.696 18.0359 88.168 15.4919 89.592L16.2439 90.872C17.8919 89.992 19.0759 89.032 19.8279 87.944L23.7799 90.552ZM21.3479 91.496C19.2199 91.496 17.8439 92.776 17.8439 94.552C17.8439 96.344 19.2199 97.624 21.3479 97.624H24.4839C26.6439 97.624 28.0039 96.344 28.0039 94.552C28.0039 92.776 26.6439 91.496 24.4839 91.496H21.3479ZM21.6199 96.184C20.1639 96.184 19.4279 95.496 19.4279 94.552C19.4279 93.608 20.1639 92.92 21.6199 92.92H24.2279C25.6839 92.92 26.4199 93.608 26.4199 94.552C26.4199 95.496 25.6839 96.184 24.2279 96.184H21.6199ZM43.6878 93.736V82.616H42.0878V93.736H43.6878ZM35.5118 91.304C37.7038 91.304 39.4798 90.008 39.4798 87.32V87.016C39.4798 84.296 37.7038 83.016 35.5118 83.016C33.3038 83.016 31.5278 84.296 31.5278 87.016V87.32C31.5278 90.008 33.3038 91.304 35.5118 91.304ZM35.5118 89.896C34.1678 89.896 33.1278 89.032 33.1278 87.288V87.032C33.1278 85.272 34.1678 84.424 35.5118 84.424C36.8398 84.424 37.8798 85.272 37.8798 87.032V87.288C37.8798 89.032 36.8398 89.896 35.5118 89.896ZM44.3118 97.464V96.008H35.4638V92.648H33.8638V97.464H44.3118ZM61.1815 82.616V93.736H62.7655V82.616H61.1815ZM58.7335 91.256L59.6295 90.04L55.3095 86.808C55.5815 86.04 55.7095 85.208 55.7095 84.328V83.176H54.1415V84.328C54.1415 86.696 52.9255 88.568 50.2055 90.312L51.0855 91.56C52.7015 90.52 53.8695 89.432 54.6375 88.2L58.7335 91.256ZM54.5415 92.808H52.9575V97.464H63.3895V96.008H54.5415V92.808ZM75.3614 87.96C76.7214 87.576 77.5374 86.76 77.5374 85.48C77.5374 83.656 75.8734 82.776 73.3614 82.776H71.0254C68.5294 82.776 66.8494 83.656 66.8494 85.48C66.8494 86.76 67.6814 87.592 69.0414 87.96V89.592H65.2174V90.968H79.1694V89.592H75.3614V87.96ZM68.4494 85.496C68.4494 84.584 69.4734 84.12 71.3134 84.12H73.0894C74.9294 84.12 75.9534 84.584 75.9534 85.496C75.9534 86.376 74.9294 86.872 73.0894 86.872H71.3134C69.4734 86.872 68.4494 86.392 68.4494 85.496ZM70.5614 88.184C71.6494 88.2 72.7534 88.2 73.8414 88.184V89.592H70.5614V88.184ZM70.4974 92.232C68.0974 92.232 66.7694 93.368 66.7694 94.92C66.7694 96.488 68.0974 97.624 70.4974 97.624H73.8894C76.2894 97.624 77.6174 96.488 77.6174 94.92C77.6174 93.368 76.2894 92.232 73.8894 92.232H70.4974ZM70.8174 96.232C69.1374 96.232 68.3694 95.72 68.3694 94.904C68.3694 94.12 69.1374 93.608 70.8174 93.608H73.5854C75.2654 93.608 76.0334 94.12 76.0334 94.904C76.0334 95.72 75.2654 96.232 73.5854 96.232H70.8174ZM91.7973 88.2H89.8933V82.84H88.3893V97.16H89.8933V89.656H91.7973V97.464H93.3493V82.616H91.7973V88.2ZM82.5653 93.592V85.176H86.5333V83.704H80.9653V95.048H82.9973C84.6293 95.048 85.9733 94.968 87.3973 94.712L87.2373 93.288C85.7653 93.512 84.4852 93.592 83.2213 93.592H82.5653ZM97.0331 88.696C99.5131 88.28 101.177 87.736 102.169 86.984L107.945 88.696L108.409 87.416L103.097 85.864C103.225 85.576 103.305 85.256 103.321 84.904H107.657V83.576H103.369V82.296H101.833V83.576H97.4171V84.904H101.833C101.625 85.976 100.041 86.84 96.6491 87.384L97.0331 88.696ZM109.513 89.256H95.5611V90.52H101.753V91.672H97.1931V92.904H106.217V93.96H97.2731V97.544H108.201V96.296H98.8731V95.176H107.817V91.672H103.337V90.52H109.513V89.256Z" fill="#5725E0"/>
<path d="M10.48 12.56H15.88V5.92H3.08V12.56H8.5V14.48H0.76V16.22H18.2V14.48H10.48V12.56ZM13.88 7.6V10.86H5.08V7.6H13.88ZM14.08 19.9V24.28H16.08V18.12H2.9V19.9H14.08ZM29.4448 13.28H34.8448V11.52H24.0448V7.66H34.6448V5.92H22.0448V13.28H27.4648V15.38H19.7248V17.2H37.1648V15.38H29.4448V13.28ZM22.0448 18.7V24.08H35.3248V22.22H24.0448V18.7H22.0448ZM54.5897 24.08V5.52H52.5897V24.08H54.5897ZM44.3297 21.66C47.0097 21.66 49.2297 19.9 49.2297 15.44V12.62C49.2297 8.16 47.0097 6.4 44.3297 6.4C41.6097 6.4 39.3897 8.16 39.3897 12.62V15.44C39.3897 19.9 41.6097 21.66 44.3297 21.66ZM44.3297 19.84C42.6897 19.84 41.3897 18.64 41.3897 15.42V12.64C41.3897 9.4 42.6897 8.22 44.3297 8.22C45.9697 8.22 47.2497 9.4 47.2497 12.64V15.42C47.2497 18.64 45.9697 19.84 44.3297 19.84ZM76.4769 5.52V14.78H78.4569V5.52H76.4769ZM74.8569 12.04C73.9969 12.16 73.1169 12.28 72.2169 12.36V8.04H74.2369V6.3H63.1769V8.04H65.1769V12.72H62.9169L63.0169 14.42H65.8969C68.6969 14.42 72.1569 14.2 75.0769 13.74L74.8569 12.04ZM70.2769 12.54C69.1569 12.62 68.0769 12.68 67.1169 12.7V8.04H70.2769V12.54ZM68.1769 20.82H78.4569V15.94H66.0969V17.58H76.4769V19.18H66.1969V24.18H79.1369V22.5H68.1769V20.82ZM91.7017 16.42C95.0417 16.42 97.1817 14.28 97.1817 11.42C97.1817 8.62 95.0417 6.48 91.7017 6.48H88.8017C85.4617 6.48 83.3217 8.62 83.3217 11.42C83.3217 14.28 85.4617 16.42 88.8017 16.42H91.7017ZM91.3417 8.26C93.7617 8.26 95.2017 9.58 95.2017 11.44C95.2017 13.32 93.7617 14.64 91.3417 14.64H89.1417C86.7417 14.64 85.3217 13.32 85.3217 11.44C85.3217 9.58 86.7417 8.26 89.1417 8.26H91.3417ZM94.5217 17.48H92.5817V20.86H87.9417V17.48H85.9817V20.86H81.5217V22.68H98.9617V20.86H94.5217V17.48ZM106.967 7.02V5.3H104.947V7.02H100.527V8.62H111.387V7.02H106.967ZM115.347 5.52H113.347V15.16H115.347V11.4H118.227V9.58H115.347V5.52ZM110.567 12.24C110.567 10.36 108.547 9.44 105.987 9.44C103.407 9.44 101.387 10.36 101.387 12.24V12.46C101.387 14.32 103.407 15.26 105.987 15.26C108.547 15.26 110.567 14.32 110.567 12.46V12.24ZM103.347 12.28C103.347 11.52 104.487 11.02 105.987 11.02C107.467 11.02 108.627 11.52 108.627 12.28V12.42C108.627 13.2 107.467 13.68 105.987 13.68C104.487 13.68 103.347 13.2 103.347 12.42V12.28ZM115.347 20.96V16.32H103.347V17.9H113.347V19.42H103.447V24.18H116.007V22.56H105.447V20.96H115.347ZM133.991 12.5H132.031V5.8H130.211V23.7H132.031V14.32H133.991V24.08H135.851V5.52H133.991V12.5ZM121.931 19.22V8.72H124.071V6.88H120.071V21.06H121.071C122.271 21.06 123.211 21 124.311 20.84L124.151 19.08C123.431 19.18 122.651 19.22 122.131 19.22H121.931ZM126.671 19.22V8.72H128.891V6.88H124.791V21.06H126.011C127.051 21.06 128.071 21.04 129.211 20.88L129.071 19.1C128.251 19.18 127.471 19.22 126.931 19.22H126.671ZM14.66 46.22H16.66V35.52H14.66V46.22ZM12.02 42.1L12.76 40.38L7.58 38.32C7.84 37.72 7.96 37.06 7.96 36.34V35.82H6.06V36.34C6.06 38.18 4.68 39.52 1.2 40.7L1.94 42.38C4.02 41.7 5.54 40.88 6.54 39.88L12.02 42.1ZM7.6 46.96C7.66 46.28 7.72 45.58 7.76 44.92C9.66 44.82 11.64 44.64 13.32 44.4L13.12 42.76C10.2 43.12 6.58 43.34 4.3 43.34H0.94L1.02 45.02H4.12C4.64 45.02 5.2 45.02 5.78 45C5.74 45.6 5.68 46.22 5.62 46.82L7.6 46.96ZM6.18 48.96V47.2H4.18V54.08H16.66V47.2H14.66V48.96H6.18ZM6.18 50.58H14.66V52.44H6.18V50.58ZM33.1448 39.14C33.1448 41.06 32.7648 44.54 32.2048 47.58L34.1648 47.9C34.7448 44.74 35.1248 41.26 35.1248 38.58V36.96H21.5648V38.78H33.1448V39.14ZM28.0848 43.42H26.1048V50.86H19.7248V52.7H37.1648V50.86H28.0848V43.42ZM58.792 42.5V35.52H56.892V54.08H58.792V44.32H61.432V42.5H58.792ZM50.232 41.96V36.78H48.512V41.96H46.012V36.78H44.232V51.08H54.512V36.78H52.732V41.96H50.232ZM48.512 43.7V49.32H46.012V43.7H48.512ZM50.232 43.7H52.732V49.32H50.232V43.7ZM78.2569 47.58V45.8H66.6969V43.04H77.8769V36.76H64.5969V38.58H75.8769V41.28H64.6969V47.58H78.2569ZM79.9969 52.7V50.86H62.5569V52.7H79.9969ZM95.7617 54.08H97.7217V35.52H95.7617V54.08ZM88.8217 42.88C89.1617 41.52 89.3417 40.12 89.3417 38.62V36.98H82.3217V38.8H87.4017V39.02C87.4017 42.94 85.5217 47.1 81.8817 50.4L83.3217 51.86C85.5417 49.74 87.2417 47.36 88.2417 44.7H91.7417V53.7H93.6417V35.8H91.7417V42.88H88.8217Z" fill="black"/>
<rect y="135" width="70" height="30" rx="4" fill="#5725E0"/>
<path d="M21.6142 148.9V144.712H20.4142V155.848H21.6142V149.992H23.3422V148.9H21.6142ZM17.1742 146.68V146.812C17.1742 149.164 15.6742 151.72 12.8542 153.568L13.5982 154.516C16.5982 152.464 18.3742 149.728 18.3742 146.572V145.588H13.1062V146.68H17.1742ZM32.4171 150.496H33.6171V144.712H32.4171V150.496ZM30.4611 147.508C30.4611 145.78 29.1411 144.952 27.4851 144.952C25.8171 144.952 24.4971 145.78 24.4971 147.508V147.688C24.4971 149.404 25.8171 150.244 27.4851 150.244C29.1411 150.244 30.4611 149.404 30.4611 147.688V147.508ZM25.6971 147.52C25.6971 146.512 26.4651 146.008 27.4851 146.008C28.5051 146.008 29.2731 146.512 29.2731 147.52V147.676C29.2731 148.672 28.5051 149.188 27.4851 149.188C26.4651 149.188 25.6971 148.672 25.6971 147.676V147.52ZM27.4491 152.368V151.084H26.2491V155.848H33.6171V151.084H32.4171V152.368H27.4491ZM27.4491 153.424H32.4171V154.78H27.4491V153.424ZM44.372 148.9V144.712H43.172V155.848H44.372V149.992H46.1V148.9H44.372ZM38.132 144.724V146.356H35.48V147.424H41.996V146.356H39.344V144.724H38.132ZM38.756 148.42C37.208 148.42 35.996 149.44 35.996 151.048V151.696C35.996 153.304 37.208 154.336 38.756 154.336C40.292 154.336 41.492 153.304 41.492 151.696V151.048C41.492 149.44 40.292 148.42 38.756 148.42ZM40.292 151.648C40.292 152.656 39.62 153.268 38.756 153.268C37.88 153.268 37.196 152.656 37.196 151.648V151.096C37.196 150.1 37.88 149.5 38.756 149.5C39.62 149.5 40.292 150.1 40.292 151.096V151.648ZM55.1869 155.848H56.3749V144.712H55.1869V155.848ZM51.7549 146.68V146.812C51.7549 149.164 50.2189 151.72 47.3389 153.568L48.0589 154.516C51.1549 152.476 52.9549 149.728 52.9549 146.572V145.588H47.5789V146.68H51.7549Z" fill="white"/>
</svg>
