<svg width="165" height="48" viewBox="0 0 165 48" fill="none" xmlns="http://www.w3.org/2000/svg">
<path d="M9.344 13.448C9.344 10.472 7.408 8.952 5.088 8.952C2.816 8.952 0.848 10.456 0.848 13.352V14.424C0.848 17.336 2.848 18.84 5.12 18.84C6.944 18.84 8.608 17.96 9.2 16.248L7.728 15.768C7.296 16.856 6.256 17.416 5.12 17.416C3.68 17.416 2.448 16.408 2.416 14.472H9.344V13.448ZM2.432 13.112C2.528 11.32 3.696 10.392 5.088 10.392C6.608 10.392 7.744 11.448 7.744 13.112H2.432ZM22.2199 9.144V12.792H23.7399V4.616H22.2199V7.736H20.3639V4.776H18.8919V12.648H20.3639V9.144H22.2199ZM15.8199 5.256V7.272H12.6199V5.256H11.1959V12.104H17.2439V5.256H15.8199ZM12.6199 8.68H15.8199V10.696H12.6199V8.68ZM17.0199 13.576C14.8279 13.576 13.4519 14.824 13.4519 16.6C13.4519 18.376 14.8279 19.624 17.0199 19.624H20.3639C22.5559 19.624 23.9319 18.376 23.9319 16.6C23.9319 14.824 22.5559 13.576 20.3639 13.576H17.0199ZM17.2759 18.184C15.7719 18.184 15.0519 17.528 15.0519 16.6C15.0519 15.656 15.7719 15 17.2759 15H20.1079C21.6119 15 22.3319 15.656 22.3319 16.6C22.3319 17.528 21.6119 18.184 20.1079 18.184H17.2759ZM37.0878 4.616V12.712H38.6718V4.616H37.0878ZM34.3358 5.32H26.9118V6.68H32.8798C32.8638 7.144 32.7518 7.592 32.5598 8.024C31.0078 8.168 28.3838 8.264 26.9278 8.264H26.6078L26.6718 9.528H27.0238C28.3518 9.528 30.1758 9.432 31.6158 9.304C30.5598 10.328 28.8798 11.176 26.6238 11.768L27.1038 13.064C31.6798 11.8 34.3358 9.64 34.3358 6.216V5.32ZM32.0798 13.496C29.9198 13.496 28.5438 14.776 28.5438 16.552C28.5438 18.344 29.9198 19.624 32.0798 19.624H35.3278C37.4878 19.624 38.8638 18.344 38.8638 16.552C38.8638 14.776 37.4878 13.496 35.3278 13.496H32.0798ZM32.3518 18.184C30.8638 18.184 30.1438 17.496 30.1438 16.552C30.1438 15.608 30.8638 14.92 32.3518 14.92H35.0718C36.5438 14.92 37.2798 15.608 37.2798 16.552C37.2798 17.496 36.5438 18.184 35.0718 18.184H32.3518ZM53.2695 9.208H56.1655V12.712H57.7655V4.616H56.1655V7.832H53.2695V9.208ZM53.5735 12.632L54.3735 11.32L50.2135 8.696C50.4375 8.088 50.5495 7.448 50.5495 6.744H53.7975V5.32H45.7975V6.744H48.9975C48.9975 8.712 47.7655 10.152 45.2055 11.592L45.9575 12.872C47.5895 11.992 48.7895 11.048 49.5415 9.976L53.5735 12.632ZM51.1735 13.496C49.0135 13.496 47.6375 14.776 47.6375 16.552C47.6375 18.344 49.0135 19.624 51.1735 19.624H54.4055C56.5815 19.624 57.9575 18.344 57.9575 16.552C57.9575 14.776 56.5815 13.496 54.4055 13.496H51.1735ZM51.4295 18.184C49.9575 18.184 49.2215 17.496 49.2215 16.552C49.2215 15.608 49.9575 14.92 51.4295 14.92H54.1655C55.6375 14.92 56.3575 15.608 56.3575 16.552C56.3575 17.496 55.6375 18.184 54.1655 18.184H51.4295ZM71.3534 19.464H72.9374V4.616H71.3534V19.464ZM66.7774 7.24V7.416C66.7774 10.552 64.7294 13.96 60.8894 16.424L61.8494 17.688C65.9774 14.968 68.3774 11.304 68.3774 7.096V5.784H61.2094V7.24H66.7774ZM86.7813 19.464H88.3493V4.616H86.7813V19.464ZM81.6133 8.04C81.1493 6.12 80.0613 5.32 78.7493 5.32C76.9893 5.32 75.6453 6.728 75.6453 10.296V12.552C75.6453 16.12 76.9893 17.528 78.7493 17.528C80.2213 17.528 81.3893 16.536 81.7413 14.104H83.5653V19.16H85.0853V4.84H83.5653V8.04H81.6133ZM80.3333 12.536C80.3333 15.112 79.6613 16.072 78.7493 16.072C77.8373 16.072 77.1653 15.112 77.1653 12.536V10.312C77.1653 7.72 77.8373 6.776 78.7493 6.776C79.6613 6.776 80.3333 7.72 80.3333 10.312V12.536ZM81.8373 12.696V12.552V10.296C81.8373 10.008 81.8213 9.72 81.8053 9.464H83.5653V12.696H81.8373ZM102.081 10.488C102.353 8.936 102.497 7.304 102.497 6.024V5.08H92.2731V6.536H100.913C100.897 7.4 100.753 8.984 100.481 10.488H90.5611V11.896H104.513V10.488H102.081ZM102.817 19.48V13.688H92.2731V19.48H102.817ZM101.217 15.064V18.072H93.8731V15.064H101.217ZM117.431 10.712H121.751V4.856H120.151V6.536H113.111V4.856H111.511V10.712H115.847V12.184H109.655V13.56H123.607V12.184H117.431V10.712ZM120.151 7.848V9.4H113.111V7.848H120.151ZM120.311 16.408V19.624H121.911V15H111.367V16.408H120.311ZM137.547 19.464V4.616H135.963V19.464H137.547ZM128.427 17.352C130.555 17.352 132.811 17.16 134.539 16.84L134.347 15.448C132.523 15.736 130.411 15.912 128.715 15.912H127.227V12.152H132.763V5.704H125.627V7.144H131.163V10.744H125.627V17.352H128.427ZM151.119 12.952H152.719V4.616H151.119V12.952ZM148.719 12.52L149.567 11.256L145.279 8.376C145.535 7.672 145.663 6.92 145.663 6.104V5.096H144.079V6.104C144.079 8.264 142.863 9.96 140.143 11.56L140.975 12.84C142.607 11.896 143.807 10.872 144.575 9.736L148.719 12.52ZM151.119 15.336V19.624H152.719V13.88H142.735V15.336H151.119Z" fill="black"/>
<path d="M9 41.8H9.852V30.724H9V41.8ZM1.212 37.6C2.472 36.868 3.396 36.088 3.96 35.2L7.044 37.48L7.512 36.772L4.32 34.444C4.488 34.012 4.572 33.532 4.572 33.028H7.128V32.26H4.572V30.736H3.72V32.26H1.164V33.028H3.708C3.708 34.612 2.628 35.788 0.792 36.892L1.212 37.6ZM4.548 37.252H3.684V39.28C3.288 39.292 2.928 39.304 2.616 39.304H0.6L0.648 40.096H2.568C4.2 40.096 6.372 39.94 8.04 39.712L7.944 38.944C6.888 39.088 5.664 39.184 4.548 39.244V37.252ZM20.5469 35.056H18.8309V30.904H18.0029V41.596H18.8309V35.848H20.5469V41.8H21.3869V30.724H20.5469V35.056ZM13.2029 39.172V32.404H16.4189V31.612H12.3389V39.952H13.6589C14.9909 39.952 16.0709 39.88 17.1749 39.688L17.0789 38.92C15.9029 39.1 14.8589 39.172 13.7909 39.172H13.2029ZM29.8398 41.164V31.516H29.0718L26.0478 33.964L26.5518 34.6L28.9638 32.644V41.164H29.8398ZM38.3959 41.164V40.372H33.2239L36.1759 37.432C37.3879 36.22 38.1319 35.212 38.1319 33.892C38.1319 32.332 36.9439 31.336 35.1439 31.336C33.3799 31.336 32.3719 32.632 31.9879 34.012L32.8159 34.216C33.1639 33.088 33.8119 32.128 35.1439 32.128C36.4759 32.128 37.2799 32.812 37.2799 33.904C37.2799 34.912 36.7279 35.74 35.5399 36.928L31.9519 40.492V41.164H38.3959ZM48.4141 35.056H46.6981V30.904H45.8581V41.596H46.6981V35.848H48.4141V41.8H49.2541V30.724H48.4141V35.056ZM43.5061 32.452V32.692C43.5061 35.284 42.1501 37.876 40.0261 39.772L40.6381 40.396C42.8821 38.32 44.3581 35.656 44.3581 32.524V31.672H40.2301V32.452H43.5061ZM56.265 36.556H59.625V37.024H60.489V30.724H59.625V35.908H56.265V36.556ZM54.765 34.06C56.385 34.06 57.657 33.508 57.657 32.524V32.44C57.657 31.456 56.385 30.916 54.765 30.916C53.145 30.916 51.873 31.456 51.873 32.44V32.524C51.873 33.508 53.145 34.06 54.765 34.06ZM52.701 32.464C52.701 31.96 53.553 31.612 54.765 31.612C55.977 31.612 56.841 31.96 56.841 32.464V32.5C56.841 33.016 55.977 33.352 54.765 33.352C53.553 33.352 52.701 33.016 52.701 32.5V32.464ZM54.213 35.512C54.177 36.028 54.129 36.604 54.069 37.096L54.909 37.168C54.969 36.616 55.017 36.028 55.065 35.476C56.289 35.416 57.585 35.296 58.665 35.152L58.581 34.492C56.841 34.708 54.621 34.828 53.253 34.828H51.237L51.273 35.524H53.205C53.517 35.524 53.865 35.524 54.213 35.512ZM54.093 40.072H60.489V37.624H53.193V38.332H59.637V39.364H53.253V41.86H60.957V41.14H54.093V40.072ZM65.9779 42.844L70.1779 30.316H69.2779L65.0779 42.844H65.9779ZM79.3359 41.8H80.1879V30.724H79.3359V41.8ZM71.5479 37.6C72.8079 36.868 73.7319 36.088 74.2959 35.2L77.3799 37.48L77.8479 36.772L74.6559 34.444C74.8239 34.012 74.9079 33.532 74.9079 33.028H77.4639V32.26H74.9079V30.736H74.0559V32.26H71.4999V33.028H74.0439C74.0439 34.612 72.9639 35.788 71.1279 36.892L71.5479 37.6ZM74.8839 37.252H74.0199V39.28C73.6239 39.292 73.2639 39.304 72.9519 39.304H70.9359L70.9839 40.096H72.9039C74.5359 40.096 76.7079 39.94 78.3759 39.712L78.2799 38.944C77.2239 39.088 75.9999 39.184 74.8839 39.244V37.252ZM90.4628 32.788C90.4628 34 90.2108 36.148 89.8628 38.008L90.7028 38.164C91.0508 36.268 91.3148 34.156 91.3148 32.596V31.66H83.3828V32.44H90.4628V32.788ZM87.0788 35.428H86.2268V40.12H82.2188V40.912H92.5868V40.12H87.0788V35.428ZM105.024 35.464V39.136H105.888V30.724H105.024V32.416H102.36C101.868 31.516 100.932 31.084 99.8757 31.084C98.2797 31.084 96.9957 32.032 96.9957 34V34.252C96.9957 36.208 98.2797 37.144 99.8757 37.144C101.064 37.144 102.096 36.592 102.516 35.464H105.024ZM97.8597 34C97.8597 32.584 98.7117 31.852 99.8757 31.852C101.016 31.852 101.868 32.584 101.868 34V34.24C101.868 35.656 101.016 36.376 99.8757 36.376C98.7117 36.376 97.8597 35.656 97.8597 34.24V34ZM105.024 34.744H102.696C102.708 34.588 102.72 34.42 102.72 34.252V34C102.72 33.7 102.684 33.412 102.636 33.16H105.024V34.744ZM99.6237 38.26H98.7597V41.8H106.404V41.008H99.6237V38.26ZM110.981 38.992C111.401 40.228 112.493 41.344 114.413 41.344C116.393 41.344 117.725 40.228 117.725 38.632C117.725 37.396 116.945 36.496 115.829 36.172C116.789 35.872 117.497 35.056 117.497 33.868C117.497 32.32 116.201 31.336 114.401 31.336C112.661 31.336 111.677 32.428 111.269 33.544L112.049 33.832C112.409 32.956 113.057 32.128 114.401 32.128C115.745 32.128 116.633 32.788 116.633 33.904C116.633 35.008 115.805 35.8 114.233 35.8H113.057V36.568H114.233C115.985 36.568 116.873 37.468 116.873 38.608C116.873 39.76 115.937 40.552 114.413 40.552C112.889 40.552 112.133 39.7 111.773 38.728L110.981 38.992ZM119.998 41.344C120.37 41.344 120.67 41.044 120.67 40.672C120.67 40.3 120.37 40.012 119.998 40.012C119.626 40.012 119.338 40.3 119.338 40.672C119.338 41.044 119.626 41.344 119.998 41.344ZM125.726 41.344C127.79 41.344 129.17 40.204 129.17 38.572C129.17 37.516 128.45 36.592 127.274 36.148C128.354 35.716 128.87 34.888 128.87 33.892C128.87 32.344 127.598 31.336 125.726 31.336C123.866 31.336 122.582 32.344 122.582 33.892C122.582 34.888 123.098 35.716 124.178 36.148C123.002 36.592 122.282 37.516 122.282 38.572C122.282 40.204 123.674 41.344 125.726 41.344ZM125.726 35.788C124.286 35.788 123.446 35.032 123.446 33.964C123.446 32.884 124.286 32.128 125.726 32.128C127.166 32.128 128.018 32.884 128.018 33.964C128.018 35.032 127.166 35.788 125.726 35.788ZM125.726 40.552C124.106 40.552 123.146 39.724 123.146 38.548C123.146 37.408 124.154 36.556 125.726 36.556C127.298 36.556 128.306 37.408 128.306 38.548C128.306 39.724 127.346 40.552 125.726 40.552ZM132.732 36.556C133.86 36.556 134.784 35.776 134.784 34.384V33.496C134.784 32.128 133.86 31.336 132.732 31.336C131.592 31.336 130.68 32.128 130.68 33.496V34.384C130.68 35.776 131.592 36.556 132.732 36.556ZM132.996 41.164L139.632 31.516H138.636L132.012 41.164H132.996ZM132.732 35.812C132.024 35.812 131.484 35.308 131.484 34.348V33.532C131.484 32.584 132.024 32.08 132.732 32.08C133.44 32.08 133.992 32.584 133.992 33.532V34.348C133.992 35.32 133.44 35.812 132.732 35.812ZM138.816 41.344C139.944 41.344 140.868 40.564 140.868 39.172V38.284C140.868 36.916 139.944 36.124 138.816 36.124C137.676 36.124 136.764 36.916 136.764 38.284V39.172C136.764 40.564 137.676 41.344 138.816 41.344ZM138.816 40.6C138.108 40.6 137.568 40.108 137.568 39.136V38.32C137.568 37.372 138.108 36.868 138.816 36.868C139.524 36.868 140.076 37.372 140.076 38.32V39.136C140.076 40.108 139.524 40.6 138.816 40.6Z" fill="#333333"/>
</svg>
