<svg width="57" height="20" viewBox="0 0 57 20" fill="none" xmlns="http://www.w3.org/2000/svg">
<path d="M13.68 1.05134V3.35134H5.28V1.05134H2.74V9.81134H16.24V1.05134H13.68ZM5.28 5.57134H13.68V7.61134H5.28V5.57134ZM0.68 11.9513V14.2713H8.2V19.2513H10.76V14.2713H18.28V11.9513H0.68ZM29.7248 7.35134H35.0248V5.23134H24.4448V2.81134H34.8248V0.711338H21.8848V7.35134H27.1648V8.79134H19.6448V10.9513H37.2448V8.79134H29.7248V7.35134ZM26.2248 12.3113C23.2448 12.3113 21.5048 13.7913 21.5048 15.7713C21.5048 17.7713 23.2448 19.2313 26.2248 19.2313H30.6648C33.6648 19.2313 35.4048 17.7713 35.4048 15.7713C35.4048 13.7913 33.6648 12.3113 30.6648 12.3113H26.2248ZM26.7048 17.0313C24.8448 17.0313 24.0448 16.5313 24.0448 15.7513C24.0448 14.9713 24.8448 14.5113 26.7048 14.5113H30.2048C32.0648 14.5113 32.8448 14.9713 32.8448 15.7513C32.8448 16.5313 32.0648 17.0313 30.2048 17.0313H26.7048ZM53.7497 0.351337H51.1897V14.1713H53.7497V7.09134H56.4497V4.77134H53.7497V0.351337ZM48.2497 11.2913L49.7097 9.39134L44.7897 5.55134C45.0897 4.59134 45.2497 3.57134 45.2497 2.47134V1.01134H42.7497V2.47134C42.7497 5.17134 41.5097 7.51134 38.2097 9.71134L39.6697 11.6713C41.4697 10.4713 42.8097 9.19134 43.7297 7.77134L48.2497 11.2913ZM41.4697 12.9913V19.0313H54.6297V16.7113H44.0097V12.9913H41.4697Z" fill="black"/>
</svg>
