<svg width="40" height="58" viewBox="0 0 40 58" fill="none" xmlns="http://www.w3.org/2000/svg">
<path d="M10.514 5.178V14.992H11.508V5.178H10.514ZM8.33 12.654L8.89 11.884L4.928 8.902C5.18 8.216 5.306 7.502 5.306 6.718V5.71H4.312V6.718C4.312 8.944 3.094 10.61 0.742 12.136L1.274 12.92C2.786 11.968 3.864 10.946 4.522 9.784L8.33 12.654ZM4.2 14.166H3.206V18.1H12.11V17.176H4.2V14.166ZM22.4594 9.84C23.7334 9.518 24.4754 8.804 24.4754 7.684C24.4754 6.13 23.0614 5.36 20.8214 5.36H19.0154C16.7754 5.36 15.3614 6.13 15.3614 7.684C15.3614 8.804 16.1034 9.518 17.3774 9.84V11.436H13.8634V12.318H25.9594V11.436H22.4594V9.84ZM16.3554 7.684C16.3554 6.746 17.3494 6.242 19.1834 6.242H20.6534C22.4734 6.242 23.4674 6.746 23.4674 7.684C23.4674 8.608 22.4734 9.154 20.6534 9.154H19.1834C17.3494 9.154 16.3554 8.636 16.3554 7.684ZM18.3434 9.98C18.5534 10.022 21.2834 10.022 21.4934 9.98V11.436H18.3434V9.98ZM18.4974 13.634C16.3974 13.634 15.2914 14.614 15.2914 15.93C15.2914 17.26 16.3974 18.24 18.4974 18.24H21.3254C23.4394 18.24 24.5454 17.26 24.5454 15.93C24.5454 14.614 23.4394 13.634 21.3254 13.634H18.4974ZM18.7214 17.344C17.0694 17.344 16.2854 16.784 16.2854 15.93C16.2854 15.076 17.0694 14.53 18.7214 14.53H21.1014C22.7534 14.53 23.5374 15.076 23.5374 15.93C23.5374 16.784 22.7534 17.344 21.1014 17.344H18.7214Z" fill="white"/>
<path d="M7.14 47.032H11.34V46.122H9.24V41.04H11.34V40.13H1.946V41.04H4.046V46.122H1.946V47.032H6.146V50.14H0.588V51.064H12.684V50.14H7.14V47.032ZM8.26 41.04V46.122H5.026V41.04H8.26ZM24.7974 48.992V39.178H23.7894V48.992H24.7974ZM17.7974 46.668C19.6314 46.668 21.1434 45.576 21.1434 43.294V43C21.1434 40.704 19.6314 39.598 17.7974 39.598C15.9354 39.598 14.4234 40.704 14.4234 43V43.294C14.4234 45.576 15.9354 46.668 17.7974 46.668ZM17.7974 45.772C16.4394 45.772 15.4314 44.932 15.4314 43.28V43C15.4314 41.348 16.4394 40.494 17.7974 40.494C19.1414 40.494 20.1494 41.348 20.1494 43V43.28C20.1494 44.932 19.1414 45.772 17.7974 45.772ZM25.3994 52.1V51.176H17.4894V47.97H16.4814V52.1H25.3994ZM29.7008 46.598V44.246H37.6808V43.35H29.7008V41.04H37.6808V40.13H28.7068V47.508H37.9608V46.598H29.7008ZM27.1388 51.064H39.2348V50.14H27.1388V51.064Z" fill="white"/>
</svg>
