<svg width="100" height="40" viewBox="0 0 100 40" fill="none" xmlns="http://www.w3.org/2000/svg">
<rect x="0.5" y="0.5" width="99" height="39" rx="19.5" fill="#F4F4F4"/>
<path d="M33.6964 18.05H29.9304V19.324H33.6964V26.156H35.0824V13.164H33.6964V18.05ZM26.2064 22.768V15.404H31.1764V14.116H24.7924V24.042H27.0324C28.8524 24.042 30.7844 23.86 32.3104 23.608L32.1564 22.362C30.5464 22.614 28.7124 22.768 27.2564 22.768H26.2064ZM44.0318 21.13H47.9518V13.962H46.5518V16.342H40.1258V13.962H38.7258V21.13H42.6458V23.902H37.2278V25.19H49.4358V23.902H44.0318V21.13ZM46.5518 17.602V19.87H40.1258V17.602H46.5518ZM60.2472 26.156H61.6332V13.164H60.2472V26.156ZM56.2432 15.46V15.614C56.2432 18.358 54.4512 21.34 51.0912 23.496L51.9312 24.602C55.5432 22.222 57.6432 19.016 57.6432 15.334V14.186H51.3712V15.46H56.2432Z" fill="#666666"/>
<path d="M76.6668 20.6673H72.6668V24.6673H71.3335V20.6673H67.3335V19.334H71.3335V15.334H72.6668V19.334H76.6668V20.6673Z" fill="black"/>
<rect x="0.5" y="0.5" width="99" height="39" rx="19.5" stroke="#EDEDED"/>
</svg>
