<svg width="49" height="24" viewBox="0 0 49 24" fill="none" xmlns="http://www.w3.org/2000/svg">
<path d="M9.104 14.328V5.592H6.384L0.704 14.568V16.2H7.072V18.888H9.104V16.2H10.912V14.328H9.104ZM7.072 8.024V14.328H3.184L7.072 8.024ZM13.6771 18.888C14.3971 18.888 14.9731 18.312 14.9731 17.592C14.9731 16.872 14.3971 16.28 13.6771 16.28C12.9571 16.28 12.3811 16.872 12.3811 17.592C12.3811 18.312 12.9571 18.888 13.6771 18.888ZM21.7623 18.888C24.5303 18.888 26.5943 17.544 26.5943 15.016C26.5943 13.704 25.7783 12.52 24.1623 11.88C25.6343 11.304 26.2583 10.232 26.2583 9.016C26.2583 6.616 24.3383 5.352 21.7623 5.352C19.2023 5.352 17.2663 6.616 17.2663 9.016C17.2663 10.232 17.8903 11.304 19.3623 11.88C17.7463 12.52 16.9303 13.704 16.9303 15.016C16.9303 17.544 19.0263 18.888 21.7623 18.888ZM21.7623 11.048C20.2103 11.048 19.3143 10.296 19.3143 9.128C19.3143 7.944 20.2103 7.192 21.7623 7.192C23.3143 7.192 24.2263 7.944 24.2263 9.128C24.2263 10.296 23.3143 11.048 21.7623 11.048ZM21.7623 17.048C20.0023 17.048 18.9623 16.216 18.9623 14.92C18.9623 13.656 20.0343 12.808 21.7623 12.808C23.4903 12.808 24.5623 13.656 24.5623 14.92C24.5623 16.216 23.5223 17.048 21.7623 17.048ZM31.161 12.504C32.777 12.504 34.137 11.4 34.137 9.528V8.312C34.137 6.472 32.777 5.352 31.161 5.352C29.545 5.352 28.185 6.472 28.185 8.312V9.528C28.185 11.4 29.545 12.504 31.161 12.504ZM31.961 18.648L41.033 5.592H38.761L29.689 18.648H31.961ZM31.161 10.824C30.473 10.824 29.977 10.28 29.977 9.4V8.456C29.977 7.576 30.473 7.032 31.161 7.032C31.849 7.032 32.361 7.56 32.361 8.456V9.4C32.361 10.296 31.849 10.824 31.161 10.824ZM39.497 18.888C41.113 18.888 42.473 17.784 42.473 15.912V14.696C42.473 12.856 41.113 11.736 39.497 11.736C37.881 11.736 36.521 12.856 36.521 14.696V15.912C36.521 17.784 37.881 18.888 39.497 18.888ZM39.497 17.208C38.809 17.208 38.313 16.664 38.313 15.784V14.84C38.313 13.96 38.809 13.416 39.497 13.416C40.185 13.416 40.697 13.944 40.697 14.84V15.784C40.697 16.68 40.185 17.208 39.497 17.208Z" fill="#5725E0"/>
</svg>
