<svg width="63" height="68" viewBox="0 0 63 68" fill="none" xmlns="http://www.w3.org/2000/svg">
<path d="M25.012 22.568C27.42 22.568 29.03 21.238 29.03 19.334C29.03 18.102 28.19 17.024 26.818 16.506C28.078 16.002 28.68 15.036 28.68 13.874C28.68 12.068 27.196 10.892 25.012 10.892C22.842 10.892 21.344 12.068 21.344 13.874C21.344 15.036 21.946 16.002 23.206 16.506C21.834 17.024 20.994 18.102 20.994 19.334C20.994 21.238 22.618 22.568 25.012 22.568ZM25.012 16.086C23.332 16.086 22.352 15.204 22.352 13.958C22.352 12.698 23.332 11.816 25.012 11.816C26.692 11.816 27.686 12.698 27.686 13.958C27.686 15.204 26.692 16.086 25.012 16.086ZM25.012 21.644C23.122 21.644 22.002 20.678 22.002 19.306C22.002 17.976 23.178 16.982 25.012 16.982C26.846 16.982 28.022 17.976 28.022 19.306C28.022 20.678 26.902 21.644 25.012 21.644ZM34.7955 10.892C32.6395 10.892 30.8755 12.32 30.8755 14.672C30.8755 17.038 32.6395 18.452 34.6835 18.452C35.9015 18.452 37.1055 17.906 37.7355 16.87V17.514C37.7635 20.37 36.5175 21.658 34.8795 21.658C33.3675 21.658 32.5555 20.944 31.9395 19.67L31.0855 20.132C31.8135 21.686 33.0595 22.568 34.9075 22.568C36.8535 22.568 38.7015 21.182 38.7015 17.556V14.742C38.7015 12.306 37.0075 10.892 34.7955 10.892ZM34.7955 17.556C33.2275 17.556 31.8835 16.534 31.8835 14.686C31.8835 12.824 33.2275 11.802 34.7955 11.802C36.3775 11.802 37.7075 12.824 37.7075 14.686C37.7075 16.534 36.3775 17.556 34.7955 17.556ZM44.6992 22.568C46.9112 22.568 48.6892 20.93 48.6892 17.85V15.61C48.6892 12.544 46.9112 10.892 44.6992 10.892C42.4732 10.892 40.6952 12.544 40.6952 15.61V17.85C40.6952 20.93 42.4732 22.568 44.6992 22.568ZM44.6992 21.658C43.0612 21.658 41.7172 20.426 41.7172 17.78V15.68C41.7172 13.048 43.0612 11.802 44.6992 11.802C46.3372 11.802 47.6812 13.048 47.6812 15.68V17.78C47.6812 20.426 46.3372 21.658 44.6992 21.658ZM60.1816 13.132H57.3956V14.014H60.1816V17.178H61.1756V10.178H60.1816V13.132ZM57.8436 17.052L58.3616 16.226L54.5676 13.692C54.7776 13.146 54.8896 12.572 54.8896 11.956V11.774H57.8436V10.878H50.9696V11.774H53.9096V11.956C53.9096 13.832 52.6636 15.148 50.4516 16.45L50.9276 17.248C52.4256 16.408 53.5036 15.512 54.1476 14.504L57.8436 17.052ZM61.1756 23.1V18.102H52.8736V23.1H61.1756ZM60.1816 18.998V22.19H53.8676V18.998H60.1816Z" fill="white"/>
<path d="M20 24.15H62.9536V24.85H20V24.15Z" fill="white"/>
<path d="M8.428 56.358V55.434H2.394L5.838 52.004C7.252 50.59 8.12 49.414 8.12 47.874C8.12 46.054 6.734 44.892 4.634 44.892C2.576 44.892 1.4 46.404 0.952 48.014L1.918 48.252C2.324 46.936 3.08 45.816 4.634 45.816C6.188 45.816 7.126 46.614 7.126 47.888C7.126 49.064 6.482 50.03 5.096 51.416L0.91 55.574V56.358H8.428ZM14.4179 56.568C16.6299 56.568 18.4079 54.93 18.4079 51.85V49.61C18.4079 46.544 16.6299 44.892 14.4179 44.892C12.1919 44.892 10.4139 46.544 10.4139 49.61V51.85C10.4139 54.93 12.1919 56.568 14.4179 56.568ZM14.4179 55.658C12.7799 55.658 11.4359 54.426 11.4359 51.78V49.68C11.4359 47.048 12.7799 45.802 14.4179 45.802C16.0559 45.802 17.3999 47.048 17.3999 49.68V51.78C17.3999 54.426 16.0559 55.658 14.4179 55.658ZM21.1084 58.808L21.5844 55.098H20.5764L20.2824 58.808H21.1084ZM27.5839 56.568C29.7959 56.568 31.5739 54.93 31.5739 51.85V49.61C31.5739 46.544 29.7959 44.892 27.5839 44.892C25.3579 44.892 23.5799 46.544 23.5799 49.61V51.85C23.5799 54.93 25.3579 56.568 27.5839 56.568ZM27.5839 55.658C25.9459 55.658 24.6019 54.426 24.6019 51.78V49.68C24.6019 47.048 25.9459 45.802 27.5839 45.802C29.2219 45.802 30.5659 47.048 30.5659 49.68V51.78C30.5659 54.426 29.2219 55.658 27.5839 55.658ZM37.5644 56.568C39.7764 56.568 41.5544 54.93 41.5544 51.85V49.61C41.5544 46.544 39.7764 44.892 37.5644 44.892C35.3384 44.892 33.5604 46.544 33.5604 49.61V51.85C33.5604 54.93 35.3384 56.568 37.5644 56.568ZM37.5644 55.658C35.9264 55.658 34.5824 54.426 34.5824 51.78V49.68C34.5824 47.048 35.9264 45.802 37.5644 45.802C39.2024 45.802 40.5464 47.048 40.5464 49.68V51.78C40.5464 54.426 39.2024 55.658 37.5644 55.658ZM47.5449 56.568C49.7569 56.568 51.5349 54.93 51.5349 51.85V49.61C51.5349 46.544 49.7569 44.892 47.5449 44.892C45.3189 44.892 43.5409 46.544 43.5409 49.61V51.85C43.5409 54.93 45.3189 56.568 47.5449 56.568ZM47.5449 55.658C45.9069 55.658 44.5629 54.426 44.5629 51.78V49.68C44.5629 47.048 45.9069 45.802 47.5449 45.802C49.1829 45.802 50.5269 47.048 50.5269 49.68V51.78C50.5269 54.426 49.1829 55.658 47.5449 55.658ZM57.7493 45.102H53.6613V56.358H54.6833V51.822H57.7493C60.4233 51.822 61.7533 50.562 61.7533 48.448C61.7533 46.376 60.4233 45.102 57.7493 45.102ZM54.6833 50.912V46.012H57.6793C59.7373 46.012 60.7453 46.81 60.7453 48.448C60.7453 50.114 59.7373 50.912 57.6793 50.912H54.6833Z" fill="white"/>
<path d="M0 58.15H62.2713V58.85H0V58.15Z" fill="white"/>
</svg>
