<svg width="49" height="24" viewBox="0 0 49 24" fill="none" xmlns="http://www.w3.org/2000/svg">
<path d="M6.16 10.024C4.848 10.024 3.568 10.568 2.896 11.64V11.112C2.896 8.344 4.144 7.176 5.696 7.176C7.088 7.176 7.904 7.8 8.56 9.048L10.256 8.168C9.36 6.328 7.856 5.352 5.6 5.352C3.296 5.352 1.024 7.08 1.024 11.032V14.28C1.024 17.256 3.024 18.888 5.744 18.888C8.448 18.888 10.512 17.176 10.512 14.472C10.512 11.768 8.448 10.024 6.16 10.024ZM5.76 17.064C4.224 17.064 3.072 16.056 3.072 14.44C3.072 12.824 4.224 11.832 5.76 11.832C7.312 11.832 8.496 12.824 8.496 14.44C8.496 16.056 7.312 17.064 5.76 17.064ZM13.599 18.888C14.319 18.888 14.895 18.312 14.895 17.592C14.895 16.872 14.319 16.28 13.599 16.28C12.879 16.28 12.303 16.872 12.303 17.592C12.303 18.312 12.879 18.888 13.599 18.888ZM21.6521 10.248C20.7401 10.248 19.8121 10.6 19.2041 11.288L19.6361 7.464H25.3961V5.592H17.9081L17.0921 13.592H18.9321C19.3641 12.648 20.1001 12.12 21.2361 12.12C22.7721 12.12 23.8441 13.08 23.8441 14.568C23.8441 16.04 22.8521 17.016 21.2041 17.016C19.9881 17.016 18.9481 16.472 18.4521 15.352L16.6921 16.344C17.4601 18.056 19.3961 18.888 21.3161 18.888C24.0681 18.888 25.8601 17.16 25.8601 14.568C25.8601 11.96 24.0521 10.248 21.6521 10.248ZM30.4266 12.504C32.0426 12.504 33.4026 11.4 33.4026 9.528V8.312C33.4026 6.472 32.0426 5.352 30.4266 5.352C28.8106 5.352 27.4506 6.472 27.4506 8.312V9.528C27.4506 11.4 28.8106 12.504 30.4266 12.504ZM31.2266 18.648L40.2986 5.592H38.0266L28.9546 18.648H31.2266ZM30.4266 10.824C29.7386 10.824 29.2426 10.28 29.2426 9.4V8.456C29.2426 7.576 29.7386 7.032 30.4266 7.032C31.1146 7.032 31.6266 7.56 31.6266 8.456V9.4C31.6266 10.296 31.1146 10.824 30.4266 10.824ZM38.7626 18.888C40.3786 18.888 41.7386 17.784 41.7386 15.912V14.696C41.7386 12.856 40.3786 11.736 38.7626 11.736C37.1466 11.736 35.7866 12.856 35.7866 14.696V15.912C35.7866 17.784 37.1466 18.888 38.7626 18.888ZM38.7626 17.208C38.0746 17.208 37.5786 16.664 37.5786 15.784V14.84C37.5786 13.96 38.0746 13.416 38.7626 13.416C39.4506 13.416 39.9626 13.944 39.9626 14.84V15.784C39.9626 16.68 39.4506 17.208 38.7626 17.208Z" fill="#5725E0"/>
</svg>
