<svg width="38" height="20" viewBox="0 0 38 20" fill="none" xmlns="http://www.w3.org/2000/svg">
<path d="M15.82 7.47022V0.710224H13.28V19.3902H15.82V9.79022H18.54V7.47022H15.82ZM7.96 4.43022C7.96 5.45022 7.78 6.51022 7.42 7.57022C5.56 7.73022 2.84 7.85022 1.14 7.85022H0.8L0.92 10.1502H1.34C2.82 10.1502 4.72 10.0502 6.32 9.91022C5.12 11.9102 3.24 13.8102 0.64 15.4302L2.2 17.4502C7.48 14.0302 10.54 9.45022 10.54 3.93022V2.09022H1.2V4.43022H7.96ZM21.7048 1.87022V12.0902H35.2048V9.79022H24.2448V4.19022H35.0248V1.87022H21.7048ZM37.2448 18.0902V15.7502H19.6448V18.0902H37.2448Z" fill="black"/>
</svg>
