<svg width="77" height="105" viewBox="0 0 77 105" fill="none" xmlns="http://www.w3.org/2000/svg">
<path d="M7.546 14.7541V6.77412H6.174L0.714 14.8241V15.6781H6.538V18.2401H7.546V15.6781H9.45V14.7541H7.546ZM6.538 7.89412V14.7541H1.932L6.538 7.89412ZM15.0195 18.2401C17.2315 18.2401 19.0095 16.6021 19.0095 13.5221V11.2821C19.0095 8.21612 17.2315 6.56412 15.0195 6.56412C12.7935 6.56412 11.0155 8.21612 11.0155 11.2821V13.5221C11.0155 16.6021 12.7935 18.2401 15.0195 18.2401ZM15.0195 17.3301C13.3815 17.3301 12.0375 16.0981 12.0375 13.4521V11.3521C12.0375 8.72012 13.3815 7.47412 15.0195 7.47412C16.6575 7.47412 18.0015 8.72012 18.0015 11.3521V13.4521C18.0015 16.0981 16.6575 17.3301 15.0195 17.3301ZM25 18.2401C27.212 18.2401 28.99 16.6021 28.99 13.5221V11.2821C28.99 8.21612 27.212 6.56412 25 6.56412C22.774 6.56412 20.996 8.21612 20.996 11.2821V13.5221C20.996 16.6021 22.774 18.2401 25 18.2401ZM25 17.3301C23.362 17.3301 22.018 16.0981 22.018 13.4521V11.3521C22.018 8.72012 23.362 7.47412 25 7.47412C26.638 7.47412 27.982 8.72012 27.982 11.3521V13.4521C27.982 16.0981 26.638 17.3301 25 17.3301ZM31.6904 20.4801L32.1664 16.7701H31.1584L30.8644 20.4801H31.6904ZM38.166 18.2401C40.378 18.2401 42.156 16.6021 42.156 13.5221V11.2821C42.156 8.21612 40.378 6.56412 38.166 6.56412C35.94 6.56412 34.162 8.21612 34.162 11.2821V13.5221C34.162 16.6021 35.94 18.2401 38.166 18.2401ZM38.166 17.3301C36.528 17.3301 35.184 16.0981 35.184 13.4521V11.3521C35.184 8.72012 36.528 7.47412 38.166 7.47412C39.804 7.47412 41.148 8.72012 41.148 11.3521V13.4521C41.148 16.0981 39.804 17.3301 38.166 17.3301ZM48.1464 18.2401C50.3584 18.2401 52.1364 16.6021 52.1364 13.5221V11.2821C52.1364 8.21612 50.3584 6.56412 48.1464 6.56412C45.9204 6.56412 44.1424 8.21612 44.1424 11.2821V13.5221C44.1424 16.6021 45.9204 18.2401 48.1464 18.2401ZM48.1464 17.3301C46.5084 17.3301 45.1644 16.0981 45.1644 13.4521V11.3521C45.1644 8.72012 46.5084 7.47412 48.1464 7.47412C49.7844 7.47412 51.1284 8.72012 51.1284 11.3521V13.4521C51.1284 16.0981 49.7844 17.3301 48.1464 17.3301ZM58.1269 18.2401C60.3389 18.2401 62.1169 16.6021 62.1169 13.5221V11.2821C62.1169 8.21612 60.3389 6.56412 58.1269 6.56412C55.9009 6.56412 54.1229 8.21612 54.1229 11.2821V13.5221C54.1229 16.6021 55.9009 18.2401 58.1269 18.2401ZM58.1269 17.3301C56.4889 17.3301 55.1449 16.0981 55.1449 13.4521V11.3521C55.1449 8.72012 56.4889 7.47412 58.1269 7.47412C59.7649 7.47412 61.1089 8.72012 61.1089 11.3521V13.4521C61.1089 16.0981 59.7649 17.3301 58.1269 17.3301ZM69.6894 14.9221H73.6234V16.1961H74.6174V5.85012H73.6234V14.0961H69.6894V14.9221ZM67.9394 11.0161C69.8154 11.0161 71.3134 10.2321 71.3134 8.70612V8.52412C71.3134 6.99812 69.8154 6.20012 67.9394 6.20012C66.0634 6.20012 64.5654 6.99812 64.5654 8.52412V8.70612C64.5654 10.2321 66.0634 11.0161 67.9394 11.0161ZM65.5314 8.55212C65.5314 7.61412 66.5394 7.06812 67.9394 7.06812C69.3534 7.06812 70.3614 7.61412 70.3614 8.55212V8.67812C70.3614 9.61612 69.3534 10.1621 67.9394 10.1621C66.5394 10.1621 65.5314 9.61612 65.5314 8.67812V8.55212ZM68.0654 15.3841C68.1494 14.6141 68.2194 13.8161 68.2754 13.0601C69.7034 12.9901 71.2294 12.8641 72.4894 12.6821L72.3914 11.8421C70.3614 12.0941 67.7714 12.2481 66.1754 12.2481H63.8234L63.8654 13.1161H66.1194C66.4834 13.1161 66.8754 13.1161 67.2814 13.1021C67.2394 13.8161 67.1694 14.6001 67.0854 15.3141L68.0654 15.3841ZM67.1694 15.9301H66.1754V18.7721H75.2194V17.8481H67.1694V15.9301Z" fill="black"/>
<path d="M9.428 58.0301V57.1061H3.394L6.838 53.6761C8.252 52.2621 9.12 51.0861 9.12 49.5461C9.12 47.7261 7.734 46.5641 5.634 46.5641C3.576 46.5641 2.4 48.0761 1.952 49.6861L2.918 49.9241C3.324 48.6081 4.08 47.4881 5.634 47.4881C7.188 47.4881 8.126 48.2861 8.126 49.5601C8.126 50.7361 7.482 51.7021 6.096 53.0881L1.91 57.2461V58.0301H9.428ZM15.4179 58.2401C17.6299 58.2401 19.4079 56.6021 19.4079 53.5221V51.2821C19.4079 48.2161 17.6299 46.5641 15.4179 46.5641C13.1919 46.5641 11.4139 48.2161 11.4139 51.2821V53.5221C11.4139 56.6021 13.1919 58.2401 15.4179 58.2401ZM15.4179 57.3301C13.7799 57.3301 12.4359 56.0981 12.4359 53.4521V51.3521C12.4359 48.7201 13.7799 47.4741 15.4179 47.4741C17.0559 47.4741 18.3999 48.7201 18.3999 51.3521V53.4521C18.3999 56.0981 17.0559 57.3301 15.4179 57.3301ZM25.3984 58.2401C27.6104 58.2401 29.3884 56.6021 29.3884 53.5221V51.2821C29.3884 48.2161 27.6104 46.5641 25.3984 46.5641C23.1724 46.5641 21.3944 48.2161 21.3944 51.2821V53.5221C21.3944 56.6021 23.1724 58.2401 25.3984 58.2401ZM25.3984 57.3301C23.7604 57.3301 22.4164 56.0981 22.4164 53.4521V51.3521C22.4164 48.7201 23.7604 47.4741 25.3984 47.4741C27.0364 47.4741 28.3804 48.7201 28.3804 51.3521V53.4521C28.3804 56.0981 27.0364 57.3301 25.3984 57.3301ZM32.0889 60.4801L32.5649 56.7701H31.5569L31.2629 60.4801H32.0889ZM38.5644 58.2401C40.7764 58.2401 42.5544 56.6021 42.5544 53.5221V51.2821C42.5544 48.2161 40.7764 46.5641 38.5644 46.5641C36.3384 46.5641 34.5604 48.2161 34.5604 51.2821V53.5221C34.5604 56.6021 36.3384 58.2401 38.5644 58.2401ZM38.5644 57.3301C36.9264 57.3301 35.5824 56.0981 35.5824 53.4521V51.3521C35.5824 48.7201 36.9264 47.4741 38.5644 47.4741C40.2024 47.4741 41.5464 48.7201 41.5464 51.3521V53.4521C41.5464 56.0981 40.2024 57.3301 38.5644 57.3301ZM48.5449 58.2401C50.7569 58.2401 52.5349 56.6021 52.5349 53.5221V51.2821C52.5349 48.2161 50.7569 46.5641 48.5449 46.5641C46.3189 46.5641 44.5409 48.2161 44.5409 51.2821V53.5221C44.5409 56.6021 46.3189 58.2401 48.5449 58.2401ZM48.5449 57.3301C46.9069 57.3301 45.5629 56.0981 45.5629 53.4521V51.3521C45.5629 48.7201 46.9069 47.4741 48.5449 47.4741C50.1829 47.4741 51.5269 48.7201 51.5269 51.3521V53.4521C51.5269 56.0981 50.1829 57.3301 48.5449 57.3301ZM58.5253 58.2401C60.7373 58.2401 62.5153 56.6021 62.5153 53.5221V51.2821C62.5153 48.2161 60.7373 46.5641 58.5253 46.5641C56.2993 46.5641 54.5213 48.2161 54.5213 51.2821V53.5221C54.5213 56.6021 56.2993 58.2401 58.5253 58.2401ZM58.5253 57.3301C56.8873 57.3301 55.5433 56.0981 55.5433 53.4521V51.3521C55.5433 48.7201 56.8873 47.4741 58.5253 47.4741C60.1633 47.4741 61.5073 48.7201 61.5073 51.3521V53.4521C61.5073 56.0981 60.1633 57.3301 58.5253 57.3301ZM70.0878 54.9221H74.0218V56.1961H75.0158V45.8501H74.0218V54.0961H70.0878V54.9221ZM68.3378 51.0161C70.2138 51.0161 71.7118 50.2321 71.7118 48.7061V48.5241C71.7118 46.9981 70.2138 46.2001 68.3378 46.2001C66.4618 46.2001 64.9638 46.9981 64.9638 48.5241V48.7061C64.9638 50.2321 66.4618 51.0161 68.3378 51.0161ZM65.9298 48.5521C65.9298 47.6141 66.9378 47.0681 68.3378 47.0681C69.7518 47.0681 70.7598 47.6141 70.7598 48.5521V48.6781C70.7598 49.6161 69.7518 50.1621 68.3378 50.1621C66.9378 50.1621 65.9298 49.6161 65.9298 48.6781V48.5521ZM68.4638 55.3841C68.5478 54.6141 68.6178 53.8161 68.6738 53.0601C70.1018 52.9901 71.6278 52.8641 72.8878 52.6821L72.7898 51.8421C70.7598 52.0941 68.1698 52.2481 66.5738 52.2481H64.2218L64.2638 53.1161H66.5178C66.8818 53.1161 67.2738 53.1161 67.6798 53.1021C67.6378 53.8161 67.5678 54.6001 67.4838 55.3141L68.4638 55.3841ZM67.5678 55.9301H66.5738V58.7721H75.6178V57.8481H67.5678V55.9301Z" fill="black"/>
<path d="M5.012 90.6661C3.78 90.6661 2.59 91.2261 1.96 92.2621V91.6181C1.932 88.7481 3.178 87.4741 4.83 87.4741C6.328 87.4741 7.14 88.1881 7.756 89.4481L8.624 89.0001C7.882 87.4461 6.636 86.5641 4.802 86.5641C2.842 86.5641 0.994 87.9501 0.994 91.5761V94.3901C0.994 96.8261 2.688 98.2401 4.9 98.2401C7.07 98.2401 8.82 96.8121 8.82 94.4461C8.82 92.0801 7.07 90.6661 5.012 90.6661ZM4.9 97.3301C3.318 97.3301 2.002 96.3081 2.002 94.4461C2.002 92.5841 3.318 91.5761 4.9 91.5761C6.468 91.5761 7.812 92.5841 7.812 94.4461C7.812 96.3081 6.468 97.3301 4.9 97.3301ZM14.6777 98.2401C16.8897 98.2401 18.6677 96.6021 18.6677 93.5221V91.2821C18.6677 88.2161 16.8897 86.5641 14.6777 86.5641C12.4517 86.5641 10.6737 88.2161 10.6737 91.2821V93.5221C10.6737 96.6021 12.4517 98.2401 14.6777 98.2401ZM14.6777 97.3301C13.0397 97.3301 11.6957 96.0981 11.6957 93.4521V91.3521C11.6957 88.7201 13.0397 87.4741 14.6777 87.4741C16.3157 87.4741 17.6597 88.7201 17.6597 91.3521V93.4521C17.6597 96.0981 16.3157 97.3301 14.6777 97.3301ZM24.6582 98.2401C26.8702 98.2401 28.6482 96.6021 28.6482 93.5221V91.2821C28.6482 88.2161 26.8702 86.5641 24.6582 86.5641C22.4322 86.5641 20.6542 88.2161 20.6542 91.2821V93.5221C20.6542 96.6021 22.4322 98.2401 24.6582 98.2401ZM24.6582 97.3301C23.0202 97.3301 21.6762 96.0981 21.6762 93.4521V91.3521C21.6762 88.7201 23.0202 87.4741 24.6582 87.4741C26.2962 87.4741 27.6402 88.7201 27.6402 91.3521V93.4521C27.6402 96.0981 26.2962 97.3301 24.6582 97.3301ZM31.3486 100.48L31.8246 96.7701H30.8166L30.5226 100.48H31.3486ZM37.8242 98.2401C40.0362 98.2401 41.8142 96.6021 41.8142 93.5221V91.2821C41.8142 88.2161 40.0362 86.5641 37.8242 86.5641C35.5982 86.5641 33.8202 88.2161 33.8202 91.2821V93.5221C33.8202 96.6021 35.5982 98.2401 37.8242 98.2401ZM37.8242 97.3301C36.1862 97.3301 34.8422 96.0981 34.8422 93.4521V91.3521C34.8422 88.7201 36.1862 87.4741 37.8242 87.4741C39.4622 87.4741 40.8062 88.7201 40.8062 91.3521V93.4521C40.8062 96.0981 39.4622 97.3301 37.8242 97.3301ZM47.8046 98.2401C50.0166 98.2401 51.7946 96.6021 51.7946 93.5221V91.2821C51.7946 88.2161 50.0166 86.5641 47.8046 86.5641C45.5786 86.5641 43.8006 88.2161 43.8006 91.2821V93.5221C43.8006 96.6021 45.5786 98.2401 47.8046 98.2401ZM47.8046 97.3301C46.1666 97.3301 44.8226 96.0981 44.8226 93.4521V91.3521C44.8226 88.7201 46.1666 87.4741 47.8046 87.4741C49.4426 87.4741 50.7866 88.7201 50.7866 91.3521V93.4521C50.7866 96.0981 49.4426 97.3301 47.8046 97.3301ZM57.7851 98.2401C59.9971 98.2401 61.7751 96.6021 61.7751 93.5221V91.2821C61.7751 88.2161 59.9971 86.5641 57.7851 86.5641C55.5591 86.5641 53.7811 88.2161 53.7811 91.2821V93.5221C53.7811 96.6021 55.5591 98.2401 57.7851 98.2401ZM57.7851 97.3301C56.1471 97.3301 54.8031 96.0981 54.8031 93.4521V91.3521C54.8031 88.7201 56.1471 87.4741 57.7851 87.4741C59.4231 87.4741 60.7671 88.7201 60.7671 91.3521V93.4521C60.7671 96.0981 59.4231 97.3301 57.7851 97.3301ZM69.3476 94.9221H73.2816V96.1961H74.2756V85.8501H73.2816V94.0961H69.3476V94.9221ZM67.5976 91.0161C69.4736 91.0161 70.9716 90.2321 70.9716 88.7061V88.5241C70.9716 86.9981 69.4736 86.2001 67.5976 86.2001C65.7216 86.2001 64.2236 86.9981 64.2236 88.5241V88.7061C64.2236 90.2321 65.7216 91.0161 67.5976 91.0161ZM65.1896 88.5521C65.1896 87.6141 66.1976 87.0681 67.5976 87.0681C69.0116 87.0681 70.0196 87.6141 70.0196 88.5521V88.6781C70.0196 89.6161 69.0116 90.1621 67.5976 90.1621C66.1976 90.1621 65.1896 89.6161 65.1896 88.6781V88.5521ZM67.7236 95.3841C67.8076 94.6141 67.8776 93.8161 67.9336 93.0601C69.3616 92.9901 70.8876 92.8641 72.1476 92.6821L72.0496 91.8421C70.0196 92.0941 67.4296 92.2481 65.8336 92.2481H63.4816L63.5236 93.1161H65.7776C66.1416 93.1161 66.5336 93.1161 66.9396 93.1021C66.8976 93.8161 66.8276 94.6001 66.7436 95.3141L67.7236 95.3841ZM66.8276 95.9301H65.8336V98.7721H74.8776V97.8481H66.8276V95.9301Z" fill="black"/>
</svg>
