<svg width="168" height="131" viewBox="0 0 168 131" fill="none" xmlns="http://www.w3.org/2000/svg">
<path d="M12 87.8H12.852V76.724H12V87.8ZM4.212 83.6C5.472 82.868 6.396 82.088 6.96 81.2L10.044 83.48L10.512 82.772L7.32 80.444C7.488 80.012 7.572 79.532 7.572 79.028H10.128V78.26H7.572V76.736H6.72V78.26H4.164V79.028H6.708C6.708 80.612 5.628 81.788 3.792 82.892L4.212 83.6ZM7.548 83.252H6.684V85.28C6.288 85.292 5.928 85.304 5.616 85.304H3.6L3.648 86.096H5.568C7.2 86.096 9.372 85.94 11.04 85.712L10.944 84.944C9.888 85.088 8.664 85.184 7.548 85.244V83.252ZM23.5469 81.056H21.8309V76.904H21.0029V87.596H21.8309V81.848H23.5469V87.8H24.3869V76.724H23.5469V81.056ZM16.2029 85.172V78.404H19.4189V77.612H15.3389V85.952H16.6589C17.9909 85.952 19.0709 85.88 20.1749 85.688L20.0789 84.92C18.9029 85.1 17.8589 85.172 16.7909 85.172H16.2029ZM32.8398 87.164V77.516H32.0718L29.0478 79.964L29.5518 80.6L31.9638 78.644V87.164H32.8398ZM41.3959 87.164V86.372H36.2239L39.1759 83.432C40.3879 82.22 41.1319 81.212 41.1319 79.892C41.1319 78.332 39.9439 77.336 38.1439 77.336C36.3799 77.336 35.3719 78.632 34.9879 80.012L35.8159 80.216C36.1639 79.088 36.8119 78.128 38.1439 78.128C39.4759 78.128 40.2799 78.812 40.2799 79.904C40.2799 80.912 39.7279 81.74 38.5399 82.928L34.9519 86.492V87.164H41.3959ZM51.4141 81.056H49.6981V76.904H48.8581V87.596H49.6981V81.848H51.4141V87.8H52.2541V76.724H51.4141V81.056ZM46.5061 78.452V78.692C46.5061 81.284 45.1501 83.876 43.0261 85.772L43.6381 86.396C45.8821 84.32 47.3581 81.656 47.3581 78.524V77.672H43.2301V78.452H46.5061ZM59.265 82.556H62.625V83.024H63.489V76.724H62.625V81.908H59.265V82.556ZM57.765 80.06C59.385 80.06 60.657 79.508 60.657 78.524V78.44C60.657 77.456 59.385 76.916 57.765 76.916C56.145 76.916 54.873 77.456 54.873 78.44V78.524C54.873 79.508 56.145 80.06 57.765 80.06ZM55.701 78.464C55.701 77.96 56.553 77.612 57.765 77.612C58.977 77.612 59.841 77.96 59.841 78.464V78.5C59.841 79.016 58.977 79.352 57.765 79.352C56.553 79.352 55.701 79.016 55.701 78.5V78.464ZM57.213 81.512C57.177 82.028 57.129 82.604 57.069 83.096L57.909 83.168C57.969 82.616 58.017 82.028 58.065 81.476C59.289 81.416 60.585 81.296 61.665 81.152L61.581 80.492C59.841 80.708 57.621 80.828 56.253 80.828H54.237L54.273 81.524H56.205C56.517 81.524 56.865 81.524 57.213 81.512ZM57.093 86.072H63.489V83.624H56.193V84.332H62.637V85.364H56.253V87.86H63.957V87.14H57.093V86.072ZM68.9779 88.844L73.1779 76.316H72.2779L68.0779 88.844H68.9779ZM85.2539 87.8H86.1059V76.724H85.2539V87.8ZM77.4659 83.6C78.7259 82.868 79.6499 82.088 80.2139 81.2L83.2979 83.48L83.7659 82.772L80.5739 80.444C80.7419 80.012 80.8259 79.532 80.8259 79.028H83.3819V78.26H80.8259V76.736H79.9739V78.26H77.4179V79.028H79.9619C79.9619 80.612 78.8819 81.788 77.0459 82.892L77.4659 83.6ZM80.8019 83.252H79.9379V85.28C79.5419 85.292 79.1819 85.304 78.8699 85.304H76.8539L76.9019 86.096H78.8219C80.4539 86.096 82.6259 85.94 84.2939 85.712L84.1979 84.944C83.1419 85.088 81.9179 85.184 80.8019 85.244V83.252ZM96.3808 78.788C96.3808 80 96.1288 82.148 95.7808 84.008L96.6208 84.164C96.9688 82.268 97.2328 80.156 97.2328 78.596V77.66H89.3008V78.44H96.3808V78.788ZM92.9968 81.428H92.1448V86.12H88.1368V86.912H98.5048V86.12H92.9968V81.428ZM110.942 81.464V85.136H111.806V76.724H110.942V78.416H108.278C107.786 77.516 106.85 77.084 105.794 77.084C104.198 77.084 102.914 78.032 102.914 80V80.252C102.914 82.208 104.198 83.144 105.794 83.144C106.982 83.144 108.014 82.592 108.434 81.464H110.942ZM103.778 80C103.778 78.584 104.63 77.852 105.794 77.852C106.934 77.852 107.786 78.584 107.786 80V80.24C107.786 81.656 106.934 82.376 105.794 82.376C104.63 82.376 103.778 81.656 103.778 80.24V80ZM110.942 80.744H108.614C108.626 80.588 108.638 80.42 108.638 80.252V80C108.638 79.7 108.602 79.412 108.554 79.16H110.942V80.744ZM105.542 84.26H104.678V87.8H112.322V87.008H105.542V84.26ZM116.899 84.992C117.319 86.228 118.411 87.344 120.331 87.344C122.311 87.344 123.643 86.228 123.643 84.632C123.643 83.396 122.863 82.496 121.747 82.172C122.707 81.872 123.415 81.056 123.415 79.868C123.415 78.32 122.119 77.336 120.319 77.336C118.579 77.336 117.595 78.428 117.187 79.544L117.967 79.832C118.327 78.956 118.975 78.128 120.319 78.128C121.663 78.128 122.551 78.788 122.551 79.904C122.551 81.008 121.723 81.8 120.151 81.8H118.975V82.568H120.151C121.903 82.568 122.791 83.468 122.791 84.608C122.791 85.76 121.855 86.552 120.331 86.552C118.807 86.552 118.051 85.7 117.691 84.728L116.899 84.992ZM125.916 87.344C126.288 87.344 126.588 87.044 126.588 86.672C126.588 86.3 126.288 86.012 125.916 86.012C125.544 86.012 125.256 86.3 125.256 86.672C125.256 87.044 125.544 87.344 125.916 87.344ZM131.644 87.344C133.708 87.344 135.088 86.204 135.088 84.572C135.088 83.516 134.368 82.592 133.192 82.148C134.272 81.716 134.788 80.888 134.788 79.892C134.788 78.344 133.516 77.336 131.644 77.336C129.784 77.336 128.5 78.344 128.5 79.892C128.5 80.888 129.016 81.716 130.096 82.148C128.92 82.592 128.2 83.516 128.2 84.572C128.2 86.204 129.592 87.344 131.644 87.344ZM131.644 81.788C130.204 81.788 129.364 81.032 129.364 79.964C129.364 78.884 130.204 78.128 131.644 78.128C133.084 78.128 133.936 78.884 133.936 79.964C133.936 81.032 133.084 81.788 131.644 81.788ZM131.644 86.552C130.024 86.552 129.064 85.724 129.064 84.548C129.064 83.408 130.072 82.556 131.644 82.556C133.216 82.556 134.224 83.408 134.224 84.548C134.224 85.724 133.264 86.552 131.644 86.552ZM138.65 82.556C139.778 82.556 140.702 81.776 140.702 80.384V79.496C140.702 78.128 139.778 77.336 138.65 77.336C137.51 77.336 136.598 78.128 136.598 79.496V80.384C136.598 81.776 137.51 82.556 138.65 82.556ZM138.914 87.164L145.55 77.516H144.554L137.93 87.164H138.914ZM138.65 81.812C137.942 81.812 137.402 81.308 137.402 80.348V79.532C137.402 78.584 137.942 78.08 138.65 78.08C139.358 78.08 139.91 78.584 139.91 79.532V80.348C139.91 81.32 139.358 81.812 138.65 81.812ZM144.734 87.344C145.862 87.344 146.786 86.564 146.786 85.172V84.284C146.786 82.916 145.862 82.124 144.734 82.124C143.594 82.124 142.682 82.916 142.682 84.284V85.172C142.682 86.564 143.594 87.344 144.734 87.344ZM144.734 86.6C144.026 86.6 143.486 86.108 143.486 85.136V84.32C143.486 83.372 144.026 82.868 144.734 82.868C145.442 82.868 145.994 83.372 145.994 84.32V85.136C145.994 86.108 145.442 86.6 144.734 86.6Z" fill="#333333"/>
<path d="M15.496 56.2V50.616H13.896V65.464H15.496V57.656H17.8V56.2H15.496ZM11.096 63.064V51.704H3.88V63.064H11.096ZM9.496 53.176V61.592H5.48V53.176H9.496ZM31.4999 65.464V50.616H29.8999V65.464H31.4999ZM23.2919 63.528C25.4359 63.528 27.2119 62.12 27.2119 58.552V56.296C27.2119 52.728 25.4359 51.32 23.2919 51.32C21.1159 51.32 19.3399 52.728 19.3399 56.296V58.552C19.3399 62.12 21.1159 63.528 23.2919 63.528ZM23.2919 62.072C21.9799 62.072 20.9399 61.112 20.9399 58.536V56.312C20.9399 53.72 21.9799 52.776 23.2919 52.776C24.6039 52.776 25.6279 53.72 25.6279 56.312V58.536C25.6279 61.112 24.6039 62.072 23.2919 62.072ZM41.7278 59.416H46.2078V51.608H35.6638V59.416H40.1438V62.888H33.9518V64.36H47.9038V62.888H41.7278V59.416ZM44.6078 53.064V57.976H37.2638V53.064H44.6078ZM64.1655 54.024H61.0935C60.5015 52.12 59.1255 51.32 57.5095 51.32C55.3655 51.32 53.6055 52.728 53.6055 56.296V58.552C53.6055 62.12 55.3655 63.528 57.5095 63.528C59.3015 63.528 60.8215 62.536 61.2695 60.136H64.1655V65.464H65.7655V50.616H64.1655V54.024ZM59.8135 58.536C59.8135 61.112 58.8055 62.072 57.5095 62.072C56.2135 62.072 55.2055 61.112 55.2055 58.536V56.312C55.2055 53.72 56.2135 52.776 57.5095 52.776C58.8055 52.776 59.8135 53.72 59.8135 56.312V58.536ZM61.3975 58.68V58.552V56.296C61.3975 56.008 61.3815 55.736 61.3655 55.48H64.1655V58.68H61.3975ZM72.5854 51.928V50.44H70.9854V51.928H68.2494V53.24H75.3214V51.928H72.5854ZM79.6574 55.608V59.224H81.1774V50.616H79.6574V54.2H77.8014V50.776H76.3134V59.064H77.8014V55.608H79.6574ZM74.7934 56.44C74.7934 54.824 73.5454 53.976 71.8014 53.976C70.0414 53.976 68.7934 54.824 68.7934 56.44V56.648C68.7934 58.28 70.0414 59.128 71.8014 59.128C73.5454 59.128 74.7934 58.28 74.7934 56.648V56.44ZM70.2334 56.488C70.2334 55.768 70.8574 55.272 71.8014 55.272C72.7294 55.272 73.3534 55.768 73.3534 56.488V56.616C73.3534 57.352 72.7294 57.816 71.8014 57.816C70.8574 57.816 70.2334 57.352 70.2334 56.616V56.488ZM74.4574 59.992C72.2654 59.992 70.8894 61.112 70.8894 62.808C70.8894 64.52 72.2654 65.624 74.4574 65.624H77.8014C79.9774 65.624 81.3534 64.52 81.3534 62.808C81.3534 61.112 79.9774 59.992 77.8014 59.992H74.4574ZM74.6974 64.2C73.2094 64.2 72.4734 63.64 72.4734 62.792C72.4734 61.96 73.2094 61.4 74.6974 61.4H77.5454C79.0334 61.4 79.7694 61.96 79.7694 62.792C79.7694 63.64 79.0334 64.2 77.5454 64.2H74.6974ZM94.5093 53.992H91.5972V55.368H94.5093V58.952H96.1093V50.616H94.5093V53.992ZM91.9013 58.792L92.7173 57.496L88.5573 54.776C88.7813 54.152 88.8933 53.48 88.8933 52.76V52.744H92.1413V51.32H84.1413V52.744H87.3413V52.76C87.3413 54.792 86.1093 56.28 83.5493 57.752L84.3173 59.016C85.9493 58.12 87.1333 57.16 87.8853 56.056L91.9013 58.792ZM94.5093 61.336V65.624H96.1093V59.88H86.1253V61.336H94.5093ZM110.081 56.488C110.353 54.936 110.497 53.304 110.497 52.024V51.08H100.273V52.536H108.913C108.897 53.4 108.753 54.984 108.481 56.488H98.5611V57.896H112.513V56.488H110.081ZM110.817 65.48V59.688H100.273V65.48H110.817ZM109.217 61.064V64.072H101.873V61.064H109.217Z" fill="#5725E0"/>
<path d="M14.66 9.78H10.82C10.08 7.4 8.36 6.4 6.34 6.4C3.66 6.4 1.46 8.16 1.46 12.62V15.44C1.46 19.9 3.66 21.66 6.34 21.66C8.58 21.66 10.48 20.42 11.04 17.42H14.66V24.08H16.66V5.52H14.66V9.78ZM9.22 15.42C9.22 18.64 7.96 19.84 6.34 19.84C4.72 19.84 3.46 18.64 3.46 15.42V12.64C3.46 9.4 4.72 8.22 6.34 8.22C7.96 8.22 9.22 9.4 9.22 12.64V15.42ZM11.2 15.6V15.44V12.62C11.2 12.26 11.18 11.92 11.16 11.6H14.66V15.6H11.2ZM25.1848 7.16V5.3H23.1848V7.16H19.7648V8.8H28.6048V7.16H25.1848ZM34.0248 11.76V16.28H35.9248V5.52H34.0248V10H31.7048V5.72H29.8448V16.08H31.7048V11.76H34.0248ZM27.9448 12.8C27.9448 10.78 26.3848 9.72 24.2048 9.72C22.0048 9.72 20.4448 10.78 20.4448 12.8V13.06C20.4448 15.1 22.0048 16.16 24.2048 16.16C26.3848 16.16 27.9448 15.1 27.9448 13.06V12.8ZM22.2448 12.86C22.2448 11.96 23.0248 11.34 24.2048 11.34C25.3648 11.34 26.1448 11.96 26.1448 12.86V13.02C26.1448 13.94 25.3648 14.52 24.2048 14.52C23.0248 14.52 22.2448 13.94 22.2448 13.02V12.86ZM27.5248 17.24C24.7848 17.24 23.0648 18.64 23.0648 20.76C23.0648 22.9 24.7848 24.28 27.5248 24.28H31.7048C34.4248 24.28 36.1448 22.9 36.1448 20.76C36.1448 18.64 34.4248 17.24 31.7048 17.24H27.5248ZM27.8248 22.5C25.9648 22.5 25.0448 21.8 25.0448 20.74C25.0448 19.7 25.9648 19 27.8248 19H31.3848C33.2448 19 34.1648 19.7 34.1648 20.74C34.1648 21.8 33.2448 22.5 31.3848 22.5H27.8248ZM57.692 12.5H54.852V14.32H57.692V24.08H59.652V5.52H57.692V12.5ZM46.432 19.22V8.72H49.312V6.88H44.492V21.06H45.832C47.092 21.06 48.332 20.98 49.572 20.78L49.392 19C48.412 19.16 47.372 19.22 46.672 19.22H46.432ZM52.172 19.22V8.72H55.152V6.88H50.232V21.06H51.872C53.152 21.06 54.472 20.98 55.772 20.78L55.592 19C54.532 19.16 53.512 19.22 52.632 19.22H52.172ZM77.4169 12.5V5.52H75.4169V24.08H77.4169V14.32H80.2969V12.5H77.4169ZM65.0169 19.24V6.88H62.9969V21.06H66.1769C68.7969 21.06 71.5169 20.8 73.7569 20.42L73.5169 18.66C71.1769 19.02 68.5969 19.24 66.5169 19.24H65.0169ZM91.2417 12.02H96.6417V5.72H94.6417V7.36H85.8417V5.72H83.8417V12.02H89.2617V13.5H81.5217V15.12H98.9617V13.5H91.2417V12.02ZM94.6417 8.96V10.42H85.8417V8.96H94.6417ZM96.8417 21.02V16.36H83.5617V17.94H94.8417V19.44H83.6617V24.18H97.3217V22.56H85.6617V21.02H96.8417ZM115.487 12.5V5.52H113.547V24.08H115.487V14.32H118.327V12.5H115.487ZM103.727 8.8V9.02C103.727 12.28 102.767 16.32 100.527 20.6L102.207 21.56C104.487 17.16 105.667 13.04 105.667 8.62V6.98H101.067V8.8H103.727ZM109.147 8.8V9.02C109.147 12.38 108.207 17.08 105.987 21.38L107.647 22.32C109.947 17.92 111.107 13.12 111.107 8.62V6.98H106.567V8.8H109.147ZM129.631 16.42C132.971 16.42 135.111 14.28 135.111 11.42C135.111 8.62 132.971 6.48 129.631 6.48H126.731C123.391 6.48 121.251 8.62 121.251 11.42C121.251 14.28 123.391 16.42 126.731 16.42H129.631ZM129.271 8.26C131.691 8.26 133.131 9.58 133.131 11.44C133.131 13.32 131.691 14.64 129.271 14.64H127.071C124.671 14.64 123.251 13.32 123.251 11.44C123.251 9.58 124.671 8.26 127.071 8.26H129.271ZM132.451 17.48H130.511V20.86H125.871V17.48H123.911V20.86H119.451V22.68H136.891V20.86H132.451V17.48ZM139.956 10.38C140.536 8.86 141.416 7.84 143.296 7.84C145.016 7.84 146.316 8.86 146.316 10.44C146.316 11.9 145.536 12.7 143.976 13.54C142.216 14.44 141.656 15.2 141.656 16.84L141.676 17.98H143.576V17C143.596 16.12 143.936 15.66 145.156 15C147.056 14 148.336 12.74 148.336 10.44C148.336 7.68 145.896 6 143.296 6C140.516 6 138.836 7.62 138.116 9.74L139.956 10.38ZM142.636 23.3C143.396 23.3 144.016 22.7 144.016 21.94C144.016 21.18 143.396 20.56 142.636 20.56C141.876 20.56 141.276 21.18 141.276 21.94C141.276 22.7 141.876 23.3 142.636 23.3Z" fill="black"/>
<rect y="101" width="70" height="30" rx="4" fill="#5725E0"/>
<path d="M21.6142 114.9V110.712H20.4142V121.848H21.6142V115.992H23.3422V114.9H21.6142ZM17.1742 112.68V112.812C17.1742 115.164 15.6742 117.72 12.8542 119.568L13.5982 120.516C16.5982 118.464 18.3742 115.728 18.3742 112.572V111.588H13.1062V112.68H17.1742ZM32.4171 116.496H33.6171V110.712H32.4171V116.496ZM30.4611 113.508C30.4611 111.78 29.1411 110.952 27.4851 110.952C25.8171 110.952 24.4971 111.78 24.4971 113.508V113.688C24.4971 115.404 25.8171 116.244 27.4851 116.244C29.1411 116.244 30.4611 115.404 30.4611 113.688V113.508ZM25.6971 113.52C25.6971 112.512 26.4651 112.008 27.4851 112.008C28.5051 112.008 29.2731 112.512 29.2731 113.52V113.676C29.2731 114.672 28.5051 115.188 27.4851 115.188C26.4651 115.188 25.6971 114.672 25.6971 113.676V113.52ZM27.4491 118.368V117.084H26.2491V121.848H33.6171V117.084H32.4171V118.368H27.4491ZM27.4491 119.424H32.4171V120.78H27.4491V119.424ZM44.372 114.9V110.712H43.172V121.848H44.372V115.992H46.1V114.9H44.372ZM38.132 110.724V112.356H35.48V113.424H41.996V112.356H39.344V110.724H38.132ZM38.756 114.42C37.208 114.42 35.996 115.44 35.996 117.048V117.696C35.996 119.304 37.208 120.336 38.756 120.336C40.292 120.336 41.492 119.304 41.492 117.696V117.048C41.492 115.44 40.292 114.42 38.756 114.42ZM40.292 117.648C40.292 118.656 39.62 119.268 38.756 119.268C37.88 119.268 37.196 118.656 37.196 117.648V117.096C37.196 116.1 37.88 115.5 38.756 115.5C39.62 115.5 40.292 116.1 40.292 117.096V117.648ZM55.1869 121.848H56.3749V110.712H55.1869V121.848ZM51.7549 112.68V112.812C51.7549 115.164 50.2189 117.72 47.3389 119.568L48.0589 120.516C51.1549 118.476 52.9549 115.728 52.9549 112.572V111.588H47.5789V112.68H51.7549Z" fill="white"/>
</svg>
