<svg width="69" height="53" viewBox="0 0 69 53" fill="none" xmlns="http://www.w3.org/2000/svg">
<path d="M13.212 4.14515V16.6551H14.994V4.14515H13.212ZM10.458 13.8651L11.466 12.4971L6.606 8.86115C6.912 7.99715 7.056 7.06115 7.056 6.07115V4.77515H5.292V6.07115C5.292 8.73515 3.924 10.8411 0.864 12.8031L1.854 14.2071C3.672 13.0371 4.986 11.8131 5.85 10.4271L10.458 13.8651ZM5.742 15.6111H3.96V20.8491H15.696V19.2111H5.742V15.6111ZM29.1644 10.1571C30.6944 9.72515 31.6124 8.80715 31.6124 7.36715C31.6124 5.31515 29.7404 4.32515 26.9144 4.32515H24.2864C21.4784 4.32515 19.5884 5.31515 19.5884 7.36715C19.5884 8.80715 20.5244 9.74315 22.0544 10.1571V11.9931H17.7524V13.5411H33.4484V11.9931H29.1644V10.1571ZM21.3884 7.38515C21.3884 6.35915 22.5404 5.83715 24.6104 5.83715H26.6084C28.6784 5.83715 29.8304 6.35915 29.8304 7.38515C29.8304 8.37515 28.6784 8.93315 26.6084 8.93315H24.6104C22.5404 8.93315 21.3884 8.39315 21.3884 7.38515ZM23.7644 10.4091C24.9884 10.4271 26.2304 10.4271 27.4544 10.4091V11.9931H23.7644V10.4091ZM23.6924 14.9631C20.9924 14.9631 19.4984 16.2411 19.4984 17.9871C19.4984 19.7511 20.9924 21.0291 23.6924 21.0291H27.5084C30.2084 21.0291 31.7024 19.7511 31.7024 17.9871C31.7024 16.2411 30.2084 14.9631 27.5084 14.9631H23.6924ZM24.0524 19.4631C22.1624 19.4631 21.2984 18.8871 21.2984 17.9691C21.2984 17.0871 22.1624 16.5111 24.0524 16.5111H27.1664C29.0564 16.5111 29.9204 17.0871 29.9204 17.9691C29.9204 18.8871 29.0564 19.4631 27.1664 19.4631H24.0524ZM47.3307 7.76315H44.0547V9.31115H47.3307V13.1631H49.1307V4.14515H47.3307V7.76315ZM44.4147 13.0731L45.3147 11.5971L40.6347 8.69915C40.8867 8.01515 41.0127 7.29515 41.0127 6.52115H44.6667V4.93715H35.6667V6.52115H39.2667C39.2667 8.69915 37.8987 10.3191 35.0007 11.8851L35.8287 13.3431C37.6827 12.3711 39.0147 11.3271 39.8787 10.1391L44.4147 13.0731ZM49.1307 20.8491V14.2251H38.0787V20.8491H49.1307ZM47.3307 15.8091V19.2291H39.8607V15.8091H47.3307ZM65.7131 12.5691L66.5771 11.0571L60.2771 7.58315C60.5831 6.89915 60.7271 6.19715 60.7271 5.44115V4.41515H58.9271V5.44115C58.9271 7.51115 57.1271 9.36515 52.8971 11.0031L53.6171 12.5691C56.3531 11.5431 58.2071 10.3731 59.3411 9.05915L65.7131 12.5691ZM51.8891 14.4411V16.0611H58.8551V21.0291H60.6371V16.0611H67.5851V14.4411H51.8891ZM9.432 35.6891H9.882C12.672 35.6891 14.544 34.8791 14.544 32.9351C14.544 31.0271 12.672 30.2351 9.882 30.2351H7.2C4.41 30.2351 2.52 31.0271 2.52 32.9351C2.52 34.8791 4.41 35.6891 7.2 35.6891H7.65V36.9851H0.684V38.4431H16.38V36.9851H9.432V35.6891ZM4.32 32.9531C4.32 32.0711 5.454 31.6751 7.542 31.6751H9.54C11.628 31.6751 12.762 32.0711 12.762 32.9531C12.762 33.8351 11.628 34.2671 9.54 34.2671H7.542C5.454 34.2671 4.32 33.8531 4.32 32.9531ZM14.472 44.0051V39.7391H2.52V41.1611H12.672V42.5831H2.61V46.9391H14.904V45.4631H4.41V44.0051H14.472ZM32.0624 46.8491V30.1451H30.2804V46.8491H32.0624ZM21.8024 44.4731C24.1964 44.4731 26.7344 44.2571 28.6784 43.8971L28.4624 42.3311C26.4104 42.6551 24.0344 42.8531 22.1264 42.8531H20.4524V38.6231H26.6804V31.3691H18.6524V32.9891H24.8804V37.0391H18.6524V44.4731H21.8024ZM47.3487 46.8491H49.1307V30.1451H47.3487V46.8491ZM42.2007 33.0971V33.2951C42.2007 36.8231 39.8967 40.6571 35.5767 43.4291L36.6567 44.8511C41.3007 41.7911 44.0007 37.6691 44.0007 32.9351V31.4591H35.9367V33.0971H42.2007Z" fill="black"/>
</svg>
