<svg width="37" height="20" viewBox="0 0 37 20" fill="none" xmlns="http://www.w3.org/2000/svg">
<path d="M13.74 7.47022H11.88V1.01022H9.46V18.9502H11.88V9.79022H13.74V19.3902H16.22V0.710224H13.74V7.47022ZM2.94 14.0902V4.33022H7.5V1.99022H0.34V16.4302H3.22C5.1 16.4302 6.66 16.3502 8.36 16.0302L8.12 13.7702C6.4 14.0302 4.94 14.0902 3.58 14.0902H2.94ZM20.5048 8.35022C23.5848 7.95022 25.6648 7.39022 26.9648 6.55022L34.2648 8.35022L34.9648 6.31022L28.4448 4.77022C28.5648 4.47022 28.6248 4.15022 28.6648 3.79022H34.0248V1.71022H28.7448V0.330224H26.2848V1.71022H20.8848V3.79022H26.2848C25.9048 4.89022 24.0848 5.75022 19.9248 6.29022L20.5048 8.35022ZM36.2448 8.85022H18.6448V10.8102H26.1648V11.9902H20.6048V13.8702H31.6448V14.7502H20.7048V19.4902H34.7048V17.5502H23.2448V16.6302H34.2048V11.9902H28.7248V10.8102H36.2448V8.85022Z" fill="black"/>
</svg>
