<svg width="161" height="16" viewBox="0 0 161 16" fill="none" xmlns="http://www.w3.org/2000/svg">
<path d="M11.016 6.48101H9.112V1.12101H7.608V15.441H9.112V7.93701H11.016V15.745H12.568V0.897005H11.016V6.48101ZM1.784 11.873V1.98501H0.184V13.329H2.28C3.816 13.329 5.176 13.233 6.616 12.977L6.456 11.569C4.968 11.793 3.656 11.873 2.504 11.873H1.784ZM30.5898 6.48101V0.897005H28.9898V15.745H30.5898V7.93701H32.8778V6.48101H30.5898ZM23.7098 3.52101H26.9258V2.06501H18.9898V3.52101H22.1578V4.16101C22.1578 7.58501 20.8298 10.065 18.4138 12.673L19.5498 13.729C20.9578 12.225 22.0138 10.721 22.7018 9.10501L26.3177 13.569L27.5178 12.529L23.3098 7.36101C23.5818 6.33701 23.7098 5.28101 23.7098 4.16101V3.52101ZM41.6496 6.41701H45.9696V5.05701H37.3296V2.54501H45.8096V1.21701H35.7296V6.41701H40.0656V7.79301H33.8736V9.16901H47.8256V7.79301H41.6496V6.41701ZM39.1536 10.513C36.7536 10.513 35.4256 11.649 35.4256 13.201C35.4256 14.769 36.7536 15.905 39.1536 15.905H42.5456C44.9456 15.905 46.2736 14.769 46.2736 13.201C46.2736 11.649 44.9456 10.513 42.5456 10.513H39.1536ZM39.4736 14.513C37.7936 14.513 37.0256 14.001 37.0256 13.185C37.0256 12.401 37.7936 11.889 39.4736 11.889H42.2416C43.9216 11.889 44.6896 12.401 44.6896 13.185C44.6896 14.001 43.9216 14.513 42.2416 14.513H39.4736ZM60.9335 6.48101V0.897005H59.3335V15.745H60.9335V7.93701H63.2215V6.48101H60.9335ZM54.0535 4.72101H57.3495V3.26501H54.0695V0.913005H52.5015V3.26501H49.2535V4.72101H52.4855V4.75301C52.4855 7.74501 51.1575 10.145 48.7415 12.657L49.8775 13.729C51.3015 12.273 52.3735 10.801 53.0615 9.26501L56.6935 13.569L57.8775 12.513L53.6855 7.56901C53.9255 6.67301 54.0535 5.72901 54.0535 4.75301V4.72101ZM79.2593 15.745H80.8593V0.897005H79.2593V15.745ZM73.6113 1.76101H72.0593V3.69701C72.0593 7.24901 70.7953 9.96901 68.1233 12.657L69.2433 13.729C70.7633 12.209 71.8513 10.657 72.5713 8.99301L76.3633 13.569L77.5633 12.545L73.1633 7.28101C73.4673 6.14501 73.6113 4.96101 73.6113 3.69701V1.76101ZM94.7031 15.745H96.2551V0.897005H94.7031V15.745ZM89.1191 6.01701V7.47301H91.4871V15.441H93.0071V1.12101H91.4871V6.01701H89.1191ZM87.6151 1.76101H86.0951V3.72901C86.0951 7.21701 85.1191 10.081 83.1031 12.769L84.3191 13.729C85.3751 12.337 86.1591 10.881 86.7031 9.34501L89.2951 13.569L90.5751 12.657L87.2631 7.29701C87.5031 6.16101 87.6151 4.97701 87.6151 3.72901V1.76101ZM114.293 0.897005H112.693V8.14501H114.293V5.15301H116.597V3.68101H114.293V0.897005ZM110.309 4.35301C110.309 2.19301 108.613 1.137 106.437 1.137C104.229 1.137 102.517 2.19301 102.517 4.35301V4.59301C102.517 6.73701 104.229 7.80901 106.437 7.80901C108.613 7.80901 110.309 6.73701 110.309 4.59301V4.35301ZM104.117 4.385C104.117 3.16901 105.093 2.52901 106.437 2.52901C107.749 2.52901 108.725 3.16901 108.725 4.385V4.56101C108.725 5.77701 107.749 6.40101 106.437 6.40101C105.093 6.40101 104.117 5.77701 104.117 4.56101V4.385ZM114.293 13.057V9.07301H104.709V10.401H112.693V11.745H104.773V15.825H114.837V14.465H106.373V13.057H114.293ZM129.465 6.48101V0.897005H127.865V15.745H129.465V7.93701H131.769V6.48101H129.465ZM121.561 1.60101C119.417 1.60101 117.689 3.00901 117.689 6.57701V8.83301C117.689 12.401 119.417 13.809 121.561 13.809C123.673 13.809 125.401 12.401 125.401 8.83301V6.57701C125.401 3.00901 123.673 1.60101 121.561 1.60101ZM123.817 8.81701C123.817 11.393 122.825 12.353 121.561 12.353C120.281 12.353 119.289 11.393 119.289 8.81701V6.59301C119.289 4.00101 120.281 3.057 121.561 3.057C122.825 3.057 123.817 4.00101 123.817 6.59301V8.81701ZM140.525 10.001H145.005V1.80901H143.405V4.52901H136.061V1.80901H134.461V10.001H138.941V13.169H132.749V14.641H146.701V13.169H140.525V10.001ZM143.405 5.96901V8.56101H136.061V5.96901H143.405ZM159.057 15.745H160.641V0.897005H159.057V15.745ZM154.481 3.52101V3.69701C154.481 6.83301 152.433 10.241 148.593 12.705L149.553 13.969C153.681 11.249 156.081 7.58501 156.081 3.37701V2.06501H148.913V3.52101H154.481Z" fill="black"/>
</svg>
