<svg width="47" height="24" viewBox="0 0 47 24" fill="none" xmlns="http://www.w3.org/2000/svg">
<path d="M6.272 18.648V5.592H4.576L0.384 8.872L1.536 10.392L4.208 8.296V18.648H6.272ZM14.1939 18.648V5.592H12.4979L8.30588 8.872L9.45788 10.392L12.1299 8.296V18.648H14.1939ZM18.0678 18.888C18.7878 18.888 19.3638 18.312 19.3638 17.592C19.3638 16.872 18.7878 16.28 18.0678 16.28C17.3478 16.28 16.7718 16.872 16.7718 17.592C16.7718 18.312 17.3478 18.888 18.0678 18.888ZM30.3289 18.648V16.76H24.2969L27.6729 13.432C29.1609 11.96 30.0409 10.728 30.0409 9C30.0409 6.696 28.2969 5.352 25.7369 5.352C23.2249 5.352 21.7209 7.144 21.1929 9.128L23.1449 9.592C23.5129 8.248 24.2969 7.192 25.7369 7.192C27.2249 7.192 28.0089 7.976 28.0089 9.08C28.0089 10.168 27.4009 11.048 26.0729 12.376L21.3529 17.064V18.648H30.3289ZM34.8798 12.504C36.4958 12.504 37.8558 11.4 37.8558 9.528V8.312C37.8558 6.472 36.4958 5.352 34.8798 5.352C33.2638 5.352 31.9038 6.472 31.9038 8.312V9.528C31.9038 11.4 33.2638 12.504 34.8798 12.504ZM35.6798 18.648L44.7518 5.592H42.4798L33.4078 18.648H35.6798ZM34.8798 10.824C34.1918 10.824 33.6957 10.28 33.6957 9.4V8.456C33.6957 7.576 34.1918 7.032 34.8798 7.032C35.5677 7.032 36.0798 7.56 36.0798 8.456V9.4C36.0798 10.296 35.5677 10.824 34.8798 10.824ZM43.2158 18.888C44.8318 18.888 46.1918 17.784 46.1918 15.912V14.696C46.1918 12.856 44.8318 11.736 43.2158 11.736C41.5998 11.736 40.2398 12.856 40.2398 14.696V15.912C40.2398 17.784 41.5998 18.888 43.2158 18.888ZM43.2158 17.208C42.5278 17.208 42.0318 16.664 42.0318 15.784V14.84C42.0318 13.96 42.5278 13.416 43.2158 13.416C43.9038 13.416 44.4158 13.944 44.4158 14.84V15.784C44.4158 16.68 43.9038 17.208 43.2158 17.208Z" fill="#5725E0"/>
</svg>
