<svg width="44" height="22" viewBox="0 0 44 22" fill="none" xmlns="http://www.w3.org/2000/svg">
<path d="M9.048 9.156H7.404L7.944 6.48H6.804L6.276 9.156H4.164L4.692 6.48H3.552L3.024 9.156H1.116V10.2H2.808L2.364 12.48H0.576V13.524H2.148L1.62 16.2H2.76L3.288 13.524H5.4L4.872 16.2H6L6.54 13.524H8.496V12.48H6.744L7.2 10.2H9.048V9.156ZM3.504 12.48L3.948 10.2H6.06L5.616 12.48H3.504ZM18.4054 11.496H19.6054V5.712H18.4054V11.496ZM16.4494 8.508C16.4494 6.78 15.1294 5.952 13.4734 5.952C11.8054 5.952 10.4854 6.78 10.4854 8.508V8.688C10.4854 10.404 11.8054 11.244 13.4734 11.244C15.1294 11.244 16.4494 10.404 16.4494 8.688V8.508ZM11.6854 8.52C11.6854 7.512 12.4534 7.008 13.4734 7.008C14.4934 7.008 15.2614 7.512 15.2614 8.52V8.676C15.2614 9.672 14.4934 10.188 13.4734 10.188C12.4534 10.188 11.6854 9.672 11.6854 8.676V8.52ZM13.4374 13.368V12.084H12.2374V16.848H19.6054V12.084H18.4054V13.368H13.4374ZM13.4374 14.424H18.4054V15.78H13.4374V14.424ZM22.5483 10.272C24.4083 9.96 25.6563 9.552 26.4003 8.988L30.7323 10.272L31.0803 9.312L27.0963 8.148C27.1923 7.932 27.2523 7.692 27.2643 7.428H30.5163V6.432H27.3003V5.472H26.1483V6.432H22.8363V7.428H26.1483C25.9923 8.232 24.8043 8.88 22.2603 9.288L22.5483 10.272ZM31.9083 10.692H21.4443V11.64H26.0883V12.504H22.6683V13.428H29.4363V14.22H22.7283V16.908H30.9243V15.972H23.9283V15.132H30.6363V12.504H27.2763V11.64H31.9083V10.692ZM41.4632 10.116C41.6672 8.952 41.7752 7.728 41.7752 6.768V6.06H34.1072V7.152H40.5872C40.5752 7.8 40.4672 8.988 40.2632 10.116H32.8232V11.172H43.2872V10.116H41.4632ZM42.0152 16.86V12.516H34.1072V16.86H42.0152ZM40.8152 13.548V15.804H35.3072V13.548H40.8152Z" fill="#666666"/>
</svg>
