<svg width="67" height="16" viewBox="0 0 67 16" fill="none" xmlns="http://www.w3.org/2000/svg">
<path d="M5.068 13.0704C7.49 13.0704 9.198 11.8104 9.198 9.75245C9.198 8.56245 8.414 7.51245 7.028 6.98045C8.302 6.46245 8.876 5.51045 8.876 4.40445C8.876 2.44445 7.28 1.31045 5.068 1.31045C2.856 1.31045 1.274 2.44445 1.274 4.40445C1.274 5.51045 1.848 6.46245 3.122 6.98045C1.722 7.51245 0.952 8.56245 0.952 9.75245C0.952 11.8104 2.674 13.0704 5.068 13.0704ZM5.068 6.40645C3.556 6.40645 2.66 5.62245 2.66 4.48845C2.66 3.35445 3.556 2.57045 5.068 2.57045C6.594 2.57045 7.49 3.35445 7.49 4.48845C7.49 5.62245 6.594 6.40645 5.068 6.40645ZM5.068 11.8104C3.36 11.8104 2.338 10.9564 2.338 9.71045C2.338 8.49245 3.402 7.61045 5.068 7.61045C6.748 7.61045 7.798 8.49245 7.798 9.71045C7.798 10.9564 6.79 11.8104 5.068 11.8104ZM15.1989 13.0704C17.4669 13.0704 19.3289 11.4464 19.3289 8.28245V6.08445C19.3289 2.94845 17.4669 1.31045 15.1989 1.31045C12.9309 1.31045 11.0829 2.94845 11.0829 6.08445V8.28245C11.0829 11.4464 12.9309 13.0704 15.1989 13.0704ZM15.1989 11.8104C13.6729 11.8104 12.4829 10.6624 12.4829 8.21245V6.16845C12.4829 3.71845 13.6729 2.57045 15.1989 2.57045C16.7249 2.57045 17.9149 3.71845 17.9149 6.16845V8.21245C17.9149 10.6624 16.7249 11.8104 15.1989 11.8104ZM22.2497 15.2964L22.8237 11.2504H21.4097L21.1017 15.2964H22.2497ZM28.8707 13.0704C31.1387 13.0704 33.0007 11.4464 33.0007 8.28245V6.08445C33.0007 2.94845 31.1387 1.31045 28.8707 1.31045C26.6027 1.31045 24.7547 2.94845 24.7547 6.08445V8.28245C24.7547 11.4464 26.6027 13.0704 28.8707 13.0704ZM28.8707 11.8104C27.3447 11.8104 26.1547 10.6624 26.1547 8.21245V6.16845C26.1547 3.71845 27.3447 2.57045 28.8707 2.57045C30.3967 2.57045 31.5867 3.71845 31.5867 6.16845V8.21245C31.5867 10.6624 30.3967 11.8104 28.8707 11.8104ZM39.0016 13.0704C41.2696 13.0704 43.1316 11.4464 43.1316 8.28245V6.08445C43.1316 2.94845 41.2696 1.31045 39.0016 1.31045C36.7336 1.31045 34.8856 2.94845 34.8856 6.08445V8.28245C34.8856 11.4464 36.7336 13.0704 39.0016 13.0704ZM39.0016 11.8104C37.4756 11.8104 36.2856 10.6624 36.2856 8.21245V6.16845C36.2856 3.71845 37.4756 2.57045 39.0016 2.57045C40.5276 2.57045 41.7176 3.71845 41.7176 6.16845V8.21245C41.7176 10.6624 40.5276 11.8104 39.0016 11.8104ZM49.1325 13.0704C51.4005 13.0704 53.2625 11.4464 53.2625 8.28245V6.08445C53.2625 2.94845 51.4005 1.31045 49.1325 1.31045C46.8645 1.31045 45.0165 2.94845 45.0165 6.08445V8.28245C45.0165 11.4464 46.8645 13.0704 49.1325 13.0704ZM49.1325 11.8104C47.6065 11.8104 46.4165 10.6624 46.4165 8.21245V6.16845C46.4165 3.71845 47.6065 2.57045 49.1325 2.57045C50.6585 2.57045 51.8485 3.71845 51.8485 6.16845V8.21245C51.8485 10.6624 50.6585 11.8104 49.1325 11.8104ZM60.8453 9.86445H64.4713V10.9704H65.8573V0.624449H64.4713V8.80045H60.8453V9.86445ZM58.9973 5.84645C60.9573 5.84645 62.4833 5.03445 62.4833 3.46645V3.29845C62.4833 1.71645 60.9573 0.904449 58.9973 0.904449C57.0233 0.904449 55.4973 1.71645 55.4973 3.29845V3.46645C55.4973 5.03445 57.0233 5.84645 58.9973 5.84645ZM56.8273 3.32645C56.8273 2.50045 57.7373 2.05245 58.9973 2.05245C60.2433 2.05245 61.1533 2.50045 61.1533 3.32645V3.43845C61.1533 4.25045 60.2433 4.69845 58.9973 4.69845C57.7373 4.69845 56.8273 4.25045 56.8273 3.43845V3.32645ZM59.3193 10.1584C59.4033 9.41645 59.4593 8.67445 59.5013 7.98845C60.8733 7.91845 62.3013 7.79245 63.5333 7.62445L63.3933 6.47645C61.3353 6.72845 58.8153 6.88245 57.2053 6.88245H54.8673L54.9233 8.05845H57.0933C57.4293 8.05845 57.7793 8.05845 58.1573 8.04445C58.1013 8.68845 58.0453 9.38845 57.9753 10.0604L59.3193 10.1584ZM58.5213 10.6204H57.1353V13.6164H66.4033V12.3424H58.5213V10.6204Z" fill="black"/>
</svg>
