<svg width="147" height="20" viewBox="0 0 147 20" fill="none" xmlns="http://www.w3.org/2000/svg">
<path d="M14.32 19.16H16.88V0.48H14.32V19.16ZM8.02 4.2H12.06V1.86H1.54V4.2H5.52V4.7C5.52 8.7 3.96 11.76 0.8 14.96L2.6 16.66C4.32 14.92 5.64 13.14 6.54 11.24L10.92 16.48L12.8 14.8L7.54 8.52C7.86 7.3 8.02 6.04 8.02 4.7V4.2ZM34.8048 0.48H32.2448V14.3H34.8048V7.22H37.5048V4.9H34.8048V0.48ZM30.5448 8.42C28.1848 8.78 25.9248 8.98 23.9848 8.98H22.5648V1.38H19.9848V11.3H23.5248C26.0848 11.3 28.5648 11.06 30.8248 10.68L30.5448 8.42ZM22.5048 13.12V19.16H35.6648V16.84H25.0648V13.12H22.5048ZM53.7697 0.48H51.2097V9.58H53.7697V6.06H56.4697V3.74H53.7697V0.48ZM49.5097 6.52C47.2297 6.88 44.8497 7.06 42.9297 7.06H41.5297V3.36H48.2897V1.18H38.9497V9.24H42.4897C45.0097 9.24 47.5697 9.02 49.7897 8.62L49.5097 6.52ZM53.7697 15.88V10.6H41.3697V12.68H51.2097V13.82H41.4697V19.26H54.3297V17.12H44.0297V15.88H53.7697ZM83.6964 14.3V0.48H81.1364V14.3H83.6964ZM73.2764 11.5C76.1164 11.5 78.3964 9.86 78.3964 6.36V6.06C78.3964 2.52 76.1164 0.879999 73.2764 0.879999C70.4164 0.879999 68.1164 2.52 68.1164 6.06V6.36C68.1164 9.86 70.4164 11.5 73.2764 11.5ZM73.2764 9.26C71.8364 9.26 70.6764 8.34 70.6764 6.34V6.06C70.6764 4.06 71.8364 3.12 73.2764 3.12C74.6764 3.12 75.8564 4.06 75.8564 6.06V6.34C75.8564 8.34 74.6764 9.26 73.2764 9.26ZM84.3964 19.16V16.84H73.5764V13.04H71.0164V19.16H84.3964ZM100.101 19.16H102.661V0.48H100.101V19.16ZM94.3013 4.2C94.3013 7.74 92.0813 11.92 87.1413 15.02L88.7013 17.04C93.9813 13.62 96.9013 9.02 96.9013 3.7V1.86H87.6813V4.2H94.3013ZM125.527 0.499999H122.967V10.66H125.527V6.44H128.227V4.14H125.527V0.499999ZM120.127 10.32L121.487 8.34L116.607 5.04C116.887 4.18 117.027 3.26 117.027 2.26V1.04H114.527V2.26C114.527 4.62 113.327 6.72 109.987 8.7L111.347 10.72C113.187 9.66 114.567 8.48 115.507 7.18L120.127 10.32ZM117.347 11.48C114.707 11.48 112.847 13.06 112.847 15.42C112.847 17.8 114.707 19.36 117.347 19.36H121.447C124.107 19.36 125.947 17.8 125.947 15.42C125.947 13.06 124.107 11.48 121.447 11.48H117.347ZM117.707 17.08C116.187 17.08 115.407 16.4 115.407 15.4C115.407 14.42 116.187 13.74 117.707 13.74H121.067C122.607 13.74 123.387 14.42 123.387 15.4C123.387 16.4 122.607 17.08 121.067 17.08H117.707ZM142.332 5.78V2.94H145.012V0.84H131.312V2.94H133.972V5.78H131.312V7.9H145.012V5.78H142.332ZM139.852 2.94V5.78H136.452V2.94H139.852ZM146.952 9.2H129.352V11.38H136.872V12.92H131.412V19.16H144.912V12.92H139.432V11.38H146.952V9.2ZM133.952 17.08V14.98H142.352V17.08H133.952Z" fill="black"/>
</svg>
