<svg width="73" height="52" viewBox="0 0 73 52" fill="none" xmlns="http://www.w3.org/2000/svg">
<path d="M14.058 10.35V4.068H12.258V20.772H14.058V11.988H16.65V10.35H14.058ZM7.56 7.02V7.218C7.56 8.244 7.38 9.288 7.002 10.314C5.328 10.476 2.718 10.584 1.17 10.602H0.864L0.954 12.222H1.296C2.772 12.222 4.716 12.114 6.246 11.97C5.112 14.004 3.276 15.912 0.828 17.478L1.926 18.9C6.534 15.858 9.36 11.772 9.36 6.858V5.382H1.206V7.02H7.56ZM19.6784 5.184V14.148H31.5404V12.51H21.4784V6.822H31.3604V5.184H19.6784ZM33.4484 19.53V17.874H17.7524V19.53H33.4484ZM13.5 46.772H15.246V30.068H13.5V46.772ZM5.4 32.516V30.086H3.6V32.516H0.702V34.136H8.298V32.516H5.4ZM8.01 35.846V37.43H9.882V40.382H8.01V41.966H9.882V46.43H11.592V30.32H9.882V35.846H8.01ZM4.518 35.63C2.646 35.63 1.368 37.16 1.368 39.572V40.544C1.368 42.956 2.646 44.504 4.518 44.504C6.39 44.504 7.65 42.956 7.65 40.544V39.572C7.65 37.16 6.39 35.63 4.518 35.63ZM5.976 40.436C5.976 41.966 5.382 42.902 4.518 42.902C3.636 42.902 3.024 41.966 3.024 40.436V39.698C3.024 38.168 3.636 37.25 4.518 37.25C5.382 37.25 5.976 38.168 5.976 39.698V40.436ZM30.6224 33.92H28.5344V30.248H26.8784V39.788H28.5344V35.522H30.6224V39.788H32.3324V30.068H30.6224V33.92ZM25.5644 37.376C24.0884 37.61 22.7564 37.736 21.0644 37.736H19.9664V35.792H24.6644V34.244H19.9664V32.426H24.8264V30.86H18.2204V39.302H20.7404C22.9184 39.302 24.3404 39.158 25.7624 38.888L25.5644 37.376ZM30.5324 42.488V46.952H32.3324V40.832H21.0104V42.488H30.5324ZM52.6068 30.068H50.8068V39.356H52.6068V35.198H55.1988V33.56H52.6068V30.068ZM45.9288 30.77V33.038H41.2668V30.77H39.5388V38.438H47.6568V30.77H45.9288ZM41.2668 34.604H45.9288V36.872H41.2668V34.604ZM52.6968 42.02V40.4H41.8968V46.772H53.0388V45.152H43.6968V42.02H52.6968ZM68.8292 46.772H70.6112V30.068H68.8292V46.772ZM63.6812 33.02V33.218C63.6812 36.746 61.3772 40.58 57.0572 43.352L58.1372 44.774C62.7812 41.714 65.4812 37.592 65.4812 32.858V31.382H57.4172V33.02H63.6812Z" fill="black"/>
</svg>
