<svg width="90" height="15" viewBox="0 0 90 15" fill="none" xmlns="http://www.w3.org/2000/svg">
<path d="M0.742 9.782C1.26 11.322 2.562 12.61 4.858 12.61C7.224 12.61 8.862 11.308 8.862 9.362C8.862 7.934 7.952 6.926 6.734 6.548C7.77 6.156 8.582 5.288 8.582 3.902C8.582 1.998 7 0.85 4.83 0.85C2.758 0.85 1.582 2.096 1.064 3.468L2.324 3.944C2.702 3.006 3.402 2.11 4.83 2.11C6.272 2.11 7.21 2.81 7.21 3.972C7.21 5.12 6.328 5.946 4.648 5.946H3.22V7.164H4.648C6.538 7.164 7.476 8.116 7.476 9.306C7.476 10.496 6.496 11.35 4.858 11.35C3.206 11.35 2.394 10.398 1.988 9.334L0.742 9.782ZM11.7907 14.836L12.3647 10.79H10.9507L10.6427 14.836H11.7907ZM21.0998 8.872V1.06H19.2238L14.0158 9.012V10.16H19.7138V12.61H21.0998V10.16H22.8498V8.872H21.0998ZM19.7138 2.656V8.872H15.6958L19.7138 2.656ZM28.4332 12.61C30.7012 12.61 32.5632 10.986 32.5632 7.822V5.624C32.5632 2.488 30.7012 0.85 28.4332 0.85C26.1652 0.85 24.3172 2.488 24.3172 5.624V7.822C24.3172 10.986 26.1652 12.61 28.4332 12.61ZM28.4332 11.35C26.9072 11.35 25.7172 10.202 25.7172 7.752V5.708C25.7172 3.258 26.9072 2.11 28.4332 2.11C29.9592 2.11 31.1492 3.258 31.1492 5.708V7.752C31.1492 10.202 29.9592 11.35 28.4332 11.35ZM38.5641 12.61C40.8321 12.61 42.6941 10.986 42.6941 7.822V5.624C42.6941 2.488 40.8321 0.85 38.5641 0.85C36.2961 0.85 34.4481 2.488 34.4481 5.624V7.822C34.4481 10.986 36.2961 12.61 38.5641 12.61ZM38.5641 11.35C37.0381 11.35 35.8481 10.202 35.8481 7.752V5.708C35.8481 3.258 37.0381 2.11 38.5641 2.11C40.0901 2.11 41.2801 3.258 41.2801 5.708V7.752C41.2801 10.202 40.0901 11.35 38.5641 11.35ZM45.615 14.836L46.189 10.79H44.775L44.467 14.836H45.615ZM52.236 12.61C54.504 12.61 56.366 10.986 56.366 7.822V5.624C56.366 2.488 54.504 0.85 52.236 0.85C49.968 0.85 48.12 2.488 48.12 5.624V7.822C48.12 10.986 49.968 12.61 52.236 12.61ZM52.236 11.35C50.71 11.35 49.52 10.202 49.52 7.752V5.708C49.52 3.258 50.71 2.11 52.236 2.11C53.762 2.11 54.952 3.258 54.952 5.708V7.752C54.952 10.202 53.762 11.35 52.236 11.35ZM62.3668 12.61C64.6348 12.61 66.4968 10.986 66.4968 7.822V5.624C66.4968 2.488 64.6348 0.85 62.3668 0.85C60.0988 0.85 58.2508 2.488 58.2508 5.624V7.822C58.2508 10.986 60.0988 12.61 62.3668 12.61ZM62.3668 11.35C60.8408 11.35 59.6508 10.202 59.6508 7.752V5.708C59.6508 3.258 60.8408 2.11 62.3668 2.11C63.8928 2.11 65.0828 3.258 65.0828 5.708V7.752C65.0828 10.202 63.8928 11.35 62.3668 11.35ZM72.4977 12.61C74.7657 12.61 76.6277 10.986 76.6277 7.822V5.624C76.6277 2.488 74.7657 0.85 72.4977 0.85C70.2297 0.85 68.3817 2.488 68.3817 5.624V7.822C68.3817 10.986 70.2297 12.61 72.4977 12.61ZM72.4977 11.35C70.9717 11.35 69.7817 10.202 69.7817 7.752V5.708C69.7817 3.258 70.9717 2.11 72.4977 2.11C74.0237 2.11 75.2137 3.258 75.2137 5.708V7.752C75.2137 10.202 74.0237 11.35 72.4977 11.35ZM84.2105 9.404H87.8365V10.51H89.2225V0.163999H87.8365V8.34H84.2105V9.404ZM82.3625 5.386C84.3225 5.386 85.8485 4.574 85.8485 3.006V2.838C85.8485 1.256 84.3225 0.444 82.3625 0.444C80.3885 0.444 78.8625 1.256 78.8625 2.838V3.006C78.8625 4.574 80.3885 5.386 82.3625 5.386ZM80.1925 2.866C80.1925 2.04 81.1025 1.592 82.3625 1.592C83.6085 1.592 84.5185 2.04 84.5185 2.866V2.978C84.5185 3.79 83.6085 4.238 82.3625 4.238C81.1025 4.238 80.1925 3.79 80.1925 2.978V2.866ZM82.6845 9.698C82.7685 8.956 82.8245 8.214 82.8665 7.528C84.2385 7.458 85.6665 7.332 86.8985 7.164L86.7585 6.016C84.7005 6.268 82.1805 6.422 80.5705 6.422H78.2325L78.2885 7.598H80.4585C80.7945 7.598 81.1445 7.598 81.5225 7.584C81.4665 8.228 81.4105 8.928 81.3405 9.6L82.6845 9.698ZM81.8865 10.16H80.5005V13.156H89.7685V11.882H81.8865V10.16Z" fill="black"/>
</svg>
