<svg width="84" height="25" viewBox="0 0 84 25" fill="none" xmlns="http://www.w3.org/2000/svg">
<path d="M11.662 18.8281V5.83612H10.262V18.8281H11.662ZM4.48 17.1341C6.356 17.1341 7.91 15.9021 7.91 12.7801V10.8061C7.91 7.68412 6.356 6.45212 4.48 6.45212C2.576 6.45212 1.022 7.68412 1.022 10.8061V12.7801C1.022 15.9021 2.576 17.1341 4.48 17.1341ZM4.48 15.8601C3.332 15.8601 2.422 15.0201 2.422 12.7661V10.8201C2.422 8.55212 3.332 7.72612 4.48 7.72612C5.628 7.72612 6.524 8.55212 6.524 10.8201V12.7661C6.524 15.0201 5.628 15.8601 4.48 15.8601ZM23.5514 10.2041V15.5661H24.9514V5.83612H23.5514V8.97212H20.8914V6.45212H19.5474V8.59412H15.7954V6.45212H14.4514V13.2281H20.8914V10.2041H23.5514ZM15.7954 9.81212H19.5474V11.9961H15.7954V9.81212ZM17.7554 14.8241H16.3554V18.8281H25.4974V17.5541H17.7554V14.8241ZM37.4848 5.83612H36.0848V12.1781H37.4848V9.56012H39.5008V8.27212H37.4848V5.83612ZM34.7688 10.2321C33.1448 10.4701 31.3248 10.6241 29.8828 10.6241H28.8048V7.60012H33.7048V6.38212H27.3908V11.8281H29.6308C31.4508 11.8281 33.3688 11.6601 34.9228 11.3941L34.7688 10.2321ZM37.4848 16.4761V12.9901H29.0988V14.1521H36.0848V15.3281H29.1688V18.8981H37.9608V17.7081H30.5548V16.4761H37.4848ZM50.5938 13.8021H54.5138V6.63412H53.1138V9.01412H46.6878V6.63412H45.2878V13.8021H49.2078V16.5741H43.7898V17.8621H55.9978V16.5741H50.5938V13.8021ZM53.1138 10.2741V12.5421H46.6878V10.2741H53.1138ZM61.9232 6.98412V5.68212H60.5092V6.98412H57.4292V8.11812H65.0172V6.98412H61.9232ZM66.7952 9.39212H64.9332V10.5961H66.7952V13.2981H68.1952V5.83612H66.7952V9.39212ZM64.4432 10.9041C64.4432 9.49012 63.0292 8.76212 61.2372 8.76212C59.4312 8.76212 58.0172 9.49012 58.0172 10.9041V11.0861C58.0172 12.5001 59.4312 13.2281 61.2372 13.2281C63.0292 13.2281 64.4432 12.5001 64.4432 11.0861V10.9041ZM59.3752 10.9461C59.3752 10.3021 60.1872 9.89612 61.2372 9.89612C62.2732 9.89612 63.0852 10.3021 63.0852 10.9461V11.0581C63.0852 11.7021 62.2732 12.0941 61.2372 12.0941C60.1872 12.0941 59.3752 11.7021 59.3752 11.0581V10.9461ZM68.1952 18.8281V14.1101H59.5992V18.8281H68.1952ZM66.7952 15.3001V17.6101H60.9852V15.3001H66.7952ZM71.8386 9.65812V13.8721H81.3306V12.6401H73.2386V10.8901H81.0646V6.70412H71.7686V7.96412H79.6646V9.65812H71.8386ZM79.3006 14.6281H77.9426V16.5741H74.9606V14.6281H73.6026V16.5741H70.3406V17.8621H82.5486V16.5741H79.3006V14.6281Z" fill="black"/>
</svg>
