<svg width="27" height="25" viewBox="0 0 27 25" fill="none" xmlns="http://www.w3.org/2000/svg">
<path d="M1.96 12.2262C4.046 11.5262 5.488 10.7142 6.356 9.79022L11.2 12.2262L11.816 11.0502L7.098 8.69822C7.322 8.23622 7.42 7.76022 7.42 7.24222H11.116V6.01022H2.156V7.24222H6.02C6.02 8.64222 4.592 9.91622 1.456 11.0222L1.96 12.2262ZM0.532 13.4722V14.7462H5.95V18.5402H7.336V14.7462H12.74V13.4722H0.532ZM23.5374 12.6882H24.9374V5.39422H23.5374V12.6882ZM21.4374 12.3102L22.1794 11.2042L18.4274 8.68422C18.6514 8.06822 18.7634 7.41022 18.7634 6.69622V5.81422H17.3774V6.69622C17.3774 8.58622 16.3134 10.0702 13.9334 11.4702L14.6614 12.5902C16.0894 11.7642 17.1394 10.8682 17.8114 9.87422L21.4374 12.3102ZM23.5374 14.7742V18.5262H24.9374V13.5002H16.2014V14.7742H23.5374Z" fill="#333333"/>
</svg>
