<svg width="161" height="16" viewBox="0 0 161 16" fill="none" xmlns="http://www.w3.org/2000/svg">
<path d="M11.016 5.77556H9.112V0.415561H7.608V14.7356H9.112V7.23156H11.016V15.0396H12.568V0.191561H11.016V5.77556ZM1.784 11.1676V1.27956H0.184V12.6236H2.28C3.816 12.6236 5.176 12.5276 6.616 12.2716L6.456 10.8636C4.968 11.0876 3.656 11.1676 2.504 11.1676H1.784ZM26.1719 15.0396H27.7399V0.191561H26.1719V15.0396ZM20.6199 6.07956C20.8919 4.99156 21.0359 3.87156 21.0359 2.67156V1.35956H15.4199V2.81556H19.4839V2.99156C19.4839 6.12756 17.9799 9.45556 15.0679 12.0956L16.2199 13.2636C17.9959 11.5676 19.3559 9.66356 20.1559 7.53556H22.9559V14.7356H24.4759V0.415561H22.9559V6.07956H20.6199ZM45.7616 0.191561H44.1616V8.06356H45.7616V4.59156H48.0656V3.13556H45.7616V0.191561ZM34.1456 0.895561V7.32756H41.3616V0.895561H34.1456ZM35.6976 5.91956V2.31956H39.8096V5.91956H35.6976ZM45.9216 10.3996V8.99156H36.0976V10.3996H40.2736C40.2256 11.7596 38.3056 12.9596 35.3136 13.8076L35.8096 15.1996C37.9216 14.6236 39.6016 13.8076 40.6576 12.8316L46.0656 15.1996L46.6736 13.8396L41.5856 11.6476C41.7936 11.2476 41.8896 10.8316 41.9056 10.3996H45.9216ZM52.5015 4.94356V0.511561H50.9015V6.41556H61.2215V4.94356H52.5015ZM62.9975 9.48756V8.01556H49.0455V9.48756H62.9975ZM61.5255 15.0396V13.5516H52.5015V10.7356H50.9015V15.0396H61.5255ZM75.9153 9.29556H80.3953V1.10356H78.7953V3.82356H71.4513V1.10356H69.8513V9.29556H74.3313V12.4636H68.1393V13.9356H82.0913V12.4636H75.9153V9.29556ZM78.7953 5.26356V7.85556H71.4513V5.26356H78.7953ZM88.8631 1.50356V0.0155611H87.2471V1.50356H83.7271V2.79956H92.3991V1.50356H88.8631ZM94.4311 4.25556H92.3031V5.63156H94.4311V8.71956H96.0311V0.191561H94.4311V4.25556ZM91.7431 5.98356C91.7431 4.36756 90.1271 3.53556 88.0791 3.53556C86.0151 3.53556 84.3991 4.36756 84.3991 5.98356V6.19156C84.3991 7.80756 86.0151 8.63956 88.0791 8.63956C90.1271 8.63956 91.7431 7.80756 91.7431 6.19156V5.98356ZM85.9511 6.03156C85.9511 5.29556 86.8791 4.83156 88.0791 4.83156C89.2631 4.83156 90.1911 5.29556 90.1911 6.03156V6.15956C90.1911 6.89556 89.2631 7.34356 88.0791 7.34356C86.8791 7.34356 85.9511 6.89556 85.9511 6.15956V6.03156ZM96.0311 15.0396V9.64756H86.2071V15.0396H96.0311ZM94.4311 11.0076V13.6476H87.7911V11.0076H94.4311ZM114.293 0.191561H112.693V7.43956H114.293V4.44756H116.597V2.97556H114.293V0.191561ZM110.309 3.64756C110.309 1.48756 108.613 0.431561 106.437 0.431561C104.229 0.431561 102.517 1.48756 102.517 3.64756V3.88756C102.517 6.03156 104.229 7.10356 106.437 7.10356C108.613 7.10356 110.309 6.03156 110.309 3.88756V3.64756ZM104.117 3.67956C104.117 2.46356 105.093 1.82356 106.437 1.82356C107.749 1.82356 108.725 2.46356 108.725 3.67956V3.85556C108.725 5.07156 107.749 5.69556 106.437 5.69556C105.093 5.69556 104.117 5.07156 104.117 3.85556V3.67956ZM114.293 12.3516V8.36756H104.709V9.69556H112.693V11.0396H104.773V15.1196H114.837V13.7596H106.373V12.3516H114.293ZM129.465 5.77556V0.191561H127.865V15.0396H129.465V7.23156H131.769V5.77556H129.465ZM121.561 0.895561C119.417 0.895561 117.689 2.30356 117.689 5.87156V8.12756C117.689 11.6956 119.417 13.1036 121.561 13.1036C123.673 13.1036 125.401 11.6956 125.401 8.12756V5.87156C125.401 2.30356 123.673 0.895561 121.561 0.895561ZM123.817 8.11156C123.817 10.6876 122.825 11.6476 121.561 11.6476C120.281 11.6476 119.289 10.6876 119.289 8.11156V5.88756C119.289 3.29556 120.281 2.35156 121.561 2.35156C122.825 2.35156 123.817 3.29556 123.817 5.88756V8.11156ZM140.525 9.29556H145.005V1.10356H143.405V3.82356H136.061V1.10356H134.461V9.29556H138.941V12.4636H132.749V13.9356H146.701V12.4636H140.525V9.29556ZM143.405 5.26356V7.85556H136.061V5.26356H143.405ZM159.057 15.0396H160.641V0.191561H159.057V15.0396ZM154.481 2.81556V2.99156C154.481 6.12756 152.433 9.53556 148.593 11.9996L149.553 13.2636C153.681 10.5436 156.081 6.87956 156.081 2.67156V1.35956H148.913V2.81556H154.481Z" fill="black"/>
</svg>
