<svg width="49" height="24" viewBox="0 0 49 24" fill="none" xmlns="http://www.w3.org/2000/svg">
<path d="M5.856 18.888C8.624 18.888 10.688 17.544 10.688 15.016C10.688 13.704 9.872 12.52 8.256 11.88C9.728 11.304 10.352 10.232 10.352 9.016C10.352 6.616 8.432 5.352 5.856 5.352C3.296 5.352 1.36 6.616 1.36 9.016C1.36 10.232 1.984 11.304 3.456 11.88C1.84 12.52 1.024 13.704 1.024 15.016C1.024 17.544 3.12 18.888 5.856 18.888ZM5.856 11.048C4.304 11.048 3.408 10.296 3.408 9.128C3.408 7.944 4.304 7.192 5.856 7.192C7.408 7.192 8.32 7.944 8.32 9.128C8.32 10.296 7.408 11.048 5.856 11.048ZM5.856 17.048C4.096 17.048 3.056 16.216 3.056 14.92C3.056 13.656 4.128 12.808 5.856 12.808C7.584 12.808 8.656 13.656 8.656 14.92C8.656 16.216 7.616 17.048 5.856 17.048ZM13.9428 18.888C14.6628 18.888 15.2388 18.312 15.2388 17.592C15.2388 16.872 14.6628 16.28 13.9428 16.28C13.2228 16.28 12.6468 16.872 12.6468 17.592C12.6468 18.312 13.2228 18.888 13.9428 18.888ZM26.2039 18.648V16.76H20.1719L23.5479 13.432C25.0359 11.96 25.9159 10.728 25.9159 9C25.9159 6.696 24.1719 5.352 21.6119 5.352C19.0999 5.352 17.5959 7.144 17.0679 9.128L19.0199 9.592C19.3879 8.248 20.1719 7.192 21.6119 7.192C23.0999 7.192 23.8839 7.976 23.8839 9.08C23.8839 10.168 23.2759 11.048 21.9479 12.376L17.2279 17.064V18.648H26.2039ZM30.7548 12.504C32.3708 12.504 33.7308 11.4 33.7308 9.528V8.312C33.7308 6.472 32.3708 5.352 30.7548 5.352C29.1388 5.352 27.7788 6.472 27.7788 8.312V9.528C27.7788 11.4 29.1388 12.504 30.7548 12.504ZM31.5548 18.648L40.6268 5.592H38.3548L29.2828 18.648H31.5548ZM30.7548 10.824C30.0668 10.824 29.5707 10.28 29.5707 9.4V8.456C29.5707 7.576 30.0668 7.032 30.7548 7.032C31.4427 7.032 31.9548 7.56 31.9548 8.456V9.4C31.9548 10.296 31.4427 10.824 30.7548 10.824ZM39.0908 18.888C40.7068 18.888 42.0668 17.784 42.0668 15.912V14.696C42.0668 12.856 40.7068 11.736 39.0908 11.736C37.4748 11.736 36.1148 12.856 36.1148 14.696V15.912C36.1148 17.784 37.4748 18.888 39.0908 18.888ZM39.0908 17.208C38.4028 17.208 37.9068 16.664 37.9068 15.784V14.84C37.9068 13.96 38.4028 13.416 39.0908 13.416C39.7788 13.416 40.2908 13.944 40.2908 14.84V15.784C40.2908 16.68 39.7788 17.208 39.0908 17.208Z" fill="#5725E0"/>
</svg>
