<svg width="310" height="263" viewBox="0 0 310 263" fill="none" xmlns="http://www.w3.org/2000/svg">
<rect x="50" y="241" width="260" height="1" fill="#E9E9E9"/>
<rect x="50" y="188" width="260" height="1" fill="#F4F4F4"/>
<rect x="50" y="138" width="260" height="1" fill="#F4F4F4"/>
<rect x="50" y="88" width="260" height="1" fill="#F4F4F4"/>
<rect x="50" y="38" width="260" height="1" fill="#F4F4F4"/>
<path d="M61.47 259.97V251.93H60.83L58.31 253.97L58.73 254.5L60.74 252.87V259.97H61.47ZM66.1501 260.12C67.7301 260.12 69.0001 258.95 69.0001 256.75V255.15C69.0001 252.96 67.7301 251.78 66.1501 251.78C64.5601 251.78 63.2901 252.96 63.2901 255.15V256.75C63.2901 258.95 64.5601 260.12 66.1501 260.12ZM66.1501 259.47C64.9801 259.47 64.0201 258.59 64.0201 256.7V255.2C64.0201 253.32 64.9801 252.43 66.1501 252.43C67.3201 252.43 68.2801 253.32 68.2801 255.2V256.7C68.2801 258.59 67.3201 259.47 66.1501 259.47ZM74.409 256.13H77.209V256.52H77.929V251.27H77.209V255.59H74.409V256.13ZM73.159 254.05C74.509 254.05 75.569 253.59 75.569 252.77V252.7C75.569 251.88 74.509 251.43 73.159 251.43C71.809 251.43 70.749 251.88 70.749 252.7V252.77C70.749 253.59 71.809 254.05 73.159 254.05ZM71.439 252.72C71.439 252.3 72.149 252.01 73.159 252.01C74.169 252.01 74.889 252.3 74.889 252.72V252.75C74.889 253.18 74.169 253.46 73.159 253.46C72.149 253.46 71.439 253.18 71.439 252.75V252.72ZM72.699 255.26C72.669 255.69 72.629 256.17 72.579 256.58L73.279 256.64C73.329 256.18 73.369 255.69 73.409 255.23C74.429 255.18 75.509 255.08 76.409 254.96L76.339 254.41C74.889 254.59 73.039 254.69 71.899 254.69H70.219L70.249 255.27H71.859C72.119 255.27 72.409 255.27 72.699 255.26ZM72.599 259.06H77.929V257.02H71.849V257.61H77.219V258.47H71.899V260.55H78.319V259.95H72.599V259.06Z" fill="#999999"/>
<path d="M0.74 241.28H3.86V240.62H0.74V241.28ZM10.6196 244.97V244.31H6.30961L8.76961 241.86C9.77961 240.85 10.3996 240.01 10.3996 238.91C10.3996 237.61 9.40961 236.78 7.90961 236.78C6.43961 236.78 5.59961 237.86 5.27961 239.01L5.96961 239.18C6.25961 238.24 6.79961 237.44 7.90961 237.44C9.01961 237.44 9.68961 238.01 9.68961 238.92C9.68961 239.76 9.22961 240.45 8.23961 241.44L5.24961 244.41V244.97H10.6196ZM14.8981 245.12C16.4781 245.12 17.7481 243.95 17.7481 241.75V240.15C17.7481 237.96 16.4781 236.78 14.8981 236.78C13.3081 236.78 12.0381 237.96 12.0381 240.15V241.75C12.0381 243.95 13.3081 245.12 14.8981 245.12ZM14.8981 244.47C13.7281 244.47 12.7681 243.59 12.7681 241.7V240.2C12.7681 238.32 13.7281 237.43 14.8981 237.43C16.0681 237.43 17.0281 238.32 17.0281 240.2V241.7C17.0281 243.59 16.0681 244.47 14.8981 244.47ZM22.027 245.12C23.607 245.12 24.877 243.95 24.877 241.75V240.15C24.877 237.96 23.607 236.78 22.027 236.78C20.437 236.78 19.167 237.96 19.167 240.15V241.75C19.167 243.95 20.437 245.12 22.027 245.12ZM22.027 244.47C20.857 244.47 19.897 243.59 19.897 241.7V240.2C19.897 238.32 20.857 237.43 22.027 237.43C23.197 237.43 24.157 238.32 24.157 240.2V241.7C24.157 243.59 23.197 244.47 22.027 244.47ZM29.1559 245.12C30.7359 245.12 32.0059 243.95 32.0059 241.75V240.15C32.0059 237.96 30.7359 236.78 29.1559 236.78C27.5659 236.78 26.2959 237.96 26.2959 240.15V241.75C26.2959 243.95 27.5659 245.12 29.1559 245.12ZM29.1559 244.47C27.9859 244.47 27.0259 243.59 27.0259 241.7V240.2C27.0259 238.32 27.9859 237.43 29.1559 237.43C30.3259 237.43 31.2859 238.32 31.2859 240.2V241.7C31.2859 243.59 30.3259 244.47 29.1559 244.47Z" fill="#999999"/>
<path d="M11.02 142.97V142.31H6.71L9.17 139.86C10.18 138.85 10.8 138.01 10.8 136.91C10.8 135.61 9.81 134.78 8.31 134.78C6.84 134.78 6 135.86 5.68 137.01L6.37 137.18C6.66 136.24 7.2 135.44 8.31 135.44C9.42 135.44 10.09 136.01 10.09 136.92C10.09 137.76 9.63 138.45 8.64 139.44L5.65 142.41V142.97H11.02ZM15.2985 143.12C16.8785 143.12 18.1485 141.95 18.1485 139.75V138.15C18.1485 135.96 16.8785 134.78 15.2985 134.78C13.7085 134.78 12.4385 135.96 12.4385 138.15V139.75C12.4385 141.95 13.7085 143.12 15.2985 143.12ZM15.2985 142.47C14.1285 142.47 13.1685 141.59 13.1685 139.7V138.2C13.1685 136.32 14.1285 135.43 15.2985 135.43C16.4685 135.43 17.4285 136.32 17.4285 138.2V139.7C17.4285 141.59 16.4685 142.47 15.2985 142.47ZM22.4274 143.12C24.0074 143.12 25.2774 141.95 25.2774 139.75V138.15C25.2774 135.96 24.0074 134.78 22.4274 134.78C20.8374 134.78 19.5674 135.96 19.5674 138.15V139.75C19.5674 141.95 20.8374 143.12 22.4274 143.12ZM22.4274 142.47C21.2574 142.47 20.2974 141.59 20.2974 139.7V138.2C20.2974 136.32 21.2574 135.43 22.4274 135.43C23.5974 135.43 24.5574 136.32 24.5574 138.2V139.7C24.5574 141.59 23.5974 142.47 22.4274 142.47ZM29.5563 143.12C31.1363 143.12 32.4063 141.95 32.4063 139.75V138.15C32.4063 135.96 31.1363 134.78 29.5563 134.78C27.9663 134.78 26.6963 135.96 26.6963 138.15V139.75C26.6963 141.95 27.9663 143.12 29.5563 143.12ZM29.5563 142.47C28.3863 142.47 27.4263 141.59 27.4263 139.7V138.2C27.4263 136.32 28.3863 135.43 29.5563 135.43C30.7263 135.43 31.6863 136.32 31.6863 138.2V139.7C31.6863 141.59 30.7263 142.47 29.5563 142.47Z" fill="#999999"/>
<path d="M10.39 90.63V84.93H9.41L5.51 90.68V91.29H9.67V93.12H10.39V91.29H11.75V90.63H10.39ZM9.67 85.73V90.63H6.38L9.67 85.73ZM15.7282 93.12C17.3082 93.12 18.5782 91.95 18.5782 89.75V88.15C18.5782 85.96 17.3082 84.78 15.7282 84.78C14.1382 84.78 12.8682 85.96 12.8682 88.15V89.75C12.8682 91.95 14.1382 93.12 15.7282 93.12ZM15.7282 92.47C14.5582 92.47 13.5982 91.59 13.5982 89.7V88.2C13.5982 86.32 14.5582 85.43 15.7282 85.43C16.8982 85.43 17.8582 86.32 17.8582 88.2V89.7C17.8582 91.59 16.8982 92.47 15.7282 92.47ZM22.8571 93.12C24.4371 93.12 25.7071 91.95 25.7071 89.75V88.15C25.7071 85.96 24.4371 84.78 22.8571 84.78C21.2671 84.78 19.9971 85.96 19.9971 88.15V89.75C19.9971 91.95 21.2671 93.12 22.8571 93.12ZM22.8571 92.47C21.6871 92.47 20.7271 91.59 20.7271 89.7V88.2C20.7271 86.32 21.6871 85.43 22.8571 85.43C24.0271 85.43 24.9871 86.32 24.9871 88.2V89.7C24.9871 91.59 24.0271 92.47 22.8571 92.47ZM29.986 93.12C31.566 93.12 32.836 91.95 32.836 89.75V88.15C32.836 85.96 31.566 84.78 29.986 84.78C28.396 84.78 27.126 85.96 27.126 88.15V89.75C27.126 91.95 28.396 93.12 29.986 93.12ZM29.986 92.47C28.816 92.47 27.856 91.59 27.856 89.7V88.2C27.856 86.32 28.816 85.43 29.986 85.43C31.156 85.43 32.116 86.32 32.116 88.2V89.7C32.116 91.59 31.156 92.47 29.986 92.47Z" fill="#999999"/>
<path d="M8.58 36.71C7.7 36.71 6.85 37.11 6.4 37.85V37.39C6.38 35.34 7.27 34.43 8.45 34.43C9.52 34.43 10.1 34.94 10.54 35.84L11.16 35.52C10.63 34.41 9.74 33.78 8.43 33.78C7.03 33.78 5.71 34.77 5.71 37.36V39.37C5.71 41.11 6.92 42.12 8.5 42.12C10.05 42.12 11.3 41.1 11.3 39.41C11.3 37.72 10.05 36.71 8.58 36.71ZM8.5 41.47C7.37 41.47 6.43 40.74 6.43 39.41C6.43 38.08 7.37 37.36 8.5 37.36C9.62 37.36 10.58 38.08 10.58 39.41C10.58 40.74 9.62 41.47 8.5 41.47ZM15.4841 42.12C17.0641 42.12 18.3341 40.95 18.3341 38.75V37.15C18.3341 34.96 17.0641 33.78 15.4841 33.78C13.8941 33.78 12.6241 34.96 12.6241 37.15V38.75C12.6241 40.95 13.8941 42.12 15.4841 42.12ZM15.4841 41.47C14.3141 41.47 13.3541 40.59 13.3541 38.7V37.2C13.3541 35.32 14.3141 34.43 15.4841 34.43C16.6541 34.43 17.6141 35.32 17.6141 37.2V38.7C17.6141 40.59 16.6541 41.47 15.4841 41.47ZM22.613 42.12C24.193 42.12 25.463 40.95 25.463 38.75V37.15C25.463 34.96 24.193 33.78 22.613 33.78C21.023 33.78 19.753 34.96 19.753 37.15V38.75C19.753 40.95 21.023 42.12 22.613 42.12ZM22.613 41.47C21.443 41.47 20.483 40.59 20.483 38.7V37.2C20.483 35.32 21.443 34.43 22.613 34.43C23.783 34.43 24.743 35.32 24.743 37.2V38.7C24.743 40.59 23.783 41.47 22.613 41.47ZM29.7419 42.12C31.3219 42.12 32.5919 40.95 32.5919 38.75V37.15C32.5919 34.96 31.3219 33.78 29.7419 33.78C28.1519 33.78 26.8819 34.96 26.8819 37.15V38.75C26.8819 40.95 28.1519 42.12 29.7419 42.12ZM29.7419 41.47C28.5719 41.47 27.6119 40.59 27.6119 38.7V37.2C27.6119 35.32 28.5719 34.43 29.7419 34.43C30.9119 34.43 31.8719 35.32 31.8719 37.2V38.7C31.8719 40.59 30.9119 41.47 29.7419 41.47Z" fill="#999999"/>
<path d="M7.94 6.95C7.94 9.03 8.71 10.78 10.09 12.27L10.58 11.83C9.25 10.34 8.64 8.7 8.64 6.95C8.64 5.2 9.25 3.56 10.58 2.07L10.09 1.63C8.71 3.12 7.94 4.87 7.94 6.95ZM18.5479 2.27H17.8279V9.28H18.5479V5.38H20.0779V4.72H18.5479V2.27ZM11.4779 2.82V7.38H15.7979V2.82H11.4779ZM12.1779 6.74V3.46H15.0979V6.74H12.1779ZM12.7979 8.69V11.5H19.0679V10.84H13.5179V8.69H12.7979ZM25.0203 8.75H27.8303V9.66H28.5403V2.27H27.8303V8.16H25.0203V8.75ZM23.7703 5.96C25.1103 5.96 26.1803 5.4 26.1803 4.31V4.18C26.1803 3.09 25.1103 2.52 23.7703 2.52C22.4303 2.52 21.3603 3.09 21.3603 4.18V4.31C21.3603 5.4 22.4303 5.96 23.7703 5.96ZM22.0503 4.2C22.0503 3.53 22.7703 3.14 23.7703 3.14C24.7803 3.14 25.5003 3.53 25.5003 4.2V4.29C25.5003 4.96 24.7803 5.35 23.7703 5.35C22.7703 5.35 22.0503 4.96 22.0503 4.29V4.2ZM23.8603 9.08C23.9203 8.53 23.9703 7.96 24.0103 7.42C25.0303 7.37 26.1203 7.28 27.0203 7.15L26.9503 6.55C25.5003 6.73 23.6503 6.84 22.5103 6.84H20.8303L20.8603 7.46H22.4703C22.7303 7.46 23.0103 7.46 23.3003 7.45C23.2703 7.96 23.2203 8.52 23.1603 9.03L23.8603 9.08ZM23.2203 9.47H22.5103V11.5H28.9703V10.84H23.2203V9.47ZM32.7027 6.95C32.7027 4.87 31.9327 3.12 30.5527 1.63L30.0627 2.07C31.3927 3.56 32.0027 5.2 32.0027 6.95C32.0027 8.7 31.3927 10.34 30.0627 11.83L30.5527 12.27C31.9327 10.78 32.7027 9.03 32.7027 6.95Z" fill="#999999"/>
<path d="M29.57 194.12C31.15 194.12 32.42 192.95 32.42 190.75V189.15C32.42 186.96 31.15 185.78 29.57 185.78C27.98 185.78 26.71 186.96 26.71 189.15V190.75C26.71 192.95 27.98 194.12 29.57 194.12ZM29.57 193.47C28.4 193.47 27.44 192.59 27.44 190.7V189.2C27.44 187.32 28.4 186.43 29.57 186.43C30.74 186.43 31.7 187.32 31.7 189.2V190.7C31.7 192.59 30.74 193.47 29.57 193.47Z" fill="#999999"/>
<path d="M103.47 259.97V251.93H102.83L100.31 253.97L100.73 254.5L102.74 252.87V259.97H103.47ZM108.05 259.97V251.93H107.41L104.89 253.97L105.31 254.5L107.32 252.87V259.97H108.05ZM113.86 256.13H116.66V256.52H117.38V251.27H116.66V255.59H113.86V256.13ZM112.61 254.05C113.96 254.05 115.02 253.59 115.02 252.77V252.7C115.02 251.88 113.96 251.43 112.61 251.43C111.26 251.43 110.2 251.88 110.2 252.7V252.77C110.2 253.59 111.26 254.05 112.61 254.05ZM110.89 252.72C110.89 252.3 111.6 252.01 112.61 252.01C113.62 252.01 114.34 252.3 114.34 252.72V252.75C114.34 253.18 113.62 253.46 112.61 253.46C111.6 253.46 110.89 253.18 110.89 252.75V252.72ZM112.15 255.26C112.12 255.69 112.08 256.17 112.03 256.58L112.73 256.64C112.78 256.18 112.82 255.69 112.86 255.23C113.88 255.18 114.96 255.08 115.86 254.96L115.79 254.41C114.34 254.59 112.49 254.69 111.35 254.69H109.67L109.7 255.27H111.31C111.57 255.27 111.86 255.27 112.15 255.26ZM112.05 259.06H117.38V257.02H111.3V257.61H116.67V258.47H111.35V260.55H117.77V259.95H112.05V259.06Z" fill="#999999"/>
<path d="M145.47 259.97V251.93H144.83L142.31 253.97L142.73 254.5L144.74 252.87V259.97H145.47ZM152.6 259.97V259.31H148.29L150.75 256.86C151.76 255.85 152.38 255.01 152.38 253.91C152.38 252.61 151.39 251.78 149.89 251.78C148.42 251.78 147.58 252.86 147.26 254.01L147.95 254.18C148.24 253.24 148.78 252.44 149.89 252.44C151 252.44 151.67 253.01 151.67 253.92C151.67 254.76 151.21 255.45 150.22 256.44L147.23 259.41V259.97H152.6ZM158.009 256.13H160.809V256.52H161.529V251.27H160.809V255.59H158.009V256.13ZM156.759 254.05C158.109 254.05 159.169 253.59 159.169 252.77V252.7C159.169 251.88 158.109 251.43 156.759 251.43C155.409 251.43 154.349 251.88 154.349 252.7V252.77C154.349 253.59 155.409 254.05 156.759 254.05ZM155.039 252.72C155.039 252.3 155.749 252.01 156.759 252.01C157.769 252.01 158.489 252.3 158.489 252.72V252.75C158.489 253.18 157.769 253.46 156.759 253.46C155.749 253.46 155.039 253.18 155.039 252.75V252.72ZM156.299 255.26C156.269 255.69 156.229 256.17 156.179 256.58L156.879 256.64C156.929 256.18 156.969 255.69 157.009 255.23C158.029 255.18 159.109 255.08 160.009 254.96L159.939 254.41C158.489 254.59 156.639 254.69 155.499 254.69H153.819L153.849 255.27H155.459C155.719 255.27 156.009 255.27 156.299 255.26ZM156.199 259.06H161.529V257.02H155.449V257.61H160.819V258.47H155.499V260.55H161.919V259.95H156.199V259.06Z" fill="#999999"/>
<path d="M190.47 259.97V251.93H189.83L187.31 253.97L187.73 254.5L189.74 252.87V259.97H190.47ZM196.28 256.13H199.08V256.52H199.8V251.27H199.08V255.59H196.28V256.13ZM195.03 254.05C196.38 254.05 197.44 253.59 197.44 252.77V252.7C197.44 251.88 196.38 251.43 195.03 251.43C193.68 251.43 192.62 251.88 192.62 252.7V252.77C192.62 253.59 193.68 254.05 195.03 254.05ZM193.31 252.72C193.31 252.3 194.02 252.01 195.03 252.01C196.04 252.01 196.76 252.3 196.76 252.72V252.75C196.76 253.18 196.04 253.46 195.03 253.46C194.02 253.46 193.31 253.18 193.31 252.75V252.72ZM194.57 255.26C194.54 255.69 194.5 256.17 194.45 256.58L195.15 256.64C195.2 256.18 195.24 255.69 195.28 255.23C196.3 255.18 197.38 255.08 198.28 254.96L198.21 254.41C196.76 254.59 194.91 254.69 193.77 254.69H192.09L192.12 255.27H193.73C193.99 255.27 194.28 255.27 194.57 255.26ZM194.47 259.06H199.8V257.02H193.72V257.61H199.09V258.47H193.77V260.55H200.19V259.95H194.47V259.06Z" fill="#999999"/>
<path d="M235.02 259.97V259.31H230.71L233.17 256.86C234.18 255.85 234.8 255.01 234.8 253.91C234.8 252.61 233.81 251.78 232.31 251.78C230.84 251.78 230 252.86 229.68 254.01L230.37 254.18C230.66 253.24 231.2 252.44 232.31 252.44C233.42 252.44 234.09 253.01 234.09 253.92C234.09 254.76 233.63 255.45 232.64 256.44L229.65 259.41V259.97H235.02ZM240.429 256.13H243.229V256.52H243.949V251.27H243.229V255.59H240.429V256.13ZM239.179 254.05C240.529 254.05 241.589 253.59 241.589 252.77V252.7C241.589 251.88 240.529 251.43 239.179 251.43C237.829 251.43 236.769 251.88 236.769 252.7V252.77C236.769 253.59 237.829 254.05 239.179 254.05ZM237.459 252.72C237.459 252.3 238.169 252.01 239.179 252.01C240.189 252.01 240.909 252.3 240.909 252.72V252.75C240.909 253.18 240.189 253.46 239.179 253.46C238.169 253.46 237.459 253.18 237.459 252.75V252.72ZM238.719 255.26C238.689 255.69 238.649 256.17 238.599 256.58L239.299 256.64C239.349 256.18 239.389 255.69 239.429 255.23C240.449 255.18 241.529 255.08 242.429 254.96L242.359 254.41C240.909 254.59 239.059 254.69 237.919 254.69H236.239L236.269 255.27H237.879C238.139 255.27 238.429 255.27 238.719 255.26ZM238.619 259.06H243.949V257.02H237.869V257.61H243.239V258.47H237.919V260.55H244.339V259.95H238.619V259.06Z" fill="#999999"/>
<path d="M270.56 258.16C270.91 259.19 271.82 260.12 273.42 260.12C275.07 260.12 276.18 259.19 276.18 257.86C276.18 256.83 275.53 256.08 274.6 255.81C275.4 255.56 275.99 254.88 275.99 253.89C275.99 252.6 274.91 251.78 273.41 251.78C271.96 251.78 271.14 252.69 270.8 253.62L271.45 253.86C271.75 253.13 272.29 252.44 273.41 252.44C274.53 252.44 275.27 252.99 275.27 253.92C275.27 254.84 274.58 255.5 273.27 255.5H272.29V256.14H273.27C274.73 256.14 275.47 256.89 275.47 257.84C275.47 258.8 274.69 259.46 273.42 259.46C272.15 259.46 271.52 258.75 271.22 257.94L270.56 258.16ZM281.595 256.13H284.395V256.52H285.115V251.27H284.395V255.59H281.595V256.13ZM280.345 254.05C281.695 254.05 282.755 253.59 282.755 252.77V252.7C282.755 251.88 281.695 251.43 280.345 251.43C278.995 251.43 277.935 251.88 277.935 252.7V252.77C277.935 253.59 278.995 254.05 280.345 254.05ZM278.625 252.72C278.625 252.3 279.335 252.01 280.345 252.01C281.355 252.01 282.075 252.3 282.075 252.72V252.75C282.075 253.18 281.355 253.46 280.345 253.46C279.335 253.46 278.625 253.18 278.625 252.75V252.72ZM279.885 255.26C279.855 255.69 279.815 256.17 279.765 256.58L280.465 256.64C280.515 256.18 280.555 255.69 280.595 255.23C281.615 255.18 282.695 255.08 283.595 254.96L283.525 254.41C282.075 254.59 280.225 254.69 279.085 254.69H277.405L277.435 255.27H279.045C279.305 255.27 279.595 255.27 279.885 255.26ZM279.785 259.06H285.115V257.02H279.035V257.61H284.405V258.47H279.085V260.55H285.505V259.95H279.785V259.06Z" fill="#999999"/>
</svg>
