<svg width="67" height="59" viewBox="0 0 67 59" fill="none" xmlns="http://www.w3.org/2000/svg">
<path d="M0.602 6.52045V7.79445H6.734L1.302 18.0704H2.884L8.316 7.79445V6.52045H0.602ZM13.9 18.0704C16.168 18.0704 18.03 16.4464 18.03 13.2824V11.0844C18.03 7.94845 16.168 6.31045 13.9 6.31045C11.632 6.31045 9.78403 7.94845 9.78403 11.0844V13.2824C9.78403 16.4464 11.632 18.0704 13.9 18.0704ZM13.9 16.8104C12.374 16.8104 11.184 15.6624 11.184 13.2124V11.1684C11.184 8.71845 12.374 7.57045 13.9 7.57045C15.426 7.57045 16.616 8.71845 16.616 11.1684V13.2124C16.616 15.6624 15.426 16.8104 13.9 16.8104ZM20.9509 20.2964L21.5249 16.2504H20.1109L19.8029 20.2964H20.9509ZM27.5719 18.0704C29.8399 18.0704 31.7019 16.4464 31.7019 13.2824V11.0844C31.7019 7.94845 29.8399 6.31045 27.5719 6.31045C25.3039 6.31045 23.4559 7.94845 23.4559 11.0844V13.2824C23.4559 16.4464 25.3039 18.0704 27.5719 18.0704ZM27.5719 16.8104C26.0459 16.8104 24.8559 15.6624 24.8559 13.2124V11.1684C24.8559 8.71845 26.0459 7.57045 27.5719 7.57045C29.0979 7.57045 30.2879 8.71845 30.2879 11.1684V13.2124C30.2879 15.6624 29.0979 16.8104 27.5719 16.8104ZM37.7028 18.0704C39.9708 18.0704 41.8328 16.4464 41.8328 13.2824V11.0844C41.8328 7.94845 39.9708 6.31045 37.7028 6.31045C35.4348 6.31045 33.5868 7.94845 33.5868 11.0844V13.2824C33.5868 16.4464 35.4348 18.0704 37.7028 18.0704ZM37.7028 16.8104C36.1768 16.8104 34.9868 15.6624 34.9868 13.2124V11.1684C34.9868 8.71845 36.1768 7.57045 37.7028 7.57045C39.2288 7.57045 40.4188 8.71845 40.4188 11.1684V13.2124C40.4188 15.6624 39.2288 16.8104 37.7028 16.8104ZM47.8336 18.0704C50.1016 18.0704 51.9636 16.4464 51.9636 13.2824V11.0844C51.9636 7.94845 50.1016 6.31045 47.8336 6.31045C45.5656 6.31045 43.7176 7.94845 43.7176 11.0844V13.2824C43.7176 16.4464 45.5656 18.0704 47.8336 18.0704ZM47.8336 16.8104C46.3076 16.8104 45.1176 15.6624 45.1176 13.2124V11.1684C45.1176 8.71845 46.3076 7.57045 47.8336 7.57045C49.3596 7.57045 50.5496 8.71845 50.5496 11.1684V13.2124C50.5496 15.6624 49.3596 16.8104 47.8336 16.8104ZM59.5465 14.8644H63.1725V15.9704H64.5585V5.62445H63.1725V13.8004H59.5465V14.8644ZM57.6985 10.8464C59.6585 10.8464 61.1845 10.0344 61.1845 8.46645V8.29845C61.1845 6.71645 59.6585 5.90445 57.6985 5.90445C55.7245 5.90445 54.1985 6.71645 54.1985 8.29845V8.46645C54.1985 10.0344 55.7245 10.8464 57.6985 10.8464ZM55.5285 8.32645C55.5285 7.50045 56.4385 7.05245 57.6985 7.05245C58.9445 7.05245 59.8545 7.50045 59.8545 8.32645V8.43845C59.8545 9.25045 58.9445 9.69845 57.6985 9.69845C56.4385 9.69845 55.5285 9.25045 55.5285 8.43845V8.32645ZM58.0205 15.1584C58.1045 14.4164 58.1605 13.6744 58.2025 12.9884C59.5745 12.9184 61.0025 12.7924 62.2345 12.6244L62.0945 11.4764C60.0365 11.7284 57.5165 11.8824 55.9065 11.8824H53.5685L53.6245 13.0584H55.7945C56.1305 13.0584 56.4805 13.0584 56.8585 13.0444C56.8025 13.6884 56.7465 14.3884 56.6765 15.0604L58.0205 15.1584ZM57.2225 15.6204H55.8365V18.6164H65.1045V17.3424H57.2225V15.6204Z" fill="#333333"/>
<path d="M14.858 40.3104C12.59 40.3104 10.812 41.7664 10.812 44.1324C10.812 46.4984 12.59 47.9684 14.62 47.9684C15.796 47.9684 16.958 47.4504 17.574 46.4704V47.0164C17.588 49.6624 16.412 50.8244 14.914 50.8244C13.556 50.8244 12.786 50.1804 12.198 49.0044L11.022 49.6204C11.778 51.2024 13.066 52.0704 14.97 52.0704C16.958 52.0704 18.876 50.6144 18.876 47.0724V44.2444C18.876 41.7244 17.154 40.3104 14.858 40.3104ZM14.844 46.7224C13.388 46.7224 12.198 45.7844 12.198 44.1464C12.198 42.5084 13.388 41.5564 14.844 41.5564C16.314 41.5564 17.476 42.5084 17.476 44.1464C17.476 45.7844 16.314 46.7224 14.844 46.7224ZM21.8044 54.2964L22.3784 50.2504H20.9644L20.6564 54.2964H21.8044ZM31.1134 48.3324V40.5204H29.2374L24.0294 48.4724V49.6204H29.7274V52.0704H31.1134V49.6204H32.8634V48.3324H31.1134ZM29.7274 42.1164V48.3324H25.7094L29.7274 42.1164ZM38.4469 52.0704C40.7149 52.0704 42.5769 50.4464 42.5769 47.2824V45.0844C42.5769 41.9484 40.7149 40.3104 38.4469 40.3104C36.1789 40.3104 34.3309 41.9484 34.3309 45.0844V47.2824C34.3309 50.4464 36.1789 52.0704 38.4469 52.0704ZM38.4469 50.8104C36.9209 50.8104 35.7309 49.6624 35.7309 47.2124V45.1684C35.7309 42.7184 36.9209 41.5704 38.4469 41.5704C39.9729 41.5704 41.1629 42.7184 41.1629 45.1684V47.2124C41.1629 49.6624 39.9729 50.8104 38.4469 50.8104ZM48.5778 52.0704C50.8458 52.0704 52.7078 50.4464 52.7078 47.2824V45.0844C52.7078 41.9484 50.8458 40.3104 48.5778 40.3104C46.3098 40.3104 44.4618 41.9484 44.4618 45.0844V47.2824C44.4618 50.4464 46.3098 52.0704 48.5778 52.0704ZM48.5778 50.8104C47.0518 50.8104 45.8618 49.6624 45.8618 47.2124V45.1684C45.8618 42.7184 47.0518 41.5704 48.5778 41.5704C50.1038 41.5704 51.2938 42.7184 51.2938 45.1684V47.2124C51.2938 49.6624 50.1038 50.8104 48.5778 50.8104ZM60.2906 48.8644H63.9166V49.9704H65.3026V39.6244H63.9166V47.8004H60.2906V48.8644ZM58.4426 44.8464C60.4026 44.8464 61.9286 44.0344 61.9286 42.4664V42.2984C61.9286 40.7164 60.4026 39.9044 58.4426 39.9044C56.4686 39.9044 54.9426 40.7164 54.9426 42.2984V42.4664C54.9426 44.0344 56.4686 44.8464 58.4426 44.8464ZM56.2726 42.3264C56.2726 41.5004 57.1826 41.0524 58.4426 41.0524C59.6886 41.0524 60.5986 41.5004 60.5986 42.3264V42.4384C60.5986 43.2504 59.6886 43.6984 58.4426 43.6984C57.1826 43.6984 56.2726 43.2504 56.2726 42.4384V42.3264ZM58.7646 49.1584C58.8486 48.4164 58.9046 47.6744 58.9466 46.9884C60.3186 46.9184 61.7466 46.7924 62.9786 46.6244L62.8386 45.4764C60.7806 45.7284 58.2606 45.8824 56.6506 45.8824H54.3126L54.3686 47.0584H56.5386C56.8746 47.0584 57.2246 47.0584 57.6026 47.0444C57.5466 47.6884 57.4906 48.3884 57.4206 49.0604L58.7646 49.1584ZM57.9666 49.6204H56.5806V52.6164H65.8486V51.3424H57.9666V49.6204Z" fill="#333333"/>
</svg>
