<svg width="84" height="53" viewBox="0 0 84 53" fill="none" xmlns="http://www.w3.org/2000/svg">
<path d="M0.882 16.4751C1.62 18.5451 3.33 20.2011 6.318 20.2011C9.468 20.2011 11.646 18.5091 11.646 15.9171C11.646 14.0811 10.476 12.8751 9.036 12.3531C10.242 11.8311 11.304 10.8231 11.304 9.00515C11.304 6.43115 9.162 4.97315 6.282 4.97315C3.546 4.97315 1.998 6.52115 1.296 8.41115L3.348 9.18515C3.78 8.06915 4.608 7.04315 6.282 7.04315C7.956 7.04315 9.036 7.81715 9.036 9.14915C9.036 10.4631 8.046 11.3991 6.048 11.3991H4.14V13.3431H6.048C8.316 13.3431 9.396 14.4591 9.396 15.8091C9.396 17.1411 8.28 18.1311 6.318 18.1311C4.374 18.1311 3.42 16.9971 2.934 15.7191L0.882 16.4751ZM19.4209 20.2011C22.3909 20.2011 24.8749 18.1311 24.8749 13.9731V11.2011C24.8749 7.06115 22.3909 4.97315 19.4209 4.97315C16.4329 4.97315 13.9489 7.06115 13.9489 11.2011V13.9731C13.9489 18.1311 16.4329 20.2011 19.4209 20.2011ZM19.4209 18.1491C17.6029 18.1491 16.2709 16.7811 16.2709 13.8651V11.3091C16.2709 8.41115 17.6029 7.02515 19.4209 7.02515C21.2389 7.02515 22.5709 8.41115 22.5709 11.3091V13.8651C22.5709 16.7811 21.2389 18.1491 19.4209 18.1491ZM41.2432 16.5471V4.10915H38.9392V6.05315H35.2492V7.81715H38.9392V9.38315H35.2492V11.1471H38.9392V16.5471H41.2432ZM36.1132 11.3451C34.2412 11.6331 32.4772 11.7591 30.9652 11.7591H29.9752V4.91915H27.6532V13.8471H30.6232C32.6212 13.8471 34.5292 13.6851 36.3472 13.3791L36.1132 11.3451ZM32.1172 15.4851H29.8312V20.9211H41.8552V18.8331H32.1172V15.4851ZM57.2504 5.42315V3.85715H54.9464V5.42315H49.4024V7.27715H62.7764V5.42315H57.2504ZM53.9744 8.24915C51.6524 8.24915 50.2124 9.43715 50.2124 11.1831C50.2124 12.8751 51.6524 14.0811 53.9744 14.0811H58.1864C60.5084 14.0811 61.9664 12.8751 61.9664 11.1831C61.9664 9.43715 60.5084 8.24915 58.1864 8.24915H53.9744ZM59.6624 11.1651C59.6624 11.7591 59.0864 12.2271 57.7724 12.2271H54.4064C53.0744 12.2271 52.4984 11.7591 52.4984 11.1651C52.4984 10.5531 53.0744 10.1211 54.4064 10.1211H57.7724C59.0864 10.1211 59.6624 10.5531 59.6624 11.1651ZM48.1784 15.4671V17.4291H54.9464V21.1011H57.2504V17.4291H64.0184V15.4671H48.1784ZM13.266 36.1931H11.592V30.3791H9.414V46.5251H11.592V38.2811H13.266V46.9211H15.498V30.1091H13.266V36.1931ZM3.546 42.1511V31.2611H1.206V44.2571H3.906C5.472 44.2571 6.858 44.1851 8.424 43.8791L8.208 41.8631C6.642 42.0791 5.328 42.1511 4.194 42.1511H3.546ZM35.7712 36.1931V30.1091H33.4852V46.9211H35.7712V38.2811H38.2012V36.1931H35.7712ZM28.0492 33.4571H31.5412V31.3511H22.4152V33.4571H25.7992V33.9431C25.7992 37.5251 24.4492 40.2791 21.7492 43.1771L23.3872 44.6711C24.8632 43.1411 25.9792 41.5571 26.7532 39.8831L30.4612 44.5091L32.1892 43.0151L27.6532 37.3451C27.9232 36.2471 28.0492 35.1311 28.0492 33.9431V33.4571ZM52.8396 30.1091H50.5356V42.5471H52.8396V36.1751H55.2696V34.0871H52.8396V30.1091ZM47.8896 39.9551L49.2036 38.2451L44.7756 34.7891C45.0456 33.9251 45.1896 33.0071 45.1896 32.0171V30.7031H42.9396V32.0171C42.9396 34.4471 41.8236 36.5531 38.8536 38.5331L40.1676 40.2971C41.7876 39.2171 42.9936 38.0651 43.8216 36.7871L47.8896 39.9551ZM41.7876 41.4851V46.9211H53.6316V44.8331H44.0736V41.4851H41.7876ZM65.6239 37.2731C68.4319 37.2731 70.3759 35.9951 70.3759 33.7451C70.3759 31.5311 68.4319 30.2531 65.6239 30.2531H62.7799C59.9719 30.2531 58.0459 31.5311 58.0459 33.7451C58.0459 35.9951 59.9719 37.2731 62.7799 37.2731H65.6239ZM63.1939 35.2931C61.3759 35.2931 60.3319 34.7351 60.3319 33.7811C60.3319 32.8091 61.3759 32.2511 63.1939 32.2511H65.2099C67.0279 32.2511 68.0719 32.8091 68.0719 33.7811C68.0719 34.7351 67.0279 35.2931 65.2099 35.2931H63.1939ZM72.1219 40.7831V38.6951H56.2819V40.7831H72.1219ZM70.5559 46.9211V44.7791H60.6019V42.0611H58.2979V46.9211H70.5559ZM75.2583 34.6451C75.7443 33.3851 76.4643 32.6291 77.9403 32.6291C79.2723 32.6291 80.3343 33.3851 80.3343 34.6811C80.3343 35.8511 79.7043 36.4991 78.3903 37.1831C76.6263 38.0291 76.1763 38.7491 76.1943 40.2611L76.2123 41.3051H78.3723L78.3903 40.4951C78.4083 39.7571 78.7143 39.3971 79.7583 38.8571C81.5943 37.9391 82.6563 36.7331 82.6563 34.6811C82.6563 32.0351 80.2983 30.5231 77.9403 30.5231C75.4203 30.5231 73.7823 31.9631 73.1163 33.9251L75.2583 34.6451ZM77.3103 46.2011C78.1203 46.2011 78.7683 45.5531 78.7683 44.7431C78.7683 43.9331 78.1203 43.2671 77.3103 43.2671C76.5003 43.2671 75.8343 43.9331 75.8343 44.7431C75.8343 45.5531 76.5003 46.2011 77.3103 46.2011Z" fill="black"/>
</svg>
