<svg width="165" height="50" viewBox="0 0 165 50" fill="none" xmlns="http://www.w3.org/2000/svg">
<path d="M5.792 6.088V4.44H4.176V6.088H0.64V7.432H9.328V6.088H5.792ZM12.496 4.616H10.896V15.88H12.496V10.408H14.8V8.952H12.496V4.616ZM8.672 11.096C8.672 9.272 7.056 8.312 5.008 8.312C2.944 8.312 1.328 9.272 1.328 11.096V11.336C1.328 13.144 2.944 14.136 5.008 14.136C7.056 14.136 8.672 13.144 8.672 11.336V11.096ZM2.896 11.128C2.896 10.216 3.808 9.656 5.008 9.656C6.192 9.656 7.12 10.216 7.12 11.128V11.304C7.12 12.232 6.192 12.792 5.008 12.792C3.808 12.792 2.896 12.232 2.896 11.304V11.128ZM2.976 15.352V19.464H13.264V18.008H4.576V15.352H2.976ZM27.8119 10.344V4.616H26.2119V19.464H27.8119V11.8H29.9719V10.344H27.8119ZM20.9319 6.312V4.632H19.3159V6.312H15.8119V7.64H24.4199V6.312H20.9319ZM21.0119 14.36C22.5959 14.104 23.7639 13.16 23.7639 11.592V11.352C23.7639 9.528 22.1639 8.536 20.1479 8.536C18.0839 8.536 16.4839 9.528 16.4839 11.352V11.592C16.4839 13.208 17.7159 14.168 19.4119 14.376V16.152C18.9319 16.168 18.4999 16.184 18.1159 16.184H15.5559L15.6359 17.608H17.9879C20.0999 17.608 22.9319 17.432 25.1559 17.128L24.9799 15.736C23.7319 15.88 22.3239 16.008 21.0119 16.088V14.36ZM18.0519 11.368C18.0519 10.392 18.9479 9.816 20.1479 9.816C21.2999 9.816 22.2119 10.392 22.2119 11.368V11.576C22.2119 12.568 21.2999 13.144 20.1479 13.144C18.9479 13.144 18.0519 12.568 18.0519 11.576V11.368ZM43.6096 13.448C43.6096 10.472 41.6736 8.952 39.3536 8.952C37.0816 8.952 35.1136 10.456 35.1136 13.352V14.424C35.1136 17.336 37.1136 18.84 39.3856 18.84C41.2096 18.84 42.8736 17.96 43.4656 16.248L41.9936 15.768C41.5616 16.856 40.5216 17.416 39.3856 17.416C37.9456 17.416 36.7136 16.408 36.6816 14.472H43.6096V13.448ZM36.6976 13.112C36.7936 11.32 37.9616 10.392 39.3536 10.392C40.8736 10.392 42.0096 11.448 42.0096 13.112H36.6976ZM56.1655 19.464H57.7655V4.616H56.1655V19.464ZM50.7895 6.312V4.632H49.1895V6.312H45.6055V7.64H54.3735V6.312H50.7895ZM50.7895 14.376C52.4535 14.152 53.7015 13.192 53.7015 11.592V11.352C53.7015 9.528 52.0535 8.536 50.0055 8.536C47.9255 8.536 46.2935 9.528 46.2935 11.352V11.592C46.2935 13.192 47.5255 14.152 49.2055 14.376V16.136C48.7255 16.152 48.2775 16.168 47.8775 16.168H45.1895L45.2695 17.624H47.7335C49.9095 17.624 52.8215 17.448 55.0935 17.128L54.9175 15.704C53.6215 15.864 52.1495 15.992 50.7895 16.072V14.376ZM47.8455 11.368C47.8455 10.392 48.7895 9.816 50.0055 9.816C51.1895 9.816 52.1335 10.392 52.1335 11.368V11.576C52.1335 12.568 51.1895 13.144 50.0055 13.144C48.7895 13.144 47.8455 12.568 47.8455 11.576V11.368ZM68.4414 9.912H71.3534V15.736H72.9374V4.616H71.3534V8.536H68.4414V9.912ZM68.6654 13.72L69.5614 12.472L65.3854 9.24C65.6254 8.52 65.7374 7.768 65.7374 6.968V6.824H68.9854V5.4H60.9694V6.824H64.1694V6.968C64.1694 9.304 62.9214 10.984 60.3774 12.728L61.2414 13.96C62.8254 12.92 63.9934 11.832 64.7454 10.616L68.6654 13.72ZM64.7134 14.808H63.1134V19.464H73.5614V18.008H64.7134V14.808ZM87.5351 9.208H90.4311V12.712H92.0311V4.616H90.4311V7.832H87.5351V9.208ZM87.8391 12.632L88.6391 11.32L84.4791 8.696C84.7031 8.088 84.8151 7.448 84.8151 6.744H88.0631V5.32H80.0631V6.744H83.2631C83.2631 8.712 82.0311 10.152 79.4711 11.592L80.2231 12.872C81.8551 11.992 83.0551 11.048 83.8071 9.976L87.8391 12.632ZM85.4391 13.496C83.2791 13.496 81.9031 14.776 81.9031 16.552C81.9031 18.344 83.2791 19.624 85.4391 19.624H88.6711C90.8471 19.624 92.2231 18.344 92.2231 16.552C92.2231 14.776 90.8471 13.496 88.6711 13.496H85.4391ZM85.6951 18.184C84.2231 18.184 83.4871 17.496 83.4871 16.552C83.4871 15.608 84.2231 14.92 85.6951 14.92H88.4311C89.9031 14.92 90.6231 15.608 90.6231 16.552C90.6231 17.496 89.9031 18.184 88.4311 18.184H85.6951ZM105.619 19.464H107.203V4.616H105.619V19.464ZM101.043 7.24V7.416C101.043 10.552 98.995 13.96 95.155 16.424L96.115 17.688C100.243 14.968 102.643 11.304 102.643 7.096V5.784H95.475V7.24H101.043ZM121.047 19.464H122.615V4.616H121.047V19.464ZM116.151 10.344V10.296C116.151 6.728 114.791 5.32 113.047 5.32C111.271 5.32 109.911 6.728 109.911 10.296V12.552C109.911 16.12 111.271 17.528 113.047 17.528C114.791 17.528 116.151 16.12 116.151 12.552V11.8H117.831V19.16H119.351V4.84H117.831V10.344H116.151ZM114.631 12.536C114.631 15.112 113.959 16.072 113.031 16.072C112.103 16.072 111.431 15.112 111.431 12.536V10.312C111.431 7.72 112.103 6.776 113.031 6.776C113.959 6.776 114.631 7.72 114.631 10.312V12.536ZM136.347 10.488C136.619 8.936 136.763 7.304 136.763 6.024V5.08H126.539V6.536H135.179C135.163 7.4 135.019 8.984 134.747 10.488H124.827V11.896H138.779V10.488H136.347ZM137.083 19.48V13.688H126.539V19.48H137.083ZM135.483 15.064V18.072H128.139V15.064H135.483Z" fill="black"/>
<path d="M9 43.8H9.852V32.724H9V43.8ZM1.212 39.6C2.472 38.868 3.396 38.088 3.96 37.2L7.044 39.48L7.512 38.772L4.32 36.444C4.488 36.012 4.572 35.532 4.572 35.028H7.128V34.26H4.572V32.736H3.72V34.26H1.164V35.028H3.708C3.708 36.612 2.628 37.788 0.792 38.892L1.212 39.6ZM4.548 39.252H3.684V41.28C3.288 41.292 2.928 41.304 2.616 41.304H0.6L0.648 42.096H2.568C4.2 42.096 6.372 41.94 8.04 41.712L7.944 40.944C6.888 41.088 5.664 41.184 4.548 41.244V39.252ZM20.5469 37.056H18.8309V32.904H18.0029V43.596H18.8309V37.848H20.5469V43.8H21.3869V32.724H20.5469V37.056ZM13.2029 41.172V34.404H16.4189V33.612H12.3389V41.952H13.6589C14.9909 41.952 16.0709 41.88 17.1749 41.688L17.0789 40.92C15.9029 41.1 14.8589 41.172 13.7909 41.172H13.2029ZM29.9818 43.164V42.372H24.8098L27.7618 39.432C28.9738 38.22 29.7178 37.212 29.7178 35.892C29.7178 34.332 28.5298 33.336 26.7298 33.336C24.9658 33.336 23.9578 34.632 23.5738 36.012L24.4018 36.216C24.7498 35.088 25.3978 34.128 26.7298 34.128C28.0618 34.128 28.8658 34.812 28.8658 35.904C28.8658 36.912 28.3138 37.74 27.1258 38.928L23.5378 42.492V43.164H29.9818ZM36.9368 40.356V33.516H35.7608L31.0808 40.416V41.148H36.0728V43.344H36.9368V41.148H38.5688V40.356H36.9368ZM36.0728 34.476V40.356H32.1248L36.0728 34.476ZM48.2266 37.056H46.5106V32.904H45.6706V43.596H46.5106V37.848H48.2266V43.8H49.0666V32.724H48.2266V37.056ZM43.3186 34.452V34.692C43.3186 37.284 41.9626 39.876 39.8386 41.772L40.4506 42.396C42.6946 40.32 44.1706 37.656 44.1706 34.524V33.672H40.0426V34.452H43.3186ZM56.0775 38.556H59.4375V39.024H60.3015V32.724H59.4375V37.908H56.0775V38.556ZM54.5775 36.06C56.1975 36.06 57.4695 35.508 57.4695 34.524V34.44C57.4695 33.456 56.1975 32.916 54.5775 32.916C52.9575 32.916 51.6855 33.456 51.6855 34.44V34.524C51.6855 35.508 52.9575 36.06 54.5775 36.06ZM52.5135 34.464C52.5135 33.96 53.3655 33.612 54.5775 33.612C55.7895 33.612 56.6535 33.96 56.6535 34.464V34.5C56.6535 35.016 55.7895 35.352 54.5775 35.352C53.3655 35.352 52.5135 35.016 52.5135 34.5V34.464ZM54.0255 37.512C53.9895 38.028 53.9415 38.604 53.8815 39.096L54.7215 39.168C54.7815 38.616 54.8295 38.028 54.8775 37.476C56.1015 37.416 57.3975 37.296 58.4775 37.152L58.3935 36.492C56.6535 36.708 54.4335 36.828 53.0655 36.828H51.0495L51.0855 37.524H53.0175C53.3295 37.524 53.6775 37.524 54.0255 37.512ZM53.9055 42.072H60.3015V39.624H53.0055V40.332H59.4495V41.364H53.0655V43.86H60.7695V43.14H53.9055V42.072ZM65.7904 44.844L69.9904 32.316H69.0904L64.8904 44.844H65.7904ZM79.1484 43.8H80.0004V32.724H79.1484V43.8ZM71.3604 39.6C72.6204 38.868 73.5444 38.088 74.1084 37.2L77.1924 39.48L77.6604 38.772L74.4684 36.444C74.6364 36.012 74.7204 35.532 74.7204 35.028H77.2764V34.26H74.7204V32.736H73.8684V34.26H71.3124V35.028H73.8564C73.8564 36.612 72.7764 37.788 70.9404 38.892L71.3604 39.6ZM74.6964 39.252H73.8324V41.28C73.4364 41.292 73.0764 41.304 72.7644 41.304H70.7484L70.7964 42.096H72.7164C74.3484 42.096 76.5204 41.94 78.1884 41.712L78.0924 40.944C77.0364 41.088 75.8124 41.184 74.6964 41.244V39.252ZM90.2753 34.788C90.2753 36 90.0233 38.148 89.6753 40.008L90.5153 40.164C90.8633 38.268 91.1273 36.156 91.1273 34.596V33.66H83.1953V34.44H90.2753V34.788ZM86.8913 37.428H86.0393V42.12H82.0313V42.912H92.3993V42.12H86.8913V37.428ZM104.836 37.464V41.136H105.7V32.724H104.836V34.416H102.172C101.68 33.516 100.744 33.084 99.6882 33.084C98.0922 33.084 96.8082 34.032 96.8082 36V36.252C96.8082 38.208 98.0922 39.144 99.6882 39.144C100.876 39.144 101.908 38.592 102.328 37.464H104.836ZM97.6722 36C97.6722 34.584 98.5242 33.852 99.6882 33.852C100.828 33.852 101.68 34.584 101.68 36V36.24C101.68 37.656 100.828 38.376 99.6882 38.376C98.5242 38.376 97.6722 37.656 97.6722 36.24V36ZM104.836 36.744H102.508C102.52 36.588 102.532 36.42 102.532 36.252V36C102.532 35.7 102.496 35.412 102.448 35.16H104.836V36.744ZM99.4362 40.26H98.5722V43.8H106.216V43.008H99.4362V40.26ZM117.345 43.164V42.372H112.173L115.125 39.432C116.337 38.22 117.081 37.212 117.081 35.892C117.081 34.332 115.893 33.336 114.093 33.336C112.329 33.336 111.321 34.632 110.937 36.012L111.765 36.216C112.113 35.088 112.761 34.128 114.093 34.128C115.425 34.128 116.229 34.812 116.229 35.904C116.229 36.912 115.677 37.74 114.489 38.928L110.901 42.492V43.164H117.345ZM119.611 43.344C119.983 43.344 120.283 43.044 120.283 42.672C120.283 42.3 119.983 42.012 119.611 42.012C119.239 42.012 118.951 42.3 118.951 42.672C118.951 43.044 119.239 43.344 119.611 43.344ZM125.339 43.344C127.403 43.344 128.783 42.204 128.783 40.572C128.783 39.516 128.063 38.592 126.887 38.148C127.967 37.716 128.483 36.888 128.483 35.892C128.483 34.344 127.211 33.336 125.339 33.336C123.479 33.336 122.195 34.344 122.195 35.892C122.195 36.888 122.711 37.716 123.791 38.148C122.615 38.592 121.895 39.516 121.895 40.572C121.895 42.204 123.287 43.344 125.339 43.344ZM125.339 37.788C123.899 37.788 123.059 37.032 123.059 35.964C123.059 34.884 123.899 34.128 125.339 34.128C126.779 34.128 127.631 34.884 127.631 35.964C127.631 37.032 126.779 37.788 125.339 37.788ZM125.339 42.552C123.719 42.552 122.759 41.724 122.759 40.548C122.759 39.408 123.767 38.556 125.339 38.556C126.911 38.556 127.919 39.408 127.919 40.548C127.919 41.724 126.959 42.552 125.339 42.552ZM132.345 38.556C133.473 38.556 134.397 37.776 134.397 36.384V35.496C134.397 34.128 133.473 33.336 132.345 33.336C131.205 33.336 130.293 34.128 130.293 35.496V36.384C130.293 37.776 131.205 38.556 132.345 38.556ZM132.609 43.164L139.245 33.516H138.249L131.625 43.164H132.609ZM132.345 37.812C131.637 37.812 131.097 37.308 131.097 36.348V35.532C131.097 34.584 131.637 34.08 132.345 34.08C133.053 34.08 133.605 34.584 133.605 35.532V36.348C133.605 37.32 133.053 37.812 132.345 37.812ZM138.429 43.344C139.557 43.344 140.481 42.564 140.481 41.172V40.284C140.481 38.916 139.557 38.124 138.429 38.124C137.289 38.124 136.377 38.916 136.377 40.284V41.172C136.377 42.564 137.289 43.344 138.429 43.344ZM138.429 42.6C137.721 42.6 137.181 42.108 137.181 41.136V40.32C137.181 39.372 137.721 38.868 138.429 38.868C139.137 38.868 139.689 39.372 139.689 40.32V41.136C139.689 42.108 139.137 42.6 138.429 42.6Z" fill="#333333"/>
</svg>
