<svg width="217" height="48" viewBox="0 0 217 48" fill="none" xmlns="http://www.w3.org/2000/svg">
<path d="M10.934 10.05V5.164H9.534V18.156H10.934V11.324H12.95V10.05H10.934ZM2.24 15.048V11.758H6.874V6.116H0.84V7.376H5.488V10.526H0.84V16.308H3.22C5.054 16.308 6.902 16.154 8.372 15.874L8.204 14.67C6.664 14.908 4.942 15.048 3.472 15.048H2.24ZM24.9374 18.156V5.164H23.5374V18.156H24.9374ZM17.7554 16.462C19.6314 16.462 21.1854 15.23 21.1854 12.108V10.134C21.1854 7.012 19.6314 5.78 17.7554 5.78C15.8514 5.78 14.2974 7.012 14.2974 10.134V12.108C14.2974 15.23 15.8514 16.462 17.7554 16.462ZM17.7554 15.188C16.6074 15.188 15.6974 14.348 15.6974 12.094V10.148C15.6974 7.88 16.6074 7.054 17.7554 7.054C18.9034 7.054 19.7994 7.88 19.7994 10.148V12.094C19.7994 14.348 18.9034 15.188 17.7554 15.188ZM35.9728 11.996V7.306H38.0028V6.032H28.3708V7.306H30.4008V11.996H28.3708V13.27H38.0028V11.996H35.9728ZM34.6148 7.306V11.996H31.7588V7.306H34.6148ZM27.0828 17.19H39.2908V15.902H27.0828V17.19ZM49.2062 8.594V6.494H51.1382V5.374H41.7862V6.494H43.7322V8.594H41.7862V9.714H51.1382V8.594H49.2062ZM47.8482 6.494V8.594H45.0902V6.494H47.8482ZM40.3582 11.828H52.5662V10.694H40.3582V11.828ZM51.0822 16.014V12.766H41.7862V13.858H49.6822V14.908H41.8562V18.226H51.4182V17.106H43.2562V16.014H51.0822ZM63.3776 10.176H61.2356V11.45H63.3776V18.156H64.7636V5.164H63.3776V10.176ZM55.7336 15.048V11.758H60.3676V6.116H54.3336V7.376H58.9816V10.526H54.3336V16.308H56.7556C58.5896 16.308 60.5216 16.14 61.9916 15.86L61.8376 14.656C60.2836 14.894 58.4636 15.048 57.0076 15.048H55.7336ZM77.731 13.27L78.487 12.108L73.419 8.72C73.671 8.104 73.783 7.474 73.783 6.83V5.836H72.383V6.83C72.383 8.748 70.969 10.428 67.539 12.066L68.183 13.27C70.395 12.248 71.879 11.114 72.761 9.91L77.731 13.27ZM66.909 17.176H79.117V15.902H66.909V17.176ZM90.812 9.182H93.346V12.248H94.746V5.164H93.346V7.978H90.812V9.182ZM91.078 12.178L91.778 11.03L88.138 8.734C88.334 8.202 88.432 7.642 88.432 7.026H91.274V5.78H84.274V7.026H87.074C87.074 8.748 85.996 10.008 83.756 11.268L84.414 12.388C85.842 11.618 86.892 10.792 87.55 9.854L91.078 12.178ZM88.978 12.934C87.088 12.934 85.884 14.054 85.884 15.608C85.884 17.176 87.088 18.296 88.978 18.296H91.806C93.71 18.296 94.914 17.176 94.914 15.608C94.914 14.054 93.71 12.934 91.806 12.934H88.978ZM89.202 17.036C87.914 17.036 87.27 16.434 87.27 15.608C87.27 14.782 87.914 14.18 89.202 14.18H91.596C92.884 14.18 93.514 14.782 93.514 15.608C93.514 16.434 92.884 17.036 91.596 17.036H89.202ZM106.635 18.156H108.021V5.164H106.635V18.156ZM102.631 7.46V7.614C102.631 10.358 100.839 13.34 97.4794 15.496L98.3194 16.602C101.931 14.222 104.031 11.016 104.031 7.334V6.186H97.7594V7.46H102.631ZM119.897 8.118H117.349V9.322H119.897V12.458H121.297V5.164H119.897V8.118ZM117.615 12.318L118.329 11.184L114.689 8.804C114.885 8.258 114.983 7.67 114.983 7.04V7.026H117.825V5.78H110.825V7.026H113.625V7.04C113.625 8.818 112.547 10.12 110.307 11.408L110.979 12.514C112.407 11.73 113.443 10.89 114.101 9.924L117.615 12.318ZM119.897 14.544V18.296H121.297V13.27H112.561V14.544H119.897ZM133.522 10.302C133.76 8.944 133.886 7.516 133.886 6.396V5.57H124.94V6.844H132.5C132.486 7.6 132.36 8.986 132.122 10.302H123.442V11.534H135.65V10.302H133.522ZM134.166 18.17V13.102H124.94V18.17H134.166ZM132.766 14.306V16.938H126.34V14.306H132.766Z" fill="black"/>
<path d="M6.612 34.012H9V36.784H9.852V30.736H9V33.256H6.612V34.012ZM6.996 36.676L7.44 35.968L4.2 33.76C4.38 33.292 4.464 32.8 4.464 32.26V32.092H7.008V31.324H1.104V32.092H3.624V32.26C3.624 33.892 2.556 35.032 0.66 36.16L1.08 36.844C2.364 36.112 3.276 35.344 3.828 34.468L6.996 36.676ZM5.1 37.456C3.468 37.456 2.508 38.44 2.508 39.688C2.508 40.948 3.468 41.908 5.1 41.908H7.428C9.06 41.908 10.02 40.948 10.02 39.688C10.02 38.44 9.06 37.456 7.428 37.456H5.1ZM5.268 41.14C3.984 41.14 3.36 40.516 3.36 39.676C3.36 38.872 3.984 38.224 5.268 38.224H7.26C8.544 38.224 9.156 38.872 9.156 39.676C9.156 40.516 8.544 41.14 7.26 41.14H5.268ZM20.3909 41.8H21.2429V30.724H20.3909V41.8ZM17.0069 32.452V32.692C17.0069 35.284 15.2789 37.9 12.4709 39.724L12.9749 40.396C15.9989 38.392 17.8709 35.656 17.8709 32.524V31.672H12.6389V32.452H17.0069ZM31.7578 33.364H29.3698V34.132H31.7578V36.964H32.6098V30.736H31.7578V33.364ZM29.7538 36.796L30.1978 36.1L26.9458 33.82C27.1258 33.34 27.2218 32.824 27.2218 32.272V32.104H29.7538V31.324H23.8618V32.104H26.3818V32.272C26.3818 33.952 25.3138 35.116 23.4178 36.28L23.8378 36.964C25.1218 36.208 26.0338 35.428 26.5858 34.528L29.7538 36.796ZM31.7578 38.524V41.908H32.6098V37.744H25.3738V38.524H31.7578ZM43.0527 35.26C43.2807 34.012 43.4127 32.74 43.4127 31.78V31.12H35.9487V31.9H42.5607V31.96C42.5607 32.656 42.4287 33.988 42.1887 35.26H34.6407V36.04H45.0087V35.26H43.0527ZM43.6767 41.8V37.564H35.9847V41.8H43.6767ZM42.8127 38.332V41.032H36.8367V38.332H42.8127ZM57.6856 35.056V30.724H56.8216V41.8H57.6856V35.848H59.5216V35.056H57.6856ZM53.6176 32.452V32.692C53.6176 35.284 51.9256 37.888 49.1896 39.724L49.7056 40.396C52.6456 38.38 54.4696 35.656 54.4696 32.524V31.672H49.3696V32.452H53.6176ZM68.8125 36.496H69.6765V30.724H68.8125V36.496ZM66.5445 33.496C66.5445 31.84 65.2605 31.024 63.6765 31.024C62.0805 31.024 60.7965 31.84 60.7965 33.496V33.7C60.7965 35.344 62.0805 36.172 63.6765 36.172C65.2605 36.172 66.5445 35.344 66.5445 33.7V33.496ZM61.6605 33.508C61.6605 32.392 62.5005 31.804 63.6765 31.804C64.8405 31.804 65.6925 32.392 65.6925 33.508V33.688C65.6925 34.792 64.8405 35.392 63.6765 35.392C62.5005 35.392 61.6605 34.792 61.6605 33.688V33.508ZM63.4125 38.644V37.168H62.5605V41.8H69.6765V37.168H68.8125V38.644H63.4125ZM63.4125 39.412H68.8125V41.02H63.4125V39.412ZM80.4314 35.056V30.724H79.5794V41.8H80.4314V35.848H82.2794V35.056H80.4314ZM74.5394 30.736V32.488H71.7554V33.268H78.1754V32.488H75.3914V30.736H74.5394ZM74.9834 34.408C73.4834 34.408 72.2954 35.392 72.2954 37V37.636C72.2954 39.232 73.4834 40.24 74.9834 40.24C76.4714 40.24 77.6474 39.232 77.6474 37.636V37C77.6474 35.392 76.4714 34.408 74.9834 34.408ZM76.7954 37.6C76.7954 38.752 75.9914 39.46 74.9834 39.46C73.9514 39.46 73.1594 38.752 73.1594 37.6V37.036C73.1594 35.884 73.9514 35.2 74.9834 35.2C75.9914 35.2 76.7954 35.884 76.7954 37.036V37.6ZM91.3183 32.788C91.3183 34 91.0663 36.148 90.7183 38.008L91.5583 38.164C91.9063 36.268 92.1703 34.156 92.1703 32.596V31.66H84.2383V32.44H91.3183V32.788ZM87.9343 35.428H87.0823V40.12H83.0743V40.912H93.4423V40.12H87.9343V35.428ZM95.4132 43.264L95.8212 40.084H94.9572L94.7052 43.264H95.4132ZM105.718 34.816H109.03V34.06H102.406V31.744H108.91V31H101.554V34.816H104.866V36.028H100.102V36.784H110.47V36.028H105.718V34.816ZM104.074 37.972C102.274 37.972 101.326 38.812 101.326 39.94C101.326 41.092 102.274 41.92 104.074 41.92H106.498C108.31 41.92 109.258 41.092 109.258 39.94C109.258 38.812 108.31 37.972 106.498 37.972H104.074ZM104.266 41.164C102.85 41.164 102.178 40.672 102.178 39.94C102.178 39.208 102.85 38.74 104.266 38.74H106.306C107.722 38.74 108.394 39.208 108.394 39.94C108.394 40.672 107.722 41.164 106.306 41.164H104.266ZM119.965 41.8H120.829V30.724H119.965V41.8ZM115.393 31.408H114.553V32.788C114.553 35.584 113.521 37.672 111.481 39.676L112.081 40.264C113.305 39.052 114.181 37.804 114.721 36.46L117.841 40.144L118.477 39.58L115.033 35.524C115.273 34.66 115.393 33.748 115.393 32.788V31.408ZM131.523 41.8H132.363V30.724H131.523V41.8ZM127.635 35.176V34.996C127.635 32.368 126.639 31.324 125.367 31.324C124.059 31.324 123.075 32.368 123.075 34.996V36.652C123.075 39.28 124.059 40.324 125.367 40.324C126.639 40.324 127.635 39.28 127.635 36.652V35.956H129.135V41.596H129.963V30.904H129.135V35.176H127.635ZM126.807 36.64C126.807 38.704 126.195 39.532 125.355 39.532C124.515 39.532 123.903 38.704 123.903 36.64V34.996C123.903 32.932 124.515 32.116 125.355 32.116C126.195 32.116 126.807 32.932 126.807 34.996V36.64ZM145.892 35.056V30.724H145.04V41.8H145.892V35.848H147.728V35.056H145.892ZM140.732 32.452H143.24V31.672H137.408V32.452H139.892V33.088C139.892 35.824 138.8 37.72 136.976 39.688L137.6 40.264C138.728 39.052 139.556 37.852 140.084 36.556L143.024 40.144L143.684 39.568L140.408 35.596C140.624 34.804 140.732 33.976 140.732 33.088V32.452ZM154.151 34.816H157.463V34.06H150.839V31.744H157.343V31H149.987V34.816H153.299V36.028H148.535V36.784H158.903V36.028H154.151V34.816ZM152.507 37.972C150.707 37.972 149.759 38.812 149.759 39.94C149.759 41.092 150.707 41.92 152.507 41.92H154.931C156.743 41.92 157.691 41.092 157.691 39.94C157.691 38.812 156.743 37.972 154.931 37.972H152.507ZM152.699 41.164C151.283 41.164 150.611 40.672 150.611 39.94C150.611 39.208 151.283 38.74 152.699 38.74H154.739C156.155 38.74 156.827 39.208 156.827 39.94C156.827 40.672 156.155 41.164 154.739 41.164H152.699ZM168.65 35.056V30.724H167.786V41.8H168.65V35.848H170.486V35.056H168.65ZM163.49 33.4H166.058V32.62H163.502V30.736H162.65V32.62H160.106V33.4H162.638V33.568C162.638 35.968 161.558 37.792 159.734 39.676L160.346 40.276C161.498 39.088 162.35 37.912 162.878 36.652L165.806 40.144L166.454 39.568L163.202 35.728C163.394 35.044 163.49 34.324 163.49 33.568V33.4ZM176.909 37.456H180.329V31.48H179.465V33.712H173.489V31.48H172.637V37.456H176.057V40.12H171.293V40.912H181.661V40.12H176.909V37.456ZM179.465 34.504V36.676H173.489V34.504H179.465ZM186.608 31.84V30.58H185.756V31.84H182.972V32.572H189.404V31.84H186.608ZM191.168 33.916H189.368V34.672H191.168V37.084H192.02V30.724H191.168V33.916ZM188.876 35.032C188.876 33.868 187.7 33.232 186.2 33.232C184.688 33.232 183.524 33.868 183.524 35.032V35.2C183.524 36.376 184.688 37 186.2 37C187.7 37 188.876 36.376 188.876 35.2V35.032ZM184.364 35.068C184.364 34.396 185.156 33.964 186.2 33.964C187.22 33.964 188.036 34.396 188.036 35.068V35.188C188.036 35.86 187.22 36.28 186.2 36.28C185.156 36.28 184.364 35.86 184.364 35.188V35.068ZM192.02 41.788V37.864H184.904V41.788H192.02ZM191.168 38.62V41.032H185.756V38.62H191.168ZM202.859 35.056V30.724H202.019V41.8H202.859V35.848H204.695V35.056H202.859ZM196.223 32.452V32.692C196.223 34.756 195.527 37.336 194.183 39.82L194.903 40.24C196.307 37.624 197.063 35.056 197.063 32.524V31.672H194.435V32.452H196.223ZM199.439 32.452V32.692C199.439 34.852 198.767 37.792 197.411 40.276L198.119 40.696C199.547 38.08 200.279 35.14 200.279 32.524V31.672H197.687V32.452H199.439ZM213.926 41.8H214.778V30.724H213.926V41.8ZM209.462 32.452H212.066V31.672H206.03V32.452H208.61V33.076C208.61 35.812 207.482 37.708 205.586 39.676L206.21 40.264C207.374 39.04 208.25 37.84 208.79 36.52L211.886 40.144L212.51 39.568L209.114 35.608C209.342 34.816 209.462 33.976 209.462 33.076V32.452Z" fill="#333333"/>
</svg>
