<svg width="165" height="50" viewBox="0 0 165 50" fill="none" xmlns="http://www.w3.org/2000/svg">
<path d="M2.752 18.6V8.264L7.04 18.6H8.704L13.008 8.248V18.6H14.592V5.64H12.512L7.888 16.808L3.248 5.64H1.168V18.6H2.752ZM25.558 18.6V17.144H18.486L25.414 6.936V5.64H16.63V7.096H23.43L16.518 17.304V18.6H25.558ZM38.3281 19.464H39.8801V4.616H38.3281V19.464ZM32.7441 9.736V11.192H35.1121V19.16H36.6321V4.84H35.1121V9.736H32.7441ZM31.2401 5.48H29.7201V7.448C29.7201 10.936 28.7441 13.8 26.7281 16.488L27.9441 17.448C29.0001 16.056 29.7841 14.6 30.3281 13.064L32.9201 17.288L34.2001 16.376L30.8881 11.016C31.1281 9.88 31.2401 8.696 31.2401 7.448V5.48ZM53.516 10.2H51.612V4.84H50.108V19.16H51.612V11.656H53.516V19.464H55.068V4.616H53.516V10.2ZM44.284 15.592V7.176H48.252V5.704H42.684V17.048H44.716C46.348 17.048 47.692 16.968 49.116 16.712L48.956 15.288C47.484 15.512 46.204 15.592 44.94 15.592H44.284ZM73.5698 13.72L74.4338 12.392L68.6418 8.632C68.9298 7.944 69.0578 7.24 69.0578 6.504V5.384H67.4578V6.504C67.4578 8.632 65.8418 10.536 61.9218 12.344L62.6418 13.72C65.1698 12.584 66.8658 11.32 67.8738 9.96L73.5698 13.72ZM68.9778 13.256H67.3938V16.888H61.2018V18.344H75.1538V16.888H68.9778V13.256ZM87.8136 7.88H85.9576V4.776H84.4696V12.952H85.9576V9.304H87.8136V12.952H89.3336V4.616H87.8136V7.88ZM82.9816 8.536C82.9816 6.12 81.6216 4.936 79.8136 4.936C77.9896 4.936 76.6296 6.12 76.6296 8.536V8.792C76.6296 11.192 77.9896 12.376 79.8136 12.376C81.6216 12.376 82.9816 11.192 82.9816 8.792V8.536ZM78.1016 8.552C78.1016 7.112 78.8376 6.344 79.8136 6.344C80.7736 6.344 81.5096 7.112 81.5096 8.552V8.76C81.5096 10.2 80.7736 10.968 79.8136 10.968C78.8376 10.968 78.1016 10.2 78.1016 8.76V8.552ZM87.7336 15.336V19.624H89.3336V13.88H79.2696V15.336H87.7336ZM102.954 10.2H101.05V4.84H99.5455V19.16H101.05V11.656H102.954V19.464H104.506V4.616H102.954V10.2ZM93.7215 15.592V7.176H97.6895V5.704H92.1215V17.048H94.1535C95.7855 17.048 97.1295 16.968 98.5535 16.712L98.3935 15.288C96.9215 15.512 95.6415 15.592 94.3775 15.592H93.7215ZM108.189 10.696C110.669 10.28 112.333 9.736 113.325 8.984L119.101 10.696L119.565 9.416L114.253 7.864C114.381 7.576 114.461 7.256 114.477 6.904H118.813V5.576H114.525V4.296H112.989V5.576H108.573V6.904H112.989C112.781 7.976 111.197 8.84 107.805 9.384L108.189 10.696ZM120.669 11.256H106.717V12.52H112.909V13.672H108.349V14.904H117.373V15.96H108.429V19.544H119.357V18.296H110.029V17.176H118.973V13.672H114.493V12.52H120.669V11.256Z" fill="black"/>
<path d="M7.872 36.72C8.964 36.444 9.6 35.832 9.6 34.872C9.6 33.54 8.388 32.88 6.468 32.88H4.92C3 32.88 1.788 33.54 1.788 34.872C1.788 35.832 2.424 36.444 3.516 36.72V38.088H0.504V38.844H10.872V38.088H7.872V36.72ZM2.64 34.872C2.64 34.068 3.492 33.636 5.064 33.636H6.324C7.884 33.636 8.736 34.068 8.736 34.872C8.736 35.664 7.884 36.132 6.324 36.132H5.064C3.492 36.132 2.64 35.688 2.64 34.872ZM4.344 36.84C4.524 36.876 6.864 36.876 7.044 36.84V38.088H4.344V36.84ZM4.476 39.972C2.676 39.972 1.728 40.812 1.728 41.94C1.728 43.08 2.676 43.92 4.476 43.92H6.9C8.712 43.92 9.66 43.08 9.66 41.94C9.66 40.812 8.712 39.972 6.9 39.972H4.476ZM4.668 43.152C3.252 43.152 2.58 42.672 2.58 41.94C2.58 41.208 3.252 40.74 4.668 40.74H6.708C8.124 40.74 8.796 41.208 8.796 41.94C8.796 42.672 8.124 43.152 6.708 43.152H4.668ZM17.4989 37.332H20.8109V36.552H14.1869V33.768H20.6909V33H13.3349V37.332H16.6469V38.796H11.8829V39.588H22.2509V38.796H17.4989V37.332ZM13.3349 40.584V43.8H21.0989V43.008H14.1869V40.584H13.3349ZM31.7578 37.176H29.1418V37.956H31.7578V43.8H32.6098V32.724H31.7578V37.176ZM27.2818 35.4H29.9338V34.62H27.2818V32.736H26.4298V34.62H23.8018V35.4H26.4298V35.568C26.4298 37.968 25.2898 39.792 23.4178 41.676L24.0178 42.276C25.2058 41.088 26.0938 39.912 26.6458 38.652L29.6938 42.144L30.3178 41.568L26.9818 37.74C27.1738 37.044 27.2818 36.324 27.2818 35.568V35.4ZM43.1487 35.22H41.1087V35.976H43.1487V38.964H44.0007V32.724H43.1487V35.22ZM41.7687 37.488C40.3887 37.704 38.6367 37.848 37.3047 37.848H36.1407V36.288H40.3047V33.324H35.3007V34.08H39.4647V35.544H35.3007V38.616H37.1607C38.7687 38.616 40.5807 38.448 41.8647 38.22L41.7687 37.488ZM44.0007 43.8V39.744H36.8847V43.8H44.0007ZM43.1487 40.512V43.02H37.7367V40.512H43.1487ZM57.6856 37.056V32.724H56.8216V43.8H57.6856V37.848H59.5216V37.056H57.6856ZM53.6176 34.452V34.692C53.6176 37.284 51.9256 39.888 49.1896 41.724L49.7056 42.396C52.6456 40.38 54.4696 37.656 54.4696 34.524V33.672H49.3696V34.452H53.6176ZM68.8245 34.128H66.1845V33.264H65.3445V34.872H61.7445V33.264H60.9165V38.112H66.1845V36.948H68.8245V38.556H69.6765V32.724H68.8245V34.128ZM66.1845 34.872H68.8245V36.228H66.1845V34.872ZM61.7445 35.64H65.3445V37.332H61.7445V35.64ZM63.4125 40.68V39.216H62.5605V43.8H69.6765V39.216H68.8245V40.68H63.4125ZM63.4125 41.436H68.8245V43.02H63.4125V41.436ZM79.9394 34.788C79.9394 36 79.6874 38.148 79.3394 40.008L80.1794 40.164C80.5274 38.268 80.7914 36.156 80.7914 34.596V33.66H72.8594V34.44H79.9394V34.788ZM76.5554 37.428H75.7034V42.12H71.6954V42.912H82.0634V42.12H76.5554V37.428ZM94.9203 37.056V32.724H94.0923V43.8H94.9203V37.848H96.6363V37.056H94.9203ZM89.7963 36.816V33.552H89.0163V36.816H87.2283V33.552H86.4363V41.976H92.3763V33.552H91.5843V36.816H89.7963ZM89.0163 37.572V41.196H87.2283V37.572H89.0163ZM89.7963 37.572H91.5843V41.196H89.7963V37.572ZM106.647 39.864V39.084H99.5672V37.068H106.407V33.54H98.6552V34.32H105.543V36.3H98.7152V39.864H106.647ZM107.739 42.912V42.12H97.3712V42.912H107.739ZM117.414 43.8H118.254V32.724H117.414V43.8ZM112.95 37.296C113.214 36.42 113.358 35.496 113.358 34.524V33.672H109.23V34.452H112.506V34.692C112.506 37.284 111.15 39.876 109.026 41.772L109.638 42.396C110.982 41.16 112.038 39.708 112.686 38.076H115.026V43.596H115.854V32.904H115.026V37.296H112.95Z" fill="#333333"/>
</svg>
