<svg width="100" height="30" viewBox="0 0 100 30" fill="none" xmlns="http://www.w3.org/2000/svg">
<path d="M10.76 16.96H11.06C14.38 16.96 16.6 14.62 16.6 11.64C16.6 8.68 14.38 6.34 11.06 6.34H7.92C4.58 6.34 2.38 8.68 2.38 11.64C2.38 14.62 4.58 16.96 7.92 16.96H8.2V20.52H0.68V22.86H18.28V20.52H10.76V16.96ZM4.94 11.66C4.94 9.86 6.28 8.66 8.38 8.66H10.58C12.68 8.66 14.04 9.86 14.04 11.66C14.04 13.46 12.68 14.68 10.58 14.68H8.38C6.28 14.68 4.94 13.48 4.94 11.66ZM24.4448 9.44V5.74H21.8848V11.62H35.0648V9.44H24.4448ZM37.2448 14.84V12.82H19.6448V14.84H37.2448ZM35.7048 24.26V22.22H24.2448V21.1H35.2048V16.08H21.6048V18.08H32.6448V19.14H21.7048V24.26H35.7048ZM54.8097 24.16V5.48H52.2497V24.16H54.8097ZM44.7297 16.74C47.5697 16.74 49.8697 15.12 49.8697 11.68V11.36C49.8697 7.88 47.5697 6.28 44.7297 6.28C41.8497 6.28 39.5497 7.88 39.5497 11.36V11.68C39.5497 15.12 41.8497 16.74 44.7297 16.74ZM44.7297 14.42C43.2897 14.42 42.1297 13.54 42.1297 11.64V11.36C42.1297 9.46 43.2897 8.58 44.7297 8.58C46.1297 8.58 47.3097 9.46 47.3097 11.36V11.64C47.3097 13.54 46.1297 14.42 44.7297 14.42ZM41.9097 21.42C44.6297 21.42 48.2497 21.24 51.1897 20.82L50.8897 18.54C47.9697 18.88 44.4297 19.1 42.1497 19.1H38.7897L38.9097 21.42H41.9097ZM77.6755 5.5H75.1155V15.66H77.6755V11.44H80.3755V9.14H77.6755V5.5ZM72.2755 15.32L73.6355 13.34L68.7555 10.04C69.0355 9.18 69.1755 8.26 69.1755 7.26V6.04H66.6755V7.26C66.6755 9.62 65.4755 11.72 62.1355 13.7L63.4955 15.72C65.3355 14.66 66.7155 13.48 67.6555 12.18L72.2755 15.32ZM69.4955 16.48C66.8555 16.48 64.9955 18.06 64.9955 20.42C64.9955 22.8 66.8555 24.36 69.4955 24.36H73.5955C76.2555 24.36 78.0955 22.8 78.0955 20.42C78.0955 18.06 76.2555 16.48 73.5955 16.48H69.4955ZM69.8555 22.08C68.3355 22.08 67.5555 21.4 67.5555 20.4C67.5555 19.42 68.3355 18.74 69.8555 18.74H73.2155C74.7555 18.74 75.5355 19.42 75.5355 20.4C75.5355 21.4 74.7555 22.08 73.2155 22.08H69.8555ZM94.4803 10.78V7.94H97.1603V5.84H83.4603V7.94H86.1203V10.78H83.4603V12.9H97.1603V10.78H94.4803ZM92.0003 7.94V10.78H88.6003V7.94H92.0003ZM99.1003 14.2H81.5003V16.38H89.0203V17.92H83.5603V24.16H97.0603V17.92H91.5803V16.38H99.1003V14.2ZM86.1003 22.08V19.98H94.5003V22.08H86.1003Z" fill="black"/>
</svg>
