<svg width="100" height="16" viewBox="0 0 100 16" fill="none" xmlns="http://www.w3.org/2000/svg">
<path d="M4.942 5.82012C4.046 5.82012 3.192 6.17012 2.632 6.82812L3.066 3.02012H8.204V1.73212H1.862L1.148 8.64812H2.436C2.828 7.69612 3.57 7.10812 4.69 7.10812C6.202 7.10812 7.224 8.07412 7.224 9.55812C7.224 11.0281 6.202 11.9941 4.62 11.9941C3.486 11.9941 2.464 11.5041 2.002 10.4401L0.812 11.1121C1.456 12.5681 3.066 13.2821 4.69 13.2821C7.042 13.2821 8.61 11.7701 8.61 9.55812C8.61 7.34612 7.084 5.82012 4.942 5.82012ZM14.611 13.2821C16.879 13.2821 18.741 11.6581 18.741 8.49412V6.29612C18.741 3.16012 16.879 1.52212 14.611 1.52212C12.343 1.52212 10.495 3.16012 10.495 6.29612V8.49412C10.495 11.6581 12.343 13.2821 14.611 13.2821ZM14.611 12.0221C13.085 12.0221 11.895 10.8741 11.895 8.42412V6.38012C11.895 3.93012 13.085 2.78212 14.611 2.78212C16.137 2.78212 17.327 3.93012 17.327 6.38012V8.42412C17.327 10.8741 16.137 12.0221 14.611 12.0221ZM21.6618 15.5081L22.2358 11.4621H20.8218L20.5138 15.5081H21.6618ZM28.2828 13.2821C30.5508 13.2821 32.4128 11.6581 32.4128 8.49412V6.29612C32.4128 3.16012 30.5508 1.52212 28.2828 1.52212C26.0148 1.52212 24.1668 3.16012 24.1668 6.29612V8.49412C24.1668 11.6581 26.0148 13.2821 28.2828 13.2821ZM28.2828 12.0221C26.7568 12.0221 25.5668 10.8741 25.5668 8.42412V6.38012C25.5668 3.93012 26.7568 2.78212 28.2828 2.78212C29.8088 2.78212 30.9988 3.93012 30.9988 6.38012V8.42412C30.9988 10.8741 29.8088 12.0221 28.2828 12.0221ZM38.4137 13.2821C40.6817 13.2821 42.5437 11.6581 42.5437 8.49412V6.29612C42.5437 3.16012 40.6817 1.52212 38.4137 1.52212C36.1457 1.52212 34.2977 3.16012 34.2977 6.29612V8.49412C34.2977 11.6581 36.1457 13.2821 38.4137 13.2821ZM38.4137 12.0221C36.8877 12.0221 35.6977 10.8741 35.6977 8.42412V6.38012C35.6977 3.93012 36.8877 2.78212 38.4137 2.78212C39.9397 2.78212 41.1297 3.93012 41.1297 6.38012V8.42412C41.1297 10.8741 39.9397 12.0221 38.4137 12.0221ZM48.5446 13.2821C50.8126 13.2821 52.6746 11.6581 52.6746 8.49412V6.29612C52.6746 3.16012 50.8126 1.52212 48.5446 1.52212C46.2766 1.52212 44.4286 3.16012 44.4286 6.29612V8.49412C44.4286 11.6581 46.2766 13.2821 48.5446 13.2821ZM48.5446 12.0221C47.0186 12.0221 45.8286 10.8741 45.8286 8.42412V6.38012C45.8286 3.93012 47.0186 2.78212 48.5446 2.78212C50.0706 2.78212 51.2606 3.93012 51.2606 6.38012V8.42412C51.2606 10.8741 50.0706 12.0221 48.5446 12.0221ZM55.5954 15.5081L56.1694 11.4621H54.7554L54.4474 15.5081H55.5954ZM62.2164 13.2821C64.4844 13.2821 66.3464 11.6581 66.3464 8.49412V6.29612C66.3464 3.16012 64.4844 1.52212 62.2164 1.52212C59.9484 1.52212 58.1004 3.16012 58.1004 6.29612V8.49412C58.1004 11.6581 59.9484 13.2821 62.2164 13.2821ZM62.2164 12.0221C60.6904 12.0221 59.5004 10.8741 59.5004 8.42412V6.38012C59.5004 3.93012 60.6904 2.78212 62.2164 2.78212C63.7424 2.78212 64.9324 3.93012 64.9324 6.38012V8.42412C64.9324 10.8741 63.7424 12.0221 62.2164 12.0221ZM72.3473 13.2821C74.6153 13.2821 76.4773 11.6581 76.4773 8.49412V6.29612C76.4773 3.16012 74.6153 1.52212 72.3473 1.52212C70.0793 1.52212 68.2313 3.16012 68.2313 6.29612V8.49412C68.2313 11.6581 70.0793 13.2821 72.3473 13.2821ZM72.3473 12.0221C70.8213 12.0221 69.6313 10.8741 69.6313 8.42412V6.38012C69.6313 3.93012 70.8213 2.78212 72.3473 2.78212C73.8733 2.78212 75.0633 3.93012 75.0633 6.38012V8.42412C75.0633 10.8741 73.8733 12.0221 72.3473 12.0221ZM82.4782 13.2821C84.7462 13.2821 86.6082 11.6581 86.6082 8.49412V6.29612C86.6082 3.16012 84.7462 1.52212 82.4782 1.52212C80.2102 1.52212 78.3622 3.16012 78.3622 6.29612V8.49412C78.3622 11.6581 80.2102 13.2821 82.4782 13.2821ZM82.4782 12.0221C80.9522 12.0221 79.7622 10.8741 79.7622 8.42412V6.38012C79.7622 3.93012 80.9522 2.78212 82.4782 2.78212C84.0042 2.78212 85.1942 3.93012 85.1942 6.38012V8.42412C85.1942 10.8741 84.0042 12.0221 82.4782 12.0221ZM94.191 10.0761H97.817V11.1821H99.203V0.836118H97.817V9.01212H94.191V10.0761ZM92.343 6.05812C94.303 6.05812 95.829 5.24612 95.829 3.67812V3.51012C95.829 1.92812 94.303 1.11612 92.343 1.11612C90.369 1.11612 88.843 1.92812 88.843 3.51012V3.67812C88.843 5.24612 90.369 6.05812 92.343 6.05812ZM90.173 3.53812C90.173 2.71212 91.083 2.26412 92.343 2.26412C93.589 2.26412 94.499 2.71212 94.499 3.53812V3.65012C94.499 4.46212 93.589 4.91012 92.343 4.91012C91.083 4.91012 90.173 4.46212 90.173 3.65012V3.53812ZM92.665 10.3701C92.749 9.62812 92.805 8.88612 92.847 8.20012C94.219 8.13012 95.647 8.00412 96.879 7.83612L96.739 6.68812C94.681 6.94012 92.161 7.09412 90.551 7.09412H88.213L88.269 8.27012H90.439C90.775 8.27012 91.125 8.27012 91.503 8.25612C91.447 8.90012 91.391 9.60012 91.321 10.2721L92.665 10.3701ZM91.867 10.8321H90.481V13.8281H99.749V12.5541H91.867V10.8321Z" fill="black"/>
</svg>
