<svg width="66" height="44" viewBox="0 0 66 44" fill="none" xmlns="http://www.w3.org/2000/svg">
<path d="M9.048 9.156H7.404L7.944 6.48H6.804L6.276 9.156H4.164L4.692 6.48H3.552L3.024 9.156H1.116V10.2H2.808L2.364 12.48H0.576V13.524H2.148L1.62 16.2H2.76L3.288 13.524H5.4L4.872 16.2H6L6.54 13.524H8.496V12.48H6.744L7.2 10.2H9.048V9.156ZM3.504 12.48L3.948 10.2H6.06L5.616 12.48H3.504ZM18.4174 5.712V11.148H19.6054V5.712H18.4174ZM16.6534 11.028L17.2414 10.056L14.0494 8.196C14.2294 7.728 14.3254 7.224 14.3254 6.672V6.036H13.1374V6.672C13.1374 8.1 12.2254 9.24 10.1854 10.272L10.7734 11.256C11.9974 10.632 12.9094 9.96 13.4974 9.18L16.6534 11.028ZM13.4374 14.832H19.6054V11.844H12.1894V12.84H18.4174V13.848H12.2374V16.908H20.0134V15.888H13.4374V14.832ZM30.9843 16.848V5.712H29.7963V16.848H30.9843ZM24.1443 15.264C25.7403 15.264 27.4323 15.12 28.7283 14.88L28.5843 13.836C27.2163 14.052 25.6323 14.184 24.3603 14.184H23.2443V11.364H27.3963V6.528H22.0443V7.608H26.1963V10.308H22.0443V15.264H24.1443ZM34.0232 10.248C35.7752 9.864 36.9992 9.36 37.7552 8.736L42.0032 10.248L42.3992 9.264L38.4752 7.872C38.6192 7.596 38.7032 7.296 38.7152 6.984H41.8352V5.952H34.2752V6.984H37.5392C37.4072 7.872 36.1832 8.676 33.7112 9.264L34.0232 10.248ZM43.2872 10.764H32.8232V11.808H37.4672V12.924H36.7832C34.9832 12.924 33.9872 13.776 33.9872 14.94C33.9872 16.116 34.9832 16.968 36.7832 16.968H39.3272C41.1272 16.968 42.1232 16.116 42.1232 14.94C42.1232 13.776 41.1272 12.924 39.3272 12.924H38.6552V11.808H43.2872V10.764ZM40.9352 14.928C40.9352 15.54 40.3592 15.924 39.0992 15.924H37.0232C35.7632 15.924 35.1872 15.54 35.1872 14.928C35.1872 14.34 35.7632 13.956 37.0232 13.956H39.0992C40.3592 13.956 40.9352 14.34 40.9352 14.928ZM52.5421 11.724H53.7421V5.712H52.5421V11.724ZM50.7541 11.46L51.3781 10.512L48.1621 8.448C48.3541 7.932 48.4501 7.38 48.4501 6.792V6.072H47.2621V6.792C47.2621 8.352 46.3501 9.588 44.3101 10.728L44.9221 11.7C46.1461 11.016 47.0461 10.284 47.6341 9.444L50.7541 11.46ZM53.7421 16.848V12.432H46.3741V16.848H53.7421ZM52.5421 13.488V15.768H47.5621V13.488H52.5421Z" fill="#666666"/>
<path d="M9.048 31.156H7.404L7.944 28.48H6.804L6.276 31.156H4.164L4.692 28.48H3.552L3.024 31.156H1.116V32.2H2.808L2.364 34.48H0.576V35.524H2.148L1.62 38.2H2.76L3.288 35.524H5.4L4.872 38.2H6L6.54 35.524H8.496V34.48H6.744L7.2 32.2H9.048V31.156ZM3.504 34.48L3.948 32.2H6.06L5.616 34.48H3.504ZM15.8974 31.936H19.1374V27.952H11.4574V31.936H14.7094V33.088H10.0654V34.132H20.5294V33.088H15.8974V31.936ZM17.9374 28.96V30.916H12.6574V28.96H17.9374ZM18.0574 36.34V38.968H19.2574V35.272H11.3494V36.34H18.0574ZM27.2763 31.936H30.5163V30.916H24.0363V28.96H30.3963V27.952H22.8363V31.936H26.0883V33.088H21.4443V34.132H31.9083V33.088H27.2763V31.936ZM29.4363 36.364V38.968H30.6363V35.272H22.7283V36.364H29.4363ZM41.7392 31.9V27.712H40.5392V38.848H41.7392V32.992H43.4672V31.9H41.7392ZM38.4392 37.048V28.528H33.0272V37.048H38.4392ZM37.2392 29.632V35.944H34.2272V29.632H37.2392ZM53.7541 36.172V27.712H52.5541V29.296H50.7301V30.244H52.5541V31.684H50.7301V32.62H52.5541V36.172H53.7541ZM50.7181 33.172C49.5061 33.376 48.1861 33.484 46.9741 33.484H46.0021V31.912H49.8061V28.3H44.8141V29.368H48.6181V30.856H44.8141V34.564H46.7581C48.3061 34.564 49.7101 34.432 50.8621 34.216L50.7181 33.172ZM47.5861 35.596H46.3861V38.848H54.2221V37.756H47.5861V35.596Z" fill="#666666"/>
</svg>
