<svg width="30" height="16" viewBox="0 0 30 16" fill="none" xmlns="http://www.w3.org/2000/svg">
<path d="M11.456 0.584V11.64H13.504V0.584H11.456ZM9.056 9.336L10.208 7.768L6.096 4.728C6.336 3.96 6.464 3.144 6.464 2.28V1.112H4.464V2.28C4.464 4.44 3.424 6.28 0.688 8.056L1.824 9.64C3.328 8.664 4.464 7.64 5.232 6.488L9.056 9.336ZM5.408 10.696H3.36V15.528H14.048V13.672H5.408V10.696ZM26.1639 5.976C27.4439 5.576 28.2439 4.744 28.2439 3.464C28.2439 1.608 26.5159 0.712 24.0679 0.712H21.4599C18.9959 0.712 17.2839 1.608 17.2839 3.464C17.2839 4.728 18.0679 5.576 19.3479 5.976V7.416H15.7159V9.144H29.7959V7.416H26.1639V5.976ZM19.3159 3.48C19.3159 2.76 20.2279 2.408 21.8439 2.408H23.6839C25.2839 2.408 26.1959 2.76 26.1959 3.48C26.1959 4.216 25.2839 4.584 23.6839 4.584H21.8439C20.2279 4.584 19.3159 4.216 19.3159 3.48ZM21.2679 6.264H24.2439V7.416H21.2679V6.264ZM20.9799 10.152C18.5959 10.152 17.2039 11.336 17.2039 12.92C17.2039 14.52 18.5959 15.688 20.9799 15.688H24.5319C26.9319 15.688 28.3239 14.52 28.3239 12.92C28.3239 11.336 26.9319 10.152 24.5319 10.152H20.9799ZM21.3639 13.912C19.8759 13.912 19.2359 13.528 19.2359 12.904C19.2359 12.28 19.8759 11.912 21.3639 11.912H24.1639C25.6519 11.912 26.2759 12.28 26.2759 12.904C26.2759 13.528 25.6519 13.912 24.1639 13.912H21.3639Z" fill="black"/>
</svg>
