<svg width="86" height="44" viewBox="0 0 86 44" fill="none" xmlns="http://www.w3.org/2000/svg">
<path d="M9.048 9.156H7.404L7.944 6.48H6.804L6.276 9.156H4.164L4.692 6.48H3.552L3.024 9.156H1.116V10.2H2.808L2.364 12.48H0.576V13.524H2.148L1.62 16.2H2.76L3.288 13.524H5.4L4.872 16.2H6L6.54 13.524H8.496V12.48H6.744L7.2 10.2H9.048V9.156ZM3.504 12.48L3.948 10.2H6.06L5.616 12.48H3.504ZM11.6734 16.2V8.448L14.8894 16.2H16.1374L19.3654 8.436V16.2H20.5534V6.48H18.9934L15.5254 14.856L12.0454 6.48H10.4854V16.2H11.6734ZM28.7779 16.2V15.108H23.4739L28.6699 7.452V6.48H22.0819V7.572H27.1819L21.9979 15.228V16.2H28.7779ZM38.9209 9.156H41.0929V11.784H42.2929V5.712H41.0929V8.124H38.9209V9.156ZM39.1489 11.724L39.7489 10.74L36.6289 8.772C36.7969 8.316 36.8809 7.836 36.8809 7.308H39.3169V6.24H33.3169V7.308H35.7169C35.7169 8.784 34.7929 9.864 32.8729 10.944L33.4369 11.904C34.6609 11.244 35.5609 10.536 36.1249 9.732L39.1489 11.724ZM37.3489 12.372C35.7289 12.372 34.6969 13.332 34.6969 14.664C34.6969 16.008 35.7289 16.968 37.3489 16.968H39.7729C41.4049 16.968 42.4369 16.008 42.4369 14.664C42.4369 13.332 41.4049 12.372 39.7729 12.372H37.3489ZM37.5409 15.888C36.4369 15.888 35.8849 15.372 35.8849 14.664C35.8849 13.956 36.4369 13.44 37.5409 13.44H39.5929C40.6969 13.44 41.2369 13.956 41.2369 14.664C41.2369 15.372 40.6969 15.888 39.5929 15.888H37.5409ZM52.4838 16.848H53.6718V5.712H52.4838V16.848ZM49.0518 7.68V7.812C49.0518 10.164 47.5158 12.72 44.6358 14.568L45.3558 15.516C48.4518 13.476 50.2518 10.728 50.2518 7.572V6.588H44.8758V7.68H49.0518ZM63.8507 8.244H61.6667V9.276H63.8507V11.964H65.0507V5.712H63.8507V8.244ZM61.8947 11.844L62.5067 10.872L59.3867 8.832C59.5547 8.364 59.6387 7.86 59.6387 7.32V7.308H62.0747V6.24H56.0747V7.308H58.4747V7.32C58.4747 8.844 57.5507 9.96 55.6307 11.064L56.2067 12.012C57.4307 11.34 58.3187 10.62 58.8827 9.792L61.8947 11.844ZM63.8507 13.752V16.968H65.0507V12.66H57.5627V13.752H63.8507ZM75.5296 10.116C75.7336 8.952 75.8416 7.728 75.8416 6.768V6.06H68.1736V7.152H74.6536C74.6416 7.8 74.5336 8.988 74.3296 10.116H66.8896V11.172H77.3536V10.116H75.5296ZM76.0816 16.86V12.516H68.1736V16.86H76.0816ZM74.8816 13.548V15.804H69.3736V13.548H74.8816Z" fill="#666666"/>
<path d="M9.048 31.156H7.404L7.944 28.48H6.804L6.276 31.156H4.164L4.692 28.48H3.552L3.024 31.156H1.116V32.2H2.808L2.364 34.48H0.576V35.524H2.148L1.62 38.2H2.76L3.288 35.524H5.4L4.872 38.2H6L6.54 35.524H8.496V34.48H6.744L7.2 32.2H9.048V31.156ZM3.504 34.48L3.948 32.2H6.06L5.616 34.48H3.504ZM18.6094 31.9H17.1934V27.88H16.0534V38.62H17.1934V32.992H18.6094V38.848H19.7854V27.712H18.6094V31.9ZM13.5934 29.68V29.812C13.5934 32.164 12.4654 34.66 10.2814 36.64L11.1454 37.516C13.4254 35.344 14.7574 32.728 14.7574 29.572V28.588H10.5454V29.68H13.5934ZM30.9963 36.052V27.712H29.7963V36.052H30.9963ZM24.8643 34.228C26.5083 34.228 27.8403 33.256 27.8403 31.24V31.012C27.8403 28.972 26.5083 28.012 24.8643 28.012C23.2083 28.012 21.8763 28.972 21.8763 31.012V31.24C21.8763 33.256 23.2083 34.228 24.8643 34.228ZM24.8643 33.172C23.8563 33.172 23.0763 32.524 23.0763 31.216V31.024C23.0763 29.704 23.8563 29.068 24.8643 29.068C25.8603 29.068 26.6403 29.704 26.6403 31.024V31.216C26.6403 32.524 25.8603 33.172 24.8643 33.172ZM31.4643 38.848V37.756H24.8283V35.236H23.6283V38.848H31.4643ZM41.7392 27.712H40.5392V33.616H41.7392V31.012H43.4672V29.92H41.7392V27.712ZM33.0272 28.24V33.064H38.4392V28.24H33.0272ZM34.1912 32.008V29.308H37.2752V32.008H34.1912ZM41.8592 35.368V34.312H34.4912V35.368H37.6232C37.5872 36.388 36.1472 37.288 33.9032 37.924L34.2752 38.968C35.8592 38.536 37.1192 37.924 37.9112 37.192L41.9672 38.968L42.4232 37.948L38.6072 36.304C38.7632 36.004 38.8352 35.692 38.8472 35.368H41.8592ZM45.3541 32.824C47.1901 32.416 48.4261 31.924 49.1701 31.288L53.4541 32.824L53.8501 31.84L49.8421 30.424C49.9621 30.172 50.0221 29.896 50.0461 29.608H53.2741V28.552H50.0701V27.532H48.8941V28.552H45.5941V29.608H48.9061C48.7741 30.484 47.5741 31.24 45.0061 31.816L45.3541 32.824ZM54.6661 33.352H44.2021V34.36H48.8461V35.44H45.4981V38.848H53.3941V35.44H50.0341V34.36H54.6661V33.352ZM46.6861 37.888V36.376H52.1941V37.888H46.6861Z" fill="#666666"/>
</svg>
