<svg width="165" height="48" viewBox="0 0 165 48" fill="none" xmlns="http://www.w3.org/2000/svg">
<path d="M8.176 12.892C8.176 10.288 6.482 8.958 4.452 8.958C2.464 8.958 0.742 10.274 0.742 12.808V13.746C0.742 16.294 2.492 17.61 4.48 17.61C6.076 17.61 7.532 16.84 8.05 15.342L6.762 14.922C6.384 15.874 5.474 16.364 4.48 16.364C3.22 16.364 2.142 15.482 2.114 13.788H8.176V12.892ZM2.128 12.598C2.212 11.03 3.234 10.218 4.452 10.218C5.782 10.218 6.776 11.142 6.776 12.598H2.128ZM19.4424 9.126V12.318H20.7724V5.164H19.4424V7.894H17.8184V5.304H16.5304V12.192H17.8184V9.126H19.4424ZM13.8424 5.724V7.488H11.0424V5.724H9.79639V11.716H15.0884V5.724H13.8424ZM11.0424 8.72H13.8424V10.484H11.0424V8.72ZM14.8924 13.004C12.9744 13.004 11.7704 14.096 11.7704 15.65C11.7704 17.204 12.9744 18.296 14.8924 18.296H17.8184C19.7364 18.296 20.9404 17.204 20.9404 15.65C20.9404 14.096 19.7364 13.004 17.8184 13.004H14.8924ZM15.1164 17.036C13.8004 17.036 13.1704 16.462 13.1704 15.65C13.1704 14.824 13.8004 14.25 15.1164 14.25H17.5944C18.9104 14.25 19.5404 14.824 19.5404 15.65C19.5404 16.462 18.9104 17.036 17.5944 17.036H15.1164ZM32.4518 5.164V12.248H33.8378V5.164H32.4518ZM30.0438 5.78H23.5478V6.97H28.7698C28.7558 7.376 28.6578 7.768 28.4898 8.146C27.1318 8.272 24.8358 8.356 23.5618 8.356H23.2818L23.3378 9.462H23.6458C24.8078 9.462 26.4038 9.378 27.6638 9.266C26.7398 10.162 25.2698 10.904 23.2958 11.422L23.7158 12.556C27.7198 11.45 30.0438 9.56 30.0438 6.564V5.78ZM28.0698 12.934C26.1798 12.934 24.9758 14.054 24.9758 15.608C24.9758 17.176 26.1798 18.296 28.0698 18.296H30.9118C32.8018 18.296 34.0058 17.176 34.0058 15.608C34.0058 14.054 32.8018 12.934 30.9118 12.934H28.0698ZM28.3078 17.036C27.0058 17.036 26.3758 16.434 26.3758 15.608C26.3758 14.782 27.0058 14.18 28.3078 14.18H30.6878C31.9758 14.18 32.6198 14.782 32.6198 15.608C32.6198 16.434 31.9758 17.036 30.6878 17.036H28.3078ZM46.6108 9.182H49.1448V12.248H50.5448V5.164H49.1448V7.978H46.6108V9.182ZM46.8768 12.178L47.5768 11.03L43.9368 8.734C44.1328 8.202 44.2308 7.642 44.2308 7.026H47.0728V5.78H40.0728V7.026H42.8728C42.8728 8.748 41.7948 10.008 39.5548 11.268L40.2128 12.388C41.6408 11.618 42.6908 10.792 43.3488 9.854L46.8768 12.178ZM44.7768 12.934C42.8868 12.934 41.6828 14.054 41.6828 15.608C41.6828 17.176 42.8868 18.296 44.7768 18.296H47.6048C49.5088 18.296 50.7128 17.176 50.7128 15.608C50.7128 14.054 49.5088 12.934 47.6048 12.934H44.7768ZM45.0008 17.036C43.7128 17.036 43.0688 16.434 43.0688 15.608C43.0688 14.782 43.7128 14.18 45.0008 14.18H47.3948C48.6828 14.18 49.3128 14.782 49.3128 15.608C49.3128 16.434 48.6828 17.036 47.3948 17.036H45.0008ZM62.4342 18.156H63.8202V5.164H62.4342V18.156ZM58.4302 7.46V7.614C58.4302 10.358 56.6382 13.34 53.2782 15.496L54.1182 16.602C57.7302 14.222 59.8302 11.016 59.8302 7.334V6.186H53.5582V7.46H58.4302ZM75.9336 18.156H77.3056V5.164H75.9336V18.156ZM71.4116 8.16C71.0056 6.48 70.0536 5.78 68.9056 5.78C67.3656 5.78 66.1896 7.012 66.1896 10.134V12.108C66.1896 15.23 67.3656 16.462 68.9056 16.462C70.1936 16.462 71.2156 15.594 71.5236 13.466H73.1196V17.89H74.4496V5.36H73.1196V8.16H71.4116ZM70.2916 12.094C70.2916 14.348 69.7036 15.188 68.9056 15.188C68.1076 15.188 67.5196 14.348 67.5196 12.094V10.148C67.5196 7.88 68.1076 7.054 68.9056 7.054C69.7036 7.054 70.2916 7.88 70.2916 10.148V12.094ZM71.6076 12.234V12.108V10.134C71.6076 9.882 71.5936 9.63 71.5796 9.406H73.1196V12.234H71.6076ZM89.321 10.302C89.559 8.944 89.685 7.516 89.685 6.396V5.57H80.739V6.844H88.299C88.285 7.6 88.159 8.986 87.921 10.302H79.241V11.534H91.449V10.302H89.321ZM89.965 18.17V13.102H80.739V18.17H89.965ZM88.565 14.306V16.938H82.139V14.306H88.565ZM102.752 10.498H106.532V5.374H105.132V6.844H98.972V5.374H97.572V10.498H101.366V11.786H95.948V12.99H108.156V11.786H102.752V10.498ZM105.132 7.992V9.35H98.972V7.992H105.132ZM105.272 15.482V18.296H106.672V14.25H97.446V15.482H105.272ZM120.353 18.156V5.164H118.967V18.156H120.353ZM112.373 16.308C114.235 16.308 116.209 16.14 117.721 15.86L117.553 14.642C115.957 14.894 114.109 15.048 112.625 15.048H111.323V11.758H116.167V6.116H109.923V7.376H114.767V10.526H109.923V16.308H112.373ZM132.229 12.458H133.629V5.164H132.229V12.458ZM130.129 12.08L130.871 10.974L127.119 8.454C127.343 7.838 127.455 7.18 127.455 6.466V5.584H126.069V6.466C126.069 8.356 125.005 9.84 122.625 11.24L123.353 12.36C124.781 11.534 125.831 10.638 126.503 9.644L130.129 12.08ZM132.229 14.544V18.296H133.629V13.27H124.893V14.544H132.229Z" fill="black"/>
<path d="M6.12 34.876H9.432V31H1.956V34.876H5.268V36.22H0.504V36.988H10.872V36.22H6.12V34.876ZM8.568 31.744V34.132H2.808V31.744H8.568ZM8.676 39.1V41.92H9.54V38.32H1.848V39.1H8.676ZM17.4989 35.332H20.8109V34.552H14.1869V31.768H20.6909V31H13.3349V35.332H16.6469V36.796H11.8829V37.588H22.2509V36.796H17.4989V35.332ZM13.3349 38.584V41.8H21.0989V41.008H14.1869V38.584H13.3349ZM29.2258 34.396C31.1458 34.396 32.3578 33.856 32.3578 32.596C32.3578 31.348 31.1458 30.82 29.2258 30.82H27.6658C25.7578 30.82 24.5458 31.348 24.5458 32.596C24.5458 33.856 25.7578 34.396 27.6658 34.396H29.2258ZM27.8098 33.664C26.2498 33.664 25.3978 33.328 25.3978 32.596C25.3978 31.888 26.2498 31.552 27.8098 31.552H29.0938C30.6538 31.552 31.4938 31.888 31.4938 32.596C31.4938 33.304 30.6538 33.664 29.0938 33.664H27.8098ZM33.6298 36.076V35.344H23.2618V36.076H33.6298ZM32.5978 41.86V41.128H25.4578V39.844H32.2978V37.156H24.5458V37.876H31.4338V39.124H24.6058V41.86H32.5978ZM46.9187 36.148V30.724H46.0667V36.148H46.9187ZM40.9307 35.824C42.5147 35.824 43.7987 35.044 43.7987 33.496V33.304C43.7987 31.744 42.5147 30.976 40.9307 30.976C39.3227 30.976 38.0387 31.744 38.0387 33.304V33.496C38.0387 35.044 39.3227 35.824 40.9307 35.824ZM40.9307 35.044C39.7427 35.044 38.9027 34.504 38.9027 33.472V33.316C38.9027 32.308 39.7427 31.744 40.9307 31.744C42.0947 31.744 42.9467 32.308 42.9467 33.316V33.472C42.9467 34.504 42.0947 35.044 40.9307 35.044ZM47.3867 41.86V41.104H40.6667V39.736H46.9187V36.94H39.7547V37.672H46.0667V38.992H39.8027V41.86H47.3867ZM55.0456 34.012H57.4336V36.784H58.2856V30.736H57.4336V33.256H55.0456V34.012ZM55.4296 36.676L55.8736 35.968L52.6336 33.76C52.8136 33.292 52.8976 32.8 52.8976 32.26V32.092H55.4416V31.324H49.5376V32.092H52.0576V32.26C52.0576 33.892 50.9896 35.032 49.0936 36.16L49.5136 36.844C50.7976 36.112 51.7096 35.344 52.2616 34.468L55.4296 36.676ZM53.5336 37.456C51.9016 37.456 50.9416 38.44 50.9416 39.688C50.9416 40.948 51.9016 41.908 53.5336 41.908H55.8616C57.4936 41.908 58.4536 40.948 58.4536 39.688C58.4536 38.44 57.4936 37.456 55.8616 37.456H53.5336ZM53.7016 41.14C52.4176 41.14 51.7936 40.516 51.7936 39.676C51.7936 38.872 52.4176 38.224 53.7016 38.224H55.6936C56.9776 38.224 57.5896 38.872 57.5896 39.676C57.5896 40.516 56.9776 41.14 55.6936 41.14H53.7016ZM68.8245 41.8H69.6765V30.724H68.8245V41.8ZM65.4405 32.452V32.692C65.4405 35.284 63.7125 37.9 60.9045 39.724L61.4085 40.396C64.4325 38.392 66.3045 35.656 66.3045 32.524V31.672H61.0725V32.452H65.4405ZM80.4434 30.724H79.5794V39.136H80.4434V34.456H82.2794V33.664H80.4434V30.724ZM77.2274 31.444H72.1274V32.224H76.3754C76.3754 33.988 74.6594 35.668 71.9354 36.748L72.3074 37.48C75.3434 36.268 77.2274 34.456 77.2274 32.032V31.444ZM73.5434 38.26V41.8H81.0674V41.008H74.4074V38.26H73.5434ZM94.2363 32.788C94.2363 34 93.9843 36.148 93.6363 38.008L94.4763 38.164C94.8243 36.268 95.0883 34.156 95.0883 32.596V31.66H87.1563V32.44H94.2363V32.788ZM90.8523 35.428H90.0003V40.12H85.9923V40.912H96.3603V40.12H90.8523V35.428ZM106.575 36.28L106.983 35.548L102.735 33.088C102.939 32.644 103.035 32.176 103.035 31.696V30.964H102.183V31.696C102.183 33.172 100.851 34.444 98.1152 35.524L98.4632 36.28C100.323 35.536 101.583 34.72 102.291 33.796L106.575 36.28ZM97.3712 37.648V38.44H102.135V41.92H102.987V38.44H107.739V37.648H97.3712ZM118.11 36.964V30.736H117.246V36.964H118.11ZM112.11 36.46C113.694 36.46 114.978 35.608 114.978 33.868V33.628C114.978 31.888 113.694 31.036 112.11 31.036C110.514 31.036 109.23 31.888 109.23 33.628V33.868C109.23 35.608 110.514 36.46 112.11 36.46ZM112.11 35.692C110.946 35.692 110.094 35.056 110.094 33.844V33.652C110.094 32.44 110.946 31.804 112.11 31.804C113.274 31.804 114.126 32.44 114.126 33.652V33.844C114.126 35.056 113.274 35.692 112.11 35.692ZM118.11 41.908V37.744H110.874V38.524H117.246V41.908H118.11ZM126.093 34.372C128.013 34.372 129.225 33.844 129.225 32.584C129.225 31.336 128.013 30.82 126.093 30.82H124.533C122.625 30.82 121.413 31.336 121.413 32.584C121.413 33.844 122.625 34.372 124.533 34.372H126.093ZM125.961 31.552C127.521 31.552 128.361 31.876 128.361 32.596C128.361 33.292 127.521 33.652 125.961 33.652H124.677C123.105 33.652 122.265 33.316 122.265 32.596C122.265 31.876 123.105 31.552 124.677 31.552H125.961ZM130.497 35.284H120.129V36.016H123.021V37.156H121.413V37.876H128.301V39.124H121.473V41.86H129.465V41.128H122.325V39.844H129.165V37.156H127.629V36.016H130.497V35.284ZM123.861 37.156V36.016H126.789V37.156H123.861ZM137.124 37.744H140.784V36.976H133.704V35.008H140.544V31.54H132.792V32.32H139.68V34.24H132.852V37.744H136.272V40.12H131.508V40.912H141.876V40.12H137.124V37.744Z" fill="#333333"/>
</svg>
