<svg width="90" height="34" viewBox="0 0 90 34" fill="none" xmlns="http://www.w3.org/2000/svg">
<path d="M14.74 26.16H17.22V7.48H14.74V26.16ZM8.58 11.74C8.6 11.4 8.6 11.06 8.6 10.7V8.86H1.5V11.2H6.08C6.08 14.74 4.62 18.72 0.92 22.2L2.82 24.04C5.78 21.08 7.66 17.82 8.32 13.98H10.68V17.58H7.84V19.82H10.68V25.72H13.1V7.78H10.68V11.74H8.58ZM34.9648 14.42V7.48H32.4248V26.16H34.9648V16.76H37.4848V14.42H34.9648ZM20.7048 18.76C22.5648 17.76 23.9448 16.68 24.8848 15.46L29.5248 18.56L30.9248 16.42L26.0448 13.32C26.2648 12.62 26.4048 11.9 26.4248 11.12H30.1848V8.86H20.1248V11.12H23.8248C23.7048 13.26 22.3648 14.94 19.3448 16.64L20.7048 18.76ZM26.5248 18.04H23.9648V21.08C23.4648 21.1 22.9848 21.1 22.5648 21.1H19.3448L19.4848 23.42H22.3248C24.9448 23.42 28.5248 23.24 31.3448 22.82L31.0648 20.56C29.6248 20.74 28.0248 20.86 26.5248 20.96V18.04Z" fill="black"/>
<circle cx="45" cy="17" r="3" fill="black"/>
<path d="M59.72 9.1V7.28H57.14V9.1H53.2V11.22H63.66V9.1H59.72ZM63.64 14.14H66.32V15.96H63.64V17.92H66.32V21.48H68.88V7.48H66.32V12.18H63.64V14.14ZM62.92 15.56C62.92 13.26 60.96 12.06 58.46 12.06C55.92 12.06 53.96 13.26 53.96 15.56V15.82C53.96 18.14 55.92 19.34 58.46 19.34C60.96 19.34 62.92 18.14 62.92 15.82V15.56ZM56.38 15.6C56.38 14.72 57.26 14.18 58.46 14.18C59.64 14.18 60.52 14.72 60.52 15.6V15.78C60.52 16.68 59.64 17.22 58.46 17.22C57.26 17.22 56.38 16.68 56.38 15.78V15.6ZM58.76 20.7H56.2V26.16H69.58V23.84H58.76V20.7ZM86.4448 14.6C86.7248 12.78 86.8648 10.84 86.8648 9.26V8.02H73.7448V10.36H84.3048C84.2648 11.38 84.1248 13.02 83.8648 14.6H71.6448V16.86H89.2448V14.6H86.4448ZM87.2048 26.18V18.76H73.7048V26.18H87.2048ZM84.6448 20.96V23.94H76.2448V20.96H84.6448Z" fill="black"/>
</svg>
