<svg width="310" height="50" viewBox="0 0 310 50" fill="none" xmlns="http://www.w3.org/2000/svg">
<path d="M2.6 15.88C5.72 15.34 7.82 14.64 9.1 13.68L16.22 15.88L17.04 13.78L10.52 11.82C10.64 11.52 10.7 11.2 10.74 10.86H16.06V8.66H10.8V7.2H8.3V8.66H2.92V10.86H8.26C7.88 12.02 6.08 13 1.92 13.74L2.6 15.88ZM10.76 15.22H8.2V16.9H0.68V19.02H18.28V16.9H10.76V15.22ZM7.22 20.22C4.24 20.22 2.54 21.46 2.54 23.28C2.54 25.12 4.24 26.36 7.22 26.36H11.76C14.74 26.36 16.44 25.12 16.44 23.28C16.44 21.46 14.74 20.22 11.76 20.22H7.22ZM7.76 24.3C5.86 24.3 5.08 23.92 5.08 23.26C5.08 22.6 5.86 22.24 7.76 22.24H11.22C13.1 22.24 13.88 22.6 13.88 23.26C13.88 23.92 13.1 24.3 11.22 24.3H7.76ZM34.7848 14.24V7.48H32.2448V26.16H34.7848V16.56H37.4848V14.24H34.7848ZM26.2048 11.2H30.0848V8.86H19.9448V11.2H23.7048V11.74C23.7048 15.72 22.2048 18.78 19.2048 22L21.0248 23.66C22.6648 21.96 23.9048 20.2 24.7648 18.34L28.8848 23.48L30.8048 21.82L25.7648 15.52C26.0648 14.3 26.2048 13.06 26.2048 11.74V11.2ZM53.7497 7.48H51.1897V21.3H53.7497V14.22H56.4497V11.9H53.7497V7.48ZM48.2497 18.42L49.7097 16.52L44.7897 12.68C45.0897 11.72 45.2497 10.7 45.2497 9.6V8.14H42.7497V9.6C42.7497 12.3 41.5097 14.64 38.2097 16.84L39.6697 18.8C41.4697 17.6 42.8097 16.32 43.7297 14.9L48.2497 18.42ZM41.4697 20.12V26.16H54.6297V23.84H44.0097V20.12H41.4697ZM64.5755 17.94C67.4955 17.04 69.5355 16 70.8355 14.82L77.9555 17.94L79.0555 15.72L72.3155 12.8C72.5155 12.32 72.6355 11.82 72.6555 11.3H77.9955V9.04H72.6755V7.2H70.1355V9.04H64.6755V11.3H70.0955C69.8355 12.76 67.9355 14.3 63.5955 15.68L64.5755 17.94ZM62.5355 19.26V21.58H70.0555V26.36H72.6155V21.58H80.1355V19.26H62.5355ZM97.7003 26.16V7.48H95.1403V26.16H97.7003ZM87.2203 23.78C90.0003 23.78 92.3003 22.02 92.3003 17.46V14.6C92.3003 10.04 90.0003 8.28 87.2203 8.28C84.4203 8.28 82.1203 10.04 82.1203 14.6V17.46C82.1203 22.02 84.4203 23.78 87.2203 23.78ZM87.2203 21.46C85.8403 21.46 84.6803 20.46 84.6803 17.46V14.6C84.6803 11.6 85.8403 10.6 87.2203 10.6C88.6003 10.6 89.7403 11.6 89.7403 14.6V17.46C89.7403 20.46 88.6003 21.46 87.2203 21.46Z" fill="black"/>
<path d="M7.33 47.54H8.33V38.26H7.33V47.54ZM3.9 39.9H5.99V38.99H0.85V39.9H2.92V40.29C2.92 42.43 2.05 43.98 0.48 45.61L1.19 46.28C2.11 45.33 2.8 44.38 3.26 43.36L5.63 46.18L6.36 45.52L3.64 42.31C3.81 41.67 3.9 41 3.9 40.29V39.9ZM17.2924 38.26H16.2924V45.21H17.2924V41.49H18.7324V40.59H17.2924V38.26ZM15.3424 42.38C14.1724 42.56 12.8824 42.67 11.8424 42.67H11.0924V38.75H10.0824V43.58H11.6724C12.9824 43.58 14.3424 43.45 15.4624 43.26L15.3424 42.38ZM11.3524 44.63V47.54H17.7724V46.63H12.3424V44.63H11.3524ZM29.226 38.26H28.226V42.79H29.226V40.92H30.666V40H29.226V38.26ZM27.286 41.4C26.126 41.57 24.826 41.68 23.796 41.68H23.026V39.52H26.526V38.65H22.016V42.54H23.616C24.916 42.54 26.286 42.42 27.396 42.23L27.286 41.4ZM29.226 45.86V43.37H23.236V44.2H28.226V45.04H23.286V47.59H29.566V46.74H24.276V45.86H29.226ZM43.3108 41.75H42.1208V38.4H41.1808V47.35H42.1208V42.66H43.3108V47.54H44.2808V38.26H43.3108V41.75ZM37.5408 45.12V39.86H40.0208V38.94H36.5408V46.03H37.8108C38.8308 46.03 39.6708 45.98 40.5608 45.82L40.4608 44.93C39.5408 45.07 38.7408 45.12 37.9508 45.12H37.5408ZM52.6232 47.54H53.6132V38.26H52.6232V47.54ZM47.1032 41.45V38.85H46.1132V46.04H50.7132V38.85H49.7332V41.45H47.1032ZM47.1032 42.35H49.7332V45.13H47.1032V42.35ZM63.478 42.48V40.17H62.418V42.48H60.168V43.4H62.418V45.72H63.478V43.4H65.718V42.48H63.478ZM69.9107 47V38.9H69.0607L66.5007 40.94L67.0707 41.69L68.9107 40.22V47H69.9107ZM74.6063 47.15C76.2263 47.15 77.5563 45.99 77.5563 43.73V42.16C77.5563 39.92 76.2263 38.75 74.6063 38.75C72.9863 38.75 71.6663 39.92 71.6663 42.16V43.73C71.6663 45.99 72.9863 47.15 74.6063 47.15ZM74.6063 46.25C73.5163 46.25 72.6663 45.43 72.6663 43.68V42.22C72.6663 40.47 73.5163 39.65 74.6063 39.65C75.6963 39.65 76.5463 40.47 76.5463 42.22V43.68C76.5463 45.43 75.6963 46.25 74.6063 46.25ZM81.8427 47.15C83.4627 47.15 84.7927 45.99 84.7927 43.73V42.16C84.7927 39.92 83.4627 38.75 81.8427 38.75C80.2227 38.75 78.9027 39.92 78.9027 42.16V43.73C78.9027 45.99 80.2227 47.15 81.8427 47.15ZM81.8427 46.25C80.7527 46.25 79.9027 45.43 79.9027 43.68V42.22C79.9027 40.47 80.7527 39.65 81.8427 39.65C82.9327 39.65 83.7827 40.47 83.7827 42.22V43.68C83.7827 45.43 82.9327 46.25 81.8427 46.25ZM89.079 47.15C90.699 47.15 92.029 45.99 92.029 43.73V42.16C92.029 39.92 90.699 38.75 89.079 38.75C87.459 38.75 86.139 39.92 86.139 42.16V43.73C86.139 45.99 87.459 47.15 89.079 47.15ZM89.079 46.25C87.989 46.25 87.139 45.43 87.139 43.68V42.22C87.139 40.47 87.989 39.65 89.079 39.65C90.169 39.65 91.019 40.47 91.019 42.22V43.68C91.019 45.43 90.169 46.25 89.079 46.25ZM94.1153 48.74L94.5253 45.85H93.5153L93.2953 48.74H94.1153ZM98.8446 47.15C100.465 47.15 101.795 45.99 101.795 43.73V42.16C101.795 39.92 100.465 38.75 98.8446 38.75C97.2246 38.75 95.9046 39.92 95.9046 42.16V43.73C95.9046 45.99 97.2246 47.15 98.8446 47.15ZM98.8446 46.25C97.7546 46.25 96.9046 45.43 96.9046 43.68V42.22C96.9046 40.47 97.7546 39.65 98.8446 39.65C99.9346 39.65 100.785 40.47 100.785 42.22V43.68C100.785 45.43 99.9346 46.25 98.8446 46.25ZM106.081 47.15C107.701 47.15 109.031 45.99 109.031 43.73V42.16C109.031 39.92 107.701 38.75 106.081 38.75C104.461 38.75 103.141 39.92 103.141 42.16V43.73C103.141 45.99 104.461 47.15 106.081 47.15ZM106.081 46.25C104.991 46.25 104.141 45.43 104.141 43.68V42.22C104.141 40.47 104.991 39.65 106.081 39.65C107.171 39.65 108.021 40.47 108.021 42.22V43.68C108.021 45.43 107.171 46.25 106.081 46.25ZM113.317 47.15C114.937 47.15 116.267 45.99 116.267 43.73V42.16C116.267 39.92 114.937 38.75 113.317 38.75C111.697 38.75 110.377 39.92 110.377 42.16V43.73C110.377 45.99 111.697 47.15 113.317 47.15ZM113.317 46.25C112.227 46.25 111.377 45.43 111.377 43.68V42.22C111.377 40.47 112.227 39.65 113.317 39.65C114.407 39.65 115.257 40.47 115.257 42.22V43.68C115.257 45.43 114.407 46.25 113.317 46.25ZM121.684 44.86H124.274V45.65H125.264V38.26H124.274V44.1H121.684V44.86ZM120.364 41.99C121.764 41.99 122.854 41.41 122.854 40.29V40.17C122.854 39.04 121.764 38.46 120.364 38.46C118.954 38.46 117.864 39.04 117.864 40.17V40.29C117.864 41.41 118.954 41.99 120.364 41.99ZM118.814 40.19C118.814 39.6 119.464 39.28 120.364 39.28C121.254 39.28 121.904 39.6 121.904 40.19V40.27C121.904 40.85 121.254 41.17 120.364 41.17C119.464 41.17 118.814 40.85 118.814 40.27V40.19ZM120.594 45.07C120.654 44.54 120.694 44.01 120.724 43.52C121.704 43.47 122.724 43.38 123.604 43.26L123.504 42.44C122.034 42.62 120.234 42.73 119.084 42.73H117.414L117.454 43.57H119.004C119.244 43.57 119.494 43.57 119.764 43.56C119.724 44.02 119.684 44.52 119.634 45L120.594 45.07ZM120.024 45.4H119.034V47.54H125.654V46.63H120.024V45.4Z" fill="#999999"/>
</svg>
