<svg width="22" height="12" viewBox="0 0 22 12" fill="none" xmlns="http://www.w3.org/2000/svg">
<path d="M8.592 5.764V8.98H10.128V0.688H8.592V2.368H7.248V3.532H8.592V4.588H7.236V5.764C6.792 5.812 6.336 5.872 5.88 5.908V2.572H7.02V1.228H0.732V2.572H1.704V6.1H0.588L0.66 7.444H2.256C3.888 7.444 5.832 7.324 7.452 7.072L7.308 5.764H8.592ZM4.416 6.028C3.984 6.052 3.564 6.076 3.18 6.088V2.572H4.416V6.028ZM4.056 8.392H2.52V11.896H10.536V10.504H4.056V8.392ZM19.9709 6.508H21.5069V0.688H19.9709V6.508ZM18.3389 6.544L19.0469 5.248L15.9989 3.628C16.1189 3.28 16.1789 2.908 16.2029 2.512H18.6149V1.168H12.3029V2.512H14.6909C14.6069 3.676 13.7789 4.612 11.8589 5.524L12.5429 6.784C13.8029 6.208 14.7149 5.572 15.3149 4.84L18.3389 6.544ZM15.4229 8.104V7H13.8869V11.896H21.5069V7H19.9709V8.104H15.4229ZM15.4229 9.436H19.9709V10.54H15.4229V9.436Z" fill="#999999"/>
</svg>
