<svg width="87" height="16" viewBox="0 0 87 16" fill="none" xmlns="http://www.w3.org/2000/svg">
<path d="M5.166 12.6302V1.29022H3.976L0.392 4.14622L1.19 5.19622L3.766 3.13822V12.6302H5.166ZM8.65988 15.0662L9.23388 11.0202H7.81988L7.51188 15.0662H8.65988ZM17.9689 9.10222V1.29022H16.0929L10.8849 9.24222V10.3902H16.5829V12.8402H17.9689V10.3902H19.7189V9.10222H17.9689ZM16.5829 2.88622V9.10222H12.5649L16.5829 2.88622ZM25.3024 12.8402C27.5704 12.8402 29.4324 11.2162 29.4324 8.05222V5.85422C29.4324 2.71822 27.5704 1.08022 25.3024 1.08022C23.0344 1.08022 21.1864 2.71822 21.1864 5.85422V8.05222C21.1864 11.2162 23.0344 12.8402 25.3024 12.8402ZM25.3024 11.5802C23.7764 11.5802 22.5864 10.4322 22.5864 7.98222V5.93822C22.5864 3.48822 23.7764 2.34022 25.3024 2.34022C26.8284 2.34022 28.0184 3.48822 28.0184 5.93822V7.98222C28.0184 10.4322 26.8284 11.5802 25.3024 11.5802ZM35.4332 12.8402C37.7012 12.8402 39.5632 11.2162 39.5632 8.05222V5.85422C39.5632 2.71822 37.7012 1.08022 35.4332 1.08022C33.1652 1.08022 31.3172 2.71822 31.3172 5.85422V8.05222C31.3172 11.2162 33.1652 12.8402 35.4332 12.8402ZM35.4332 11.5802C33.9072 11.5802 32.7172 10.4322 32.7172 7.98222V5.93822C32.7172 3.48822 33.9072 2.34022 35.4332 2.34022C36.9592 2.34022 38.1492 3.48822 38.1492 5.93822V7.98222C38.1492 10.4322 36.9592 11.5802 35.4332 11.5802ZM42.4841 15.0662L43.0581 11.0202H41.6441L41.3361 15.0662H42.4841ZM49.1051 12.8402C51.3731 12.8402 53.2351 11.2162 53.2351 8.05222V5.85422C53.2351 2.71822 51.3731 1.08022 49.1051 1.08022C46.8371 1.08022 44.9891 2.71822 44.9891 5.85422V8.05222C44.9891 11.2162 46.8371 12.8402 49.1051 12.8402ZM49.1051 11.5802C47.5791 11.5802 46.3891 10.4322 46.3891 7.98222V5.93822C46.3891 3.48822 47.5791 2.34022 49.1051 2.34022C50.6311 2.34022 51.8211 3.48822 51.8211 5.93822V7.98222C51.8211 10.4322 50.6311 11.5802 49.1051 11.5802ZM59.236 12.8402C61.504 12.8402 63.366 11.2162 63.366 8.05222V5.85422C63.366 2.71822 61.504 1.08022 59.236 1.08022C56.968 1.08022 55.12 2.71822 55.12 5.85422V8.05222C55.12 11.2162 56.968 12.8402 59.236 12.8402ZM59.236 11.5802C57.71 11.5802 56.52 10.4322 56.52 7.98222V5.93822C56.52 3.48822 57.71 2.34022 59.236 2.34022C60.762 2.34022 61.952 3.48822 61.952 5.93822V7.98222C61.952 10.4322 60.762 11.5802 59.236 11.5802ZM69.3668 12.8402C71.6348 12.8402 73.4968 11.2162 73.4968 8.05222V5.85422C73.4968 2.71822 71.6348 1.08022 69.3668 1.08022C67.0988 1.08022 65.2508 2.71822 65.2508 5.85422V8.05222C65.2508 11.2162 67.0988 12.8402 69.3668 12.8402ZM69.3668 11.5802C67.8408 11.5802 66.6508 10.4322 66.6508 7.98222V5.93822C66.6508 3.48822 67.8408 2.34022 69.3668 2.34022C70.8928 2.34022 72.0828 3.48822 72.0828 5.93822V7.98222C72.0828 10.4322 70.8928 11.5802 69.3668 11.5802ZM81.0797 9.63422H84.7057V10.7402H86.0917V0.394224H84.7057V8.57022H81.0797V9.63422ZM79.2317 5.61622C81.1917 5.61622 82.7177 4.80422 82.7177 3.23622V3.06822C82.7177 1.48622 81.1917 0.674224 79.2317 0.674224C77.2577 0.674224 75.7317 1.48622 75.7317 3.06822V3.23622C75.7317 4.80422 77.2577 5.61622 79.2317 5.61622ZM77.0617 3.09622C77.0617 2.27022 77.9717 1.82222 79.2317 1.82222C80.4777 1.82222 81.3877 2.27022 81.3877 3.09622V3.20822C81.3877 4.02022 80.4777 4.46822 79.2317 4.46822C77.9717 4.46822 77.0617 4.02022 77.0617 3.20822V3.09622ZM79.5537 9.92822C79.6377 9.18622 79.6937 8.44422 79.7357 7.75822C81.1077 7.68822 82.5357 7.56222 83.7677 7.39422L83.6277 6.24622C81.5697 6.49822 79.0497 6.65222 77.4397 6.65222H75.1017L75.1577 7.82822H77.3277C77.6637 7.82822 78.0137 7.82822 78.3917 7.81422C78.3357 8.45822 78.2797 9.15822 78.2097 9.83022L79.5537 9.92822ZM78.7557 10.3902H77.3697V13.3862H86.6377V12.1122H78.7557V10.3902Z" fill="black"/>
</svg>
