<svg width="89" height="15" viewBox="0 0 89 15" fill="none" xmlns="http://www.w3.org/2000/svg">
<path d="M0.784 9.824C1.274 11.266 2.548 12.568 4.788 12.568C7.098 12.568 8.652 11.266 8.652 9.404C8.652 7.962 7.742 6.912 6.44 6.534C7.56 6.184 8.386 5.232 8.386 3.846C8.386 2.04 6.874 0.891999 4.774 0.891999C2.744 0.891999 1.596 2.166 1.12 3.468L2.03 3.804C2.45 2.782 3.206 1.816 4.774 1.816C6.342 1.816 7.378 2.586 7.378 3.888C7.378 5.176 6.412 6.1 4.578 6.1H3.206V6.996H4.578C6.622 6.996 7.658 8.046 7.658 9.376C7.658 10.72 6.566 11.644 4.788 11.644C3.01 11.644 2.128 10.65 1.708 9.516L0.784 9.824ZM11.3603 14.808L11.8363 11.098H10.8283L10.5343 14.808H11.3603ZM20.3839 9.082V1.102H19.0119L13.5519 9.152V10.006H19.3759V12.568H20.3839V10.006H22.2879V9.082H20.3839ZM19.3759 2.222V9.082H14.7699L19.3759 2.222ZM27.8574 12.568C30.0694 12.568 31.8474 10.93 31.8474 7.85V5.61C31.8474 2.544 30.0694 0.891999 27.8574 0.891999C25.6314 0.891999 23.8534 2.544 23.8534 5.61V7.85C23.8534 10.93 25.6314 12.568 27.8574 12.568ZM27.8574 11.658C26.2194 11.658 24.8754 10.426 24.8754 7.78V5.68C24.8754 3.048 26.2194 1.802 27.8574 1.802C29.4954 1.802 30.8394 3.048 30.8394 5.68V7.78C30.8394 10.426 29.4954 11.658 27.8574 11.658ZM37.8378 12.568C40.0498 12.568 41.8278 10.93 41.8278 7.85V5.61C41.8278 2.544 40.0498 0.891999 37.8378 0.891999C35.6118 0.891999 33.8338 2.544 33.8338 5.61V7.85C33.8338 10.93 35.6118 12.568 37.8378 12.568ZM37.8378 11.658C36.1998 11.658 34.8558 10.426 34.8558 7.78V5.68C34.8558 3.048 36.1998 1.802 37.8378 1.802C39.4758 1.802 40.8198 3.048 40.8198 5.68V7.78C40.8198 10.426 39.4758 11.658 37.8378 11.658ZM44.5283 14.808L45.0043 11.098H43.9963L43.7023 14.808H44.5283ZM51.0039 12.568C53.2159 12.568 54.9939 10.93 54.9939 7.85V5.61C54.9939 2.544 53.2159 0.891999 51.0039 0.891999C48.7779 0.891999 46.9999 2.544 46.9999 5.61V7.85C46.9999 10.93 48.7779 12.568 51.0039 12.568ZM51.0039 11.658C49.3659 11.658 48.0219 10.426 48.0219 7.78V5.68C48.0219 3.048 49.3659 1.802 51.0039 1.802C52.6419 1.802 53.9859 3.048 53.9859 5.68V7.78C53.9859 10.426 52.6419 11.658 51.0039 11.658ZM60.9843 12.568C63.1963 12.568 64.9743 10.93 64.9743 7.85V5.61C64.9743 2.544 63.1963 0.891999 60.9843 0.891999C58.7583 0.891999 56.9803 2.544 56.9803 5.61V7.85C56.9803 10.93 58.7583 12.568 60.9843 12.568ZM60.9843 11.658C59.3463 11.658 58.0023 10.426 58.0023 7.78V5.68C58.0023 3.048 59.3463 1.802 60.9843 1.802C62.6223 1.802 63.9663 3.048 63.9663 5.68V7.78C63.9663 10.426 62.6223 11.658 60.9843 11.658ZM70.9648 12.568C73.1768 12.568 74.9548 10.93 74.9548 7.85V5.61C74.9548 2.544 73.1768 0.891999 70.9648 0.891999C68.7388 0.891999 66.9608 2.544 66.9608 5.61V7.85C66.9608 10.93 68.7388 12.568 70.9648 12.568ZM70.9648 11.658C69.3268 11.658 67.9828 10.426 67.9828 7.78V5.68C67.9828 3.048 69.3268 1.802 70.9648 1.802C72.6028 1.802 73.9468 3.048 73.9468 5.68V7.78C73.9468 10.426 72.6028 11.658 70.9648 11.658ZM82.5273 9.25H86.4613V10.524H87.4553V0.177999H86.4613V8.424H82.5273V9.25ZM80.7773 5.344C82.6533 5.344 84.1513 4.56 84.1513 3.034V2.852C84.1513 1.326 82.6533 0.528 80.7773 0.528C78.9013 0.528 77.4033 1.326 77.4033 2.852V3.034C77.4033 4.56 78.9013 5.344 80.7773 5.344ZM78.3693 2.88C78.3693 1.942 79.3773 1.396 80.7773 1.396C82.1913 1.396 83.1993 1.942 83.1993 2.88V3.006C83.1993 3.944 82.1913 4.49 80.7773 4.49C79.3773 4.49 78.3693 3.944 78.3693 3.006V2.88ZM80.9033 9.712C80.9873 8.942 81.0573 8.144 81.1133 7.388C82.5413 7.318 84.0673 7.192 85.3273 7.01L85.2293 6.17C83.1993 6.422 80.6093 6.576 79.0133 6.576H76.6613L76.7033 7.444H78.9573C79.3213 7.444 79.7133 7.444 80.1193 7.43C80.0773 8.144 80.0073 8.928 79.9233 9.642L80.9033 9.712ZM80.0073 10.258H79.0133V13.1H88.0573V12.176H80.0073V10.258Z" fill="black"/>
</svg>
