<svg width="165" height="50" viewBox="0 0 165 50" fill="none" xmlns="http://www.w3.org/2000/svg">
<path d="M12.496 10.2V4.616H10.896V19.464H12.496V11.656H14.8V10.2H12.496ZM8.096 17.064V5.704H0.88V17.064H8.096ZM6.496 7.176V15.592H2.48V7.176H6.496ZM28.4999 19.464V4.616H26.8999V19.464H28.4999ZM20.2919 17.528C22.4359 17.528 24.2119 16.12 24.2119 12.552V10.296C24.2119 6.728 22.4359 5.32 20.2919 5.32C18.1159 5.32 16.3399 6.728 16.3399 10.296V12.552C16.3399 16.12 18.1159 17.528 20.2919 17.528ZM20.2919 16.072C18.9799 16.072 17.9399 15.112 17.9399 12.536V10.312C17.9399 7.72 18.9799 6.776 20.2919 6.776C21.6039 6.776 22.6279 7.72 22.6279 10.312V12.536C22.6279 15.112 21.6039 16.072 20.2919 16.072ZM42.0878 9.272H37.3198V10.728H42.0878V19.464H43.6718V4.616H42.0878V9.272ZM33.5278 15.592V5.704H31.9118V17.048H34.4878C36.6158 17.048 38.8558 16.84 40.6638 16.52L40.4718 15.112C38.5677 15.416 36.4558 15.592 34.7598 15.592H33.5278ZM58.4916 13.88L59.3556 12.552L53.5636 8.68C53.8516 7.976 53.9796 7.256 53.9796 6.52V5.384H52.3796V6.52C52.3796 8.712 50.7636 10.632 46.8436 12.504L47.5796 13.88C50.1076 12.712 51.8036 11.416 52.8116 10.04L58.4916 13.88ZM46.1236 18.344H60.0756V16.888H46.1236V18.344ZM76.6094 19.464H78.1774V4.616H76.6094V19.464ZM71.4414 8.04C70.9774 6.12 69.8894 5.32 68.5774 5.32C66.8174 5.32 65.4734 6.728 65.4734 10.296V12.552C65.4734 16.12 66.8174 17.528 68.5774 17.528C70.0494 17.528 71.2174 16.536 71.5694 14.104H73.3934V19.16H74.9134V4.84H73.3934V8.04H71.4414ZM70.1614 12.536C70.1614 15.112 69.4894 16.072 68.5774 16.072C67.6654 16.072 66.9934 15.112 66.9934 12.536V10.312C66.9934 7.72 67.6654 6.776 68.5774 6.776C69.4894 6.776 70.1614 7.72 70.1614 10.312V12.536ZM71.6654 12.696V12.552V10.296C71.6654 10.008 71.6494 9.72 71.6334 9.464H73.3934V12.696H71.6654ZM91.9093 10.488C92.1813 8.936 92.3253 7.304 92.3253 6.024V5.08H82.1013V6.536H90.7413C90.7253 7.4 90.5813 8.984 90.3093 10.488H80.3893V11.896H94.3413V10.488H91.9093ZM92.6453 19.48V13.688H82.1013V19.48H92.6453ZM91.0453 15.064V18.072H83.7013V15.064H91.0453ZM106.969 10.2H105.065V4.84H103.561V19.16H105.065V11.656H106.969V19.464H108.521V4.616H106.969V10.2ZM97.7371 15.592V7.176H101.705V5.704H96.1371V17.048H98.1691C99.8011 17.048 101.145 16.968 102.569 16.712L102.409 15.288C100.937 15.512 99.6571 15.592 98.3931 15.592H97.7371ZM112.205 10.696C114.685 10.28 116.349 9.736 117.341 8.984L123.117 10.696L123.581 9.416L118.269 7.864C118.397 7.576 118.477 7.256 118.493 6.904H122.829V5.576H118.541V4.296H117.005V5.576H112.589V6.904H117.005C116.797 7.976 115.213 8.84 111.821 9.384L112.205 10.696ZM124.685 11.256H110.733V12.52H116.925V13.672H112.365V14.904H121.389V15.96H112.445V19.544H123.373V18.296H114.045V17.176H122.989V13.672H118.509V12.52H124.685V11.256Z" fill="black"/>
<path d="M9.864 43.8V32.724H9V43.8H9.864ZM3.828 42.324C5.388 42.324 6.672 41.28 6.672 38.652V36.996C6.672 34.368 5.388 33.324 3.828 33.324C2.268 33.324 0.984 34.368 0.984 36.996V38.652C0.984 41.28 2.268 42.324 3.828 42.324ZM3.828 41.532C2.688 41.532 1.848 40.704 1.848 38.64V36.996C1.848 34.932 2.688 34.116 3.828 34.116C4.968 34.116 5.82 34.932 5.82 36.996V38.64C5.82 40.704 4.968 41.532 3.828 41.532ZM20.6189 37.056V32.724H19.7669V43.8H20.6189V37.848H22.4549V37.056H20.6189ZM15.4589 34.452H17.9669V33.672H12.1349V34.452H14.6189V35.088C14.6189 37.824 13.5269 39.72 11.7029 41.688L12.3269 42.264C13.4549 41.052 14.2829 39.852 14.8109 38.556L17.7509 42.144L18.4109 41.568L15.1349 37.596C15.3509 36.804 15.4589 35.976 15.4589 35.088V34.452ZM25.5658 36.54V33H24.7138V37.332H32.2738V36.54H25.5658ZM33.6298 39.54V38.748H23.2618V39.54H33.6298ZM32.4778 43.8V43.008H25.5658V40.584H24.7138V43.8H32.4778ZM46.2947 37.056V32.724H45.4307V43.8H46.2947V37.848H48.1307V37.056H46.2947ZM41.0867 33.408H40.2467V34.8C40.2467 37.572 39.2507 39.684 37.2947 41.688L37.8947 42.264C39.0707 41.052 39.9107 39.804 40.4267 38.472L43.4147 42.144L44.0507 41.592L40.7387 37.524C40.9667 36.66 41.0867 35.76 41.0867 34.8V33.408ZM56.3056 36.72C57.3976 36.444 58.0336 35.832 58.0336 34.872C58.0336 33.54 56.8216 32.88 54.9016 32.88H53.3536C51.4336 32.88 50.2216 33.54 50.2216 34.872C50.2216 35.832 50.8576 36.444 51.9496 36.72V38.088H48.9376V38.844H59.3056V38.088H56.3056V36.72ZM51.0736 34.872C51.0736 34.068 51.9256 33.636 53.4976 33.636H54.7576C56.3176 33.636 57.1696 34.068 57.1696 34.872C57.1696 35.664 56.3176 36.132 54.7576 36.132H53.4976C51.9256 36.132 51.0736 35.688 51.0736 34.872ZM52.7776 36.84C52.9576 36.876 55.2976 36.876 55.4776 36.84V38.088H52.7776V36.84ZM52.9096 39.972C51.1096 39.972 50.1616 40.812 50.1616 41.94C50.1616 43.08 51.1096 43.92 52.9096 43.92H55.3336C57.1456 43.92 58.0936 43.08 58.0936 41.94C58.0936 40.812 57.1456 39.972 55.3336 39.972H52.9096ZM53.1016 43.152C51.6856 43.152 51.0136 42.672 51.0136 41.94C51.0136 41.208 51.6856 40.74 53.1016 40.74H55.1416C56.5576 40.74 57.2296 41.208 57.2296 41.94C57.2296 42.672 56.5576 43.152 55.1416 43.152H53.1016ZM64.0125 33.972V32.58H63.1605V33.972H60.3765V34.716H66.7965V33.972H64.0125ZM69.0525 32.724H68.2005V41.244H69.0525V36.924H70.9005V36.12H69.0525V32.724ZM66.2805 37.536C66.2805 36.216 65.1045 35.484 63.6045 35.484C62.1045 35.484 60.9165 36.216 60.9165 37.536V37.74C60.9165 39.06 62.1045 39.816 63.6045 39.816C65.1045 39.816 66.2805 39.06 66.2805 37.74V37.536ZM61.7685 37.56C61.7685 36.744 62.5725 36.228 63.6045 36.228C64.6245 36.228 65.4405 36.744 65.4405 37.56V37.728C65.4405 38.544 64.6245 39.06 63.6045 39.06C62.5725 39.06 61.7685 38.544 61.7685 37.728V37.56ZM62.1645 40.812V43.788H69.6885V43.008H63.0285V40.812H62.1645ZM83.3614 32.724H82.4974V41.136H83.3614V36.456H85.1974V35.664H83.3614V32.724ZM74.8774 33.384V38.856H80.0614V33.384H74.8774ZM75.7174 38.088V34.152H79.2214V38.088H75.7174ZM76.4614 40.428V43.8H83.9854V43.008H77.3254V40.428H76.4614ZM94.5243 37.74C94.7643 36.408 94.9203 34.848 94.9203 33.816V33H87.3843V33.744H94.0683V34.008C94.0683 34.272 94.0443 34.644 94.0083 35.088C92.3283 35.268 89.6163 35.376 88.1403 35.376H87.3363L87.3603 36.12H88.0803C89.7483 36.12 92.2923 36.024 93.9363 35.844C93.8643 36.456 93.7803 37.128 93.6723 37.74H85.9923V38.496H96.3603V37.74H94.5243ZM95.0403 43.8V39.852H87.3363V43.8H95.0403ZM94.1763 40.608V43.056H88.1883V40.608H94.1763ZM106.119 32.724H105.255V41.136H106.119V36.456H107.955V35.664H106.119V32.724ZM97.6352 33.384V38.856H102.819V33.384H97.6352ZM98.4752 38.088V34.152H101.979V38.088H98.4752ZM99.2192 40.428V43.8H106.743V43.008H100.083V40.428H99.2192Z" fill="#333333"/>
</svg>
