<svg width="110" height="42" viewBox="0 0 110 42" fill="none" xmlns="http://www.w3.org/2000/svg">
<path d="M8.384 5.32H12.784V3.944H4.064V0.855999H2.464V5.32H6.8V6.584H0.608V7.88H14.56V6.584H8.384V5.32ZM6.8 8.52V9.592H2.08V10.824H13.088V9.592H8.4V8.52H6.8ZM5.712 11.528C3.696 11.528 2.576 12.344 2.576 13.656C2.576 14.888 3.696 15.704 5.712 15.704H9.456C11.472 15.704 12.592 14.888 12.592 13.656C12.592 12.344 11.472 11.528 9.456 11.528H5.712ZM5.696 14.408C4.624 14.408 4.128 14.088 4.128 13.608C4.128 13.112 4.624 12.776 5.696 12.776H9.472C10.544 12.776 11.04 13.112 11.04 13.608C11.04 14.088 10.544 14.408 9.472 14.408H5.696ZM26.8999 15.464H28.4999V0.615999H26.8999V15.464ZM21.4119 4.44H24.8359V2.984H21.4279V0.631999H19.8439V2.984H16.4519V4.44H19.8279V4.472C19.8279 7.48 18.4199 9.864 15.9239 12.36L17.0439 13.448C18.5159 11.976 19.6519 10.488 20.3879 8.92L24.2119 13.288L25.3639 12.216L21.0119 7.272C21.2839 6.376 21.4119 5.448 21.4119 4.472V4.44ZM42.0718 15.464H43.6718V0.615999H42.0718V15.464ZM36.5838 4.44H40.0078V2.984H36.5998V0.631999H35.0158V2.984H31.6238V4.44H34.9998V4.472C34.9998 7.48 33.5918 9.864 31.0958 12.36L32.2158 13.448C33.6878 11.976 34.8238 10.488 35.5598 8.92L39.3837 13.288L40.5358 12.216L36.1838 7.272C36.4558 6.376 36.5838 5.448 36.5838 4.472V4.44ZM58.0116 6.2V0.615999H56.4116V15.464H58.0116V7.656H60.3156V6.2H58.0116ZM53.6116 13.064V1.704H46.3956V13.064H53.6116ZM52.0116 3.176V11.592H47.9956V3.176H52.0116ZM72.6875 15.464H74.2395V0.615999H72.6875V15.464ZM67.1035 5.736V7.192H69.4715V15.16H70.9915V0.839999H69.4715V5.736H67.1035ZM65.5995 1.48H64.0795V3.448C64.0795 6.936 63.1035 9.8 61.0875 12.488L62.3035 13.448C63.3595 12.056 64.1435 10.6 64.6875 9.064L67.2795 13.288L68.5595 12.376L65.2475 7.016C65.4875 5.88 65.5995 4.696 65.5995 3.448V1.48ZM84.6114 9.336C87.2834 9.336 88.9954 7.624 88.9954 5.336C88.9954 3.096 87.2834 1.384 84.6114 1.384H82.2914C79.6194 1.384 77.9074 3.096 77.9074 5.336C77.9074 7.624 79.6194 9.336 82.2914 9.336H84.6114ZM84.3234 2.808C86.2594 2.808 87.4114 3.864 87.4114 5.352C87.4114 6.856 86.2594 7.912 84.3234 7.912H82.5634C80.6434 7.912 79.5074 6.856 79.5074 5.352C79.5074 3.864 80.6434 2.808 82.5634 2.808H84.3234ZM86.8674 10.184H85.3154V12.888H81.6034V10.184H80.0354V12.888H76.4674V14.344H90.4194V12.888H86.8674V10.184ZM11.728 30.024H8.656C8.064 28.12 6.688 27.32 5.072 27.32C2.928 27.32 1.168 28.728 1.168 32.296V34.552C1.168 38.12 2.928 39.528 5.072 39.528C6.864 39.528 8.384 38.536 8.832 36.136H11.728V41.464H13.328V26.616H11.728V30.024ZM7.376 34.536C7.376 37.112 6.368 38.072 5.072 38.072C3.776 38.072 2.768 37.112 2.768 34.536V32.312C2.768 29.72 3.776 28.776 5.072 28.776C6.368 28.776 7.376 29.72 7.376 32.312V34.536ZM8.96 34.68V34.552V32.296C8.96 32.008 8.944 31.736 8.928 31.48H11.728V34.68H8.96ZM28.4999 34.712V26.616H26.8999V29.352H23.6839V30.76H26.8999V34.712H28.4999ZM24.1799 34.44L25.0439 33.192L20.9159 30.312C21.1559 29.608 21.2839 28.856 21.2839 28.056V27.096H19.7319V28.056C19.7319 30.168 18.5479 31.864 15.9239 33.4L16.7719 34.68C18.3399 33.768 19.4759 32.776 20.2279 31.656L24.1799 34.44ZM21.9079 35.496C19.7479 35.496 18.3719 36.776 18.3719 38.552C18.3719 40.344 19.7479 41.624 21.9079 41.624H25.1399C27.3159 41.624 28.6919 40.344 28.6919 38.552C28.6919 36.776 27.3159 35.496 25.1399 35.496H21.9079ZM22.1639 40.184C20.6919 40.184 19.9559 39.496 19.9559 38.552C19.9559 37.608 20.6919 36.92 22.1639 36.92H24.8999C26.3719 36.92 27.0919 37.608 27.0919 38.552C27.0919 39.496 26.3719 40.184 24.8999 40.184H22.1639ZM39.1278 31.544C41.6078 31.544 43.2718 30.824 43.2718 29.096C43.2718 27.4 41.6078 26.696 39.1278 26.696H36.7438C34.2638 26.696 32.5838 27.4 32.5838 29.096C32.5838 30.824 34.2638 31.544 36.7438 31.544H39.1278ZM37.0478 30.28C35.1918 30.28 34.1838 29.912 34.1838 29.112C34.1838 28.328 35.1918 27.976 37.0478 27.976H38.8238C40.6798 27.976 41.6878 28.328 41.6878 29.112C41.6878 29.896 40.6798 30.28 38.8238 30.28H37.0478ZM44.9038 33.912V32.616H30.9518V33.912H44.9038ZM43.5918 41.544V40.232H34.2638V38.936H43.2078V35.144H32.5838V36.408H41.6078V37.672H32.6638V41.544H43.5918ZM61.1655 41.464H62.7655V26.616H61.1655V41.464ZM54.9095 34.104C57.1335 34.104 58.8935 33 58.8935 30.76V30.52C58.8935 28.264 57.1335 27.176 54.9095 27.176C52.6855 27.176 50.9095 28.264 50.9095 30.52V30.76C50.9095 33 52.6855 34.104 54.9095 34.104ZM52.5095 30.536C52.5095 29.224 53.5335 28.568 54.9095 28.568C56.2855 28.568 57.3095 29.224 57.3095 30.536V30.728C57.3095 32.04 56.2855 32.696 54.9095 32.696C53.5335 32.696 52.5095 32.04 52.5095 30.728V30.536ZM59.9175 35.304C57.5975 35.576 54.7015 35.768 52.8775 35.768H50.1895L50.2695 37.208H52.7335C53.1655 37.208 53.6455 37.208 54.1255 37.192C54.0295 38.536 53.8855 39.848 53.6935 41.4L55.2615 41.576C55.4695 39.96 55.6135 38.536 55.7095 37.128C57.2135 37.048 58.7655 36.92 60.0935 36.728L59.9175 35.304ZM70.4014 28.088V26.44H68.7854V28.088H65.2494V29.432H73.9374V28.088H70.4014ZM77.1054 26.616H75.5054V37.88H77.1054V32.408H79.4094V30.952H77.1054V26.616ZM73.2814 33.096C73.2814 31.272 71.6654 30.312 69.6174 30.312C67.5534 30.312 65.9374 31.272 65.9374 33.096V33.336C65.9374 35.144 67.5534 36.136 69.6174 36.136C71.6654 36.136 73.2814 35.144 73.2814 33.336V33.096ZM67.5054 33.128C67.5054 32.216 68.4174 31.656 69.6174 31.656C70.8014 31.656 71.7294 32.216 71.7294 33.128V33.304C71.7294 34.232 70.8014 34.792 69.6174 34.792C68.4174 34.792 67.5054 34.232 67.5054 33.304V33.128ZM67.5854 37.352V41.464H77.8734V40.008H69.1854V37.352H67.5854ZM92.2773 26.616H90.6773V34.712H92.2773V30.936H94.5813V29.48H92.2773V26.616ZM88.3893 33.704L89.2053 32.424L85.1093 29.928C85.3493 29.304 85.4613 28.632 85.4613 27.896V27.048H83.8932V27.896C83.8932 29.8 82.7093 31.336 80.0853 32.728L80.8853 34.024C82.4693 33.192 83.6373 32.296 84.3893 31.256L88.3893 33.704ZM92.4213 37.48V36.088H88.3893V34.488H86.7573V36.088H82.6133V37.48H86.7253C86.5493 38.632 84.7253 39.544 81.8133 40.248L82.2613 41.624C84.4852 41.112 86.1653 40.424 87.2053 39.544L92.6453 41.624L93.1733 40.264L88.1493 38.376C88.2773 38.088 88.3573 37.8 88.3893 37.48H92.4213ZM105.673 31.128V28.264H107.881V26.936H97.1931V28.264H99.4171V31.128H97.1931V32.472H107.881V31.128H105.673ZM104.121 28.264V31.128H100.969V28.264H104.121ZM109.513 33.736H95.5611V35.128H101.737V36.616H97.2731V41.464H107.817V36.616H103.337V35.128H109.513V33.736ZM98.8731 40.136V37.928H106.217V40.136H98.8731Z" fill="black"/>
</svg>
