<svg width="152" height="16" viewBox="0 0 152 16" fill="none" xmlns="http://www.w3.org/2000/svg">
<path d="M11.016 6.54534H9.112V1.18534H7.608V15.5053H9.112V8.00134H11.016V15.8093H12.568V0.961336H11.016V6.54534ZM1.784 11.9373V2.04934H0.184V13.3933H2.28C3.816 13.3933 5.176 13.2973 6.616 13.0413L6.456 11.6333C4.968 11.8573 3.656 11.9373 2.504 11.9373H1.784ZM26.1719 15.8093H27.7399V0.961336H26.1719V15.8093ZM20.6199 6.84934C20.8919 5.76134 21.0359 4.64134 21.0359 3.44134V2.12934H15.4199V3.58534H19.4839V3.76134C19.4839 6.89734 17.9799 10.2253 15.0679 12.8653L16.2199 14.0333C17.9959 12.3373 19.3559 10.4333 20.1559 8.30534H22.9559V15.5053H24.4759V1.18534H22.9559V6.84934H20.6199ZM45.7616 0.961336H44.1616V8.83334H45.7616V5.36134H48.0656V3.90534H45.7616V0.961336ZM34.1456 1.66534V8.09734H41.3616V1.66534H34.1456ZM35.6976 6.68934V3.08934H39.8096V6.68934H35.6976ZM45.9216 11.1693V9.76134H36.0976V11.1693H40.2736C40.2256 12.5293 38.3056 13.7293 35.3136 14.5773L35.8096 15.9693C37.9216 15.3933 39.6016 14.5773 40.6576 13.6013L46.0656 15.9693L46.6736 14.6093L41.5856 12.4173C41.7936 12.0173 41.8896 11.6013 41.9056 11.1693H45.9216ZM52.5015 5.71334V1.28134H50.9015V7.18534H61.2215V5.71334H52.5015ZM62.9975 10.2573V8.78534H49.0455V10.2573H62.9975ZM61.5255 15.8093V14.3213H52.5015V11.5053H50.9015V15.8093H61.5255ZM79.2593 15.8093H80.8593V0.961336H79.2593V15.8093ZM69.2113 10.2253C70.8273 9.32934 72.0273 8.36934 72.7953 7.26534L76.8113 10.0653L77.6593 8.73734L73.5153 5.90534C73.6913 5.39334 73.7873 4.83334 73.8193 4.24134H77.1313V2.81734H73.8193V0.977336H72.2352V2.81734H68.9393V4.24134H72.2352C72.1233 6.08134 70.8113 7.53734 68.4273 8.89734L69.2113 10.2253ZM73.8193 9.68134H72.2193V12.1773C71.7713 12.1933 71.3393 12.1933 70.9713 12.1933H68.2833L68.3633 13.6653H70.8273C73.0033 13.6653 75.9153 13.4733 78.1873 13.1533L78.0113 11.7293C76.6993 11.8893 75.1953 12.0173 73.8193 12.0973V9.68134ZM94.4311 6.38534H91.2151V7.84134H94.4311V15.8093H96.0311V0.961336H94.4311V6.38534ZM88.8951 3.58534H92.2071V2.12934H84.0631V3.58534H87.3271V4.20934C87.3271 7.63334 85.9511 10.1293 83.4711 12.7213L84.6071 13.7933C86.0631 12.2893 87.1511 10.7693 87.8711 9.13734L91.6151 13.6333L92.7991 12.5773L88.4791 7.42534C88.7511 6.41734 88.8951 5.34534 88.8951 4.20934V3.58534ZM110.003 6.83334C110.275 5.28134 110.419 3.64934 110.419 2.36934V1.42534H100.195V2.88134H108.835C108.819 3.74534 108.675 5.32934 108.403 6.83334H98.483V8.24134H112.435V6.83334H110.003ZM110.739 15.8253V10.0333H100.195V15.8253H110.739ZM109.139 11.4093V14.4173H101.795V11.4093H109.139ZM126.375 15.8093V0.961336H124.791V15.8093H126.375ZM117.255 13.6973C119.383 13.6973 121.639 13.5053 123.367 13.1853L123.175 11.7933C121.351 12.0813 119.239 12.2573 117.543 12.2573H116.055V8.49734H121.591V2.04934H114.455V3.48934H119.991V7.08934H114.455V13.6973H117.255ZM132.283 5.71334V1.28134H130.683V7.18534H141.003V5.71334H132.283ZM142.779 10.2573V8.78534H128.827V10.2573H142.779ZM141.307 15.8093V14.3213H132.283V11.5053H130.683V15.8093H141.307ZM145.231 4.84934C145.695 3.63334 146.399 2.81734 147.903 2.81734C149.279 2.81734 150.319 3.63334 150.319 4.89734C150.319 6.06534 149.695 6.70534 148.447 7.37734C147.039 8.09734 146.591 8.70534 146.591 10.0173L146.607 10.9293H148.127V10.1453C148.143 9.44134 148.415 9.07334 149.391 8.54534C150.911 7.74534 151.935 6.73734 151.935 4.89734C151.935 2.68934 149.983 1.34534 147.903 1.34534C145.679 1.34534 144.335 2.64134 143.759 4.33734L145.231 4.84934ZM147.375 15.1853C147.983 15.1853 148.479 14.7053 148.479 14.0973C148.479 13.4893 147.983 12.9933 147.375 12.9933C146.767 12.9933 146.287 13.4893 146.287 14.0973C146.287 14.7053 146.767 15.1853 147.375 15.1853Z" fill="black"/>
</svg>
