<svg width="66" height="16" viewBox="0 0 66 16" fill="none" xmlns="http://www.w3.org/2000/svg">
<path d="M0.602 1.52045V2.79445H6.734L1.302 13.0704H2.884L8.316 2.79445V1.52045H0.602ZM13.9 13.0704C16.168 13.0704 18.03 11.4464 18.03 8.28245V6.08445C18.03 2.94845 16.168 1.31045 13.9 1.31045C11.632 1.31045 9.78403 2.94845 9.78403 6.08445V8.28245C9.78403 11.4464 11.632 13.0704 13.9 13.0704ZM13.9 11.8104C12.374 11.8104 11.184 10.6624 11.184 8.21245V6.16845C11.184 3.71845 12.374 2.57045 13.9 2.57045C15.426 2.57045 16.616 3.71845 16.616 6.16845V8.21245C16.616 10.6624 15.426 11.8104 13.9 11.8104ZM20.9509 15.2964L21.5249 11.2504H20.1109L19.8029 15.2964H20.9509ZM27.5719 13.0704C29.8399 13.0704 31.7019 11.4464 31.7019 8.28245V6.08445C31.7019 2.94845 29.8399 1.31045 27.5719 1.31045C25.3039 1.31045 23.4559 2.94845 23.4559 6.08445V8.28245C23.4559 11.4464 25.3039 13.0704 27.5719 13.0704ZM27.5719 11.8104C26.0459 11.8104 24.8559 10.6624 24.8559 8.21245V6.16845C24.8559 3.71845 26.0459 2.57045 27.5719 2.57045C29.0979 2.57045 30.2879 3.71845 30.2879 6.16845V8.21245C30.2879 10.6624 29.0979 11.8104 27.5719 11.8104ZM37.7028 13.0704C39.9708 13.0704 41.8328 11.4464 41.8328 8.28245V6.08445C41.8328 2.94845 39.9708 1.31045 37.7028 1.31045C35.4348 1.31045 33.5868 2.94845 33.5868 6.08445V8.28245C33.5868 11.4464 35.4348 13.0704 37.7028 13.0704ZM37.7028 11.8104C36.1768 11.8104 34.9868 10.6624 34.9868 8.21245V6.16845C34.9868 3.71845 36.1768 2.57045 37.7028 2.57045C39.2288 2.57045 40.4188 3.71845 40.4188 6.16845V8.21245C40.4188 10.6624 39.2288 11.8104 37.7028 11.8104ZM47.8336 13.0704C50.1016 13.0704 51.9636 11.4464 51.9636 8.28245V6.08445C51.9636 2.94845 50.1016 1.31045 47.8336 1.31045C45.5656 1.31045 43.7176 2.94845 43.7176 6.08445V8.28245C43.7176 11.4464 45.5656 13.0704 47.8336 13.0704ZM47.8336 11.8104C46.3076 11.8104 45.1176 10.6624 45.1176 8.21245V6.16845C45.1176 3.71845 46.3076 2.57045 47.8336 2.57045C49.3596 2.57045 50.5496 3.71845 50.5496 6.16845V8.21245C50.5496 10.6624 49.3596 11.8104 47.8336 11.8104ZM59.5465 9.86445H63.1725V10.9704H64.5585V0.624449H63.1725V8.80045H59.5465V9.86445ZM57.6985 5.84645C59.6585 5.84645 61.1845 5.03445 61.1845 3.46645V3.29845C61.1845 1.71645 59.6585 0.904449 57.6985 0.904449C55.7245 0.904449 54.1985 1.71645 54.1985 3.29845V3.46645C54.1985 5.03445 55.7245 5.84645 57.6985 5.84645ZM55.5285 3.32645C55.5285 2.50045 56.4385 2.05245 57.6985 2.05245C58.9445 2.05245 59.8545 2.50045 59.8545 3.32645V3.43845C59.8545 4.25045 58.9445 4.69845 57.6985 4.69845C56.4385 4.69845 55.5285 4.25045 55.5285 3.43845V3.32645ZM58.0205 10.1584C58.1045 9.41645 58.1605 8.67445 58.2025 7.98845C59.5745 7.91845 61.0025 7.79245 62.2345 7.62445L62.0945 6.47645C60.0365 6.72845 57.5165 6.88245 55.9065 6.88245H53.5685L53.6245 8.05845H55.7945C56.1305 8.05845 56.4805 8.05845 56.8585 8.04445C56.8025 8.68845 56.7465 9.38845 56.6765 10.0604L58.0205 10.1584ZM57.2225 10.6204H55.8365V13.6164H65.1045V12.3424H57.2225V10.6204Z" fill="#333333"/>
</svg>
