<svg width="64" height="34" viewBox="0 0 64 34" fill="none" xmlns="http://www.w3.org/2000/svg">
<path d="M6.44597 23.888C9.21397 23.888 11.278 22.544 11.278 20.016C11.278 18.704 10.462 17.52 8.84597 16.88C10.318 16.304 10.942 15.232 10.942 14.016C10.942 11.616 9.02197 10.352 6.44597 10.352C3.88597 10.352 1.94997 11.616 1.94997 14.016C1.94997 15.232 2.57397 16.304 4.04597 16.88C2.42997 17.52 1.61397 18.704 1.61397 20.016C1.61397 22.544 3.70997 23.888 6.44597 23.888ZM6.44597 16.048C4.89397 16.048 3.99797 15.296 3.99797 14.128C3.99797 12.944 4.89397 12.192 6.44597 12.192C7.99797 12.192 8.90997 12.944 8.90997 14.128C8.90997 15.296 7.99797 16.048 6.44597 16.048ZM6.44597 22.048C4.68597 22.048 3.64597 21.216 3.64597 19.92C3.64597 18.656 4.71797 17.808 6.44597 17.808C8.17397 17.808 9.24597 18.656 9.24597 19.92C9.24597 21.216 8.20597 22.048 6.44597 22.048ZM17.9407 10.352C15.2527 10.352 13.1727 12.064 13.1727 14.752C13.1727 17.456 15.2527 19.2 17.5247 19.2C18.8367 19.2 20.1167 18.656 20.7887 17.6V18.128C20.7887 20.88 19.5407 22.064 18.0047 22.064C16.5967 22.064 15.7807 21.44 15.1247 20.176L13.4447 21.072C14.3247 22.912 15.8287 23.888 18.1007 23.888C20.3887 23.888 22.6607 22.16 22.6607 18.208V14.96C22.6607 11.984 20.6607 10.352 17.9407 10.352ZM17.9247 17.408C16.3727 17.408 15.1887 16.4 15.1887 14.8C15.1887 13.184 16.3727 12.176 17.9247 12.176C19.4607 12.176 20.6287 13.184 20.6287 14.8C20.6287 16.4 19.4607 17.408 17.9247 17.408ZM29.5717 23.888C32.2117 23.888 34.4197 22.048 34.4197 18.352V15.888C34.4197 12.208 32.2117 10.352 29.5717 10.352C26.9157 10.352 24.7077 12.208 24.7077 15.888V18.352C24.7077 22.048 26.9157 23.888 29.5717 23.888ZM29.5717 22.064C27.9557 22.064 26.7717 20.848 26.7717 18.256V15.984C26.7717 13.408 27.9557 12.176 29.5717 12.176C31.1877 12.176 32.3717 13.408 32.3717 15.984V18.256C32.3717 20.848 31.1877 22.064 29.5717 22.064ZM46.9053 12.672H44.2813V14.416H46.9053V17.648H48.9533V9.584H46.9053V12.672ZM44.3933 17.632L45.3853 15.952L41.4333 13.664C41.6093 13.152 41.7053 12.592 41.7373 12.016H44.8253V10.224H36.6813V12.016H39.7533C39.6573 13.664 38.5853 14.944 36.0893 16.208L37.0333 17.872C38.6173 17.104 39.7693 16.256 40.5533 15.28L44.3933 17.632ZM48.9533 24.528V18.464H38.7933V24.528H48.9533ZM46.9053 20.272V22.704H40.8413V20.272H46.9053Z" fill="black"/>
<path d="M57.1901 11L55.5898 12.41L60.7879 17L55.5898 21.59L57.1901 23L63.9998 17L57.1901 11Z" fill="black"/>
</svg>
