<svg width="144" height="46" viewBox="0 0 144 46" fill="none" xmlns="http://www.w3.org/2000/svg">
<path d="M14.058 0.747931H12.258V13.2579H14.058V6.56193H16.65V4.94193H14.058V0.747931ZM9.198 1.71993H1.296V3.35793H7.398C7.272 5.67993 4.95 7.96593 0.918 9.49593L1.692 11.0259C6.354 9.26193 9.198 6.57993 9.198 2.74593V1.71993ZM3.366 12.0339V17.4519H14.922V15.8139H5.148V12.0339H3.366ZM32.0624 13.2579V0.747931H30.2804V3.37593H27.7964V4.79793H30.2804V6.61593H27.7964V8.03793H30.2804V13.2579H32.0624ZM28.2644 8.54193C27.4724 8.64993 26.6444 8.75793 25.8164 8.82993V3.21393H27.7064V1.62993H18.2744V3.21393H19.9664V9.09993H18.0764L18.1664 10.6839H20.6144C23.0804 10.6839 26.0144 10.4859 28.4444 10.0899L28.2644 8.54193ZM24.0884 8.97393C23.2424 9.02793 22.4324 9.06393 21.6944 9.08193V3.21393H24.0884V8.97393ZM22.8104 12.3939H21.0284V17.4519H32.7644V15.8139H22.8104V12.3939ZM48.1947 7.02993V0.747931H46.3947V17.4519H48.1947V8.66793H50.7867V7.02993H48.1947ZM38.8347 0.765931V3.21393H34.8567V4.81593H44.6307V3.21393H40.6527V0.765931H38.8347ZM39.7707 6.30993C37.4487 6.30993 35.6307 7.83993 35.6307 10.2519V11.2239C35.6307 13.6359 37.4487 15.1839 39.7707 15.1839C42.0747 15.1839 43.8747 13.6359 43.8747 11.2239V10.2519C43.8747 7.83993 42.0747 6.30993 39.7707 6.30993ZM42.0747 11.1519C42.0747 12.6639 41.0667 13.5819 39.7707 13.5819C38.4567 13.5819 37.4307 12.6639 37.4307 11.1519V10.3239C37.4307 8.82993 38.4567 7.92993 39.7707 7.92993C41.0667 7.92993 42.0747 8.82993 42.0747 10.3239V11.1519ZM63.9671 4.00593C63.9671 5.73393 63.6251 8.86593 63.1211 11.6019L64.8851 11.8899C65.4071 9.04593 65.7491 5.91393 65.7491 3.50193V2.04393H53.5451V3.68193H63.9671V4.00593ZM59.4131 7.85793H57.6311V14.5539H51.8891V16.2099H67.5851V14.5539H59.4131V7.85793ZM85.8795 17.4519H87.6795V0.747931H85.8795V17.4519ZM83.2695 9.42393L84.2235 7.92993L79.4895 4.90593C79.7595 4.16793 79.9035 3.35793 79.9035 2.49393V1.55793H78.0675V2.49393C78.0675 4.79793 76.8075 6.47193 73.7115 8.09193L74.6115 9.58593C76.4475 8.66793 77.7795 7.64193 78.6615 6.43593L83.2695 9.42393ZM84.4755 10.5219C81.8655 10.8279 78.6075 11.0439 76.5555 11.0439H73.5315L73.6215 12.6639H76.3935C76.8795 12.6639 77.4195 12.6639 77.9595 12.6459C77.8515 14.1579 77.6895 15.6339 77.4735 17.3799L79.2375 17.5779C79.4715 15.7599 79.6335 14.1579 79.7415 12.5739C81.4335 12.4839 83.1795 12.3399 84.6735 12.1239L84.4755 10.5219ZM99.5819 7.76793C102.426 7.76793 104.298 6.52593 104.298 4.32993C104.298 2.16993 102.426 0.927931 99.5819 0.927931H96.9899C94.1639 0.927931 92.2739 2.16993 92.2739 4.32993C92.2739 6.52593 94.1639 7.76793 96.9899 7.76793H99.5819ZM99.2759 2.49393C101.346 2.49393 102.516 3.17793 102.516 4.34793C102.516 5.49993 101.346 6.21993 99.2759 6.21993H97.3139C95.2439 6.21993 94.0739 5.51793 94.0739 4.34793C94.0739 3.17793 95.2439 2.49393 97.3139 2.49393H99.2759ZM90.4379 11.0979H97.4039V14.0499H99.1859V11.0979H106.134V9.44193H90.4379V11.0979ZM92.4539 12.6099V17.4519H104.478V15.7779H94.2539V12.6099H92.4539ZM13.518 35.0299H11.376V28.9999H9.684V45.1099H11.376V36.6679H13.518V45.4519H15.264V28.7479H13.518V35.0299ZM3.132 41.0959V31.6279H7.596V29.9719H1.332V42.7339H3.618C5.454 42.7339 6.966 42.6439 8.568 42.3559L8.388 40.7539C6.732 41.0059 5.292 41.0959 3.87 41.0959H3.132ZM19.4084 35.5879C22.1984 35.1199 24.0704 34.5079 25.1864 33.6619L31.6844 35.5879L32.2064 34.1479L26.2304 32.4019C26.3744 32.0779 26.4644 31.7179 26.4824 31.3219H31.3604V29.8279H26.5364V28.3879H24.8084V29.8279H19.8404V31.3219H24.8084C24.5744 32.5279 22.7924 33.4999 18.9764 34.1119L19.4084 35.5879ZM33.4484 36.2179H17.7524V37.6399H24.7184V38.9359H19.5884V40.3219H29.7404V41.5099H19.6784V45.5419H31.9724V44.1379H21.4784V42.8779H31.5404V38.9359H26.5004V37.6399H33.4484V36.2179ZM40.9968 38.0359C43.7148 37.1179 45.5688 36.0919 46.7028 34.9219L53.0568 38.0359L53.8488 36.4879L47.6928 33.4999C47.9088 32.9959 48.0348 32.4739 48.0528 31.9159H52.9308V30.3319H48.0528V28.4779H46.2528V30.3319H41.2488V31.9159H46.2528C46.1268 33.5719 44.2728 35.0839 40.3128 36.4519L40.9968 38.0359ZM39.2328 39.4579V41.0959H46.1988V45.6319H47.9808V41.0959H54.9288V39.4579H39.2328ZM65.8412 39.4219L66.8312 38.0179L62.1332 34.4899C62.3492 33.8239 62.4752 33.1399 62.4932 32.4019H66.2552V30.7999H62.4932V28.6219H60.7472V30.7999H57.0572V32.4019H60.7472C60.6572 34.7239 59.2172 36.5419 56.4992 38.2699L57.3992 39.6739C59.2172 38.5579 60.5672 37.3699 61.4132 36.0199L65.8412 39.4219ZM65.5532 35.1739H68.8292V41.4379H70.6112V28.7479H68.8292V33.6259H65.5532V35.1739ZM61.3592 40.5559H59.5592V45.4519H71.3132V43.8139H61.3592V40.5559ZM91.1557 28.7479H89.3557V38.0359H91.1557V33.8779H93.7477V32.2399H91.1557V28.7479ZM84.4777 29.4499V31.7179H79.8157V29.4499H78.0877V37.1179H86.2057V29.4499H84.4777ZM79.8157 33.2839H84.4777V35.5519H79.8157V33.2839ZM91.2457 40.6999V39.0799H80.4457V45.4519H91.5877V43.8319H82.2457V40.6999H91.2457ZM108.224 35.0299V28.7479H106.424V45.4519H108.224V36.6679H110.816V35.0299H108.224ZM99.332 29.5399C96.92 29.5399 94.976 31.1239 94.976 35.1379V37.6759C94.976 41.6899 96.92 43.2739 99.332 43.2739C101.708 43.2739 103.652 41.6899 103.652 37.6759V35.1379C103.652 31.1239 101.708 29.5399 99.332 29.5399ZM101.87 37.6579C101.87 40.5559 100.754 41.6359 99.332 41.6359C97.892 41.6359 96.776 40.5559 96.776 37.6579V35.1559C96.776 32.2399 97.892 31.1779 99.332 31.1779C100.754 31.1779 101.87 32.2399 101.87 35.1559V37.6579ZM120.666 38.9899H125.706V29.7739H123.906V32.8339H115.644V29.7739H113.844V38.9899H118.884V42.5539H111.918V44.2099H127.614V42.5539H120.666V38.9899ZM123.906 34.4539V37.3699H115.644V34.4539H123.906ZM141.515 45.4519H143.297V28.7479H141.515V45.4519ZM136.367 31.6999V31.8979C136.367 35.4259 134.063 39.2599 129.743 42.0319L130.823 43.4539C135.467 40.3939 138.167 36.2719 138.167 31.5379V30.0619H130.103V31.6999H136.367Z" fill="black"/>
</svg>
