<svg width="65" height="22" viewBox="0 0 65 22" fill="none" xmlns="http://www.w3.org/2000/svg">
<path d="M15.214 8.364H13.168V1.258H10.506V20.992H13.168V10.916H15.214V21.476H17.942V0.927999H15.214V8.364ZM3.334 15.646V2.336H0.474V18.22H3.774C5.688 18.22 7.382 18.132 9.296 17.758L9.032 15.294C7.118 15.558 5.512 15.646 4.126 15.646H3.334ZM43.0944 13.622L44.6124 11.268L36.7144 6.318C37.0884 5.372 37.2644 4.404 37.2644 3.392V1.874H34.4484V3.392C34.4484 6.098 32.4464 8.65 26.8804 11.18L28.1784 13.622C31.5664 12.148 33.8764 10.476 35.3284 8.672L43.0944 13.622ZM37.1544 12.918H34.3384V17.472H26.0664V20.046H45.4264V17.472H37.1544V12.918ZM61.9317 21.476H64.7477V0.927999H61.9317V21.476ZM50.6017 7.572V2.116H47.8297V18.22H58.3457V2.116H55.5737V7.572H50.6017ZM50.6017 10.102H55.5737V15.69H50.6017V10.102Z" fill="white"/>
</svg>
