<svg width="40" height="22" viewBox="0 0 40 22" fill="none" xmlns="http://www.w3.org/2000/svg">
<path d="M15.214 8.57091H13.168V1.46491H10.506V21.1989H13.168V11.1229H15.214V21.6829H17.942V1.13491H15.214V8.57091ZM3.334 15.8529V5.11691H8.35V2.54291H0.474V18.4269H3.642C5.71 18.4269 7.426 18.3389 9.296 17.9869L9.032 15.5009C7.14 15.7869 5.534 15.8529 4.038 15.8529H3.334ZM22.6553 9.53891C26.0433 9.09891 28.3313 8.48291 29.7613 7.55891L37.7913 9.53891L38.5613 7.29491L31.3893 5.60091C31.5213 5.27091 31.5873 4.91891 31.6313 4.52291H37.5273V2.23491H31.7193V0.716909H29.0133V2.23491H23.0733V4.52291H29.0133C28.5953 5.73291 26.5933 6.67891 22.0173 7.27291L22.6553 9.53891ZM39.9693 10.0889H20.6093V12.2449H28.8813V13.5429H22.7653V15.6109H34.9093V16.5789H22.8753V21.7929H38.2753V19.6589H25.6693V18.6469H37.7253V13.5429H31.6973V12.2449H39.9693V10.0889Z" fill="white"/>
</svg>
