<svg width="99" height="20" viewBox="0 0 99 20" fill="none" xmlns="http://www.w3.org/2000/svg">
<path d="M15.84 7.44703V0.687031H13.28V19.367H15.84V9.76703H18.54V7.44703H15.84ZM10.3 16.407V1.96703H0.92V16.407H10.3ZM7.76 4.30703V14.067H3.48V4.30703H7.76ZM35.8448 19.367V0.687031H33.2848V19.367H35.8448ZM25.3648 16.987C28.1448 16.987 30.4448 15.227 30.4448 10.667V7.80703C30.4448 3.24703 28.1448 1.48703 25.3648 1.48703C22.5648 1.48703 20.2648 3.24703 20.2648 7.80703V10.667C20.2648 15.227 22.5648 16.987 25.3648 16.987ZM25.3648 14.667C23.9848 14.667 22.8248 13.667 22.8248 10.667V7.80703C22.8248 4.80703 23.9848 3.80703 25.3648 3.80703C26.7448 3.80703 27.8848 4.80703 27.8848 7.80703V10.667C27.8848 13.667 26.7448 14.667 25.3648 14.667ZM48.6897 11.867H54.1697V1.84703H40.6697V11.867H46.1297V15.727H38.6097V18.067H56.2097V15.727H48.6897V11.867ZM51.6097 4.14703V9.58703H43.2097V4.14703H51.6097ZM76.5755 19.367H79.0755V0.687031H76.5755V19.367ZM68.0355 3.24703V0.707031H65.4555V3.24703H62.5155V5.52703H70.9755V3.24703H68.0355ZM70.7555 6.88703V9.14703H72.5155V11.947H70.7555V14.207H72.5155V18.927H74.9555V0.987031H72.5155V6.88703H70.7555ZM66.7755 6.94703C64.6355 6.94703 63.1955 8.68703 63.1955 11.387V12.487C63.1955 15.187 64.6355 16.947 66.7755 16.947C68.8955 16.947 70.3155 15.187 70.3155 12.487V11.387C70.3155 8.68703 68.8955 6.94703 66.7755 6.94703ZM67.9755 12.307C67.9755 13.807 67.4955 14.667 66.7555 14.667C66.0155 14.667 65.5355 13.807 65.5355 12.307V11.567C65.5355 10.087 66.0155 9.22703 66.7555 9.22703C67.4955 9.22703 67.9755 10.087 67.9755 11.567V12.307ZM95.6203 4.74703H93.7803V0.887031H91.4603V11.547H93.7803V7.00703H95.6203V11.547H98.0403V0.707031H95.6203V4.74703ZM90.0803 8.54703C88.7003 8.78703 87.3603 8.92703 85.6203 8.92703H84.4603V7.32703H89.3603V5.16703H84.4603V3.66703H89.5203V1.48703H81.9603V11.127H85.1603C87.4803 11.127 89.0003 10.967 90.3603 10.667L90.0803 8.54703ZM95.5003 14.887V19.567H98.0403V12.567H85.0203V14.887H95.5003Z" fill="white"/>
</svg>
