<svg width="67" height="22" viewBox="0 0 67 22" fill="none" xmlns="http://www.w3.org/2000/svg">
<path d="M15.214 8.364H13.168V1.258H10.506V20.992H13.168V10.916H15.214V21.476H17.942V0.927999H15.214V8.364ZM3.334 15.646V2.336H0.474V18.22H3.774C5.688 18.22 7.382 18.132 9.296 17.758L9.032 15.294C7.118 15.558 5.512 15.646 4.126 15.646H3.334ZM37.1544 10.3H43.4024V8.056H31.3464V6.89H42.9844V4.668H31.3464V3.612H42.9844V1.324H28.5304V10.3H34.3384V11.554H26.0664V13.798H45.4264V11.554H37.1544V10.3ZM33.2604 14.942C29.9824 14.942 28.1124 16.328 28.1124 18.308C28.1124 20.332 29.9824 21.696 33.2604 21.696H38.2544C41.5324 21.696 43.4024 20.332 43.4024 18.308C43.4024 16.328 41.5324 14.942 38.2544 14.942H33.2604ZM33.8544 19.43C31.7644 19.43 30.9064 19.034 30.9064 18.308C30.9064 17.582 31.7644 17.164 33.8544 17.164H37.6604C39.7284 17.164 40.5864 17.582 40.5864 18.308C40.5864 19.034 39.7284 19.43 37.6604 19.43H33.8544ZM63.5817 0.949999H60.7877V12.126H63.5817V7.484H66.5517V4.954H63.5817V0.949999ZM57.7957 11.994L59.1817 9.684L53.7917 6.494C54.0117 5.812 54.1437 5.064 54.1657 4.272H58.4117V1.808H47.2577V4.272H51.4377C51.3057 6.538 49.8537 8.386 46.4657 10.168L47.7637 12.434C49.9417 11.334 51.5477 10.146 52.6037 8.76L57.7957 11.994ZM54.5837 13.028C51.6797 13.028 49.6337 14.766 49.6337 17.362C49.6337 19.98 51.6797 21.696 54.5837 21.696H59.0937C62.0197 21.696 64.0437 19.98 64.0437 17.362C64.0437 14.766 62.0197 13.028 59.0937 13.028H54.5837ZM54.9797 19.188C53.3077 19.188 52.4497 18.44 52.4497 17.34C52.4497 16.262 53.3077 15.514 54.9797 15.514H58.6757C60.3697 15.514 61.2277 16.262 61.2277 17.34C61.2277 18.44 60.3697 19.188 58.6757 19.188H54.9797Z" fill="white"/>
</svg>
