<svg width="67" height="22" viewBox="0 0 67 22" fill="none" xmlns="http://www.w3.org/2000/svg">
<path d="M15.214 8.364H13.168V1.258H10.506V20.992H13.168V10.916H15.214V21.476H17.942V0.927999H15.214V8.364ZM3.334 15.646V2.336H0.474V18.22H3.774C5.688 18.22 7.382 18.132 9.296 17.758L9.032 15.294C7.118 15.558 5.512 15.646 4.126 15.646H3.334ZM42.7204 8.364V0.927999H39.9264V21.476H42.7204V10.916H45.6904V8.364H42.7204ZM33.2824 5.02H37.5504V2.446H26.3964V5.02H30.5324V5.614C30.5324 9.992 28.8824 13.358 25.5824 16.9L27.5844 18.726C29.3884 16.856 30.7524 14.92 31.6984 12.874L36.2304 18.528L38.3424 16.702L32.7984 9.772C33.1284 8.43 33.2824 7.066 33.2824 5.614V5.02ZM63.5817 0.927999H60.7657V16.13H63.5817V8.342H66.5517V5.79H63.5817V0.927999ZM57.5317 12.962L59.1377 10.872L53.7257 6.648C54.0557 5.592 54.2317 4.47 54.2317 3.26V1.654H51.4817V3.26C51.4817 6.23 50.1177 8.804 46.4877 11.224L48.0937 13.38C50.0737 12.06 51.5477 10.652 52.5597 9.09L57.5317 12.962ZM50.0737 14.832V21.476H64.5497V18.924H52.8677V14.832H50.0737Z" fill="white"/>
</svg>
