<svg width="56" height="30" viewBox="0 0 56 30" fill="none" xmlns="http://www.w3.org/2000/svg">
<rect width="56" height="30" rx="6" fill="#010101"/>
<path d="M18.6009 13.05H16.9349V8.36H15.6189V20.89H16.9349V14.324H18.6009V21.156H19.9589V8.164H18.6009V13.05ZM10.5229 17.768V9.116H9.12291V19.042H10.9569C12.3009 19.042 13.4909 18.958 14.7509 18.734L14.6109 17.502C13.3089 17.698 12.1609 17.768 11.1529 17.768H10.5229ZM32.2963 13.05V8.164H30.8963V21.156H32.2963V14.324H34.2983V13.05H32.2963ZM26.2763 10.46H29.0903V9.186H22.1463V10.46H24.9183V11.02C24.9183 14.016 23.7563 16.186 21.6423 18.468L22.6363 19.392C23.8683 18.076 24.7923 16.76 25.3943 15.346L28.5583 19.252L29.6083 18.342L25.9263 13.82C26.1643 12.924 26.2763 12 26.2763 11.02V10.46ZM45.5717 8.164H44.1717V17.894H45.5717V12.686H47.5877V11.426H45.5717V8.164ZM42.0857 15.724L42.8837 14.674L39.2437 11.832C39.4817 11.16 39.5937 10.432 39.5937 9.662V8.654H38.2357V9.662C38.2357 11.734 37.1857 13.386 34.9037 14.912L35.6877 15.99C37.0317 15.094 38.0257 14.128 38.6837 13.064L42.0857 15.724ZM37.2417 17.082V21.156H46.2437V19.882H38.6417V17.082H37.2417Z" fill="white"/>
</svg>
