<svg width="166" height="67" viewBox="0 0 166 67" fill="none" xmlns="http://www.w3.org/2000/svg">
<path d="M10.91 25.54C16.25 25.54 20.93 22.36 20.93 15.67V12.19H11.06V15.55H17.09V16.18C17.09 18.91 15.38 21.94 10.91 21.94C7.31 21.94 4.34 19.54 4.34 14.8V10.9C4.34 6.16 7.31 3.76 10.91 3.76C14.33 3.76 16.22 5.38 17.15 8.83L20.81 7.75C19.58 2.89 16.04 0.159999 10.91 0.159999C5.24 0.159999 0.47 4 0.47 10.69V15.01C0.47 21.7 5.27 25.54 10.91 25.54ZM34.2317 25.54C39.9017 25.54 44.7317 21.7 44.7317 15.01V10.69C44.7317 4 39.9017 0.159999 34.2317 0.159999C28.5617 0.159999 23.7317 4 23.7317 10.69V15.01C23.7317 21.7 28.5617 25.54 34.2317 25.54ZM34.2317 21.94C30.6317 21.94 27.6017 19.54 27.6017 14.8V10.9C27.6017 6.16 30.6317 3.76 34.2317 3.76C37.8017 3.76 40.8617 6.16 40.8617 10.9V14.8C40.8617 19.54 37.8317 21.94 34.2317 21.94ZM58.1673 25.54C63.8373 25.54 68.6673 21.7 68.6673 15.01V10.69C68.6673 4 63.8373 0.159999 58.1673 0.159999C52.4973 0.159999 47.6673 4 47.6673 10.69V15.01C47.6673 21.7 52.4973 25.54 58.1673 25.54ZM58.1673 21.94C54.5673 21.94 51.5373 19.54 51.5373 14.8V10.9C51.5373 6.16 54.5673 3.76 58.1673 3.76C61.7373 3.76 64.7973 6.16 64.7973 10.9V14.8C64.7973 19.54 61.7673 21.94 58.1673 21.94ZM81.2028 0.609998H72.3528V25.09H81.2028C87.5028 25.09 92.1528 21.19 92.1528 14.41V11.26C92.1528 4.54 87.5028 0.609998 81.2028 0.609998ZM88.2828 14.26C88.2828 19.18 85.3428 21.55 81.2028 21.55H76.2228V4.12H81.2028C85.3428 4.12 88.2828 6.55 88.2828 11.41V14.26ZM112.14 0.609998H103.29V25.09H112.14C118.44 25.09 123.09 21.19 123.09 14.41V11.26C123.09 4.54 118.44 0.609998 112.14 0.609998ZM119.22 14.26C119.22 19.18 116.28 21.55 112.14 21.55H107.16V4.12H112.14C116.28 4.12 119.22 6.55 119.22 11.41V14.26ZM146.638 25.09L137.818 0.609998H133.018L124.228 25.09H128.188L130.768 17.86H140.098L142.678 25.09H146.638ZM135.448 4.69L138.868 14.38H131.998L135.448 4.69ZM160.769 0.609998L154.409 12.01L148.049 0.609998H143.729L152.489 15.7V25.09H156.359V15.58L165.089 0.609998H160.769ZM22.76 48.86V38.72H18.92V66.74H22.76V52.34H26.81V48.86H22.76ZM14.45 62.3V40.64H0.38V62.3H14.45ZM10.64 44.15V58.79H4.22V44.15H10.64ZM52.7673 66.74V38.72H48.9273V66.74H52.7673ZM37.0473 63.17C41.2173 63.17 44.6673 60.53 44.6673 53.69V49.4C44.6673 42.56 41.2173 39.92 37.0473 39.92C32.8473 39.92 29.3973 42.56 29.3973 49.4V53.69C29.3973 60.53 32.8473 63.17 37.0473 63.17ZM37.0473 59.69C34.9773 59.69 33.2373 58.19 33.2373 53.69V49.4C33.2373 44.9 34.9773 43.4 37.0473 43.4C39.1173 43.4 40.8273 44.9 40.8273 49.4V53.69C40.8273 58.19 39.1173 59.69 37.0473 59.69ZM72.0345 55.49H80.2545V40.46H60.0045V55.49H68.1945V61.28H56.9145V64.79H83.3145V61.28H72.0345V55.49ZM76.4145 43.91V52.07H63.8145V43.91H76.4145ZM109.662 53.84V38.72H105.822V53.84H109.662ZM92.4118 53.06C96.3118 53.06 100.152 52.7 103.572 52.1L103.122 48.71C99.5218 49.25 96.0718 49.58 93.0418 49.58H90.9118V39.92H87.0418V53.06H92.4118ZM109.662 66.74V55.37H90.6418V66.74H109.662ZM94.4818 58.76H105.822V63.32H94.4818V58.76Z" fill="black"/>
</svg>
