<svg width="130" height="78" viewBox="0 0 130 78" fill="none" xmlns="http://www.w3.org/2000/svg">
<path d="M9.372 10.9V6.712H8.172V17.848H9.372V11.992H11.1V10.9H9.372ZM6.072 16.048V7.528H0.66V16.048H6.072ZM4.872 8.632V14.944H1.86V8.632H4.872ZM21.3749 17.848V6.712H20.1749V17.848H21.3749ZM15.2189 16.396C16.8269 16.396 18.1589 15.34 18.1589 12.664V10.972C18.1589 8.296 16.8269 7.24 15.2189 7.24C13.5869 7.24 12.2549 8.296 12.2549 10.972V12.664C12.2549 15.34 13.5869 16.396 15.2189 16.396ZM15.2189 15.304C14.2349 15.304 13.4549 14.584 13.4549 12.652V10.984C13.4549 9.04 14.2349 8.332 15.2189 8.332C16.2029 8.332 16.9709 9.04 16.9709 10.984V12.652C16.9709 14.584 16.2029 15.304 15.2189 15.304ZM29.0458 13.312H32.4058V7.456H24.4978V13.312H27.8578V15.916H23.2138V17.02H33.6778V15.916H29.0458V13.312ZM31.2058 8.548V12.232H25.6978V8.548H31.2058ZM47.0741 17.848V6.712H45.8741V17.848H47.0741ZM40.9181 16.396C42.5261 16.396 43.8581 15.34 43.8581 12.664V10.972C43.8581 8.296 42.5261 7.24 40.9181 7.24C39.2861 7.24 37.9541 8.296 37.9541 10.972V12.664C37.9541 15.34 39.2861 16.396 40.9181 16.396ZM40.9181 15.304C39.9341 15.304 39.1541 14.584 39.1541 12.652V10.984C39.1541 9.04 39.9341 8.332 40.9181 8.332C41.9021 8.332 42.6701 9.04 42.6701 10.984V12.652C42.6701 14.584 41.9021 15.304 40.9181 15.304ZM57.505 6.712V15.052H58.633V6.712H57.505ZM55.153 10.456V14.704H56.257V6.82H55.153V9.4H53.773V7.24H52.693V9.076H50.293V7.24H49.237V13.048H53.773V10.456H55.153ZM50.293 10.12H52.693V11.992H50.293V10.12ZM52.297 14.416H51.097V17.848H59.101V16.756H52.297V14.416ZM62.7759 12.88V11.212H69.4839V10.156H62.7759V8.548H69.4839V7.456H61.5759V13.948H69.7119V12.88H62.7759ZM60.2919 17.02H70.7559V15.916H60.2919V17.02Z" fill="#6732F9"/>
<path d="M12.672 36.992V31.584H10.624V46.528H12.672V38.848H14.832V36.992H12.672ZM8.24 44.16V32.608H0.736V44.16H8.24ZM6.208 34.48V42.288H2.784V34.48H6.208ZM28.6759 46.528V31.584H26.6279V46.528H28.6759ZM20.2919 44.624C22.5159 44.624 24.3559 43.216 24.3559 39.568V37.28C24.3559 33.632 22.5159 32.224 20.2919 32.224C18.0519 32.224 16.2119 33.632 16.2119 37.28V39.568C16.2119 43.216 18.0519 44.624 20.2919 44.624ZM20.2919 42.768C19.1879 42.768 18.2599 41.968 18.2599 39.568V37.28C18.2599 34.88 19.1879 34.08 20.2919 34.08C21.3959 34.08 22.3079 34.88 22.3079 37.28V39.568C22.3079 41.968 21.3959 42.768 20.2919 42.768ZM38.9518 40.528H43.3358V32.512H32.5358V40.528H36.9038V43.616H30.8878V45.488H44.9678V43.616H38.9518V40.528ZM41.2878 34.352V38.704H34.5677V34.352H41.2878ZM57.3556 34.368H55.8836V31.744H54.0116V39.344H55.8836V36.16H57.3556V39.344H59.2916V31.584H57.3556V34.368ZM52.8116 35.376C52.8116 33.008 51.4356 31.824 49.5636 31.824C47.6596 31.824 46.2676 33.008 46.2676 35.376V35.568C46.2676 37.904 47.6596 39.088 49.5636 39.088C51.4356 39.088 52.8116 37.904 52.8116 35.568V35.376ZM48.1556 35.376C48.1556 34.24 48.7636 33.616 49.5636 33.616C50.3316 33.616 50.9396 34.24 50.9396 35.376V35.552C50.9396 36.672 50.3316 37.296 49.5636 37.296C48.7636 37.296 48.1556 36.672 48.1556 35.552V35.376ZM51.0676 41.472V40H49.0196V46.528H59.2916V40H57.2436V41.472H51.0676ZM51.0676 43.248H57.2436V44.72H51.0676V43.248ZM66.6883 37.696C69.1523 37.376 70.8163 36.928 71.8563 36.256L77.6963 37.696L78.2563 36.064L73.0403 34.832C73.1363 34.592 73.1843 34.336 73.2163 34.048H77.5043V32.384H73.2803V31.28H71.3123V32.384H66.9923V34.048H71.3123C71.0083 34.928 69.5523 35.616 66.2243 36.048L66.6883 37.696ZM79.2803 38.096H65.2003V39.664H71.2163V40.608H66.7682V42.112H75.6003V42.816H66.8483V46.608H78.0483V45.056H68.8802V44.32H77.6483V40.608H73.2643V39.664H79.2803V38.096ZM91.2841 34.256H88.3561V36.064H91.2841V39.968H93.3321V31.6H91.2841V34.256ZM88.5961 39.696L89.7161 38.112L85.7961 35.328C86.0361 34.624 86.1481 33.856 86.1481 33.04V32.032H84.1481V33.04C84.1481 34.992 83.1721 36.72 80.5001 38.32L81.6201 39.936C83.0761 39.056 84.1641 38.112 84.9161 37.056L88.5961 39.696ZM91.2841 42.624V46.688H93.3321V40.784H83.0121V42.624H91.2841ZM107.656 36.992V31.584H105.624V46.528H107.656V38.848H109.832V36.992H107.656ZM98.904 31.6V33.632H95.544V35.456H104.328V33.632H100.968V31.6H98.904ZM99.944 36.592C97.848 36.592 96.184 37.984 96.184 40.144V41.024C96.184 43.184 97.848 44.592 99.944 44.592C102.056 44.592 103.688 43.184 103.688 41.024V40.144C103.688 37.984 102.056 36.592 99.944 36.592ZM101.656 40.944C101.656 42.096 100.904 42.768 99.944 42.768C98.984 42.768 98.232 42.096 98.232 40.944V40.224C98.232 39.072 98.984 38.416 99.944 38.416C100.904 38.416 101.656 39.072 101.656 40.224V40.944ZM121.18 34.624C121.18 36.112 120.908 38.816 120.508 41.168L122.524 41.488C122.956 38.976 123.244 36.224 123.244 34.016V32.672H112.124V34.544H121.18V34.624ZM117.612 37.984H115.564V43.616H110.716V45.488H124.796V43.616H117.612V37.984ZM12.912 66.96L14.032 65.264L8.288 61.568C8.56 60.864 8.688 60.144 8.688 59.392V58.272H6.64V59.392C6.64 61.408 5.184 63.312 1.136 65.2L2.08 66.96C4.544 65.856 6.224 64.624 7.28 63.296L12.912 66.96ZM0.544 71.488H14.624V69.616H0.544V71.488ZM27.8439 62.992V57.584H25.7959V72.528H27.8439V64.848H30.0039V62.992H27.8439ZM17.9559 68.624V65.344H23.1399V63.552H17.9559V60.448H23.2839V58.608H15.9079V70.464H18.9479C21.0119 70.464 22.9959 70.288 24.6599 69.968L24.4199 68.208C22.6919 68.48 20.8999 68.624 19.2999 68.624H17.9559ZM41.7998 60.832H39.1918V58.144H37.2398V60.048H33.4958V58.144H31.5438V65.392H39.1918V62.64H41.7998V66.048H43.8478V57.6H41.7998V60.832ZM33.4958 61.84H37.2398V63.616H33.4958V61.84ZM41.7998 68.704V72.688H43.8478V66.864H33.5438V68.704H41.7998ZM58.4276 66.96L59.5476 65.264L53.8036 61.568C54.0756 60.864 54.2036 60.144 54.2036 59.392V58.272H52.1556V59.392C52.1556 61.408 50.6996 63.312 46.6516 65.2L47.5956 66.96C50.0596 65.856 51.7396 64.624 52.7956 63.296L58.4276 66.96ZM46.0596 71.488H60.1396V69.616H46.0596V71.488ZM76.1123 63.296H73.2483C73.5363 62.304 73.6962 61.248 73.6962 60.16V58.688H66.0643V60.56H71.6323C71.6323 61.376 71.4883 62.208 71.2003 63.056C69.6803 63.2 67.4083 63.296 66.0163 63.296H65.7443L65.8563 65.152H66.1923C67.4243 65.136 68.9603 65.056 70.2723 64.944C69.2963 66.528 67.7443 68.064 65.6323 69.344L66.8483 70.976C69.4243 69.36 71.3443 67.408 72.4963 65.168H76.1123V72.528H78.1603V57.584H76.1123V63.296ZM91.2841 72.528H93.3321V57.584H91.2841V72.528ZM88.3721 60.48H89.7801V58.608H80.8201V60.48H82.2441V68.288H80.5961L80.7081 70.16H82.9801C85.2201 70.16 87.9881 69.968 90.3721 69.6L90.1321 67.76C89.5561 67.84 88.9641 67.92 88.3721 67.984V60.48ZM86.3721 68.16C85.6201 68.224 84.9001 68.256 84.2281 68.272V60.48H86.3721V68.16ZM111.641 57.584H109.593V65.888H111.641V62.352H113.801V60.496H111.641V57.584ZM105.257 58.144V59.936H101.673V58.144H99.7048V65.168H107.209V58.144H105.257ZM101.673 61.712H105.257V63.376H101.673V61.712ZM111.673 68.528V66.704H101.801V72.528H111.945V70.704H103.833V68.528H111.673ZM125.597 72.528H127.645V57.584H125.597V72.528ZM120.957 60.56C120.957 63.392 119.181 66.736 115.229 69.216L116.477 70.832C120.701 68.096 123.037 64.416 123.037 60.16V58.688H115.661V60.56H120.957Z" fill="black"/>
</svg>
