<svg width="130" height="75" viewBox="0 0 130 75" fill="none" xmlns="http://www.w3.org/2000/svg">
<path d="M9.372 8.9V4.712H8.172V15.848H9.372V9.992H11.1V8.9H9.372ZM6.072 14.048V5.528H0.66V14.048H6.072ZM4.872 6.632V12.944H1.86V6.632H4.872ZM21.3749 15.848V4.712H20.1749V15.848H21.3749ZM15.2189 14.396C16.8269 14.396 18.1589 13.34 18.1589 10.664V8.972C18.1589 6.296 16.8269 5.24 15.2189 5.24C13.5869 5.24 12.2549 6.296 12.2549 8.972V10.664C12.2549 13.34 13.5869 14.396 15.2189 14.396ZM15.2189 13.304C14.2349 13.304 13.4549 12.584 13.4549 10.652V8.984C13.4549 7.04 14.2349 6.332 15.2189 6.332C16.2029 6.332 16.9709 7.04 16.9709 8.984V10.652C16.9709 12.584 16.2029 13.304 15.2189 13.304ZM29.0458 11.312H32.4058V5.456H24.4978V11.312H27.8578V13.916H23.2138V15.02H33.6778V13.916H29.0458V11.312ZM31.2058 6.548V10.232H25.6978V6.548H31.2058ZM46.0781 15.848H47.2421V4.712H46.0781V15.848ZM40.6781 6.344V4.724H39.4781V6.344H37.5461V7.424H42.6101V6.344H40.6781ZM42.4181 8.564V9.62H43.6661V11.588H42.4181V12.644H43.6661V15.62H44.8061V4.88H43.6661V8.564H42.4181ZM40.0901 8.42C38.8421 8.42 37.9901 9.44 37.9901 11.048V11.696C37.9901 13.304 38.8421 14.336 40.0901 14.336C41.3381 14.336 42.1781 13.304 42.1781 11.696V11.048C42.1781 9.44 41.3381 8.42 40.0901 8.42ZM41.0621 11.624C41.0621 12.644 40.6661 13.268 40.0901 13.268C39.5021 13.268 39.0941 12.644 39.0941 11.624V11.132C39.0941 10.112 39.5021 9.5 40.0901 9.5C40.6661 9.5 41.0621 10.112 41.0621 11.132V11.624ZM57.493 7.28H56.101V4.832H54.997V11.192H56.101V8.348H57.493V11.192H58.633V4.712H57.493V7.28ZM54.121 9.584C53.137 9.74 52.249 9.824 51.121 9.824H50.389V8.528H53.521V7.496H50.389V6.284H53.629V5.24H49.225V10.868H50.905C52.357 10.868 53.305 10.772 54.253 10.592L54.121 9.584ZM57.433 12.992V15.968H58.633V11.888H51.085V12.992H57.433Z" fill="#6732F9"/>
<path d="M9.2 37.912L10.24 36.28L6.144 33.528C6.288 33.064 6.368 32.568 6.4 32.056H9.744V30.232H6.432V28.504H4.448V30.232H1.168V32.056H4.4C4.24 33.8 3.056 35.224 0.656 36.6L1.632 38.232C3.264 37.336 4.48 36.344 5.28 35.224L9.2 37.912ZM11.456 28.584V39.784H13.504V28.584H11.456ZM5.408 39.016H3.36V43.528H14.048V41.672H5.408V39.016ZM27.5559 36.312C27.8599 34.328 28.0359 32.264 28.0359 30.568V29.336H17.2359V31.208H25.9879C25.9879 32.36 25.7959 34.392 25.5079 36.312H15.7159V38.168H21.7319V43.704H23.7799V38.168H29.7959V36.312H27.5559ZM36.4885 38.264C38.8085 37.368 40.4565 36.36 41.5125 35.256L47.1925 38.264L48.1845 36.488L42.6485 33.592C42.8245 33.144 42.9365 32.696 42.9685 32.232H47.3045V30.392H42.9685V28.728H40.9365V30.392H36.5045V32.232H40.9205C40.7445 33.56 39.1445 35.032 35.6085 36.44L36.4885 38.264ZM42.9205 37.768H40.8725V40.616H34.8565V42.472H48.9365V40.616H42.9205V37.768ZM61.2764 33.992H59.7884V28.824H57.8524V43.176H59.7884V35.848H61.2764V43.528H63.2604V28.584H61.2764V33.992ZM52.6364 39.288V31.48H56.2844V29.608H50.5564V41.16H52.8604C54.3644 41.16 55.6124 41.096 56.9724 40.84L56.7804 39.032C55.4044 39.24 54.2364 39.288 53.1484 39.288H52.6364ZM76.4323 33.992H74.9443V28.824H73.0243V43.176H74.9443V35.848H76.4323V43.528H78.4323V28.584H76.4323V33.992ZM67.6803 28.6V30.632H65.1842V32.456H72.2243V30.632H69.7443V28.6H67.6803ZM68.7203 33.592C66.9603 33.592 65.7443 34.984 65.7443 37.144V38.024C65.7443 40.184 66.9603 41.592 68.7203 41.592C70.4643 41.592 71.6803 40.184 71.6803 38.024V37.144C71.6803 34.984 70.4643 33.592 68.7203 33.592ZM69.8083 37.88C69.8083 39.08 69.3602 39.768 68.7203 39.768C68.0643 39.768 67.6163 39.08 67.6163 37.88V37.288C67.6163 36.104 68.0643 35.416 68.7203 35.416C69.3602 35.416 69.8083 36.104 69.8083 37.288V37.88ZM91.2841 33.512H88.0361V35.384H91.2841V43.528H93.3321V28.584H91.2841V33.512ZM86.1001 29.416H84.1001V31.464C84.1001 34.84 82.9801 37.496 80.3401 40.184L81.7801 41.528C83.1561 40.136 84.1961 38.696 84.9001 37.16L88.3561 41.384L89.8761 40.088L85.6841 34.936C85.9561 33.832 86.1001 32.68 86.1001 31.464V29.416ZM12.672 59.992V54.584H10.624V69.528H12.672V61.848H14.832V59.992H12.672ZM8.24 67.16V55.608H0.736V67.16H8.24ZM6.208 57.48V65.288H2.784V57.48H6.208ZM28.6759 69.528V54.584H26.6279V69.528H28.6759ZM20.2919 67.624C22.5159 67.624 24.3559 66.216 24.3559 62.568V60.28C24.3559 56.632 22.5159 55.224 20.2919 55.224C18.0519 55.224 16.2119 56.632 16.2119 60.28V62.568C16.2119 66.216 18.0519 67.624 20.2919 67.624ZM20.2919 65.768C19.1879 65.768 18.2599 64.968 18.2599 62.568V60.28C18.2599 57.88 19.1879 57.08 20.2919 57.08C21.3959 57.08 22.3079 57.88 22.3079 60.28V62.568C22.3079 64.968 21.3959 65.768 20.2919 65.768ZM38.9518 63.528H43.3358V55.512H32.5358V63.528H36.9038V66.616H30.8878V68.488H44.9678V66.616H38.9518V63.528ZM41.2878 57.352V61.704H34.5677V57.352H41.2878ZM58.0924 63.848H62.7164V62.008H60.4764V57.352H62.7164V55.512H51.4364V57.352H53.6764V62.008H51.4364V63.848H56.0444V66.616H50.0284V68.488H64.1084V66.616H58.0924V63.848ZM58.4924 57.352V62.008H55.6604V57.352H58.4924ZM78.1603 65.64V54.584H76.1123V65.64H78.1603ZM69.8243 63.4C72.0963 63.4 73.9203 62.088 73.9203 59.288V59.048C73.9203 56.216 72.0963 54.904 69.8243 54.904C67.5363 54.904 65.6963 56.216 65.6963 59.048V59.288C65.6963 62.088 67.5363 63.4 69.8243 63.4ZM69.8243 61.608C68.6723 61.608 67.7443 60.872 67.7443 59.272V59.048C67.7443 57.448 68.6723 56.696 69.8243 56.696C70.9443 56.696 71.8883 57.448 71.8883 59.048V59.272C71.8883 60.872 70.9443 61.608 69.8243 61.608ZM78.7203 69.528V67.672H70.0643V64.632H68.0163V69.528H78.7203ZM84.0521 62.584V60.824H92.8201V59.032H84.0521V57.352H92.8201V55.512H82.0201V64.392H93.1401V62.584H84.0521ZM80.3721 68.488H94.4521V66.616H80.3721V68.488ZM111.641 54.584H109.593V62.888H111.641V59.352H113.801V57.496H111.641V54.584ZM105.257 55.144V56.936H101.673V55.144H99.7048V62.168H107.209V55.144H105.257ZM101.673 58.712H105.257V60.376H101.673V58.712ZM111.673 65.528V63.704H101.801V69.528H111.945V67.704H103.833V65.528H111.673ZM125.597 69.528H127.645V54.584H125.597V69.528ZM120.957 57.56C120.957 60.392 119.181 63.736 115.229 66.216L116.477 67.832C120.701 65.096 123.037 61.416 123.037 57.16V55.688H115.661V57.56H120.957Z" fill="black"/>
</svg>
