<svg width="320" height="162" viewBox="0 0 320 162" fill="none" xmlns="http://www.w3.org/2000/svg">
<path d="M3.03 21.53C6.03 20.3 8.31 18.92 9.84 17.21L17.37 21.26L19.17 17.87L11.7 14.09C11.91 13.43 12.06 12.74 12.12 12.02H18.18V8.66H12.15V5.75H8.37V8.66H2.37V12.02H8.25C7.83 14.42 5.61 16.43 1.35 18.2L3.03 21.53ZM21.48 33.74H25.32V5.75H21.48V33.74ZM19.44 22.31C15.06 22.85 9.75 23.18 6.33 23.18H1.29L1.47 26.66H5.97C6.72 26.66 7.53 26.66 8.34 26.63C8.19 28.79 7.95 30.89 7.65 33.47L11.43 33.92C11.76 31.16 12 28.79 12.15 26.45C14.79 26.3 17.49 26.06 19.89 25.76L19.44 22.31ZM39.6373 7.88V5.42H35.7673V7.88H29.4673V10.97H45.9373V7.88H39.6373ZM56.2573 9.32H52.1773V5.72H48.3673V21.95H52.1773V18.44H56.2573V15.17H52.1773V12.59H56.2573V9.32ZM44.7673 16.82C44.7673 13.64 41.6773 12.05 37.7173 12.05C33.7873 12.05 30.6373 13.64 30.6373 16.82V17.18C30.6373 20.36 33.7873 21.92 37.7173 21.92C41.6773 21.92 44.7673 20.36 44.7673 17.18V16.82ZM34.3873 16.88C34.3873 15.8 35.8573 15.11 37.7173 15.11C39.6073 15.11 41.0473 15.8 41.0473 16.88V17.12C41.0473 18.23 39.6073 18.86 37.7173 18.86C35.8573 18.86 34.3873 18.23 34.3873 17.12V16.88ZM39.9373 23.18C35.9473 23.18 33.1573 25.25 33.1573 28.64C33.1573 32.03 35.9473 34.04 39.9373 34.04H46.0573C50.0473 34.04 52.8073 32.03 52.8073 28.64C52.8073 25.25 50.0473 23.18 46.0573 23.18H39.9373ZM40.4473 30.62C38.1973 30.62 36.9973 29.84 36.9973 28.61C36.9973 27.35 38.1973 26.57 40.4473 26.57H45.5173C47.7973 26.57 48.9673 27.35 48.9673 28.61C48.9673 29.84 47.7973 30.62 45.5173 30.62H40.4473ZM78.3745 15.56H72.8845V19.04H78.3745V33.74H82.2145V5.72H78.3745V15.56ZM68.8345 11.3H74.7745V7.79H59.2045V11.3H65.0545V12.08C65.0545 18.05 62.7445 22.64 58.0945 27.47L60.8245 29.99C63.3445 27.41 65.2945 24.74 66.6445 21.92L73.0045 29.72L75.8845 27.23L68.1145 17.84C68.5945 15.98 68.8345 14.09 68.8345 12.08V11.3ZM106.822 9.8H101.812C101.842 9.47 101.842 9.14 101.842 8.81V7.07H88.2218V10.55H97.9118C97.3718 13.49 93.8918 16.37 87.4118 18.32L88.9118 21.68C95.1818 19.79 99.4718 17.03 101.122 12.86H106.822V15.35H101.212V18.41H106.822V21.44H110.662V5.75H106.822V9.8ZM106.822 26.42V34.04H110.662V22.97H91.3418V26.42H106.822ZM23.73 55.86V45.72H19.92V73.74H23.73V59.34H27.78V55.86H23.73ZM10.86 51.3H16.68V47.79H1.47V51.3H7.11V52.11C7.11 58.08 4.86 62.67 0.36 67.5L3.09 69.99C5.55 67.44 7.41 64.8 8.7 62.01L14.88 69.72L17.76 67.23L10.2 57.78C10.65 55.95 10.86 54.09 10.86 52.11V51.3ZM52.1773 45.72H48.3373V66.45H52.1773V55.83H56.2273V52.35H52.1773V45.72ZM43.9273 62.13L46.1173 59.28L38.7373 53.52C39.1873 52.08 39.4273 50.55 39.4273 48.9V46.71H35.6773V48.9C35.6773 52.95 33.8173 56.46 28.8673 59.76L31.0573 62.7C33.7573 60.9 35.7673 58.98 37.1473 56.85L43.9273 62.13ZM33.7573 64.68V73.74H53.4973V70.26H37.5673V64.68H33.7573ZM77.1145 46.11V49.2H65.1145V46.11H61.2745V58.29H80.9845V46.11H77.1145ZM65.1145 52.44H77.1145V55.05H65.1145V52.44ZM57.9145 64.08H69.1945V67.77H73.0345V64.08H84.3145V60.6H57.9145V64.08ZM61.1245 66.24V73.74H81.7045V70.17H64.9645V66.24H61.1245ZM107.452 55.86H104.662V46.17H101.032V73.08H104.662V59.34H107.452V73.74H111.172V45.72H107.452V55.86ZM90.5318 54.78V47.34H87.0518V69.3H98.4818V47.34H95.0318V54.78H90.5318ZM90.5318 58.23H95.0318V65.85H90.5318V58.23Z" fill="white"/>
<path d="M10.5 98.342H7.532C7.056 96.606 5.852 95.878 4.452 95.878C2.632 95.878 1.148 97.096 1.148 100.162V102.094C1.148 105.16 2.632 106.378 4.452 106.378C5.992 106.378 7.322 105.482 7.672 103.312H10.5V108.1H11.508V95.178H10.5V98.342ZM6.748 102.08C6.748 104.488 5.768 105.454 4.452 105.454C3.136 105.454 2.156 104.488 2.156 102.08V100.162C2.156 97.754 3.136 96.802 4.452 96.802C5.768 96.802 6.748 97.754 6.748 100.162V102.08ZM7.756 102.388V102.094V100.162C7.756 99.84 7.742 99.532 7.714 99.252H10.5V102.388H7.756ZM23.7894 100.372H21.4094V101.282H23.7894V108.1H24.7834V95.178H23.7894V100.372ZM15.6274 105.314V101.604H20.4714V96.214H14.6334V97.124H19.4774V100.694H14.6334V106.224H16.8034C18.6794 106.224 20.7934 106.042 22.2914 105.762L22.1654 104.88C20.5694 105.132 18.5254 105.314 16.9714 105.314H15.6274ZM36.5468 95.43V97.334H29.8268V95.43H28.8328V100.932H37.5548V95.43H36.5468ZM29.8268 98.216H36.5468V100.064H29.8268V98.216ZM27.1388 103.382H32.6968V105.608H33.6908V103.382H39.2348V102.458H27.1388V103.382ZM28.7628 104.614V108.1H37.8908V107.176H29.7708V104.614H28.7628ZM51.3202 108.1V95.178H50.3262V108.1H51.3202ZM44.6562 102.864C46.5042 102.864 48.0302 101.786 48.0302 99.518V99.224C48.0302 96.956 46.5042 95.878 44.6562 95.878C42.7802 95.878 41.2682 96.956 41.2682 99.224V99.518C41.2682 101.786 42.7802 102.864 44.6562 102.864ZM44.6562 101.94C43.2842 101.94 42.2762 101.114 42.2762 99.504V99.238C42.2762 97.614 43.2842 96.788 44.6562 96.788C46.0142 96.788 47.0222 97.614 47.0222 99.238V99.504C47.0222 101.114 46.0142 101.94 44.6562 101.94ZM42.8222 105.972C44.7262 105.972 47.2602 105.804 49.2062 105.524L49.0942 104.642C47.0642 104.894 44.4742 105.048 42.8782 105.048H40.5262L40.5822 105.972H42.8222ZM67.2999 100.232V95.178H66.2919V108.1H67.2999V101.156H69.4419V100.232H67.2999ZM58.4659 105.314V101.604H63.2819V96.214H57.4719V97.124H62.2879V100.694H57.4719V106.224H59.5859C61.4619 106.224 63.4499 106.042 64.9339 105.776L64.8079 104.894C63.2399 105.146 61.3219 105.314 59.7539 105.314H58.4659ZM81.2893 108.1V95.178H80.2813V108.1H81.2893ZM74.2473 106.378C76.0673 106.378 77.5653 105.16 77.5653 102.094V100.162C77.5653 97.096 76.0673 95.878 74.2473 95.878C72.4273 95.878 70.9293 97.096 70.9293 100.162V102.094C70.9293 105.16 72.4273 106.378 74.2473 106.378ZM74.2473 105.454C72.9173 105.454 71.9373 104.488 71.9373 102.08V100.162C71.9373 97.754 72.9173 96.802 74.2473 96.802C75.5773 96.802 76.5713 97.754 76.5713 100.162V102.08C76.5713 104.488 75.5773 105.454 74.2473 105.454ZM92.2966 102.248V97.054H94.3966V96.13H85.0026V97.054H87.1026V102.248H85.0026V103.172H94.3966V102.248H92.2966ZM91.3166 97.054V102.248H88.0826V97.054H91.3166ZM83.6446 107.064H95.7406V106.14H83.6446V107.064ZM111.132 103.186L111.692 102.374L106.554 98.818C106.806 98.216 106.932 97.6 106.932 96.956V95.92H105.938V96.956C105.938 99 104.37 100.722 101.052 102.332L101.514 103.186C103.782 102.108 105.266 100.932 106.106 99.672L111.132 103.186ZM100.324 107.05H112.42V106.14H100.324V107.05ZM123.806 100.232V95.178H122.798V108.1H123.806V101.156H125.948V100.232H123.806ZM114.902 105.314V101.604H119.788V100.694H114.902V97.124H119.928V96.214H113.908V106.224H116.036C117.912 106.224 119.942 106.042 121.44 105.762L121.314 104.894C119.718 105.146 117.772 105.314 116.204 105.314H114.902ZM137.795 101.506V95.178H136.801V101.506H137.795ZM130.809 101.128C132.657 101.128 134.155 100.218 134.155 98.412V98.188C134.155 96.368 132.657 95.472 130.809 95.472C128.933 95.472 127.435 96.368 127.435 98.188V98.412C127.435 100.218 128.933 101.128 130.809 101.128ZM130.809 100.218C129.423 100.218 128.443 99.588 128.443 98.384V98.202C128.443 97.026 129.423 96.368 130.809 96.368C132.167 96.368 133.161 97.026 133.161 98.202V98.384C133.161 99.588 132.167 100.218 130.809 100.218ZM138.341 108.17V107.288H130.501V105.692H137.795V102.43H129.437V103.284H136.801V104.824H129.493V108.17H138.341ZM147.109 99.462C149.349 99.462 150.763 98.832 150.763 97.362C150.763 95.906 149.349 95.29 147.109 95.29H145.289C143.062 95.29 141.649 95.906 141.649 97.362C141.649 98.832 143.062 99.462 145.289 99.462H147.109ZM145.457 98.608C143.637 98.608 142.643 98.216 142.643 97.362C142.643 96.536 143.637 96.144 145.457 96.144H146.954C148.775 96.144 149.755 96.536 149.755 97.362C149.755 98.188 148.775 98.608 146.954 98.608H145.457ZM152.247 101.422V100.568H140.151V101.422H152.247ZM151.043 108.17V107.316H142.713V105.818H150.693V102.682H141.649V103.522H149.685V104.978H141.719V108.17H151.043ZM167.75 108.1V95.178H166.742V108.1H167.75ZM160.708 106.378C162.528 106.378 164.026 105.16 164.026 102.094V100.162C164.026 97.096 162.528 95.878 160.708 95.878C158.888 95.878 157.39 97.096 157.39 100.162V102.094C157.39 105.16 158.888 106.378 160.708 106.378ZM160.708 105.454C159.378 105.454 158.398 104.488 158.398 102.08V100.162C158.398 97.754 159.378 96.802 160.708 96.802C162.038 96.802 163.032 97.754 163.032 100.162V102.08C163.032 104.488 162.038 105.454 160.708 105.454ZM180.2 100.232H178.198V95.388H177.232V107.862H178.198V101.156H180.2V108.1H181.194V95.178H180.2V100.232ZM172.682 95.192V97.222H170.148V98.146H176.196V97.222H173.676V95.192H172.682ZM173.2 99.476C171.73 99.476 170.722 100.624 170.722 102.5V103.242C170.722 105.104 171.73 106.28 173.2 106.28C174.642 106.28 175.65 105.104 175.65 103.242V102.5C175.65 100.624 174.642 99.476 173.2 99.476ZM174.698 103.186C174.698 104.53 174.068 105.37 173.2 105.37C172.29 105.37 171.674 104.53 171.674 103.186V102.556C171.674 101.212 172.29 100.4 173.2 100.4C174.068 100.4 174.698 101.212 174.698 102.556V103.186ZM187.693 96.634V95.01H186.699V96.634H183.451V97.502H190.941V96.634H187.693ZM193.573 95.178H192.579V105.118H193.573V100.078H195.729V99.14H193.573V95.178ZM190.339 100.792C190.339 99.252 188.967 98.398 187.217 98.398C185.467 98.398 184.081 99.252 184.081 100.792V101.03C184.081 102.57 185.467 103.452 187.217 103.452C188.967 103.452 190.339 102.57 190.339 101.03V100.792ZM185.075 100.82C185.075 99.868 186.013 99.266 187.217 99.266C188.407 99.266 189.359 99.868 189.359 100.82V101.016C189.359 101.968 188.407 102.57 187.217 102.57C186.013 102.57 185.075 101.968 185.075 101.016V100.82ZM185.537 104.614V108.086H194.315V107.176H186.545V104.614H185.537ZM1.372 126.388C2.87 125.674 3.962 124.904 4.62 123.966L8.26 126.262L8.764 125.394L5.068 123.14C5.236 122.72 5.32 122.258 5.334 121.768H8.316V120.858H5.334V119.192H4.34V120.858H1.358V121.768H4.326C4.27 123.336 3.038 124.512 0.924 125.534L1.372 126.388ZM10.5 132.1H11.494V119.192H10.5V132.1ZM9.268 127.186C7.238 127.452 4.648 127.606 3.052 127.606H0.7L0.756 128.516H2.996C3.416 128.516 3.85 128.502 4.312 128.488C4.242 129.664 4.116 130.854 3.948 132.1L4.956 132.212C5.11 130.91 5.236 129.65 5.32 128.446C6.706 128.376 8.162 128.25 9.38 128.082L9.268 127.186ZM18.1754 120.494V119.01H17.1814V120.494H13.9334V121.348H21.4234V120.494H18.1754ZM26.2114 121.11H24.0554V119.178H23.0614V126.668H24.0554V124.568H26.2114V123.672H24.0554V121.992H26.2114V121.11ZM20.8214 124.246C20.8214 122.874 19.4494 122.132 17.6994 122.132C15.9494 122.132 14.5634 122.874 14.5634 124.246V124.442C14.5634 125.828 15.9494 126.57 17.6994 126.57C19.4494 126.57 20.8214 125.828 20.8214 124.442V124.246ZM15.5574 124.288C15.5574 123.49 16.4954 122.972 17.6994 122.972C18.8894 122.972 19.8414 123.49 19.8414 124.288V124.428C19.8414 125.24 18.8894 125.73 17.6994 125.73C16.4954 125.73 15.5574 125.24 15.5574 124.428V124.288ZM18.7634 127.438C16.8734 127.438 15.7394 128.46 15.7394 129.846C15.7394 131.232 16.8734 132.226 18.7634 132.226H21.3674C23.2574 132.226 24.3774 131.232 24.3774 129.846C24.3774 128.46 23.2574 127.438 21.3674 127.438H18.7634ZM18.9454 131.33C17.4754 131.33 16.7474 130.714 16.7474 129.832C16.7474 128.964 17.4754 128.348 18.9454 128.348H21.1714C22.6554 128.348 23.3694 128.964 23.3694 129.832C23.3694 130.714 22.6554 131.33 21.1714 131.33H18.9454ZM40.6511 132.1H41.6311V119.178H40.6511V132.1ZM34.7151 124.232V125.156H37.8651V131.862H38.8311V119.388H37.8651V124.232H34.7151ZM32.0831 129.034V121.138H35.8351V120.214H31.0751V129.944H32.6151C34.1691 129.944 35.4291 129.86 36.7171 129.636L36.6051 128.74C35.2331 128.95 34.0151 129.034 32.7691 129.034H32.0831ZM54.7385 132.1V119.178H53.7305V132.1H54.7385ZM47.6965 130.378C49.5165 130.378 51.0145 129.16 51.0145 126.094V124.162C51.0145 121.096 49.5165 119.878 47.6965 119.878C45.8765 119.878 44.3785 121.096 44.3785 124.162V126.094C44.3785 129.16 45.8765 130.378 47.6965 130.378ZM47.6965 129.454C46.3665 129.454 45.3865 128.488 45.3865 126.08V124.162C45.3865 121.754 46.3665 120.802 47.6965 120.802C49.0265 120.802 50.0205 121.754 50.0205 124.162V126.08C50.0205 128.488 49.0265 129.454 47.6965 129.454ZM67.0199 124.372H64.6399V125.282H67.0199V132.1H68.0139V119.178H67.0199V124.372ZM58.8579 129.314V125.604H63.8979V124.694H58.8579V121.124H64.0519V120.214H57.8639V130.224H60.0339C61.9379 130.224 64.0379 130.042 65.5219 129.762L65.3959 128.88C63.7999 129.146 61.7839 129.314 60.2019 129.314H58.8579ZM81.0513 124.288V123.504H73.0573V122.258H80.7853V119.43H71.9933V120.242H79.7773V121.474H72.0633V124.288H81.0513ZM82.4653 126.15V125.338H70.3693V126.15H82.4653ZM81.2613 132.17V131.344H72.9313V130.07H80.9113V127.214H71.8673V128.026H79.9033V129.258H71.9373V132.17H81.2613ZM93.6009 124.974H97.7309V124.12H89.7369V122.636H97.4649V121.782H89.7369V120.354H97.4649V119.5H88.7429V124.974H92.6069V126.192H87.0489V127.046H99.1449V126.192H93.6009V124.974ZM91.6409 128.18C89.5549 128.18 88.4769 128.992 88.4769 130.21C88.4769 131.442 89.5549 132.24 91.6409 132.24H94.5669C96.6529 132.24 97.7309 131.442 97.7309 130.21C97.7309 128.992 96.6529 128.18 94.5669 128.18H91.6409ZM91.8789 131.386C90.2409 131.386 89.4709 130.952 89.4709 130.21C89.4709 129.468 90.2409 129.034 91.8789 129.034H94.3289C95.9529 129.034 96.7229 129.468 96.7229 130.21C96.7229 130.952 95.9529 131.386 94.3289 131.386H91.8789ZM110.418 124.232H108.416V119.388H107.45V131.862H108.416V125.156H110.418V132.1H111.412V119.178H110.418V124.232ZM102.9 119.192V121.222H100.366V122.146H106.414V121.222H103.894V119.192H102.9ZM103.418 123.476C101.948 123.476 100.94 124.624 100.94 126.5V127.242C100.94 129.104 101.948 130.28 103.418 130.28C104.86 130.28 105.868 129.104 105.868 127.242V126.5C105.868 124.624 104.86 123.476 103.418 123.476ZM104.916 127.186C104.916 128.53 104.286 129.37 103.418 129.37C102.508 129.37 101.892 128.53 101.892 127.186V126.556C101.892 125.212 102.508 124.4 103.418 124.4C104.286 124.4 104.916 125.212 104.916 126.556V127.186ZM127.196 119.192H126.188V126.248H127.196V122.986H129.338V122.076H127.196V119.192ZM124.102 125.87L124.648 125.072L120.854 122.468C121.092 121.852 121.204 121.208 121.204 120.508V119.64H120.224V120.508C120.224 122.496 119.02 123.994 116.766 125.324L117.27 126.136C118.74 125.296 119.79 124.372 120.434 123.322L124.102 125.87ZM121.89 127.032C120.014 127.032 118.88 128.18 118.88 129.636C118.88 131.106 120.014 132.226 121.89 132.226H124.508C126.398 132.226 127.518 131.106 127.518 129.636C127.518 128.18 126.398 127.032 124.508 127.032H121.89ZM122.086 131.33C120.602 131.33 119.888 130.602 119.888 129.622C119.888 128.684 120.602 127.928 122.086 127.928H124.312C125.796 127.928 126.51 128.684 126.51 129.622C126.51 130.602 125.796 131.33 124.312 131.33H122.086ZM138.875 123.392V120.368H140.891V119.5H131.777V120.368H133.779V123.392H131.777V124.26H140.891V123.392H138.875ZM137.895 120.368V123.392H134.759V120.368H137.895ZM142.375 125.562H130.279V126.458H135.823V127.97H131.847V132.1H140.821V127.97H136.817V126.458H142.375V125.562ZM132.841 131.246V128.824H139.813V131.246H132.841ZM150.513 123.462C152.753 123.462 154.167 122.832 154.167 121.362C154.167 119.906 152.753 119.29 150.513 119.29H148.693C146.467 119.29 145.053 119.906 145.053 121.362C145.053 122.832 146.467 123.462 148.693 123.462H150.513ZM148.861 122.608C147.041 122.608 146.047 122.216 146.047 121.362C146.047 120.536 147.041 120.144 148.861 120.144H150.359C152.179 120.144 153.159 120.536 153.159 121.362C153.159 122.188 152.179 122.608 150.359 122.608H148.861ZM155.651 125.422V124.568H143.555V125.422H155.651ZM154.447 132.17V131.316H146.117V129.818H154.097V126.682H145.053V127.522H153.089V128.978H145.123V132.17H154.447ZM1.904 150.318C4.074 149.52 5.53 148.638 6.356 147.658L11.284 150.318L11.746 149.464L6.888 146.86C7.098 146.412 7.196 145.95 7.196 145.46H11.06V144.55H7.196V142.982H6.202V144.55H2.212V145.46H6.202C6.202 147 4.578 148.288 1.512 149.45L1.904 150.318ZM0.588 151.62V152.544H6.146V156.226H7.14V152.544H12.684V151.62H0.588ZM21.4094 151.438L21.9694 150.64L18.1894 147.644C18.3854 147.084 18.4834 146.496 18.4834 145.852V145.824H21.5214V144.928H18.4834V143.08H17.5034V144.928H14.4934V145.824H17.5034V145.852C17.5034 147.868 16.2294 149.394 14.0594 150.836L14.5774 151.634C16.0754 150.668 17.1534 149.66 17.7974 148.526L21.4094 151.438ZM21.0034 147.966H23.7894V153.118H24.7834V143.178H23.7894V147.084H21.0034V147.966ZM17.4754 152.446H16.4814V156.086H25.3854V155.176H17.4754V152.446ZM37.2328 148.232H35.2308V143.388H34.2648V155.862H35.2308V149.156H37.2328V156.1H38.2268V143.178H37.2328V148.232ZM29.7148 143.192V145.222H27.1808V146.146H33.2288V145.222H30.7088V143.192H29.7148ZM30.2328 147.476C28.7628 147.476 27.7548 148.624 27.7548 150.5V151.242C27.7548 153.104 28.7628 154.28 30.2328 154.28C31.6748 154.28 32.6828 153.104 32.6828 151.242V150.5C32.6828 148.624 31.6748 147.476 30.2328 147.476ZM31.7308 151.186C31.7308 152.53 31.1008 153.37 30.2328 153.37C29.3228 153.37 28.7068 152.53 28.7068 151.186V150.556C28.7068 149.212 29.3228 148.4 30.2328 148.4C31.1008 148.4 31.7308 149.212 31.7308 150.556V151.186ZM41.9822 144.13V150.892H50.9562V149.982H42.9762V145.054H50.8302V144.13H41.9822ZM52.5102 155.064V154.14H40.4142V155.064H52.5102ZM63.6156 146.468H60.9696V147.392H63.6156V149.982H60.9696V150.906H63.6156V156.1H64.6096V143.178H63.6156V146.468ZM55.4536 153.314V149.604H60.1296V144.214H54.4596V145.124H59.1356V148.694H54.4596V154.224H56.4896C58.3516 154.224 60.1296 154.056 61.5436 153.804L61.4316 152.922C59.9196 153.16 58.1836 153.314 56.6716 153.314H55.4536ZM73.951 150.682C76.289 150.682 77.759 149.226 77.759 147.294C77.759 145.376 76.289 143.92 73.951 143.92H72.089C69.737 143.92 68.295 145.376 68.295 147.294C68.295 149.226 69.737 150.682 72.089 150.682H73.951ZM73.783 144.83C75.673 144.83 76.751 145.894 76.751 147.294C76.751 148.722 75.673 149.786 73.783 149.786H72.257C70.353 149.786 69.289 148.722 69.289 147.294C69.289 145.894 70.353 144.83 72.257 144.83H73.783ZM75.813 151.466H74.819V154.14H71.221V151.466H70.227V154.14H66.965V155.05H79.061V154.14H75.813V151.466Z" fill="white"/>
</svg>
