<svg width="320" height="162" viewBox="0 0 320 162" fill="none" xmlns="http://www.w3.org/2000/svg">
<path d="M23.22 16.4C23.64 13.67 23.85 10.76 23.85 8.39V6.53H4.17V10.04H20.01C19.95 11.57 19.74 14.03 19.35 16.4H1.02V19.79H27.42V16.4H23.22ZM24.36 33.77V22.64H4.11V33.77H24.36ZM20.52 25.94V30.41H7.92V25.94H20.52ZM45.1273 16.37C49.7173 16.37 52.9573 14.63 52.9573 11.12C52.9573 7.64 49.7173 5.96 45.1273 5.96H40.2373C35.6173 5.96 32.4073 7.64 32.4073 11.12C32.4073 14.63 35.6173 16.37 40.2373 16.37H45.1273ZM44.4073 9.14C47.4073 9.14 49.1173 9.8 49.1173 11.15C49.1173 12.53 47.4073 13.22 44.4073 13.22H40.9573C37.9273 13.22 36.2173 12.53 36.2173 11.15C36.2173 9.8 37.9273 9.14 40.9573 9.14H44.4073ZM55.8673 18.08H29.4673V21.35H35.9473V24.17C33.5773 25.01 32.2573 26.75 32.2573 28.85C32.2573 31.85 34.8673 34.04 39.3373 34.04H45.9973C50.4973 34.04 53.1073 31.85 53.1073 28.85C53.1073 26.75 51.8173 25.04 49.4473 24.2V21.35H55.8673V18.08ZM39.6673 23.66V21.35H45.7273V23.66H39.6673ZM40.0573 30.71C37.2673 30.71 36.0673 29.99 36.0673 28.82C36.0673 27.65 37.2673 26.96 40.0573 26.96H45.3073C48.0973 26.96 49.2673 27.65 49.2673 28.82C49.2673 29.99 48.0973 30.71 45.3073 30.71H40.0573ZM80.6245 5.75H76.7845V20.99H80.6245V14.66H84.6745V11.21H80.6245V5.75ZM72.5245 20.48L74.5645 17.51L67.2445 12.56C67.6645 11.27 67.8745 9.89 67.8745 8.39V6.56H64.1245V8.39C64.1245 11.93 62.3245 15.08 57.3145 18.05L59.3545 21.08C62.1145 19.49 64.1845 17.72 65.5945 15.77L72.5245 20.48ZM68.3545 22.22C64.3945 22.22 61.6045 24.59 61.6045 28.13C61.6045 31.7 64.3945 34.04 68.3545 34.04H74.5045C78.4945 34.04 81.2545 31.7 81.2545 28.13C81.2545 24.59 78.4945 22.22 74.5045 22.22H68.3545ZM68.8945 30.62C66.6145 30.62 65.4445 29.6 65.4445 28.1C65.4445 26.63 66.6145 25.61 68.8945 25.61H73.9345C76.2445 25.61 77.4145 26.63 77.4145 28.1C77.4145 29.6 76.2445 30.62 73.9345 30.62H68.8945ZM105.832 13.67V9.41H109.852V6.26H89.3018V9.41H93.2918V13.67H89.3018V16.85H109.852V13.67H105.832ZM102.112 9.41V13.67H97.0118V9.41H102.112ZM112.762 18.8H86.3618V22.07H97.6418V24.38H89.4518V33.74H109.702V24.38H101.482V22.07H112.762V18.8ZM93.2618 30.62V27.47H105.862V30.62H93.2618ZM16.65 59.76C21.45 59.76 24.75 57.12 24.75 53.1C24.75 49.11 21.45 46.47 16.65 46.47H11.82C6.99 46.47 3.75 49.11 3.75 53.1C3.75 57.12 6.99 59.76 11.82 59.76H16.65ZM15.93 49.8C19.02 49.8 20.91 51.03 20.91 53.1C20.91 55.2 19.02 56.49 15.93 56.49H12.51C9.45 56.49 7.56 55.2 7.56 53.1C7.56 51.03 9.45 49.8 12.51 49.8H15.93ZM1.02 62.82V66.3H7.35V74.04H11.19V66.3H17.28V74.04H21.12V66.3H27.42V62.82H1.02ZM52.2073 51.48V45.72H48.3673V61.44H52.2073V54.96H56.2573V51.48H52.2073ZM45.8173 56.88C42.6073 57.36 39.2773 57.63 36.3373 57.63H33.6973V55.44H43.3873V46.92H29.9773V50.19H39.6673V52.23H29.9773V60.93H35.6773C39.5173 60.93 43.1473 60.6 46.2373 60.03L45.8173 56.88ZM52.2073 73.74V62.97H33.7573V73.74H52.2073ZM48.3673 66.3V70.32H37.5973V66.3H48.3673Z" fill="white"/>
<path d="M10.402 100.47C10.668 99.014 10.822 97.53 10.822 96.41V95.64H2.114V96.55H9.828V96.62C9.828 97.432 9.674 98.986 9.394 100.47H0.588V101.38H12.684V100.47H10.402ZM11.13 108.1V103.158H2.156V108.1H11.13ZM10.122 104.054V107.204H3.15V104.054H10.122ZM20.8214 100.008C23.0614 100.008 24.4754 99.224 24.4754 97.684C24.4754 96.13 23.0614 95.36 20.8214 95.36H19.0154C16.7754 95.36 15.3614 96.13 15.3614 97.684C15.3614 99.224 16.7754 100.008 19.0154 100.008H20.8214ZM20.6534 96.242C22.4734 96.242 23.4674 96.746 23.4674 97.684C23.4674 98.608 22.4734 99.154 20.6534 99.154H19.1834C17.3494 99.154 16.3554 98.636 16.3554 97.684C16.3554 96.746 17.3494 96.242 19.1834 96.242H20.6534ZM25.9594 101.226H13.8634V102.122H17.2374V103.774C15.9634 104.096 15.2914 104.908 15.2914 105.93C15.2914 107.26 16.3974 108.24 18.4974 108.24H21.3254C23.4394 108.24 24.5454 107.26 24.5454 105.93C24.5454 104.908 23.8874 104.096 22.6134 103.774V102.122H25.9594V101.226ZM21.6334 103.648C21.5354 103.634 21.4374 103.634 21.3254 103.634H18.4974H18.2174V102.122H21.6334V103.648ZM23.5374 105.93C23.5374 106.784 22.7534 107.344 21.1014 107.344H18.7214C17.0694 107.344 16.2854 106.784 16.2854 105.93C16.2854 105.076 17.0694 104.53 18.7214 104.53H21.1014C22.7534 104.53 23.5374 105.076 23.5374 105.93ZM37.5151 101.492C39.8111 101.492 41.2671 100.344 41.2671 98.566C41.2671 96.816 39.8111 95.668 37.5151 95.668H35.6811C33.3711 95.668 31.9431 96.816 31.9431 98.566C31.9431 100.344 33.3711 101.492 35.6811 101.492H37.5151ZM37.3471 96.564C39.2091 96.564 40.2591 97.376 40.2591 98.566C40.2591 99.77 39.2091 100.596 37.3471 100.596H35.8351C33.9871 100.596 32.9371 99.784 32.9371 98.566C32.9371 97.376 33.9871 96.564 35.8351 96.564H37.3471ZM30.5431 103.368V104.278H33.7911V108.24H34.7991V104.278H38.3971V108.24H39.4051V104.278H42.6391V103.368H30.5431ZM50.3705 100.022H54.2345V95.5H45.5125V100.022H49.3765V101.59H43.8185V102.486H55.9145V101.59H50.3705V100.022ZM53.2265 96.368V99.154H46.5065V96.368H53.2265ZM53.3525 104.95V108.24H54.3605V104.04H45.3865V104.95H53.3525ZM68.0279 104.992V95.178H67.0199V104.992H68.0279ZM63.9819 102.332V95.948H57.7939V102.332H63.9819ZM58.7739 96.844H63.0019V101.436H58.7739V96.844ZM68.6299 108.1V107.176H60.7199V104.166H59.7259V108.1H68.6299ZM80.4773 108.1H81.4573V95.178H80.4773V108.1ZM75.9413 100.372V100.162C75.9413 97.096 74.7793 95.878 73.2953 95.878C71.7693 95.878 70.6213 97.096 70.6213 100.162V102.094C70.6213 105.16 71.7693 106.378 73.2953 106.378C74.7793 106.378 75.9413 105.16 75.9413 102.094V101.282H77.6912V107.862H78.6573V95.388H77.6912V100.372H75.9413ZM74.9753 102.08C74.9753 104.488 74.2613 105.454 73.2812 105.454C72.3013 105.454 71.5873 104.488 71.5873 102.08V100.162C71.5873 97.754 72.3013 96.802 73.2812 96.802C74.2613 96.802 74.9753 97.754 74.9753 100.162V102.08ZM93.7526 108.1H94.7326V95.178H93.7526V108.1ZM88.5446 100.512C88.8526 99.49 89.0206 98.412 89.0206 97.278V96.284H84.2046V97.194H88.0266V97.474C88.0266 100.498 86.4446 103.522 83.9666 105.734L84.6806 106.462C86.2486 105.02 87.4806 103.326 88.2366 101.422H90.9666V107.862H91.9326V95.388H90.9666V100.512H88.5446ZM101.64 102.318C103.81 101.52 105.266 100.638 106.092 99.658L111.02 102.318L111.482 101.464L106.624 98.86C106.834 98.412 106.932 97.95 106.932 97.46H110.796V96.55H106.932V94.982H105.938V96.55H101.948V97.46H105.938C105.938 99 104.314 100.288 101.248 101.45L101.64 102.318ZM100.324 103.62V104.544H105.882V108.226H106.876V104.544H112.42V103.62H100.324ZM121.146 103.438L121.706 102.64L117.926 99.644C118.122 99.084 118.22 98.496 118.22 97.852V97.824H121.258V96.928H118.22V95.08H117.24V96.928H114.23V97.824H117.24V97.852C117.24 99.868 115.966 101.394 113.796 102.836L114.314 103.634C115.812 102.668 116.89 101.66 117.534 100.526L121.146 103.438ZM120.74 99.966H123.526V105.118H124.52V95.178H123.526V99.084H120.74V99.966ZM117.212 104.446H116.218V108.086H125.122V107.176H117.212V104.446ZM137.067 100.232V95.178H136.073V108.1H137.067V101.156H139.223V100.232H137.067ZM130.193 95.192V97.236H126.945V98.146H134.435V97.236H131.187V95.192H130.193ZM130.711 99.476C128.961 99.476 127.575 100.624 127.575 102.5V103.242C127.575 105.104 128.961 106.28 130.711 106.28C132.447 106.28 133.819 105.104 133.819 103.242V102.5C133.819 100.624 132.447 99.476 130.711 99.476ZM132.825 103.2C132.825 104.544 131.887 105.37 130.711 105.37C129.507 105.37 128.583 104.544 128.583 103.2V102.542C128.583 101.198 129.507 100.4 130.711 100.4C131.887 100.4 132.825 101.198 132.825 102.542V103.2ZM142.839 99.63V95.5H141.845V100.554H150.665V99.63H142.839ZM152.247 103.13V102.206H140.151V103.13H152.247ZM150.903 108.1V107.176H142.839V104.348H141.845V108.1H150.903ZM166.644 100.47C166.91 99.014 167.064 97.53 167.064 96.41V95.64H158.356V96.55H166.07V96.62C166.07 97.432 165.916 98.986 165.636 100.47H156.83V101.38H168.926V100.47H166.644ZM167.372 108.1V103.158H158.398V108.1H167.372ZM166.364 104.054V107.204H159.392V104.054H166.364ZM177.064 100.008C179.304 100.008 180.718 99.224 180.718 97.684C180.718 96.13 179.304 95.36 177.064 95.36H175.258C173.018 95.36 171.604 96.13 171.604 97.684C171.604 99.224 173.018 100.008 175.258 100.008H177.064ZM176.896 96.242C178.716 96.242 179.71 96.746 179.71 97.684C179.71 98.608 178.716 99.154 176.896 99.154H175.426C173.592 99.154 172.598 98.636 172.598 97.684C172.598 96.746 173.592 96.242 175.426 96.242H176.896ZM182.202 101.226H170.106V102.122H173.48V103.774C172.206 104.096 171.534 104.908 171.534 105.93C171.534 107.26 172.64 108.24 174.74 108.24H177.568C179.682 108.24 180.788 107.26 180.788 105.93C180.788 104.908 180.13 104.096 178.856 103.774V102.122H182.202V101.226ZM177.876 103.648C177.778 103.634 177.68 103.634 177.568 103.634H174.74H174.46V102.122H177.876V103.648ZM179.78 105.93C179.78 106.784 178.996 107.344 177.344 107.344H174.964C173.312 107.344 172.528 106.784 172.528 105.93C172.528 105.076 173.312 104.53 174.964 104.53H177.344C178.996 104.53 179.78 105.076 179.78 105.93ZM193.321 95.192V103.326H194.315V95.192H193.321ZM190.661 98.538C190.661 96.536 189.163 95.542 187.315 95.542C185.453 95.542 183.955 96.536 183.955 98.538V98.804C183.955 100.806 185.453 101.8 187.315 101.8C189.163 101.8 190.661 100.806 190.661 98.804V98.538ZM184.963 98.552C184.963 97.166 185.957 96.438 187.315 96.438C188.673 96.438 189.667 97.166 189.667 98.552V98.776C189.667 100.162 188.673 100.904 187.315 100.904C185.957 100.904 184.963 100.162 184.963 98.776V98.552ZM190.367 104.992C190.591 104.572 190.703 104.138 190.703 103.676V102.962H189.681V103.676C189.681 105.188 187.791 106.476 185.117 107.358L185.481 108.226C187.441 107.596 188.953 106.756 189.821 105.776L194.693 108.17L195.127 107.274L190.367 104.992ZM206.778 102.458H207.744V95.178H206.778V102.458ZM205.014 102.458V95.318H204.062V98.09H202.312V98.972H204.062V102.458H205.014ZM202.788 100.848C201.472 101.058 200.31 101.156 198.924 101.156H198.028V99.336H201.78V98.468H198.028V96.76H201.906V95.878H197.048V102.052H198.742C200.464 102.052 201.654 101.926 202.9 101.702L202.788 100.848ZM207.744 108.1V103.368H199.4V108.1H207.744ZM206.75 104.264V107.19H200.394V104.264H206.75ZM211.738 103.942L211.822 95.752H210.702L210.786 103.942H211.738ZM211.262 107.568C211.696 107.568 212.046 107.218 212.046 106.784C212.046 106.35 211.696 106.014 211.262 106.014C210.828 106.014 210.478 106.35 210.478 106.784C210.478 107.218 210.828 107.568 211.262 107.568ZM10.78 122.076V119.178H9.786V126.178H10.78V122.986H12.922V122.076H10.78ZM7.672 125.982L8.204 125.17L4.466 122.636C4.662 122.104 4.76 121.558 4.76 120.956V120.774H7.686V119.878H0.882V120.774H3.78V120.956C3.78 122.818 2.562 124.148 0.392 125.45L0.868 126.248C2.366 125.394 3.43 124.498 4.06 123.476L7.672 125.982ZM10.78 132.1V127.102H2.73V132.1H10.78ZM9.786 127.998V131.19H3.738V127.998H9.786ZM23.7614 132.1H24.7694V119.178H23.7614V132.1ZM18.4274 119.976H17.4474V121.586C17.4474 124.848 16.2434 127.284 13.8634 129.622L14.5634 130.308C15.9914 128.894 17.0134 127.438 17.6434 125.87L21.2834 130.168L22.0254 129.51L18.0074 124.778C18.2874 123.77 18.4274 122.706 18.4274 121.586V119.976ZM41.4771 125.576V119.192H40.4691V121.152H36.7731V122.034H40.4691V125.576H41.4771ZM38.7611 123.574C37.1371 123.84 35.1071 123.994 33.5671 123.994H32.4751V119.808H31.4671V124.918H33.4131C35.2611 124.918 37.3471 124.722 38.8871 124.456L38.7611 123.574ZM37.7531 125.646H36.7591V126.976H32.6851V127.83H41.8131V126.976H37.7531V125.646ZM35.8211 128.572C34.0991 128.572 33.1471 129.328 33.1471 130.462C33.1471 131.54 34.0991 132.296 35.8211 132.296H38.6771C40.3991 132.296 41.3651 131.54 41.3651 130.462C41.3651 129.328 40.3991 128.572 38.6771 128.572H35.8211ZM35.8911 131.428C34.6871 131.428 34.1131 131.008 34.1131 130.434C34.1131 129.846 34.6871 129.412 35.8911 129.412H38.6211C39.8111 129.412 40.3991 129.846 40.3991 130.434C40.3991 131.008 39.8111 131.428 38.6211 131.428H35.8911ZM53.7305 124.372H51.0145V124.162C51.0145 121.096 49.5165 119.878 47.6965 119.878C45.8765 119.878 44.3785 121.096 44.3785 124.162V126.094C44.3785 129.16 45.8765 130.378 47.6965 130.378C49.5165 130.378 51.0145 129.16 51.0145 126.094V125.282H53.7305V132.1H54.7385V119.178H53.7305V124.372ZM50.0205 126.08C50.0205 128.488 49.0265 129.454 47.6965 129.454C46.3665 129.454 45.3865 128.488 45.3865 126.08V124.162C45.3865 121.754 46.3665 120.802 47.6965 120.802C49.0265 120.802 50.0205 121.754 50.0205 124.162V126.08ZM59.6559 124.4V120.774H67.5099V119.864H58.6619V125.296H67.6359V124.4H59.6559ZM57.0939 127.368V128.278H62.6519V132.254H63.6459V128.278H69.1899V127.368H57.0939ZM80.2813 124.372H77.5653V124.162C77.5653 121.096 76.0673 119.878 74.2473 119.878C72.4273 119.878 70.9293 121.096 70.9293 124.162V126.094C70.9293 129.16 72.4273 130.378 74.2473 130.378C76.0673 130.378 77.5653 129.16 77.5653 126.094V125.282H80.2813V132.1H81.2893V119.178H80.2813V124.372ZM76.5713 126.08C76.5713 128.488 75.5773 129.454 74.2473 129.454C72.9173 129.454 71.9373 128.488 71.9373 126.08V124.162C71.9373 121.754 72.9173 120.802 74.2473 120.802C75.5773 120.802 76.5713 121.754 76.5713 124.162V126.08ZM90.1966 126.752H94.1866V125.856H86.2066V121.04H94.0606V120.13H85.2126V126.752H89.2026V130.14H83.6446V131.064H95.7406V130.14H90.1966V126.752ZM111.244 132.1V119.178H110.236V132.1H111.244ZM104.202 130.378C106.022 130.378 107.52 129.16 107.52 126.094V124.162C107.52 121.096 106.022 119.878 104.202 119.878C102.382 119.878 100.884 121.096 100.884 124.162V126.094C100.884 129.16 102.382 130.378 104.202 130.378ZM104.202 129.454C102.872 129.454 101.892 128.488 101.892 126.08V124.162C101.892 121.754 102.872 120.802 104.202 120.802C105.532 120.802 106.526 121.754 106.526 124.162V126.08C106.526 128.488 105.532 129.454 104.202 129.454ZM123.792 124.232V119.178H122.798V132.1H123.792V125.156H125.934V124.232H123.792ZM117.772 121.194H120.698V120.284H113.894V121.194H116.792V121.936C116.792 125.128 115.518 127.34 113.39 129.636L114.118 130.308C115.434 128.894 116.4 127.494 117.016 125.982L120.446 130.168L121.216 129.496L117.394 124.862C117.646 123.938 117.772 122.972 117.772 121.936V121.194ZM137.557 124.288V123.504H129.563V122.258H137.291V119.43H128.499V120.242H136.283V121.474H128.569V124.288H137.557ZM138.971 126.15V125.338H126.875V126.15H138.971ZM137.767 132.17V131.344H129.437V130.07H137.417V127.214H128.373V128.026H136.409V129.258H128.443V132.17H137.767ZM144.927 125.94C147.069 125.156 148.511 124.274 149.337 123.28L154.181 125.94L154.629 125.086L149.841 122.496C150.079 122.02 150.191 121.516 150.191 120.984V120.774H153.971V119.864H145.249V120.774H149.183V120.984C149.183 122.566 147.629 123.924 144.563 125.072L144.927 125.94ZM143.555 127.368V128.278H149.113V132.254H150.107V128.278H155.651V127.368H143.555ZM159.518 123.63V119.5H158.524V124.554H167.344V123.63H159.518ZM168.926 127.13V126.206H156.83V127.13H168.926ZM167.582 132.1V131.176H159.518V128.348H158.524V132.1H167.582ZM183.702 124.232V119.178H182.708V132.1H183.702V125.156H185.844V124.232H183.702ZM179.488 121.138H180.972V120.214H173.566V121.138H175.05V129.034H173.412L173.454 129.958H175.428C177.346 129.958 179.684 129.79 181.602 129.482L181.49 128.586C180.846 128.684 180.174 128.768 179.488 128.838V121.138ZM178.508 128.908C177.626 128.978 176.786 129.02 176.044 129.034V121.138H178.508V128.908ZM196.711 119.192V126.248H197.705V119.192H196.711ZM193.967 119.878H187.681V120.76H193.029V120.774C193.029 121.278 192.903 121.768 192.665 122.23C191.293 122.37 188.955 122.468 187.695 122.468H187.415L187.457 123.308H187.737C188.997 123.308 190.775 123.224 192.077 123.098C191.139 124.162 189.543 125.044 187.513 125.632L187.821 126.444C191.601 125.338 193.967 123.434 193.967 120.564V119.878ZM192.147 127.032C190.257 127.032 189.137 128.18 189.137 129.636C189.137 131.106 190.257 132.226 192.147 132.226H194.877C196.767 132.226 197.887 131.106 197.887 129.636C197.887 128.18 196.767 127.032 194.877 127.032H192.147ZM192.357 131.33C190.859 131.33 190.131 130.602 190.131 129.622C190.131 128.684 190.859 127.928 192.357 127.928H194.667C196.165 127.928 196.893 128.684 196.893 129.622C196.893 130.602 196.165 131.33 194.667 131.33H192.357ZM206.613 124.974H210.743V124.12H202.749V122.636H210.477V121.782H202.749V120.354H210.477V119.5H201.755V124.974H205.619V126.192H200.061V127.046H212.157V126.192H206.613V124.974ZM204.653 128.18C202.567 128.18 201.489 128.992 201.489 130.21C201.489 131.442 202.567 132.24 204.653 132.24H207.579C209.665 132.24 210.743 131.442 210.743 130.21C210.743 128.992 209.665 128.18 207.579 128.18H204.653ZM204.891 131.386C203.253 131.386 202.483 130.952 202.483 130.21C202.483 129.468 203.253 129.034 204.891 129.034H207.341C208.965 129.034 209.735 129.468 209.735 130.21C209.735 130.952 208.965 131.386 207.341 131.386H204.891ZM223.528 119.192H222.534V126.248H223.528V122.986H225.67V122.076H223.528V119.192ZM220.42 126.052L220.952 125.24L217.214 122.664C217.41 122.132 217.508 121.572 217.508 120.97V120.774H220.434V119.878H213.63V120.774H216.528V120.97C216.528 122.846 215.31 124.204 213.14 125.52L213.63 126.318C215.128 125.464 216.178 124.54 216.808 123.504L220.42 126.052ZM218.222 127.032C216.346 127.032 215.212 128.18 215.212 129.636C215.212 131.106 216.346 132.226 218.222 132.226H220.84C222.73 132.226 223.85 131.106 223.85 129.636C223.85 128.18 222.73 127.032 220.84 127.032H218.222ZM218.418 131.33C216.934 131.33 216.22 130.602 216.22 129.622C216.22 128.684 216.934 127.928 218.418 127.928H220.644C222.128 127.928 222.842 128.684 222.842 129.622C222.842 130.602 222.128 131.33 220.644 131.33H218.418ZM10.682 156.1H11.662V143.178H10.682V156.1ZM5.614 148.106V149.016H7.896V155.862H8.862V143.388H7.896V148.106H5.614ZM4.144 145.194H6.482V144.284H0.896V145.194H3.192V146.048C3.192 149.156 2.212 151.382 0.448 153.692L1.218 154.308C2.24 152.95 2.996 151.606 3.486 150.192L6.132 154.154L6.93 153.58L3.836 148.946C4.046 148.036 4.144 147.07 4.144 146.048V145.194ZM23.9714 148.232H21.9694V143.388H21.0034V155.862H21.9694V149.156H23.9714V156.1H24.9514V143.178H23.9714V148.232ZM15.4034 153.034V145.138H19.1554V144.214H14.3954V153.944H15.9354C17.4894 153.944 18.7494 153.86 20.0374 153.636L19.9254 152.74C18.5534 152.95 17.3354 153.034 16.0894 153.034H15.4034ZM33.6908 151.368H37.9608V150.472H29.7008V148.176H37.6808V144.13H28.6368V145.04H36.6728V147.28H28.7068V151.368H32.6968V154.14H27.1388V155.064H39.2348V154.14H33.6908V151.368ZM50.3705 151.032H54.3605V144.06H53.3525V146.664H46.3805V144.06H45.3865V151.032H49.3765V154.14H43.8185V155.064H55.9145V154.14H50.3705V151.032ZM53.3525 147.588V150.122H46.3805V147.588H53.3525ZM67.0199 156.1H68.0139V143.178H67.0199V156.1ZM63.0719 145.194V145.474C63.0719 148.498 61.0559 151.55 57.7799 153.678L58.3679 154.462C61.8959 152.124 64.0799 148.932 64.0799 145.278V144.284H57.9759V145.194H63.0719Z" fill="white"/>
</svg>
