<svg width="100" height="40" viewBox="0 0 100 40" fill="none" xmlns="http://www.w3.org/2000/svg">
<rect width="100" height="40" rx="20" fill="#F4F4F4"/>
<path d="M18.5573 19.078C18.5573 18.3127 18.7859 17.748 19.2433 17.384H17.6613V16.264H24.5213V17.384H22.9953C23.4526 17.748 23.6813 18.3127 23.6813 19.078C23.6813 19.3393 23.6486 19.596 23.5833 19.848C23.5179 20.1 23.4106 20.3333 23.2613 20.548C23.1213 20.7533 22.9346 20.9353 22.7013 21.094C22.4773 21.2527 22.2019 21.3647 21.8753 21.43V22.914H22.1133C22.6453 22.9047 23.1819 22.8627 23.7233 22.788C24.2646 22.704 24.7593 22.5407 25.2073 22.298V14.388H26.6073V18.574H28.3013V19.75H26.6073V26.26H25.2073V23.39C24.9926 23.5113 24.7593 23.614 24.5073 23.698C24.2553 23.782 23.9939 23.852 23.7233 23.908C23.4619 23.964 23.1913 24.006 22.9113 24.034C22.6406 24.0527 22.3793 24.062 22.1273 24.062H17.4653V22.914H20.4753V21.444C20.1206 21.388 19.8219 21.2853 19.5793 21.136C19.3366 20.9773 19.1406 20.7953 18.9913 20.59C18.8419 20.3753 18.7299 20.1373 18.6553 19.876C18.5899 19.6147 18.5573 19.3487 18.5573 19.078ZM21.1193 17.496C20.7179 17.496 20.4006 17.6313 20.1673 17.902C19.9339 18.1633 19.8173 18.532 19.8173 19.008C19.8173 19.512 19.9339 19.89 20.1673 20.142C20.4006 20.394 20.7179 20.52 21.1193 20.52C21.5206 20.52 21.8379 20.394 22.0713 20.142C22.3046 19.89 22.4213 19.512 22.4213 19.008C22.4213 18.532 22.3046 18.1633 22.0713 17.902C21.8379 17.6313 21.5206 17.496 21.1193 17.496ZM19.1873 15.564V14.388H22.9393V15.564H19.1873ZM38.4976 22.802H37.0836V19.638H35.0676V20.674H30.1816C29.883 20.674 29.6683 20.6133 29.5376 20.492C29.4163 20.3613 29.3556 20.1373 29.3556 19.82V15.074H35.0676V15.872H37.0836V14.388H38.4976V22.802ZM31.2456 22.088H32.6456V24.832C32.6456 24.9347 32.655 24.9953 32.6736 25.014C32.7016 25.042 32.7623 25.056 32.8556 25.056H38.7776V26.19H32.0436C31.5116 26.19 31.2456 25.9287 31.2456 25.406V22.088ZM33.6816 16.208H30.7416V19.344C30.7416 19.4093 30.7556 19.4607 30.7836 19.498C30.8116 19.526 30.8676 19.54 30.9516 19.54H33.6816V16.208ZM37.0836 17.034H35.0676V18.476H37.0836V17.034ZM40.672 15.06H46.846V16.194H45.768V19.932C46.0387 19.9133 46.2907 19.8853 46.524 19.848C46.7573 19.8013 46.9673 19.736 47.154 19.652L47.322 20.618C47.0513 20.786 46.6873 20.9073 46.23 20.982C45.782 21.0567 45.306 21.094 44.802 21.094H40.588V19.96H41.792V16.194H40.672V15.06ZM48.596 14.388H49.982V23.222H48.596V19.442H46.902V18.28H48.596V17.286H46.902V16.124H48.596V14.388ZM42.73 22.522H44.13V24.832C44.13 24.9347 44.1393 24.9953 44.158 25.014C44.186 25.042 44.2467 25.056 44.34 25.056H50.262V26.19H43.528C42.996 26.19 42.73 25.9287 42.73 25.406V22.522ZM43.136 19.96H44.424V16.194H43.136V19.96ZM61.4664 26.26H55.0264C54.485 26.26 54.2144 25.98 54.2144 25.42V21.416H55.6144V22.858H60.0664V21.416H61.4664V26.26ZM52.4924 15.984V14.864H58.4844V15.984H56.2164V16.208C56.2164 16.7773 56.4357 17.3327 56.8744 17.874C57.3224 18.4153 58.013 18.9613 58.9464 19.512L58.2324 20.534C57.971 20.394 57.7097 20.2353 57.4484 20.058C57.187 19.8807 56.935 19.6893 56.6924 19.484C56.4497 19.2787 56.2257 19.064 56.0204 18.84C55.8244 18.616 55.6564 18.392 55.5164 18.168C55.2457 18.6907 54.8584 19.1807 54.3544 19.638C53.8504 20.086 53.2904 20.4733 52.6744 20.8L51.9604 19.778C52.3897 19.526 52.7817 19.2507 53.1364 18.952C53.491 18.6533 53.7897 18.3453 54.0324 18.028C54.275 17.7013 54.4617 17.37 54.5924 17.034C54.7324 16.6887 54.8024 16.3527 54.8024 16.026V15.984H52.4924ZM61.4664 20.618H60.0524V14.388H61.4664V20.618ZM60.0664 25.154V23.964H55.6144V24.916C55.6144 25.0747 55.6937 25.154 55.8524 25.154H60.0664Z" fill="#666666"/>
<path d="M76.3726 18.0133L76.9859 18.6267L70.9459 24.6667H70.3326V24.0533L76.3726 18.0133ZM78.7726 14C78.6059 14 78.4326 14.0667 78.3059 14.1933L77.0859 15.4133L79.5859 17.9133L80.8059 16.6933C81.0659 16.4333 81.0659 16.0133 80.8059 15.7533L79.2459 14.1933C79.1126 14.06 78.9459 14 78.7726 14ZM76.3726 16.1267L68.9993 23.5V26H71.4993L78.8726 18.6267L76.3726 16.1267Z" fill="black"/>
</svg>
