<svg width="145" height="75" viewBox="0 0 145 75" fill="none" xmlns="http://www.w3.org/2000/svg">
<path d="M11.456 28.584V39.64H13.504V28.584H11.456ZM9.056 37.336L10.208 35.768L6.096 32.728C6.336 31.96 6.464 31.144 6.464 30.28V29.112H4.464V30.28C4.464 32.44 3.424 34.28 0.688 36.056L1.824 37.64C3.328 36.664 4.464 35.64 5.232 34.488L9.056 37.336ZM5.408 38.696H3.36V43.528H14.048V41.672H5.408V38.696ZM26.1639 33.976C27.4439 33.576 28.2439 32.744 28.2439 31.464C28.2439 29.608 26.5159 28.712 24.0679 28.712H21.4599C18.9959 28.712 17.2839 29.608 17.2839 31.464C17.2839 32.728 18.0679 33.576 19.3479 33.976V35.416H15.7159V37.144H29.7959V35.416H26.1639V33.976ZM19.3159 31.48C19.3159 30.76 20.2279 30.408 21.8439 30.408H23.6839C25.2839 30.408 26.1959 30.76 26.1959 31.48C26.1959 32.216 25.2839 32.584 23.6839 32.584H21.8439C20.2279 32.584 19.3159 32.216 19.3159 31.48ZM21.2679 34.264H24.2439V35.416H21.2679V34.264ZM20.9799 38.152C18.5959 38.152 17.2039 39.336 17.2039 40.92C17.2039 42.52 18.5959 43.688 20.9799 43.688H24.5319C26.9319 43.688 28.3239 42.52 28.3239 40.92C28.3239 39.336 26.9319 38.152 24.5319 38.152H20.9799ZM21.3639 41.912C19.8759 41.912 19.2359 41.528 19.2359 40.904C19.2359 40.28 19.8759 39.912 21.3639 39.912H24.1639C25.6519 39.912 26.2759 40.28 26.2759 40.904C26.2759 41.528 25.6519 41.912 24.1639 41.912H21.3639ZM41.7998 31.672H39.1758V33.416H41.7998V36.648H43.8478V28.584H41.7998V31.672ZM39.2878 36.632L40.2798 34.952L36.3278 32.664C36.5038 32.152 36.5998 31.592 36.6318 31.016H39.7198V29.224H31.5758V31.016H34.6478C34.5518 32.664 33.4798 33.944 30.9838 35.208L31.9278 36.872C33.5118 36.104 34.6638 35.256 35.4478 34.28L39.2878 36.632ZM43.8478 43.528V37.464H33.6878V43.528H43.8478ZM41.7998 39.272V41.704H35.7358V39.272H41.7998ZM58.3796 36.184L59.3396 34.44L53.8356 31.56C54.0916 30.936 54.2036 30.296 54.2036 29.624V28.744H52.1556V29.624C52.1556 31.336 50.7476 32.936 46.8596 34.408L47.6756 36.184C50.0436 35.336 51.6916 34.344 52.7316 33.224L58.3796 36.184ZM46.0596 37.656V39.512H52.0756V43.688H54.1236V39.512H60.1396V37.656H46.0596ZM77.4723 28.584H75.4243V40.024H77.4723V34.76H79.4723V32.888H77.4723V28.584ZM73.1203 35.064C73.3923 33.528 73.5683 31.784 73.5683 30.04V29.288H65.8563V31.016H71.5683C71.5523 32.008 71.3923 33.384 71.1683 34.824L73.1203 35.064ZM74.3363 35.784C72.8643 35.96 71.2003 36.088 69.7283 36.152V33H67.6803V36.216H67.5363H64.9603L65.0723 38.088H67.3443C69.4563 38.088 72.3043 37.912 74.5603 37.592L74.3363 35.784ZM67.4883 39.32V43.528H78.1763V41.672H69.5203V39.32H67.4883ZM93.3321 43.528V28.584H91.2841V43.528H93.3321ZM84.1961 41.464C86.2761 41.464 88.3561 41.288 90.0841 40.952L89.8281 39.192C88.0361 39.48 86.1641 39.624 84.5641 39.624H83.1401V36.344H88.5001V29.608H81.1081V31.448H86.4521V34.552H81.1081V41.464H84.1961ZM113.593 34.216H111.369C111.561 32.776 111.689 31.272 111.689 30.024V29.032H101.193V30.888H109.641C109.609 31.688 109.497 32.952 109.305 34.216H99.5128V36.008H105.529V37.528H104.825C102.425 37.528 101.001 38.888 101.001 40.6C101.001 42.36 102.425 43.688 104.825 43.688H108.297C110.697 43.688 112.121 42.36 112.121 40.6C112.121 38.888 110.697 37.528 108.297 37.528H107.577V36.008H113.593V34.216ZM110.073 40.584C110.073 41.384 109.401 41.912 107.865 41.912H105.241C103.721 41.912 103.033 41.384 103.033 40.584C103.033 39.816 103.721 39.304 105.241 39.304H107.865C109.401 39.304 110.073 39.816 110.073 40.584ZM126.525 34.28C126.749 32.824 126.861 31.272 126.861 30.008V29.016H116.365V30.888H124.813C124.781 31.704 124.669 33.016 124.461 34.28H114.685V36.088H128.765V34.28H126.525ZM127.133 43.544V37.608H116.333V43.544H127.133ZM125.085 39.368V41.752H118.365V39.368H125.085ZM131.473 34.68C133.761 34.248 135.393 33.672 136.449 32.936L142.193 34.68L142.833 32.984L137.729 31.48C137.857 31.208 137.937 30.92 137.985 30.616H142.081V28.872H131.729V30.616H135.937C135.537 31.528 134.016 32.392 130.961 33L131.473 34.68ZM129.857 37H143.937V35.256H129.857V37ZM135.121 38.152C132.737 38.152 131.345 39.336 131.345 40.92C131.345 42.52 132.737 43.688 135.121 43.688H138.673C141.073 43.688 142.465 42.52 142.465 40.92C142.465 39.336 141.073 38.152 138.673 38.152H135.121ZM135.505 41.928C134.016 41.928 133.377 41.528 133.377 40.904C133.377 40.28 134.016 39.912 135.505 39.912H138.305C139.793 39.912 140.417 40.28 140.417 40.904C140.417 41.528 139.793 41.928 138.305 41.928H135.505ZM11.776 59.992H10.288V54.824H8.368V69.176H10.288V61.848H11.776V69.528H13.776V54.584H11.776V59.992ZM3.024 54.6V56.632H0.528V58.456H7.568V56.632H5.088V54.6H3.024ZM4.064 59.592C2.304 59.592 1.088 60.984 1.088 63.144V64.024C1.088 66.184 2.304 67.592 4.064 67.592C5.808 67.592 7.024 66.184 7.024 64.024V63.144C7.024 60.984 5.808 59.592 4.064 59.592ZM5.152 63.88C5.152 65.08 4.704 65.768 4.064 65.768C3.408 65.768 2.96 65.08 2.96 63.88V63.288C2.96 62.104 3.408 61.416 4.064 61.416C4.704 61.416 5.152 62.104 5.152 63.288V63.88ZM26.6279 58.072V59.256H23.6199V60.888H26.6279V61.864H28.6759V54.584H26.6279V56.456H23.9559C23.9719 56.328 23.9719 56.184 23.9719 56.056V55.224H16.7239V57.032H21.9079C21.5719 58.408 19.6679 59.656 16.3239 60.456L17.0119 62.28C20.3719 61.448 22.7079 60.168 23.5879 58.072H26.6279ZM20.5799 66.904H28.6759V62.68H18.4679V64.344H26.6279V65.256H18.5479V69.608H29.1559V67.896H20.5799V66.904ZM42.1198 59.992H40.6318V54.824H38.7118V69.176H40.6318V61.848H42.1198V69.528H44.1198V54.584H42.1198V59.992ZM33.3678 54.6V56.632H30.8717V58.456H37.9118V56.632H35.4318V54.6H33.3678ZM34.4078 59.592C32.6478 59.592 31.4318 60.984 31.4318 63.144V64.024C31.4318 66.184 32.6478 67.592 34.4078 67.592C36.1518 67.592 37.3678 66.184 37.3678 64.024V63.144C37.3678 60.984 36.1518 59.592 34.4078 59.592ZM35.4958 63.88C35.4958 65.08 35.0477 65.768 34.4078 65.768C33.7518 65.768 33.3038 65.08 33.3038 63.88V63.288C33.3038 62.104 33.7518 61.416 34.4078 61.416C35.0477 61.416 35.4958 62.104 35.4958 63.288V63.88ZM47.7076 55.512V63.688H58.5076V61.848H49.7396V57.368H58.3636V55.512H47.7076ZM60.1396 68.488V66.616H46.0596V68.488H60.1396ZM74.2075 62.184V54.584H72.1435V62.184H74.2075ZM65.0715 62.152C67.1515 62.152 69.2315 61.96 70.9435 61.656L70.7355 60.04C68.9275 60.312 67.0395 60.472 65.4235 60.472H63.9515V59.432H69.3595V55.144H61.9675V56.824H67.3755V57.768H61.9675V62.152H65.0715ZM74.6715 69.608V67.928H66.0955V67.048H74.2075V63H63.9835V64.632H72.1435V65.432H64.0635V69.608H74.6715ZM87.6514 69.528H89.6354V54.584H87.6514V69.528ZM82.4674 60.296C82.6754 59.304 82.7874 58.264 82.7874 57.16V55.688H77.0594V57.56H80.7874C80.7874 60.392 79.5874 63.576 76.5954 66.36L78.1154 67.832C79.8754 66.12 81.1554 64.248 81.9234 62.168H84.4034V69.176H86.3394V54.824H84.4034V60.296H82.4674ZM99.8953 63.448C102.535 63.448 104.311 61.688 104.311 59.352C104.311 57.048 102.535 55.272 99.8953 55.272H97.3513C94.6953 55.272 92.9513 57.048 92.9513 59.352C92.9513 61.688 94.6953 63.448 97.3513 63.448H99.8953ZM99.5113 57.112C101.191 57.112 102.263 58.008 102.263 59.368C102.263 60.744 101.191 61.656 99.5113 61.656H97.7353C96.0393 61.656 94.9833 60.744 94.9833 59.368C94.9833 58.008 96.0393 57.112 97.7353 57.112H99.5113ZM102.263 64.28H100.279V66.616H96.9673V64.28H94.9833V66.616H91.5753V68.488H105.655V66.616H102.263V64.28Z" fill="white"/>
<path d="M9.012 6.724V15.136H9.864V6.724H9.012ZM7.14 13.132L7.62 12.472L4.224 9.916C4.44 9.328 4.548 8.716 4.548 8.044V7.18H3.696V8.044C3.696 9.952 2.652 11.38 0.636 12.688L1.092 13.36C2.388 12.544 3.312 11.668 3.876 10.672L7.14 13.132ZM3.6 14.428H2.748V17.8H10.38V17.008H3.6V14.428ZM19.2509 10.72C20.3429 10.444 20.9789 9.832 20.9789 8.872C20.9789 7.54 19.7669 6.88 17.8469 6.88H16.2989C14.3789 6.88 13.1669 7.54 13.1669 8.872C13.1669 9.832 13.8029 10.444 14.8949 10.72V12.088H11.8829V12.844H22.2509V12.088H19.2509V10.72ZM14.0189 8.872C14.0189 8.068 14.8709 7.636 16.4429 7.636H17.7029C19.2629 7.636 20.1149 8.068 20.1149 8.872C20.1149 9.664 19.2629 10.132 17.7029 10.132H16.4429C14.8709 10.132 14.0189 9.688 14.0189 8.872ZM15.7229 10.84C15.9029 10.876 18.2429 10.876 18.4229 10.84V12.088H15.7229V10.84ZM15.8549 13.972C14.0549 13.972 13.1069 14.812 13.1069 15.94C13.1069 17.08 14.0549 17.92 15.8549 17.92H18.2789C20.0909 17.92 21.0389 17.08 21.0389 15.94C21.0389 14.812 20.0909 13.972 18.2789 13.972H15.8549ZM16.0469 17.152C14.6309 17.152 13.9589 16.672 13.9589 15.94C13.9589 15.208 14.6309 14.74 16.0469 14.74H18.0869C19.5029 14.74 20.1749 15.208 20.1749 15.94C20.1749 16.672 19.5029 17.152 18.0869 17.152H16.0469ZM32.1058 6.724H31.2538V15.304H32.1058V11.044H33.8338V10.24H32.1058V6.724ZM28.4098 8.176C28.4098 8.956 28.2778 10.24 28.0378 11.452L28.8658 11.584C29.0938 10.36 29.2618 9.076 29.2618 7.912V7.336H23.8618V8.092H28.4098V8.176ZM30.1978 12.412C29.0458 12.556 27.6778 12.664 26.5018 12.724V9.892H25.6378V12.748C25.4098 12.76 25.1938 12.76 25.0018 12.76H23.0938L23.1298 13.54H24.9538C26.5378 13.54 28.6738 13.408 30.2938 13.168L30.1978 12.412ZM25.1098 14.896V17.8H32.7418V17.008H25.9618V14.896H25.1098ZM44.0007 17.8V6.724H43.1487V17.8H44.0007ZM37.1727 16.192C38.8047 16.192 40.6167 16.036 41.9247 15.784L41.8167 15.04C40.4247 15.256 38.6727 15.412 37.3167 15.412H36.1527V12.232H40.4607V7.612H35.3007V8.392H39.5967V11.452H35.3007V16.192H37.1727ZM57.4456 12.724H58.2976V6.724H57.4456V12.724ZM56.1136 11.356C54.7216 11.596 52.9696 11.74 51.6136 11.74H50.4496V10.228H54.8056V9.484H50.4496V8.08H54.9256V7.324H49.5976V12.496H51.4696C53.1016 12.496 54.9256 12.328 56.2216 12.1L56.1136 11.356ZM52.0336 14.776V13.396H51.1816V17.8H58.2976V13.396H57.4456V14.776H52.0336ZM52.0336 15.532H57.4456V17.02H52.0336V15.532Z" fill="white"/>
</svg>
