<svg width="320" height="138" viewBox="0 0 320 138" fill="none" xmlns="http://www.w3.org/2000/svg">
<path d="M22.11 15.86H19.32V6.17H15.69V33.08H19.32V19.34H22.11V33.74H25.83V5.72H22.11V15.86ZM5.91 25.79V11.15H12.75V7.64H2.01V29.3H6.33C9.15 29.3 11.49 29.18 14.04 28.7L13.68 25.31C11.1 25.7 8.91 25.79 6.87 25.79H5.91ZM32.2573 17.18C36.8773 16.58 39.9973 15.74 41.9473 14.48L52.8973 17.18L53.9473 14.12L44.1673 11.81C44.3473 11.36 44.4373 10.88 44.4973 10.34H52.5373V7.22H44.6173V5.15H40.9273V7.22H32.8273V10.34H40.9273C40.3573 11.99 37.6273 13.28 31.3873 14.09L32.2573 17.18ZM55.8673 17.93H29.4673V20.87H40.7473V22.64H32.4073V25.46H48.9673V26.78H32.5573V33.89H53.5573V30.98H36.3673V29.6H52.8073V22.64H44.5873V20.87H55.8673V17.93ZM23.76 45.72H19.92V61.29H23.76V54.66H27.81V51.18H23.76V45.72ZM11.79 46.77V50.13H5.07V46.77H1.38V59.94H15.45V46.77H11.79ZM5.07 53.46H11.79V56.58H5.07V53.46ZM23.82 66.24V62.82H5.31V73.74H24.33V70.32H9.12V66.24H23.82ZM52.1773 55.86V45.72H48.3673V73.74H52.1773V59.34H56.2573V55.86H52.1773ZM37.0573 46.92C32.8873 46.92 29.5273 49.56 29.5273 56.4V60.69C29.5273 67.53 32.8873 70.17 37.0573 70.17C41.1673 70.17 44.5273 67.53 44.5273 60.69V56.4C44.5273 49.56 41.1673 46.92 37.0573 46.92ZM40.6873 60.69C40.6873 65.19 39.0073 66.69 37.0573 66.69C35.0173 66.69 33.3673 65.19 33.3673 60.69V56.4C33.3673 51.9 35.0173 50.4 37.0573 50.4C39.0073 50.4 40.6873 51.9 40.6873 56.4V60.69ZM73.0345 55.62H80.9845V45.96H77.1145V48.03H65.1145V45.96H61.2745V55.62H69.1945V57.45H57.9145V60.48H84.3145V57.45H73.0345V55.62ZM77.1145 51.03V52.62H65.1145V51.03H77.1145ZM81.2545 69.27V61.92H60.8545V64.86H77.4145V66.39H61.0045V73.89H82.0045V70.86H64.8145V69.27H81.2545ZM107.452 73.74H111.172V45.72H107.452V73.74ZM97.7318 56.43C98.1218 54.57 98.3318 52.62 98.3318 50.55V47.79H87.5918V51.3H94.5818C94.5818 56.61 92.3318 62.58 86.7218 67.8L89.5718 70.56C92.8718 67.35 95.2718 63.84 96.7118 59.94H101.362V73.08H104.992V46.17H101.362V56.43H97.7318ZM130.409 62.34C135.359 62.34 138.689 59.04 138.689 54.66C138.689 50.34 135.359 47.01 130.409 47.01H125.639C120.659 47.01 117.389 50.34 117.389 54.66C117.389 59.04 120.659 62.34 125.639 62.34H130.409ZM129.689 50.46C132.839 50.46 134.849 52.14 134.849 54.69C134.849 57.27 132.839 58.98 129.689 58.98H126.359C123.179 58.98 121.199 57.27 121.199 54.69C121.199 52.14 123.179 50.46 126.359 50.46H129.689ZM134.849 63.9H131.129V68.28H124.919V63.9H121.199V68.28H114.809V71.79H141.209V68.28H134.849V63.9Z" fill="black"/>
<path d="M11.508 108.1V95.178H10.5V108.1H11.508ZM4.466 106.378C6.286 106.378 7.784 105.16 7.784 102.094V100.162C7.784 97.096 6.286 95.878 4.466 95.878C2.646 95.878 1.148 97.096 1.148 100.162V102.094C1.148 105.16 2.646 106.378 4.466 106.378ZM4.466 105.454C3.136 105.454 2.156 104.488 2.156 102.08V100.162C2.156 97.754 3.136 96.802 4.466 96.802C5.796 96.802 6.79 97.754 6.79 100.162V102.08C6.79 104.488 5.796 105.454 4.466 105.454ZM23.9574 108.1H24.9374V95.178H23.9574V108.1ZM18.8894 100.106V101.016H21.1714V107.862H22.1374V95.388H21.1714V100.106H18.8894ZM17.4194 97.194H19.7574V96.284H14.1714V97.194H16.4674V98.048C16.4674 101.156 15.4874 103.382 13.7234 105.692L14.4934 106.308C15.5154 104.95 16.2714 103.606 16.7614 102.192L19.4074 106.154L20.2054 105.58L17.1114 100.946C17.3214 100.036 17.4194 99.07 17.4194 98.048V97.194ZM40.6511 100.232H38.6491V95.388H37.6831V107.862H38.6491V101.156H40.6511V108.1H41.6311V95.178H40.6511V100.232ZM32.0831 105.034V97.138H35.8351V96.214H31.0751V105.944H32.6151C34.1691 105.944 35.4291 105.86 36.7171 105.636L36.6051 104.74C35.2331 104.95 34.0151 105.034 32.7691 105.034H32.0831ZM45.1065 100.498C47.2905 100.022 48.7465 99.462 49.5725 98.72L54.5425 100.498L54.8785 99.658L50.1465 98.006C50.3005 97.712 50.3845 97.39 50.3985 97.054H54.2345V96.186H50.4125V94.912H49.4325V96.186H45.5125V97.054H49.4605C49.3625 98.146 47.7945 99.028 44.8405 99.644L45.1065 100.498ZM55.9145 101.114H43.8185V101.94H49.3765V103.158H45.3165V103.97H53.3525V105.23H45.3865V108.156H54.7105V107.33H46.3805V106.042H54.3605V103.158H50.3705V101.94H55.9145V101.114ZM63.6459 102.752H67.6359V101.856H59.6559V97.04H67.5099V96.13H58.6619V102.752H62.6519V106.14H57.0939V107.064H69.1899V106.14H63.6459V102.752ZM80.9135 99.644H83.6995V104.992H84.6935V95.178H83.6995V98.762H80.9135V99.644ZM81.8795 102.276L78.0575 99.21C78.2815 98.566 78.3935 97.894 78.3935 97.166V96.844H81.3615V95.948H74.4735V96.844H77.4135V97.166C77.4135 99.378 76.1675 100.918 73.9695 102.5L74.5155 103.27C75.9715 102.276 77.0215 101.24 77.6515 100.092L81.3055 103.06L81.8795 102.276ZM77.3855 104.166H76.3915V108.1H85.2955V107.176H77.3855V104.166ZM99.3969 96.9H97.2549V95.192H96.2469V102.724H97.2549V100.372H99.3969V99.476H97.2549V97.796H99.3969V96.9ZM94.7769 100.96C93.1949 101.198 91.2769 101.366 89.7089 101.366H88.4069V99.448H93.2369V95.878H87.4269V96.76H92.2569V98.566H87.4269V102.262H89.5409C91.4309 102.262 93.4049 102.066 94.8889 101.814L94.7769 100.96ZM96.2469 104.558V108.226H97.2549V103.634H89.0649V104.558H96.2469ZM111.244 108.1V95.178H110.236V108.1H111.244ZM104.202 106.378C106.022 106.378 107.52 105.16 107.52 102.094V100.162C107.52 97.096 106.022 95.878 104.202 95.878C102.382 95.878 100.884 97.096 100.884 100.162V102.094C100.884 105.16 102.382 106.378 104.202 106.378ZM104.202 105.454C102.872 105.454 101.892 104.488 101.892 102.08V100.162C101.892 97.754 102.872 96.802 104.202 96.802C105.532 96.802 106.526 97.754 106.526 100.162V102.08C106.526 104.488 105.532 105.454 104.202 105.454ZM123.806 100.232V95.178H122.798V108.1H123.806V101.156H125.948V100.232H123.806ZM114.986 105.034V97.138H120.054V96.214H113.978V105.944H115.994C117.856 105.944 119.914 105.762 121.44 105.496L121.328 104.614C119.69 104.852 117.702 105.034 116.162 105.034H114.986ZM10.794 119.178H9.786V128.992H10.794V123.532H12.936V122.608H10.794V119.178ZM7.042 120.018H1.092V120.928H6.048C6.048 122.986 4.046 124.946 0.868 126.206L1.302 127.06C4.844 125.646 7.042 123.532 7.042 120.704V120.018ZM2.744 127.97V132.1H11.522V131.176H3.752V127.97H2.744ZM21.5214 122.16H23.7894V123.77H21.5074V124.61H23.7894V128.992H24.7834V119.178H23.7894V121.334H21.5214V122.16ZM22.1654 125.422C21.4794 125.52 20.7374 125.604 20.0094 125.674V120.844H21.6334V119.948H14.3114V120.844H15.7954V125.87H14.1574L14.1994 126.766H16.1594C18.0774 126.766 20.3734 126.612 22.2634 126.29L22.1654 125.422ZM19.0294 125.758C18.2314 125.814 17.4474 125.856 16.7754 125.87V120.844H19.0294V125.758ZM17.4754 128.306H16.4814V132.1H25.3854V131.176H17.4754V128.306ZM37.3308 124.232V119.178H36.3368V132.1H37.3308V125.156H39.4868V124.232H37.3308ZM30.4568 119.192V121.236H27.2088V122.146H34.6988V121.236H31.4508V119.192H30.4568ZM30.9748 123.476C29.2248 123.476 27.8388 124.624 27.8388 126.5V127.242C27.8388 129.104 29.2248 130.28 30.9748 130.28C32.7108 130.28 34.0828 129.104 34.0828 127.242V126.5C34.0828 124.624 32.7108 123.476 30.9748 123.476ZM33.0888 127.2C33.0888 128.544 32.1508 129.37 30.9748 129.37C29.7708 129.37 28.8468 128.544 28.8468 127.2V126.542C28.8468 125.198 29.7708 124.4 30.9748 124.4C32.1508 124.4 33.0888 125.198 33.0888 126.542V127.2ZM50.0322 121.586C50.0322 123 49.7382 125.506 49.3322 127.676L50.3122 127.858C50.7182 125.646 51.0262 123.182 51.0262 121.362V120.27H41.7722V121.18H50.0322V121.586ZM46.0842 124.666H45.0902V130.14H40.4142V131.064H52.5102V130.14H46.0842V124.666ZM67.0059 132.1H67.9999V119.192H67.0059V132.1ZM64.9059 125.842L65.4239 125.016L61.5739 122.468C61.8119 121.88 61.9239 121.25 61.9239 120.564V119.85H60.9019V120.564C60.9019 122.552 59.7119 123.896 57.4019 125.156L57.8919 125.982C59.3899 125.212 60.4539 124.344 61.1259 123.35L64.9059 125.842ZM65.7739 126.92C63.7439 127.172 61.1539 127.326 59.5579 127.326H57.2059L57.2619 128.25H59.5019C59.9219 128.25 60.3559 128.236 60.8179 128.222C60.7339 129.468 60.5939 130.742 60.4399 132.1L61.4199 132.212C61.5879 130.798 61.7279 129.468 61.8259 128.18C63.2119 128.11 64.6679 127.984 65.8859 127.816L65.7739 126.92ZM77.3133 124.596C79.5673 124.596 80.9813 123.644 80.9813 121.978C80.9813 120.312 79.5673 119.36 77.3133 119.36H75.5213C73.2812 119.36 71.8673 120.312 71.8673 121.978C71.8673 123.644 73.2812 124.596 75.5213 124.596H77.3133ZM77.1593 120.242C78.9653 120.242 79.9733 120.914 79.9733 121.978C79.9733 123.028 78.9653 123.714 77.1593 123.714H75.6893C73.8693 123.714 72.8613 123.042 72.8613 121.978C72.8613 120.914 73.8693 120.242 75.6893 120.242H77.1593ZM70.3693 127.046H75.9273V129.608H76.9213V127.046H82.4653V126.122H70.3693V127.046ZM71.9933 128.348V132.1H81.1213V131.176H73.0013V128.348H71.9933ZM97.1569 124.232H95.1549V119.388H94.1889V131.862H95.1549V125.156H97.1569V132.1H98.1369V119.178H97.1569V124.232ZM88.5889 129.034V121.138H92.3409V120.214H87.5809V129.944H89.1209C90.6749 129.944 91.9349 129.86 93.2229 129.636L93.1109 128.74C91.7389 128.95 90.5209 129.034 89.2749 129.034H88.5889ZM101.612 124.498C103.796 124.022 105.252 123.462 106.078 122.72L111.048 124.498L111.384 123.658L106.652 122.006C106.806 121.712 106.89 121.39 106.904 121.054H110.74V120.186H106.918V118.912H105.938V120.186H102.018V121.054H105.966C105.868 122.146 104.3 123.028 101.346 123.644L101.612 124.498ZM112.42 125.114H100.324V125.94H105.882V127.158H101.822V127.97H109.858V129.23H101.892V132.156H111.216V131.33H102.886V130.042H110.866V127.158H106.876V125.94H112.42V125.114ZM118.32 126.318C120.49 125.52 121.946 124.638 122.772 123.658L127.7 126.318L128.162 125.464L123.304 122.86C123.514 122.412 123.612 121.95 123.612 121.46H127.476V120.55H123.612V118.982H122.618V120.55H118.628V121.46H122.618C122.618 123 120.994 124.288 117.928 125.45L118.32 126.318ZM117.004 127.62V128.544H122.562V132.226H123.556V128.544H129.1V127.62H117.004ZM137.825 127.438L138.385 126.64L134.605 123.644C134.801 123.084 134.899 122.496 134.899 121.852V121.824H137.937V120.928H134.899V119.08H133.919V120.928H130.909V121.824H133.919V121.852C133.919 123.868 132.645 125.394 130.475 126.836L130.993 127.634C132.491 126.668 133.569 125.66 134.213 124.526L137.825 127.438ZM137.419 123.966H140.205V129.118H141.199V119.178H140.205V123.084H137.419V123.966ZM133.891 128.446H132.897V132.086H141.801V131.176H133.891V128.446ZM153.761 119.178H152.753V126.388H153.761V122.986H155.903V122.076H153.761V119.178ZM148.931 119.808V121.74H144.843V119.808H143.863V125.59H149.911V119.808H148.931ZM144.843 122.65H148.931V124.694H144.843V122.65ZM153.845 128.208V127.298H145.711V132.1H154.153V131.19H146.705V128.208H153.845ZM166.756 132.1H167.75V119.178H166.756V132.1ZM162.808 121.194V121.474C162.808 124.498 160.792 127.55 157.516 129.678L158.104 130.462C161.632 128.124 163.816 124.932 163.816 121.278V120.284H157.712V121.194H162.808Z" fill="black"/>
</svg>
