<svg width="159" height="76" viewBox="0 0 159 76" fill="none" xmlns="http://www.w3.org/2000/svg">
<path d="M8.372 10.72C9.464 10.444 10.1 9.832 10.1 8.872C10.1 7.54 8.888 6.88 6.968 6.88H5.42C3.5 6.88 2.288 7.54 2.288 8.872C2.288 9.832 2.924 10.444 4.016 10.72V12.088H1.004V12.844H11.372V12.088H8.372V10.72ZM3.14 8.872C3.14 8.068 3.992 7.636 5.564 7.636H6.824C8.384 7.636 9.236 8.068 9.236 8.872C9.236 9.664 8.384 10.132 6.824 10.132H5.564C3.992 10.132 3.14 9.688 3.14 8.872ZM4.844 10.84C5.024 10.876 7.364 10.876 7.544 10.84V12.088H4.844V10.84ZM4.976 13.972C3.176 13.972 2.228 14.812 2.228 15.94C2.228 17.08 3.176 17.92 4.976 17.92H7.4C9.212 17.92 10.16 17.08 10.16 15.94C10.16 14.812 9.212 13.972 7.4 13.972H4.976ZM5.168 17.152C3.752 17.152 3.08 16.672 3.08 15.94C3.08 15.208 3.752 14.74 5.168 14.74H7.208C8.624 14.74 9.296 15.208 9.296 15.94C9.296 16.672 8.624 17.152 7.208 17.152H5.168ZM17.9989 11.332H21.3109V10.552H14.6869V7.768H21.1909V7H13.8349V11.332H17.1469V12.796H12.3829V13.588H22.7509V12.796H17.9989V11.332ZM13.8349 14.584V17.8H21.5989V17.008H14.6869V14.584H13.8349ZM29.3778 11.992H32.9178V11.236H26.0658V9.844H32.6898V7H25.1538V7.744H31.8258V9.124H25.2138V11.992H28.5258V13.384H23.7618V14.152H34.1298V13.384H29.3778V11.992ZM25.2138 15.028V17.8H32.9778V17.02H26.0658V15.028H25.2138Z" fill="white"/>
<path d="M4.168 42.648V32.952L8.008 42.648H10.088L13.928 32.952V42.648H15.96V29.592H13.24L9.048 40.216L4.856 29.592H2.136V42.648H4.168ZM27.1098 42.648V40.776H20.3418L26.8698 31.208V29.592H17.9738V31.464H24.3258L17.7978 41.016V42.648H27.1098ZM39.5729 43.528H41.5569V28.584H39.5729V43.528ZM34.2129 33.512V35.384H36.3249V43.176H38.2609V28.824H36.3249V33.512H34.2129ZM32.8849 29.416H30.9489V31.448C30.9489 34.792 30.0849 37.64 28.1489 40.344L29.7009 41.528C30.6129 40.296 31.3169 39.016 31.8129 37.672L34.0369 41.384L35.6849 40.264L32.5649 35.032C32.7889 33.88 32.8849 32.696 32.8849 31.448V29.416ZM54.7608 33.992H53.2728V28.824H51.3368V43.176H53.2728V35.848H54.7608V43.528H56.7448V28.584H54.7608V33.992ZM46.1208 39.288V31.48H49.7688V29.608H44.0408V41.16H46.3448C47.8488 41.16 49.0968 41.096 50.4568 40.84L50.2648 39.032C48.8888 39.24 47.7208 39.288 46.6328 39.288H46.1208ZM75.0374 37.816L76.1414 36.104L70.3974 32.504C70.6694 31.816 70.7974 31.112 70.7974 30.376V29.272H68.7494V30.376C68.7494 32.344 67.2934 34.2 63.2454 36.04L64.1894 37.816C66.6534 36.744 68.3334 35.528 69.3894 34.216L75.0374 37.816ZM70.7174 37.304H68.6694V40.616H62.6534V42.488H76.7334V40.616H70.7174V37.304ZM89.1213 31.672H87.6493V28.744H85.7773V36.968H87.6493V33.48H89.1213V36.968H91.0573V28.6H89.1213V31.672ZM84.5773 32.552C84.5773 30.056 83.1853 28.84 81.3133 28.84C79.4253 28.84 78.0333 30.056 78.0333 32.552V32.776C78.0333 35.24 79.4253 36.472 81.3133 36.472C83.1853 36.472 84.5773 35.24 84.5773 32.776V32.552ZM79.9213 32.568C79.9213 31.288 80.5293 30.616 81.3133 30.616C82.0973 30.616 82.7053 31.288 82.7053 32.568V32.744C82.7053 34.024 82.0973 34.696 81.3133 34.696C80.5293 34.696 79.9213 34.024 79.9213 32.744V32.568ZM89.0093 39.624V43.688H91.0573V37.784H80.6253V39.624H89.0093ZM107.878 28.584V39.64H109.926V28.584H107.878ZM105.478 37.336L106.63 35.768L102.518 32.728C102.758 31.96 102.886 31.144 102.886 30.28V29.112H100.886V30.28C100.886 32.44 99.8459 34.28 97.1099 36.056L98.2459 37.64C99.7499 36.664 100.886 35.64 101.654 34.488L105.478 37.336ZM101.83 38.696H99.7819V43.528H110.47V41.672H101.83V38.696ZM122.586 33.976C123.866 33.576 124.666 32.744 124.666 31.464C124.666 29.608 122.938 28.712 120.49 28.712H117.882C115.418 28.712 113.706 29.608 113.706 31.464C113.706 32.728 114.49 33.576 115.77 33.976V35.416H112.138V37.144H126.218V35.416H122.586V33.976ZM115.738 31.48C115.738 30.76 116.65 30.408 118.266 30.408H120.106C121.706 30.408 122.618 30.76 122.618 31.48C122.618 32.216 121.706 32.584 120.106 32.584H118.266C116.65 32.584 115.738 32.216 115.738 31.48ZM117.69 34.264H120.666V35.416H117.69V34.264ZM117.402 38.152C115.018 38.152 113.626 39.336 113.626 40.92C113.626 42.52 115.018 43.688 117.402 43.688H120.954C123.354 43.688 124.746 42.52 124.746 40.92C124.746 39.336 123.354 38.152 120.954 38.152H117.402ZM117.786 41.912C116.298 41.912 115.658 41.528 115.658 40.904C115.658 40.28 116.298 39.912 117.786 39.912H120.586C122.074 39.912 122.698 40.28 122.698 40.904C122.698 41.528 122.074 41.912 120.586 41.912H117.786ZM138.558 33.992H137.07V28.824H135.134V43.176H137.07V35.848H138.558V43.528H140.542V28.584H138.558V33.992ZM129.918 39.288V31.48H133.566V29.608H127.838V41.16H130.142C131.646 41.16 132.894 41.096 134.254 40.84L134.062 39.032C132.686 39.24 131.518 39.288 130.43 39.288H129.918ZM143.97 34.696C146.434 34.376 148.098 33.928 149.138 33.256L154.978 34.696L155.538 33.064L150.322 31.832C150.418 31.592 150.466 31.336 150.498 31.048H154.786V29.384H150.562V28.28H148.594V29.384H144.274V31.048H148.594C148.29 31.928 146.834 32.616 143.506 33.048L143.97 34.696ZM156.562 35.096H142.482V36.664H148.498V37.608H144.049V39.112H152.882V39.816H144.13V43.608H155.33V42.056H146.161V41.32H154.93V37.608H150.546V36.664H156.562V35.096Z" fill="white"/>
<path d="M9.796 71.848H10.996V60.712H9.796V71.848ZM2.26 67.66C3.472 66.988 4.372 66.268 4.948 65.44L7.96 67.54L8.596 66.544L5.488 64.42C5.62 64.036 5.692 63.616 5.716 63.172H8.2V62.104H5.716V60.724H4.528V62.104H2.056V63.172H4.528C4.444 64.552 3.46 65.644 1.672 66.664L2.26 67.66ZM5.716 67.252H4.516V69.124C4.18 69.136 3.856 69.136 3.58 69.136H1.564L1.624 70.24H3.472C5.104 70.24 7.288 70.096 8.992 69.856L8.86 68.788C7.876 68.908 6.748 69.004 5.716 69.064V67.252ZM21.1749 64.78H18.7629V65.872H21.1749V71.848H22.3749V60.712H21.1749V64.78ZM17.0229 62.68H19.5069V61.588H13.3989V62.68H15.8469V63.148C15.8469 65.716 14.8149 67.588 12.9549 69.532L13.8069 70.336C14.8989 69.208 15.7149 68.068 16.2549 66.844L19.0629 70.216L19.9509 69.424L16.7109 65.56C16.9149 64.804 17.0229 64 17.0229 63.148V62.68ZM31.1272 71.2V61.48H30.1072L27.0352 63.928L27.7192 64.828L29.9272 63.064V71.2H31.1272ZM36.846 71.2V61.48H35.826L32.754 63.928L33.438 64.828L35.646 63.064V71.2H36.846ZM39.6847 71.38C40.1407 71.38 40.5007 71.02 40.5007 70.564C40.5007 70.108 40.1407 69.736 39.6847 69.736C39.2287 69.736 38.8567 70.108 38.8567 70.564C38.8567 71.02 39.2287 71.38 39.6847 71.38ZM45.5628 71.38C47.5068 71.38 49.1028 69.988 49.1028 67.276V65.392C49.1028 62.704 47.5068 61.3 45.5628 61.3C43.6188 61.3 42.0348 62.704 42.0348 65.392V67.276C42.0348 69.988 43.6188 71.38 45.5628 71.38ZM45.5628 70.3C44.2548 70.3 43.2348 69.316 43.2348 67.216V65.464C43.2348 63.364 44.2548 62.38 45.5628 62.38C46.8708 62.38 47.8908 63.364 47.8908 65.464V67.216C47.8908 69.316 46.8708 70.3 45.5628 70.3ZM57.2703 71.2V70.096H52.4223L55.1703 67.372C56.3343 66.22 57.0423 65.26 57.0423 63.94C57.0423 62.308 55.7943 61.3 53.9223 61.3C52.0983 61.3 51.0423 62.62 50.6463 64.048L51.7863 64.324C52.1103 63.256 52.7223 62.38 53.9223 62.38C55.1583 62.38 55.8543 63.016 55.8543 63.988C55.8543 64.888 55.3503 65.644 54.2583 66.724L50.6943 70.264V71.2H57.2703ZM63.7114 66.592C64.8754 66.592 65.8474 65.788 65.8474 64.396V63.484C65.8474 62.116 64.8754 61.3 63.7114 61.3C62.5354 61.3 61.5634 62.116 61.5634 63.484V64.396C61.5634 65.788 62.5354 66.592 63.7114 66.592ZM64.1434 71.2L70.8514 61.48H69.5074L62.7994 71.2H64.1434ZM63.7114 65.584C63.0994 65.584 62.6314 65.14 62.6314 64.324V63.556C62.6314 62.752 63.0994 62.296 63.7114 62.296C64.3234 62.296 64.7794 62.752 64.7794 63.556V64.324C64.7794 65.14 64.3234 65.584 63.7114 65.584ZM69.8794 71.38C71.0434 71.38 72.0154 70.576 72.0154 69.184V68.272C72.0154 66.904 71.0434 66.088 69.8794 66.088C68.7034 66.088 67.7314 66.904 67.7314 68.272V69.184C67.7314 70.576 68.7034 71.38 69.8794 71.38ZM69.8794 70.384C69.2674 70.384 68.7994 69.928 68.7994 69.112V68.344C68.7994 67.54 69.2674 67.084 69.8794 67.084C70.4914 67.084 70.9474 67.54 70.9474 68.344V69.112C70.9474 69.928 70.4914 70.384 69.8794 70.384ZM80.7881 67.492C81.8201 67.492 82.5761 66.664 82.9001 65.74L81.8561 65.332C81.6161 65.908 81.3281 66.34 80.6921 66.34C79.9121 66.34 79.2401 65.188 78.0761 65.188C77.0441 65.188 76.3001 66.004 75.9761 66.94L77.0201 67.348C77.2481 66.808 77.5361 66.34 78.1841 66.34C78.9521 66.34 79.6361 67.492 80.7881 67.492ZM95.1202 71.848H96.3202V60.712H95.1202V71.848ZM87.5842 67.66C88.7962 66.988 89.6962 66.268 90.2722 65.44L93.2842 67.54L93.9202 66.544L90.8122 64.42C90.9442 64.036 91.0162 63.616 91.0402 63.172H93.5242V62.104H91.0402V60.724H89.8522V62.104H87.3802V63.172H89.8522C89.7682 64.552 88.7842 65.644 86.9962 66.664L87.5842 67.66ZM91.0402 67.252H89.8402V69.124C89.5042 69.136 89.1802 69.136 88.9042 69.136H86.8882L86.9482 70.24H88.7962C90.4282 70.24 92.6122 70.096 94.3162 69.856L94.1842 68.788C93.2002 68.908 92.0722 69.004 91.0402 69.064V67.252ZM106.715 64.9H105.287V60.88H104.159V71.62H105.287V65.992H106.715V71.848H107.879V60.712H106.715V64.9ZM99.7911 68.944V62.632H102.767V61.528H98.5911V70.036H100.115C101.339 70.036 102.347 69.976 103.415 69.784L103.295 68.716C102.191 68.884 101.231 68.944 100.283 68.944H99.7911ZM116.451 71.2V61.48H115.431L112.359 63.928L113.043 64.828L115.251 63.064V71.2H116.451ZM122.086 71.38C124.162 71.38 125.626 70.3 125.626 68.536C125.626 67.516 124.954 66.616 123.766 66.16C124.858 65.716 125.35 64.9 125.35 63.952C125.35 62.272 123.982 61.3 122.086 61.3C120.19 61.3 118.834 62.272 118.834 63.952C118.834 64.9 119.326 65.716 120.418 66.16C119.218 66.616 118.558 67.516 118.558 68.536C118.558 70.3 120.034 71.38 122.086 71.38ZM122.086 65.668C120.79 65.668 120.022 64.996 120.022 64.024C120.022 63.052 120.79 62.38 122.086 62.38C123.394 62.38 124.162 63.052 124.162 64.024C124.162 64.996 123.394 65.668 122.086 65.668ZM122.086 70.3C120.622 70.3 119.746 69.568 119.746 68.5C119.746 67.456 120.658 66.7 122.086 66.7C123.526 66.7 124.426 67.456 124.426 68.5C124.426 69.568 123.562 70.3 122.086 70.3ZM127.974 71.38C128.43 71.38 128.79 71.02 128.79 70.564C128.79 70.108 128.43 69.736 127.974 69.736C127.518 69.736 127.146 70.108 127.146 70.564C127.146 71.02 127.518 71.38 127.974 71.38ZM136.156 68.176V61.48H134.548L130.084 68.296V69.28H134.968V71.38H136.156V69.28H137.656V68.176H136.156ZM134.968 62.848V68.176H131.524L134.968 62.848ZM142.442 71.38C144.518 71.38 145.982 70.3 145.982 68.536C145.982 67.516 145.31 66.616 144.122 66.16C145.214 65.716 145.706 64.9 145.706 63.952C145.706 62.272 144.338 61.3 142.442 61.3C140.546 61.3 139.19 62.272 139.19 63.952C139.19 64.9 139.682 65.716 140.774 66.16C139.574 66.616 138.914 67.516 138.914 68.536C138.914 70.3 140.39 71.38 142.442 71.38ZM142.442 65.668C141.146 65.668 140.378 64.996 140.378 64.024C140.378 63.052 141.146 62.38 142.442 62.38C143.75 62.38 144.518 63.052 144.518 64.024C144.518 64.996 143.75 65.668 142.442 65.668ZM142.442 70.3C140.978 70.3 140.102 69.568 140.102 68.5C140.102 67.456 141.014 66.7 142.442 66.7C143.882 66.7 144.782 67.456 144.782 68.5C144.782 69.568 143.918 70.3 142.442 70.3ZM149.469 66.592C150.633 66.592 151.605 65.788 151.605 64.396V63.484C151.605 62.116 150.633 61.3 149.469 61.3C148.293 61.3 147.321 62.116 147.321 63.484V64.396C147.321 65.788 148.293 66.592 149.469 66.592ZM149.901 71.2L156.609 61.48H155.265L148.557 71.2H149.901ZM149.469 65.584C148.857 65.584 148.389 65.14 148.389 64.324V63.556C148.389 62.752 148.857 62.296 149.469 62.296C150.081 62.296 150.537 62.752 150.537 63.556V64.324C150.537 65.14 150.081 65.584 149.469 65.584ZM155.637 71.38C156.801 71.38 157.773 70.576 157.773 69.184V68.272C157.773 66.904 156.801 66.088 155.637 66.088C154.461 66.088 153.489 66.904 153.489 68.272V69.184C153.489 70.576 154.461 71.38 155.637 71.38ZM155.637 70.384C155.025 70.384 154.557 69.928 154.557 69.112V68.344C154.557 67.54 155.025 67.084 155.637 67.084C156.249 67.084 156.705 67.54 156.705 68.344V69.112C156.705 69.928 156.249 70.384 155.637 70.384Z" fill="white"/>
</svg>
