<svg width="64" height="64" viewBox="0 0 64 64" fill="none" xmlns="http://www.w3.org/2000/svg">
<rect width="64" height="64" fill="white"/>
<path d="M32 14C33.1 14 34 14.9 34 16C34 17.1 33.1 18 32 18C30.9 18 30 17.1 30 16C30 14.9 30.9 14 32 14ZM32 24C34.7 24 37.8 25.29 38 26H26C26.23 25.28 29.31 24 32 24ZM32 12C29.79 12 28 13.79 28 16C28 18.21 29.79 20 32 20C34.21 20 36 18.21 36 16C36 13.79 34.21 12 32 12ZM32 22C29.33 22 24 23.34 24 26V28H40V26C40 23.34 34.67 22 32 22Z" fill="black"/>
<path d="M29.752 44.056V39.724H28.888V50.8H29.752V44.848H31.588V44.056H29.752ZM26.452 48.976V40.612H21.268V48.976H26.452ZM25.6 41.404V48.184H22.12V41.404H25.6ZM41.7429 50.8V39.724H40.8789V50.8H41.7429ZM35.7069 49.324C37.2669 49.324 38.5509 48.28 38.5509 45.652V43.996C38.5509 41.368 37.2669 40.324 35.7069 40.324C34.1469 40.324 32.8629 41.368 32.8629 43.996V45.652C32.8629 48.28 34.1469 49.324 35.7069 49.324ZM35.7069 48.532C34.5669 48.532 33.7269 47.704 33.7269 45.64V43.996C33.7269 41.932 34.5669 41.116 35.7069 41.116C36.8469 41.116 37.6989 41.932 37.6989 43.996V45.64C37.6989 47.704 36.8469 48.532 35.7069 48.532Z" fill="#666666"/>
</svg>
